<svg xmlns="http://www.w3.org/2000/svg" xmlns:xlink="http://www.w3.org/1999/xlink" width="293.255" height="323.072" viewBox="0 0 293.255 323.072">
  <defs>
    <clipPath id="clip-path">
      <path id="Trazado_180078" data-name="Trazado 180078" d="M101.267-65.145c-4.5,0-27.358,4.549-39.123,15.453-11,10.2-2.366,23.108-2.366,23.108S52.787-14.9,51.952-5.023c-.557,6.6,5.925,11.878,2.405,13.419A130.249,130.249,0,1,0,218.98,193.688c1.34-2.27,3.111-.805,5.558,0,3.656,1.194,8.484,3.39,11.451,0,8.163-9.328,21.4-25.213,21.827-41.655.018-.663,1.729-23.467,1.729-24.336,0-20.215-3.011-105.488-3.011-105.488S239.989,19.542,227.983,8.4c-2.458-2.282-55.7-59.874-76.45-58.088C138.4-63.5,108.519-65.145,101.267-65.145Z" transform="translate(23.568 65.145)" fill="#fed947"/>
    </clipPath>
  </defs>
  <g id="Grupo_174381" data-name="Grupo 174381" transform="translate(0)">
    <ellipse id="Elipse_4864" data-name="Elipse 4864" cx="130.23" cy="130.231" rx="130.23" ry="130.231" transform="translate(10.142 62.611)" fill="#fed947"/>
    <g id="Grupo_174380" data-name="Grupo 174380" transform="translate(0 65.926)">
      <g id="Grupo_174380-2" data-name="Grupo 174380" transform="translate(40.718)">
        <path id="Trazado_180079" data-name="Trazado 180079" d="M791.528,517c.027,0,.055.006.083.008a.978.978,0,0,0,1.033-.92c.52-9.082-2.389-18.71-9.154-30.3-1.779-3.047-3.705-6.07-5.568-8.994-3.687-5.788-7.5-11.772-10.272-18.125-9.733-22.307-6.6-47.967-1.773-72.374a.978.978,0,1,0-1.919-.379c-4.892,24.718-8.049,50.735,1.9,73.535,2.833,6.493,6.688,12.543,10.416,18.394,1.853,2.908,3.769,5.915,5.528,8.929,6.563,11.243,9.388,20.523,8.891,29.2a.978.978,0,0,0,.837,1.024" transform="translate(-738.772 -361.214)" fill="#3c3fa7"/>
        <path id="Trazado_180080" data-name="Trazado 180080" d="M823.31,307.264c1.017-1.7,2.56-3.415,4.537-3.372a4.145,4.145,0,0,1,3.409,2.37,8.6,8.6,0,0,1,.737,4.248c-.123,3.431-6.575,22.644-10.779,19.87-2.532-1.671-1.671-9.2-1.436-11.736a26.869,26.869,0,0,1,3.532-11.38" transform="translate(-795.77 -303.891)" fill="#3c3fa7"/>
        <path id="Trazado_180081" data-name="Trazado 180081" d="M812.85,393.869a7.783,7.783,0,0,1,3.982-.586,3.675,3.675,0,0,1,2.99,2.436,3.734,3.734,0,0,1-1.081,3.463,8.857,8.857,0,0,1-3.241,1.92c-1.583.614-3.215,1.093-4.844,1.57l-7.1,2.08a1.183,1.183,0,0,1-.352.065.82.82,0,0,1-.686-.912c.153-2.1,2.6-4.652,4.032-6.034a18.381,18.381,0,0,1,6.3-4" transform="translate(-778.704 -366.918)" fill="#3c3fa7"/>
        <path id="Trazado_180082" data-name="Trazado 180082" d="M870,384.808c-1.06-1.306-2.388-2.589-4.061-2.767a2.751,2.751,0,0,0-1.315.156,2.627,2.627,0,0,0-1.221,1.074,4.382,4.382,0,0,0,.185,4.357,12.907,12.907,0,0,0,3.112,3.32l5.571,4.686c.616.518,1.783,1.982,2.411,1.415a5.5,5.5,0,0,0,.307-2.129c-.059-3.473-2.887-7.523-4.99-10.112" transform="translate(-851.547 -359.023)" fill="#3c3fa7"/>
        <path id="Trazado_180083" data-name="Trazado 180083" d="M807.149,447.691a20.518,20.518,0,0,1,7.232-3.768,4.617,4.617,0,0,1,3.523.306c1.637,1.044,1.739,3.543.736,5.2a11.383,11.383,0,0,1-4.46,3.636L798.489,461.9c-.192-6.213,3.946-10.76,8.66-14.21" transform="translate(-776.881 -402.56)" fill="#3c3fa7"/>
        <path id="Trazado_180084" data-name="Trazado 180084" d="M879.946,436.661a14.643,14.643,0,0,0-5.41-4.642,6.387,6.387,0,0,0-3.72-.592,3.757,3.757,0,0,0-2.88,2.25c-.674,1.839.519,3.81,1.793,5.3A67.6,67.6,0,0,0,884.4,451.583a1.381,1.381,0,0,0,.621.267.91.91,0,0,0,.835-.545,2.034,2.034,0,0,0,.14-1.037,14.293,14.293,0,0,0-1.06-3.19c-.357-1.179-.461-2.394-.936-3.573a29.735,29.735,0,0,0-4.054-6.843" transform="translate(-863.988 -393.831)" fill="#3c3fa7"/>
        <path id="Trazado_180085" data-name="Trazado 180085" d="M829.708,512.529a3.471,3.471,0,0,1,2.706-.822,2.614,2.614,0,0,1,1.714,2.668,7.343,7.343,0,0,1-1.128,3.2c-2.5,4.587-6.276,13.372-10.82,16.035-4.3-6.392,2.144-17.329,7.528-21.084" transform="translate(-798.285 -450.491)" fill="#3c3fa7"/>
        <path id="Trazado_180086" data-name="Trazado 180086" d="M880.616,510.106c-3.22-1.546-6.936-2.726-10.322-1.589a3.737,3.737,0,0,0-1.879,1.217,3.206,3.206,0,0,0,.236,3.672,7.871,7.871,0,0,0,3.158,2.278,43.829,43.829,0,0,0,9.143,2.951c1.27.28,7.853,2.224,8.666,1.29,1.178-1.354-1.681-4.614-2.43-5.383a22.825,22.825,0,0,0-6.572-4.435" transform="translate(-867.938 -447.962)" fill="#3c3fa7"/>
        <path id="Trazado_180087" data-name="Trazado 180087" d="M796.569,613.9a14.328,14.328,0,0,1,4.056-7,4.681,4.681,0,0,1,3.493-1.447,3.852,3.852,0,0,1,3.046,3.152,9.1,9.1,0,0,1-.528,4.6,30.927,30.927,0,0,1-7.122,11.9c-.57.592-1.47,1.193-2.132.707-2.946-2.165-1.548-9.177-.814-11.912" transform="translate(-764.027 -516.668)" fill="#3c3fa7"/>
        <path id="Trazado_180088" data-name="Trazado 180088" d="M857.433,605.112a19.378,19.378,0,0,0-8.5-1.052,3.857,3.857,0,0,0-3.144,1.977,3.07,3.07,0,0,0,.834,3.159,7.984,7.984,0,0,0,2.977,1.7,201.536,201.536,0,0,0,19.761,5.813c.037-7.018-5.963-9.827-11.924-11.6" transform="translate(-840.828 -515.598)" fill="#3c3fa7"/>
      </g>
      <path id="Trazado_180089" data-name="Trazado 180089" d="M279.9,383.211c-1.393-.459-3.055-.68-4.217.216a3.322,3.322,0,0,0-1.142,2.907,6.249,6.249,0,0,0,1.216,2.982c3.066,4.388,8.7,6.627,12.619,10.169,2.747,2.482,2.568-1.827,2.162-3.817a16.983,16.983,0,0,0-3.362-7.311,15.758,15.758,0,0,0-7.275-5.145" transform="translate(-73.418 -335.524)" fill="#3c3fa7"/>
      <path id="Trazado_180111" data-name="Trazado 180111" d="M10.869.4c1.393-.459,3.055-.68,4.217.216a3.322,3.322,0,0,1,1.142,2.907A6.249,6.249,0,0,1,15.012,6.5c-3.066,4.389-8.7,6.627-12.619,10.169C-.353,19.155-.174,14.846.232,12.856A16.984,16.984,0,0,1,3.594,5.545,15.758,15.758,0,0,1,10.869.4" transform="matrix(0.875, -0.485, 0.485, 0.875, 27.059, 130.648)" fill="#3c3fa7"/>
      <path id="Trazado_180090" data-name="Trazado 180090" d="M258.675,432.425a.831.831,0,0,0,.756-1.257c-8.761-14.625-8.08-31.977-5.966-43.957,2.056-11.652,6.129-23.039,10.067-34.052,1.13-3.161,2.3-6.429,3.4-9.656,4.6-13.439,9.14-29.323,7.95-45.239a.831.831,0,0,0-1.658.124c1.168,15.617-3.321,31.3-7.865,44.577-1.1,3.216-2.267,6.479-3.4,9.634-3.962,11.078-8.059,22.532-10.14,34.323-2.163,12.26-2.848,30.036,6.177,45.1a.83.83,0,0,0,.67.4" transform="translate(-51.708 -271.552)" fill="#3c3fa7"/>
      <path id="Trazado_180112" data-name="Trazado 180112" d="M16.4,134.93a.831.831,0,0,1-.756-1.257c8.761-14.625,8.08-31.977,5.966-43.957-2.056-11.652-6.129-23.039-10.067-34.052-1.13-3.161-2.3-6.429-3.4-9.656C3.543,32.57-1,16.685.192.769A.831.831,0,0,1,1.85.893C.683,16.51,5.171,32.19,9.715,45.47c1.1,3.216,2.267,6.478,3.4,9.634,3.962,11.078,8.059,22.532,10.139,34.323,2.163,12.26,2.848,30.036-6.177,45.1a.83.83,0,0,1-.67.4" transform="matrix(0.875, -0.485, 0.485, 0.875, 11.443, 114.898)" fill="#3c3fa7"/>
      <path id="Trazado_180091" data-name="Trazado 180091" d="M244.269,234.282a7.91,7.91,0,0,0-2.088-3.527,3.548,3.548,0,0,0-3.843-.675,4.65,4.65,0,0,0-2,2.982c-1.188,4.1-.581,8.524.612,12.625.82,2.819,1.649,6.306,3.083,8.872,1.743,3.119,3.125-1.39,3.746-3.22,1.856-5.465,2.363-11.524.487-17.056" transform="translate(-18.388 -220.77)" fill="#3c3fa7"/>
      <path id="Trazado_180113" data-name="Trazado 180113" d="M1.18,4.514A7.91,7.91,0,0,1,3.268.987,3.548,3.548,0,0,1,7.111.312a4.65,4.65,0,0,1,2,2.982c1.188,4.1.581,8.524-.612,12.625-.82,2.819-1.649,6.306-3.083,8.872-1.743,3.119-3.125-1.39-3.746-3.22C-.188,16.106-.7,10.047,1.18,4.514" transform="matrix(0.875, -0.485, 0.485, 0.875, 0, 101.869)" fill="#3c3fa7"/>
      <path id="Trazado_180092" data-name="Trazado 180092" d="M263.447,328.9c-1.332-.6-2.994-.982-4.171-.118a3.166,3.166,0,0,0-.7,3.819,7.408,7.408,0,0,0,2.941,2.925c3.492,2.206,7.67,3.634,10.158,6.931.319.423.99.88,1.264.427a.788.788,0,0,0,.079-.391c.148-5.2-4.487-12.032-9.568-13.591" transform="translate(-51.596 -294.635)" fill="#3c3fa7"/>
      <path id="Trazado_180114" data-name="Trazado 180114" d="M9.571.623C10.9.025,12.565-.359,13.742.5a3.166,3.166,0,0,1,.7,3.819A7.408,7.408,0,0,1,11.5,7.248c-3.492,2.206-7.67,3.634-10.158,6.931-.319.423-.99.88-1.264.427A.788.788,0,0,1,0,14.214C-.145,9.018,4.49,2.182,9.571.623" transform="matrix(0.875, -0.485, 0.485, 0.875, 16.881, 120.691)" fill="#3c3fa7"/>
      <path id="Trazado_180093" data-name="Trazado 180093" d="M196.749,338.185a8.906,8.906,0,0,1,3.758-.54,4.313,4.313,0,0,1,3.2,1.849,3.518,3.518,0,0,1-1.6,4.9,7.08,7.08,0,0,1-2.841.295c-4.329-.114-8.825.179-12.663,2.185-.676-1.621,2.9-4.433,3.973-5.3a19.551,19.551,0,0,1,6.171-3.39" transform="translate(35.201 -301.63)" fill="#3c3fa7"/>
      <path id="Trazado_180115" data-name="Trazado 180115" d="M7.415.578A8.906,8.906,0,0,0,3.657.038a4.313,4.313,0,0,0-3.2,1.849,3.518,3.518,0,0,0,1.6,4.9A7.079,7.079,0,0,0,4.9,7.084c4.329-.114,8.824.179,12.663,2.185.676-1.621-2.9-4.433-3.973-5.3A19.552,19.552,0,0,0,7.415.578" transform="matrix(0.875, -0.485, 0.485, 0.875, 2.319, 131.43)" fill="#3c3fa7"/>
      <path id="Trazado_180094" data-name="Trazado 180094" d="M208.087,404.53c2.081-.118,4.452.252,5.652,1.956a2.144,2.144,0,0,1,.447,1.465c-.119.941-1.06,1.528-1.922,1.926-5.455,2.518-11.8,3.047-16.789,6.4a1.463,1.463,0,0,1-.866.349c-3.018-.2,2.2-7.257,2.994-7.942a17.674,17.674,0,0,1,10.483-4.152" transform="translate(23.376 -351.795)" fill="#3c3fa7"/>
      <path id="Trazado_180116" data-name="Trazado 180116" d="M6.111.02C4.03-.1,1.659.272.459,1.976A2.145,2.145,0,0,0,.012,3.441c.119.941,1.06,1.528,1.922,1.926,5.455,2.518,11.8,3.047,16.789,6.4a1.463,1.463,0,0,0,.866.349c3.018-.2-2.2-7.257-2.994-7.942A17.675,17.675,0,0,0,6.111.02" transform="matrix(0.875, -0.485, 0.485, 0.875, 12, 145.201)" fill="#3c3fa7"/>
      <path id="Trazado_180095" data-name="Trazado 180095" d="M307.57,441.553a9.47,9.47,0,0,0-3.656-1.53,4.268,4.268,0,0,0-3.682,1.1c-1.136,1.2-1.211,3.057-.9,4.676.71,3.644,2.994,6.785,5.524,9.5a49.506,49.506,0,0,0,9.539,7.96c.741.475,1.717.931,2.447.439a2.218,2.218,0,0,0,.743-1.219c2.683-8.253-3.152-16.589-10.02-20.932" transform="translate(-107.076 -378.385)" fill="#3c3fa7"/>
      <path id="Trazado_180117" data-name="Trazado 180117" d="M10.687,1.58A9.471,9.471,0,0,1,14.343.05a4.268,4.268,0,0,1,3.682,1.1c1.136,1.2,1.211,3.057.9,4.676-.71,3.644-2.994,6.786-5.524,9.5a49.506,49.506,0,0,1-9.539,7.96c-.741.475-1.717.931-2.447.439a2.218,2.218,0,0,1-.743-1.219C-2.017,14.259,3.818,5.924,10.687,1.58" transform="matrix(0.875, -0.485, 0.485, 0.875, 39.387, 140.165)" fill="#3c3fa7"/>
      <path id="Trazado_180096" data-name="Trazado 180096" d="M203.091,484.382a21.558,21.558,0,0,1,12.916-2.444c2.059.287,4.406,1.262,4.812,3.3a3.831,3.831,0,0,1-.6,2.712,7.792,7.792,0,0,1-5.392,3.208,46.8,46.8,0,0,1-6.451.306,30.451,30.451,0,0,0-14.872,4.543.588.588,0,0,1-.525.126.534.534,0,0,1-.244-.392c-.994-4.252,7.226-9.709,10.352-11.36" transform="translate(16.954 -409.715)" fill="#3c3fa7"/>
      <path id="Trazado_180118" data-name="Trazado 180118" d="M17.785,2.626A21.558,21.558,0,0,0,4.869.182C2.81.469.464,1.444.057,3.483A3.831,3.831,0,0,0,.654,6.2,7.792,7.792,0,0,0,6.046,9.4a46.8,46.8,0,0,0,6.451.306,30.451,30.451,0,0,1,14.872,4.543.588.588,0,0,0,.525.126.534.534,0,0,0,.244-.392c.994-4.252-7.226-9.709-10.352-11.36" transform="matrix(0.875, -0.485, 0.485, 0.875, 21.146, 162.228)" fill="#3c3fa7"/>
      <path id="Trazado_180097" data-name="Trazado 180097" d="M340.336,545.963a16.4,16.4,0,0,0-6.309-6.97,4.311,4.311,0,0,0-3.855-.559,3.229,3.229,0,0,0-1.676,2.746,6.312,6.312,0,0,0,.838,3.227,24.734,24.734,0,0,0,3.236,4.458l7.879,9.308a2.077,2.077,0,0,0,.8.669c.844.316,1.693-.579,1.867-1.463.715-3.633-1.165-8.245-2.777-11.416" transform="translate(-139.422 -452.017)" fill="#3c3fa7"/>
      <path id="Trazado_180119" data-name="Trazado 180119" d="M2.933,7.79A16.4,16.4,0,0,1,9.241.82,4.311,4.311,0,0,1,13.1.262a3.229,3.229,0,0,1,1.676,2.746,6.312,6.312,0,0,1-.838,3.227A24.73,24.73,0,0,1,10.7,10.692L2.819,20a2.077,2.077,0,0,1-.8.669C1.18,20.985.33,20.091.156,19.206-.559,15.573,1.321,10.961,2.933,7.79" transform="matrix(0.875, -0.485, 0.485, 0.875, 57.711, 158.097)" fill="#3c3fa7"/>
      <path id="Trazado_180098" data-name="Trazado 180098" d="M235.225,570a10.27,10.27,0,0,1,5.867.372,6.262,6.262,0,0,1,2.4,8.938c-1.905,2.667-5.561,3.312-8.836,3.443-7.228.289-15.035-.719-21.2,3.072.447-.275,1.044-2.919,1.343-3.539a11.667,11.667,0,0,1,1.168-2.078,23.519,23.519,0,0,1,5.425-4.649A34.314,34.314,0,0,1,235.225,570" transform="translate(-11.873 -475.699)" fill="#3c3fa7"/>
      <g id="Grupo_174382" data-name="Grupo 174382" transform="translate(185.128 71.651)">
        <path id="Trazado_180100" data-name="Trazado 180100" d="M10.869,17.023c1.393.459,3.055.68,4.217-.216A3.322,3.322,0,0,0,16.228,13.9a6.249,6.249,0,0,0-1.216-2.982C11.946,6.53,6.314,4.292,2.394.75-.353-1.732-.174,2.577.232,4.567a16.983,16.983,0,0,0,3.362,7.311,15.758,15.758,0,0,0,7.275,5.145" transform="matrix(-0.875, -0.485, 0.485, -0.875, 62.894, 48.745)" fill="#3c3fa7"/>
        <path id="Trazado_180101" data-name="Trazado 180101" d="M16.4,0a.831.831,0,0,0-.756,1.257c8.761,14.625,8.08,31.977,5.966,43.957-2.056,11.652-6.129,23.039-10.067,34.052-1.13,3.161-2.3,6.429-3.4,9.656C3.543,102.362-1,118.246.192,134.163a.831.831,0,0,0,1.658-.124c-1.168-15.617,3.321-31.3,7.865-44.577,1.1-3.216,2.267-6.479,3.4-9.634C17.073,68.75,21.17,57.3,23.251,45.505,25.414,33.245,26.1,15.469,17.074.4A.83.83,0,0,0,16.4,0" transform="matrix(-0.875, -0.485, 0.485, -0.875, 21.541, 135.771)" fill="#3c3fa7"/>
        <path id="Trazado_180102" data-name="Trazado 180102" d="M1.18,21.347a7.91,7.91,0,0,0,2.088,3.527,3.548,3.548,0,0,0,3.843.675,4.65,4.65,0,0,0,2-2.982c1.188-4.1.581-8.524-.612-12.625-.82-2.819-1.649-6.306-3.083-8.872C3.671-2.049,2.289,2.46,1.667,4.291-.188,9.756-.7,15.815,1.18,21.347" transform="matrix(-0.875, -0.485, 0.485, -0.875, 85.862, 27.347)" fill="#3c3fa7"/>
        <path id="Trazado_180103" data-name="Trazado 180103" d="M9.572,14.17c1.332.6,2.994.982,4.171.118a3.166,3.166,0,0,0,.7-3.819A7.408,7.408,0,0,0,11.5,7.545C8.013,5.339,3.835,3.911,1.347.614,1.028.191.357-.265.083.188A.788.788,0,0,0,0,.579C-.145,5.776,4.49,12.611,9.572,14.17" transform="matrix(-0.875, -0.485, 0.485, -0.875, 74.347, 36.489)" fill="#3c3fa7"/>
        <path id="Trazado_180104" data-name="Trazado 180104" d="M7.415,8.692a8.906,8.906,0,0,1-3.759.54,4.313,4.313,0,0,1-3.2-1.849,3.518,3.518,0,0,1,1.6-4.9A7.08,7.08,0,0,1,4.9,2.185C9.227,2.3,13.722,2.006,17.56,0c.676,1.621-2.9,4.433-3.973,5.3a19.551,19.551,0,0,1-6.171,3.39" transform="matrix(-0.875, -0.485, 0.485, -0.875, 91.587, 42.396)" fill="#3c3fa7"/>
        <path id="Trazado_180105" data-name="Trazado 180105" d="M6.111,12.1c-2.081.118-4.452-.252-5.652-1.956A2.144,2.144,0,0,1,.012,8.675c.119-.941,1.06-1.528,1.922-1.926C7.389,4.231,13.736,3.7,18.722.35A1.463,1.463,0,0,1,19.589,0c3.018.2-2.2,7.257-2.994,7.942A17.674,17.674,0,0,1,6.111,12.1" transform="matrix(-0.875, -0.485, 0.485, -0.875, 80.526, 58.657)" fill="#3c3fa7"/>
        <path id="Trazado_180106" data-name="Trazado 180106" d="M10.687,22.363a9.471,9.471,0,0,0,3.656,1.53,4.268,4.268,0,0,0,3.682-1.1c1.136-1.2,1.211-3.057.9-4.676-.71-3.644-2.994-6.785-5.524-9.5A49.507,49.507,0,0,0,3.857.651C3.116.176,2.14-.28,1.41.212A2.218,2.218,0,0,0,.667,1.431C-2.017,9.684,3.818,18.02,10.687,22.363" transform="matrix(-0.875, -0.485, 0.485, -0.875, 47.405, 63.966)" fill="#3c3fa7"/>
        <path id="Trazado_180107" data-name="Trazado 180107" d="M17.785,11.779A21.558,21.558,0,0,1,4.869,14.223C2.81,13.935.464,12.961.057,10.922a3.831,3.831,0,0,1,.6-2.712A7.792,7.792,0,0,1,6.046,5,46.8,46.8,0,0,1,12.5,4.7,30.451,30.451,0,0,0,27.368.153a.588.588,0,0,1,.525-.126.534.534,0,0,1,.244.392c.994,4.252-7.226,9.709-10.352,11.36" transform="matrix(-0.875, -0.485, 0.485, -0.875, 70.27, 77.686)" fill="#3c3fa7"/>
        <path id="Trazado_180108" data-name="Trazado 180108" d="M2.933,12.944a16.4,16.4,0,0,0,6.309,6.97,4.311,4.311,0,0,0,3.855.559,3.229,3.229,0,0,0,1.676-2.746,6.312,6.312,0,0,0-.838-3.227A24.734,24.734,0,0,0,10.7,10.042L2.819.734a2.077,2.077,0,0,0-.8-.669C1.18-.251.33.644.156,1.528-.559,5.161,1.321,9.773,2.933,12.944" transform="matrix(-0.875, -0.485, 0.485, -0.875, 30.636, 79.092)" fill="#3c3fa7"/>
        <path id="Trazado_180109" data-name="Trazado 180109" d="M9.272,15.825a10.27,10.27,0,0,1-5.867-.372A6.262,6.262,0,0,1,1,6.515C2.907,3.848,6.563,3.2,9.838,3.072c7.228-.289,15.035.719,21.2-3.072-.447.275-1.044,2.919-1.343,3.539a11.667,11.667,0,0,1-1.168,2.078A23.519,23.519,0,0,1,23.1,10.266,34.314,34.314,0,0,1,9.272,15.825" transform="matrix(-0.875, -0.485, 0.485, -0.875, 54.236, 95.875)" fill="#3c3fa7"/>
      </g>
      <path id="Trazado_180120" data-name="Trazado 180120" d="M9.272.246A10.27,10.27,0,0,0,3.406.618,6.262,6.262,0,0,0,1,9.556C2.907,12.222,6.563,12.868,9.838,13c7.228.289,15.035-.719,21.2,3.072-.447-.275-1.044-2.919-1.343-3.539a11.668,11.668,0,0,0-1.168-2.078A23.519,23.519,0,0,0,23.1,5.8,34.314,34.314,0,0,0,9.272.246" transform="matrix(0.875, -0.485, 0.485, 0.875, 36.373, 178.96)" fill="#3c3fa7"/>
      <path id="Trazado_180099" data-name="Trazado 180099" d="M351.394,627.2a15.23,15.23,0,0,0-3.789-5.484,11.043,11.043,0,0,0-3-2.029,1.821,1.821,0,0,0-1.223-.192,1.6,1.6,0,0,0-.757.581,5.14,5.14,0,0,0-.572,4.792,13.9,13.9,0,0,0,2.663,4.237q3.128,3.792,6.587,7.293a.862.862,0,0,0,.473.3c.391.047.631-.412.733-.793.827-3.093.052-5.814-1.114-8.706" transform="translate(-152.318 -512.959)" fill="#3c3fa7"/>
      <path id="Trazado_180110" data-name="Trazado 180110" d="M1.459,9.5a15.23,15.23,0,0,0,3.789,5.484,11.044,11.044,0,0,0,3,2.029,1.821,1.821,0,0,0,1.223.192,1.6,1.6,0,0,0,.757-.581,5.14,5.14,0,0,0,.572-4.792A13.9,13.9,0,0,0,8.137,7.6Q5.009,3.806,1.55.305A.862.862,0,0,0,1.077,0C.686-.044.447.415.345.8-.482,3.889.293,6.61,1.459,9.5" transform="matrix(-0.875, -0.485, 0.485, -0.875, 214.676, 162.021)" fill="#3c3fa7"/>
      <path id="Trazado_180121" data-name="Trazado 180121" d="M1.459,7.75A15.23,15.23,0,0,1,5.248,2.266a11.046,11.046,0,0,1,3-2.029A1.821,1.821,0,0,1,9.472.045a1.6,1.6,0,0,1,.757.58A5.14,5.14,0,0,1,10.8,5.417,13.9,13.9,0,0,1,8.137,9.654Q5.009,13.446,1.55,16.948a.862.862,0,0,1-.473.3c-.391.047-.631-.412-.733-.793C-.482,13.363.293,10.642,1.459,7.75" transform="matrix(0.875, -0.485, 0.485, 0.875, 70.464, 174.278)" fill="#3c3fa7"/>
    </g>
    <g id="Enmascarar_grupo_283" data-name="Enmascarar grupo 283" transform="translate(10.142)" clip-path="url(#clip-path)">
      <g id="Grupo_997176" data-name="Grupo 997176" transform="translate(-178.125 -75.91)">
        <g id="Grupo_997169" data-name="Grupo 997169" transform="translate(250.415 88.91)">
          <path id="Trazado_219558" data-name="Trazado 219558" d="M255.971,306.57s-1.519,23.6-.91,58.321,4.343,90.754,4.343,90.754h43.166l3.655-96.583,4.264-6.353,14.918,102.935h44.772L356.441,303.04Z" transform="translate(-242.962 -54.53)" fill="#3b2539"/>
          <path id="Trazado_219559" data-name="Trazado 219559" d="M250.967,301.809l1.305,14.849,39.83,4.732v-11.1Z" transform="translate(-243.597 -54.728)" fill="#6b8dfc"/>
          <g id="Grupo_997164" data-name="Grupo 997164" transform="translate(6.367 75.499)">
            <path id="Trazado_219560" data-name="Trazado 219560" d="M321.921,174.57c-6.476-3.532-4.71-20.606-4.71-20.606l-9.7.624v-.622l-1.039.311-1.038-.311v.622l-9.7-.624s1.766,17.074-4.71,20.606-44.739,5.3-40.618,44.739H362.539C366.659,179.868,328.4,178.1,321.921,174.57Z" transform="translate(-250.102 -153.964)" fill="#965450"/>
            <path id="Trazado_219561" data-name="Trazado 219561" d="M288.254,170.165q11.62-1.732,23.224-3.573a51.735,51.735,0,0,1-.392-12.628l-9.7.624v-.622l-1.039.311-1.038-.311v.622l-9.7-.624S290.637,163.884,288.254,170.165Z" transform="translate(-243.977 -153.964)" fill="#76413b"/>
          </g>
          <path id="Trazado_219562" data-name="Trazado 219562" d="M330.207,173.123c-3.476,9.071-12.724,15.56-23.592,15.56s-20.116-6.489-23.591-15.56c-13.338,3.658-36.786,11.493-33.483,43.11l5.294,109.827H362.989l.7-109.827C366.993,184.616,343.544,176.781,330.207,173.123Z" transform="translate(-243.876 -75.389)" fill="#fdedee"/>
          <path id="Trazado_219563" data-name="Trazado 219563" d="M293.121,330.858,281.293,173.726c-13.553,3.971-34.119,12.666-31.011,42.41l-5.64,95.986a14.433,14.433,0,0,0,12.983,15.21Z" transform="translate(-244.616 -75.292)" fill="#fc5f65"/>
          <path id="Trazado_219564" data-name="Trazado 219564" d="M278.6,173.965l2.9,43.444s-18.547-27.715-17.783-36.877S277.076,170.833,278.6,173.965Z" transform="translate(-241.553 -75.531)" fill="#6b8dfc"/>
          <path id="Trazado_219565" data-name="Trazado 219565" d="M359.8,297.009l-.05,14.906-39.29,8.069-.934-11.056Z" transform="translate(-232.588 -55.498)" fill="#6b8dfc"/>
          <path id="Trazado_219566" data-name="Trazado 219566" d="M319.73,329.078l-1.445-157.57c13.838,2.817,35.064,9.748,34.472,39.648l13.7,95.17a14.435,14.435,0,0,1-11.655,16.25Z" transform="translate(-232.788 -75.648)" fill="#fc5f65"/>
          <path id="Trazado_219567" data-name="Trazado 219567" d="M317.963,171.833l.773,43.534s16.147-29.179,14.615-38.243S319.221,168.583,317.963,171.833Z" transform="translate(-232.84 -75.942)" fill="#6b8dfc"/>
          <g id="Grupo_997168" data-name="Grupo 997168" transform="translate(31.872)">
            <g id="Grupo_997165" data-name="Grupo 997165" transform="translate(0.658 17.163)">
              <path id="Trazado_219568" data-name="Trazado 219568" d="M283.894,133.072c-1.908-5.919-6.425-4.549-6.848-4.407-.443.052-5.113.746-4.307,6.912.811,6.2,4.411,9.565,7.786,8.578C284,143.6,285.814,139.026,283.894,133.072Z" transform="translate(-272.646 -99.727)" fill="#76413b"/>
              <path id="Trazado_219569" data-name="Trazado 219569" d="M315.272,133.072c1.908-5.919,6.426-4.549,6.85-4.407.443.052,5.113.746,4.307,6.912-.812,6.2-4.411,9.565-7.786,8.578C315.168,143.6,313.353,139.026,315.272,133.072Z" transform="translate(-265.927 -99.727)" fill="#76413b"/>
              <path id="Trazado_219570" data-name="Trazado 219570" d="M278.393,128.075c2.364-25.949,22.092-24.5,23.953-24.3,1.86-.2,21.587-1.649,23.953,24.3,2.378,26.1-9.25,43.153-23.953,42.215C287.641,171.228,276.015,154.18,278.393,128.075Z" transform="translate(-271.773 -103.698)" fill="#965450"/>
            </g>
            <g id="Grupo_997166" data-name="Grupo 997166" transform="translate(12.888 37.594)">
              <path id="Trazado_219571" data-name="Trazado 219571" d="M302.321,127.325a39.922,39.922,0,0,1,1.7,7.175c.171,1.209.347,2.416.443,3.633.124,1.214.19,2.434.23,3.657l.016.519-.347.2c-.79.46-1.6.895-2.416,1.314-.829.4-1.653.812-2.531,1.143.626-.7,1.3-1.321,1.98-1.949.686-.613,1.382-1.208,2.1-1.78l-.331.721c-.229-1.2-.432-2.407-.576-3.617-.172-1.208-.263-2.426-.362-3.642A39.889,39.889,0,0,1,302.321,127.325Z" transform="translate(-280.577 -120.336)" fill="#76413b"/>
              <path id="Trazado_219572" data-name="Trazado 219572" d="M310.239,146.543c-4.7,4.566-12.652,4.313-18.678.244" transform="translate(-281.839 -117.25)" fill="#fff"/>
              <path id="Trazado_219573" data-name="Trazado 219573" d="M316.731,126.369c-1.267-.471-2.35-.906-3.381-1.256a12.218,12.218,0,0,0-2.871-.658,7.2,7.2,0,0,0-2.768.251,15.764,15.764,0,0,0-1.57.486c-.562.194-1.091.478-1.783.662a7.011,7.011,0,0,1,.8-1.845,6.088,6.088,0,0,1,1.424-1.492,5.853,5.853,0,0,1,4.173-1.183,6.9,6.9,0,0,1,3.866,1.677A6.453,6.453,0,0,1,316.731,126.369Z" transform="translate(-279.784 -121.303)" fill="#352c38"/>
              <path id="Trazado_219574" data-name="Trazado 219574" d="M295.557,126.369c-1.268-.471-2.351-.906-3.381-1.256a12.24,12.24,0,0,0-2.872-.658,7.192,7.192,0,0,0-2.767.251,15.878,15.878,0,0,0-1.571.486c-.561.194-1.09.478-1.781.662a7.01,7.01,0,0,1,.8-1.845,6.067,6.067,0,0,1,1.424-1.492,5.853,5.853,0,0,1,4.173-1.183,6.9,6.9,0,0,1,3.866,1.677A6.46,6.46,0,0,1,295.557,126.369Z" transform="translate(-283.184 -121.303)" fill="#352c38"/>
              <path id="Trazado_219575" data-name="Trazado 219575" d="M294.287,134.507a8.524,8.524,0,0,0-1.6-2.836,3.313,3.313,0,0,0-2.528-1.106,2.916,2.916,0,0,0-2.494.98,6.766,6.766,0,0,0-1.216,2.963,4.588,4.588,0,0,1,.321-3.572,3.471,3.471,0,0,1,1.474-1.381,4.654,4.654,0,0,1,1.947-.374,3.973,3.973,0,0,1,3.352,1.836A5.193,5.193,0,0,1,294.287,134.507Z" transform="translate(-282.694 -120.038)" fill="#352c38"/>
              <path id="Trazado_219576" data-name="Trazado 219576" d="M313.315,134.2a8.546,8.546,0,0,0-1.6-2.836,3.309,3.309,0,0,0-2.527-1.106,2.917,2.917,0,0,0-2.5.981,6.754,6.754,0,0,0-1.215,2.962,4.588,4.588,0,0,1,.321-3.572,3.461,3.461,0,0,1,1.473-1.381,4.662,4.662,0,0,1,1.949-.374,3.971,3.971,0,0,1,3.351,1.836A5.188,5.188,0,0,1,313.315,134.2Z" transform="translate(-279.639 -120.087)" fill="#352c38"/>
            </g>
            <g id="Grupo_997167" data-name="Grupo 997167">
              <path id="Trazado_219577" data-name="Trazado 219577" d="M328.287,110.443c-1.33-5.322-4.505-6.669-6.028-7.009-.877-13.712-37.52-16.226-38-13.6-.508,2.8,12.979,7.38,12.979,7.38s-24.176-6.361-22.9-.764c1.033,4.548,10.8,4.058,14.428,3.715-5.1.636-22.545,3.438-14.682,11.3a12.732,12.732,0,0,0,2.077,1.671c-.732,9.747,2.16,32.684,2.16,32.684h2.034l-.764-15.778c3.946-.789,5.749-10.135,6.361-14.3a46.633,46.633,0,0,0,15.873-3.111c-1.5.7-3.859,2.292-1.277,4.69,2.636,2.446,12.088-.535,16.832-2.253.873,3.716,3.678,14.141,7.853,14.976l-.764,15.778h2.034S330.068,117.569,328.287,110.443Z" transform="translate(-272.079 -88.91)" fill="#fddec0"/>
              <path id="Trazado_219578" data-name="Trazado 219578" d="M324.141,109.323c-1.33-5.322-4.505-6.669-6.028-7.009a9.252,9.252,0,0,0-3.63-6.432c-1.14,9.3-7.944,17.2-16.582,21.032,3.717.9,11.259-1.5,15.334-2.972.873,3.716,3.678,14.141,7.853,14.976l-.764,15.778h2.034S325.923,116.449,324.141,109.323Z" transform="translate(-267.933 -87.79)" fill="#fddec0"/>
            </g>
          </g>
        </g>
        <g id="Grupo_997170" data-name="Grupo 997170" transform="translate(394.332 206.573)">
          <path id="Trazado_219579" data-name="Trazado 219579" d="M369.141,190.795s-.67,13.134,7.352,22.353" transform="translate(-368.543 -190.215)" fill="#e9fffb"/>
          <path id="Trazado_219580" data-name="Trazado 219580" d="M376.574,213.81a.576.576,0,0,1-.438-.2c-8.083-9.29-7.523-22.219-7.495-22.764a.588.588,0,0,1,.609-.551.582.582,0,0,1,.55.609c-.007.13-.558,13.014,7.212,21.945a.581.581,0,0,1-.439.961Z" transform="translate(-368.624 -190.295)" fill="#fff"/>
        </g>
        <path id="Trazado_219581" data-name="Trazado 219581" d="M338.774,148.473c2.251-1.432,6.687-3.073,10.424-4.317l-4.028-10.334-.008,0c-.24-.557-.7-1.732-1.259-3.253v0h0c-1.886-5.1-4.985-14.119-5.313-17.216-.427-4.022,2.8-3.234,3.6-1.025.612,1.7,5.727,12.135,8.033,16.813l.226-.051c-1.757-4.612-5.489-15.238-5.853-18.654-.426-4.022,2.805-3.234,3.6-1.025.685,1.908,7.014,14.752,8.727,18.217l.173-.039c-1.864-5-5.14-14.47-5.478-17.659-.427-4.022,2.8-3.234,3.6-1.025.522,1.459,4.344,9.306,6.882,14.474-1.18-4.534-2.409-9.817-2.464-11.953-.094-3.707,2.8-2.749,3.363-.673.385,1.423,3.51,9.394,5.441,14.275l6.925,16.005,6.37,7.259L367.25,158.688l-4.025-5.749-10.491-1.063c-3.72.02-8.8.11-11.015.434C338.011,152.852,334.452,151.224,338.774,148.473Z" transform="translate(20.598 2.918)" fill="#965450"/>
        <g id="Grupo_997171" data-name="Grupo 997171" transform="translate(367.371 129.91)">
          <path id="Trazado_219582" data-name="Trazado 219582" d="M345.955,129.174a.562.562,0,0,1-.121-1.112l17.134-3.811a.563.563,0,0,1,.244,1.1l-17.134,3.811A.643.643,0,0,1,345.955,129.174Z" transform="translate(-345.393 -124.238)" fill="#77413b"/>
        </g>
        <g id="Grupo_997172" data-name="Grupo 997172" transform="translate(371.158 145.094)">
          <path id="Trazado_219583" data-name="Trazado 219583" d="M357.642,140.117a.561.561,0,0,1-.318-.1c-3.527-2.422-7.92-1.313-7.964-1.3a.563.563,0,1,1-.284-1.089,11.746,11.746,0,0,1,8.885,1.462.562.562,0,0,1-.319,1.026Z" transform="translate(-348.655 -137.321)" fill="#77413b"/>
        </g>
        <path id="Trazado_219584" data-name="Trazado 219584" d="M422.1,193.663c-13.548-25.6-37.268-54.011-37.268-54.011l-23.021,15.72L374.93,197.9l-38.306-14.22s-11.166,40.118,5.117,53.863,49.812,6.669,49.812,6.669,16.821-.157,28.048-8.19S435.651,219.26,422.1,193.663Z" transform="translate(19.971 8.147)" fill="#fc5f65"/>
        <g id="Grupo_997173" data-name="Grupo 997173" transform="translate(392.193 215.544)">
          <path id="Trazado_219585" data-name="Trazado 219585" d="M368.662,216.893c-.2-.439-4.843-10.835,1.244-18.868l.984.745c-5.637,7.439-1.151,17.509-1.1,17.61Z" transform="translate(-366.78 -198.025)" fill="#593656"/>
        </g>
        <path id="Trazado_219586" data-name="Trazado 219586" d="M360.412,154.4l-3.527-6.051,16.683-13.074,5.7,6.248Z" transform="translate(23.824 7.445)" fill="#6b8dfc"/>
        <path id="Trazado_219587" data-name="Trazado 219587" d="M247.6,295.035h0l21.07-63.6V182.228s-19.352.29-29.314,18.163S208.5,290.573,208.5,290.573c.964,33.744,37.6,62.989,37.6,62.989l21.365-14.3a5.629,5.629,0,0,0,1.721-7.531Z" transform="translate(0 14.983)" fill="#fc5f65"/>
        <g id="Grupo_997174" data-name="Grupo 997174" transform="translate(256.219 218.487)">
          <path id="Trazado_219588" data-name="Trazado 219588" d="M250.567,261.369c-.088-2.258-2.118-55.357.042-60.808l1.148.454c-1.653,4.171-.694,41.272.043,60.306Z" transform="translate(-249.618 -200.561)" fill="#593656"/>
        </g>
        <g id="Grupo_997175" data-name="Grupo 997175" transform="translate(222.461 303.132)">
          <path id="Trazado_219589" data-name="Trazado 219589" d="M240.875,277.145c-.118-.042-11.918-4.083-19.981-1.6l-.363-1.18c8.453-2.6,20.252,1.441,20.75,1.614Z" transform="translate(-220.53 -273.496)" fill="#593656"/>
        </g>
        <path id="Trazado_219590" data-name="Trazado 219590" d="M262,317.5l2.41,3.494,6.628,4.942-14.385,22.57s-8.152-5.544-10.321-15.5l-2.242-3.417Z" transform="translate(5.714 36.702)" fill="#965450"/>
        <path id="Trazado_219591" data-name="Trazado 219591" d="M263.93,315.631l2.749,5.425L248.173,337.47l-7.271-5.326Z" transform="translate(5.202 36.401)" fill="#6b8dfc"/>
      </g>
    </g>
  </g>
</svg>
