<svg xmlns="http://www.w3.org/2000/svg" xmlns:xlink="http://www.w3.org/1999/xlink" width="64" height="64" viewBox="0 0 64 64">
  <defs>
    <clipPath id="clip-path">
      <rect id="Rectángulo_339701" data-name="Rectángulo 339701" width="64" height="64" transform="translate(306 6509.5)" fill="#fff" stroke="#707070" stroke-width="1"/>
    </clipPath>
  </defs>
  <g id="Enmascarar_grupo_609" data-name="Enmascarar grupo 609" transform="translate(-306 -6509.5)" clip-path="url(#clip-path)">
    <g id="dano" transform="translate(306 6509.5)">
      <path id="Trazado_218701" data-name="Trazado 218701" d="M11.922,36.366l4.594-14.689L11.355,10.323V9.29H62.968v1.032L57.806,21.677l5.161,18.581v2.065H12.325Zm0,0" fill="#dfb28b"/>
      <path id="Trazado_218702" data-name="Trazado 218702" d="M30.968,1.032V9.29H11.355l4.129-8.258Zm0,0" fill="#cf9e76"/>
      <path id="Trazado_218703" data-name="Trazado 218703" d="M58.839,1.032,62.968,9.29H43.355V1.032Zm0,0" fill="#cf9e76"/>
      <path id="Trazado_218704" data-name="Trazado 218704" d="M30.968,1.032H43.355V9.29H30.968Zm0,0" fill="#fcd770"/>
      <path id="Trazado_218705" data-name="Trazado 218705" d="M39.226,17.548H30.968V9.29H43.355v8.258Zm0,0" fill="#fcd770"/>
      <path id="Trazado_218706" data-name="Trazado 218706" d="M42.323,29.935H56.774v8.258H42.323Zm0,0" fill="#e6e9ed"/>
      <path id="Trazado_218707" data-name="Trazado 218707" d="M11.922,36.366a13.569,13.569,0,0,1,2.529-.237,13.365,13.365,0,0,1,11.293,6.194h.011a13.416,13.416,0,1,1-13.833-5.956Zm0,0" fill="#e6e9ed"/>
      <path id="Trazado_218708" data-name="Trazado 218708" d="M21.677,45.419l-4.129,4.129,4.129,4.129-3.1,3.1-4.129-4.129-4.129,4.129-3.1-3.1,4.129-4.129L7.226,45.419l3.1-3.1,4.129,4.129,4.129-4.129Zm0,0" fill="#ff826e"/>
      <path id="Trazado_218709" data-name="Trazado 218709" d="M18.581,40.863l-4.129,4.129-4.129-4.129L5.766,45.419,9.9,49.548,5.766,53.677l4.556,4.556L14.452,54.1l4.129,4.129,4.556-4.556-4.129-4.129,4.129-4.129Zm1.637,12.815-1.637,1.637-4.129-4.129-4.129,4.129L8.685,53.677l4.129-4.129L8.685,45.419l1.637-1.637,4.129,4.129,4.129-4.129,1.637,1.637-4.129,4.129Zm0,0"/>
      <path id="Trazado_218710" data-name="Trazado 218710" d="M64,9.047,59.477,0H14.846L10.323,9.047v1.5l5.091,11.2L11.115,35.5a14.478,14.478,0,1,0,16.373,7.853H64v-3.1L58.9,21.763,64,10.546Zm-2.7-.789H44.387V2.065H58.2Zm-23.1,6.194v2.065H36.129V14.452H34.064v2.065H32V10.323H42.323v6.194H40.258V14.452ZM32,8.258V2.065H42.323V8.258ZM16.122,2.065H29.935V8.258H13.025Zm-1.67,59.871A12.387,12.387,0,1,1,26.839,49.548,12.4,12.4,0,0,1,14.452,61.935ZM61.935,40.4v.891H26.295A14.437,14.437,0,0,0,14.451,35.1c-.359,0-.711.028-1.064.053l4.231-13.542L12.489,10.323H29.935v8.258H44.387V10.323H61.833L56.711,21.592Zm0,0"/>
      <path id="Trazado_218711" data-name="Trazado 218711" d="M41.29,39.226H57.806V28.9H41.29Zm2.065-8.258H55.742v6.194H43.355Zm0,0"/>
      <path id="Trazado_218712" data-name="Trazado 218712" d="M45.419,33.032h8.258V35.1H45.419Zm0,0"/>
    </g>
  </g>
</svg>
