<svg xmlns="http://www.w3.org/2000/svg" xmlns:xlink="http://www.w3.org/1999/xlink" width="64" height="64" viewBox="0 0 64 64">
  <defs>
    <clipPath id="clip-path">
      <rect id="Rectángulo_339714" data-name="Rectángulo 339714" width="64" height="64" transform="translate(-6630 -5004)" fill="#fc5f65" stroke="#707070" stroke-width="1"/>
    </clipPath>
    <clipPath id="clip-path-2">
      <path id="path228" d="M0-64H64V0H0Z"/>
    </clipPath>
  </defs>
  <g id="Enmascarar_grupo_611" data-name="Enmascarar grupo 611" transform="translate(6630 5004)" clip-path="url(#clip-path)">
    <g id="g222" transform="translate(-6630 -4940)">
      <g id="g224">
        <g id="g226" clip-path="url(#clip-path-2)">
          <g id="g232" transform="translate(16.785 -45.273)">
            <path id="path234" d="M0,0C0,4.163-3.041,3.013-6.616,3.013S-12.945,4.163-12.945,0s2.9-10.665,6.473-10.665S0-4.163,0,0" fill="#be652b"/>
          </g>
          <path id="path236" d="M15.937-31.841H4.688V-44.312h11.25Z" fill="#ffd54f"/>
          <path id="path238" d="M12.188-31.841h3.75V-44.312h-3.75Z" fill="#ffc328"/>
          <path id="path240" d="M8.438-8.062H4.688V-28.091h3.75Z" fill="#ebad88"/>
          <path id="path242" d="M15.937-8.062h-3.75V-28.091h3.75Z" fill="#ebad88"/>
          <g id="g244" transform="translate(8.438 -8.063)">
            <path id="path246" d="M0,0H-3.75V-2.125A1.875,1.875,0,0,1-1.875-4,1.875,1.875,0,0,1,0-2.125Z" fill="#be652b"/>
          </g>
          <g id="g248" transform="translate(15.937 -8.063)">
            <path id="path250" d="M0,0H-3.75V-2.125A1.875,1.875,0,0,1-1.875-4,1.875,1.875,0,0,1,0-2.125Z" fill="#be652b"/>
          </g>
          <g id="g252" transform="translate(2.813 -25.591)">
            <path id="path254" d="M0,0H0A1.875,1.875,0,0,1-1.875-1.875V-15.722a3,3,0,0,1,3-3h.75V-1.875A1.875,1.875,0,0,1,0,0" fill="#ebad88"/>
          </g>
          <g id="g256" transform="translate(17.813 -25.591)">
            <path id="path258" d="M0,0H0A1.875,1.875,0,0,0,1.875-1.875V-15.722a3,3,0,0,0-3-3h-.75V-1.875A1.875,1.875,0,0,0,0,0" fill="#ebad88"/>
          </g>
          <path id="path260" d="M15.937-20.956H4.688V-31.841h11.25Z" fill="#ff80ab"/>
          <path id="path262" d="M12.188-20.956h3.75V-31.841h-3.75Z" fill="#f06a98"/>
          <g id="g264" transform="translate(10.313 -41.063)">
            <path id="path266" d="M0,0H0A1.875,1.875,0,0,1-1.875-1.875V-7h3.75v5.125A1.875,1.875,0,0,1,0,0" fill="#e8916f"/>
          </g>
          <g id="g268" transform="translate(10.313 -45.938)">
            <path id="path270" d="M0,0H0A3.75,3.75,0,0,1-3.75-3.75v-2A3.75,3.75,0,0,1,0-9.5,3.75,3.75,0,0,1,3.75-5.75v2A3.75,3.75,0,0,1,0,0" fill="#ebad88"/>
          </g>
          <g id="g272" transform="translate(10.313 -55.937)">
            <path id="path274" d="M0,0A3.75,3.75,0,0,0-3.75,3.75V5.382c.317.7,2.311.394,4.413-1.285,1.09.987,2.423,2.028,3.087,1.285V3.75A3.75,3.75,0,0,0,0,0" fill="#d67b42"/>
          </g>
          <path id="path276" d="M59.313-30.562H48.063v-13.75h11.25Z" fill="#f75632"/>
          <path id="path278" d="M55.563-30.562h3.75v-13.75h-3.75Z" fill="#e33629"/>
          <g id="g280" transform="translate(59.313 -30.562)">
            <path id="path282" d="M0,0V22.5H-3.75V5.625A1.875,1.875,0,0,0-5.625,3.75,1.875,1.875,0,0,0-7.5,5.625V22.5h-3.75V0Z" fill="#4362a0"/>
          </g>
          <path id="path284" d="M55.563-8.062h3.75v-22.5h-3.75Z" fill="#3e5a94"/>
          <g id="g286" transform="translate(51.813 -8.063)">
            <path id="path288" d="M0,0H-3.75V-2.125A1.875,1.875,0,0,1-1.875-4,1.875,1.875,0,0,1,0-2.125Z" fill="#be652b"/>
          </g>
          <g id="g290" transform="translate(59.313 -8.063)">
            <path id="path292" d="M0,0H-3.75V-2.125A1.875,1.875,0,0,1-1.875-4,1.875,1.875,0,0,1,0-2.125Z" fill="#be652b"/>
          </g>
          <g id="g294" transform="translate(46.188 -24.312)">
            <path id="path296" d="M0,0H0A1.875,1.875,0,0,1-1.875-1.875V-17a3,3,0,0,1,3-3h.75V-1.875A1.875,1.875,0,0,1,0,0" fill="#ebad88"/>
          </g>
          <g id="g298" transform="translate(61.188 -24.312)">
            <path id="path300" d="M0,0H0A1.875,1.875,0,0,0,1.875-1.875V-17a3,3,0,0,0-3-3h-.75V-1.875A1.875,1.875,0,0,0,0,0" fill="#ebad88"/>
          </g>
          <g id="g302" transform="translate(53.687 -41.812)">
            <path id="path304" d="M0,0H0A1.875,1.875,0,0,1-1.875-1.875V-6.25h3.75v4.375A1.875,1.875,0,0,1,0,0" fill="#e8916f"/>
          </g>
          <g id="g306" transform="translate(53.687 -45.688)">
            <path id="path308" d="M0,0H0A3.75,3.75,0,0,1-3.75-3.75v-2A3.75,3.75,0,0,1,0-9.5,3.75,3.75,0,0,1,3.75-5.75v2A3.75,3.75,0,0,1,0,0" fill="#ebad88"/>
          </g>
          <g id="g310" transform="translate(53.687 -55.188)">
            <path id="path312" d="M0,0A3.75,3.75,0,0,0-3.75,3.75v.12A7.293,7.293,0,0,0,0,4.827,7.293,7.293,0,0,0,3.75,3.87V3.75A3.75,3.75,0,0,0,0,0" fill="#be652b"/>
          </g>
          <g id="g314" transform="translate(48.063 -36.813)">
            <path id="path316" d="M0,0H-3.75V-4.5a3,3,0,0,1,3-3H0Z" fill="#4362a0"/>
          </g>
          <g id="g318" transform="translate(59.313 -36.813)">
            <path id="path320" d="M0,0H3.75V-4.5a3,3,0,0,0-3-3H0Z" fill="#4362a0"/>
          </g>
          <g id="g322" transform="translate(12.188 -44.313)">
            <path id="path324" d="M0,0H3.75V12.471H-7.5V0h3.75" fill="none" stroke="#000" stroke-linecap="round" stroke-linejoin="round" stroke-miterlimit="10" stroke-width="1.875"/>
          </g>
          <g id="g326" transform="translate(4.688 -28.091)">
            <path id="path328" d="M0,0V20.029H3.75V7.135" fill="none" stroke="#000" stroke-linecap="round" stroke-linejoin="round" stroke-miterlimit="10" stroke-width="1.875"/>
          </g>
          <g id="g330" transform="translate(15.937 -13.529)">
            <path id="path332" d="M0,0V5.466H-3.75V-7.427" fill="none" stroke="#000" stroke-linecap="round" stroke-linejoin="round" stroke-miterlimit="10" stroke-width="1.875"/>
          </g>
          <g id="g334" transform="translate(15.937 -28.091)">
            <path id="path336" d="M0,0V10.572" fill="none" stroke="#000" stroke-linecap="round" stroke-linejoin="round" stroke-miterlimit="10" stroke-width="1.875"/>
          </g>
          <g id="g338" transform="translate(8.438 -8.063)">
            <path id="path340" d="M0,0H-3.75V-2.125A1.875,1.875,0,0,1-1.875-4,1.875,1.875,0,0,1,0-2.125Z" fill="none" stroke="#000" stroke-linecap="round" stroke-linejoin="round" stroke-miterlimit="10" stroke-width="1.875"/>
          </g>
          <g id="g342" transform="translate(15.937 -8.063)">
            <path id="path344" d="M0,0H-3.75V-2.125A1.875,1.875,0,0,1-1.875-4,1.875,1.875,0,0,1,0-2.125Z" fill="none" stroke="#000" stroke-linecap="round" stroke-linejoin="round" stroke-miterlimit="10" stroke-width="1.875"/>
          </g>
          <g id="g346" transform="translate(0.938 -40.085)">
            <path id="path348" d="M0,0V-1.228a3,3,0,0,1,3-3h.75V12.619a1.875,1.875,0,0,1-3.75,0v-8.6" fill="none" stroke="#000" stroke-linecap="round" stroke-linejoin="round" stroke-miterlimit="10" stroke-width="1.875"/>
          </g>
          <g id="g350" transform="translate(17.813 -25.591)">
            <path id="path352" d="M0,0H0A1.875,1.875,0,0,0,1.875-1.875V-15.722a3,3,0,0,0-3-3h-.75V-1.875A1.875,1.875,0,0,0,0,0Z" fill="none" stroke="#000" stroke-linecap="round" stroke-linejoin="round" stroke-miterlimit="10" stroke-width="1.875"/>
          </g>
          <path id="path354" d="M15.937-20.956H4.688V-31.841h11.25Z" fill="none" stroke="#000" stroke-linecap="round" stroke-linejoin="round" stroke-miterlimit="10" stroke-width="1.875"/>
          <g id="g356" transform="translate(12.188 -46.441)">
            <path id="path358" d="M0,0V3.5A1.876,1.876,0,0,1-1.875,5.379,1.876,1.876,0,0,1-3.75,3.5V0" fill="none" stroke="#000" stroke-linecap="round" stroke-linejoin="round" stroke-miterlimit="10" stroke-width="1.875"/>
          </g>
          <g id="g360" transform="translate(55.562 -44.313)">
            <path id="path362" d="M0,0H3.75V13.75H-7.5V0h3.75" fill="none" stroke="#000" stroke-linecap="round" stroke-linejoin="round" stroke-miterlimit="10" stroke-width="1.875"/>
          </g>
          <g id="g364" transform="translate(59.313 -30.562)">
            <path id="path366" d="M0,0V22.5H-3.75V5.625A1.875,1.875,0,0,0-5.625,3.75,1.875,1.875,0,0,0-7.5,5.625V22.5h-3.75V0Z" fill="none" stroke="#000" stroke-linecap="round" stroke-linejoin="round" stroke-miterlimit="10" stroke-width="1.875"/>
          </g>
          <g id="g368" transform="translate(51.813 -8.063)">
            <path id="path370" d="M0,0H-3.75V-2.125A1.875,1.875,0,0,1-1.875-4,1.875,1.875,0,0,1,0-2.125Z" fill="none" stroke="#000" stroke-linecap="round" stroke-linejoin="round" stroke-miterlimit="10" stroke-width="1.875"/>
          </g>
          <g id="g372" transform="translate(59.313 -8.063)">
            <path id="path374" d="M0,0H-3.75V-2.125A1.875,1.875,0,0,1-1.875-4,1.875,1.875,0,0,1,0-2.125Z" fill="none" stroke="#000" stroke-linecap="round" stroke-linejoin="round" stroke-miterlimit="10" stroke-width="1.875"/>
          </g>
          <g id="g376" transform="translate(46.188 -24.312)">
            <path id="path378" d="M0,0H0A1.875,1.875,0,0,1-1.875-1.875V-17a3,3,0,0,1,3-3h.75V-1.875A1.875,1.875,0,0,1,0,0Z" fill="none" stroke="#000" stroke-linecap="round" stroke-linejoin="round" stroke-miterlimit="10" stroke-width="1.875"/>
          </g>
          <g id="g380" transform="translate(63.062 -32)">
            <path id="path382" d="M0,0V-9.312a3,3,0,0,0-3-3h-.75V5.813A1.875,1.875,0,0,0-1.875,7.687,1.875,1.875,0,0,0,0,5.813V4" fill="none" stroke="#000" stroke-linecap="round" stroke-linejoin="round" stroke-miterlimit="10" stroke-width="1.875"/>
          </g>
          <g id="g384" transform="translate(55.562 -46.191)">
            <path id="path386" d="M0,0V2.5A1.876,1.876,0,0,1-1.875,4.379,1.876,1.876,0,0,1-3.75,2.5V0" fill="none" stroke="#000" stroke-linecap="round" stroke-linejoin="round" stroke-miterlimit="10" stroke-width="1.875"/>
          </g>
          <g id="g388" transform="translate(53.687 -45.688)">
            <path id="path390" d="M0,0H0A3.75,3.75,0,0,1-3.75-3.75v-2A3.75,3.75,0,0,1,0-9.5,3.75,3.75,0,0,1,3.75-5.75v2A3.75,3.75,0,0,1,0,0Z" fill="none" stroke="#000" stroke-linecap="round" stroke-linejoin="round" stroke-miterlimit="10" stroke-width="1.875"/>
          </g>
          <g id="g392" transform="translate(50.015 -51.271)">
            <path id="path394" d="M0,0A7.348,7.348,0,0,0,3.673.911a7.326,7.326,0,0,0,3.7-.929" fill="none" stroke="#000" stroke-linecap="round" stroke-linejoin="round" stroke-miterlimit="10" stroke-width="1.875"/>
          </g>
          <g id="g396" transform="translate(48.063 -36.813)">
            <path id="path398" d="M0,0H-3.75V-4.5a3,3,0,0,1,3-3H0Z" fill="none" stroke="#000" stroke-linecap="round" stroke-linejoin="round" stroke-miterlimit="10" stroke-width="1.875"/>
          </g>
          <g id="g400" transform="translate(59.313 -36.813)">
            <path id="path402" d="M0,0H3.75V-4.5a3,3,0,0,0-3-3H0Z" fill="none" stroke="#000" stroke-linecap="round" stroke-linejoin="round" stroke-miterlimit="10" stroke-width="1.875"/>
          </g>
          <g id="g404" transform="translate(27.5 -34.438)">
            <path id="path406" d="M0,0-2.375-2.375,0-4.75" fill="none" stroke="#000" stroke-linecap="round" stroke-linejoin="round" stroke-miterlimit="10" stroke-width="1.875"/>
          </g>
          <g id="g408" transform="translate(36.5 -39.188)">
            <path id="path410" d="M0,0,2.375,2.375,0,4.75" fill="none" stroke="#000" stroke-linecap="round" stroke-linejoin="round" stroke-miterlimit="10" stroke-width="1.875"/>
          </g>
          <g id="g412" transform="translate(25.625 -36.88)">
            <path id="path414" d="M0,0H12.75" fill="none" stroke="#000" stroke-linecap="round" stroke-linejoin="round" stroke-miterlimit="10" stroke-width="1.875"/>
          </g>
          <g id="g416" transform="translate(19.519 -8.813)">
            <path id="path418" d="M0,0H2.5" fill="none" stroke="#000" stroke-linecap="round" stroke-linejoin="round" stroke-miterlimit="10" stroke-width="1.875"/>
          </g>
          <g id="g420" transform="translate(25.135 -8.813)">
            <path id="path422" d="M0,0H2.5" fill="none" stroke="#000" stroke-linecap="round" stroke-linejoin="round" stroke-miterlimit="10" stroke-width="1.875"/>
          </g>
          <g id="g424" transform="translate(30.75 -8.813)">
            <path id="path426" d="M0,0H2.5" fill="none" stroke="#000" stroke-linecap="round" stroke-linejoin="round" stroke-miterlimit="10" stroke-width="1.875"/>
          </g>
          <g id="g428" transform="translate(36.365 -8.813)">
            <path id="path430" d="M0,0H2.5" fill="none" stroke="#000" stroke-linecap="round" stroke-linejoin="round" stroke-miterlimit="10" stroke-width="1.875"/>
          </g>
          <g id="g432" transform="translate(41.981 -8.813)">
            <path id="path434" d="M0,0H2.5" fill="none" stroke="#000" stroke-linecap="round" stroke-linejoin="round" stroke-miterlimit="10" stroke-width="1.875"/>
          </g>
          <g id="g436" transform="translate(13.454 -54.256)">
            <path id="path438" d="M0,0A15.036,15.036,0,0,1,3.346,8.984a6.33,6.33,0,0,1-.066.961" fill="none" stroke="#000" stroke-linecap="round" stroke-linejoin="round" stroke-miterlimit="10" stroke-width="1.875"/>
          </g>
          <g id="g440" transform="translate(3.915 -44.311)">
            <path id="path442" d="M0,0A6.92,6.92,0,0,1-.06-.961,15.036,15.036,0,0,1,3.286-9.945" fill="none" stroke="#000" stroke-linecap="round" stroke-linejoin="round" stroke-miterlimit="10" stroke-width="1.875"/>
          </g>
          <g id="g444" transform="translate(14.078 -51.688)">
            <path id="path446" d="M0,0V2A3.75,3.75,0,0,1-3.75,5.75,3.75,3.75,0,0,1-7.5,2V0" fill="none" stroke="#000" stroke-linecap="round" stroke-linejoin="round" stroke-miterlimit="10" stroke-width="1.875"/>
          </g>
          <g id="g448" transform="translate(6.629 -50.469)">
            <path id="path450" d="M0,0C.441.588,2.352.234,4.362-1.372,5.452-.385,6.785.656,7.449-.086V-1.718A3.75,3.75,0,0,0,3.7-5.468a3.75,3.75,0,0,0-3.75,3.75V-.086A.459.459,0,0,0,0,0" fill="none" stroke="#000" stroke-linecap="round" stroke-linejoin="round" stroke-miterlimit="10" stroke-width="1.875"/>
          </g>
        </g>
      </g>
    </g>
  </g>
</svg>
