<svg xmlns="http://www.w3.org/2000/svg" xmlns:xlink="http://www.w3.org/1999/xlink" width="64" height="64" viewBox="0 0 64 64">
  <defs>
    <clipPath id="clip-path">
      <rect id="Rectángulo_339717" data-name="Rectángulo 339717" width="64" height="64" transform="translate(-6630 -4818)" fill="#fc5f65" stroke="#707070" stroke-width="1"/>
    </clipPath>
  </defs>
  <g id="Enmascarar_grupo_612" data-name="Enmascarar grupo 612" transform="translate(6630 4818)" clip-path="url(#clip-path)">
    <g id="solo" transform="translate(-6630 -4818)">
      <g id="Grupo_995915" data-name="Grupo 995915">
        <path id="Trazado_218725" data-name="Trazado 218725" d="M18.912,45.374H33.436v5.548H6.45V45.374H18.912Z" fill="#c5d3de"/>
        <g id="Grupo_995914" data-name="Grupo 995914">
          <path id="Trazado_218726" data-name="Trazado 218726" d="M21.974,54.062H33.8v5.548H21.974Z" transform="translate(-28.949 84.724) rotate(-90)" fill="#8aa8bd"/>
          <path id="Trazado_218727" data-name="Trazado 218727" d="M6.084,54.062H17.912v5.548H6.084Z" transform="translate(-44.838 68.834) rotate(-90)" fill="#8aa8bd"/>
          <path id="Trazado_218728" data-name="Trazado 218728" d="M50.428,56.557l-3.941,3.7,1.227,1.306a3.756,3.756,0,0,0,5.309.165l3.887-3.652a2.013,2.013,0,0,0-1.2-3.472A6.931,6.931,0,0,0,50.428,56.557Z" fill="#8aa8bd"/>
        </g>
        <path id="Trazado_218729" data-name="Trazado 218729" d="M34.677,38.557l5.552-5.442L34.11,28.743a5.641,5.641,0,0,1-2.3-3.731,49.376,49.376,0,0,1-.554-6.119c-.025-.912-.024-1.795,0-2.645l-4.011-2.681a11.078,11.078,0,0,0-8.927,10.867v12.4Z" fill="#ff7d97"/>
        <path id="Trazado_218730" data-name="Trazado 218730" d="M29.352,15.519a6.448,6.448,0,0,1-2.36-8.808l1.29-2.234A6.448,6.448,0,1,1,39.45,10.925l-1.29,2.234a6.448,6.448,0,0,1-8.808,2.36Z" fill="#ffdcd5"/>
        <path id="Trazado_218731" data-name="Trazado 218731" d="M46.487,60.259c-3.5-3.722-9.553-11.161-13.051-14.884H26.855a8.535,8.535,0,0,1-8.536-8.535h15a7.126,7.126,0,0,1,5.857,3.067l11.415,16.5Z" fill="#ffcd69"/>
        <path id="Trazado_218732" data-name="Trazado 218732" d="M41.234,39.368l-1.248-.095a3.8,3.8,0,0,1-2.356-1.059l-1.2-1.167,3.8-3.932c.866.486,1.635.878,2.388,1.255a2.642,2.642,0,0,1-1.383,5Z" fill="#ffdcd5"/>
      </g>
      <g id="Grupo_995916" data-name="Grupo 995916">
        <circle id="Elipse_4929" data-name="Elipse 4929" cx="1.25" cy="1.25" r="1.25" transform="translate(12.037 44.124)"/>
        <path id="Trazado_218733" data-name="Trazado 218733" d="M58.616,55.547a3.229,3.229,0,0,0-2.8-2.186,7.91,7.91,0,0,0-4.939,1.268L41.185,40.616c.093.006.186.011.278.011a3.893,3.893,0,0,0,1.712-7.375c-.8-.4-1.5-.76-2.276-1.194l-6.063-4.332a4.418,4.418,0,0,1-1.789-2.9,48.289,48.289,0,0,1-.54-5.963c-.011-.407-.017-.818-.017-1.228h.072a7.7,7.7,0,0,0,6.68-3.847l1.29-2.234A7.7,7.7,0,0,0,27.2,3.852l-1.29,2.234a7.686,7.686,0,0,0-.487,6.677,12.354,12.354,0,0,0-8.353,11.671V36.839a9.761,9.761,0,0,0,3.261,7.284H18.912a1.25,1.25,0,1,0,0,2.5H32.186v3.048H7.7V46.623a1.25,1.25,0,0,0-.038-2.5H6.45a1.25,1.25,0,0,0-1.25,1.25v5.548a1.25,1.25,0,0,0,1.25,1.25H7.974V62.75A1.25,1.25,0,0,0,9.224,64h5.548a1.25,1.25,0,0,0,1.25-1.25V52.172h7.841V62.75A1.25,1.25,0,0,0,25.113,64h5.548a1.25,1.25,0,0,0,1.25-1.25V52.172h1.524a1.25,1.25,0,0,0,1.25-1.25v-2.3C36.027,50.143,37.528,51.9,39,53.614c2.952,3.454,5.282,6.17,7.805,8.808a5.012,5.012,0,0,0,7.076.221l3.887-3.652a3.224,3.224,0,0,0,.849-3.442ZM13.522,61.5H10.474V52.172h3.049Zm15.889,0H26.363V52.172h3.049ZM42.777,37.1a1.332,1.332,0,0,1-1.448,1.017l-1.248-.095a2.559,2.559,0,0,1-1.582-.711l-.307-.3,2.273-2.349c.523.279,1.034.539,1.593.819A1.333,1.333,0,0,1,42.777,37.1ZM28.075,7.336,29.364,5.1A5.164,5.164,0,0,1,32.52,2.68,5.227,5.227,0,0,1,33.874,2.5a5.2,5.2,0,0,1,4.493,7.8l-1.29,2.234a5.2,5.2,0,0,1-7.1,1.9h0a5.2,5.2,0,0,1-1.9-7.1Zm-1.32,7.633a7.676,7.676,0,0,0,3.239,2.217c0,.581,0,1.164.017,1.742a50.836,50.836,0,0,0,.568,6.273,6.932,6.932,0,0,0,2.806,4.558l4.938,3.529-2.109,2.18-7.152-4.235a5.242,5.242,0,0,1-2.439-3.367l-.834-3.774a1.25,1.25,0,1,0-2.441.539l.834,3.774a7.751,7.751,0,0,0,3.606,4.979l3.725,2.206H19.569V24.434a9.843,9.843,0,0,1,7.185-9.465Zm7.593,29.55a1.256,1.256,0,0,0-.912-.395h-6.6a7.3,7.3,0,0,1-7.163-6.034H33.318a5.877,5.877,0,0,1,4.829,2.529l10.8,15.614-2.4,2.252c-1.631-1.8-3.67-4.178-5.654-6.5-2.352-2.749-4.785-5.591-6.55-7.47ZM56.055,57.168l-3.887,3.652a2.509,2.509,0,0,1-3.542-.11l-.372-.4,3.03-2.847A5.726,5.726,0,0,1,55.6,55.852a.763.763,0,0,1,.458,1.316Z"/>
      </g>
    </g>
  </g>
</svg>
