<svg xmlns="http://www.w3.org/2000/svg" xmlns:xlink="http://www.w3.org/1999/xlink" width="400" height="333.18" viewBox="0 0 400 333.18">
  <defs>
    <clipPath id="clip-path">
      <rect id="Rectángulo_339376" data-name="Rectángulo 339376" width="399.53" height="302.18" fill="none"/>
    </clipPath>
    <clipPath id="clip-path-3">
      <rect id="Rectángulo_339365" data-name="Rectángulo 339365" width="4.549" height="4.292" fill="none"/>
    </clipPath>
    <clipPath id="clip-path-4">
      <rect id="Rectángulo_339366" data-name="Rectángulo 339366" width="4.549" height="4.293" fill="none"/>
    </clipPath>
    <clipPath id="clip-path-5">
      <rect id="Rectángulo_339367" data-name="Rectángulo 339367" width="3.977" height="3.479" fill="none"/>
    </clipPath>
    <clipPath id="clip-path-6">
      <rect id="Rectángulo_339368" data-name="Rectángulo 339368" width="2.94" height="2.856" fill="none"/>
    </clipPath>
    <clipPath id="clip-path-7">
      <rect id="Rectángulo_339369" data-name="Rectángulo 339369" width="6.487" height="6.198" fill="none"/>
    </clipPath>
    <clipPath id="clip-path-8">
      <rect id="Rectángulo_339370" data-name="Rectángulo 339370" width="6.487" height="6.197" fill="none"/>
    </clipPath>
    <clipPath id="clip-path-9">
      <rect id="Rectángulo_339371" data-name="Rectángulo 339371" width="5.821" height="5.156" fill="none"/>
    </clipPath>
    <clipPath id="clip-path-10">
      <rect id="Rectángulo_339372" data-name="Rectángulo 339372" width="4.503" height="4.438" fill="none"/>
    </clipPath>
    <clipPath id="clip-path-11">
      <path id="Trazado_211783" data-name="Trazado 211783" d="M116.568,50.334s12.026,10.76,17.171-3.542c0,0-3.955-4.531-8.51-4.531-2.937,0-6.123,1.882-8.661,8.073" transform="translate(-116.568 -42.261)" fill="none"/>
    </clipPath>
    <clipPath id="clip-path-13">
      <path id="Trazado_211786" data-name="Trazado 211786" d="M142.309,45.156c14.222,1.516,6.463-10.946,6.463-10.946-10.082.3-6.463,10.946-6.463,10.946" transform="translate(-141.677 -34.21)" fill="none"/>
    </clipPath>
  </defs>
  <g id="Grupo_984559" data-name="Grupo 984559" transform="translate(-180 -2478)">
    <rect id="Rectángulo_339227" data-name="Rectángulo 339227" width="281" height="125" rx="13" transform="translate(180 2686)" fill="#fed947"/>
    <rect id="Rectángulo_339593" data-name="Rectángulo 339593" width="281" height="333" rx="13" transform="translate(299 2478)" fill="#6b8dfc"/>
    <g id="Grupo_984264" data-name="Grupo 984264" transform="translate(180.47 2509)">
      <g id="Grupo_984263" data-name="Grupo 984263" clip-path="url(#clip-path)">
        <rect id="Rectángulo_339364" data-name="Rectángulo 339364" width="20.183" height="34.424" transform="translate(262.898 47.91)" fill="#e27171"/>
        <g id="Grupo_984254" data-name="Grupo 984254">
          <g id="Grupo_984253" data-name="Grupo 984253" clip-path="url(#clip-path)">
            <path id="Trazado_211814" data-name="Trazado 211814" d="M-1370.168-9009.748l18.394,72.32s2.5,7.143,2.024,9.416-1.618,26.531-4.931,27.721,1.2,2.424-8.746,4.592-11.636-95.744-11.636-95.744Z" transform="translate(1547.885 9131.815)" fill="#fff"/>
            <path id="Trazado_211709" data-name="Trazado 211709" d="M282.055,54.789V72.2c13.559-6.176,19.455-23.8,19.455-23.8l1.529-5.765Z" transform="translate(-19.158 -2.896)"/>
            <path id="Trazado_211710" data-name="Trazado 211710" d="M345.247,209.751l-83.263-2.591-1.379,108.475v.615h98.726Zm-82.06-1.333,80.988,2.507,13.776,104.113H261.826Z" transform="translate(-17.701 -14.071)"/>
            <path id="Trazado_211711" data-name="Trazado 211711" d="M358.04,315.131H261.914l1.361-106.621,80.988,2.507Z" transform="translate(-17.79 -14.162)" fill="#fff"/>
            <path id="Trazado_211712" data-name="Trazado 211712" d="M279.346,258.586a.607.607,0,0,1-.606-.6l-.823-48.678a.606.606,0,0,1,1.213-.021l.823,48.678a.607.607,0,0,1-.6.617Z" transform="translate(-18.876 -14.175)"/>
            <path id="Trazado_211713" data-name="Trazado 211713" d="M292.609,251.844a.606.606,0,0,1-.606-.595l-.775-39.748a.606.606,0,1,1,1.213-.023l.774,39.748a.606.606,0,0,1-.594.618Z" transform="translate(-19.781 -14.323)"/>
            <path id="Trazado_211714" data-name="Trazado 211714" d="M284.084,224.757c-1.531,0-2.683-2.114-2.683-4.917s1.153-4.917,2.683-4.917,2.683,2.114,2.683,4.917-1.154,4.917-2.683,4.917m0-8.621c-.6,0-1.471,1.444-1.471,3.7s.872,3.7,1.471,3.7,1.471-1.444,1.471-3.7-.872-3.7-1.471-3.7" transform="translate(-19.113 -14.598)"/>
            <path id="Trazado_211715" data-name="Trazado 211715" d="M324.229,239.922h-.007l-58.52-.743a.606.606,0,1,1,.014-1.212l58.521.742a.606.606,0,0,1-.007,1.213" transform="translate(-18.006 -16.163)"/>
            <path id="Trazado_211716" data-name="Trazado 211716" d="M339.447,98.4l-33.585-9.442L303.85,77.709l-28.182-.8.347,10.338-17.338,2.512a26.212,26.212,0,0,0-21.738,19.853l-18.01,78.655c-1.719,7.508-2.433,22.573,3.074,27.958l36.365,19.928-.457-33.759-8.445-6.195,8.832-39.263v61.035l88.213.917Z" transform="translate(-14.785 -5.224)" fill="#ffc849"/>
            <path id="Trazado_211717" data-name="Trazado 211717" d="M365.579,269.5,266.8,179.448l9.934,4.045,100.147,77.425Z" transform="translate(-18.122 -12.188)" fill="#5774cd"/>
            <path id="Trazado_211718" data-name="Trazado 211718" d="M245.521,10.039c-8.72,3.63,5.652,13.207,13.866,16.119s17.431-1.942,20.589-10.846,3.852-9.98-4.361-12.893-16.928,2.139-30.093,7.619" transform="translate(-16.492 -0.106)"/>
            <path id="Trazado_211719" data-name="Trazado 211719" d="M374.083,132.085l6.687-16.646L369.2,110.932l-4.851,11.883,6.261,10.237Z" transform="translate(-24.747 -7.535)"/>
            <path id="Trazado_211720" data-name="Trazado 211720" d="M371.482,131.563s16.131,1.234,31.708,21.824l6.764,54.217,13.7,13.29-2.681,56.414-49.392-11.062L355.2,142.609Z" transform="translate(-24.126 -8.936)" fill="#5774cd"/>
            <path id="Trazado_211721" data-name="Trazado 211721" d="M374.76,113.036l3.112,18.45,11.106,5.564-2-19.464Z" transform="translate(-25.454 -7.678)" fill="#5774cd"/>
            <path id="Trazado_211722" data-name="Trazado 211722" d="M264.629,10.656s-20.156,4.584-15,31.72,17.671,27.84,27.6,25.166c12.285-3.307,23.253-21.5,21.89-28.671l4.127-27.827Z" transform="translate(-16.898 -0.724)" fill="#e27171"/>
            <path id="Trazado_211723" data-name="Trazado 211723" d="M254.753,41.792a9.476,9.476,0,0,1,6.347-9.63c7.094-2.651,11.4.282,11.4.282s.573,6.781-7.484,10.015-10.264-.667-10.264-.667" transform="translate(-17.302 -2.109)" fill="#fff"/>
            <path id="Trazado_211724" data-name="Trazado 211724" d="M249.551,45.351l-7.4,1.024,9.712,7.188Z" transform="translate(-16.447 -3.08)" fill="#e27171"/>
            <path id="Trazado_211725" data-name="Trazado 211725" d="M269.306,25.313a1.026,1.026,0,0,0,.765-.606.881.881,0,0,0-.583-1.173,19.2,19.2,0,0,0-13.485.6.91.91,0,0,0-.444,1.253,1.02,1.02,0,0,0,1.341.372,17.34,17.34,0,0,1,11.88-.476,1.06,1.06,0,0,0,.525.031" transform="translate(-17.351 -1.535)"/>
            <path id="Trazado_211726" data-name="Trazado 211726" d="M317.723,92.288l26.585,7.158a32.109,32.109,0,0,1,23.03,24.186l17.168,92.93a26.573,26.573,0,0,1-42.421,25.822L289.254,201.4l16.94-31.609,33.24,20.583-4.562-81.92Z" transform="translate(-19.646 -6.268)" fill="#ffc849"/>
            <path id="Trazado_211727" data-name="Trazado 211727" d="M254.753,41.851a9.476,9.476,0,0,1,6.347-9.63c.3-.111.589-.21.877-.3a6.466,6.466,0,0,1,3.933,6.044,6.947,6.947,0,0,1-2.192,5.031c-7,2.329-8.965-1.143-8.965-1.143" transform="translate(-17.302 -2.168)"/>
            <path id="Trazado_211728" data-name="Trazado 211728" d="M262.934,64.653a.812.812,0,0,1-.479-1.468c2.746-2,5.2-4.363,5.26-5.048a.812.812,0,1,1,1.618-.14c.174,1.77-3.635,4.832-5.92,6.5a.811.811,0,0,1-.479.157" transform="translate(-17.804 -3.889)"/>
            <path id="Trazado_211729" data-name="Trazado 211729" d="M338.806,96.85l-9.5-4.562L280.019,157.3l7.844,5.322Z" transform="translate(-19.019 -6.268)" fill="#5774cd"/>
            <path id="Trazado_211730" data-name="Trazado 211730" d="M293.633,2.148c-11.987-3.543-25.611-3.284-28.624,5.214s4.093,18.775,15.874,22.953c4.312,1.53,9.82,2.055,15.072,2.11,1.112,4.767,2.2,8.477,2.2,8.477l3.675,16.33s6.661-12.292,9.818-21.2c.673-1.9,5.924-26.814-18.019-33.889" transform="translate(-17.953 0)"/>
            <path id="Trazado_211731" data-name="Trazado 211731" d="M295.106,33.839s3.037-7.136,9.695-5.106,6.167,13.108.625,15.221c-6.224,2.374-10.064-1.209-10.064-1.209Z" transform="translate(-20.044 -1.927)" fill="#e27171"/>
            <path id="Trazado_211732" data-name="Trazado 211732" d="M297.714,39.512a1.03,1.03,0,0,0,.739-.548c1.547-3.177,6.427-5.558,6.476-5.581a.913.913,0,0,0,.458-1.249,1.021,1.021,0,0,0-1.339-.384c-.227.11-5.575,2.721-7.415,6.5a.875.875,0,0,0,.495,1.209,1.065,1.065,0,0,0,.586.052" transform="translate(-20.141 -2.149)"/>
            <path id="Trazado_211733" data-name="Trazado 211733" d="M303.33,40.791a1.052,1.052,0,0,0,.585-.324.869.869,0,0,0-.1-1.3l-3.63-2.78a1.066,1.066,0,0,0-1.411.138.87.87,0,0,0,.1,1.3L302.5,40.6a1.038,1.038,0,0,0,.826.186" transform="translate(-20.276 -2.458)"/>
            <path id="Trazado_211734" data-name="Trazado 211734" d="M301.511,180.084l-1.553-2.954s-.61-13.069-10.338-18.254-6.894.7-6.894.7-7.364,17.9-5.177,23.5c.732,1.875,8.668,6.478,12.171,7.859a12.6,12.6,0,0,1,4.219,3.342Z" transform="translate(-18.824 -10.646)" fill="#e27171"/>
            <path id="Trazado_211735" data-name="Trazado 211735" d="M280.97,158.613l10.028,4.9a3.264,3.264,0,0,1,1.358,4.55,3.5,3.5,0,0,1-4.778,1.429l-9.622-5.6a2.9,2.9,0,0,1-.9-4.1,3.09,3.09,0,0,1,3.916-1.167" transform="translate(-18.785 -10.753)" fill="#e27171"/>
            <path id="Trazado_211736" data-name="Trazado 211736" d="M273.779,169.4l11.607,6.541a3.225,3.225,0,0,0,3.932-.714l.212-.231a3.071,3.071,0,0,0-.653-4.829l-11.82-6.311a3.261,3.261,0,0,0-4.193,1.154,3.04,3.04,0,0,0,.915,4.39" transform="translate(-18.495 -11.105)" fill="#e27171"/>
            <path id="Trazado_211737" data-name="Trazado 211737" d="M271.951,171.673h0a2.812,2.812,0,0,1,3.574-.864l7.891,4.062a2.811,2.811,0,0,1,1.336,3.515l-.258.669a2.812,2.812,0,0,1-4.1,1.376l-7.632-4.731a2.811,2.811,0,0,1-.805-4.027" transform="translate(-18.435 -11.58)" fill="#e27171"/>
            <path id="Trazado_211738" data-name="Trazado 211738" d="M271.747,177.822h0a2.435,2.435,0,0,1,2.841-.52l6.444,3.48a2.1,2.1,0,0,1,.675,3.013l-.427.7a2.458,2.458,0,0,1-3.406.88l-6.017-4.177a2.19,2.19,0,0,1-.11-3.373" transform="translate(-18.407 -12.025)" fill="#e27171"/>
            <path id="Trazado_211739" data-name="Trazado 211739" d="M281.585,174.871a.376.376,0,0,0,.311-.685c-.4-.189-5.064-2.683-7.473-3.975a.376.376,0,1,0-.356.663c.285.153,6.986,3.749,7.509,3.994l.008,0" transform="translate(-18.602 -11.558)"/>
            <path id="Trazado_211740" data-name="Trazado 211740" d="M284.066,168.422a.376.376,0,0,0,.309-.686c-.447-.209-5.767-3.2-8.516-4.751a.376.376,0,0,0-.37.655c.326.184,7.983,4.5,8.569,4.778l.008,0" transform="translate(-18.699 -11.067)"/>
            <path id="Trazado_211741" data-name="Trazado 211741" d="M279.311,180.642a.376.376,0,0,0,.3-.689c-.532-.234-4.435-2.47-6.425-3.62a.376.376,0,0,0-.377.651c.237.137,5.8,3.348,6.5,3.658h0" transform="translate(-18.517 -11.973)"/>
            <path id="Trazado_211742" data-name="Trazado 211742" d="M292.6,164.464a.376.376,0,0,0,.34-.669l-4.432-2.588a.376.376,0,1,0-.379.65l4.432,2.588.039.02" transform="translate(-19.557 -10.946)"/>
            <path id="Trazado_211743" data-name="Trazado 211743" d="M311.83,225.729a.6.6,0,0,1-.378-.132l-22.62-18.124a.606.606,0,0,1-.155-.761l16.94-31.608a.606.606,0,0,1,.91-.189l54.392,42.844a.606.606,0,1,1-.75.952l-53.825-42.4-16.361,30.527,22.226,17.807a.607.607,0,0,1-.379,1.08" transform="translate(-19.602 -11.872)"/>
            <path id="Trazado_211744" data-name="Trazado 211744" d="M353.941,209.689a.606.606,0,0,1-.585-.449l-12.916-47.909a.606.606,0,1,1,1.17-.316l12.917,47.911a.608.608,0,0,1-.585.763" transform="translate(-23.122 -10.906)"/>
            <path id="Trazado_211745" data-name="Trazado 211745" d="M339.712,135.967a.676.676,0,0,1-.105-.008.607.607,0,0,1-.493-.7c3.348-19.281,14.191-30.788,14.3-30.9a.606.606,0,1,1,.876.838c-.106.111-10.7,11.37-13.982,30.269a.606.606,0,0,1-.6.5" transform="translate(-23.032 -7.075)"/>
            <path id="Trazado_211746" data-name="Trazado 211746" d="M260.855,162.412h-.008a.606.606,0,0,1-.6-.614l.443-34.568a.607.607,0,0,1,.606-.6h.008a.607.607,0,0,1,.6.614l-.443,34.568a.607.607,0,0,1-.607.6" transform="translate(-17.676 -8.601)"/>
            <path id="Trazado_211747" data-name="Trazado 211747" d="M303.7,321.3a.606.606,0,0,1-.6-.5l-6.717-38.13H282.008a.606.606,0,1,1,0-1.213h14.886a.6.6,0,0,1,.6.5l6.806,38.631a.607.607,0,0,1-.492.7.517.517,0,0,1-.106.009" transform="translate(-19.113 -19.117)"/>
            <path id="Trazado_211748" data-name="Trazado 211748" d="M250.795,204.763a.615.615,0,0,1-.358-.116L237.48,195.2a.607.607,0,0,1,.716-.981l12.957,9.452a.606.606,0,0,1-.358,1.1" transform="translate(-16.113 -13.183)"/>
            <path id="Trazado_211749" data-name="Trazado 211749" d="M271,221.157l-9.062-3.395a3.321,3.321,0,0,0-2.08,6.272l9.31,2.651a2.794,2.794,0,0,0,3.29-2.145A2.732,2.732,0,0,0,271,221.157" transform="translate(-17.515 -14.78)" fill="#e27171"/>
            <path id="Trazado_211750" data-name="Trazado 211750" d="M267.7,233.119l-11.081-3.344a2.772,2.772,0,0,1-1.773-3.092l.035-.3c.23-1.964,2.01-3.33,3.639-2.794l11.046,3.64a2.869,2.869,0,0,1,1.627,3.56,2.938,2.938,0,0,1-3.493,2.326" transform="translate(-17.308 -15.179)" fill="#e27171"/>
            <path id="Trazado_211751" data-name="Trazado 211751" d="M266.831,235.785h0a2.455,2.455,0,0,0-1.467-2.954l-7.273-2.531a2.627,2.627,0,0,0-3.142,1.462l-.3.62a2.514,2.514,0,0,0,1.426,3.648l7.576,1.912a2.726,2.726,0,0,0,3.184-2.157" transform="translate(-17.275 -15.634)" fill="#e27171"/>
            <path id="Trazado_211752" data-name="Trazado 211752" d="M263.661,240.283h0a2.091,2.091,0,0,0-1.279-2.237l-6.049-1.957a2.02,2.02,0,0,0-2.424,1.566l-.226.749a2.155,2.155,0,0,0,1.359,2.853l6.276,1.208a2.18,2.18,0,0,0,2.343-2.182" transform="translate(-17.223 -16.03)" fill="#e27171"/>
            <g id="Grupo_984231" data-name="Grupo 984231" transform="translate(249.773 206.982)" opacity="0.3" style="mix-blend-mode: overlay;isolation: isolate">
              <g id="Grupo_984230" data-name="Grupo 984230">
                <g id="Grupo_984229" data-name="Grupo 984229" clip-path="url(#clip-path-3)">
                  <path id="Trazado_211753" data-name="Trazado 211753" d="M269.556,226.254a2.127,2.127,0,0,1-1.474-2.7,2.3,2.3,0,0,1,2.858-1.387,2.127,2.127,0,0,1,1.475,2.7,2.3,2.3,0,0,1-2.859,1.387" transform="translate(-267.974 -222.065)"/>
                </g>
              </g>
            </g>
            <g id="Grupo_984234" data-name="Grupo 984234" transform="translate(248.546 212.648)" opacity="0.3" style="mix-blend-mode: overlay;isolation: isolate">
              <g id="Grupo_984233" data-name="Grupo 984233">
                <g id="Grupo_984232" data-name="Grupo 984232" clip-path="url(#clip-path-4)">
                  <path id="Trazado_211754" data-name="Trazado 211754" d="M268.24,232.333a2.127,2.127,0,0,1-1.474-2.7,2.3,2.3,0,0,1,2.858-1.387,2.126,2.126,0,0,1,1.474,2.7,2.3,2.3,0,0,1-2.858,1.387" transform="translate(-266.658 -228.143)"/>
                </g>
              </g>
            </g>
            <g id="Grupo_984237" data-name="Grupo 984237" transform="translate(244.994 217.868)" opacity="0.3" style="mix-blend-mode: overlay;isolation: isolate">
              <g id="Grupo_984236" data-name="Grupo 984236">
                <g id="Grupo_984235" data-name="Grupo 984235" clip-path="url(#clip-path-5)">
                  <path id="Trazado_211755" data-name="Trazado 211755" d="M264.28,237.123a1.806,1.806,0,0,1-1.353-2.218,1.952,1.952,0,0,1,2.464-1.062,1.805,1.805,0,0,1,1.353,2.218,1.951,1.951,0,0,1-2.464,1.062" transform="translate(-262.847 -233.744)"/>
                </g>
              </g>
            </g>
            <g id="Grupo_984240" data-name="Grupo 984240" transform="translate(242.925 222.871)" opacity="0.3" style="mix-blend-mode: overlay;isolation: isolate">
              <g id="Grupo_984239" data-name="Grupo 984239">
                <g id="Grupo_984238" data-name="Grupo 984238" clip-path="url(#clip-path-6)">
                  <path id="Trazado_211756" data-name="Trazado 211756" d="M261.635,241.9a1.393,1.393,0,0,1-.932-1.787,1.5,1.5,0,0,1,1.856-.94,1.392,1.392,0,0,1,.933,1.786,1.507,1.507,0,0,1-1.857.941" transform="translate(-260.627 -239.112)"/>
                </g>
              </g>
            </g>
            <path id="Trazado_211757" data-name="Trazado 211757" d="M269.6,227.641a.338.338,0,0,0,.4-.2.3.3,0,0,0-.212-.385l-9.813-2.929a3.722,3.722,0,0,1-1.392-.8.349.349,0,0,0-.465-.037.29.29,0,0,0-.044.431,4.314,4.314,0,0,0,1.7.99l9.809,2.928.02.006" transform="translate(-17.523 -15.161)"/>
            <path id="Trazado_211758" data-name="Trazado 211758" d="M265.785,233.439a.338.338,0,0,0,.4-.208.3.3,0,0,0-.219-.381l-5.894-1.648c-.434-.122-2.754-.9-3.329-1.148a.344.344,0,0,0-.44.15.3.3,0,0,0,.16.405c.611.259,2.958,1.05,3.413,1.177l5.894,1.649.014,0" transform="translate(-17.406 -15.624)"/>
            <path id="Trazado_211759" data-name="Trazado 211759" d="M262.45,238.485a.337.337,0,0,0,.4-.211.3.3,0,0,0-.223-.379c-.079-.021-1.933-.517-2.511-.647-.608-.135-4.215-1.114-4.782-1.355a.344.344,0,0,0-.439.151.294.294,0,0,0,.159.4c.628.267,4.322,1.264,4.9,1.394.562.124,2.463.635,2.481.639l.01,0" transform="translate(-17.311 -16.02)"/>
            <path id="Trazado_211760" data-name="Trazado 211760" d="M140.6,93.219,113.3,95.9l18.933,3.011Z" transform="translate(-7.696 -6.332)"/>
            <path id="Trazado_211761" data-name="Trazado 211761" d="M132.192,99.471a.544.544,0,0,1-.1-.007l-18.933-3.011a.606.606,0,0,1,.036-1.2l27.3-2.679a.607.607,0,0,1,.4,1.105l-8.364,5.689a.605.605,0,0,1-.341.1M118.015,96l14.035,2.231,6.2-4.218Z" transform="translate(-7.652 -6.287)"/>
            <path id="Trazado_211762" data-name="Trazado 211762" d="M102.113,78C88.555,67.94,89.433,58.019,89.433,58.019l33.725,3.489-1.735,25.445" transform="translate(-6.074 -3.941)"/>
            <path id="Trazado_211763" data-name="Trazado 211763" d="M135.923,94.582l-3.357,2.284-14.416-2.151V63.136h17.774Z" transform="translate(-8.025 -4.288)" fill="#ffa85a"/>
            <path id="Trazado_211764" data-name="Trazado 211764" d="M118.148,78.849V83.57c2.4,2.205,7.484,5.147,17.774,5.715V78.842H118.154Z" transform="translate(-8.025 -5.355)"/>
            <path id="Trazado_211765" data-name="Trazado 211765" d="M188.071,276.411l7.147,43.937H93.24l1.681-40.806Z" transform="translate(-6.333 -18.774)" fill="#5774cd"/>
            <path id="Trazado_211766" data-name="Trazado 211766" d="M196.578,244.756H194.9a.606.606,0,1,1,0-1.213h1.676a15.682,15.682,0,0,0,15.538-17.813l-2.285-16.673-19.693-77.91a.606.606,0,1,1,1.175-.3l19.706,77.976,2.3,16.739a16.894,16.894,0,0,1-16.739,19.191" transform="translate(-12.913 -8.856)"/>
            <path id="Trazado_211767" data-name="Trazado 211767" d="M174.932,146.8l3.477-17.84a1.249,1.249,0,0,0,.009-.186c-.438-3.868-4.511-11.642-13.6-16.06l-21.168-10.29a.609.609,0,0,0-.494-.019.589.589,0,0,0-.345.354l-4.418,11.977L125,98.885a.582.582,0,0,0-.522-.205A.6.6,0,0,0,124,99L114.048,118.1,96.423,104.887a.635.635,0,0,0-.652-.056l-32.837,17.4a49.067,49.067,0,0,0-21.96,23.777L1.807,236.562A21.8,21.8,0,0,0,18.65,266.78l64.3,9.442a.319.319,0,0,0,.093.009.63.63,0,0,0,.364-.121.617.617,0,0,0,.233-.41l2.8-22.883,4.12,14.811a.588.588,0,0,0,.606.447l91.511-2.591a.645.645,0,0,0,.429-.205.6.6,0,0,0,.158-.447ZM91.6,266.855l-4.782-17.178.065-.485a.614.614,0,0,0-.373-.634L69.83,188.607a.6.6,0,0,0-.5-.438.589.589,0,0,0-.606.3L42.865,233.654a.6.6,0,0,0,.326.876l42.326,14.96.075.28-3.076,25.166-63.689-9.349a20.591,20.591,0,0,1-15.911-28.55L42.082,146.5A47.845,47.845,0,0,1,63.5,123.305L95.994,106.09,113.9,119.512a.622.622,0,0,0,.494.1.585.585,0,0,0,.4-.308l9.871-18.949,13.469,15.957a.627.627,0,0,0,.569.214.606.606,0,0,0,.466-.391l4.549-12.331,20.571,10c8.128,3.952,12.425,11.12,12.909,15.016l-3.467,17.821a.96.96,0,0,0-.009.158l8.286,117.479Zm-6.487-18.791L44.273,233.626l24.784-43.3Z" transform="translate(0 -6.702)"/>
            <path id="Trazado_211768" data-name="Trazado 211768" d="M182.094,264.4l-90.4,2.573L86.91,249.8l.065-.485a.614.614,0,0,0-.373-.634L69.918,188.729a.6.6,0,0,0-.5-.438.589.589,0,0,0-.606.3L42.953,233.777a.6.6,0,0,0,.326.876l42.326,14.96.075.28L82.6,275.058,18.915,265.71A20.591,20.591,0,0,1,3,237.16L42.17,146.618a47.845,47.845,0,0,1,21.419-23.19l32.492-17.215,17.905,13.422a.622.622,0,0,0,.494.1.585.585,0,0,0,.4-.308l9.871-18.949,13.469,15.957a.627.627,0,0,0,.569.214.606.606,0,0,0,.466-.391l4.549-12.331,20.571,10c8.128,3.952,12.425,11.12,12.909,15.016l-3.467,17.821a.96.96,0,0,0-.009.158Z" transform="translate(-0.088 -6.825)" fill="#fff"/>
            <path id="Trazado_211769" data-name="Trazado 211769" d="M103.526,259.2,91.74,257.571a4.082,4.082,0,0,0-.8,8.083l11.881.667a3.435,3.435,0,0,0,3.368-3.46,3.36,3.36,0,0,0-2.662-3.665" transform="translate(-5.954 -17.492)" fill="#ffa85a"/>
            <path id="Trazado_211770" data-name="Trazado 211770" d="M102.8,274.438l-14.194-1.019a3.407,3.407,0,0,1-2.96-3.23l-.038-.363c-.254-2.418,1.513-4.538,3.61-4.334l14.231,1.382a3.527,3.527,0,0,1,2.912,3.831,3.612,3.612,0,0,1-3.561,3.733" transform="translate(-5.813 -18.032)" fill="#ffa85a"/>
            <path id="Trazado_211771" data-name="Trazado 211771" d="M102.475,277.869h0a3.019,3.019,0,0,0-2.557-3.147l-9.407-1.072a3.228,3.228,0,0,0-3.373,2.6l-.2.825a3.092,3.092,0,0,0,2.695,3.992l9.6.247a3.352,3.352,0,0,0,3.236-3.447" transform="translate(-5.898 -18.585)" fill="#ffa85a"/>
            <path id="Trazado_211772" data-name="Trazado 211772" d="M99.882,284.135h0a2.571,2.571,0,0,0-2.137-2.338l-7.785-.715a2.485,2.485,0,0,0-2.485,2.533l-.068.959a2.649,2.649,0,0,0,2.4,3.054l7.853-.244a2.68,2.68,0,0,0,2.221-3.25" transform="translate(-5.936 -19.091)" fill="#ffa85a"/>
            <g id="Grupo_984243" data-name="Grupo 984243" transform="translate(93.346 242.292)" opacity="0.3">
              <g id="Grupo_984242" data-name="Grupo 984242">
                <g id="Grupo_984241" data-name="Grupo 984241" clip-path="url(#clip-path-7)">
                  <path id="Trazado_211773" data-name="Trazado 211773" d="M103.327,266.145c-.082,0-.164,0-.248-.009a3.192,3.192,0,0,1-2.239-1.126,2.944,2.944,0,0,1-.676-2.215,3.3,3.3,0,0,1,3.538-2.841,3.189,3.189,0,0,1,2.239,1.127,2.947,2.947,0,0,1,.677,2.215,3.281,3.281,0,0,1-3.291,2.849m.128-5.29a2.366,2.366,0,0,0-2.387,2.037,2.044,2.044,0,0,0,.471,1.535,2.284,2.284,0,0,0,1.608.8,2.377,2.377,0,0,0,2.568-2.028,2.04,2.04,0,0,0-.471-1.536,2.279,2.279,0,0,0-1.607-.8c-.061,0-.121-.007-.182-.007" transform="translate(-100.148 -259.948)" fill="#ffd4de"/>
                </g>
              </g>
            </g>
            <g id="Grupo_984246" data-name="Grupo 984246" transform="translate(93.405 249.42)" opacity="0.3">
              <g id="Grupo_984245" data-name="Grupo 984245">
                <g id="Grupo_984244" data-name="Grupo 984244" clip-path="url(#clip-path-8)">
                  <path id="Trazado_211774" data-name="Trazado 211774" d="M103.39,273.792c-.082,0-.164,0-.247-.009a3.188,3.188,0,0,1-2.239-1.126,2.949,2.949,0,0,1-.677-2.216,3.3,3.3,0,0,1,3.539-2.84A3.189,3.189,0,0,1,106,268.728a2.937,2.937,0,0,1,.677,2.214,3.28,3.28,0,0,1-3.291,2.85m.127-5.29a2.363,2.363,0,0,0-2.385,2.036,2.043,2.043,0,0,0,.471,1.536,2.282,2.282,0,0,0,1.607.8,2.388,2.388,0,0,0,2.569-2.03,2.045,2.045,0,0,0-.471-1.534,2.28,2.28,0,0,0-1.608-.8c-.062,0-.122-.007-.183-.007" transform="translate(-100.211 -267.595)" fill="#ffd4de"/>
                </g>
              </g>
            </g>
            <g id="Grupo_984249" data-name="Grupo 984249" transform="translate(90.434 256.748)" opacity="0.3">
              <g id="Grupo_984248" data-name="Grupo 984248">
                <g id="Grupo_984247" data-name="Grupo 984247" clip-path="url(#clip-path-9)">
                  <path id="Trazado_211775" data-name="Trazado 211775" d="M99.918,280.614c-.08,0-.159,0-.24-.008a3.006,3.006,0,0,1-2.087-1.027,2.358,2.358,0,0,1-.554-1.769,2.866,2.866,0,0,1,3.155-2.345,3,3,0,0,1,2.085,1.027,2.356,2.356,0,0,1,.556,1.769,2.829,2.829,0,0,1-2.915,2.353m.031-4.249a1.918,1.918,0,0,0-2.009,1.541,1.456,1.456,0,0,0,.349,1.09,2.084,2.084,0,0,0,1.455.7,1.961,1.961,0,0,0,2.185-1.533,1.456,1.456,0,0,0-.349-1.091,2.083,2.083,0,0,0-1.455-.7c-.059,0-.118-.007-.176-.007" transform="translate(-97.024 -275.458)" fill="#ffd4de"/>
                </g>
              </g>
            </g>
            <g id="Grupo_984252" data-name="Grupo 984252" transform="translate(89.256 263.434)" opacity="0.3">
              <g id="Grupo_984251" data-name="Grupo 984251">
                <g id="Grupo_984250" data-name="Grupo 984250" clip-path="url(#clip-path-10)">
                  <path id="Trazado_211776" data-name="Trazado 211776" d="M97.96,287.069c-.056,0-.111,0-.168-.007a2.178,2.178,0,0,1-1.53-.777,2.141,2.141,0,0,1-.488-1.614,2.328,2.328,0,0,1,2.457-2.036,2.186,2.186,0,0,1,1.532.778,2.143,2.143,0,0,1,.487,1.613,2.313,2.313,0,0,1-2.29,2.042m.1-3.53a1.4,1.4,0,0,0-1.387,1.228,1.242,1.242,0,0,0,.282.935,1.281,1.281,0,0,0,.9.454,1.4,1.4,0,0,0,1.489-1.225,1.241,1.241,0,0,0-.282-.934,1.278,1.278,0,0,0-.9-.454c-.034,0-.068,0-.1,0" transform="translate(-95.76 -282.631)" fill="#ffd4de"/>
                </g>
              </g>
            </g>
            <path id="Trazado_211777" data-name="Trazado 211777" d="M103.537,267.411a.415.415,0,0,0,.422-.351.369.369,0,0,0-.357-.4l-12.561-.863a4.576,4.576,0,0,1-1.884-.584.429.429,0,0,0-.57.08.358.358,0,0,0,.064.529,5.319,5.319,0,0,0,2.3.729l12.555.863h.025" transform="translate(-6.011 -18.008)"/>
            <path id="Trazado_211778" data-name="Trazado 211778" d="M100.531,275.395a.415.415,0,0,0,.423-.357.369.369,0,0,0-.364-.4l-7.514-.386c-.554-.029-3.547-.34-4.3-.478a.423.423,0,0,0-.487.3.362.362,0,0,0,.3.443c.8.147,3.831.461,4.412.492l7.515.385h.018" transform="translate(-5.996 -18.595)"/>
            <path id="Trazado_211779" data-name="Trazado 211779" d="M97.894,282.348a.414.414,0,0,0,.424-.362.371.371,0,0,0-.37-.393c-.1,0-2.459-.1-3.186-.1-.766,0-5.356-.2-6.1-.334a.423.423,0,0,0-.487.3.362.362,0,0,0,.3.443c.826.151,5.524.349,6.257.348.707,0,3.124.1,3.149.1h.013" transform="translate(-5.988 -19.096)"/>
            <path id="Trazado_211780" data-name="Trazado 211780" d="M130.448,25.282s13.826,3.362,19.445,22.675-5.771,32.055-20.4,32.222c-15.547.177-20.558-3.31-20.558-3.31L91.4,42.969l25.094-20.562Z" transform="translate(-6.208 -1.522)" fill="#ffa85a"/>
            <path id="Trazado_211781" data-name="Trazado 211781" d="M133.739,46.791s-10.7-12.253-17.171,3.543c0,0,12.027,10.76,17.171-3.543" transform="translate(-7.917 -2.87)" fill="#fff"/>
          </g>
        </g>
        <g id="Grupo_984256" data-name="Grupo 984256" transform="translate(108.651 39.391)">
          <g id="Grupo_984255" data-name="Grupo 984255" clip-path="url(#clip-path-11)">
            <path id="Trazado_211782" data-name="Trazado 211782" d="M133.559,44.07a7.767,7.767,0,0,1-.239,10.746,7.222,7.222,0,0,1-10.426-.246,7.766,7.766,0,0,1,.239-10.746,7.221,7.221,0,0,1,10.426.246" transform="translate(-116.859 -42.224)"/>
          </g>
        </g>
        <g id="Grupo_984258" data-name="Grupo 984258">
          <g id="Grupo_984257" data-name="Grupo 984257" clip-path="url(#clip-path)">
            <path id="Trazado_211784" data-name="Trazado 211784" d="M142.309,45.156s-3.618-10.645,6.464-10.946c0,0,7.757,12.462-6.464,10.946" transform="translate(-9.623 -2.324)" fill="#fff"/>
          </g>
        </g>
        <g id="Grupo_984260" data-name="Grupo 984260" transform="translate(132.054 31.886)">
          <g id="Grupo_984259" data-name="Grupo 984259" clip-path="url(#clip-path-13)">
            <path id="Trazado_211785" data-name="Trazado 211785" d="M153.241,36.9a6.088,6.088,0,0,1-1.976,8.209,5.718,5.718,0,0,1-7.864-2.416,6.088,6.088,0,0,1,1.976-8.209,5.717,5.717,0,0,1,7.864,2.416" transform="translate(-141.739 -34.179)"/>
          </g>
        </g>
        <g id="Grupo_984262" data-name="Grupo 984262">
          <g id="Grupo_984261" data-name="Grupo 984261" clip-path="url(#clip-path)">
            <path id="Trazado_211787" data-name="Trazado 211787" d="M143.475,62.249a19.255,19.255,0,0,1-6.119-1.064.764.764,0,0,1,.483-1.449c7.932,2.647,12.175-.922,12.216-.959a.765.765,0,0,1,1,1.156,11.963,11.963,0,0,1-7.582,2.317" transform="translate(-9.294 -3.98)"/>
            <path id="Trazado_211788" data-name="Trazado 211788" d="M119.332,40.552a.765.765,0,0,1-.7-1.066,7.549,7.549,0,0,1,8.141-4.605.764.764,0,0,1-.284,1.5,5.938,5.938,0,0,0-6.454,3.708.762.762,0,0,1-.7.462" transform="translate(-8.053 -2.364)"/>
            <path id="Trazado_211789" data-name="Trazado 211789" d="M135,30.969a.776.776,0,0,1-.245-.04.766.766,0,0,1-.479-.969,5.167,5.167,0,0,1,4.8-3.426.764.764,0,1,1,0,1.529,3.669,3.669,0,0,0-3.355,2.389.765.765,0,0,1-.724.518" transform="translate(-9.117 -1.802)"/>
            <path id="Trazado_211790" data-name="Trazado 211790" d="M148.459,50.528a.764.764,0,0,1-.743-.589L146.6,45.2l-1.444,1.873a.764.764,0,1,1-1.21-.933L146.366,43a.765.765,0,0,1,1.35.291l1.489,6.3a.765.765,0,0,1-.745.94" transform="translate(-9.766 -2.9)"/>
            <path id="Trazado_211791" data-name="Trazado 211791" d="M109.532,66.555s5.15-8.649-3.579-31.926c0,0,7.144-14.3,24.319-9.434,0,0-9.419-8.37-26.3-1.09S87.3,52.609,90.463,61.232s19.068,5.323,19.068,5.323" transform="translate(-6.031 -1.435)"/>
            <path id="Trazado_211792" data-name="Trazado 211792" d="M108.426,70.03s-11.485-6.214-11.268,4.723c.164,8.249,14.013,8.227,14.311,3.163Z" transform="translate(-6.599 -4.637)" fill="#ffa85a"/>
            <path id="Trazado_211793" data-name="Trazado 211793" d="M110.366,74.871a.576.576,0,0,0,.158-.282.582.582,0,0,0-.414-.7l-8.847-2.207a.56.56,0,0,0-.68.427.583.583,0,0,0,.415.7l8.846,2.207a.552.552,0,0,0,.522-.144" transform="translate(-6.831 -4.867)"/>
            <path id="Trazado_211794" data-name="Trazado 211794" d="M106.468,78.9a.58.58,0,0,0,.161-.3l.9-4.391a.579.579,0,0,0-.433-.687.563.563,0,0,0-.667.447l-.9,4.391a.578.578,0,0,0,.434.687.551.551,0,0,0,.505-.148" transform="translate(-7.167 -4.993)"/>
            <path id="Trazado_211795" data-name="Trazado 211795" d="M121.213,119.409a.606.606,0,0,1-.363-.121l-18.2-13.651a.606.606,0,0,1-.054-.924l9.553-9.1a.6.6,0,0,1,.513-.16l18.933,3.011a.606.606,0,0,1,.443.879l-10.283,19.742a.6.6,0,0,1-.4.311.593.593,0,0,1-.134.015M103.947,105.1l17.059,12.793,9.564-18.363-17.805-2.832Z" transform="translate(-6.955 -6.483)"/>
            <path id="Trazado_211796" data-name="Trazado 211796" d="M147.63,116.119a.606.606,0,0,1-.464-.215L133.109,99.257a.6.6,0,0,1,.123-.893l8.363-5.69a.608.608,0,0,1,.746.05l10.478,9.379a.609.609,0,0,1,.165.662L148.2,115.723a.611.611,0,0,1-.464.388.664.664,0,0,1-.1.008M134.469,98.988l12.952,15.338,4.279-11.6-9.816-8.789Z" transform="translate(-9.031 -6.287)"/>
            <path id="Trazado_211797" data-name="Trazado 211797" d="M73.4,167.736a.606.606,0,0,1-.54-.328L56.4,135.587a.606.606,0,1,1,1.077-.556l16.461,31.82a.606.606,0,0,1-.26.817.6.6,0,0,1-.278.068" transform="translate(-3.826 -9.149)"/>
            <path id="Trazado_211798" data-name="Trazado 211798" d="M45.363,244a.593.593,0,0,1-.187-.03l-15.712-5.118a.606.606,0,1,1,.375-1.153l15.712,5.118A.606.606,0,0,1,45.363,244" transform="translate(-1.973 -16.143)"/>
            <path id="Trazado_211799" data-name="Trazado 211799" d="M41.248,236.6a.607.607,0,0,1-.393-.144l-11.6-9.88a.606.606,0,0,1,.786-.924l11.6,9.88a.607.607,0,0,1-.393,1.068" transform="translate(-1.973 -15.316)"/>
            <path id="Trazado_211800" data-name="Trazado 211800" d="M74.25,195.426a.606.606,0,0,1-.525-.908l3.7-6.44a.606.606,0,1,1,1.051.6l-3.7,6.44a.606.606,0,0,1-.527.3" transform="translate(-5.002 -12.754)"/>
            <path id="Trazado_211801" data-name="Trazado 211801" d="M163.387,266.567a.606.606,0,0,1-.6-.509L136.431,103.472a.607.607,0,0,1,1.2-.194l26.356,162.585a.606.606,0,0,1-.5.7.6.6,0,0,1-.1.008" transform="translate(-9.266 -6.98)"/>
            <path id="Trazado_211802" data-name="Trazado 211802" d="M142.675,194.02a.608.608,0,0,1-.6-.509L128.3,108.353a.606.606,0,1,1,1.2-.195l13.778,85.158a.606.606,0,0,1-.5.7.593.593,0,0,1-.1.008" transform="translate(-8.714 -7.312)"/>
            <path id="Trazado_211803" data-name="Trazado 211803" d="M203.424,216.411h-10.9a10.538,10.538,0,0,0-9.376,6.207,7.6,7.6,0,0,1,.879-.052h16.255a5.916,5.916,0,0,1,5.606,6.182v6.715c0,3.912-2.876,7.084-6.423,7.084H184.024a7.6,7.6,0,0,1-.879-.052,10.538,10.538,0,0,0,9.376,6.207h10.9c6.5,0,8.691-4.934,8.691-9.584V225.995c0-5.293-2-9.584-8.691-9.584" transform="translate(-12.439 -14.699)" fill="#fd521b"/>
            <path id="Trazado_211804" data-name="Trazado 211804" d="M181.349,228.582a12.63,12.63,0,0,1,1.25-5.512c-4.2.486-7.479,4.4-7.479,9.166v1.545c0,4.763,3.276,8.681,7.479,9.166a12.627,12.627,0,0,1-1.25-5.512Z" transform="translate(-11.894 -15.151)" fill="#fd521b"/>
            <path id="Trazado_211805" data-name="Trazado 211805" d="M203.492,220.713l10.278-.139a3.617,3.617,0,0,1-.176,7.176l-10.258-.713a3.021,3.021,0,0,1-2.518-3.4,2.939,2.939,0,0,1,2.673-2.923" transform="translate(-13.639 -14.982)" fill="#ffa85a"/>
            <path id="Trazado_211806" data-name="Trazado 211806" d="M202.346,234.136l12.277.655a2.962,2.962,0,0,0,2.883-2.509l.072-.314c.474-2.093-.813-4.145-2.633-4.194l-12.348-.34a3.083,3.083,0,0,0-2.905,3.04,3.179,3.179,0,0,0,2.655,3.662" transform="translate(-13.562 -15.447)" fill="#ffa85a"/>
            <path id="Trazado_211807" data-name="Trazado 211807" d="M202.588,237.2h0a2.633,2.633,0,0,1,2.528-2.48l8.179.086a2.821,2.821,0,0,1,2.614,2.65l.081.745a2.71,2.71,0,0,1-2.736,3.206l-8.26-.831a2.953,2.953,0,0,1-2.407-3.375" transform="translate(-13.759 -15.942)" fill="#ffa85a"/>
            <path id="Trazado_211808" data-name="Trazado 211808" d="M202.31,241.673h0a2.166,2.166,0,0,1,2.243-1.747l7.6.592a2.579,2.579,0,0,1,2.227,2.651l0,.866a2.222,2.222,0,0,1-2.551,2.344l-7.6-1.458a2.661,2.661,0,0,1-1.919-3.248" transform="translate(-13.736 -16.296)" fill="#ffa85a"/>
            <path id="Trazado_211809" data-name="Trazado 211809" d="M202.823,227.923a.364.364,0,0,1-.324-.353.321.321,0,0,1,.349-.316l10.862.614a3.882,3.882,0,0,0,1.678-.307.364.364,0,0,1,.478.132.318.318,0,0,1-.111.456,4.492,4.492,0,0,1-2.052.389l-10.857-.613-.021,0" transform="translate(-13.754 -15.435)"/>
            <path id="Trazado_211810" data-name="Trazado 211810" d="M204.728,235.233a.363.363,0,0,1-.324-.359.321.321,0,0,1,.355-.309l6.484.482c.477.035,3.077.089,3.74.049a.368.368,0,0,1,.385.315.318.318,0,0,1-.306.356c-.7.041-3.333-.014-3.835-.051l-6.484-.481-.015,0" transform="translate(-13.883 -15.932)"/>
            <path id="Trazado_211811" data-name="Trazado 211811" d="M206.408,241.609a.363.363,0,0,1-.324-.364.321.321,0,0,1,.359-.3c.086.007,2.118.182,2.741.262.657.085,4.613.411,5.267.373a.366.366,0,0,1,.385.315.317.317,0,0,1-.306.355c-.723.043-4.773-.3-5.4-.378-.606-.079-2.689-.256-2.71-.258h-.011" transform="translate(-13.997 -16.365)"/>
            <path id="Trazado_211812" data-name="Trazado 211812" d="M153.536,322.211a.606.606,0,0,1-.6-.585c-.468-13.331,16.351-18.245,16.52-18.293a.606.606,0,1,1,.33,1.167c-.16.046-16.073,4.706-15.639,17.084a.606.606,0,0,1-.584.627Z" transform="translate(-10.387 -20.601)"/>
            <path id="Trazado_211813" data-name="Trazado 211813" d="M170.1,253.039h21.391a4.414,4.414,0,0,0,4.414-4.414v-31.2a4.414,4.414,0,0,0-4.414-4.414H170.1a4.414,4.414,0,0,0-4.414,4.414v31.2a4.414,4.414,0,0,0,4.414,4.414" transform="translate(-11.254 -14.468)" fill="#fd521b"/>
          </g>
        </g>
      </g>
    </g>
  </g>
</svg>
