<svg xmlns="http://www.w3.org/2000/svg" xmlns:xlink="http://www.w3.org/1999/xlink" width="64" height="64" viewBox="0 0 64 64">
  <defs>
    <clipPath id="clip-path">
      <rect id="Rectángulo_339728" data-name="Rectángulo 339728" width="64" height="64" transform="translate(-4569 -5004)" fill="#fc5f65" stroke="#707070" stroke-width="1"/>
    </clipPath>
    <clipPath id="clip-path-2">
      <path id="path1599" d="M0-64H64V0H0Z"/>
    </clipPath>
  </defs>
  <g id="Enmascarar_grupo_616" data-name="Enmascarar grupo 616" transform="translate(4569 5004)" clip-path="url(#clip-path)">
    <g id="g1593" transform="translate(-4569 -4940)">
      <g id="g1595">
        <g id="g1597" clip-path="url(#clip-path-2)">
          <g id="g1603" transform="translate(60.807 -26.578)">
            <path id="path1605" d="M0,0V6.28L-35.951,3.759-57.612,2.24v-13.2a21.623,21.623,0,0,1,21.661-21.6A21.736,21.736,0,0,1-14.412-10.751V-4.36H-4.36A4.361,4.361,0,0,1,0,0" fill="#d0e2e7"/>
          </g>
          <g id="g1607" transform="translate(24.856 -59.138)">
            <path id="path1609" d="M0,0V36.319L-21.661,34.8V21.6A21.623,21.623,0,0,1,0,0" fill="#b4d0d5"/>
          </g>
          <g id="g1611" transform="translate(46.393 -22.538)">
            <path id="path1613" d="M0,0V-8.4" fill="none" stroke="#000" stroke-linecap="round" stroke-linejoin="round" stroke-miterlimit="10" stroke-width="1.875"/>
          </g>
          <g id="g1615" transform="translate(46.393 -22.538)">
            <path id="path1617" d="M0,0V-8.4" fill="#d0e2e7"/>
          </g>
          <g id="g1619" transform="translate(46.393 -30.938)">
            <path id="path1621" d="M0,0H10.051a4.361,4.361,0,0,1,4.361,4.36v6.28A4.361,4.361,0,0,1,10.051,15H-21.6c-4.855,0-8.5-5.27-5.524-10.39.418-.717,1.645-7.881,2.362-8.3" fill="#d0e2e7"/>
          </g>
          <path id="path1623" d="M35.326-34.626H11.185v20.6H35.326Z" fill="#b4d0d5"/>
          <g id="g1625" transform="translate(60.806 -20.297)">
            <path id="path1627" d="M0,0V15a4.361,4.361,0,0,1-4.36,4.36H-37.25A19.8,19.8,0,0,1-55.06,8.349C-62.974-7.815-51.329-23.84-36.012-23.84a21.625,21.625,0,0,1,21.6,21.6h-15c0-4.855-5.27-8.5-10.39-5.524A4.8,4.8,0,0,0-41.536-6.03c-2.979,5.12.669,10.39,5.524,10.39H-4.36A4.361,4.361,0,0,0,0,0" fill="#9bb9c1"/>
          </g>
          <g id="g1629" transform="translate(3.194 -24.337)">
            <path id="path1631" d="M0,0V-13.2" fill="none" stroke="#000" stroke-linecap="round" stroke-linejoin="round" stroke-miterlimit="10" stroke-width="1.875"/>
          </g>
          <g id="g1633" transform="translate(3.194 -39.339)">
            <path id="path1635" d="M0,0V1.8A21.622,21.622,0,0,1,21.661-19.8,21.736,21.736,0,0,1,43.2,2.01V8.4H53.251a4.361,4.361,0,0,1,4.361,4.36v6.28" fill="none" stroke="#000" stroke-linecap="round" stroke-linejoin="round" stroke-miterlimit="10" stroke-width="1.875"/>
          </g>
          <g id="g1637" transform="translate(60.806 -8.78)">
            <path id="path1639" d="M0,0V3.483a4.361,4.361,0,0,1-4.36,4.36H-37.251A19.8,19.8,0,0,1-55.061-3.169c-5.857-11.966-1-23.855,8.134-29.223" fill="none" stroke="#000" stroke-linecap="round" stroke-linejoin="round" stroke-miterlimit="10" stroke-width="1.875"/>
          </g>
          <g id="g1641" transform="translate(17.255 -42.781)">
            <path id="path1643" d="M0,0A21.6,21.6,0,0,1,29.139,20.244h-15c0-4.855-5.27-8.5-10.39-5.524a4.8,4.8,0,0,0-1.734,1.734c-2.98,5.12.668,10.39,5.524,10.39H39.19a4.361,4.361,0,0,0,4.361-4.36v7.767" fill="none" stroke="#000" stroke-linecap="round" stroke-linejoin="round" stroke-miterlimit="10" stroke-width="1.875"/>
          </g>
          <g id="g1645" transform="translate(24.793 -40.309)">
            <path id="path1647" d="M0,0V7.342" fill="none" stroke="#000" stroke-linecap="round" stroke-linejoin="round" stroke-miterlimit="10" stroke-width="1.875"/>
          </g>
          <g id="g1649" transform="translate(24.793 -11.883)">
            <path id="path1651" d="M0,0V7.342" fill="none" stroke="#000" stroke-linecap="round" stroke-linejoin="round" stroke-miterlimit="10" stroke-width="1.875"/>
          </g>
          <g id="g1653" transform="translate(37.118 -11.883)">
            <path id="path1655" d="M0,0V7.342" fill="none" stroke="#000" stroke-linecap="round" stroke-linejoin="round" stroke-miterlimit="10" stroke-width="1.875"/>
          </g>
          <g id="g1657" transform="translate(49.444 -11.883)">
            <path id="path1659" d="M0,0V7.342" fill="none" stroke="#000" stroke-linecap="round" stroke-linejoin="round" stroke-miterlimit="10" stroke-width="1.875"/>
          </g>
          <g id="g1661" transform="translate(15.066 -22.537)">
            <path id="path1663" d="M0,0H-7.342" fill="none" stroke="#000" stroke-linecap="round" stroke-linejoin="round" stroke-miterlimit="10" stroke-width="1.875"/>
          </g>
          <g id="g1665" transform="translate(18.106 -15.197)">
            <path id="path1667" d="M0,0-5.192,5.192" fill="none" stroke="#000" stroke-linecap="round" stroke-linejoin="round" stroke-miterlimit="10" stroke-width="1.875"/>
          </g>
          <g id="g1669" transform="translate(37.979 -35.07)">
            <path id="path1671" d="M0,0-5.192,5.192" fill="none" stroke="#000" stroke-linecap="round" stroke-linejoin="round" stroke-miterlimit="10" stroke-width="1.875"/>
          </g>
          <g id="g1673" transform="translate(18.106 -29.878)">
            <path id="path1675" d="M0,0-5.192-5.192" fill="none" stroke="#000" stroke-linecap="round" stroke-linejoin="round" stroke-miterlimit="10" stroke-width="1.875"/>
          </g>
          <g id="g1677" transform="translate(58.417 -51.018)">
            <path id="path1679" d="M0,0-1.264.251A35.2,35.2,0,0,0-8.852-11.128a3.125,3.125,0,0,0-4.419,0,3.125,3.125,0,0,0,0,4.419A28.928,28.928,0,0,1-7.542,1.5l-1.019.2a1.8,1.8,0,0,0-1,2.949l5.75,6.564a1.8,1.8,0,0,0,3.055-.606L2.052,2.343A1.8,1.8,0,0,0,0,0" fill="#ff8091"/>
          </g>
          <g id="g1681" transform="translate(58.417 -51.018)">
            <path id="path1683" d="M0,0-1.264.251A35.2,35.2,0,0,0-8.852-11.128a3.125,3.125,0,0,0-4.419,0,3.125,3.125,0,0,0,0,4.419A28.928,28.928,0,0,1-7.542,1.5l-1.019.2a1.8,1.8,0,0,0-1,2.949l5.75,6.564a1.8,1.8,0,0,0,3.055-.606L2.052,2.343A1.8,1.8,0,0,0,0,0Z" fill="none" stroke="#000" stroke-linecap="round" stroke-linejoin="round" stroke-miterlimit="10" stroke-width="1.875"/>
          </g>
          <g id="g1685" transform="translate(46.393 -37.329)">
            <path id="path1687" d="M0,0V14.166" fill="none" stroke="#000" stroke-linecap="round" stroke-linejoin="round" stroke-miterlimit="10" stroke-width="1.875"/>
          </g>
        </g>
      </g>
    </g>
  </g>
</svg>
