<svg xmlns="http://www.w3.org/2000/svg" xmlns:xlink="http://www.w3.org/1999/xlink" width="64" height="64" viewBox="0 0 64 64">
  <defs>
    <clipPath id="clip-path">
      <rect id="Rectángulo_339734" data-name="Rectángulo 339734" width="64" height="64" transform="translate(-4569 -4625)" fill="#fc5f65" stroke="#707070" stroke-width="1"/>
    </clipPath>
  </defs>
  <g id="Enmascarar_grupo_618" data-name="Enmascarar grupo 618" transform="translate(4569 4625)" clip-path="url(#clip-path)">
    <g id="descubrimiento" transform="translate(-4569 -4623.128)">
      <path id="Trazado_218817" data-name="Trazado 218817" d="M8.181,9.1l-7.115.981L6.485,49.215,45.622,43.8l-.437-3.147-3.7-26.774L40.2,4.659,31.9,5.811" fill="#ffd858"/>
      <path id="Trazado_218818" data-name="Trazado 218818" d="M8.073,2.666H32.029v9.583H8.073Z" transform="matrix(0.991, -0.137, 0.137, 0.991, -0.833, 2.819)" fill="#0085ff"/>
      <path id="Trazado_218819" data-name="Trazado 218819" d="M8.523,20.029H33.994v2.135H8.523Z" transform="translate(-2.032 2.267) rotate(-5.853)" fill="#fff"/>
      <path id="Trazado_218820" data-name="Trazado 218820" d="M19.958,26.421H30.42v2.135H19.958Z" transform="translate(-2.12 2.105) rotate(-4.588)" fill="#ffd858"/>
      <path id="Trazado_218821" data-name="Trazado 218821" d="M9.536,27.472h5.232v2.135H9.536Z" transform="translate(-2.245 1.065) rotate(-4.588)" fill="#fff"/>
      <path id="Trazado_218822" data-name="Trazado 218822" d="M9.967,34.315H34.026v2.133H9.967Z" transform="translate(-3.577 2.492) rotate(-6.024)" fill="#fff"/>
      <circle id="Elipse_4933" data-name="Elipse 4933" cx="13.71" cy="13.71" r="13.71" transform="translate(31.916 13.234)" fill="#d6dce0"/>
      <circle id="Elipse_4934" data-name="Elipse 4934" cx="11.451" cy="11.451" r="11.451" transform="translate(34.176 15.486)" fill="#fff"/>
      <path id="Trazado_218823" data-name="Trazado 218823" d="M52.426,38.885h2.135v8.741H52.426Z" transform="translate(-13.443 27.395) rotate(-25.643)" fill="#d6dce0"/>
      <path id="Trazado_218824" data-name="Trazado 218824" d="M60.993,58.855a3.427,3.427,0,0,1-4.575-1.6L51.461,46.96l2.592-2.516,3.584-.458L62.594,54.28a3.427,3.427,0,0,1-1.6,4.575Z" fill="#d6dce0"/>
      <path id="Trazado_218825" data-name="Trazado 218825" d="M60.993,58.858a3.4,3.4,0,0,1-2.133.277,3.468,3.468,0,0,0,.832-.277,3.427,3.427,0,0,0,1.6-4.576L56.417,44.148l1.216-.16,4.96,10.294A3.427,3.427,0,0,1,60.993,58.858Z" fill="#f2f2f2" opacity="0.52"/>
      <path id="Trazado_218826" data-name="Trazado 218826" d="M49.8,35.611l-.925-1.923a7.51,7.51,0,0,0,3.5-10.014l1.923-.925A9.647,9.647,0,0,1,49.8,35.611Z" fill="#d6dce0"/>
      <path id="Trazado_218827" data-name="Trazado 218827" d="M45.185,40.649v-.011a13.7,13.7,0,0,1-3.7-26.763l-.32-2.325a15.907,15.907,0,0,0,3.765,31.361c.192,0,.373,0,.565-.011Z" opacity="0.1"/>
      <path id="Trazado_218828" data-name="Trazado 218828" d="M19.958,26.421H30.42v2.135H19.958Z" transform="translate(-2.12 2.105) rotate(-4.588)"/>
      <path id="Trazado_218829" data-name="Trazado 218829" d="M9.537,27.474h5.233v2.135H9.537Z" transform="matrix(0.997, -0.081, 0.081, 0.997, -2.256, 1.07)"/>
      <path id="Trazado_218830" data-name="Trazado 218830" d="M63.555,53.818,58.6,43.524a1.077,1.077,0,0,0-1.1-.6l-2.821.361-1.7-3.541a14.761,14.761,0,0,0-10.6-27.206L41.261,4.512a1.066,1.066,0,0,0-.413-.7,1.053,1.053,0,0,0-.79-.2l-7.245,1L32.3.922A1.068,1.068,0,0,0,31.89.217a1.054,1.054,0,0,0-.789-.2L7.379,3.3a1.066,1.066,0,0,0-.911,1.2l.511,3.686L.921,9.021a1.066,1.066,0,0,0-.91,1.2L5.429,49.36a1.065,1.065,0,0,0,1.057.921.952.952,0,0,0,.146-.011l39.136-5.419a1.064,1.064,0,0,0,.91-1.2l-.273-1.971a14.621,14.621,0,0,0,4.645-1.012l1.708,3.548-2.04,1.98A1.066,1.066,0,0,0,50.5,47.42l4.957,10.295a4.5,4.5,0,0,0,6,2.1h0a4.494,4.494,0,0,0,2.1-5.995ZM49.8,15.012a12.543,12.543,0,1,1-4.186-.718,12.558,12.558,0,0,1,4.186.718ZM30.334,2.271l.77,5.559.25,1.817-21.6,2.991L9.482,10.7,8.729,5.263ZM7.4,48.012,2.27,10.988l5-.689.063.452.448,3.236a1.063,1.063,0,0,0,.134.384,1,1,0,0,0,.121.148,1.1,1.1,0,0,0,.123.14,1.083,1.083,0,0,0,.2.122.951.951,0,0,0,.132.065,1,1,0,0,0,.22.041.938.938,0,0,0,.122.022.978.978,0,0,0,.124-.009c.01,0,.018,0,.027,0L32.7,11.616a1.053,1.053,0,0,0,.4-.141,1.066,1.066,0,0,0,.513-1.063l-.373-2.7-.135-.99,6.188-.86,1.014,7.307c-.367.143-.733.289-1.092.462a14.663,14.663,0,0,0-5.884,5.152L8.476,21.327l.217,2.123,23.4-2.394a14.735,14.735,0,0,0,.159,12.16L9.916,35.556l.223,2.121L33.4,35.239a14.807,14.807,0,0,0,10.849,6.405l.172,1.241ZM60.53,57.895a2.369,2.369,0,0,1-3.151-1.1l-4.623-9.6,1.785-1.733,2.469-.316,4.623,9.6a2.363,2.363,0,0,1-1.1,3.151Z"/>
      <path id="Trazado_218831" data-name="Trazado 218831" d="M54.3,22.75l-1.923.925a7.51,7.51,0,0,1-3.5,10.014l.925,1.923A9.648,9.648,0,0,0,54.3,22.75Z"/>
    </g>
  </g>
</svg>
