<svg id="Grupo_984262" data-name="Grupo 984262" xmlns="http://www.w3.org/2000/svg" xmlns:xlink="http://www.w3.org/1999/xlink" width="85" height="85" viewBox="0 0 85 85">
  <defs>
    <clipPath id="clip-path">
      <rect id="Rectángulo_38904" data-name="Rectángulo 38904" width="44.126" height="59.675" fill="none"/>
    </clipPath>
    <clipPath id="clip-path-3">
      <rect id="Rectángulo_38901" data-name="Rectángulo 38901" width="2.553" height="2.06" fill="none"/>
    </clipPath>
    <clipPath id="clip-path-4">
      <rect id="Rectángulo_38902" data-name="Rectángulo 38902" width="6.501" height="2.142" fill="none"/>
    </clipPath>
  </defs>
  <g id="Grupo_159043" data-name="Grupo 159043" transform="translate(0 0)">
    <circle id="Elipse_4780" data-name="Elipse 4780" cx="42.5" cy="42.5" r="42.5" transform="translate(0 0)" fill="#c4d1ff"/>
  </g>
  <g id="Grupo_162305" data-name="Grupo 162305" transform="translate(20.437 12.662)">
    <g id="Grupo_162304" data-name="Grupo 162304" transform="translate(0)" clip-path="url(#clip-path)">
      <g id="Grupo_162303" data-name="Grupo 162303" transform="translate(0 0)">
        <g id="Grupo_162302" data-name="Grupo 162302" clip-path="url(#clip-path)">
          <path id="Trazado_143571" data-name="Trazado 143571" d="M38.767,5.84C27.009-3.065,10.136-2.175,3.918,11.2a17.976,17.976,0,0,0-1.125,3.13C1.019,21.267,4,23.787,3.327,26.594a49.382,49.382,0,0,0-1.234,5.877,40.469,40.469,0,0,1-.872,4.8C.882,38.687.435,40.082.14,41.5c-.037.181-.063.313-.08.4a12.5,12.5,0,0,0,.011,2.565c.419,2.737,1.833,5.375,3.188,7.92A52.428,52.428,0,0,0,8.25,56.1C13.467,59.48,20.2,59.163,26.184,59.43c2.8.125,5.6.26,8.406.245l.007,0a30.612,30.612,0,0,1,3.634-5.294c-1.409-1.155-1.719-2.526-.061-4.553,4.44-5.43,6.283-8.985,3.9-13.226s.4-3.812,1.392-10.254c.58-3.752,2.466-15.075-4.7-20.5" transform="translate(0 0)" fill="#181709"/>
          <path id="Trazado_143572" data-name="Trazado 143572" d="M35.232,64.672a28.344,28.344,0,0,1,2.9-4.377q-.314-.045-.631-.112c-.373-.075-.746-.171-1.12-.278q-.447-.13-.89-.282a29.806,29.806,0,0,1-5.344-2.554l-6.209-.723-.71-.083L12.317,54.992a7.249,7.249,0,0,1-1.968,2.413c-.135.12-.278.245-.43.368a18.926,18.926,0,0,1-2,1.439c-.205.131-.417.263-.643.393-.1.056-.2.115-.3.172.633.455,1.266.908,1.907,1.324,5.217,3.382,11.949,3.064,17.933,3.332,2.583.115,5.164.239,7.749.245.222,0,.443,0,.664-.005" transform="translate(-0.635 -5.003)" fill="#fff"/>
          <path id="Trazado_143573" data-name="Trazado 143573" d="M15,63.684c-1.374-2.067-2.819-4.086-4.354-6.036-.135.12-.278.244-.43.368,1.391,1.772,2.706,3.6,3.964,5.469.271.072.545.137.82.2" transform="translate(-0.929 -5.244)" fill="#e2cec3"/>
          <path id="Trazado_143574" data-name="Trazado 143574" d="M24.942,57.219a.282.282,0,0,0,0-.564.282.282,0,0,0,0,.564" transform="translate(-2.244 -5.154)" fill="#e2cec3"/>
          <path id="Trazado_143575" data-name="Trazado 143575" d="M25.22,57c1.493,2.478,2.868,5.021,4.168,7.6l.665.027q-2.085-4.162-4.49-8.153l-.71-.083c.049.081.1.163.146.244.075.12.148.243.22.363" transform="translate(-2.261 -5.13)" fill="#e2cec3"/>
          <path id="Trazado_143576" data-name="Trazado 143576" d="M39.974,35.459,37.821,47.242s1.612,1.508,5.735.359L40.594,35.466Z" transform="translate(-3.441 -3.226)" fill="#fff"/>
          <path id="Trazado_143577" data-name="Trazado 143577" d="M41.891,27.884a2.792,2.792,0,0,1,2.3,2.647c.362,2.47-.9,6.584-3.393,6.069s1.1-8.716,1.1-8.716" transform="translate(-3.631 -2.537)" fill="#722324"/>
          <line id="Línea_387" data-name="Línea 387" y2="0.002" transform="translate(31.344 44.487)" fill="#c9614d"/>
          <path id="Trazado_143578" data-name="Trazado 143578" d="M22.507,62.139a17.4,17.4,0,0,0,4.012.707l.445.017c5.015.043,5.787-3.3,5.787-3.3a17.346,17.346,0,0,1-.71-3.808c-.039-.5-.06-1.017-.064-1.55a41.889,41.889,0,0,1,.294-4.878c.045-.43.1-.876.155-1.336l.006-.055c-6.35-1.541-11.538-4.39-15.073-9.1l-.951-.574-.641-.389-.12.37.115,1.183c.558,5.559-.72,10.154-3.818,15.258a20.115,20.115,0,0,0,10.564,7.457" transform="translate(-1.087 -3.445)" fill="#c9614d"/>
          <path id="Trazado_143579" data-name="Trazado 143579" d="M14.255,63.243c.309.081.622.153.935.221a76.28,76.28,0,0,1-4.2-8.5c-.175-.4-.759-.054-.585.342a83.39,83.39,0,0,0,3.852,7.935" transform="translate(-0.944 -4.984)" fill="#110e0a"/>
          <path id="Trazado_143580" data-name="Trazado 143580" d="M36.354,64.838c.229,0,.458.014.687.015a28.075,28.075,0,0,0-2.1-7.706c-.153-.4-.806-.228-.652.18a27.563,27.563,0,0,1,2.061,7.511" transform="translate(-3.118 -5.178)" fill="#110e0a"/>
          <path id="Trazado_143581" data-name="Trazado 143581" d="M22.716,44.334c1.326,3.043,4.413,8.427,10.239,10.458a42.1,42.1,0,0,1,.294-4.878c.046-.429.1-.876.155-1.335-.125.014-.255.024-.383.031-3.465.21-7.219-1.6-10.306-4.275" transform="translate(-2.067 -4.033)" fill="#181709"/>
          <path id="Trazado_143582" data-name="Trazado 143582" d="M7.7,25.857c-.237,3.445,2.389,7.863,6.887,8.3l.024,0h0l.095.01c.06.2.131.4.205.608.03.088.065.178.1.266a.059.059,0,0,0,.011.025c2.4,6.045,10.506,10.06,15.007,10.492a10.34,10.34,0,0,0,3.067-.185c4.851-.71,6.19-7.108,5.779-12.1a18.954,18.954,0,0,0-.285-2.06l-.027-.133s2.076-6.8,2.658-9.783c1.125-5.79-1.817-11.953-14.543-14S10.336,12.993,9.146,17.148c-.2.692-.346,4.888.308,5.611a3.423,3.423,0,0,0-1.755,3.1" transform="translate(-0.699 -0.634)" fill="#c9614d"/>
          <path id="Trazado_143583" data-name="Trazado 143583" d="M39.22,30.336c-.129.843-.588,1.473-1.026,1.405s-.689-.8-.56-1.648.588-1.473,1.026-1.405.689.8.56,1.648" transform="translate(-3.421 -2.609)" fill="#181709"/>
          <path id="Trazado_143584" data-name="Trazado 143584" d="M36.845,29.371a.226.226,0,0,1-.025-.4c.09-.053,2.221-1.28,3.928.115a.226.226,0,0,1-.286.35c-1.464-1.2-3.393-.087-3.412-.076a.224.224,0,0,1-.2.013" transform="translate(-3.34 -2.585)" fill="#181709"/>
          <path id="Trazado_143585" data-name="Trazado 143585" d="M31.115,29.238c-.129.843-.588,1.473-1.026,1.405s-.689-.8-.56-1.648.589-1.473,1.027-1.405.688.8.559,1.648" transform="translate(-2.683 -2.509)" fill="#181709"/>
          <path id="Trazado_143586" data-name="Trazado 143586" d="M28.318,28.531a.225.225,0,0,1-.075-.4c.082-.064,2.04-1.551,3.91-.382a.226.226,0,0,1-.239.383c-1.606-1-3.377.343-3.394.356a.229.229,0,0,1-.2.038" transform="translate(-2.561 -2.484)" fill="#181709"/>
          <path id="Trazado_143587" data-name="Trazado 143587" d="M30.629,36.833s.006,4.044,3.383,4.429a3.487,3.487,0,0,0,3.916-2.92Z" transform="translate(-2.787 -3.351)" fill="#fff"/>
          <path id="Trazado_143588" data-name="Trazado 143588" d="M33.409,43.223a1.818,1.818,0,0,1-1-.679.306.306,0,0,1,.507-.341,1.237,1.237,0,0,0,1.317.425.306.306,0,0,1,.138.6,1.984,1.984,0,0,1-.964,0" transform="translate(-2.944 -3.827)" fill="#722324"/>
          <path id="Trazado_143589" data-name="Trazado 143589" d="M9.464,22.662a7.491,7.491,0,0,1,1.029.193A7.611,7.611,0,0,1,14.86,26.2c.181-1.17,1.434-6.54,9.276-7.422.112-.012.233-.024.358-.034a6.686,6.686,0,0,0,.864-3.364c-.781-3.187,14.565-1.569,15.081,3.323.215,2.05.331,3.385.393,4.252v0a8.424,8.424,0,0,1,.055,1.592s1.354,1.411,1.468-5.327a9.148,9.148,0,0,0-2.275-6.011C37.015,9.491,31.2,6.822,24.77,6,15.248,4.78,8.311,14.784,7.855,18.434s1.609,4.228,1.609,4.228" transform="translate(-0.709 -0.537)" fill="#181709"/>
          <g id="Grupo_162298" data-name="Grupo 162298" transform="translate(35.622 30.582)" opacity="0.5">
            <g id="Grupo_162297" data-name="Grupo 162297" transform="translate(0)">
              <g id="Grupo_162296" data-name="Grupo 162296" clip-path="url(#clip-path-3)">
                <path id="Trazado_143590" data-name="Trazado 143590" d="M39.188,34.534c-.025.513,1.071,1,2.553,1.168a19.013,19.013,0,0,0-.286-2.06c-1.294.075-2.243.425-2.266.892" transform="translate(-39.188 -33.642)" fill="#722324"/>
              </g>
            </g>
          </g>
          <path id="Trazado_143591" data-name="Trazado 143591" d="M35.647,35.566a.4.4,0,0,0,.215-.038l1.825-.907a.391.391,0,0,0,.048-.672,5.632,5.632,0,0,1-2.357-4.136.391.391,0,0,0-.774.115A6.513,6.513,0,0,0,36.777,34.2l-1.263.626a.391.391,0,0,0,.133.739" transform="translate(-3.148 -2.682)" fill="#722324"/>
          <path id="Trazado_143592" data-name="Trazado 143592" d="M31.435,25.354a.95.95,0,0,0,1.4-1.229A2.76,2.76,0,0,0,31.3,22.953a6.892,6.892,0,0,0-6.065.9s3.657.122,5.3.937a5.389,5.389,0,0,1,.9.565" transform="translate(-2.296 -2.056)" fill="#181709"/>
          <path id="Trazado_143593" data-name="Trazado 143593" d="M38.321,26.143A.95.95,0,0,1,37.28,24.6a2.754,2.754,0,0,1,1.786-.74c3.573-.247,4.473,2.1,4.473,2.1a12.612,12.612,0,0,0-4.2-.129,5.262,5.262,0,0,0-1.017.315" transform="translate(-3.365 -2.169)" fill="#181709"/>
          <g id="Grupo_162301" data-name="Grupo 162301" transform="translate(21.161 29.757)" opacity="0.5">
            <g id="Grupo_162300" data-name="Grupo 162300">
              <g id="Grupo_162299" data-name="Grupo 162299" clip-path="url(#clip-path-4)">
                <path id="Trazado_143594" data-name="Trazado 143594" d="M29.778,33.971c-.029.585-1.509.984-3.3.893s-3.226-.638-3.2-1.223,1.509-.984,3.3-.893,3.226.638,3.2,1.223" transform="translate(-23.278 -32.735)" fill="#722324"/>
              </g>
            </g>
          </g>
          <path id="Trazado_143595" data-name="Trazado 143595" d="M15.276,36.743l.024,0h0l.1.01c.058.2.129.4.2.608.032.088.065.178.1.266a.151.151,0,0,0,.012.025,4.151,4.151,0,0,0,1.787-.569,3.293,3.293,0,0,0,.986-.932.466.466,0,0,0-.764-.535,2.508,2.508,0,0,1-1.175.894,3.365,3.365,0,0,1-.829.2,4.01,4.01,0,0,1-.44.032" transform="translate(-1.39 -3.222)" fill="#722324"/>
          <path id="Trazado_143596" data-name="Trazado 143596" d="M15.463,33.325a.466.466,0,0,1-.355-.4c-.4-3.283-4.169-4.952-4.206-4.969a.466.466,0,0,1,.368-.856c.175.075,4.3,1.893,4.762,5.712a.465.465,0,0,1-.406.519.486.486,0,0,1-.163-.009" transform="translate(-0.966 -2.462)" fill="#722324"/>
          <path id="Trazado_143597" data-name="Trazado 143597" d="M11.6,31.461a.453.453,0,0,1-.163-.074.466.466,0,0,1-.11-.65,3.2,3.2,0,0,1,2.9-1.194.466.466,0,0,1-.1.926,2.265,2.265,0,0,0-2.041.808.466.466,0,0,1-.487.184" transform="translate(-1.023 -2.686)" fill="#722324"/>
          <path id="Trazado_143598" data-name="Trazado 143598" d="M11.889,41.958c2.539,1.875,5.131,2.864,7.933.406a23.826,23.826,0,0,0-1.986-11.332C15.6,26.654,19.5,21.256,19.5,21.256c-2.484,1.028-5.235,1-6.711,3.905,2.463,2.843.925,10.563-.9,16.8" transform="translate(-1.082 -1.934)" fill="#181709"/>
          <path id="Trazado_143599" data-name="Trazado 143599" d="M12.21,33.979,8.068,45.218S9.4,46.98,13.657,46.555l-.837-12.463Z" transform="translate(-0.734 -3.091)" fill="#fff"/>
        </g>
      </g>
    </g>
  </g>
</svg>
