<svg id="Grupo_995954" data-name="Grupo 995954" xmlns="http://www.w3.org/2000/svg" xmlns:xlink="http://www.w3.org/1999/xlink" width="85" height="85" viewBox="0 0 85 85">
  <defs>
    <clipPath id="clip-path">
      <rect id="Rectángulo_339485" data-name="Rectángulo 339485" width="43.328" height="59.689" fill="none"/>
    </clipPath>
  </defs>
  <g id="Grupo_159043" data-name="Grupo 159043" transform="translate(0 0)">
    <circle id="Elipse_4780" data-name="Elipse 4780" cx="42.5" cy="42.5" r="42.5" transform="translate(0)" fill="#ffe891"/>
  </g>
  <g id="Grupo_984356" data-name="Grupo 984356" transform="translate(20.836 12.543)">
    <g id="Grupo_984356-2" data-name="Grupo 984356" transform="translate(0 0)" clip-path="url(#clip-path)">
      <path id="Trazado_212199" data-name="Trazado 212199" d="M17.483,24.356l-4.05,22.082S20.468,58.592,34.388,49.9l2.9-13.463Z" transform="translate(-11.061 6.657)" fill="#ffa58f"/>
      <path id="Trazado_212200" data-name="Trazado 212200" d="M0,16.52A7.065,7.065,0,1,0,7.066,9.454,7.065,7.065,0,0,0,0,16.52" transform="translate(29.198 2.584)" fill="#2b244a"/>
      <path id="Trazado_212201" data-name="Trazado 212201" d="M1.972,15.427C4.081,3.307,13.507,1.035,24.53,4.44s13.547,8.352,14.532,18.179a206.718,206.718,0,0,1,.858,24.518c-.178,3.136-4.268,9.494-12.646,6.291A43.133,43.133,0,0,1,9.345,40.811c-2.72-3.249-9.48-13.263-7.372-25.383" transform="translate(1.325 0.821)" fill="#ffa58f"/>
      <path id="Trazado_212202" data-name="Trazado 212202" d="M21.631,43.146a20.936,20.936,0,0,1-7.343-6.42.641.641,0,0,1,.229-.871.649.649,0,0,1,.871.228,19.552,19.552,0,0,0,6.886,5.963c.727.379.083,1.48-.643,1.1" transform="translate(2.659 9.776)" fill="#2b244a"/>
      <path id="Trazado_212203" data-name="Trazado 212203" d="M2.2,38.051l.065-.036a2.974,2.974,0,0,1,1.37-.262c2.081,0,3.849.982,5.78,1.583a6.057,6.057,0,0,0,2.07.393c.795-.039,1.157-.618,1.546-1.253a2.467,2.467,0,0,1,4.123-.481,10.217,10.217,0,0,0,.637.87c.712.726,1.552-.037,2.274-.351.432-.188,1.609-.716,1.667.143a7.482,7.482,0,0,1-7.535,7.833,17.2,17.2,0,0,1-7.138-1.872C5.317,43.79,3.2,42.662,2.046,41.052c-.651-.907-.963-2.37.149-3" transform="translate(19.727 10.133)" fill="#2b244a"/>
      <path id="Trazado_212204" data-name="Trazado 212204" d="M1.864,19.29c.691,1.806,2.286.351,4.49.809.164.036.317.059.47.083.9-.457.863-2.783-.387-3.447a7.131,7.131,0,0,0-1.607-.083c-2.684.153-3.47,1.314-2.966,2.638" transform="translate(33.692 4.547)" fill="#2b244a"/>
      <path id="Trazado_212205" data-name="Trazado 212205" d="M16.714,19.287c-.686,1.807-2.291.354-4.495.809-2.026.416-3.379.153-3.355-.913.029-1.289,2-2.689,4.881-2.528,2.693.152,3.47,1.314,2.969,2.632" transform="translate(15.185 4.548)" fill="#2b244a"/>
      <path id="Trazado_212206" data-name="Trazado 212206" d="M10.855,21.882a1.406,1.406,0,0,1,1.118-.753,1.33,1.33,0,0,1,1.2.875,4.607,4.607,0,0,1,.312,1.616,2.932,2.932,0,0,1-.421,1.856,1.234,1.234,0,0,1-2.13-.33,4.077,4.077,0,0,1-.078-3.265" transform="translate(16.403 5.774)" fill="#2b244a"/>
      <path id="Trazado_212207" data-name="Trazado 212207" d="M2.851,21.882a1.406,1.406,0,0,1,1.118-.753,1.33,1.33,0,0,1,1.2.875A4.608,4.608,0,0,1,5.48,23.62a2.933,2.933,0,0,1-.421,1.856,1.234,1.234,0,0,1-2.13-.33,4.077,4.077,0,0,1-.078-3.265" transform="translate(34.598 5.774)" fill="#2b244a"/>
      <path id="Trazado_212208" data-name="Trazado 212208" d="M6.065,33.041C4.879,31,1.508,24.383,1.065,22.06A7.165,7.165,0,0,1,2.8,15.495a7.73,7.73,0,0,0,1.155-1.115c1.015-1.444.053-3.428.25-5.18A4.775,4.775,0,0,1,7.823,5.363a6.731,6.731,0,0,1,2.852-.078,16.52,16.52,0,0,1,8-4.99A5.913,5.913,0,0,1,21.711.137a2.641,2.641,0,0,1,2,2.086A25.742,25.742,0,0,1,37.111,3.8a11.734,11.734,0,0,1,3.8,2.533A8.365,8.365,0,0,1,42.04,7.775a6.113,6.113,0,0,1,.315,6.263,7.019,7.019,0,0,1-5.461,3.111c-1.862.169-7.045-.765-13.25-3.7-2.387-.705-3.915,1.969-4.146,4.082-.306,2.755.809,5.417.856,8.161.034,2.216-.68,4.56-2.967,5.334a5.159,5.159,0,0,1-2.7.129c-.2,2.8-1.008,5.545-3.6,7.069a13.891,13.891,0,0,1-5.406,1.752L6.71,34.382c-.222-.493-.646-1.341-.646-1.341" transform="translate(-0.905 0)" fill="#2b244a"/>
      <path id="Trazado_212209" data-name="Trazado 212209" d="M16.962,25.2a5.917,5.917,0,1,0,6.829-4.836A5.917,5.917,0,0,0,16.962,25.2" transform="translate(-6.874 5.543)" fill="#ffa58f"/>
      <path id="Trazado_212210" data-name="Trazado 212210" d="M11.721,33.156a.567.567,0,0,0-.471-.853,55.244,55.244,0,0,1-6.293-.67.571.571,0,0,0-.57.882c.857,1.343,2.247,2.589,3.68,2.674a4,4,0,0,0,3.654-2.033" transform="translate(26.062 8.643)" fill="#2b244a"/>
      <path id="Trazado_212211" data-name="Trazado 212211" d="M7.061,23.356q.521,1.5,1.044,3.008a15.46,15.46,0,0,1,.938,2.985,2.029,2.029,0,0,1-1.108,2.218,4.309,4.309,0,0,1-1.348.225l-1.615.124c-.817.062-.814-1.211,0-1.273l1.322-.1a4.786,4.786,0,0,0,1.062-.116c.7-.223.4-1.173.233-1.671-.568-1.692-1.171-3.374-1.756-5.06-.27-.775.96-1.109,1.227-.339" transform="translate(28.71 6.264)" fill="#2b244a"/>
      <path id="Trazado_212212" data-name="Trazado 212212" d="M24.728,23.209a2.4,2.4,0,0,0-2.493.894,3.109,3.109,0,0,0-.215,3.106.655.655,0,0,1-.228.871.642.642,0,0,1-.871-.228,4.409,4.409,0,0,1,.256-4.448,3.675,3.675,0,0,1,3.89-1.422.637.637,0,0,1-.339,1.227" transform="translate(-8.217 5.973)" fill="#2b244a"/>
    </g>
  </g>
</svg>
