<svg xmlns="http://www.w3.org/2000/svg" xmlns:xlink="http://www.w3.org/1999/xlink" width="505" height="177.757" viewBox="0 0 505 177.757">
  <defs>
    <clipPath id="clip-path">
      <rect id="Rect치ngulo_339176" data-name="Rect치ngulo 339176" width="295" height="177.757" fill="none"/>
    </clipPath>
  </defs>
  <g id="Grupo_997192" data-name="Grupo 997192" transform="translate(-180 -4189.621)">
    <rect id="Rect치ngulo_338995" data-name="Rect치ngulo 338995" width="505" height="98" rx="17" transform="translate(180 4232)" fill="#fed947"/>
    <g id="Grupo_983878" data-name="Grupo 983878" transform="translate(285 4189.621)">
      <g id="Grupo_983877" data-name="Grupo 983877" clip-path="url(#clip-path)">
        <path id="Trazado_210548" data-name="Trazado 210548" d="M274.276,56.511H129.039L124.807,92.3,118.9,148.09a2.251,2.251,0,0,0,2.235,2.512H125s-1.255,18.374.415,18.374c2.252,0,10.69-18.374,10.69-18.374H263.783a2.25,2.25,0,0,0,2.235-1.988l10.493-89.59a2.249,2.249,0,0,0-2.235-2.512" transform="translate(18.473 8.781)" fill="#ccb16c"/>
        <path id="Trazado_210549" data-name="Trazado 210549" d="M144.9,104.938H2.251a2.25,2.25,0,0,1-2.236-2.512l10.494-89.59a2.25,2.25,0,0,1,2.235-1.988H155.392a2.249,2.249,0,0,1,2.235,2.512l-10.493,89.59a2.25,2.25,0,0,1-2.235,1.988" transform="translate(0 1.686)" fill="#8498d9"/>
        <path id="Trazado_210550" data-name="Trazado 210550" d="M131.454,18.384a3.466,3.466,0,1,1-3.466-3.466,3.466,3.466,0,0,1,3.466,3.466" transform="translate(19.35 2.318)" fill="#fff"/>
        <path id="Trazado_210551" data-name="Trazado 210551" d="M121.454,18.384a3.466,3.466,0,1,1-3.466-3.466,3.466,3.466,0,0,1,3.466,3.466" transform="translate(17.796 2.318)" fill="#fff"/>
        <path id="Trazado_210552" data-name="Trazado 210552" d="M82.792,32.535c3.807-2.143,6.453-6.809,6.453-12.234,0-7.453-6.069-13.559-14.462-16.573C69,1.652,67,12.847,67,20.3a15.435,15.435,0,0,0,2.084,7.845,12.408,12.408,0,0,0-6.924,3.821C56.272,38.807,57,56.878,71.3,58.535c3.956.459,8.032-1.092,11.3-3.367s5.622-6.121,5.348-10.095c-.21-3.049-1.865-5.775-3.265-8.492q-1.023-1.984-1.888-4.046" transform="translate(9.12 0.54)" fill="#2b244a"/>
        <path id="Trazado_210553" data-name="Trazado 210553" d="M75.5,45.068a6.6,6.6,0,1,1,6.6-6.6,6.6,6.6,0,0,1-6.6,6.6m0-12.04a5.442,5.442,0,1,0,5.443,5.443A5.448,5.448,0,0,0,75.5,33.027" transform="translate(10.707 4.953)" fill="#ffc37a"/>
        <path id="Trazado_210554" data-name="Trazado 210554" d="M50.739,18.935c.284,3.589-.128,8.586-7.317,12.951S31.528,37.273,26.669,44.037c-4.783,6.655-5.343,15.1-3.416,25.11,1.857,9.65,20.29,9.214,35.141,4.307S67.3,60.128,67.3,50.885s3.622-17.069-.885-25.865-15.675-6.085-15.675-6.085" transform="translate(3.452 2.881)" fill="#2b244a"/>
        <path id="Trazado_210555" data-name="Trazado 210555" d="M113.3,99.422H2.666C4.433,90.964,6.212,82.934,7.1,79.953a74.941,74.941,0,0,1,4.363-11.947,36.925,36.925,0,0,1,5.792-8.689c8.029-8.873,18.2-11.681,28.074-12.571a142.61,142.61,0,0,1,23.88.243c8.125.635,15.948,1.941,22.738,4.691,6.79,2.784,12.282,7.129,15.683,13.287,3.52,6.424,5.97,29.921,5.666,34.454" transform="translate(0.414 7.201)" fill="#ffc37a"/>
        <path id="Trazado_210556" data-name="Trazado 210556" d="M41.513,44.957q-.262,3.522-.239,7.056a48.054,48.054,0,0,0,.36,6.675,8,8,0,0,0,2.92,5.078,61.751,61.751,0,0,0,5.168,3.906,73.637,73.637,0,0,0,6.5,3.98c.653.356,1.236-.641.582-1a73.586,73.586,0,0,1-6.826-4.208q-1.695-1.18-3.321-2.456A13.6,13.6,0,0,1,43.8,61.312a7.372,7.372,0,0,1-1.131-3.639c-.126-1.363-.178-2.738-.214-4.106a85.622,85.622,0,0,1,.213-8.61c.055-.742-1.1-.738-1.155,0" transform="translate(6.413 6.9)" fill="#2b244a"/>
        <path id="Trazado_210557" data-name="Trazado 210557" d="M69.43,46.712q1.967,3.324,3.679,6.79c.564,1.146,1.122,2.3,1.623,3.475a6.117,6.117,0,0,1,.638,3.816,6.6,6.6,0,0,1-1.8,2.786c-.838.882-1.709,1.734-2.58,2.581Q68.22,68.847,65.324,71.4c-.559.495.261,1.309.817.817,2.129-1.883,4.221-3.814,6.248-5.808,1.574-1.547,3.682-3.247,4.146-5.526.508-2.5-1.021-5.047-2.065-7.217q-1.858-3.854-4.043-7.534a.578.578,0,0,0-1,.583" transform="translate(10.122 7.125)" fill="#2b244a"/>
        <path id="Trazado_210558" data-name="Trazado 210558" d="M64.333,99.594h-1.4c-2.276-9.1-11.173-43.951-16.014-53.067a12.47,12.47,0,0,0-.8-1.294l20.9,2.4a.089.089,0,0,0,.012.035c.289,1.051,6.99,26.2-2.7,51.923" transform="translate(7.167 7.029)" fill="#e0785e"/>
        <path id="Trazado_210559" data-name="Trazado 210559" d="M52.344,25.555l-6.6,24.339s9.956,7.208,21.342.8l1.659-10.86Z" transform="translate(7.108 3.971)" fill="#e0785e"/>
        <path id="Trazado_210560" data-name="Trazado 210560" d="M48.648,10.972c3.34-11.654,12.816-12.891,23.259-8.4s12.4,9.608,12.329,19.341A203.752,203.752,0,0,1,82.5,46.033c-.5,3.055-5.18,8.853-13.054,4.834A42.489,42.489,0,0,1,53.2,36.619c-2.323-3.468-7.9-13.993-4.556-25.647" transform="translate(7.398 0.025)" fill="#e0785e"/>
        <path id="Trazado_210561" data-name="Trazado 210561" d="M73.149,22.573c-.676,1.78-2.258.349-4.43.8-2,.411-3.331.151-3.307-.9.029-1.27,1.975-2.65,4.81-2.491,2.655.15,3.42,1.3,2.927,2.594" transform="translate(10.164 3.103)" fill="#2b244a"/>
        <path id="Trazado_210562" data-name="Trazado 210562" d="M79.7,24.513c-1.932-.73-3.657.188-3.927-1.63-.2-1.369.785-2.333,3.413-1.911.2.034.409.079.6.122a2.4,2.4,0,0,1-.088,3.419" transform="translate(11.77 3.243)" fill="#2b244a"/>
        <path id="Trazado_210563" data-name="Trazado 210563" d="M71.066,24.726a1.389,1.389,0,0,0-1.041-.825,1.314,1.314,0,0,0-1.245.769,4.572,4.572,0,0,0-.43,1.563,2.9,2.9,0,0,0,.275,1.858,1.216,1.216,0,0,0,2.118-.164,4.018,4.018,0,0,0,.324-3.2" transform="translate(10.615 3.713)" fill="#2b244a"/>
        <path id="Trazado_210564" data-name="Trazado 210564" d="M79.306,25.61a1.389,1.389,0,0,0-1.041-.825,1.314,1.314,0,0,0-1.246.769,4.565,4.565,0,0,0-.43,1.563,2.891,2.891,0,0,0,.275,1.857,1.215,1.215,0,0,0,2.117-.163,4.014,4.014,0,0,0,.325-3.2" transform="translate(11.896 3.85)" fill="#2b244a"/>
        <path id="Trazado_210565" data-name="Trazado 210565" d="M73.116,33.606a4.541,4.541,0,0,0,2.292-.443,2.3,2.3,0,0,0,1.059-2.258,29.054,29.054,0,0,0-.537-3.058l-.617-3.261c-.137-.729-1.251-.421-1.114.307q.5,2.664,1.006,5.329c.116.612.305,1.458-.29,1.887a3.118,3.118,0,0,1-1.8.341.578.578,0,0,0,0,1.155" transform="translate(11.275 3.756)" fill="#2b244a"/>
        <path id="Trazado_210566" data-name="Trazado 210566" d="M80.507,5.625A27.732,27.732,0,0,0,66.968.169C62.616-.247,58.379-.126,53.758,3.34c-3.437,2.579-7.413,10.405-4.91,18.476.728,2.347.816,13.375.816,13.375L34.383,54.905c27.657,8.826,24.842-7.239,27.5-20.569,2-10.057,8.888-8.582,13.228-12.507C80,17.41,79.61,9.8,79.61,9.8l5.946,4.21c-.425-3.04-1.447-5.592-5.048-8.389" transform="translate(5.343 0)" fill="#2b244a"/>
        <path id="Trazado_210567" data-name="Trazado 210567" d="M67.8,26.431a6.572,6.572,0,1,1-8.13-4.5,6.572,6.572,0,0,1,8.13,4.5" transform="translate(8.532 3.368)" fill="#e0785e"/>
        <path id="Trazado_210568" data-name="Trazado 210568" d="M55.348,43.8a6.6,6.6,0,1,1,6.6-6.6,6.605,6.605,0,0,1-6.6,6.6m0-12.04A5.442,5.442,0,1,0,60.79,37.2a5.449,5.449,0,0,0-5.442-5.443" transform="translate(7.575 4.755)" fill="#ffc37a"/>
        <path id="Trazado_210569" data-name="Trazado 210569" d="M60.706,40.39a18.23,18.23,0,0,0,1.864,2.029c.7.645,1.458,1.225,2.214,1.8a.581.581,0,0,0,.79-.208.593.593,0,0,0-.208-.79c-.659-.5-1.378-1.066-2.02-1.66a18.143,18.143,0,0,1-1.823-1.991.581.581,0,0,0-.817,0,.592.592,0,0,0,0,.817" transform="translate(9.408 6.123)" fill="#2b244a"/>
        <path id="Trazado_210570" data-name="Trazado 210570" d="M59.451,30.179a2.917,2.917,0,0,1,.434-4.389,3.082,3.082,0,0,1,1.827-.518.578.578,0,0,0,0-1.155,4.071,4.071,0,0,0-4.11,5.011A4.037,4.037,0,0,0,58.633,31c.514.54,1.33-.278.818-.817" transform="translate(8.935 3.748)" fill="#2b244a"/>
        <path id="Trazado_210571" data-name="Trazado 210571" d="M73.029,37.084a4.741,4.741,0,0,1-3.272-2.378.508.508,0,0,1,.507-.785,49.205,49.205,0,0,0,5.594.6.5.5,0,0,1,.418.758,3.558,3.558,0,0,1-3.248,1.808" transform="translate(10.826 5.27)" fill="#fff"/>
        <path id="Trazado_210572" data-name="Trazado 210572" d="M31.573,82.627c-.555,3.715-1.05,7.44-1.413,11.178-.072.739,1.085.735,1.155,0,.354-3.636.833-7.258,1.371-10.871.109-.728-1-1.041-1.114-.307" transform="translate(4.686 12.775)" fill="#2b244a"/>
        <path id="Trazado_210573" data-name="Trazado 210573" d="M79.305,84.523q-.435,4.345-.869,8.69c-.074.739,1.083.735,1.155,0q.435-4.345.869-8.69c.074-.739-1.083-.734-1.155,0" transform="translate(12.188 13.048)" fill="#2b244a"/>
        <path id="Trazado_210574" data-name="Trazado 210574" d="M250.338,64.047a3.466,3.466,0,1,1-3.466-3.466,3.466,3.466,0,0,1,3.466,3.466" transform="translate(37.823 9.414)" fill="#fff"/>
        <path id="Trazado_210575" data-name="Trazado 210575" d="M240.338,64.047a3.466,3.466,0,1,1-3.466-3.466,3.466,3.466,0,0,1,3.466,3.466" transform="translate(36.269 9.414)" fill="#fff"/>
        <path id="Trazado_210576" data-name="Trazado 210576" d="M263.922,121.737l-2.715,23.177a2.226,2.226,0,0,1-2.091,1.976H149.827c.243-1.317,1.826-18.221,2.334-19.63,3.362-9.463,2.75-19.457,7.071-26.25,4.171-6.516,6.851-8.434,14.4-11.646,7.464-3.177,16.672-5.28,25.326-6.644a162.37,162.37,0,0,1,25.292-2.38c10.364,0,20.866,1.93,28.538,10.156a29.13,29.13,0,0,1,5.326,8.238,61.283,61.283,0,0,1,3.5,11.658c.254,1.144,1.259,5.881,2.311,11.346" transform="translate(23.282 12.484)" fill="#ffeae0"/>
        <path id="Trazado_210577" data-name="Trazado 210577" d="M199.68,63.912l3.675,20.037s-6.384,11.028-19.015,3.143l-2.627-12.216Z" transform="translate(28.237 9.931)" fill="#ffa58f"/>
        <path id="Trazado_210578" data-name="Trazado 210578" d="M181.1,55.422a6.411,6.411,0,1,1-6.411-6.411,6.411,6.411,0,0,1,6.411,6.411" transform="translate(26.149 7.616)" fill="#2b244a"/>
        <path id="Trazado_210579" data-name="Trazado 210579" d="M204.359,53.834c-1.913-11-10.467-13.059-20.469-9.97S171.6,51.442,170.7,60.36a187.568,187.568,0,0,0-.779,22.247c.162,2.846,3.873,8.613,11.477,5.709a39.141,39.141,0,0,0,16.268-11.449c2.468-2.949,8.6-12.035,6.69-23.033" transform="translate(26.393 6.614)" fill="#ffa58f"/>
        <path id="Trazado_210580" data-name="Trazado 210580" d="M183.349,82.019a19,19,0,0,0,6.663-5.825.582.582,0,0,0-.208-.79.589.589,0,0,0-.79.207,17.742,17.742,0,0,1-6.248,5.411c-.66.344-.075,1.343.583,1" transform="translate(28.355 11.705)" fill="#2b244a"/>
        <path id="Trazado_210581" data-name="Trazado 210581" d="M187.477,77.517l-.059-.032a2.714,2.714,0,0,0-1.243-.238c-1.888,0-3.493.891-5.244,1.436a5.5,5.5,0,0,1-1.879.357c-.721-.036-1.05-.56-1.4-1.137a2.239,2.239,0,0,0-3.741-.437,9.274,9.274,0,0,1-.578.789c-.645.66-1.408-.032-2.064-.319-.392-.171-1.46-.649-1.512.129a6.789,6.789,0,0,0,6.838,7.108,15.609,15.609,0,0,0,6.477-1.7,11.9,11.9,0,0,0,4.543-3.235c.59-.823.873-2.15-.135-2.723" transform="translate(26.376 11.908)" fill="#2b244a"/>
        <path id="Trazado_210582" data-name="Trazado 210582" d="M175.065,58.6c-.627,1.638-2.074.319-4.074.734-.149.032-.288.053-.426.075-.82-.415-.783-2.526.351-3.128a6.471,6.471,0,0,1,1.458-.075c2.436.139,3.148,1.192,2.691,2.394" transform="translate(26.417 8.732)" fill="#2b244a"/>
        <path id="Trazado_210583" data-name="Trazado 210583" d="M177.274,58.6c.622,1.639,2.077.321,4.077.733,1.838.379,3.066.14,3.044-.827-.027-1.169-1.819-2.441-4.429-2.293-2.444.137-3.148,1.192-2.693,2.388" transform="translate(27.527 8.733)" fill="#2b244a"/>
        <path id="Trazado_210584" data-name="Trazado 210584" d="M181.223,61.369a1.275,1.275,0,0,0-1.014-.683,1.206,1.206,0,0,0-1.088.795,4.169,4.169,0,0,0-.283,1.465,2.661,2.661,0,0,0,.382,1.685,1.12,1.12,0,0,0,1.933-.3,3.7,3.7,0,0,0,.07-2.962" transform="translate(27.789 9.43)" fill="#2b244a"/>
        <path id="Trazado_210585" data-name="Trazado 210585" d="M173.219,61.369a1.275,1.275,0,0,0-1.014-.683,1.206,1.206,0,0,0-1.088.795,4.17,4.17,0,0,0-.283,1.465,2.661,2.661,0,0,0,.382,1.685,1.12,1.12,0,0,0,1.933-.3,3.7,3.7,0,0,0,.07-2.962" transform="translate(26.545 9.43)" fill="#2b244a"/>
        <path id="Trazado_210586" data-name="Trazado 210586" d="M202.773,69.538c1.076-1.857,4.135-7.857,4.537-9.964a6.5,6.5,0,0,0-1.578-5.957,7.07,7.07,0,0,1-1.048-1.012c-.921-1.31-.049-3.11-.226-4.7a4.332,4.332,0,0,0-3.28-3.481,6.089,6.089,0,0,0-2.588-.07,14.99,14.99,0,0,0-7.262-4.528,5.365,5.365,0,0,0-2.752-.143,2.4,2.4,0,0,0-1.817,1.893A23.364,23.364,0,0,0,174.6,43.006a10.67,10.67,0,0,0-3.449,2.3,7.643,7.643,0,0,0-1.023,1.309,5.547,5.547,0,0,0-.285,5.683,6.369,6.369,0,0,0,4.955,2.823c1.689.154,6.393-.694,12.023-3.358,2.166-.64,3.553,1.786,3.762,3.7.277,2.5-.734,4.915-.776,7.4-.031,2.012.617,4.139,2.692,4.841a4.681,4.681,0,0,0,2.446.117c.181,2.543.915,5.032,3.266,6.415a12.6,12.6,0,0,0,4.906,1.59l-.931-5.076c.2-.447.586-1.217.586-1.217" transform="translate(26.29 6.147)" fill="#2b244a"/>
        <path id="Trazado_210587" data-name="Trazado 210587" d="M195.819,64.3a5.369,5.369,0,1,1-6.2-4.388,5.369,5.369,0,0,1,6.2,4.388" transform="translate(28.772 9.298)" fill="#ffa58f"/>
        <path id="Trazado_210588" data-name="Trazado 210588" d="M172.645,72.571a.514.514,0,0,1,.428-.774,50.127,50.127,0,0,0,5.71-.608.518.518,0,0,1,.518.8,4.837,4.837,0,0,1-3.339,2.426,3.632,3.632,0,0,1-3.316-1.845" transform="translate(26.816 11.061)" fill="#2b244a"/>
        <path id="Trazado_210589" data-name="Trazado 210589" d="M174.46,62.872q-.473,1.364-.947,2.729a14.027,14.027,0,0,0-.852,2.708,1.841,1.841,0,0,0,1.005,2.013,3.91,3.91,0,0,0,1.224.2l1.465.112c.742.057.738-1.1,0-1.155l-1.2-.091a4.343,4.343,0,0,1-.964-.105c-.639-.2-.363-1.065-.211-1.516.515-1.536,1.063-3.062,1.593-4.592.245-.7-.871-1.006-1.114-.307" transform="translate(26.827 9.708)" fill="#2b244a"/>
        <path id="Trazado_210590" data-name="Trazado 210590" d="M189.437,62.641a2.175,2.175,0,0,1,2.262.811,2.82,2.82,0,0,1,.2,2.818.594.594,0,0,0,.207.79.582.582,0,0,0,.79-.207,4,4,0,0,0-.232-4.036,3.334,3.334,0,0,0-3.53-1.291.578.578,0,0,0,.307,1.114" transform="translate(29.326 9.543)" fill="#2b244a"/>
        <path id="Trazado_210591" data-name="Trazado 210591" d="M176.98,87.746c3.891,3.492,9.488,5.124,14.635,5.265a22.3,22.3,0,0,0,14.191-4.841,36.293,36.293,0,0,0,6.266-6.756c.451-.592-.552-1.168-1-.582a37.673,37.673,0,0,1-5.3,5.869,21.412,21.412,0,0,1-5.846,3.552,19.889,19.889,0,0,1-7.262,1.607,24.785,24.785,0,0,1-7.749-1.128,18.969,18.969,0,0,1-7.125-3.8c-.552-.5-1.371.319-.817.817" transform="translate(27.472 12.523)" fill="#2b244a"/>
        <path id="Trazado_210592" data-name="Trazado 210592" d="M149.266,106.819s-3.518-9.5-7.948-18.9c-4.074-8.647-10.352-23.111-14.2-21.226-1.293.633-2.243,2.366-1.3,5.072,1.563,4.5,4.214,13.223,4.214,13.223s-7.36-2.427-7.374,5.322c0,0-4.906-.33-3.524,6.894,0,.025.013.047.017.072.5,2.925,2.335,6.98,3.67,9.665.832,1.673,6.392,13.189,6.392,13.189Z" transform="translate(18.474 10.338)" fill="#ffa58f"/>
        <path id="Trazado_210593" data-name="Trazado 210593" d="M148.222,101.4l4.246,10.709-23.631,13.438-3.236-9.041Z" transform="translate(19.517 15.757)" fill="#ffeae0"/>
        <path id="Trazado_210594" data-name="Trazado 210594" d="M137.907,85.885a38.546,38.546,0,0,0-5.749.263c-.923.112-1.846.247-2.758.431a3.873,3.873,0,0,0-1.876.813c-1.1,1-.645,2.485.33,3.373a14.349,14.349,0,0,0,4.389,2.2q3.031,1.234,6.109,2.347c.7.254,1-.862.307-1.114q-2.879-1.043-5.718-2.188c-.976-.4-1.966-.778-2.923-1.218a4.154,4.154,0,0,1-1.792-1.343c-1.106-1.708,2.459-1.945,3.345-2.069a37.845,37.845,0,0,1,6.336-.341.578.578,0,0,0,0-1.155" transform="translate(19.716 13.343)" fill="#2b244a"/>
        <path id="Trazado_210595" data-name="Trazado 210595" d="M134.722,93.658c.076.986.2,2.8-.942,3.263-1.453.594-3.09-1.627-3.948-2.514-2.319-2.4-4.55-4.886-6.909-7.249a.578.578,0,0,0-.817.817c2.787,2.791,5.368,5.785,8.185,8.545,1.14,1.117,2.913,2.334,4.448,1.163,1.195-.91,1.244-2.662,1.138-4.025-.058-.736-1.213-.743-1.155,0" transform="translate(18.948 13.517)" fill="#2b244a"/>
        <path id="Trazado_210596" data-name="Trazado 210596" d="M127.887,83.365q1.478,2.005,2.96,4.01a.6.6,0,0,0,.79.207.58.58,0,0,0,.208-.79l-2.962-4.01a.594.594,0,0,0-.79-.207.582.582,0,0,0-.206.79" transform="translate(19.859 12.819)" fill="#2b244a"/>
        <path id="Trazado_210597" data-name="Trazado 210597" d="M129.983,94.846a4.851,4.851,0,0,1-1.18,2.888c-.981.913-2.4.283-3.321-.393a26.832,26.832,0,0,1-2.283-2.083q-1.534-1.43-3.091-2.836c-.551-.5-1.371.318-.818.817q1.78,1.6,3.526,3.243a12.175,12.175,0,0,0,3.129,2.469,3.233,3.233,0,0,0,3.815-.543,6.478,6.478,0,0,0,1.377-3.562c.1-.735-1.058-.728-1.155,0" transform="translate(18.508 14.337)" fill="#2b244a"/>
        <path id="Trazado_210598" data-name="Trazado 210598" d="M253.382,110.391a61.283,61.283,0,0,0-3.5-11.658,29.13,29.13,0,0,0-5.326-8.238c-7.672-8.226-18.174-10.156-28.538-10.156a124.973,124.973,0,0,0-13.229.751,224.136,224.136,0,0,1,4.726,24.252,224.921,224.921,0,0,1,2.057,34.592c-.046,2.392-.162,6.955-.162,6.955h41.479a2.226,2.226,0,0,0,2.091-1.976l2.715-23.177c-1.051-5.465-2.057-10.2-2.311-11.346" transform="translate(31.511 12.484)" fill="#2b244a"/>
        <path id="Trazado_210599" data-name="Trazado 210599" d="M195.447,127.055a213.667,213.667,0,0,1-6.332-28.538q-1.075-7.019-1.629-14.084c-.6.139-1.19.289-1.779.439s-1.178.3-1.756.462-1.167.324-1.745.5-1.121.335-1.687.52h-.035c-.543.173-1.075.347-1.606.531-1.132.381-2.23.786-3.3,1.213-.531.208-1.051.416-1.56.635-7.545,3.212-10.225,5.13-14.4,11.646-4.321,6.794-6.436,16.9-8.954,29.22-.3,1.467-3.073,15.344-3.316,16.661h54.815c-2.507-6.251-4.81-12.744-6.716-19.2" transform="translate(22.897 13.12)" fill="#2b244a"/>
        <path id="Trazado_210600" data-name="Trazado 210600" d="M152.033,110.668,128.4,124.107l6.576,18.078h29.55Z" transform="translate(19.952 17.197)" fill="#2b244a"/>
        <path id="Trazado_210601" data-name="Trazado 210601" d="M151.328,118.163c2.91,6.358,5.514,12.868,8.273,19.293.488,1.137.965,2.278,1.479,3.4.31.675,1.306.088,1-.583-2.91-6.358-5.514-12.869-8.273-19.293-.488-1.137-.965-2.28-1.48-3.4-.308-.675-1.3-.089-1,.583" transform="translate(23.506 18.224)" fill="#8c75b5"/>
        <path id="Trazado_210602" data-name="Trazado 210602" d="M176.691,86.391c-.742,6.357-1.353,12.731-1.765,19.118-.047.742,1.108.739,1.155,0,.412-6.387,1.024-12.761,1.765-19.118.087-.737-1.07-.731-1.155,0" transform="translate(27.182 13.339)" fill="#8c75b5"/>
        <path id="Trazado_210603" data-name="Trazado 210603" d="M209.168,81.422c2.689,5.924,5.544,11.791,7.713,17.933.246.7,1.362.4,1.114-.307-2.2-6.236-5.1-12.194-7.829-18.209-.307-.676-1.3-.089-1,.583" transform="translate(32.494 12.515)" fill="#8c75b5"/>
        <path id="Trazado_210604" data-name="Trazado 210604" d="M218.848,99.649c-1.349,11.591-3.141,23.144-5.118,34.642-.5,2.909-1.02,5.815-1.579,8.713-.14.727.974,1.039,1.115.307,2.226-11.542,4.016-23.184,5.609-34.829.4-2.942.786-5.884,1.129-8.833.086-.737-1.07-.731-1.155,0" transform="translate(32.964 15.399)" fill="#8c75b5"/>
        <path id="Trazado_210605" data-name="Trazado 210605" d="M174.019,107.212c3.67,9.542,7.7,18.953,11.746,28.341q1.5,3.483,3.027,6.958c.3.678,1.294.091,1-.583Q183.66,128,177.916,113.911c-.946-2.328-1.881-4.661-2.783-7.006-.263-.686-1.382-.388-1.114.307" transform="translate(27.035 16.552)" fill="#8c75b5"/>
        <path id="Trazado_210606" data-name="Trazado 210606" d="M210.527,100.03l6.958-2.7a.594.594,0,0,0,.4-.711.582.582,0,0,0-.711-.4l-6.958,2.7a.594.594,0,0,0-.4.711.582.582,0,0,0,.711.4" transform="translate(32.6 14.946)" fill="#8c75b5"/>
        <path id="Trazado_210607" data-name="Trazado 210607" d="M175.5,103.56c2.315-.107,4.632-.2,6.949-.31.739-.035.744-1.19,0-1.155-2.317.107-4.633.2-6.949.31-.741.035-.744,1.19,0,1.155" transform="translate(27.185 15.865)" fill="#8c75b5"/>
        <path id="Trazado_210608" data-name="Trazado 210608" d="M210.371,99.686l9.415.63c.743.05.739-1.106,0-1.155l-9.415-.63c-.743-.05-.739,1.106,0,1.155" transform="translate(32.603 15.31)" fill="#8c75b5"/>
        <path id="Trazado_210609" data-name="Trazado 210609" d="M222.674,116.341c1.16,6.722,2.6,13.406,4.073,20.065.352,1.587.712,3.174,1.092,4.756.174.722,1.289.416,1.115-.307-1.586-6.582-2.952-13.227-4.246-19.872-.321-1.646-.634-3.3-.92-4.949-.126-.731-1.24-.421-1.114.307" transform="translate(34.6 17.966)" fill="#8c75b5"/>
        <path id="Trazado_210610" data-name="Trazado 210610" d="M170.72,126.691q1.548,6.329,3.1,12.658c.177.722,1.291.416,1.114-.307q-1.548-6.329-3.1-12.658c-.177-.722-1.291-.416-1.114.307" transform="translate(26.525 19.575)" fill="#8c75b5"/>
        <path id="Trazado_210611" data-name="Trazado 210611" d="M174.861,108.245q3.924-2.665,8.022-5.073a.578.578,0,0,0-.583-1q-4.09,2.4-8.022,5.073c-.611.415-.033,1.417.583,1" transform="translate(27.041 15.864)" fill="#8c75b5"/>
      </g>
    </g>
  </g>
</svg>
