<svg id="Grupo_984575" data-name="Grupo 984575" xmlns="http://www.w3.org/2000/svg" xmlns:xlink="http://www.w3.org/1999/xlink" width="83" height="83" viewBox="0 0 83 83">
  <defs>
    <clipPath id="clip-path">
      <rect id="Rectángulo_42766" data-name="Rectángulo 42766" width="53.743" height="57.178" fill="none"/>
    </clipPath>
  </defs>
  <circle id="Elipse_4780" data-name="Elipse 4780" cx="41.5" cy="41.5" r="41.5" fill="#c4d1ff"/>
  <g id="Grupo_169822" data-name="Grupo 169822" transform="translate(18.863 12.911)">
    <g id="Grupo_169822-2" data-name="Grupo 169822" transform="translate(0 0)" clip-path="url(#clip-path)">
      <path id="Trazado_162705" data-name="Trazado 162705" d="M7.515,14.554c-.465-.651-1.552-.026-1.082.632.185.26.373.524.559.789A8.428,8.428,0,0,0,.974,24.286c0,.539.092,1.07.107,1.605A4.689,4.689,0,0,1,.56,28.012,6.622,6.622,0,0,0,0,30.4a5.03,5.03,0,0,0,2.452,4.1c4.126,2.462,6.895-3.061,8.109-6.148,2.08-5.285.06-9.448-3.048-13.8" transform="translate(0 -3.78)" fill="#e6401a"/>
      <path id="Trazado_162706" data-name="Trazado 162706" d="M39.822,41.134c-1.617,6.92-4.25,13.877-10.655,17.613C24.779,61.3,19.35,61.841,14.21,61.277A14.7,14.7,0,0,1,5.45,57.4C1.373,53.459.346,46.93,1.275,41.523c.075-.439.151-.878.238-1.317.238-1.354.5-2.695.79-4.036A79.946,79.946,0,0,1,5.7,24.436c.677-1.78,1.367-3.56,2.119-5.3.226-.5.714-2.282,1.3-2.507,2.983-1.09,25.71-.076,29.408,6.556,3,5.391,2.632,12.135,1.291,17.952" transform="translate(-0.253 -4.302)" fill="#ff9d87"/>
      <path id="Trazado_162707" data-name="Trazado 162707" d="M9.352,41.361a5.7,5.7,0,0,1,.743-1.515,2.112,2.112,0,0,1,.844-.779c1.924-.837.947,2.791.476,3.526a2.156,2.156,0,0,1-.82.81,1.042,1.042,0,0,1-1.1-.073,1.448,1.448,0,0,1-.285-1.43q.058-.272.143-.538" transform="translate(-2.422 -10.309)" fill="#301c15"/>
      <path id="Trazado_162708" data-name="Trazado 162708" d="M27.867,42.9a5.992,5.992,0,0,1,.782-1.593,2.218,2.218,0,0,1,.887-.821c2.024-.879,1,2.937.5,3.709a2.274,2.274,0,0,1-.862.852,1.1,1.1,0,0,1-1.159-.077,1.522,1.522,0,0,1-.3-1.5q.062-.287.15-.566" transform="translate(-7.321 -10.683)" fill="#301c15"/>
      <path id="Trazado_162709" data-name="Trazado 162709" d="M14.076,43.828a10.669,10.669,0,0,0-2.762,4.182A5.708,5.708,0,0,0,12,52.246c.357.723,1.439.088,1.082-.633-1.4-2.826-.064-4.786,1.879-6.9.546-.593-.338-1.482-.886-.886" transform="translate(-2.95 -11.551)" fill="#e6684b"/>
      <path id="Trazado_162710" data-name="Trazado 162710" d="M27.87,34.428a1.232,1.232,0,0,0,.143,1.2,2.271,2.271,0,0,0,1.69.515,15.865,15.865,0,0,1,3.384.735c.572.167,1.285.3,1.684-.146a1.232,1.232,0,0,0,.014-1.394A3.835,3.835,0,0,0,33.329,34c-1.1-.651-3.043-1.323-4.349-.761a2.021,2.021,0,0,0-1.11,1.194" transform="translate(-7.354 -8.742)" fill="#301c15"/>
      <path id="Trazado_162711" data-name="Trazado 162711" d="M13.871,31.308c-1.105-.894-3.16-.773-4.392-.441a3.829,3.829,0,0,0-1.766.9,1.233,1.233,0,0,0-.363,1.346c.266.533.987.6,1.583.595a15.884,15.884,0,0,1,3.457.207,2.271,2.271,0,0,0,1.766-.04,1.233,1.233,0,0,0,.462-1.12,2.022,2.022,0,0,0-.747-1.449" transform="translate(-1.923 -8.106)" fill="#301c15"/>
      <path id="Trazado_162712" data-name="Trazado 162712" d="M8.718,57.046a50.623,50.623,0,0,0,6.216.418,21.7,21.7,0,0,0,4.074-.209s-.836,2.507-5.145,3.238a4.354,4.354,0,0,1-5.145-3.447" transform="translate(-2.308 -15.102)" fill="#fff"/>
      <path id="Trazado_162713" data-name="Trazado 162713" d="M46.763,15.159a9.665,9.665,0,0,0-1.675-7.691A10.155,10.155,0,0,0,33.368,4.39s-5.145-8.148-13.177-2.24c-2.59-1.075-5.352-1.6-8-.166-1.5.815-2.276,2.093-3.509,3.2C7.367,6.359,6.35,5.615,4.837,6.267c-2.773,1.193-3.21,4.324-2.018,6.853.8,1.7,1.948,2,3.152,1.605a6.1,6.1,0,0,0,4.337,2.321,10.477,10.477,0,0,0,4.717-.64,4.571,4.571,0,0,0,1.033,1.463c1.782,1.651,3.813.933,5.937.785,3.093-.216,4.74,2.493,7.72,3.033a7.1,7.1,0,0,0,2.056.058,19.778,19.778,0,0,0,.222,5.2,14.886,14.886,0,0,0,.9,3.189c.412.951,1.577,2.321,1.724,3.3.381,2.526-.868,6.067-1,8.656a26.49,26.49,0,0,0,.76,8.029.632.632,0,0,0,1.048.276,72.937,72.937,0,0,0,7.945-11.218,8.328,8.328,0,0,0,6.186-2.768,7.748,7.748,0,0,0,1.287-5.865.34.34,0,0,0,.245.036A3.237,3.237,0,0,0,53.06,29.3c3.74-5-1.553-10.586-6.3-14.141" transform="translate(-0.581 0)" fill="#e64006"/>
      <path id="Trazado_162714" data-name="Trazado 162714" d="M47.1,43.929c-2.449-1.1-4.879,1.054-6.1,3.306a.592.592,0,0,0-.3.24c-1.368,2.143-3.5,7.441-.885,9.488,2.931,2.293,6.631-1.809,7.736-4.156,1-2.112,2.569-7.52-.446-8.878" transform="translate(-10.21 -11.551)" fill="#ff9d87"/>
      <path id="Trazado_162715" data-name="Trazado 162715" d="M53.171,22.475c-1.31.6-.99.793-2.379.413a5.68,5.68,0,0,0-2.2-.314,4.926,4.926,0,0,0-3.832,2.642.627.627,0,0,0,1.082.632,3.637,3.637,0,0,1,5.626-1.091.633.633,0,0,0,.76-.1c2.126-1.956,6.256-1.889,6.023,1.844-.05.805,1.2.8,1.254,0,.218-3.481-3.291-5.412-6.331-4.029" transform="translate(-11.825 -5.831)" fill="#a31e00"/>
      <path id="Trazado_162716" data-name="Trazado 162716" d="M59.927,39.044a8,8,0,0,1-8.239-7.289c-.079-.795-1.334-.8-1.253,0A9.275,9.275,0,0,0,59.927,40.3a.627.627,0,0,0,0-1.254" transform="translate(-13.351 -8.248)" fill="#a31e00"/>
      <path id="Trazado_162717" data-name="Trazado 162717" d="M35.136,17.89c-2.075,2.373-5.262,1.82-7.151-.468-.479-.579-.839-1.521-1.562-1.885a3.541,3.541,0,0,0-1.3-.159c-2.286-.188-4.7.4-6.074-1.912a7.785,7.785,0,0,1-1.1-2.989c-.15-.792-1.359-.457-1.209.333.39,2.052,1.105,4.16,2.951,5.362a4.859,4.859,0,0,0,2.679.776c1.9.032,3.007-.176,4.532,1.2,2.764,2.5,6.179,3.984,9.117.625.529-.605-.354-1.5-.887-.887" transform="translate(-4.429 -2.654)" fill="#a31e00"/>
      <path id="Trazado_162718" data-name="Trazado 162718" d="M25.644,11.687A4.559,4.559,0,0,1,22.223,6.51c.1-.8-1.153-.79-1.254,0A5.784,5.784,0,0,0,25.311,12.9a.627.627,0,0,0,.333-1.209" transform="translate(-5.538 -1.566)" fill="#a31e00"/>
      <path id="Trazado_162719" data-name="Trazado 162719" d="M34.265,50.125A1.958,1.958,0,0,0,34,49.569a3.588,3.588,0,0,0-1.905-1.236c-1.681-.54-5.79-.074-4,2.525a3.539,3.539,0,0,0,2.186,1.3,6.694,6.694,0,0,0,2.318.11,2.245,2.245,0,0,0,1.367-.563,1.607,1.607,0,0,0,.3-1.578" transform="translate(-7.32 -12.742)" fill="#f2856d"/>
      <path id="Trazado_162720" data-name="Trazado 162720" d="M5.336,45.284a2.225,2.225,0,0,0-.263-.551,3.706,3.706,0,0,0-1.905-1.241,4.122,4.122,0,0,0-.665-.151c-.288,1.342-.551,2.683-.79,4.037a5.992,5.992,0,0,0,1.955.05,2.231,2.231,0,0,0,1.367-.564,1.618,1.618,0,0,0,.3-1.579" transform="translate(-0.453 -11.474)" fill="#f2856d"/>
      <path id="Trazado_162721" data-name="Trazado 162721" d="M46.351,49.693c-.142-.793-1.35-.457-1.209.333a4.885,4.885,0,0,1-.568,3.281c-.393.705.689,1.338,1.082.632a6.271,6.271,0,0,0,.695-4.246" transform="translate(-11.778 -13.036)" fill="#e6684b"/>
    </g>
  </g>
</svg>
