<svg xmlns="http://www.w3.org/2000/svg" width="85" height="85" viewBox="0 0 85 85">
  <g id="Grupo_995958" data-name="Grupo 995958" transform="translate(-915 -7156)">
    <g id="Grupo_995955" data-name="Grupo 995955" transform="translate(915 7156)">
      <circle id="Elipse_4780" data-name="Elipse 4780" cx="42.5" cy="42.5" r="42.5" transform="translate(0 0)" fill="#ffe891"/>
      <g id="Grupo_984354" data-name="Grupo 984354" transform="translate(16.056 16.055)">
        <g id="Grupo_984355" data-name="Grupo 984355" transform="translate(0 0)">
          <path id="Trazado_212183" data-name="Trazado 212183" d="M41.751,27.23c-3.112-1.752-5.275-5.566-5.275-10,0-6.092,4.96-11.082,11.822-13.547,4.726-1.7,6.362,7.455,6.362,13.547a12.617,12.617,0,0,1-1.7,6.413,10.143,10.143,0,0,1,5.66,3.123c4.812,5.592,4.22,20.364-7.468,21.718a13.884,13.884,0,0,1-9.238-2.752,9.66,9.66,0,0,1-4.372-8.252c.172-2.492,1.524-4.72,2.669-6.942q.836-1.622,1.543-3.307" transform="translate(-36.477 -0.193)" fill="#2b244a"/>
          <path id="Trazado_212184" data-name="Trazado 212184" d="M52.082,42.659a5.393,5.393,0,1,0-5.394-5.393,5.4,5.4,0,0,0,5.394,5.393m0-9.842a4.449,4.449,0,1,1-4.449,4.449,4.454,4.454,0,0,1,4.449-4.449" transform="translate(-42.145 -1.77)" fill="#ffc37a"/>
          <path id="Trazado_212185" data-name="Trazado 212185" d="M14.662,18.863c-.232,2.933.1,7.018,5.981,10.586s9.722,4.4,13.694,9.933c3.91,5.44-5.15-2.584-6.724,5.6-2.87,1.74,3.862,7.109-8.277,3.1s-18.211,4.457-18.211-3.1-2.961-13.953.723-21.143,12.813-4.974,12.813-4.974" transform="translate(21.448 -1.03)" fill="#2b244a"/>
          <path id="Trazado_212186" data-name="Trazado 212186" d="M36.933,25.554l5.395,19.9a16.81,16.81,0,0,1-17.446.654l-1.356-8.877Z" transform="translate(-5.124 -1.419)" fill="#e0785e"/>
          <path id="Trazado_212187" data-name="Trazado 212187" d="M54.483,9C51.753-.529,44.007-1.54,35.47,2.135S25.337,9.989,25.392,17.945a166.819,166.819,0,0,0,1.419,19.712c.413,2.5,4.235,7.236,10.671,3.952A34.732,34.732,0,0,0,50.759,29.962c1.9-2.835,6.454-11.438,3.724-20.965" transform="translate(-19.89 -0.009)" fill="#e0785e"/>
          <path id="Trazado_212188" data-name="Trazado 212188" d="M43.31,22.1c.552,1.455,1.845.285,3.621.651,1.632.336,2.723.124,2.7-.735-.024-1.038-1.614-2.167-3.932-2.036-2.169.123-2.8,1.059-2.392,2.12" transform="translate(-31.005 -1.109)" fill="#2b244a"/>
          <path id="Trazado_212189" data-name="Trazado 212189" d="M54.151,23.848c1.579-.6,2.99.154,3.21-1.333.164-1.119-.641-1.907-2.789-1.562-.168.027-.335.064-.493.1a1.959,1.959,0,0,0,.072,2.795" transform="translate(-48.513 -1.159)" fill="#2b244a"/>
          <path id="Trazado_212190" data-name="Trazado 212190" d="M46.257,24.573a1.136,1.136,0,0,1,.851-.674,1.073,1.073,0,0,1,1.018.629,3.732,3.732,0,0,1,.351,1.278,2.364,2.364,0,0,1-.225,1.518.993.993,0,0,1-1.73-.133,3.281,3.281,0,0,1-.265-2.617" transform="translate(-32.618 -1.327)" fill="#2b244a"/>
          <path id="Trazado_212191" data-name="Trazado 212191" d="M54.5,25.458a1.136,1.136,0,0,1,.851-.674,1.074,1.074,0,0,1,1.018.629,3.738,3.738,0,0,1,.351,1.278,2.367,2.367,0,0,1-.225,1.519.993.993,0,0,1-1.73-.134,3.281,3.281,0,0,1-.265-2.617" transform="translate(-48.642 -1.376)" fill="#2b244a"/>
          <path id="Trazado_212192" data-name="Trazado 212192" d="M53.089,31.882a3.712,3.712,0,0,1-1.874-.362,1.877,1.877,0,0,1-.866-1.845,23.748,23.748,0,0,1,.439-2.5l.5-2.665c.112-.6,1.023-.344.91.251q-.412,2.177-.823,4.356c-.094.5-.249,1.192.237,1.542a2.549,2.549,0,0,0,1.471.279.473.473,0,0,1,0,.944" transform="translate(-41.666 -1.342)" fill="#2b244a"/>
          <path id="Trazado_212193" data-name="Trazado 212193" d="M16.292,4.6A22.669,22.669,0,0,1,27.359.137C30.917-.2,34.38-.1,38.158,2.729c2.81,2.108,6.06,8.506,4.014,15.1-.6,1.918-.667,10.933-.667,10.933L54,44.88c-22.607,7.215-20.306-5.917-22.478-16.814-1.637-8.22-7.266-7.015-10.813-10.224-3.994-3.612-3.679-9.829-3.679-9.829l-4.86,3.442A9.512,9.512,0,0,1,16.292,4.6" transform="translate(-6.062 0)" fill="#2b244a"/>
          <path id="Trazado_212194" data-name="Trazado 212194" d="M32.9,25.562a5.372,5.372,0,1,0,6.646-3.681A5.372,5.372,0,0,0,32.9,25.562" transform="translate(-14.886 -1.204)" fill="#e0785e"/>
          <path id="Trazado_212195" data-name="Trazado 212195" d="M31.926,41.389A5.393,5.393,0,1,0,26.533,36a5.4,5.4,0,0,0,5.393,5.393m0-9.842A4.449,4.449,0,1,1,27.477,36a4.454,4.454,0,0,1,4.448-4.449" transform="translate(-2.955 -1.7)" fill="#ffc37a"/>
          <path id="Trazado_212196" data-name="Trazado 212196" d="M42.368,40.21a14.9,14.9,0,0,1-1.523,1.658c-.572.527-1.192,1-1.81,1.474a.475.475,0,0,1-.646-.17.485.485,0,0,1,.17-.646c.538-.413,1.127-.872,1.651-1.357a14.83,14.83,0,0,0,1.49-1.627.475.475,0,0,1,.668,0,.483.483,0,0,1,0,.668" transform="translate(-19.275 -2.189)" fill="#2b244a"/>
          <path id="Trazado_212197" data-name="Trazado 212197" d="M37.587,29.072a2.385,2.385,0,0,0-.356-3.588,2.521,2.521,0,0,0-1.493-.423.473.473,0,0,1,0-.944,3.328,3.328,0,0,1,3.359,4.1,3.3,3.3,0,0,1-.842,1.527c-.42.441-1.087-.228-.668-.668" transform="translate(-13.079 -1.339)" fill="#2b244a"/>
          <path id="Trazado_212198" data-name="Trazado 212198" d="M50.17,36.506a3.875,3.875,0,0,0,2.675-1.944.415.415,0,0,0-.415-.641,40.22,40.22,0,0,1-4.573.487.412.412,0,0,0-.343.62,2.911,2.911,0,0,0,2.656,1.478" transform="translate(-38.308 -1.884)" fill="#fff"/>
        </g>
      </g>
    </g>
  </g>
</svg>
