<svg xmlns="http://www.w3.org/2000/svg" xmlns:xlink="http://www.w3.org/1999/xlink" width="820" height="221" viewBox="0 0 820 221">
  <defs>
    <clipPath id="clip-path">
      <rect id="Rectángulo_339579" data-name="Rectángulo 339579" width="453" height="221" transform="translate(82.663 24.063)" fill="#fff" stroke="#707070" stroke-width="1"/>
    </clipPath>
  </defs>
  <g id="Grupo_984234" data-name="Grupo 984234" transform="translate(107.337 -24.063)">
    <path id="Rectángulo_338258" data-name="Rectángulo 338258" d="M61,0H759a61,61,0,0,1,61,61v61a0,0,0,0,1,0,0H0a0,0,0,0,1,0,0V61A61,61,0,0,1,61,0Z" transform="translate(-107.337 123)" fill="#3c3fa7"/>
    <g id="Enmascarar_grupo_612" data-name="Enmascarar grupo 612" transform="translate(-4)" clip-path="url(#clip-path)">
      <g id="Grupo_997533" data-name="Grupo 997533" transform="translate(-357.506 -705.126)">
        <g id="Grupo_997528" data-name="Grupo 997528" transform="translate(463.142 747.134)">
          <path id="Trazado_219716" data-name="Trazado 219716" d="M646.51,1022.744c-6.412,5.86-13.671,10.72-20.507,16.08-11.486,9.007-23.127,18.107-36.479,24s-28.817,8.342-42.618,3.591a51.19,51.19,0,0,1-17.119-10.236c-19.488-17.266-25.793-47.768-14.747-71.345,11.843-25.28,39.744-40.148,51.546-65.448,5.519-11.832,11.011-24.42,22.1-32.687,7.9-5.895,22.316-8.7,32.2-6.88,19.075,3.518,27.508,26.139,31.774,42.591C652.655,922.414,669.858,1001.406,646.51,1022.744Z" transform="translate(-505.416 -879.272)" fill="#141726"/>
          <path id="Trazado_219717" data-name="Trazado 219717" d="M509.483,1633.161l-.04,0a58.549,58.549,0,0,1-20.448-7.66,52.632,52.632,0,0,1-15.427-14.009,56.144,56.144,0,0,1-9.89-24.72c-1.586-10.11.356-20.9,5.771-32.08,4.323-8.922,10.857-18.108,19.422-27.3a191.267,191.267,0,0,1,30.349-26.136.317.317,0,0,1,.349.529,190.563,190.563,0,0,0-30.243,26.049c-13.373,14.359-28.569,36.224-25.022,58.844,3.316,21.144,15.424,32.483,25,38.272a57.89,57.89,0,0,0,20.222,7.587.317.317,0,0,1-.039.631Z" transform="translate(-463.142 -1444.913)" fill="#141726"/>
          <path id="Trazado_219718" data-name="Trazado 219718" d="M1431.013,1829.241c-11.283-6.893-13.581-13.477-14.307-17.956-.166-1.017-.25-1.926-.339-2.7a12.228,12.228,0,0,1,.068-3.973l-18.97-4.319s-.058,3.088-.246,5.776a28.91,28.91,0,0,1-.326,3c-.782,4.164-.716,12.3-14.559,20.761Z" transform="translate(-1299.147 -1716.936)" fill="#f4a88a"/>
          <path id="Trazado_219719" data-name="Trazado 219719" d="M1546.807,1806.064c5.658,3.846,13.943,9.264,15.5,9.109,1.231-.124,2.776-2.044,3.991-3.888-.166-1.017-.25-1.926-.339-2.7a12.223,12.223,0,0,1,.068-3.973l-18.97-4.319S1547,1803.376,1546.807,1806.064Z" transform="translate(-1448.736 -1716.936)" fill="#dc7657"/>
          <path id="Trazado_219720" data-name="Trazado 219720" d="M1355.333,1077.268c.16-.012.32-.022.479-.032s.319-.027.479-.038c17.183-1.254,31.508,11.531,32.9,28.941,2.213,27.65-21.555,41.466-26.936,44.227a2.828,2.828,0,0,1-2.2.161c-5.725-1.951-31.246-12.171-33.07-39.849C1325.833,1093.251,1338.15,1078.522,1355.333,1077.268Z" transform="translate(-1248.737 -1059.209)" fill="#f4a88a"/>
          <path id="Trazado_219721" data-name="Trazado 219721" d="M1477.133,1342.477c.5,1.3-2.815,1.6-6.3,2.94s-5.824,3.23-6.327,1.925,1.917-3.451,5.405-4.794S1476.631,1341.173,1477.133,1342.477Z" transform="translate(-1373.82 -1299.686)" fill="#141726"/>
          <path id="Trazado_219722" data-name="Trazado 219722" d="M1791.917,1324.442c-.308,1.363,3.017,1.171,6.663,1.994s6.231,2.35,6.539.987-2.4-3.136-6.044-3.959S1792.225,1323.078,1791.917,1324.442Z" transform="translate(-1671.645 -1282.886)" fill="#141726"/>
          <path id="Trazado_219723" data-name="Trazado 219723" d="M1673.289,1676.2c4.43-2.613-6.516,13.9-11.981,1.033a.2.2,0,0,1,.224-.27C1663.107,1677.323,1669.336,1678.532,1673.289,1676.2Z" transform="translate(-1552.859 -1603.818)" fill="#fff"/>
          <path id="Trazado_219724" data-name="Trazado 219724" d="M1481.277,1556.887c.408-1.788,2.582-2.175,4.161-2.325,2.621-.249,4.232.447,4.535,3.357.388,3.735-3.277,4.34-6.04,2.947-1.381-.7-2.951-2.072-2.692-3.79Q1481.257,1556.979,1481.277,1556.887Z" transform="translate(-1389.078 -1493.406)" fill="#ef847d"/>
          <path id="Trazado_219725" data-name="Trazado 219725" d="M1876.588,1529.362c-.663-1.71-2.87-1.777-4.455-1.7-2.629.134-4.122,1.057-4,3.979.158,3.752,3.873,3.818,6.4,2.039,1.265-.89,2.619-2.479,2.113-4.141Q1876.622,1529.449,1876.588,1529.362Z" transform="translate(-1740.976 -1468.966)" fill="#ef847d"/>
          <path id="Trazado_219726" data-name="Trazado 219726" d="M1502.306,1437.668c.25.319.666-.139.464-.511-1.327-2.435-3.245-4.918-5.512-4.8-2.243.117-4.22,2.926-5.62,5.651-.206.4.2.8.455.448C1494.44,1435.212,1498.152,1432.353,1502.306,1437.668Z" transform="translate(-1398.507 -1382.3)" fill="#141726"/>
          <ellipse id="Elipse_4941" data-name="Elipse 4941" cx="2.838" cy="3.132" rx="2.838" ry="3.132" transform="matrix(0.997, -0.073, 0.073, 0.997, 97.12, 51.707)" fill="#141726"/>
          <path id="Trazado_219727" data-name="Trazado 219727" d="M1801.347,1416.441c-.2.352-.679-.041-.533-.438.96-2.6,2.5-5.337,4.757-5.549,2.236-.209,4.6,2.283,6.381,4.775.262.366-.081.821-.385.509C1808.773,1412.869,1804.685,1410.578,1801.347,1416.441Z" transform="translate(-1679.731 -1362.371)" fill="#141726"/>
          <ellipse id="Elipse_4942" data-name="Elipse 4942" cx="2.838" cy="3.132" rx="2.838" ry="3.132" transform="translate(124.351 49.722) rotate(-4.173)" fill="#141726"/>
          <path id="Trazado_219728" data-name="Trazado 219728" d="M1707.084,1418.379s.65,12.486,2.835,15.008-3.351,3.31-5.533,2.094c0,0,4.412.488,4.142-1.54A63.494,63.494,0,0,1,1707.084,1418.379Z" transform="translate(-1592.053 -1369.59)" fill="#dc7657"/>
          <path id="Trazado_219729" data-name="Trazado 219729" d="M1312.662,1068.753s40.092-18.281,43.44-32.4l19.276,25.973s2.082-31.946-30.317-34.028S1306.961,1054.906,1312.662,1068.753Z" transform="translate(-1234.012 -1014.715)" fill="#141726"/>
          <ellipse id="Elipse_4943" data-name="Elipse 4943" cx="4.921" cy="7.831" rx="4.921" ry="7.831" transform="translate(70.488 53.155) rotate(-22.222)" fill="#f4a88a"/>
          <ellipse id="Elipse_4944" data-name="Elipse 4944" cx="7.831" cy="4.921" rx="7.831" ry="4.921" transform="translate(135.275 59.125) rotate(-78.644)" fill="#f4a88a"/>
          <path id="Trazado_219730" data-name="Trazado 219730" d="M748.6,2059.365a101.211,101.211,0,0,1,30.071-36c6.827-5.07,14.839-9.677,23.356-11.882,5.03-1.3,22.462-4.331,36.182-.163,14.06,4.271,26.01,15.185,33.544,29.224,2.8,5.21,10.5,24.573,16.869,42.583a69.813,69.813,0,0,1-5.554,58.532h0s-45.887,5.476-94.666,2.218c0,0-44.616,3.439-49.232-8.326C728.665,2108.787,738.606,2079.318,748.6,2059.365Z" transform="translate(-710.109 -1906.939)" fill="#d3e487"/>
          <path id="Trazado_219731" data-name="Trazado 219731" d="M1129.759,2931.8s-30.072-2.525-29.982-25.422c0,0-8.688,38.915,29.865,36.562S1129.759,2931.8,1129.759,2931.8Z" transform="translate(-1041.4 -2722.926)" fill="#aec25b"/>
          <path id="Trazado_219732" data-name="Trazado 219732" d="M2006.476,2776.263a.272.272,0,0,1-.162-.49c3.662-2.723,6.793-7.829,9.306-15.177a118.9,118.9,0,0,0,4.826-21.844,235.309,235.309,0,0,0,2.049-28.1.272.272,0,0,1,.271-.271h0a.271.271,0,0,1,.271.272,235.957,235.957,0,0,1-2.054,28.177,119.467,119.467,0,0,1-4.85,21.946c-2.549,7.454-5.744,12.647-9.5,15.436A.269.269,0,0,1,2006.476,2776.263Z" transform="translate(-1866.558 -2544.664)" fill="#141726"/>
          <path id="Trazado_219733" data-name="Trazado 219733" d="M1127.006,2737c-11.7,0-20.009-3.473-24.725-10.343-2.6-3.781-4.1-8.612-4.481-14.359a59.762,59.762,0,0,1,1.223-15.373,94.255,94.255,0,0,1,5.243-17.283.272.272,0,1,1,.5.218,93.7,93.7,0,0,0-5.21,17.182c-1.73,8.74-2.584,20.919,3.176,29.31,4.969,7.239,14.069,10.618,27.045,10.044a.272.272,0,0,1,.024.543Q1128.372,2737,1127.006,2737Z" transform="translate(-1040.276 -2516.559)" fill="#141726"/>
          <path id="Trazado_219734" data-name="Trazado 219734" d="M1743.714,1314.343c-7.173,0-13.009-6.272-13.009-13.982s5.836-13.982,13.009-13.982,13.009,6.272,13.009,13.982S1750.888,1314.343,1743.714,1314.343Zm0-25.7c-5.926,0-10.747,5.257-10.747,11.72s4.821,11.72,10.747,11.72,10.747-5.257,10.747-11.72S1749.64,1288.641,1743.714,1288.641Z" transform="translate(-1615.991 -1249.535)" fill="#fff"/>
          <path id="Trazado_219735" data-name="Trazado 219735" d="M1409.714,1338.343c-7.173,0-13.009-6.272-13.009-13.982s5.836-13.982,13.009-13.982,13.009,6.272,13.009,13.982S1416.888,1338.343,1409.714,1338.343Zm0-25.7c-5.926,0-10.747,5.257-10.747,11.72s4.821,11.72,10.747,11.72,10.747-5.257,10.747-11.72S1415.64,1312.641,1409.714,1312.641Z" transform="translate(-1312.218 -1271.363)" fill="#fff"/>
          <path id="Trazado_219736" data-name="Trazado 219736" d="M1660.336,1451.427a1.131,1.131,0,0,1-.054-2.261l6.637-.32a1.131,1.131,0,0,1,.109,2.26l-6.637.32Z" transform="translate(-1550.962 -1397.299)" fill="#fff"/>
          <path id="Trazado_219737" data-name="Trazado 219737" d="M1354.326,1451.793a1.125,1.125,0,0,1-.574-.157l-4.493-2.654a1.131,1.131,0,1,1,1.151-1.948l4.493,2.654a1.131,1.131,0,0,1-.576,2.105Z" transform="translate(-1268.56 -1395.508)" fill="#fff"/>
        </g>
        <g id="Grupo_997529" data-name="Grupo 997529" transform="translate(589.67 733.985)">
          <path id="Trazado_219738" data-name="Trazado 219738" d="M3698.764,807.236a4.447,4.447,0,0,1-2.488-1.8,3.9,3.9,0,0,1-.357-2.6c.247-1.666.973-3.266.909-4.976a7.309,7.309,0,0,0-2.619-4.8,22.179,22.179,0,0,0-4.687-3.527c-1.745-.927-3.993-1.543-4.735-3.635-.632-1.784.76-3.461,1.309-5.071a22.608,22.608,0,0,0,1.138-5.7,8.544,8.544,0,0,0-.751-4.754,6.205,6.205,0,0,0-2.445-2.367c-2.255-1.268-4.884-1.562-7.229-2.6a7.2,7.2,0,0,1-3-2.264,8.47,8.47,0,0,1-1.228-5.229c.014-2.031-.149-4-1.7-5.462a7.372,7.372,0,0,0-4.3-1.748,41.952,41.952,0,0,0-4.983-.074,7.523,7.523,0,0,1-4.506-.953c-1.577-2.927-1.523-5.868-7.065-6.3-1.588-.122-3.432,1.141-4.872.731-2.925-.833-2.992-4.856-6.309-5.586-2.651-.584-7.012-.38-7.627,2.814a2.8,2.8,0,0,1-.039-1.31,4.63,4.63,0,0,1,1.63-2.468,7.6,7.6,0,0,1,7.7-1.155,15.67,15.67,0,0,1,3.085,1.938c.339.251.689.511,1.04.757a8.252,8.252,0,0,0,4.791,1.794,3.8,3.8,0,0,0,3.763-3.311,3.511,3.511,0,0,0-2-3.2,4.558,4.558,0,0,0-3.707-.014,2.056,2.056,0,0,0-.981.721,1.757,1.757,0,0,0,.22,2.029,3.346,3.346,0,0,0,1.633.953,1.939,1.939,0,0,0,1.148.066,1.01,1.01,0,0,0,.71-1.159.339.339,0,0,0-.413-.249.344.344,0,0,0-.241.42c.029.113-.1.279-.26.33a1.351,1.351,0,0,1-.756-.07,2.618,2.618,0,0,1-1.309-.739,1.065,1.065,0,0,1-.17-1.2,1.45,1.45,0,0,1,.674-.467,3.9,3.9,0,0,1,3.164,0,2.8,2.8,0,0,1,1.609,2.539,3.153,3.153,0,0,1-3.115,2.658,7.642,7.642,0,0,1-4.383-1.672c-.344-.241-.691-.5-1.026-.746a16.162,16.162,0,0,0-3.223-2.018,8.28,8.28,0,0,0-8.386,1.259,5.218,5.218,0,0,0-1.86,2.855,3.487,3.487,0,0,0,.133,1.889c-.338-.181-.678-.356-1.024-.52a23.249,23.249,0,0,0-8.529-2.365c-1.522-.085-3.708-.02-4.123,1.845-.31,1.4.168,2.886-.421,4.24a2.879,2.879,0,0,1-2.42,1.793,9.218,9.218,0,0,1-4.005-1.162c-2.582-1.125-5.535-1.847-8.247-.744a3.834,3.834,0,0,0-2.117,1.933,7.2,7.2,0,0,0-.495,2.856c-.043,2.321.257,4.736-1.015,6.8a9.066,9.066,0,0,1-4.892,3.4c-2.056.745-4.2,1.222-6.222,2.066-1.822.759-4.089,2-4.514,4.157s1.053,4.2,1.776,6.105a6.136,6.136,0,0,1,.439,3.411,3.488,3.488,0,0,1-1.827,2.322c-.89.511-1.868.837-2.774,1.318a5.24,5.24,0,0,0-2.27,2.172,5.48,5.48,0,0,0-.44,3.822c.3,1.35.9,2.6,1.276,3.929a5.8,5.8,0,0,1,.013,3.577,8.353,8.353,0,0,1-1.882,3.015,5.95,5.95,0,0,1-2.887,1.775,2.98,2.98,0,0,1-2.4-.4,4.071,4.071,0,0,1-1.54-3.036,3.847,3.847,0,0,1,1.434-2.684,4.2,4.2,0,0,1,2.606-1.342c1.3.036,1.559,1.686,1.417,2.711-.162,1.183-.928,2.47-2.268,2.017-.239-.08-.326.307-.089.388a1.778,1.778,0,0,0,1.672-.226,3.66,3.66,0,0,0,1.042-3.479,2.352,2.352,0,0,0-.852-1.509,1.945,1.945,0,0,0-1.826-.13,6.346,6.346,0,0,0-2.755,2.143,3.59,3.59,0,0,0-.749,2.513,4.637,4.637,0,0,0,1.677,2.953,3.3,3.3,0,0,0,2.459.517,5.806,5.806,0,0,0,2.92-1.524,7.344,7.344,0,0,0,2.662-6.069c-.362-2.741-2.515-5.48-1.371-8.287a4.914,4.914,0,0,1,2.434-2.546c.918-.478,1.91-.805,2.8-1.338a3.86,3.86,0,0,0,1.813-2.173,5.8,5.8,0,0,0-.184-3.458c-.367-1.12-.922-2.161-1.375-3.245a5.545,5.545,0,0,1-.571-3.15,4.6,4.6,0,0,1,2.141-2.757,13.276,13.276,0,0,1,2.875-1.415c2.1-.776,4.3-1.254,6.369-2.118a8.22,8.22,0,0,0,4.528-3.831c1.042-2.188.635-4.6.758-6.942a4.745,4.745,0,0,1,.893-2.861,5.175,5.175,0,0,1,3.535-1.486,10.376,10.376,0,0,1,4.5.67c1.322.474,2.569,1.17,3.927,1.535a3.551,3.551,0,0,0,3.514-.617,3.745,3.745,0,0,0,1.127-2.126,13,13,0,0,0,.088-2.256,3.053,3.053,0,0,1,.385-1.833,2.961,2.961,0,0,1,2.323-.852,15.717,15.717,0,0,1,4.383.521,25.658,25.658,0,0,1,5.872,2.169c-4.494-1.595-9.225-1.883-11.49,1.875-1.154,1.912.206,3.273-2,4.673-2.156,1.37-5.021-.477-7.273-.327-4.412.294-5.974,2.312-7.323,6.139-1.784,5.062-1.149,4.989-6.04,7.782-3.379,1.929-6.644,4.051-6.562,8.624.114,6.212,2.467,5.393.405,7.847-2.333,2.779-5.111,1.152-7.115,5.4-1.866,3.955,3.544,5.512,1.006,10.694-1.6,3.272-9.928,4.277-6.649,9.5.26.414.518.813.761,1.2a4.823,4.823,0,0,1,.209,2.752c-.555,2.262-2.8,3.738-4.571,4.958-2.033,1.4-4.244,2.715-5.819,4.676-1.383,1.72-2.9,4.109-1.847,6.384.823,1.779,2.612,2.923,3.878,4.343a6.92,6.92,0,0,1,1.862,5.925l.335.078a6.284,6.284,0,0,0-.246-3.6c-.743-2.026-2.385-3.388-3.868-4.845a6.869,6.869,0,0,1-1.691-2.248,3.943,3.943,0,0,1,.131-2.979c1.075-2.622,3.243-4.476,5.482-6.034,1.925-1.339,4.1-2.554,5.609-4.411a5.33,5.33,0,0,0,1.211-2.619,4.735,4.735,0,0,0,0-1.251c1.41,2.541,1.7,4.78-2.578,7.99-3.785,2.844-7.927,3.945-7.16,9.488.362,2.623,6.181,6.5,6.328,11.23,26.445,5.707,89.826,14.445,121.3-23.489a9.2,9.2,0,0,1-3.137-2.292c-2.62-2.954-.549-4.3.039-8.347,1.076-7.412-10.627-7.541-12.624-12.609-1.233-3.126,3.121-8.1,2.459-11.661-1.074-5.789-7.357-4.69-10.368-7.642-3.252-3.19-1.744-8.136-3.977-12.116-2.654-4.732-6.764-2.184-9.9-4.939a8.257,8.257,0,0,1-1.5-1.735,6.858,6.858,0,0,0,2.616.609c3.227.205,7.1-.714,9.949,1.3a4.8,4.8,0,0,1,1.878,2.629,12.8,12.8,0,0,1,.246,3.459,8.532,8.532,0,0,0,1.072,4.645c1.339,2.145,3.784,3,6.055,3.679,2.312.7,5.1,1.294,6.571,3.451a7.656,7.656,0,0,1,.962,4.878,21.309,21.309,0,0,1-1.241,6c-.532,1.43-1.628,2.836-1.336,4.453.335,1.864,1.95,2.907,3.506,3.65a16.848,16.848,0,0,1,2.486,1.317c.828.583,1.649,1.183,2.436,1.819,1.628,1.316,3.463,3.031,3.711,5.26.339,3.049-2.581,6.771.493,9.168a6.056,6.056,0,0,0,2.605,1.114c.08-.11.159-.22.235-.332A7.777,7.777,0,0,1,3698.764,807.236Z" transform="translate(-3450.227 -733.985)" fill="#141726"/>
          <path id="Trazado_219739" data-name="Trazado 219739" d="M4111.765,1731.232l-50.391.6c13.29-8.123,14.195-15.956,14.9-20.489.055-.355.109-.689.168-1,.084-.45.158-1.032.221-1.685.043-.446.082-.926.116-1.419.2-2.783.255-5.979.255-5.979l19.465,1.99s-.051,3.235-.014,4.9c0,.038,0,.074,0,.108.012.47.046,1,.114,1.587.091.807.178,1.748.35,2.8C4097.706,1717.281,4100.085,1724.1,4111.765,1731.232Z" transform="translate(-3901.161 -1613.724)" fill="#ab5b3a"/>
          <path id="Trazado_219740" data-name="Trazado 219740" d="M4246.256,1695.535c0,.038,0,.074,0,.108-3.229,2.29-10.368,8.071-12.606,8.071-2.176,0-5.836-2.59-7.608-4.981.055-.355.11-.688.169-1,.083-.45.157-1.033.221-1.685.043-.446.082-.926.117-1.419.194-2.783.255-5.979.255-5.979l19.637-1.255S4246.227,1693.743,4246.256,1695.535Z" transform="translate(-4050.928 -1601.109)" fill="#783a1f"/>
          <path id="Trazado_219741" data-name="Trazado 219741" d="M4003.014,1030.512c.154-.018.308-.035.461-.051s.306-.039.46-.057c16.521-1.943,30.884,9.778,32.97,26.511,3.314,26.576-22.672,42-27.745,44.891a2.731,2.731,0,0,1-2.12.249c-5.605-1.637-27.008-11.488-29.947-38.108C3975.242,1047.187,3986.494,1032.455,4003.014,1030.512Z" transform="translate(-3824.326 -1003.387)" fill="#ab5b3a"/>
          <path id="Trazado_219742" data-name="Trazado 219742" d="M3983.92,1001.969c-20.334,7.205-15.866,30.423-15.866,30.423-1.179-2.243.179-5.465,2.526-5.993,1.271-.286,2.921-.042,3.56-1.237.8-1.5-1.045-3.195-1.028-4.928.018-1.9,2.272-2.883,4.033-2.515s3.3,1.55,5.036,2.026,4.031-.171,4.364-2.031c.425-2.375-2.523-3.9-3.256-6.2-.672-2.114.784-4.422,2.678-5.341s4.083-.8,6.175-.674c1.69.106,3.863.663,4.062,2.448a6.568,6.568,0,0,1-.3,1.937c-.563,2.941,1.7,5.973,4.45,6.744s5.71-.332,7.914-2.193a4.929,4.929,0,0,1,2.241-1.387,4.1,4.1,0,0,1,2.052.418c1.785.7,3.8,1.652,4.333,3.588.357,1.308-.093,2.681-.16,4.034-.16,3.247,1.865,6.139,3.786,8.707h0c1.024,1.368,2.391,4.209,3.911,4.953,1.683.824,4.9-.056,6.618-.435C4031.051,1034.312,4028.948,986.013,3983.92,1001.969Z" transform="translate(-3815.891 -974.776)" fill="#141726"/>
          <path id="Trazado_219743" data-name="Trazado 219743" d="M4044.711,1372.887a6.182,6.182,0,0,0-2.479,3.013,4.645,4.645,0,0,1-3.817,2.636l-.037,0a.311.311,0,0,0-.082.6l1.266.455a2.275,2.275,0,0,0,2.666-.882c.319-.481.662-.985,1.008-1.472a2.362,2.362,0,0,0,1.981,2.479c1.128.024,2.068-1.161,2.1-2.646a2.726,2.726,0,0,0-1.347-2.581c1.259-.007,3.666,1.649,4.516,2.824a.219.219,0,0,0,.387-.191C4050.342,1375.163,4046.78,1371.878,4044.711,1372.887Z" transform="translate(-3879.986 -1314.895)" fill="#141726"/>
          <path id="Trazado_219744" data-name="Trazado 219744" d="M4319.053,1359.276l-.036.009a4.644,4.644,0,0,1-4.445-1.323,6.183,6.183,0,0,0-3.292-2.1c-2.28-.318-4.647,3.909-4.543,5.942a.219.219,0,0,0,.427.062,7.907,7.907,0,0,1,1.182-2.1c0,.052-.008.1-.009.155-.031,1.485.858,2.708,1.986,2.732s2.068-1.161,2.1-2.646a3.16,3.16,0,0,0-.545-1.894,30.24,30.24,0,0,1,3.571,2.524,2.275,2.275,0,0,0,2.808.012l1.063-.825A.311.311,0,0,0,4319.053,1359.276Z" transform="translate(-4124.315 -1299.569)" fill="#141726"/>
          <path id="Trazado_219745" data-name="Trazado 219745" d="M4037.55,1281.025c.442,1.275-2.77,1.447-6.179,2.628s-5.727,2.923-6.169,1.648,1.964-3.266,5.374-4.447S4037.109,1279.75,4037.55,1281.025Z" transform="translate(-3868.215 -1230.601)" fill="#141726"/>
          <path id="Trazado_219746" data-name="Trazado 219746" d="M4299.865,1265.863c-.342,1.305,2.873,1.23,6.364,2.145s5.935,2.474,6.277,1.169-2.21-3.106-5.7-4.021S4300.208,1264.557,4299.865,1265.863Z" transform="translate(-4118.045 -1216.609)" fill="#141726"/>
          <path id="Trazado_219747" data-name="Trazado 219747" d="M4234.026,1607.04c3.226-3.776-1.59,14.74-10.618,4.7a.19.19,0,0,1,.12-.316C4225.082,1611.259,4231.148,1610.409,4234.026,1607.04Z" transform="translate(-4048.487 -1527.56)" fill="#fff"/>
          <path id="Trazado_219748" data-name="Trazado 219748" d="M4035.274,1486.341c.453-1.712,2.563-2.013,4.093-2.106,2.538-.154,4.069.572,4.264,3.389.251,3.617-3.306,4.079-5.926,2.644-1.309-.718-2.779-2.1-2.472-3.747C4035.245,1486.459,4035.259,1486.4,4035.274,1486.341Z" transform="translate(-3877.348 -1416.32)" fill="#783a1f"/>
          <path id="Trazado_219749" data-name="Trazado 219749" d="M4369.925,1460.385c-.583-1.672-2.711-1.81-4.243-1.785-2.542.042-4.013.883-3.991,3.707.027,3.625,3.61,3.813,6.111,2.18,1.25-.816,2.61-2.3,2.176-3.926C4369.962,1460.5,4369.944,1460.442,4369.925,1460.385Z" transform="translate(-4174.299 -1393.02)" fill="#783a1f"/>
          <ellipse id="Elipse_4945" data-name="Elipse 4945" cx="9.863" cy="6.198" rx="9.863" ry="6.198" transform="matrix(0.153, -0.988, 0.988, 0.153, 202.923, 74.312)" fill="#ab5b3a"/>
          <path id="Trazado_219750" data-name="Trazado 219750" d="M4201.566,1329.178s1.107,16.693-.922,19.765,4.142,3.142,6.354,1.5c0,0-4.758,1.166-4.753-1.091A97.347,97.347,0,0,0,4201.566,1329.178Z" transform="translate(-4027.459 -1275.313)" fill="#783a1f"/>
          <path id="Trazado_219751" data-name="Trazado 219751" d="M2378.858,2686.119c-2.724,2.995-4.289,5.451-6.878,8.181-.6.63-1.248,1.273-1.981,1.942-1.186,1.083-2.367,2.141-3.523,3.16-3.168-5.75-7.119-12.09-11.481-18.911-3.1-4.84-6.823-5.785-11.722-6.469-.043-.006-1.052-.079-2.126-.157-1.233-.088-2.552-.184-2.6-.19-10.883-1.372-13.722-1.685-21.083-3.4-8.127-1.891-25.367-3.658-26.307-5.527s5.167-3.24,8.1-2.512,13.434,1.147,13.434,1.147-.36-5.467,9.277-3.469,18.062-5.266,25.758-1.1c5.008,2.712,16.847,11.245,22.536,18.316Z" transform="translate(-2291.054 -2483.423)" fill="#ab5b3a"/>
          <path id="Trazado_219752" data-name="Trazado 219752" d="M2451.632,2677.805c-5.481,0-10.544-.405-10.623-.411a.272.272,0,0,1,.044-.542c.125.01,12.549,1,19.492-.138a19.4,19.4,0,0,0,4.353-1.253,41.772,41.772,0,0,1,8.332-2.32.271.271,0,1,1,.1.533,41.307,41.307,0,0,0-8.238,2.293,19.833,19.833,0,0,1-4.46,1.282A59.3,59.3,0,0,1,2451.632,2677.805Z" transform="translate(-2427.211 -2497.644)" fill="#141726"/>
          <path id="Trazado_219753" data-name="Trazado 219753" d="M3107.941,2023.2c-4.829,6.161-17.54,6.042-23.832,5.561-2.215-.169-3.634-.383-3.634-.383l1.935,15.158,1.463,11.468s-63.078,7.692-126.79,2.9c-.049.067-.146-18.636-.195-18.57a.044.044,0,0,0-.008.01c-.052.07-.1.14-.155.208s-.088.118-.133.177c-9.758,12.873-25.949,13.693-38.461,8.408a38.526,38.526,0,0,1-3.8-1.857c-8.939-5-25.748-31.06-30.394-36.471,3.264-7.317,23.977-13.846,23.977-13.846,4.377,3.456,23.3,28.029,30.423-.907,1.827-7.427,3.241-15.036,6.319-22.165a132.007,132.007,0,0,1,10.827-19.814s18.73-29.775,44.047-36.327c5.206-1.348,23.748-3.72,38.509-2.173,12.889,1.351,40.186,8.217,55.045,38.385C3093.083,1952.964,3119.33,2008.674,3107.941,2023.2Z" transform="translate(-2830.28 -1807.275)" fill="#feccc1"/>
          <path id="Trazado_219754" data-name="Trazado 219754" d="M4394.139,2882.2l1.935,15.158c-44.035-1.951-67.571-44.171-67.759-44.509,22.164,25.479,69.432,29.565,69.432,29.565l.026.168C4395.558,2882.414,4394.139,2882.2,4394.139,2882.2Z" transform="translate(-4143.943 -2661.092)" fill="#fea896"/>
          <path id="Trazado_219755" data-name="Trazado 219755" d="M3300.566,2674.828l-.008.01-.154.208c-.044.06-.088.118-.133.177-9.759,12.873-25.95,13.693-38.461,8.408,13.192,1.8,31.508-12.623,31.894-29.991.425-19.063,13.528-40.839,13.528-40.839-5.015,16.976-6.652,61.049-6.652,61.049Z" transform="translate(-3173.957 -2442.768)" fill="#fea896"/>
          <path id="Trazado_219756" data-name="Trazado 219756" d="M4553.77,1537.431a48.338,48.338,0,0,0-3.334,13.331c-.16,2.957.278,6.1,2.807,7.922a5.671,5.671,0,0,0,3.23,1.213c3.168.094,5.827-2.566,6.715-5.46,1.01-3.442.3-8.326-1.272-11.524a11.2,11.2,0,0,0-3.147-4.044.125.125,0,0,1,.139-.207,12.932,12.932,0,0,1,5.28,7.136,18.548,18.548,0,0,1,.943,7.689,10.086,10.086,0,0,1-.91,3.238c-1.7,3.679-5.761,6.257-9.832,5.02a8.443,8.443,0,0,1-2.681-1.413,8.785,8.785,0,0,1-3.363-5.954c-.783-5.735,1.773-12.428,4.548-17.361a.487.487,0,0,1,.877.414Z" transform="translate(-4343.931 -1464.123)" fill="#fff"/>
          <path id="Trazado_219757" data-name="Trazado 219757" d="M3691.354,2550.876h-.014a.271.271,0,0,1-.258-.285c.021-.417,2.151-41.856,6.313-55.157.969-3.1,2.98-11.3,3-11.383a.271.271,0,0,1,.527.129c-.02.083-2.036,8.3-3.01,11.415-4.141,13.236-6.268,54.606-6.289,55.023A.272.272,0,0,1,3691.354,2550.876Z" transform="translate(-3564.38 -2325.482)" fill="#141726"/>
          <path id="Trazado_219758" data-name="Trazado 219758" d="M3865.563,2257.309l-16.437,13.537a40.7,40.7,0,0,1-10.623-2.161l-4.6-1.685-.017,0-3.639-1.329c-.019-.008-.039-.013-.059-.023a40.336,40.336,0,0,1-6.729-3.063l-.052-.021c-.9-.357-13.167-5.26-17.474-9.155a6.982,6.982,0,0,1-1.019-1.112,2.569,2.569,0,0,1-.413-.824s-.915-2.164,9.39,1.573c.677.246,1.322.475,1.94.688,11.07,3.819,12.894,2.612,11.424,1.814q-1.386-.754-2.788-1.531c-9.382-5.2-18.8-10.976-21.205-14.278a1.975,1.975,0,0,1-.54-1.679.74.74,0,0,1,.564-.474c1.788-.474,7.314,2.044,13.926,5.262,5.6,2.724,11.726,6.545,13.215,7.485a.631.631,0,0,0,.823-.115c.159-.2.2-.467-.242-.8-5.267-3.946-26.687-16.336-25.165-19.254,1.331-2.55,6.565,1.134,13.792,4.855.262.136,14.868,8.62,15.148,8.708a1.7,1.7,0,0,0,.507.1.3.3,0,0,0,.159-.555c-12.951-8.545-18.715-15.013-19.521-16.08-1.259-1.667.643-2.843,1.868-2.329,4.529,1.906,12.67,7.135,17.786,10.964,1.047.784,3.415,1.979,5.345,3.071a17.381,17.381,0,0,1,2.408,1.546c2.721,2.293,5.476,4.352,8.627,7.467a50.227,50.227,0,0,0,5.1,4.414,45.274,45.274,0,0,0,4.357,2.905q1.06.619,2.051,1.126A18.836,18.836,0,0,0,3865.563,2257.309Z" transform="translate(-3665.869 -2089.824)" fill="#ab5b3a"/>
          <path id="Trazado_219759" data-name="Trazado 219759" d="M4344.517,2614.832h-.022c-.013,0-1.324-.111-3.56-.4a162.473,162.473,0,0,1-24.674-5.262c-2.54-.758-5.025-1.574-7.387-2.427-1.378-.5-2.74-1.014-4.048-1.538-.321-.127-.663-.266-1.1-.448-.29-.119-.582-.24-.872-.362a101.866,101.866,0,0,1-10.319-5.022c-1.045-.586-2.1-1.207-3.133-1.846l-.015-.009c-.129-.08-.257-.16-.385-.241-8.9-5.575-15.595-12.2-19.909-19.686a.271.271,0,0,1,.063-.345l3.977-3.277,18.985-15.635a.273.273,0,0,1,.16-.062c3.438-.153,8.2.563,14.169,2.128.534.14,1.015.269,1.469.4q.367.1.738.207l.012,0c.305.086.61.172.917.262.354.1.724.211,1.1.325.411.122.843.254,1.285.39.947.293,1.823.571,2.678.851,2.254.735,4.651,1.567,7.125,2.471,10.532,3.846,19.64,7.958,21.359,8.743l.267.122a.271.271,0,1,1-.225.494l-.268-.122c-1.716-.784-10.807-4.888-21.32-8.727-2.468-.9-4.86-1.731-7.107-2.465-.853-.279-1.726-.556-2.669-.848-.44-.136-.87-.267-1.28-.388-.375-.113-.742-.222-1.095-.324q-.452-.132-.9-.257l-.014,0c-.249-.071-.5-.141-.745-.208-.453-.126-.931-.255-1.463-.394-5.859-1.537-10.541-2.249-13.916-2.114l-22.715,18.708c4.273,7.327,10.871,13.82,19.613,19.3l.383.24.014.009c1.026.635,2.074,1.252,3.113,1.834a101.188,101.188,0,0,0,10.264,4.995c.288.121.579.242.867.36.441.181.781.319,1.1.446,1.3.522,2.659,1.037,4.031,1.532,2.352.849,4.828,1.662,7.358,2.417a161.973,161.973,0,0,0,24.589,5.244c2.222.29,3.521.4,3.534.4a.271.271,0,0,1-.022.542Z" transform="translate(-4090.043 -2393.152)" fill="#141726"/>
          <path id="Trazado_219760" data-name="Trazado 219760" d="M4151.542,2307.594s21.417,18.585,20.476,14.477c-.721-3.147-2.56-9.069-6.191-13.283-1.372-1.592-8.217-3.939-13.181-8.256-1.867-1.623-4.979-2.394-6.49-1.875C4143.455,2299.585,4151.542,2307.594,4151.542,2307.594Z" transform="translate(-3977.767 -2156.908)" fill="#ab5b3a"/>
          <path id="Trazado_219761" data-name="Trazado 219761" d="M4055.463,2269.6a.271.271,0,0,1-.174-.063c-1.194-1-3.61-1.69-6.168-2.426-2.6-.748-5.285-1.521-6.983-2.7-3.062-2.128-7.939-5.329-11.929-7.681a.271.271,0,1,1,.276-.468c4,2.359,8.892,5.569,11.963,7.7,1.624,1.128,4.267,1.889,6.823,2.624,2.614.752,5.084,1.462,6.365,2.531a.271.271,0,0,1-.174.48Z" transform="translate(-3872.694 -2118.461)" fill="#141726"/>
        </g>
        <g id="Grupo_997530" data-name="Grupo 997530" transform="translate(699.761 910.058)">
          <path id="Trazado_219762" data-name="Trazado 219762" d="M3820.813,2892.039h-20.453l4.87,50.167h27.79l4.869-50.167Z" transform="translate(-3798.962 -2880.848)" fill="#c0c7ed"/>
          <path id="Trazado_219763" data-name="Trazado 219763" d="M4158.512,2989.289h-.027a.271.271,0,0,1-.244-.3l4.434-45.238a.272.272,0,0,1,.541.053l-4.434,45.238A.272.272,0,0,1,4158.512,2989.289Z" transform="translate(-4124.453 -2927.658)" fill="#141726"/>
          <rect id="Rectángulo_339863" data-name="Rectángulo 339863" width="40.327" height="10.13" transform="translate(0 5.982)" fill="#a6b1ed"/>
          <rect id="Rectángulo_339864" data-name="Rectángulo 339864" width="28.46" height="6.657" transform="translate(5.933)" fill="#a6b1ed"/>
          <path id="Trazado_219764" data-name="Trazado 219764" d="M3884.069,2943.95h-34.2a.272.272,0,0,1,0-.543h34.2a.272.272,0,1,1,0,.543Z" transform="translate(-3843.742 -2927.567)" fill="#141726"/>
          <path id="Trazado_219765" data-name="Trazado 219765" d="M3977.914,2832.016H3961.8a.272.272,0,0,1,0-.543h16.112a.272.272,0,0,1,0,.543Z" transform="translate(-3945.546 -2825.763)" fill="#141726"/>
          <circle id="Elipse_4946" data-name="Elipse 4946" cx="7.911" cy="7.911" r="7.911" transform="translate(12.252 28.364)" fill="#fff"/>
        </g>
        <g id="Grupo_997531" data-name="Grupo 997531" transform="translate(499.82 948.913)">
          <path id="Trazado_219766" data-name="Trazado 219766" d="M1500.615,3274.368a7.389,7.389,0,0,1-2.864,5.627,10.9,10.9,0,0,1-6.915,2.354h-68a1.771,1.771,0,0,1-1.916-1.575h0a.379.379,0,0,1,.41-.337h65.115a8.306,8.306,0,0,0,5.27-1.8,5.609,5.609,0,0,0,2.183-4.405c-.048-3.368-3.45-6.054-7.548-6.054h-65.02a.379.379,0,0,1-.41-.337h0a1.771,1.771,0,0,1,1.916-1.575h67.888C1496.138,3266.27,1500.654,3269.914,1500.615,3274.368Z" transform="translate(-1420.916 -3266.27)" fill="#141726"/>
          <path id="Rectángulo_339865" data-name="Rectángulo 339865" d="M0,0H65.817a6.127,6.127,0,0,1,6.127,6.127v0a6.127,6.127,0,0,1-6.127,6.127H0a0,0,0,0,1,0,0V0A0,0,0,0,1,0,0Z" transform="translate(1.034 1.913)" fill="#fff"/>
          <path id="Trazado_219767" data-name="Trazado 219767" d="M1564.36,3318.193h-55.229a.317.317,0,0,1,0-.634h55.229a.317.317,0,0,1,0,.634Z" transform="translate(-1500.859 -3312.917)" fill="#141726"/>
          <path id="Trazado_219768" data-name="Trazado 219768" d="M1498.351,3344.413h-39.2a.317.317,0,0,1,0-.634h39.2a.317.317,0,0,1,0,.634Z" transform="translate(-1455.4 -3336.764)" fill="#141726"/>
          <path id="Trazado_219769" data-name="Trazado 219769" d="M1634.663,3397.638H1594.34a.317.317,0,1,1,0-.634h40.323a.317.317,0,1,1,0,.634Z" transform="translate(-1578.357 -3385.172)" fill="#141726"/>
        </g>
        <g id="Grupo_997532" data-name="Grupo 997532" transform="translate(499.82 932.833)">
          <path id="Trazado_219770" data-name="Trazado 219770" d="M1500.615,3097.478a7.388,7.388,0,0,1-2.864,5.626,10.9,10.9,0,0,1-6.915,2.354h-68a1.771,1.771,0,0,1-1.916-1.575h0a.379.379,0,0,1,.41-.337h65.115a8.307,8.307,0,0,0,5.27-1.795,5.609,5.609,0,0,0,2.183-4.4c-.048-3.369-3.45-6.055-7.548-6.055h-65.02a.379.379,0,0,1-.41-.337h0a1.771,1.771,0,0,1,1.916-1.575h67.888C1496.138,3089.379,1500.654,3093.023,1500.615,3097.478Z" transform="translate(-1420.916 -3089.379)" fill="#141726"/>
          <path id="Rectángulo_339866" data-name="Rectángulo 339866" d="M0,0H65.817a6.127,6.127,0,0,1,6.127,6.127v0a6.127,6.127,0,0,1-6.127,6.127H0a0,0,0,0,1,0,0V0A0,0,0,0,1,0,0Z" transform="translate(1.034 1.913)" fill="#fff"/>
          <path id="Trazado_219771" data-name="Trazado 219771" d="M1564.36,3141.3h-55.229a.317.317,0,1,1,0-.634h55.229a.317.317,0,0,1,0,.634Z" transform="translate(-1500.859 -3136.026)" fill="#141726"/>
          <path id="Trazado_219772" data-name="Trazado 219772" d="M1498.351,3167.522h-39.2a.317.317,0,1,1,0-.633h39.2a.317.317,0,1,1,0,.633Z" transform="translate(-1455.4 -3159.875)" fill="#141726"/>
          <path id="Trazado_219773" data-name="Trazado 219773" d="M1634.663,3220.746H1594.34a.317.317,0,1,1,0-.633h40.323a.317.317,0,1,1,0,.633Z" transform="translate(-1578.357 -3208.281)" fill="#141726"/>
        </g>
      </g>
    </g>
  </g>
</svg>
