<svg xmlns="http://www.w3.org/2000/svg" xmlns:xlink="http://www.w3.org/1999/xlink" width="820" height="221" viewBox="0 0 820 221">
  <defs>
    <clipPath id="clip-path">
      <rect id="Rectángulo_339579" data-name="Rectángulo 339579" width="453" height="221" transform="translate(82.663 24.063)" fill="#fff" stroke="#707070" stroke-width="1"/>
    </clipPath>
    <clipPath id="clip-path-2">
      <rect id="Rectángulo_338391" data-name="Rectángulo 338391" width="351" height="403" transform="translate(593 4876)" fill="#fff" stroke="#707070" stroke-width="1"/>
    </clipPath>
    <clipPath id="clip-path-3">
      <rect id="Rectángulo_338390" data-name="Rectángulo 338390" width="211.068" height="395.166" fill="none"/>
    </clipPath>
    <clipPath id="clip-path-4">
      <rect id="Rectángulo_338389" data-name="Rectángulo 338389" width="181.731" height="410.496" fill="none"/>
    </clipPath>
  </defs>
  <g id="Grupo_984234" data-name="Grupo 984234" transform="translate(107.337 -24.063)">
    <path id="Rectángulo_338258" data-name="Rectángulo 338258" d="M61,0H759a61,61,0,0,1,61,61v61a0,0,0,0,1,0,0H0a0,0,0,0,1,0,0V61A61,61,0,0,1,61,0Z" transform="translate(-107.337 123)" fill="#3c3fa7"/>
    <g id="Enmascarar_grupo_612" data-name="Enmascarar grupo 612" transform="translate(-4)" clip-path="url(#clip-path)">
      <g id="Enmascarar_grupo_433" data-name="Enmascarar grupo 433" transform="translate(-463.337 -4851.937)" clip-path="url(#clip-path-2)">
        <g id="Grupo_982719" data-name="Grupo 982719" transform="translate(603.357 4886.357)">
          <g id="Grupo_982718" data-name="Grupo 982718" transform="translate(0 7.665)">
            <g id="Grupo_982717" data-name="Grupo 982717" transform="translate(0 0)" clip-path="url(#clip-path-3)">
              <path id="Trazado_205479" data-name="Trazado 205479" d="M62.594,350.487l-.456-.646c5.885-4.15,7.177-12.289,5.846-18.513-1.491-6.983-5.722-13.074-9.454-18.447-4.026-5.8-8.161-11.75-9.8-18.628-1.45-6.1-.8-12.45-.179-18.593.3-2.927.605-5.953.682-8.91a57.887,57.887,0,0,0-16.253-41.586c-2.1-2.167-4.469-4.281-6.754-6.326-6.928-6.2-14.092-12.609-15.61-21.695l.78-.13c1.472,8.812,8.531,15.128,15.357,21.235,2.3,2.054,4.67,4.178,6.794,6.365a58.679,58.679,0,0,1,16.476,42.157c-.077,2.987-.386,6.029-.686,8.97-.618,6.078-1.257,12.362.161,18.331,1.6,6.732,5.692,12.624,9.65,18.322,3.8,5.472,8.08,11.632,9.605,18.771,1.384,6.479.014,14.966-6.164,19.324" transform="translate(138.16 -129.175)" fill="#211010"/>
              <path id="Trazado_205480" data-name="Trazado 205480" d="M205.548,333.976c-7.232-9.431-12.885-21.127-13.809-28.424-1.712-13.516,9.895-31.624-10.96-54.806-15.042-16.721-12.821-22.273-12.821-22.273L38.265,232.621S36.5,253.029,29.7,264.234s-18.87,20.262-9.786,41.9c7.454,17.753-3.076,36.809-8.765,47.591-5.605,10.622-1.6,20.739,9.008,44.065,0,0,5.995,2.883,10.8,4.835l.68-10.521c1.811.55,4.579,12.278,6.714,12.679a54.829,54.829,0,0,0,6.766.84c-4.029-7.8-5.69-16.114-3.221-23.232,8.861-28.941,14.024-57.414,1.61-86.19-9-21.621,6.052-41.23,24.073-47.307,25.261-8.257,48.112,4.022,71.565,11.168,7.713,1.552,17.891,2.792,22.536,9.791,9.131,12.753-2.381,30.65,5.675,44.8,4.96,9.487,15.926,16.95,21.044,27.682,5.687,10.663,7.307,22.446,5.993,34.368l.479.73a23.529,23.529,0,0,0,20.363-9.1c1.9-2.443,2.988-17.828-9.687-34.358" transform="translate(-8.283 -149.803)" fill="#211010"/>
              <path id="Trazado_205481" data-name="Trazado 205481" d="M218.892,375.983c-5.117-10.732-16.084-18.195-21.044-27.683-8.056-14.154,3.457-32.05-5.675-44.8-4.644-7-14.823-8.239-22.536-9.791-23.453-7.145-46.3-19.425-71.565-11.168C80.052,288.614,65,308.224,74,329.845c12.414,28.776,7.251,57.249-1.61,86.19-2.469,7.118-.807,15.429,3.222,23.233a54.172,54.172,0,0,0,12.686-.71l.693-22.734,8.451,21.638s13.6,5.637,58.013-9.555,53.19-8.676,55.838-16.819-9.088-35.312-9.088-35.312l22.68,34.577c1.314-11.922-.306-23.706-5.993-34.368" transform="translate(-38.774 -183.448)" fill="#261313"/>
              <path id="Trazado_205482" data-name="Trazado 205482" d="M537.294,397.124A48.669,48.669,0,0,1,526.939,353.4a98.676,98.676,0,0,1,4.151-11.765c2.519-6.279,5.124-12.772,5.259-19.566.112-5.631-1.477-11.322-3.014-16.826-2.081-7.453-4.233-15.16-2.069-22.652,1.778-6.155,6.171-11,10.42-15.7a77.373,77.373,0,0,0,6.844-8.3,37.292,37.292,0,0,0,5.487-28.184l.773-.166a38.1,38.1,0,0,1-5.606,28.792,77.872,77.872,0,0,1-6.912,8.383c-4.381,4.836-8.519,9.4-10.246,15.384-2.1,7.277-.075,14.536,2.07,22.22,1.552,5.559,3.158,11.307,3.043,17.054-.139,6.938-2.771,13.5-5.315,19.845a97.927,97.927,0,0,0-4.12,11.669A47.867,47.867,0,0,0,537.889,396.6Z" transform="translate(-525.443 -150.966)" fill="#211010"/>
              <path id="Trazado_205483" data-name="Trazado 205483" d="M41.975,585.483s.906,3.651,2.734,9.428a70.315,70.315,0,0,0,26.115-11.292c-1.556-4.636-2.862-8.814-3.6-11.768Z" transform="translate(125.79 -374.944)" fill="#c78743"/>
              <path id="Trazado_205484" data-name="Trazado 205484" d="M40.569,682.753l-2.08-42.739S31.039,620.7,26.115,606.026A70.31,70.31,0,0,1,0,617.319c4.934,15.592,21.812,48.668,40.569,65.435" transform="translate(170.499 -397.352)" fill="#e6ac71"/>
              <path id="Trazado_205485" data-name="Trazado 205485" d="M168,809.4,79.9,813.07S61.336,873.8,49.237,925.862H200.324C192.439,896.172,181.542,831.744,168,809.4" transform="translate(-6.21 -530.696)" fill="#ff6248"/>
              <path id="Trazado_205486" data-name="Trazado 205486" d="M140.882,796.377s.241,4.454.509,6.075,75.532,1.315,88.867-2.607l-1.35-6.893s-37.118,5.723-88.025,3.425" transform="translate(-67.7 -519.914)" fill="#ff3614"/>
              <path id="Trazado_205487" data-name="Trazado 205487" d="M388.879,872.5a.411.411,0,0,1-.389-.539,8.284,8.284,0,0,1,.828-1.314c2.792-4.092,11.29-16.546,15.553-37.7a.413.413,0,1,1,.809.163A103.052,103.052,0,0,1,390,871.113c-.352.516-.684,1-.731,1.12a.425.425,0,0,1-.391.268" transform="translate(-328.384 -545.918)" fill="#ff3614"/>
              <path id="Trazado_205488" data-name="Trazado 205488" d="M129.954,857.775a.412.412,0,0,1-.359-.208A258.208,258.208,0,0,1,115.85,829.42a.413.413,0,0,1,.767-.306,257.207,257.207,0,0,0,13.7,28.045.412.412,0,0,1-.358.616" transform="translate(40.821 -543.454)" fill="#ff3614"/>
              <path id="Trazado_205489" data-name="Trazado 205489" d="M463.129,606.394l-28.723-16.413s-1.94,5.616-4.315,13.478c9,7.156,19.32,13.158,30.124,15.136Z" transform="translate(-400.156 -386.832)" fill="#c78743"/>
              <path id="Trazado_205490" data-name="Trazado 205490" d="M432.489,644.259c-10.8-1.978-21.128-7.98-30.124-15.136-4.18,13.837-9.71,34.636-8.389,44.043,1.279,9.107,38.979,65.611,43.45,58.388,6.926-11.19,10.48-26.5,10.48-26.5-6.736-9.158-21.5-35.331-21.5-35.331Z" transform="translate(-372.43 -412.496)" fill="#e6ac71"/>
              <path id="Trazado_205491" data-name="Trazado 205491" d="M108.539,454.627s-22.55,4.223-35.914,10.919-22.416,26.393-22.416,26.393,9.415,14.413,25.743,19a239.614,239.614,0,0,1-.909,24.207c-1.119,10.222-4.083,35.016,8.34,37.9s38.692,2.105,51.986,2.912,30.177-1.831,38.915-5.989S187,561.774,187.14,547.109s-5.048-43.7-5.048-43.7,16.064-3.6,25.071-18.523c0,0-15.4-26.01-34.858-28.976-16.688-2.544-35.416-5.789-63.767-1.279" transform="translate(-13.385 -296.61)" fill="#fff"/>
              <path id="Trazado_205492" data-name="Trazado 205492" d="M246.706,454.957s-16.6-1.792-24.352,2.569a27.36,27.36,0,0,0,26.142,12.1c18.139-1.758,21.64-15.745,21.64-15.745s-8.947-1.487-23.431,1.076" transform="translate(-135.633 -297.315)" fill="#244eff"/>
              <path id="Trazado_205493" data-name="Trazado 205493" d="M460.443,585.636c.963.326.406,5.233.406,5.233s-16.841,1.661-31.207-18.255c0,0-.633-5.236,5.971-6.311,0,0,10.324,14.421,24.83,19.332" transform="translate(-397.876 -371.308)" fill="#244eff"/>
              <path id="Trazado_205494" data-name="Trazado 205494" d="M35.386,560.348c-.916.309.968,5.239.968,5.239S52.24,567.554,66.179,547.9c0,0,.694-5.223-5.528-6.418,0,0-11.467,14.217-25.265,18.863" transform="translate(132.767 -355.035)" fill="#244eff"/>
              <path id="Trazado_205495" data-name="Trazado 205495" d="M135.135,644.862c-9.79,0-18.195-.484-18.346-.492l.072-1.219c.275.018,27.579,1.588,41.014-.969,6.281-1.195,14.96-1.319,23.353-1.44,10.068-.145,19.578-.281,24.317-2.174a45,45,0,0,1,16.525-2.895,22.286,22.286,0,0,0,2.726-.143l.207,1.2a22.485,22.485,0,0,1-2.909.161A43.88,43.88,0,0,0,206,639.7c-4.948,1.976-14.568,2.113-24.752,2.26-8.341.119-16.966.242-23.143,1.419-6.1,1.16-14.992,1.481-22.967,1.481" transform="translate(-54.149 -416.697)" fill="#244eff"/>
              <path id="Trazado_205496" data-name="Trazado 205496" d="M126.249,628.261c-3.754,0-6.067-.154-6.118-.158l.084-1.217a134.8,134.8,0,0,0,24.894-1.125c4.223-.593,7.586-1.171,10.555-1.68,6.732-1.156,11.183-1.917,18.457-1.694l2.065.067c9.62.316,19.566.639,30.773-1.79a137.835,137.835,0,0,1,19.452-3.014l.064,1.219a136.7,136.7,0,0,0-19.258,2.989c-11.354,2.459-21.377,2.134-31.071,1.816l-2.063-.066c-7.157-.223-11.555.533-18.213,1.676-2.977.511-6.351,1.091-10.591,1.686a139.505,139.505,0,0,1-19.031,1.292" transform="translate(-56.773 -404.973)" fill="#244eff"/>
              <path id="Trazado_205497" data-name="Trazado 205497" d="M126.422,610.789l-.142-1.04c.171-.023,17.226-2.355,29.162-3.369,3.164-.268,8.138-.422,14.435-.616,17.461-.537,43.848-1.35,60.8-5.712l.262,1.017c-17.065,4.392-43.522,5.206-61.029,5.746-6.281.193-11.243.346-14.378.612-11.909,1.012-28.937,3.339-29.109,3.362" transform="translate(-63.352 -393.436)" fill="#244eff"/>
              <path id="Trazado_205498" data-name="Trazado 205498" d="M175.869,688.054a.27.27,0,0,1-.154-.491,95.749,95.749,0,0,0,26.735-28.175.271.271,0,0,1,.46.285,96.315,96.315,0,0,1-26.887,28.333.268.268,0,0,1-.154.048" transform="translate(-52.347 -432.256)" fill="#d175a2"/>
              <path id="Trazado_205499" data-name="Trazado 205499" d="M156.855,704.212a.267.267,0,0,1-.179-.068.27.27,0,0,1-.024-.381,87.265,87.265,0,0,0,16.934-29.047.27.27,0,1,1,.511.175,87.814,87.814,0,0,1-17.039,29.228.267.267,0,0,1-.2.092" transform="translate(-16.961 -442.271)" fill="#d175a2"/>
              <path id="Trazado_205500" data-name="Trazado 205500" d="M268.557,418.57a57.016,57.016,0,0,0,7.4-2.731l-.238-12.679-32.291,2.495.057,12.759c8.258,2.412,17.333,2.657,25.076.156" transform="translate(-148.705 -264.34)" fill="#c78743"/>
              <path id="Trazado_205501" data-name="Trazado 205501" d="M268.3,442.712c-7.742,2.5-16.818,2.255-25.076-.156l.036,7.9c12.188,9.11,27.226,5.841,32.562-3.787l-.126-6.692a57.029,57.029,0,0,1-7.4,2.731" transform="translate(-148.506 -288.482)" fill="#e6ac71"/>
              <path id="Trazado_205502" data-name="Trazado 205502" d="M441.559,322.517l-6.143-19.391s-18.106-6.005-18.513,12.407,18.936,18.793,24.656,6.984" transform="translate(-374.043 -198.137)" fill="#e6ac71"/>
              <path id="Trazado_205503" data-name="Trazado 205503" d="M258.249,121.9s9.227,17.262,12.582,43.748c2.617,20.666-11.321,42.983-36.344,47.818-23.519,4.543-49.367-1.883-60.971-34.209s-4.488-60.137,24.758-71.352,51.2-5.859,59.975,14" transform="translate(-118 -66.962)" fill="#e6ac71"/>
              <path id="Trazado_205504" data-name="Trazado 205504" d="M340.8,345.8c-.161,3.567-5.707,6.213-12.387,5.911s-11.964-3.438-11.8-7.005,5.707-6.213,12.387-5.911,11.964,3.439,11.8,7.005" transform="translate(-238.76 -222.121)" fill="#c78743"/>
              <path id="Trazado_205505" data-name="Trazado 205505" d="M193.753,310.123c1.277,3.334-2.75,7.976-8.994,10.367s-12.342,1.627-13.618-1.707,2.75-7.976,8.994-10.367,12.342-1.627,13.618,1.707" transform="translate(-41.77 -201.306)" fill="#c78743"/>
              <path id="Trazado_205506" data-name="Trazado 205506" d="M336.939,257.154s-4.114-2.673,2.941-7.864,9.883-4.713,11.431-2.887c1.413,1.665.075,4.687-3.946,7.522-4.826,3.4-8.177,4.783-10.425,3.229" transform="translate(-256.397 -160.728)" fill="#211010"/>
              <path id="Trazado_205507" data-name="Trazado 205507" d="M223.438,229.372s2.19-4.126-6.76-5.627-11.177.142-11.565,2.414c-.354,2.073,2.425,4.145,7.461,4.892,6.043.9,9.716.658,10.864-1.679" transform="translate(-83.224 -146.324)" fill="#211010"/>
              <path id="Trazado_205508" data-name="Trazado 205508" d="M337.158,303.914c.376,2.479-.969,4.739-3,5.047s-3.988-1.451-4.364-3.931.969-4.739,3-5.047,3.987,1.451,4.363,3.931" transform="translate(-239.69 -196.667)" fill="#211010"/>
              <path id="Trazado_205509" data-name="Trazado 205509" d="M218.475,277.818c.376,2.479-.968,4.739-3,5.047s-3.988-1.451-4.363-3.931.968-4.739,3-5.047,3.988,1.451,4.364,3.931" transform="translate(-80.14 -179.557)" fill="#211010"/>
              <path id="Trazado_205510" data-name="Trazado 205510" d="M446.316,334.847a.368.368,0,0,1-.35-.511c.038-.09,3.716-9.041-2.567-12.976a8.167,8.167,0,0,0-6.4-1.325c-3.519.87-5.555,4.313-5.575,4.347a.368.368,0,0,1-.638-.369,10.743,10.743,0,0,1,6.03-4.693,8.875,8.875,0,0,1,6.973,1.414c6.817,4.27,2.9,13.792,2.856,13.888a.368.368,0,0,1-.329.224" transform="translate(-385.053 -209.222)" fill="#52180d"/>
              <path id="Trazado_205511" data-name="Trazado 205511" d="M431.294,339.22a.368.368,0,0,1-.239-.658c.06-.048,6.114-4.737,10.832-.274a.369.369,0,0,1-.506.536c-4.258-4.028-9.813.273-9.869.317a.37.37,0,0,1-.218.078" transform="translate(-379.314 -220.543)" fill="#52180d"/>
              <path id="Trazado_205512" data-name="Trazado 205512" d="M266.258,256.264a.369.369,0,0,1-.3-.656,9.962,9.962,0,0,0,3.346-4.83c.567-2.242-.4-5.218-2.027-6.245a2.6,2.6,0,0,0-3.215.49c-.035.029-.092.081-.166.147-3.882,3.529-6.131,2.8-7.336,1.571-2.21-2.262-5.226-23.22-5.563-25.6a.374.374,0,0,1,.314-.416.368.368,0,0,1,.416.314c.9,6.407,3.633,23.422,5.359,25.189,1.421,1.454,3.546.918,6.313-1.6.085-.077.149-.136.19-.17a3.319,3.319,0,0,1,4.079-.547c1.9,1.2,3,4.491,2.349,7.049A10.527,10.527,0,0,1,266.4,256.2a.362.362,0,0,1-.141.064" transform="translate(-145.567 -144.719)" fill="#52180d"/>
              <path id="Trazado_205513" data-name="Trazado 205513" d="M262.544,353.381c2.5.269,4.063-1.369,5.023-3.156a31.607,31.607,0,0,0-11.079-1.932c1.029,2.093,2.928,4.751,6.055,5.088" transform="translate(-144.818 -228.365)" fill="#d14f8e"/>
              <path id="Trazado_205514" data-name="Trazado 205514" d="M252.477,339.482a15.181,15.181,0,0,0,1,2.576,31.608,31.608,0,0,1,11.079,1.932,14.381,14.381,0,0,0,1.381-4.1c-5.029-2.217-13.459-.4-13.459-.4" transform="translate(-141.804 -222.131)" fill="#211010"/>
              <path id="Trazado_205515" data-name="Trazado 205515" d="M173.972,152.3s44.367-19.608,49.921-58.6c0,0,46.383,44.171,59.754,27.618,0,0-.138-43.493-32.539-53.6-17.775-5.542-30.739-.758-30.739-.758-23.344-1.234-35.888.98-58.284,24.551-23.059,24.27-12.572,74.638,11.886,60.78" transform="translate(-123.972 -42.653)" fill="#211010"/>
              <path id="Trazado_205516" data-name="Trazado 205516" d="M308.8,193.049l.005-.79a79.823,79.823,0,0,0,79.817-70.9l.786.089a80.613,80.613,0,0,1-80.608,71.6" transform="translate(-284.664 -79.574)" fill="#211010"/>
              <path id="Trazado_205517" data-name="Trazado 205517" d="M226.92,145.134c-29.929-4.089-56.851-24.717-68.586-52.551l.728-.307c11.63,27.582,38.307,48.022,67.965,52.075Z" transform="translate(-70.479 -60.503)" fill="#211010"/>
              <path id="Trazado_205518" data-name="Trazado 205518" d="M176.855,136.36s-6.826-49.121,29.368-63.777c48.354-19.581,69.414,20.567,73.544,34.4a.953.953,0,0,0,1.862-.2c.453-4.645-1.139-13.138-7.119-26.111C266.748,63.83,255.1,53.312,227.016,54.577c-22.527,1.014-52.372,16.692-57.334,42.978-4.25,22.514,3.838,45.027,7.173,38.806" transform="translate(-128.645 -35.718)" fill="#244eff"/>
              <path id="Trazado_205519" data-name="Trazado 205519" d="M433.629,131.265a.4.4,0,0,1-.2-.054.4.4,0,0,1-.148-.553,59.646,59.646,0,0,1,8.731-11.58.405.405,0,0,1,.582.563,58.8,58.8,0,0,0-8.612,11.422.4.4,0,0,1-.351.2" transform="translate(-380.812 -77.996)" fill="#1b3abf"/>
              <path id="Trazado_205520" data-name="Trazado 205520" d="M441.893,131.552a.4.4,0,0,1-.362-.585A30.661,30.661,0,0,1,453.1,118.452a.4.4,0,1,1,.416.7,29.842,29.842,0,0,0-11.264,12.18.4.4,0,0,1-.363.225" transform="translate(-394.669 -77.629)" fill="#1b3abf"/>
              <path id="Trazado_205521" data-name="Trazado 205521" d="M368.675,87.628a.405.405,0,0,1-.183-.767,59.643,59.643,0,0,1,13.646-4.907.405.405,0,0,1,.179.79,58.8,58.8,0,0,0-13.461,4.841.408.408,0,0,1-.182.043" transform="translate(-298.373 -53.729)" fill="#1b3abf"/>
              <path id="Trazado_205522" data-name="Trazado 205522" d="M362.045,75.05a.4.4,0,0,1-.27-.707A30.664,30.664,0,0,1,377.157,67a.4.4,0,1,1,.129.8,29.851,29.851,0,0,0-14.972,7.149.4.4,0,0,1-.27.1" transform="translate(-291.084 -43.926)" fill="#1b3abf"/>
              <path id="Trazado_205523" data-name="Trazado 205523" d="M413.429,38.783S426.64,19.236,411.328,0c0,0-16.488,13.576,2.1,38.78" transform="translate(-346.969 -0.003)" fill="#244eff"/>
              <path id="Trazado_205524" data-name="Trazado 205524" d="M459.085,93.974s-16.531-16.834-38.424-5.651c0,0,10.028,18.858,38.424,5.651" transform="translate(-392.865 -55.397)" fill="#244eff"/>
              <path id="Trazado_205525" data-name="Trazado 205525" d="M415.594,62.5a.39.39,0,0,1-.127-.021.405.405,0,0,1-.257-.512,28.58,28.58,0,0,0,.17-17.332.4.4,0,0,1,.773-.24,29.4,29.4,0,0,1-.174,17.827.405.405,0,0,1-.385.278" transform="translate(-349.346 -28.925)" fill="#1b3abf"/>
              <path id="Trazado_205526" data-name="Trazado 205526" d="M426.553,59.872a.4.4,0,0,1-.4-.337,146.243,146.243,0,0,1-1.824-16.59.405.405,0,0,1,.384-.426.4.4,0,0,1,.426.384,145.219,145.219,0,0,0,1.813,16.5.4.4,0,0,1-.332.467.39.39,0,0,1-.068.006" transform="translate(-362.002 -27.879)" fill="#1b3abf"/>
              <path id="Trazado_205527" data-name="Trazado 205527" d="M455.553,102.25a21.767,21.767,0,0,1-3.1-.285l-10.518-1.538a.4.4,0,0,1-.342-.459.409.409,0,0,1,.459-.342l10.518,1.538c2.262.331,4.436.545,6.143-.463a.405.405,0,0,1,.413.7,6.847,6.847,0,0,1-3.569.853" transform="translate(-400.305 -65.32)" fill="#1b3abf"/>
              <path id="Trazado_205528" data-name="Trazado 205528" d="M451.14,111.779a29.177,29.177,0,0,1-9.414-1.548.405.405,0,1,1,.262-.766,28.483,28.483,0,0,0,15.481.788.405.405,0,1,1,.184.789,28.81,28.81,0,0,1-6.513.738" transform="translate(-398.904 -71.76)" fill="#1b3abf"/>
              <path id="Trazado_205529" data-name="Trazado 205529" d="M413.446,94.795s8.871-6.539,3.393-11.74S401.5,86.316,400.071,90.4s6.548,10.213,13.375,4.4" transform="translate(-345.257 -53.381)" fill="#1b3abf"/>
            </g>
          </g>
          <g id="Grupo_982716" data-name="Grupo 982716" transform="translate(159.843)">
            <g id="Grupo_982715" data-name="Grupo 982715" transform="translate(0 0)" clip-path="url(#clip-path-4)">
              <path id="Trazado_205429" data-name="Trazado 205429" d="M28.877,620.627S48.353,656.915,69.2,668.666c0,0-7.047,21.006-23.819,26.945,0,0-33.8-40.914-42.042-60.49C-3.315,619.327,1.363,581.83,5.414,561.1c9.162,7.611,19.4,12.082,30.329,15.236Z" transform="translate(0 -363.095)" fill="#e6a07e"/>
              <path id="Trazado_205430" data-name="Trazado 205430" d="M47.332,544.562l-1.66,10.711c-10.932-3.154-21.166-7.625-30.329-15.236.97-4.964,1.905-8.977,2.64-11.487Z" transform="translate(-9.929 -342.03)" fill="#dc8765"/>
              <path id="Trazado_205431" data-name="Trazado 205431" d="M207.07,104.663s4.536,37.195-7.753,53.051-21.435,20.774-37.581,23.667-61.618-4.71-67-14.487-14.308-39.819-8.883-59.849,121.218-2.382,121.218-2.382" transform="translate(-54.463 -63.081)" fill="#211010"/>
              <path id="Trazado_205432" data-name="Trazado 205432" d="M194.416,373.875s6.06-2.761,23.858-.815,20.325,2.39,20.325,2.39l-15.554,21.564-23.9-9.918Z" transform="translate(-125.808 -240.962)" fill="#ff6248"/>
              <path id="Trazado_205433" data-name="Trazado 205433" d="M239.36,336.085l.082-17.494-36.827,5.334.641,16.7c12.478,1.745,24.565-.285,36.1-4.544" transform="translate(-131.113 -206.164)" fill="#dc8765"/>
              <path id="Trazado_205434" data-name="Trazado 205434" d="M240.535,368.163c-11.539,4.259-23.626,6.289-36.1,4.545l.1,2.482s-.845,26.985,18.148,28.564,17.831-29.3,17.831-29.3Z" transform="translate(-132.289 -238.243)" fill="#e6a07e"/>
              <path id="Trazado_205435" data-name="Trazado 205435" d="M114.458,65.346s-.525,21.332,0,46.579c.422,20.438,17.184,40.094,42.172,41.18,23.486,1.021,47.651-8.943,54.256-41.995s.865-59.869-29.141-66.54S121.973,39.8,114.458,65.346" transform="translate(-73.915 -26.718)" fill="#e6a07e"/>
              <path id="Trazado_205436" data-name="Trazado 205436" d="M212.525,87.095c.125-.18.207-.282.207-.282s-.074.1-.207.282" transform="translate(-137.527 -56.179)" fill="#ff6248"/>
              <path id="Trazado_205437" data-name="Trazado 205437" d="M358.738,240.3l5.072-19.306s17.453-6.773,18.753,11.254-17.641,19.347-23.825,8.052" transform="translate(-232.143 -142.199)" fill="#e6a07e"/>
              <path id="Trazado_205438" data-name="Trazado 205438" d="M308.464,158.141s3.9-4.654-4.675-10.184-11.517-4.21-12.827-1.325c-1.195,2.632.825,6.5,5.688,9.477,5.838,3.579,9.7,4.7,11.814,2.033" transform="translate(-188.067 -93.275)" fill="#211010"/>
              <path id="Trazado_205439" data-name="Trazado 205439" d="M142.5,154.016s-3.147-5.193,6.169-9.355,12.024-2.41,12.879.641c.781,2.783-1.8,6.295-7.063,8.5-6.314,2.649-10.3,3.175-11.985.212" transform="translate(-91.879 -92.024)" fill="#211010"/>
              <path id="Trazado_205440" data-name="Trazado 205440" d="M293.719,215.411c.053,2.46,1.732,4.42,3.751,4.376s3.612-2.073,3.56-4.533-1.732-4.42-3.751-4.376-3.612,2.073-3.56,4.533" transform="translate(-190.067 -136.462)" fill="#211010"/>
              <path id="Trazado_205441" data-name="Trazado 205441" d="M167.595,214.736c.053,2.46,1.732,4.42,3.751,4.376s3.612-2.073,3.56-4.533-1.732-4.419-3.751-4.376-3.613,2.073-3.56,4.533" transform="translate(-108.451 -136.025)" fill="#211010"/>
              <path id="Trazado_205442" data-name="Trazado 205442" d="M373.016,251.562a.361.361,0,0,0,.318-.518c-.042-.086-4.085-8.679,1.881-12.845a8.014,8.014,0,0,1,6.207-1.611,9.988,9.988,0,0,1,5.677,3.988.362.362,0,1,0,.607-.393,10.542,10.542,0,0,0-6.14-4.3,8.71,8.71,0,0,0-6.766,1.727c-6.473,4.518-2.163,13.66-2.119,13.753a.361.361,0,0,0,.333.2" transform="translate(-240.23 -152.55)" fill="#632114"/>
              <path id="Trazado_205443" data-name="Trazado 205443" d="M381.789,255.364a.362.362,0,0,0,.2-.656c-.061-.044-6.224-4.344-10.63.262a.362.362,0,0,0,.522.5c3.976-4.156,9.631-.213,9.688-.173a.364.364,0,0,0,.218.066" transform="translate(-240.245 -163.618)" fill="#632114"/>
              <path id="Trazado_205444" data-name="Trazado 205444" d="M217.88,181.922a.362.362,0,0,0,.135-.694,9.775,9.775,0,0,1-4.29-3.853c-1.05-2.011-.8-5.072.519-6.422a2.55,2.55,0,0,1,3.18-.261c.041.02.106.057.192.1,4.507,2.489,6.489,1.285,7.36-.164,1.6-2.661-.277-23.356-.5-25.707a.367.367,0,0,0-.394-.327.362.362,0,0,0-.327.395c.589,6.323,1.844,23.187.6,25.267-1.027,1.711-3.176,1.681-6.391-.1-.1-.055-.173-.1-.22-.119a3.256,3.256,0,0,0-4.018.4c-1.541,1.574-1.842,4.967-.644,7.263a10.332,10.332,0,0,0,4.647,4.183.359.359,0,0,0,.15.029" transform="translate(-137.412 -93.571)" fill="#632114"/>
              <path id="Trazado_205445" data-name="Trazado 205445" d="M232.353,268.359a9.971,9.971,0,0,0,6.619-3.962.291.291,0,0,0-.485-.322,8.844,8.844,0,0,1-9.574,3.431.291.291,0,0,0-.15.561,9.548,9.548,0,0,0,3.591.291" transform="translate(-147.894 -170.803)" fill="#632114"/>
              <path id="Trazado_205446" data-name="Trazado 205446" d="M95.174,228.782l-.3-19.959s-15.321-10.758-20.9,6.432,12.491,23.011,21.2,13.527" transform="translate(-47.189 -132.982)" fill="#e6a07e"/>
              <path id="Trazado_205447" data-name="Trazado 205447" d="M96.962,238.094a.366.366,0,0,1-.137-.07.362.362,0,0,1-.048-.509c.061-.074,6.046-7.448,1.251-12.922a8.014,8.014,0,0,0-5.64-3.052,9.986,9.986,0,0,0-6.468,2.512.362.362,0,0,1-.5-.528,10.544,10.544,0,0,1,6.993-2.707,8.707,8.707,0,0,1,6.154,3.3c5.2,5.938-1.173,13.78-1.238,13.859a.361.361,0,0,1-.373.119" transform="translate(-55.206 -142.889)" fill="#632114"/>
              <path id="Trazado_205448" data-name="Trazado 205448" d="M98.673,241.347a.362.362,0,0,1-.039-.686c.07-.028,7.084-2.725,10.258,2.8a.362.362,0,0,1-.627.361c-2.864-4.988-9.3-2.514-9.365-2.49a.359.359,0,0,1-.227.013" transform="translate(-63.679 -155.294)" fill="#632114"/>
              <path id="Trazado_205449" data-name="Trazado 205449" d="M284.034,260.215c.755,3.422,6.561,5.05,12.969,3.637s10.991-5.333,10.236-8.755-6.561-5.05-12.969-3.637-10.991,5.333-10.236,8.755" transform="translate(-183.748 -162.394)" fill="#dc8765"/>
              <path id="Trazado_205450" data-name="Trazado 205450" d="M157.731,260.094c-.76,3.421-6.57,5.039-12.975,3.614s-10.982-5.352-10.221-8.772,6.57-5.039,12.975-3.614,10.982,5.352,10.221,8.772" transform="translate(-87.005 -162.299)" fill="#dc8765"/>
              <path id="Trazado_205451" data-name="Trazado 205451" d="M115.151,2.511c23.33-4.745,45.569,4.116,53.861,8.035C168.3,5.666,170.522,0,172.161,0c2.166,0,1.7,9.544,1.51,12.46l.26.048c.925-2.17,3.735-7.948,6.663-5.852,1.994,1.427-.405,4.438-2.919,6.826,7.568,2.448,25.155,7.208,27.218,28.1,2.446,24.76-8.379,36.433-8.379,36.433s-3.18.849-14.994-3.58c-3.569-1.338-13.761-50.055-26.658-37.368-27.4,26.951-41.115,24.157-64.8,28.8-8.334,1.634-5.195,7.083-8.524-8.8S85.646,8.513,115.151,2.511" transform="translate(-52.286 -0.004)" fill="#211010"/>
              <path id="Trazado_205452" data-name="Trazado 205452" d="M40.2,885.547c-3.951,18.97-16.147,82.272-16.243,86.2l63.547-.487.368-44.885s14.4.731,16.292.422l.491,45.773s49.4,4.692,64.268,5.461c0,0-1.87-72.511-5-100.173C124.4,892.453,80.163,895.5,40.2,885.547" transform="translate(-15.502 -568.073)" fill="#ffcce4"/>
              <path id="Trazado_205453" data-name="Trazado 205453" d="M77.994,793.182s-4.007,18.341-8.012,37.568c39.965,9.956,84.2,6.906,123.718-7.685a207.754,207.754,0,0,0-3.79-23.841Z" transform="translate(-45.286 -513.276)" fill="#ffabd2"/>
              <path id="Trazado_205454" data-name="Trazado 205454" d="M413.171,943.934a.277.277,0,0,1-.254-.269c-.98-46.4-8.353-118.663-8.409-119a.275.275,0,0,1,.228-.317.27.27,0,0,1,.318.228c.056.338,7.434,72.635,8.417,119.079a.278.278,0,0,1-.27.283h-.029" transform="translate(-261.758 -533.439)" fill="#211010"/>
              <path id="Trazado_205455" data-name="Trazado 205455" d="M366.792,687.474s-9.862,21.813-31.672,31.661a56.522,56.522,0,0,0,23.9,21.113s21.963-17.3,31.92-36.062c8.033-15.138,6.714-52.9,4.525-73.91-9.8,6.765-20.4,10.306-31.565,12.474Z" transform="translate(-216.859 -407.858)" fill="#e6a07e"/>
              <path id="Trazado_205456" data-name="Trazado 205456" d="M414.691,610.52l.7,10.817c11.169-2.168,21.762-5.709,31.566-12.474-.524-5.031-1.1-9.111-1.606-11.677Z" transform="translate(-268.35 -386.445)" fill="#dc8765"/>
              <path id="Trazado_205457" data-name="Trazado 205457" d="M223.573,901.048a.276.276,0,0,1-.253-.289l2.292-45.766a.276.276,0,0,1,.289-.262.27.27,0,0,1,.262.29l-2.292,45.766a.276.276,0,0,1-.289.261h-.009" transform="translate(-144.512 -553.105)" fill="#211010"/>
              <path id="Trazado_205458" data-name="Trazado 205458" d="M225.212,916.326a.276.276,0,1,1,.046-.55c.33.028,8.093.566,9.219-7.6,1.16-8.42,1.687-23.008,1.692-23.154a.276.276,0,1,1,.551.02c-.005.146-.532,14.762-1.7,23.21-1.2,8.691-9.725,8.083-9.811,8.076" transform="translate(-145.572 -572.533)" fill="#211010"/>
              <path id="Trazado_205459" data-name="Trazado 205459" d="M356.523,898.094a.265.265,0,0,1-.1-.027c-.2-.093-19.729-9.571-32.273-28.426a.276.276,0,1,1,.459-.306c12.456,18.725,31.858,28.142,32.052,28.235a.276.276,0,0,1-.142.524" transform="translate(-209.733 -562.476)" fill="#211010"/>
              <path id="Trazado_205460" data-name="Trazado 205460" d="M65.159,873.184a.276.276,0,0,1-.252-.3c.024-.286.31-.407,1.516-.914,4.164-1.751,16.835-7.081,26.716-24.145a.276.276,0,0,1,.478.275c-9.975,17.226-22.775,22.609-26.98,24.378a10.733,10.733,0,0,0-1.208.55.276.276,0,0,1-.27.153" transform="translate(-42.001 -548.548)" fill="#211010"/>
              <path id="Trazado_205461" data-name="Trazado 205461" d="M184.5,1013.539c-3.083-.256-4.86-.491-4.915-.5a.276.276,0,0,1-.236-.311.293.293,0,0,1,.311-.237,193.806,193.806,0,0,0,39.8.281.276.276,0,0,1,.053.55,201.951,201.951,0,0,1-35.008.215" transform="translate(-116.058 -655.193)" fill="#211010"/>
              <path id="Trazado_205462" data-name="Trazado 205462" d="M257.31,1021.058a.278.278,0,0,1-.138-.051l-6.6-4.747a.276.276,0,0,1-.063-.386.279.279,0,0,1,.385-.063l6.6,4.747a.276.276,0,0,1-.184.5" transform="translate(-162.072 -657.309)" fill="#211010"/>
              <path id="Trazado_205463" data-name="Trazado 205463" d="M112.321,401.621l-3.993,11.563s-3.264-11.234-3.631-12.43-29.536-2.447-29.536-2.447-28.994,13.907-50.477,36.838c0,0-6.328,8.2,30.311,21.978,0,0-1.975,32.16-3.749,42.275S42.8,544.875,42.8,544.875A74.183,74.183,0,0,0,85,570.309s8.222-3.514,12.081-10.657c0,0,6.912,12.237,16.911,15.4s31.808-12.282,40.994-21.78,10.652-15.907,10.652-15.907l-3.369-60.455s17.488-2.744,31.691-22.087c0,0-12.9-35.592-19.541-39.876s-39.533-12.617-39.533-12.617Z" transform="translate(-15.703 -257.749)" fill="#ffcc3e"/>
              <path id="Trazado_205464" data-name="Trazado 205464" d="M415.216,580.547l-.06,4.9s22.486-3.96,35.224-16.9c0,0,.192-7.914-3.474-10.094a108.29,108.29,0,0,1-31.691,22.087" transform="translate(-268.651 -361.385)" fill="#ff6248"/>
              <path id="Trazado_205465" data-name="Trazado 205465" d="M47.261,523.568l-.007,4.9s-22.43-4.265-34.991-17.371c0,0-.084-7.916,3.61-10.046a108.289,108.289,0,0,0,31.388,22.515" transform="translate(-7.935 -324.237)" fill="#ff6248"/>
              <path id="Trazado_205466" data-name="Trazado 205466" d="M195.62,386.736s-18.86-8.8-20.385-10.092a98.925,98.925,0,0,0-10.46,10.791s14.479,16.6,19.479,18.18Z" transform="translate(-106.627 -243.731)" fill="#ff6248"/>
              <path id="Trazado_205467" data-name="Trazado 205467" d="M273.9,390.028s14.417-7.9,16.135-8.92a59.9,59.9,0,0,1,11.7,13.568s-14.552,15.116-19.744,15.85Z" transform="translate(-177.24 -246.62)" fill="#ff6248"/>
              <path id="Trazado_205468" data-name="Trazado 205468" d="M241.063,439.936a.276.276,0,0,1,.3-.254h0a.276.276,0,0,1,.252.3L230.365,586.446a.276.276,0,0,1-.3.254h0a.276.276,0,0,1-.252-.3" transform="translate(-148.714 -284.522)" fill="#ff6248"/>
              <path id="Trazado_205469" data-name="Trazado 205469" d="M283.926,526.562l27.655.76a3.168,3.168,0,0,1,3.076,2.988l1.246,22.034a3.167,3.167,0,0,1-1.359,2.783l-13.6,9.424a3.168,3.168,0,0,1-3.562.032l-17.393-11.6a3.168,3.168,0,0,1-1.394-2.956l2.092-20.616a3.168,3.168,0,0,1,3.239-2.847" transform="translate(-180.27 -340.743)" fill="#ff6248"/>
              <rect id="Rectángulo_338388" data-name="Rectángulo 338388" width="1.104" height="33.948" transform="translate(100.298 190.921) rotate(-86.813)" fill="#fff"/>
              <path id="Trazado_205470" data-name="Trazado 205470" d="M257.709,434.923a.273.273,0,0,1,.024-.095l2.576-5.733a.276.276,0,1,1,.5.226l-2.555,5.688-9.845,152.015a.276.276,0,0,1-.294.258h0a.276.276,0,0,1-.253-.293" transform="translate(-160.393 -277.567)" fill="#ff6248"/>
              <path id="Trazado_205471" data-name="Trazado 205471" d="M243.276,433.644c-5.817-.484-8.632-2.849-8.8-2.992a.276.276,0,0,1,.361-.417c.056.048,5.712,4.776,17.537,2.117a.276.276,0,0,1,.121.54,30.5,30.5,0,0,1-9.222.752" transform="translate(-151.673 -278.366)" fill="#ff6248"/>
              <path id="Trazado_205472" data-name="Trazado 205472" d="M267.514,450.537a1.743,1.743,0,1,1-1.593-1.882,1.743,1.743,0,0,1,1.593,1.882" transform="translate(-170.859 -290.326)" fill="#ff6248"/>
              <path id="Trazado_205473" data-name="Trazado 205473" d="M262.71,508.3a1.743,1.743,0,1,1-1.593-1.882,1.743,1.743,0,0,1,1.593,1.882" transform="translate(-167.75 -327.704)" fill="#ff6248"/>
              <path id="Trazado_205474" data-name="Trazado 205474" d="M257.8,567.152a1.743,1.743,0,1,1,.1-2.463,1.743,1.743,0,0,1-.1,2.463" transform="translate(-164.933 -365.052)" fill="#ff6248"/>
              <path id="Trazado_205475" data-name="Trazado 205475" d="M253.7,634.968a1.743,1.743,0,1,1,.1-2.463,1.743,1.743,0,0,1-.1,2.463" transform="translate(-162.277 -408.937)" fill="#ff6248"/>
              <path id="Trazado_205476" data-name="Trazado 205476" d="M244.392,758.779a1.743,1.743,0,1,1,.1-2.463,1.743,1.743,0,0,1-.1,2.463" transform="translate(-156.256 -489.056)" fill="#ff6248"/>
              <path id="Trazado_205477" data-name="Trazado 205477" d="M248.9,700.661a1.743,1.743,0,1,1,.1-2.463,1.744,1.744,0,0,1-.1,2.463" transform="translate(-159.17 -451.447)" fill="#ff6248"/>
              <path id="Trazado_205478" data-name="Trazado 205478" d="M238.972,832.071a1.743,1.743,0,1,1,.1-2.463,1.743,1.743,0,0,1-.1,2.463" transform="translate(-152.749 -536.483)" fill="#ff6248"/>
            </g>
          </g>
        </g>
      </g>
    </g>
  </g>
</svg>
