<svg xmlns="http://www.w3.org/2000/svg" xmlns:xlink="http://www.w3.org/1999/xlink" width="245" height="297.588" viewBox="0 0 245 297.588">
  <defs>
    <clipPath id="clip-path">
      <rect id="Rect치ngulo_339751" data-name="Rect치ngulo 339751" width="245" height="297.588" rx="17" transform="translate(-1388 -9741.364)" fill="#a6bbfd"/>
    </clipPath>
    <clipPath id="clip-path-2">
      <rect id="Rect치ngulo_339750" data-name="Rect치ngulo 339750" width="289.8" height="154.503" fill="#c4d1ff"/>
    </clipPath>
    <clipPath id="clip-path-3">
      <path id="Trazado_218881" data-name="Trazado 218881" d="M187.748,296.138h155.54a109.813,109.813,0,0,0,17.082-22.229q.421-.716.829-1.442a109.74,109.74,0,0,0,6.58-93.866v0a109.258,109.258,0,0,0-41.967-51.77q-3.119-2.049-6.423-3.908a109.92,109.92,0,0,0-27.35-10.9q-1.548-.39-3.107-.727-2.436-.535-4.881-.952c-1.184-.2-2.369-.386-3.552-.546q-5.336-.733-10.676-.936-4.6-.179-9.183.029H260.6c-.1.008-.191.01-.278.015-.43.025-.69.037-.69.037a109.829,109.829,0,0,0-71.886,187.2Z" transform="translate(-155.702 -108.778)" fill="#c8ede2"/>
    </clipPath>
  </defs>
  <g id="Enmascarar_grupo_620" data-name="Enmascarar grupo 620" transform="translate(1388 9741.364)" clip-path="url(#clip-path)">
    <g id="Grupo_995976" data-name="Grupo 995976" transform="translate(-1329.022 -9728.097) rotate(42)">
      <g id="Grupo_995975" data-name="Grupo 995975" clip-path="url(#clip-path-2)">
        <path id="Trazado_218832" data-name="Trazado 218832" d="M148.667,36.874A77,77,0,0,1,114.326,22.9C99.157,11.909,67.415-6.8,37.134,2.521-4.632,15.372-4.818,52.549,6.061,72.743S94.087,152.076,194.1,142.666c89.5-8.421,106.94-104.8,59.207-122.245-41.4-15.127-55.524,23.416-104.642,16.454" transform="translate(0 0)" fill="#c4d1ff"/>
        <path id="Trazado_218833" data-name="Trazado 218833" d="M10.983,3.891A5.628,5.628,0,1,1,3.891.277a5.628,5.628,0,0,1,7.092,3.614" transform="translate(147.923 22.664)" fill="#c4d1ff"/>
        <path id="Trazado_218834" data-name="Trazado 218834" d="M6.784,3.392A3.392,3.392,0,1,1,3.392,0,3.392,3.392,0,0,1,6.784,3.392" transform="translate(182.544 147.719)" fill="#c4d1ff"/>
        <path id="Trazado_218835" data-name="Trazado 218835" d="M6.619,2.345A3.392,3.392,0,1,1,2.345.167,3.392,3.392,0,0,1,6.619,2.345" transform="translate(161.629 28.169)" fill="#c4d1ff"/>
        <path id="Trazado_218836" data-name="Trazado 218836" d="M6.784,3.392A3.392,3.392,0,1,1,3.392,0,3.392,3.392,0,0,1,6.784,3.392" transform="translate(4.545 85.437)" fill="#c4d1ff"/>
        <path id="Trazado_218837" data-name="Trazado 218837" d="M6.784,3.392A3.392,3.392,0,1,1,3.392,0,3.392,3.392,0,0,1,6.784,3.392" transform="translate(283.016 57.994)" fill="#c4d1ff"/>
      </g>
    </g>
    <g id="Grupo_996021" data-name="Grupo 996021" transform="translate(-1567.652 -9753.235)">
      <g id="Grupo_996021-2" data-name="Grupo 996021" transform="translate(201.5 56.875)">
        <path id="Trazado_218844" data-name="Trazado 218844" d="M477.018,159.53q-1.806-.072-3.629-.116c6.644-5.433,10.714-12.709,10.714-20.71,0-16.809-17.932-30.436-40.053-30.436-10.64,0-20.3,3.159-27.476,8.3-11.4-21.724-33.028-36.388-57.832-36.388-1.911,0-3.8.092-5.673.263-3.549-13.557-15.1-23.5-28.807-23.5-16.535,0-29.939,14.451-29.939,32.279a34.865,34.865,0,0,0,.581,6.343c-.852-.049-1.709-.077-2.571-.077-25.065,0-46.2,20.853-52.748,49.332q-.65.045-1.3.1c-38.943,3.046-36.2,52.137,2.9,52.137h234.6C504.452,197.06,505.653,160.664,477.018,159.53Z" transform="translate(-210.433 -56.95)" fill="#e9f4f0"/>
      </g>
      <g id="Grupo_996023" data-name="Grupo 996023" transform="translate(57.985 207.989)">
        <g id="Grupo_996022" data-name="Grupo 996022">
          <path id="Trazado_218845" data-name="Trazado 218845" d="M259.989,295.2q-1.368-.054-2.75-.088c5.035-4.117,8.119-9.63,8.119-15.693,0-12.736-13.588-23.062-30.35-23.062a35.879,35.879,0,0,0-20.82,6.291c-8.64-16.461-25.026-27.574-43.821-27.574-1.449,0-2.882.071-4.3.2-2.689-10.273-11.44-17.8-21.828-17.8-12.529,0-22.685,10.95-22.685,24.459a26.446,26.446,0,0,0,.44,4.807c-.646-.037-1.294-.058-1.948-.058-18.993,0-35.01,15.8-39.969,37.381q-.493.034-.983.072c-29.509,2.308-27.434,39.507,2.2,39.507H259.056C280.777,323.638,281.686,296.059,259.989,295.2Z" transform="translate(-57.985 -217.47)" fill="#e9f4f0"/>
        </g>
      </g>
      <g id="Grupo_996025" data-name="Grupo 996025" transform="translate(101.203 92.762)">
        <g id="Grupo_996024" data-name="Grupo 996024" transform="translate(0)">
          <path id="Trazado_218846" data-name="Trazado 218846" d="M158.939,191.776q0,2.317,0,4.6,0,2.591-.013,5.119c-.062,10.916-.336,21.007-1.55,29.654-.111.789-.226,1.564-.355,2.325-2.736,16.566-9.4,27.259-25.6,27.259-9.565,0-15.809-3.728-19.878-10.2a32.237,32.237,0,0,1-2.763-5.594,53.175,53.175,0,0,1-2.418-8.519q-.551-2.69-.943-5.611c-1.181-8.626-1.443-18.673-1.5-29.521-.018-2.79-.018-5.633-.018-8.52v-.992c0-6.713.385-14.064,1.1-21.622.31-3.3.686-6.633,1.12-9.977,4.206-32.418,13.953-65.106,25.3-65.106,4.052,0,7.895,4.157,11.353,10.977a74.629,74.629,0,0,1,3.055,6.943c4.8,12.4,8.618,29.713,10.867,46.973.766,5.828,1.346,11.651,1.727,17.275C158.757,182.29,158.939,187.184,158.939,191.776Z" transform="translate(-103.893 -95.071)" fill="#828946"/>
        </g>
        <path id="Trazado_218847" data-name="Trazado 218847" d="M147.02,113.674l-22.68,10.42a49.869,49.869,0,0,1,19.625-17.363A74.637,74.637,0,0,1,147.02,113.674Z" transform="translate(-105.091 -95.754)" fill="#666832"/>
        <path id="Trazado_218848" data-name="Trazado 218848" d="M139.444,152.461c-.324.292-17.54,15.692-34.384,21.055.31-3.3.686-6.633,1.12-9.977C121.412,158.186,139.2,152.536,139.444,152.461Z" transform="translate(-103.961 -98.434)" fill="#666832"/>
        <path id="Trazado_218849" data-name="Trazado 218849" d="M158.416,181.278c-15.1,12.978-36.847,20.143-54.505,24.049-.018-2.79-.018-5.633-.018-8.52,18.018-9.884,38.334-23.191,52.8-32.8C157.455,169.831,158.035,175.654,158.416,181.278Z" transform="translate(-103.893 -99.11)" fill="#666832"/>
        <path id="Trazado_218850" data-name="Trazado 218850" d="M160.6,202.677q0,2.591-.013,5.119c-8.471,11.221-28.286,9.781-28.286,9.781S152.916,206.9,160.6,202.677Z" transform="translate(-105.557 -101.376)" fill="#666832"/>
        <path id="Trazado_218851" data-name="Trazado 218851" d="M157.847,239.615c-.111.789-.226,1.564-.355,2.325-2.418,14.626-7.895,24.673-20.294,26.825a29.812,29.812,0,0,1-4.552.426c-.252,0-.5.008-.757.008-9.565,0-15.809-3.728-19.878-10.2a129.578,129.578,0,0,0,21.121-5.743q1.768-.658,3.552-1.387A84.555,84.555,0,0,0,157.847,239.615Z" transform="translate(-104.369 -103.541)" fill="#666832"/>
        <path id="Trazado_218852" data-name="Trazado 218852" d="M146.095,325.74l-24.058-.081,10.442-71.229c1.178-.439,5.205-2.022,6.392-2.51Z" transform="translate(-104.956 -104.262)" fill="#2d1d1d"/>
        <path id="Trazado_218853" data-name="Trazado 218853" d="M127.594,244.776a130.822,130.822,0,0,1-21.145.093q-.551-2.69-.943-5.611A65.743,65.743,0,0,0,127.594,244.776Z" transform="translate(-103.988 -103.52)" fill="#666832"/>
      </g>
      <g id="Grupo_996029" data-name="Grupo 996029" transform="translate(200.865 55.665)">
        <g id="Grupo_996026" data-name="Grupo 996026" transform="translate(0 16.793)">
          <path id="Trazado_218854" data-name="Trazado 218854" d="M263.533,73.7s-33.219,3.074-45.309,14.725c-9.6,9.257-8.953,34.382-7.878,47.433.1,1.265,50.939-6.876,51.635-8.893C274.475,90.755,263.533,73.7,263.533,73.7Z" transform="translate(-209.758 -73.515)" fill="#2d1d1d"/>
          <path id="Trazado_218855" data-name="Trazado 218855" d="M275.34,113.027c-5.769-5.218-20.465-22.773-20.465-22.773-6.943-7.86,3.136-13.877,3.136-13.877,3.188-2.858,8.823-3.71,11.89-.723,5.8,5.646,18.572,23.094,18.572,23.094l22.12,19.461-10.642,14.08S279.314,116.623,275.34,113.027Z" transform="translate(-212.259 -73.52)" fill="#2d1d1d"/>
          <path id="Trazado_218856" data-name="Trazado 218856" d="M265.222,127.137a.169.169,0,0,1-.06-.01.184.184,0,0,1-.114-.233c6.435-18.654,6.519-32.1,5.455-40.1-1.151-8.659-3.858-12.966-3.886-13.008a.184.184,0,1,1,.311-.2c.027.042,2.771,4.4,3.937,13.129,1.073,8.04,1,21.557-5.469,40.295A.185.185,0,0,1,265.222,127.137Z" transform="translate(-212.997 -73.503)" fill="#ebdbc4"/>
        </g>
        <g id="Grupo_996027" data-name="Grupo 996027" transform="translate(35.494 15.985)">
          <path id="Trazado_218857" data-name="Trazado 218857" d="M253.348,72.645l-4.425,5.524a6.664,6.664,0,0,0-.5,7.61h0a7.171,7.171,0,0,0,11.96.48l1.148-1.6Z" transform="translate(-247.461 -72.645)" fill="#f3ae91"/>
        </g>
        <g id="Grupo_996028" data-name="Grupo 996028" transform="translate(33.666)">
          <path id="Trazado_218858" data-name="Trazado 218858" d="M267.85,73.919a3.929,3.929,0,1,0,4.1-3.748A3.929,3.929,0,0,0,267.85,73.919Z" transform="translate(-246.828 -56.515)" fill="#f3ae91"/>
          <path id="Trazado_218859" data-name="Trazado 218859" d="M276.478,63.405c.619,3.912-2.643,7.68-7.286,8.415s-8.909-1.841-9.529-5.755,2.643-7.68,7.286-8.415S275.858,59.492,276.478,63.405Z" transform="translate(-246.344 -55.774)" fill="#8e544a"/>
          <path id="Trazado_218860" data-name="Trazado 218860" d="M262.331,84.28a10.009,10.009,0,0,0,1.43-.074c4.465-.529,7.382-4.028,8.285-8.628.028-.152.057-.3.079-.458a15.579,15.579,0,0,0,.217-2.418c0-.137,0-.278,0-.42,0-.212-.009-.424-.017-.641-.008-.266-.024-.537-.049-.806-.875-9.942-4.316-12.8-11.141-12.934s-12.475,5.647-12.62,12.925a12.131,12.131,0,0,0,2.859,7.869A15.007,15.007,0,0,0,262.331,84.28Z" transform="translate(-245.695 -55.796)" fill="#f3ae91"/>
          <path id="Trazado_218861" data-name="Trazado 218861" d="M261.458,85.682h-.02A15.342,15.342,0,0,1,251.4,80.1a.184.184,0,1,1,.286-.233,14.97,14.97,0,0,0,9.794,5.452.184.184,0,0,1-.019.367Z" transform="translate(-245.861 -57.079)" fill="#de704b"/>
          <path id="Trazado_218862" data-name="Trazado 218862" d="M272.549,75.992a4.029,4.029,0,0,0,.83-.026,15.579,15.579,0,0,0,.217-2.418c0-.137,0-.278,0-.42,0-.212-.009-.424-.017-.641a3.665,3.665,0,0,0-.787-.133c-1.523-.1-2.81.632-2.881,1.634S271.024,75.888,272.549,75.992Z" transform="translate(-246.948 -56.642)" fill="#de704b"/>
          <path id="Trazado_218863" data-name="Trazado 218863" d="M258.677,71.049a.955.955,0,0,0,.591.777,1.017,1.017,0,0,0,.165.087c.048.023.1.04.144.058a1.221,1.221,0,0,0,.15.054,3.37,3.37,0,0,0,.811.151,1.344,1.344,0,0,0,.259.02,3.384,3.384,0,0,0,.8-.072,1.789,1.789,0,0,0,.4-.1,1.621,1.621,0,0,0,.186-.07c.472-.19.779-.488.784-.817s-.287-.648-.746-.852a2.78,2.78,0,0,0-.712-.223c0-.006-.011-.006-.011-.006a2.578,2.578,0,0,0-.371-.05c-.006-.006-.006-.006-.011,0a2.437,2.437,0,0,0-.275-.02,2.068,2.068,0,0,0-.264,0,3.332,3.332,0,0,0-.543.069,1.529,1.529,0,0,0-.278.066,2.267,2.267,0,0,0-.3.1C258.985,70.411,258.678,70.709,258.677,71.049Z" transform="translate(-246.29 -56.504)" fill="#fff"/>
          <path id="Trazado_218864" data-name="Trazado 218864" d="M266.54,71.213a.886.886,0,0,0,.485.725v0a1.111,1.111,0,0,0,.111.063,2.517,2.517,0,0,0,.384.169c.043.007.086.024.134.037a4.235,4.235,0,0,0,.678.12,2.255,2.255,0,0,0,.259.02,3.8,3.8,0,0,0,.845-.081,3.422,3.422,0,0,0,.361-.1,2.123,2.123,0,0,0,.258-.111.971.971,0,0,0,.63-.763c.007-.346-.286-.659-.749-.874a2.971,2.971,0,0,0-.749-.225,1.676,1.676,0,0,0-.286-.036.01.01,0,0,0-.016,0,2.062,2.062,0,0,0-.248-.019c-.087,0-.173,0-.255.008a3.711,3.711,0,0,0-.515.058c-.092.019-.185.042-.273.067a2.07,2.07,0,0,0-.279.1C266.843,70.564,266.541,70.868,266.54,71.213Z" transform="translate(-246.751 -56.513)" fill="#fff"/>
          <path id="Trazado_218865" data-name="Trazado 218865" d="M250.739,73.795l.308,3.609a.77.77,0,0,1-1.471.377L246.448,70.7l5.271-.527Z" transform="translate(-245.574 -56.515)" fill="#8e544a"/>
          <path id="Trazado_218866" data-name="Trazado 218866" d="M266.617,68.555c-.024.707,4.583.867,4.608.161s-1.757-1.524-3.029-1.568S266.642,67.849,266.617,68.555Z" transform="translate(-246.756 -56.338)" fill="#683731"/>
          <path id="Trazado_218867" data-name="Trazado 218867" d="M262.894,68.437c-.022.706-4.63.566-4.609-.14s1.852-1.406,3.125-1.368S262.916,67.731,262.894,68.437Z" transform="translate(-246.267 -56.325)" fill="#683731"/>
          <path id="Trazado_218868" data-name="Trazado 218868" d="M267.02,71.288a1.576,1.576,0,0,0,.144.718,2.515,2.515,0,0,0,.384.169c.043.007.086.024.134.037a4.235,4.235,0,0,0,.678.12,2.256,2.256,0,0,0,.259.02,3.8,3.8,0,0,0,.845-.081,3.42,3.42,0,0,0,.361-.1,2.124,2.124,0,0,0,.258-.111,1.553,1.553,0,0,0,.167-.665,1.591,1.591,0,0,0-.287-.972,2.971,2.971,0,0,0-.749-.225,1.676,1.676,0,0,0-.286-.036.01.01,0,0,0-.016,0,2.062,2.062,0,0,0-.248-.019c-.087,0-.173,0-.255.008a3.709,3.709,0,0,0-.515.058c-.092.019-.185.042-.273.067a2.066,2.066,0,0,0-.279.1A1.594,1.594,0,0,0,267.02,71.288Z" transform="translate(-246.779 -56.513)" fill="#2d1d1d"/>
          <path id="Trazado_218869" data-name="Trazado 218869" d="M259.241,71.039a1.581,1.581,0,0,0,.225.873c.048.023.1.04.144.058a1.223,1.223,0,0,0,.15.054,3.37,3.37,0,0,0,.811.151,1.344,1.344,0,0,0,.259.02,3.384,3.384,0,0,0,.8-.072,1.788,1.788,0,0,0,.4-.1,1.621,1.621,0,0,0,.186-.07,1.6,1.6,0,0,0,.039-1.669,2.78,2.78,0,0,0-.712-.223c0-.006-.011-.006-.011-.006a2.579,2.579,0,0,0-.371-.05c-.006-.006-.006-.006-.011,0a2.437,2.437,0,0,0-.275-.02,2.068,2.068,0,0,0-.264,0,3.332,3.332,0,0,0-.543.069,1.528,1.528,0,0,0-.278.066,2.267,2.267,0,0,0-.3.1A1.558,1.558,0,0,0,259.241,71.039Z" transform="translate(-246.323 -56.504)" fill="#2d1d1d"/>
          <path id="Trazado_218870" data-name="Trazado 218870" d="M268.344,57.984a13.68,13.68,0,0,1-2.964,5.953c-2.252,2.83-6.179,6.074-12.993,8.3,0,0-4.025.152-4.969-.673C243.27,67.942,244.163,49.2,268.344,57.984Z" transform="translate(-245.519 -55.665)" fill="#8e544a"/>
          <path id="Trazado_218871" data-name="Trazado 218871" d="M252.8,72.558a.184.184,0,0,1-.057-.359c5.695-1.864,10.037-4.637,12.907-8.244a13.661,13.661,0,0,0,2.925-5.864.187.187,0,0,1,.208-.157.184.184,0,0,1,.156.208,13.733,13.733,0,0,1-3,6.043c-2.915,3.663-7.317,6.478-13.081,8.364A.2.2,0,0,1,252.8,72.558Z" transform="translate(-245.935 -55.798)" fill="#683731"/>
          <path id="Trazado_218872" data-name="Trazado 218872" d="M255.552,73.518a3.929,3.929,0,1,1-3.849-4.007A3.927,3.927,0,0,1,255.552,73.518Z" transform="translate(-245.647 -56.476)" fill="#f3ae91"/>
          <path id="Trazado_218873" data-name="Trazado 218873" d="M260.836,74.6c.1,1-1.046,1.937-2.564,2.092s-2.832-.531-2.933-1.532,1.046-1.937,2.564-2.092S260.735,73.595,260.836,74.6Z" transform="translate(-246.094 -56.683)" fill="#de704b"/>
          <path id="Trazado_218874" data-name="Trazado 218874" d="M261.268,77.564c-.2,1.169.908,2.339,2.482,2.613s3.014-.453,3.219-1.622-1.243-.419-2.817-.693S261.472,76.393,261.268,77.564Z" transform="translate(-246.441 -56.919)" fill="#fff"/>
          <path id="Trazado_218875" data-name="Trazado 218875" d="M248.5,65.495h0a.184.184,0,0,1,0-.368h0a27.541,27.541,0,0,0,16.846-6.034.184.184,0,1,1,.245.275A27.927,27.927,0,0,1,248.5,65.495Z" transform="translate(-245.683 -55.863)" fill="#683731"/>
          <path id="Trazado_218876" data-name="Trazado 218876" d="M266.256,75.84a.184.184,0,0,1-.082-.348c.417-.208.908-.531.876-.89-.054-.6-1.48-1.24-2.367-1.5a.184.184,0,0,1-.133-.176V71.452a.184.184,0,1,1,.368,0v1.338c.557.177,2.415.838,2.5,1.781.04.454-.323.875-1.079,1.251A.183.183,0,0,1,266.256,75.84Z" transform="translate(-246.635 -56.579)" fill="#de704b"/>
        </g>
      </g>
      <g id="Grupo_996032" data-name="Grupo 996032" transform="translate(149.977 105.666)">
        <path id="Trazado_218877" data-name="Trazado 218877" d="M187.748,296.138h155.54a109.813,109.813,0,0,0,17.082-22.229q.421-.716.829-1.442a109.74,109.74,0,0,0,6.58-93.866v0a109.258,109.258,0,0,0-41.967-51.77q-3.119-2.049-6.423-3.908a109.92,109.92,0,0,0-27.35-10.9q-1.548-.39-3.107-.727-2.436-.535-4.881-.952c-1.184-.2-2.369-.386-3.552-.546q-5.336-.733-10.676-.936-4.6-.179-9.183.029H260.6c-.1.008-.191.01-.278.015-.43.025-.69.037-.69.037a109.829,109.829,0,0,0-71.886,187.2Z" transform="translate(-155.702 -108.778)" fill="#c8ede2"/>
        <g id="Grupo_996031" data-name="Grupo 996031" clip-path="url(#clip-path-3)">
          <path id="Trazado_218878" data-name="Trazado 218878" d="M380.144,184.138v0A109.26,109.26,0,0,0,345.1,127.451q-2.834-2.429-5.874-4.692a109.913,109.913,0,0,0-25.743-14.288q-1.487-.583-2.989-1.116c-.547.048-.94.089-.94.089l-5.24-1.043-6.084-1.834s-3.35-1.3-4.373-.481-45.587,5.045-46.3,5.2,3.049,1.289,3.049,1.289l-2.359,1.934-3.351,3.684-6.024.879s-7.93,2.231-8.671,2.617,2.532,2.375,2.532,2.375l7.333-1.057,13.07-2.363.352,3.144,2.845,8,2.626-6.926s1.454-2.634,2.45-3.223.541,3.553.541,3.553l-.97,4.549s-.073,2.787-.276,4.625.331,1.2,2.326,2.122,2.682-3.2,3.091-4.783,0,0,.919.1,1.513,3.2,1.205,3.86-1.045,3.143-1.045,3.143,4.144,2.552,5.984,2.755,6.265,2.322,6.265,2.322l-.666,1.789s-2.859,2.713-2.96,3.631-5.443.8-7.413-.349-7.138-7.074-7.138-7.074l-8.079-2.755-5.978,3.532s-2.048-4.648-2.152-5.826a32.843,32.843,0,0,0-1.77-5.085l2.505-1.586-2.251-.713s-8.8-2.6-9.713-2.7l-6.9-.761-9.176,2.946-6.921,3.663-5.415,4.758-7.688,8.468-4.155,10.255.806,3.246,4.361.582a58.715,58.715,0,0,1,6.44.71c1.355.384.157,2.812.157,2.812a39.365,39.365,0,0,0,5.088,2.422c2.019.691-.637,3.656-.637,3.656l-6.9,5.527s1.36,6.672,1.518,9.484.49,6.107.49,6.107l-3.448,3.811-2.267,5.8-.533,4.831-3.319,6.853,1.646,8.33,1.924,7.9,4.652,4.239,4.759,3.319,10.5-2.336s1.89-2.352,2.682-3.2,1.149.127,1.84.2,2.989-1.766,2.989-1.766l3.092-4.783,2.3.253,8.688-2.765,3.139-7.338,1.169-6.393,3.527-2.405,9.53-1.978,8.076-1.436,10.553-2.8,6.976-4.121c2.22-5.344-1.612-2.273-1.612-2.273s-5.856-1.808-7.646-2.47-3.91-.431-5.47-1.071-2.791-6.361-3.433-8.992,1.4-6.367,1.4-6.367a70.939,70.939,0,0,1-2.664-7.513c-1-3.6,3.5-8.462,3.5-8.462l1.53-3.324s2.048,4.651,1.566,6.925a38.321,38.321,0,0,0-.584,5.294c-.076.69.388,7.029.388,7.029l2.718,4.91-3.016,4.138,6.316,3.955,6.389-.927,5.369,1.989,8.719,1.2s2.2-.921,4.622-1.821,2.223-1.152,2.223-1.152-.081-5.6-.208-6.54a26.118,26.118,0,0,0-1.434-3.878l1.84,2.291,4.152,4.6,7.9,4.409s2.738,4.728,2.766,6.592,0,0-.69-.075,1.766,5.085,1.766,5.085l4.267-.693s-.789,2.938-1.5,5.189a52.522,52.522,0,0,0-1.118,8.025l-.071,6.978s.49,4.015.747,5.905,2.327.023,2.327.023a23.5,23.5,0,0,0,3.47-4.04,14.593,14.593,0,0,0,1.761-5.394l7.256-.367s2.224-3.248,2.3-3.938,5.851-.284,5.851-.284l1.487,3.423-.38,5.547.417,6.8,2.685.994-.64,1.561-1.609,1.919-.1,5.114-3.776,10.991,1.13,4.55,2.169-2.788-.208-4.445,2.242-7.671s2.887-.844,2.533.28,1.1,2.682,1.969,3.245,2.146-2.557,2.146-2.557a43.067,43.067,0,0,0,.274-6.725c-.256-1.89,17.456,4.266,18.147,2.246.5-1.457,8.129-17.671,9.869-17.357A110.345,110.345,0,0,0,380.144,184.138ZM290.2,139.344s-1.2,2.428-4.96-1.479l-3.761-3.908-4.55-.966-4.938-2.641s4.625-2.982,5.5-2.422,5.6,2.015,6.467,2.579,3.606,1.1,4.5,1.424-.1,3.018,2.1,4.193S290.2,139.344,290.2,139.344ZM306.14,157.4c-4.513-4.693-4.508-4.165-4.462-4.013l-2.036-4.622s2.067-1.868,1.837-3.989-3.832-3.27-1.022-3.4a35.96,35.96,0,0,1,7.129.786,4.577,4.577,0,0,1-.56,2.991l1.741,3.221-.38,5.546C307.7,155.943,311.154,162.611,306.14,157.4Z" transform="translate(-157.921 -108.487)" fill="#abd8c5"/>
          <g id="Grupo_996030" data-name="Grupo 996030" transform="translate(81.995 108.422)">
            <path id="Trazado_218879" data-name="Trazado 218879" d="M258.043,227.145c-1.227.563-.9-.332-4.063.949l-3.169,1.28s-.3,2.761-2.221,3.249a43.282,43.282,0,0,0-4.6,1.588s-3.165,5.472.822,5.214,9.48-3.612,9.48-3.612l3.04-2.226,8.3-5.6s2.4-4.859.431-3.912a32.819,32.819,0,0,0-3.73,2.15Z" transform="translate(-242.8 -223.948)" fill="#abd8c5"/>
            <path id="Trazado_218880" data-name="Trazado 218880" d="M336.157,232.535c-.715.154-4.7-1.683-3.679,1.69s.738,3.868.738,3.868l2.459-1.187Z" transform="translate(-248.045 -224.43)" fill="#abd8c5"/>
          </g>
        </g>
      </g>
      <path id="Trazado_218882" data-name="Trazado 218882" d="M317.052,211.726c-.119-.185-13.255-2.947-13.808.921S304.3,218.6,304.3,218.6l12.748-1.936Z" transform="translate(-14.364 -9.078)" fill="#634c49"/>
      <g id="Grupo_996034" data-name="Grupo 996034" transform="translate(298.866 188.452)">
        <g id="Grupo_996033" data-name="Grupo 996033" transform="translate(0 11.22)">
          <path id="Trazado_218883" data-name="Trazado 218883" d="M327.713,215.868h-5.244l-4.958,4.958,1.144-4.386-4.767,3.91s-.859-9.058,6.913-11.347S327.713,215.868,327.713,215.868Z" transform="translate(-313.859 -208.636)" fill="#f1a38f"/>
        </g>
        <path id="Trazado_218884" data-name="Trazado 218884" d="M341.245,199.185s5.684,3.722,6.576,15.721H334.689Z" transform="translate(-315.08 -196.862)" fill="#2d1d1d"/>
        <path id="Trazado_218885" data-name="Trazado 218885" d="M332.309,196.723c-4.322.119-14.347,3.757-14.347,3.757l-.043,2.7,5.348,5.173h0a13.008,13.008,0,0,0,9.042,3.228c6.055,0,10.964-3.325,10.964-7.427S338.363,196.556,332.309,196.723Z" transform="translate(-314.097 -196.717)" fill="#2d1d1d"/>
        <path id="Trazado_218886" data-name="Trazado 218886" d="M319.8,211.195a.183.183,0,0,1-.185-.178l-.208-7.042a.184.184,0,1,1,.368-.01l.208,7.041a.183.183,0,0,1-.179.189Z" transform="translate(-314.184 -197.131)" fill="#2d1e18"/>
        <path id="Trazado_218887" data-name="Trazado 218887" d="M321.808,211.856a.185.185,0,0,1-.182-.157l-.891-6.061a.184.184,0,0,1,.155-.209.187.187,0,0,1,.209.155l.891,6.061a.184.184,0,0,1-.155.209Z" transform="translate(-314.262 -197.227)" fill="#2d1e18"/>
        <path id="Trazado_218888" data-name="Trazado 218888" d="M315.253,201.043l4.14-.939-1.69,3.271s-2.42.491-2.819,0S313.471,200,315.253,201.043Z" transform="translate(-313.881 -196.915)" fill="#f1a38f"/>
      </g>
      <g id="Grupo_996035" data-name="Grupo 996035" transform="translate(337.625 177.497)">
        <path id="Trazado_218889" data-name="Trazado 218889" d="M355.047,200.484s-.659,16.335,6.458,22.621C361.505,223.105,360.1,207.9,355.047,200.484Z" transform="translate(-355.031 -185.983)" fill="#ccb65c"/>
        <path id="Trazado_218890" data-name="Trazado 218890" d="M364.641,207.462s-7.118,5.676-3.926,15.866C360.716,223.328,365.375,211.854,364.641,207.462Z" transform="translate(-355.316 -186.392)" fill="#ccb65c"/>
        <path id="Trazado_218891" data-name="Trazado 218891" d="M371.559,198.428s-7.529,20.872-13.09,24.064C358.469,222.492,377.146,217.885,371.559,198.428Z" transform="translate(-355.232 -185.863)" fill="#ccb65c"/>
        <path id="Trazado_218892" data-name="Trazado 218892" d="M360.838,217.633a.183.183,0,0,1-.154-.085c-3.189-4.974.891-17.318,1.067-17.842a.184.184,0,0,1,.349.118c-.042.126-4.2,12.7-1.106,17.525a.184.184,0,0,1-.155.283Z" transform="translate(-355.291 -185.93)" fill="#a5913c"/>
        <path id="Trazado_218893" data-name="Trazado 218893" d="M363.429,219.251a.186.186,0,0,1-.117-.042.184.184,0,0,1-.025-.259c4.929-5.977,3.264-30.966,3.246-31.218a.184.184,0,1,1,.367-.025c.072,1.035,1.694,25.389-3.33,31.478A.181.181,0,0,1,363.429,219.251Z" transform="translate(-355.512 -185.224)" fill="#a5913c"/>
        <path id="Trazado_218894" data-name="Trazado 218894" d="M366.083,192.2l-.85,2.241a4.784,4.784,0,0,0,6.055-5.69l-.017-.061-.965.3.675-1.12a4.784,4.784,0,1,0-7.226,5.821Z" transform="translate(-355.431 -185.08)" fill="#fff"/>
        <path id="Trazado_218895" data-name="Trazado 218895" d="M365.3,190.432a1.574,1.574,0,1,1,1.9,1.164A1.574,1.574,0,0,1,365.3,190.432Z" transform="translate(-355.63 -185.28)" fill="#f6b163"/>
        <path id="Trazado_218896" data-name="Trazado 218896" d="M363.54,200.067l1.268.04a2.96,2.96,0,0,0-3.956-3.285l-.037.014.461,1.169-.944-.928a2.961,2.961,0,1,0,4.125,3.994Z" transform="translate(-355.259 -185.757)" fill="#fff"/>
        <path id="Trazado_218897" data-name="Trazado 218897" d="M362.359,200.63a.974.974,0,1,1,.57-1.255A.976.976,0,0,1,362.359,200.63Z" transform="translate(-355.383 -185.881)" fill="#f6b163"/>
      </g>
      <g id="Grupo_996036" data-name="Grupo 996036" transform="translate(93.821 261.738)">
        <path id="Trazado_218898" data-name="Trazado 218898" d="M105.636,326.622a.185.185,0,0,1-.183-.161c-1.731-13.678.712-42.009.736-42.294a.188.188,0,0,1,.2-.168.185.185,0,0,1,.168.2c-.025.283-2.465,28.577-.737,42.215a.186.186,0,0,1-.16.206Z" transform="translate(-96.566 -275.118)" fill="#a5913c"/>
        <path id="Trazado_218899" data-name="Trazado 218899" d="M108.738,326.025a.184.184,0,0,1-.184-.178c-.426-13.318,4.723-32.278,4.775-32.468a.184.184,0,0,1,.356.1c-.053.19-5.186,19.1-4.763,32.359a.185.185,0,0,1-.178.19Z" transform="translate(-96.782 -275.659)" fill="#a5913c"/>
        <path id="Trazado_218900" data-name="Trazado 218900" d="M109.24,329.07a35.029,35.029,0,0,0,5.9-18.167s-6.918,11.759-7.344,18.167Z" transform="translate(-96.739 -276.694)" fill="#ccb65c"/>
        <path id="Trazado_218901" data-name="Trazado 218901" d="M109.171,281.416c-.261,3.053-.378,4.427-2.97,4.205s-2.474-1.6-2.213-4.649,3.158-6.407,3.158-6.407S109.433,278.363,109.171,281.416Z" transform="translate(-96.509 -274.565)" fill="#f6b163"/>
        <path id="Trazado_218902" data-name="Trazado 218902" d="M115.951,292.142c-.556,2.5-.808,3.62-2.927,3.147s-1.869-1.6-1.311-4.093,3.329-4.947,3.329-4.947S116.508,289.646,115.951,292.142Z" transform="translate(-96.946 -275.25)" fill="#f6b163"/>
        <path id="Trazado_218903" data-name="Trazado 218903" d="M105.45,324.661a.184.184,0,0,1-.178-.137c-5.963-22.2-1.033-27.991-.82-28.226a.184.184,0,0,1,.274.247c-.051.056-5,5.934.9,27.883a.184.184,0,0,1-.13.226A.217.217,0,0,1,105.45,324.661Z" transform="translate(-96.42 -275.835)" fill="#a5913c"/>
        <path id="Trazado_218904" data-name="Trazado 218904" d="M102.508,295.711c-1.117,2.216-1.62,3.213.261,4.162s2.385-.049,3.5-2.265.544-5.76.544-5.76S103.625,293.494,102.508,295.711Z" transform="translate(-96.371 -275.578)" fill="#f6b163"/>
        <path id="Trazado_218905" data-name="Trazado 218905" d="M106.394,328.424c.851-7.644-6.893-10.683-8.934-28.547,0,0-5.7,19.464,5.832,28.547Z" transform="translate(-96.051 -276.048)" fill="#ccb65c"/>
      </g>
      <g id="Grupo_996037" data-name="Grupo 996037" transform="translate(210.111 205.714)">
        <path id="Trazado_218906" data-name="Trazado 218906" d="M327.985,215.053a108.4,108.4,0,0,0-108.4,108.4H436.389A108.4,108.4,0,0,0,327.985,215.053Z" transform="translate(-219.58 -215.053)" fill="#a5913c"/>
      </g>
      <g id="Grupo_996043" data-name="Grupo 996043" transform="translate(121.775 250.508)">
        <g id="Grupo_996038" data-name="Grupo 996038" transform="translate(5.31 6.483)">
          <path id="Trazado_218907" data-name="Trazado 218907" d="M173.569,269.522c-23.3,0-42.183,25.6-42.183,57.172h84.367C215.753,295.119,196.866,269.522,173.569,269.522Z" transform="translate(-131.386 -269.522)" fill="#a5913c"/>
        </g>
        <g id="Grupo_996042" data-name="Grupo 996042" transform="translate(0 1.756)">
          <g id="Grupo_996041" data-name="Grupo 996041">
            <g id="Grupo_996039" data-name="Grupo 996039" transform="translate(0 49.88)">
              <path id="Trazado_218908" data-name="Trazado 218908" d="M125.745,329.5h42.627s-28-5.244-41.787-12.02A86.115,86.115,0,0,0,125.745,329.5Z" transform="translate(-125.745 -317.485)" fill="#ccb65c"/>
            </g>
            <g id="Grupo_996040" data-name="Grupo 996040" transform="translate(49.935)">
              <path id="Trazado_218909" data-name="Trazado 218909" d="M216.65,319.137a17.735,17.735,0,0,1,5.192-5.5,80.03,80.03,0,0,0-3.223-13.488c-4.06,8.232-13.247,19.815-33.382,23.131,0,0,13.78-26.96,28.3-34.824a60.708,60.708,0,0,0-7.085-10.312l-10.591,8.344,6.657-12.463a42.08,42.08,0,0,0-15.706-9.522c2.512,18.811-8.019,61.9-8.019,61.9h44q0-3.623-.3-7.144C217.23,320.576,216.65,319.137,216.65,319.137Z" transform="translate(-178.788 -264.5)" fill="#ccb65c"/>
            </g>
          </g>
        </g>
        <path id="Trazado_218910" data-name="Trazado 218910" d="M177.743,262.932a35.205,35.205,0,0,0-4.549-.3,36.2,36.2,0,0,0-16.577,4.083s11.89,38.86,2.16,38.86c-12.626,0-7.888-35.319-7.888-35.319a52.3,52.3,0,0,0-12.011,12.587l2.087,6.726L135.9,287.61c-.725,1.242-1.372,2.531-1.919,3.641,4.336,8.7,15.316,26.776,34.873,35.041h7.308C161.762,307.3,172.13,276.333,177.743,262.932ZM165.83,288.887c-6.2-11.5-1.589-16.8-1.589-16.8Z" transform="translate(-126.228 -262.635)" fill="#ccb65c"/>
      </g>
      <g id="Grupo_996045" data-name="Grupo 996045" transform="translate(347.687 63.409)">
        <path id="Trazado_218911" data-name="Trazado 218911" d="M446.05,260.407l9.909,62.459H425.991l9.909-62.459Z" transform="translate(-369.251 -75.406)" fill="#2d1d1d"/>
        <g id="Grupo_996044" data-name="Grupo 996044">
          <path id="Trazado_218912" data-name="Trazado 218912" d="M487.346,244.929l14.445-4.775-3.445-9.437-35.094-4.461,26.2-19.9-14.072-38.546-21.552-2.207,19.182-4.284-5.774-15.816-29.795,2.467,25.784-13.454-6.643-18.194c-3.4,1.449-8.151,3.152-10.267,2.411-2.363-.827,3.693-5.581,8.046-8.5l-8.391-22.983-8.53,2.766,5.146-12.037-5.146-14.1L435.176,70.1c1.2,1.145,2.268,2.171,2.268,2.171l-2.877-.5-6.884,18.857c3.124,1.8,9.76,7.054,9.76,7.054l-10.709-4.455-3.673,10.063h0l14.383,3.615v10.964l-20.464,2.079-1.333,3.652,9.439,6.626H413.228l-11.647,31.9-6.4,17.533c11.579,5.334,42.263,20.523,42.263,20.523l-48.041-4.7-9.315,25.57c7.988,1.024,19.386,2.143,15.037,8.963-1.88,2.947-12.885,1.421-17.617-.9l-11.788,39.694H509.167l-4.943-22Z" transform="translate(-365.719 -63.891)" fill="#545428"/>
        </g>
      </g>
      <g id="Grupo_996046" data-name="Grupo 996046" transform="translate(336.861 280.759)">
        <path id="Trazado_218913" data-name="Trazado 218913" d="M364.912,301.947l4.625,22.53a3.257,3.257,0,1,1-6.381,1.31,3.552,3.552,0,0,1-.065-.54l-.807-22.985a1.328,1.328,0,0,1,2.627-.314Z" transform="translate(-354.691 -295.128)" fill="#ebdbc4"/>
        <path id="Trazado_218914" data-name="Trazado 218914" d="M374.122,309.533c-.754-5.262-6.42-15.38-11.825-14.734s-8.531,11.813-8.025,17.1Z" transform="translate(-354.218 -294.77)" fill="#683731"/>
        <path id="Trazado_218915" data-name="Trazado 218915" d="M376.953,314.489l-1.691,12.041a2.735,2.735,0,1,1-5.416-.761,2.842,2.842,0,0,1,.195-.7l4.784-11.177a1.114,1.114,0,0,1,2.128.593Z" transform="translate(-355.133 -295.851)" fill="#ebdbc4"/>
        <path id="Trazado_218916" data-name="Trazado 218916" d="M379.485,320.648c.686-2.709-.041-8.764-2.8-9.533s-6.514,4.035-7.328,6.708Z" transform="translate(-355.106 -295.723)" fill="#683731"/>
      </g>
      <g id="Grupo_996047" data-name="Grupo 996047" transform="translate(306.792 198.567)">
        <path id="Trazado_218917" data-name="Trazado 218917" d="M336.323,214.695h-5.245l-4.958,4.958,1.145-4.386-4.768,3.909s-.858-9.058,6.914-11.347S336.323,214.695,336.323,214.695Z" transform="translate(-322.289 -207.462)" fill="#f1a38f"/>
        <path id="Trazado_218918" data-name="Trazado 218918" d="M322.485,219.467a.184.184,0,0,1-.183-.168c-.007-.066-.555-6.654,3.921-9.989a.184.184,0,1,1,.22.3c-4.314,3.213-3.781,9.6-3.775,9.66a.184.184,0,0,1-.167.2Z" transform="translate(-322.278 -207.568)" fill="#2d1e18"/>
        <path id="Trazado_218919" data-name="Trazado 218919" d="M326.336,220.215a.193.193,0,0,1-.046-.006.185.185,0,0,1-.132-.225l1.555-5.924a.182.182,0,0,1,.224-.131.184.184,0,0,1,.132.225l-1.555,5.923A.183.183,0,0,1,326.336,220.215Z" transform="translate(-322.505 -207.84)" fill="#2d1e18"/>
      </g>
      <g id="Grupo_996050" data-name="Grupo 996050" transform="translate(386.354 241.206)">
        <g id="Grupo_996048" data-name="Grupo 996048" transform="translate(4.879 7.431)">
          <path id="Trazado_218920" data-name="Trazado 218920" d="M460.324,260.648c26.7,0,48.347,29.338,48.347,65.526H411.976C411.976,289.986,433.622,260.648,460.324,260.648Z" transform="translate(-411.976 -260.648)" fill="#917f34"/>
        </g>
        <g id="Grupo_996049" data-name="Grupo 996049">
          <path id="Trazado_218921" data-name="Trazado 218921" d="M518.113,329.4H469.257s32.093-6.009,47.893-13.776A98.6,98.6,0,0,1,518.113,329.4Z" transform="translate(-410.453 -256.439)" fill="#d6c063"/>
          <path id="Trazado_218922" data-name="Trazado 218922" d="M418.53,319.434s-6.167-4.878-10.654-8.226a91.656,91.656,0,0,1,3.694-15.459c4.653,9.434,15.184,22.71,38.26,26.51,0,0-15.794-30.9-32.43-39.913a69.551,69.551,0,0,1,8.12-11.818l12.138,9.563-7.628-14.284a48.232,48.232,0,0,1,18-10.915c-2.878,21.56,9.191,70.945,9.191,70.945H406.793q0-4.153.34-8.188A66.32,66.32,0,0,0,418.53,319.434Z" transform="translate(-406.793 -252.88)" fill="#d6c063"/>
          <path id="Trazado_218923" data-name="Trazado 218923" d="M460.247,325.712h8.376c22.416-9.47,35-30.186,39.969-40.159-4.887-10.025-11.547-18.32-19.378-24.059l-13.752,31.514,7.187-35.573a41.483,41.483,0,0,0-19-4.68,40.217,40.217,0,0,0-5.213.342C464.869,268.455,476.753,303.949,460.247,325.712Zm10.65-9.447,22.153-36.082S488.286,306.818,470.9,316.265Z" transform="translate(-409.819 -252.755)" fill="#d6c063"/>
        </g>
      </g>
      <g id="Grupo_996051" data-name="Grupo 996051" transform="translate(170.117 232.3)">
        <path id="Trazado_218924" data-name="Trazado 218924" d="M228.7,244.261a36.1,36.1,0,0,0-36.1,36.1v39.182l9.138.74,2.152-16.388c4.308,2.922,10.711,3.351,10.711,3.351l1.592,12.3,9.139.74,1.52-13.184,7.52-.234,2.375,12.679,9.138.74,1.028-13.184h7.3l2.126,12.444,9.139.74-.671-39.922A36.1,36.1,0,0,0,228.7,244.261Z" transform="translate(-178.004 -243.351)" fill="#683731"/>
        <path id="Trazado_218925" data-name="Trazado 218925" d="M290.578,299.557l-11.335,3.336,6.518,1.962A10,10,0,0,0,290.578,299.557Z" transform="translate(-183.081 -246.591)" fill="#ebdbc4"/>
        <path id="Trazado_218926" data-name="Trazado 218926" d="M254.112,279.23,268.6,278a10.351,10.351,0,0,1,10.888,7.686l2.964,11.291,4.641,8.705-7.123,6.708-14.7-4.91-11.155-3.357Z" transform="translate(-181.609 -245.325)" fill="#683731"/>
        <path id="Trazado_218927" data-name="Trazado 218927" d="M281.85,272.436l-11.786,7.793S282.108,287.927,281.85,272.436Z" transform="translate(-182.543 -245.001)" fill="#683731"/>
        <path id="Trazado_218928" data-name="Trazado 218928" d="M267.467,294.5a2.051,2.051,0,1,0-2.05,2.051A2.051,2.051,0,0,0,267.467,294.5Z" transform="translate(-182.151 -246.174)" fill="#2d1d1d"/>
        <path id="Trazado_218929" data-name="Trazado 218929" d="M276.412,304.749l-12.556,3.7,7.213,2.349A11.92,11.92,0,0,0,276.412,304.749Z" transform="translate(-182.18 -246.895)" fill="#ebdbc4"/>
        <path id="Trazado_218930" data-name="Trazado 218930" d="M251.564,292.966a.183.183,0,0,1-.18-.148,12.558,12.558,0,0,1,2.433-10.678.184.184,0,1,1,.267.253,12.189,12.189,0,0,0-2.339,10.353.184.184,0,0,1-.144.216A.162.162,0,0,1,251.564,292.966Z" transform="translate(-181.432 -245.567)" fill="#2d1d1d"/>
        <path id="Trazado_218931" data-name="Trazado 218931" d="M258.69,278.643l-9.739-6.442a.184.184,0,0,1,.2-.307l9.632,6.371,1.745-.15a.188.188,0,0,1,.2.168.185.185,0,0,1-.168.2Z" transform="translate(-181.302 -244.968)" fill="#2d1d1d"/>
        <path id="Trazado_218932" data-name="Trazado 218932" d="M266.131,271.262l4.509-10.381a32.309,32.309,0,0,0-2.8-4.742l-3.369,9.651-.694-14.268a29.179,29.179,0,0,0-7.851-5.176l.29,8.836L251.6,244.769a38.165,38.165,0,0,0-7.807-1.354c.016,1.074.037,1.971.037,1.971l-2.561-2.08a57.146,57.146,0,0,0-11.975.931s24.155,2.49,30.8,32.334l6.855-.584,5.959-8.668a20.287,20.287,0,0,0-.623-2.335Z" transform="translate(-180.155 -243.294)" fill="#2d1d1d"/>
        <path id="Trazado_218933" data-name="Trazado 218933" d="M214.852,309.68c-7.318-.726-12.471-3.384-15.332-7.9-5.012-7.913-1.171-18.934-1.132-19.046a.184.184,0,0,1,.346.124c-.039.108-3.819,10.965,1.1,18.726,2.8,4.416,7.857,7.017,15.037,7.73l19.752-.2a.175.175,0,0,1,.186.182.184.184,0,0,1-.183.186Z" transform="translate(-178.259 -245.598)" fill="#2d1d1d"/>
        <path id="Trazado_218934" data-name="Trazado 218934" d="M279.142,282.71a.185.185,0,0,1-.159-.091,10.15,10.15,0,0,0-6.235-4.234.184.184,0,1,1,.078-.36,10.543,10.543,0,0,1,6.475,4.408.185.185,0,0,1-.066.252A.188.188,0,0,1,279.142,282.71Z" transform="translate(-182.692 -245.329)" fill="#2d1d1d"/>
        <path id="Trazado_218935" data-name="Trazado 218935" d="M270.716,311.093a.189.189,0,0,1-.056-.008l-12.705-4a.184.184,0,0,1,.111-.351l12.705,4a.184.184,0,0,1-.056.36Z" transform="translate(-181.826 -247.011)" fill="#2d1d1d"/>
        <path id="Trazado_218936" data-name="Trazado 218936" d="M253.831,281.678c-2.59-.453-4.882-2.771-4.767-9.619Z" transform="translate(-181.313 -244.979)" fill="#f1a38f"/>
        <path id="Trazado_218937" data-name="Trazado 218937" d="M262.26,291.149l6.879,5.482S269.931,288.386,262.26,291.149Z" transform="translate(-182.086 -246.065)" fill="#2d1d1d"/>
        <path id="Trazado_218938" data-name="Trazado 218938" d="M257.608,311.279h-7.33a.185.185,0,0,1,0-.369h7.261a10.8,10.8,0,0,0,2.917-1.585.184.184,0,1,1,.242.278,11.025,11.025,0,0,1-3.057,1.663Z" transform="translate(-181.373 -247.16)" fill="#2d1d1d"/>
        <path id="Trazado_218939" data-name="Trazado 218939" d="M193.952,327.672l1.417,2.183h8.075l-1.747-4.883-9.138-.74-.566,4.4h1.4Z" transform="translate(-177.969 -248.036)" fill="#2d1d1d"/>
        <path id="Trazado_218940" data-name="Trazado 218940" d="M219.015,327.672l1.417,2.183h8.075l-1.747-4.883-9.138-.74-.566,4.4h1.4Z" transform="translate(-179.437 -248.036)" fill="#2d1d1d"/>
        <path id="Trazado_218941" data-name="Trazado 218941" d="M240.848,327.672l1.417,2.183h8.075l-1.747-4.883-9.138-.74-.566,4.4h1.4Z" transform="translate(-180.717 -248.036)" fill="#2d1d1d"/>
        <path id="Trazado_218942" data-name="Trazado 218942" d="M261.656,327.672l1.417,2.183h8.075l-1.747-4.883-9.138-.74-.566,4.4h1.4Z" transform="translate(-181.936 -248.036)" fill="#2d1d1d"/>
        <path id="Trazado_218943" data-name="Trazado 218943" d="M195.6,265.219,177.1,293.967l17.294-22.341Z" transform="translate(-177.096 -244.579)" fill="#683731"/>
        <path id="Trazado_218944" data-name="Trazado 218944" d="M189.785,284.038l-2.706-4.754L177.1,294.791l5.049-3.483.738-3.059,1.553,1.478,3.626-2.6-.645-5.142Z" transform="translate(-177.096 -245.403)" fill="#2d1d1d"/>
        <path id="Trazado_218945" data-name="Trazado 218945" d="M278.444,313.081s8.224-9.046,10.074-5.723c1.15,2.065-1.719,4.929-3.585,6.49a3.091,3.091,0,0,1-3.071.516Z" transform="translate(-183.035 -247.005)" fill="#f1a38f"/>
        <path id="Trazado_218946" data-name="Trazado 218946" d="M284.58,311.594c.737-.676,1.105-1.475.822-1.784s-1.112-.012-1.849.665-1.106,1.476-.823,1.785S283.842,312.271,284.58,311.594Z" transform="translate(-183.28 -247.184)" fill="#d68a7b"/>
        <path id="Trazado_218947" data-name="Trazado 218947" d="M286.1,312.341c.607-.556.91-1.214.677-1.469s-.915-.009-1.522.547-.909,1.214-.676,1.47S285.491,312.9,286.1,312.341Z" transform="translate(-183.389 -247.248)" fill="#d68a7b"/>
      </g>
      <path id="Trazado_218948" data-name="Trazado 218948" d="M314.213,224.165c0,1.338-.162,3.745-3.315,3.745s-8.1-2.407-8.1-3.745,2.556-2.422,5.71-2.422S314.213,222.827,314.213,224.165Z" transform="translate(-14.345 -9.731)" fill="#634c49"/>
      <path id="Trazado_218949" data-name="Trazado 218949" d="M350.993,219.737c0-1.489-3.607-2.7-8.057-2.7s-8.057,1.208-8.057,2.7,6.805,4.814,11.255,4.814S350.993,221.227,350.993,219.737Z" transform="translate(-16.225 -9.456)" fill="#634c49"/>
      <path id="Trazado_218950" data-name="Trazado 218950" d="M303.354,228.137c0-.779-3.663-2.517-5.993-2.517a2.208,2.208,0,0,0-2.443,2.517c0,.779,1.888,1.412,4.217,1.412S303.354,228.917,303.354,228.137Z" transform="translate(-13.883 -9.959)" fill="#634c49"/>
      <path id="Trazado_218951" data-name="Trazado 218951" d="M372.091,329.6s-4.655-10.4-22.948-10.563c0,0,10.227,9.9,15.881,10.563Z" transform="translate(-17.061 -15.432)" fill="#ccb65c"/>
      <path id="Trazado_218952" data-name="Trazado 218952" d="M372.511,329.471s5.155-11.89,16.047-12.556c0,0-1.759,11.146-11.023,12.556Z" transform="translate(-18.43 -15.308)" fill="#ccb65c"/>
      <path id="Trazado_218953" data-name="Trazado 218953" d="M516.394,328.956h6.745c-6.917-6.553-8.569-19.215-8.569-19.215C511.769,318.471,511.78,326.039,516.394,328.956Z" transform="translate(-26.642 -14.888)" fill="#545428"/>
      <g id="Grupo_996052" data-name="Grupo 996052" transform="translate(270.901 226.697)">
        <path id="Trazado_218954" data-name="Trazado 218954" d="M352.185,245.259a.826.826,0,0,1-1.177-.743,3.944,3.944,0,0,1,3.235-4.172c.452-.066,1.646.307,1.712.758s-1.02.808-1.468.876a2.3,2.3,0,0,0-1.827,2.527A.827.827,0,0,1,352.185,245.259Z" transform="translate(-288.07 -237.517)" fill="#ebdbc4"/>
        <path id="Trazado_218955" data-name="Trazado 218955" d="M359.814,244.8a.827.827,0,0,1-.88-.393c-.372-.636-.723-.695-.838-.714a1.982,1.982,0,0,0-1.325.471c-.345.3-1.335.736-1.632.391s.208-1.345.555-1.643a3.576,3.576,0,0,1,2.675-.848,2.844,2.844,0,0,1,1.992,1.509.826.826,0,0,1-.3,1.131A.836.836,0,0,1,359.814,244.8Z" transform="translate(-288.307 -237.617)" fill="#ebdbc4"/>
        <path id="Trazado_218956" data-name="Trazado 218956" d="M355.842,249.029a4.453,4.453,0,0,1-1.929-.5.826.826,0,0,1,.72-1.487,2.054,2.054,0,0,0,1.72.229,1.679,1.679,0,0,0,.769-.972c.114-.442.735-1.421,1.177-1.308s.538,1.277.424,1.719a3.288,3.288,0,0,1-1.676,2.06A2.835,2.835,0,0,1,355.842,249.029Z" transform="translate(-288.213 -237.79)" fill="#ebdbc4"/>
        <path id="Trazado_218957" data-name="Trazado 218957" d="M321.564,292.728a1.079,1.079,0,0,1-1.079-1.079V290.43a2.6,2.6,0,0,0-2.594-2.595,4.757,4.757,0,0,1-4.752-4.752v-4.021a2.6,2.6,0,0,0-2.594-2.594h-8.7a1.079,1.079,0,1,1,0-2.159h8.7a4.757,4.757,0,0,1,4.752,4.752v4.021a2.6,2.6,0,0,0,2.595,2.594,4.758,4.758,0,0,1,4.752,4.753v1.219A1.079,1.079,0,0,1,321.564,292.728Z" transform="translate(-285.126 -239.508)" fill="#8e6e2e"/>
        <path id="Trazado_218958" data-name="Trazado 218958" d="M294.007,275.28a9.865,9.865,0,0,1-9.854-9.853v-10.32a1.079,1.079,0,0,1,2.159,0v10.32a7.7,7.7,0,0,0,7.7,7.694,1.079,1.079,0,0,1,0,2.159Z" transform="translate(-284.153 -238.32)" fill="#8e6e2e"/>
        <path id="Trazado_218959" data-name="Trazado 218959" d="M352.383,237.362c-4.074,0-7.343,1.958-7.826,5.727h-9.379a4.758,4.758,0,0,0-4.753,4.752v21.708a2.6,2.6,0,0,1-2.594,2.595h-6.917a1.079,1.079,0,1,0,0,2.159h6.917a4.758,4.758,0,0,0,4.752-4.753V247.841a2.6,2.6,0,0,1,2.595-2.594h9.472c.972,3.95,6.568,7.4,10.589,7.4,4.416,0,7.022-6.982,7.022-11.4S356.8,237.362,352.383,237.362Z" transform="translate(-286.244 -237.342)" fill="#8e6e2e"/>
        <path id="Trazado_218960" data-name="Trazado 218960" d="M332.2,270.379a.431.431,0,0,1-.432-.432V248.24a4.11,4.11,0,0,1,4.105-4.105c.238,0,1.256.238,1.256.476s-1.018.387-1.256.387a3.246,3.246,0,0,0-3.242,3.242v21.707A.431.431,0,0,1,332.2,270.379Z" transform="translate(-286.943 -237.74)" fill="#f1a38f"/>
        <path id="Trazado_218961" data-name="Trazado 218961" d="M340.486,321.084a1.079,1.079,0,0,1-1.079-1.079V303.144a5.4,5.4,0,0,1,5.4-5.4,3.241,3.241,0,0,0,3.238-3.237V291.78a3.241,3.241,0,0,0-3.238-3.237H327.784a1.079,1.079,0,1,1,0-2.159H344.8a5.4,5.4,0,0,1,5.4,5.4v2.731a5.4,5.4,0,0,1-5.4,5.4,3.241,3.241,0,0,0-3.237,3.238v16.861A1.079,1.079,0,0,1,340.486,321.084Z" transform="translate(-286.646 -240.216)" fill="#8e6e2e"/>
        <path id="Trazado_218962" data-name="Trazado 218962" d="M341.317,321.185a.433.433,0,0,1-.432-.432V303.891a4.754,4.754,0,0,1,4.748-4.748c.238,0,1.058.2,1.058.436s-.82.427-1.058.427a3.89,3.89,0,0,0-3.885,3.885v16.861A.432.432,0,0,1,341.317,321.185Z" transform="translate(-287.477 -240.963)" fill="#f1a38f"/>
      </g>
      <g id="Grupo_996055" data-name="Grupo 996055" transform="translate(183.492 82)">
        <g id="Grupo_996053" data-name="Grupo 996053" transform="translate(41.361 33.211)">
          <path id="Trazado_218963" data-name="Trazado 218963" d="M270.532,129.845a2.716,2.716,0,0,0,1.337-4.54,19.451,19.451,0,0,0-9.808-4.795,48.248,48.248,0,0,0-5.633-.8l-.006,0c-5.349-.524-21.183-.786-21.183-.786l2.547,16.671c4.546,1.209,8.007.7,10.642-.7,2.129.287,6.458,1.091,7.588,1.713,1.014,1.113,2.889,3.588,3.551,4.481a2.707,2.707,0,0,0,4.877-1.365,2.7,2.7,0,0,0,3.986-3.31c-.04-.1-.162-.368-.37-.754a2.742,2.742,0,0,0,.274.039,2.718,2.718,0,0,0,2.37-4.1,12.689,12.689,0,0,0-1.311-1.751A2.706,2.706,0,0,0,270.532,129.845Z" transform="translate(-235.239 -118.917)" fill="#f3ae91"/>
          <path id="Trazado_218964" data-name="Trazado 218964" d="M272.1,132.01a.184.184,0,0,1-.159-.091,19.237,19.237,0,0,0-8.321-6.9c-1.448-.677-2.911-1.278-4.347-1.789a.184.184,0,0,1-.112-.235.187.187,0,0,1,.235-.112c1.448.514,2.921,1.121,4.38,1.8a19.62,19.62,0,0,1,8.482,7.045.184.184,0,0,1-.158.278Z" transform="translate(-236.64 -119.149)" fill="#de704b"/>
          <path id="Trazado_218965" data-name="Trazado 218965" d="M269.715,136.993a.185.185,0,0,1-.169-.112,19.255,19.255,0,0,0-7.321-7.952,48.321,48.321,0,0,0-4.961-2.8.184.184,0,0,1,.161-.331,48.612,48.612,0,0,1,5,2.823,19.655,19.655,0,0,1,7.462,8.119.184.184,0,0,1-.1.241A.19.19,0,0,1,269.715,136.993Z" transform="translate(-236.523 -119.319)" fill="#de704b"/>
          <path id="Trazado_218966" data-name="Trazado 218966" d="M265.041,138.724a.183.183,0,0,1-.148-.074c-.272-.367-2.7-3.629-4.066-5.083-.9-.953-3.149-1.818-6.512-2.5a.184.184,0,1,1,.073-.361c3.487.708,5.743,1.586,6.707,2.61,1.384,1.469,3.82,4.747,4.093,5.116a.183.183,0,0,1-.148.294Z" transform="translate(-236.348 -119.608)" fill="#de704b"/>
        </g>
        <g id="Grupo_996054" data-name="Grupo 996054">
          <path id="Trazado_218967" data-name="Trazado 218967" d="M234.843,137.1s-35.751-1.621-41.283-8c-2.7-3.113-3.438-11.631.378-16.472a162.957,162.957,0,0,1,25.944-25.8c5.416-4.144,12.874-4.181,16.263-.512,4.827,5.224,4.127,10.5,1.4,15.038a29.06,29.06,0,0,1-5.132,6.113,52.381,52.381,0,0,1-9.227,6.76l13.836,2.27Z" transform="translate(-191.304 -83.639)" fill="#2d1d1d"/>
          <path id="Trazado_218968" data-name="Trazado 218968" d="M225.159,115.5a.184.184,0,0,1-.089-.345,52.641,52.641,0,0,0,9.189-6.733,28.705,28.705,0,0,0,5.1-6.074.184.184,0,0,1,.315.19,29.072,29.072,0,0,1-5.165,6.154,53.106,53.106,0,0,1-9.262,6.786A.191.191,0,0,1,225.159,115.5Z" transform="translate(-193.277 -84.73)" fill="#ebdbc4"/>
          <path id="Trazado_218969" data-name="Trazado 218969" d="M238.232,118.462l-.031,0c-.174-.03-17.439-3-26.07-4.073a.184.184,0,1,1,.046-.365c8.64,1.069,25.913,4.045,26.086,4.075a.184.184,0,0,1-.031.366Z" transform="translate(-192.515 -85.419)" fill="#ebdbc4"/>
        </g>
      </g>
      <g id="Grupo_996056" data-name="Grupo 996056" transform="translate(280.222 241.746)">
        <path id="Trazado_218970" data-name="Trazado 218970" d="M314.292,265.47a.187.187,0,0,1-.05-.007c-14.637-4.1-13.222-11.91-13.206-11.989a.184.184,0,0,1,.361.073c-.015.075-1.339,7.56,12.945,11.561a.184.184,0,0,1-.05.361Z" transform="translate(-294.461 -253.328)" fill="#ccb65c"/>
        <path id="Trazado_218971" data-name="Trazado 218971" d="M309.321,263.5H309.3a.184.184,0,0,1-.16-.205,8.524,8.524,0,0,0-2.514-6.926,1.663,1.663,0,0,1-.363-.469.183.183,0,0,1,.12-.231.185.185,0,0,1,.23.115,3.214,3.214,0,0,0,.286.336,8.867,8.867,0,0,1,2.608,7.219A.184.184,0,0,1,309.321,263.5Z" transform="translate(-294.769 -253.465)" fill="#ccb65c"/>
        <path id="Trazado_218972" data-name="Trazado 218972" d="M303.333,260.031l-.027,0c-6.4-.949-8.337-3.928-8.974-4.906a2.292,2.292,0,0,0-.2-.28.182.182,0,0,1-.05-.254.187.187,0,0,1,.257-.05,1.385,1.385,0,0,1,.3.382c.614.944,2.482,3.818,8.719,4.744a.184.184,0,0,1-.027.366Z" transform="translate(-294.055 -253.397)" fill="#ccb65c"/>
      </g>
      <g id="Grupo_996057" data-name="Grupo 996057" transform="translate(370.785 274.432)">
        <path id="Trazado_218973" data-name="Trazado 218973" d="M398.083,304.812a.178.178,0,0,1-.081-.019c-7.127-3.5-7.41-16.025-7.418-16.556a.184.184,0,0,1,.181-.187.189.189,0,0,1,.187.182c0,.128.288,12.836,7.212,16.232a.184.184,0,0,1-.081.349Z" transform="translate(-390.274 -288.049)" fill="#ccb65c"/>
        <path id="Trazado_218974" data-name="Trazado 218974" d="M392.16,296.509a.184.184,0,0,1-.184-.177c-.109-2.857,1.354-5.205,4.349-6.976a2.257,2.257,0,0,0,.216-.134.186.186,0,0,1,.26.021.182.182,0,0,1-.018.257,2.062,2.062,0,0,1-.27.172c-2.869,1.7-4.272,3.933-4.169,6.645a.184.184,0,0,1-.177.191Z" transform="translate(-390.355 -288.115)" fill="#ccb65c"/>
        <path id="Trazado_218975" data-name="Trazado 218975" d="M395.127,303.266a.177.177,0,0,1-.049-.008l-4.688-1.3a.184.184,0,1,1,.1-.354l4.687,1.3a.184.184,0,0,1-.049.361Z" transform="translate(-390.255 -288.843)" fill="#ccb65c"/>
      </g>
      <g id="Grupo_996058" data-name="Grupo 996058" transform="translate(147.151 80.061)">
        <path id="Trazado_218976" data-name="Trazado 218976" d="M164.317,88.315s.153-.047.446-.112a20.731,20.731,0,0,1,8.015.064c1.034.189,1.512,1.374.658,1.986-1.509,1.082-3.811-.022-3.811-.022s-2.019,1.3-4.638-.677l-1.005-.388Z" transform="translate(-153.362 -81.947)" fill="#ffc06c"/>
        <path id="Trazado_218977" data-name="Trazado 218977" d="M173.475,90.426a.182.182,0,0,1-.15-.077.185.185,0,0,1,.041-.257.784.784,0,0,0,.344-.833,1.138,1.138,0,0,0-.927-.822,20.57,20.57,0,0,0-7.943-.065.184.184,0,1,1-.079-.36,20.947,20.947,0,0,1,8.089.062,1.511,1.511,0,0,1,1.22,1.1,1.154,1.154,0,0,1-.488,1.213A.185.185,0,0,1,173.475,90.426Z" transform="translate(-153.399 -81.936)" fill="#e0973f"/>
        <path id="Trazado_218978" data-name="Trazado 218978" d="M169.876,90.4a.191.191,0,0,1-.083-.02.184.184,0,0,1-.082-.247c.006-.011.549-1.111.143-1.712-.217-.323-.691-.458-1.4-.4a.184.184,0,1,1-.029-.367,1.783,1.783,0,0,1,1.739.561c.525.781-.093,2.03-.12,2.083A.183.183,0,0,1,169.876,90.4Z" transform="translate(-153.612 -81.935)" fill="#e0973f"/>
        <path id="Trazado_218979" data-name="Trazado 218979" d="M162.536,87.511s-.086-.136-.266-.377a20.745,20.745,0,0,0-6.13-5.164c-.908-.527-2.042.06-1.791,1.082.442,1.8,2.91,2.462,2.91,2.462s.691,2.3,3.963,2.5l1.016.36Z" transform="translate(-152.795 -81.591)" fill="#ffc06c"/>
        <path id="Trazado_218980" data-name="Trazado 218980" d="M162.259,87.308a.185.185,0,0,1-.148-.073,20.584,20.584,0,0,0-6.076-5.116,1.141,1.141,0,0,0-1.239.022.777.777,0,0,0-.281.857.184.184,0,0,1-.358.088,1.155,1.155,0,0,1,.418-1.239,1.511,1.511,0,0,1,1.645-.045,20.949,20.949,0,0,1,6.186,5.213.184.184,0,0,1-.147.295Z" transform="translate(-152.784 -81.58)" fill="#e0973f"/>
        <path id="Trazado_218981" data-name="Trazado 218981" d="M164.333,87.042c.3.015.544-.076.606-.255.089-.261-.045-1.153-.534-1.322s-1.146.45-1.235.71c-.061.178.069.4.313.57a1.371,1.371,0,0,0-.828.888c-.228.66-2.237,7.758-1.745,7.928s3.3-6.653,3.525-7.312A1.374,1.374,0,0,0,164.333,87.042Z" transform="translate(-153.177 -81.806)" fill="#2d1d1d"/>
        <path id="Trazado_218982" data-name="Trazado 218982" d="M161.479,88.393s-8.565-.857-8.582.7,3.239,1.938,3.239,1.938,5.025,3.024,5.649-.432l.209-2.156Z" transform="translate(-152.712 -81.965)" fill="#ffc06c"/>
        <path id="Trazado_218983" data-name="Trazado 218983" d="M152.886,89.266h0a.184.184,0,0,1-.182-.186.633.633,0,0,1,.233-.474c1.231-1.1,7.806-.481,8.552-.407a.184.184,0,1,1-.037.367c-1.981-.2-7.329-.528-8.27.314a.268.268,0,0,0-.109.2A.184.184,0,0,1,152.886,89.266Z" transform="translate(-152.701 -81.953)" fill="#e0973f"/>
        <path id="Trazado_218984" data-name="Trazado 218984" d="M157.43,85.822a.228.228,0,0,1-.044,0,.184.184,0,0,1-.135-.223c.014-.057.357-1.408,1.263-1.66a1.778,1.778,0,0,1,1.686.7.184.184,0,0,1-.262.26c-.5-.508-.951-.714-1.326-.61-.7.194-1,1.382-1.005,1.394A.184.184,0,0,1,157.43,85.822Z" transform="translate(-152.967 -81.715)" fill="#e0973f"/>
        <path id="Trazado_218985" data-name="Trazado 218985" d="M156.294,91.2a.185.185,0,0,1-.157-.088c-.038-.06-.9-1.494-.369-2.423.284-.5.892-.743,1.827-.726a.185.185,0,1,1-.008.369c-.782-.017-1.287.168-1.5.539-.424.74.356,2.035.364,2.048a.185.185,0,0,1-.061.253A.188.188,0,0,1,156.294,91.2Z" transform="translate(-152.871 -81.954)" fill="#e0973f"/>
        <path id="Trazado_218986" data-name="Trazado 218986" d="M164.735,89.441s7.063,4.919,6.065,6.113-3.721-.635-3.721-.635-5.784-.971-4.01-4l1.243-1.774Z" transform="translate(-153.289 -82.023)" fill="#ffc06c"/>
        <path id="Trazado_218987" data-name="Trazado 218987" d="M170.913,95.746a.185.185,0,0,1-.141-.3.268.268,0,0,0,.05-.226c-.168-1.252-4.444-4.479-6.079-5.616a.184.184,0,1,1,.211-.3c.615.428,6.014,4.231,6.232,5.87a.631.631,0,0,1-.132.511A.182.182,0,0,1,170.913,95.746Z" transform="translate(-153.402 -82.03)" fill="#e0973f"/>
        <path id="Trazado_218988" data-name="Trazado 218988" d="M167.338,95.264a.184.184,0,0,1-.056-.36c.014,0,1.449-.482,1.608-1.32.08-.422-.185-.888-.789-1.386a.184.184,0,0,1,.234-.284c.715.59,1.023,1.176.916,1.74-.2,1.052-1.789,1.579-1.856,1.6A.169.169,0,0,1,167.338,95.264Z" transform="translate(-153.548 -82.183)" fill="#e0973f"/>
      </g>
      <g id="Grupo_996059" data-name="Grupo 996059" transform="translate(182.99 62.638)">
        <path id="Trazado_218989" data-name="Trazado 218989" d="M197.209,67.769s.025-.1.088-.268a12.731,12.731,0,0,1,2.657-4.146c.437-.475,1.209-.336,1.248.308.069,1.139-1.259,1.974-1.259,1.974a2.525,2.525,0,0,1-1.87,2.19l-.531.4Z" transform="translate(-191.148 -63.072)" fill="#abd8c5"/>
        <path id="Trazado_218990" data-name="Trazado 218990" d="M196.2,68.576s-.1,0-.282.015a12.763,12.763,0,0,0-4.691,1.5c-.571.3-.636,1.082-.024,1.285,1.083.361,2.232-.706,2.232-.706a2.523,2.523,0,0,0,2.6-1.242l.52-.41Z" transform="translate(-190.771 -63.394)" fill="#abd8c5"/>
        <path id="Trazado_218991" data-name="Trazado 218991" d="M196.6,67.518c.107-.153.138-.308.066-.4-.106-.133-.615-.354-.862-.155s-.141.743-.035.875c.072.09.228.093.4.024a.844.844,0,0,0,.191.722c.268.334,3.3,3.7,3.55,3.5s-2.38-3.891-2.648-4.225A.843.843,0,0,0,196.6,67.518Z" transform="translate(-191.057 -63.295)" fill="#2d1d1d"/>
        <path id="Trazado_218992" data-name="Trazado 218992" d="M196.321,69.275s-3.248,4.172-2.445,4.69,2.067-1.05,2.067-1.05,3.217-1.623,1.625-3.078l-1.052-.813Z" transform="translate(-190.945 -63.421)" fill="#abd8c5"/>
        <path id="Trazado_218993" data-name="Trazado 218993" d="M197.942,68.069s4.869-2.062,5.163-1.152-1.548,1.727-1.548,1.727-2.4,2.689-3.394.775l-.515-1.227Z" transform="translate(-191.174 -63.284)" fill="#abd8c5"/>
      </g>
      <path id="Trazado_218994" data-name="Trazado 218994" d="M316.8,329.538l-.506-6.618-2.118,4.543-8.1-8.625-.522,8.993-6.477-6.658,4.236,8.388Z" transform="translate(-14.127 -15.421)" fill="#545428"/>
      <path id="Trazado_218995" data-name="Trazado 218995" d="M340.161,214.885s10.383-5.391,12.163-4.658,1.836,6.41,1.836,6.41Z" transform="translate(-16.534 -9.053)" fill="#634c49"/>
      <g id="Grupo_996060" data-name="Grupo 996060" transform="translate(329.594 66.242)">
        <path id="Trazado_218996" data-name="Trazado 218996" d="M347.379,84.12l2.569.039-.313-.465Z" transform="translate(-346.551 -67.884)" fill="#ffc06c"/>
        <path id="Trazado_218997" data-name="Trazado 218997" d="M346.607,88.129c-.04-.619-.076-1.284-.1-1.925-.009-.324-.012-.65,0-.976a6.235,6.235,0,0,1,.088-1,1.925,1.925,0,0,1,.164-.524.694.694,0,0,1,.233-.27.522.522,0,0,1,.412-.069,1.41,1.41,0,0,1,.819.786,8.354,8.354,0,0,1,.6,1.884c.14.634.245,1.271.338,1.908s.181,1.275.253,1.914c.14,1.279.262,2.554.36,3.845a.46.46,0,0,1-.917.07c0-.013,0-.025,0-.038v-.006c.009-1.265-.025-2.544-.112-3.811a29.983,29.983,0,0,0-.446-3.773,7.924,7.924,0,0,0-.518-1.774,1.617,1.617,0,0,0-.219-.353.611.611,0,0,0-.266-.189c-.035-.008-.032,0-.047,0a.249.249,0,0,0-.072.093,1.343,1.343,0,0,0-.116.389,7.937,7.937,0,0,0-.008,1.856,17.239,17.239,0,0,0,.267,1.891.36.36,0,1,1-.707.136.369.369,0,0,1-.006-.043Z" transform="translate(-346.499 -67.864)" fill="#2d1d1d"/>
        <path id="Trazado_218998" data-name="Trazado 218998" d="M368.635,92.361s7.055,9.939,9.158,9.031c1.135-.489.121-2.329-.187-2.848a30.278,30.278,0,0,0,3.269,4.073c1.307,1.277,2.9,1.089,2.877.135a1.269,1.269,0,0,0-.03-.285c-.18-1.2-1.314-2.75-3.163-4.328a59.362,59.362,0,0,0-6.806-4.846c-2.254-1.42-3.99-2.373-3.99-2.373Z" transform="translate(-347.796 -68.307)" fill="#d3c1ae"/>
        <path id="Trazado_218999" data-name="Trazado 218999" d="M355.385,80.04l2.226,1.341.007,0,4.549,2.739,3.9,2.35a3.672,3.672,0,0,0,4.346-.387l.04-.032a16.041,16.041,0,0,0,1.561-1.613l-3.944-4.779,5.37,2.765A16.845,16.845,0,0,0,375.731,73l-2.212-.267,2.112-1.172A26.006,26.006,0,0,0,374.7,66.9l-8.1,5.512-2.543,1.728-6.324,4.3Z" transform="translate(-347.02 -66.9)" fill="#683731"/>
        <path id="Trazado_219000" data-name="Trazado 219000" d="M349.362,81.795a3.365,3.365,0,0,0,1.5,2.8c.817,16.345,19.914,8.331,19.914,8.331-1.217-1.811-2.4-3.418-3.524-4.861-3.02-3.847-3.919-4.057-6.2-5.837-.105-.083-.211-.165-.316-.24a26.234,26.234,0,0,0-2.471-1.676c-3.441-2.021-5.409-1.878-5.409-1.878v.008c-.045,0-.083-.015-.128-.015a3.358,3.358,0,0,0-3.148,2.186,3.166,3.166,0,0,0-.211.962C349.362,81.652,349.362,81.719,349.362,81.795Z" transform="translate(-346.667 -67.576)" fill="#d3c1ae"/>
        <path id="Trazado_219001" data-name="Trazado 219001" d="M369.358,90.447c.285,1.172,6.194,6.041,8.29,8.07l.136.136c2.449,2.344,4.913,3.869,5.98,3.786-.18-1.2-1.314-2.75-3.163-4.328C378.58,96.375,373.444,92.3,369.358,90.447Z" transform="translate(-347.839 -68.28)" fill="#2d1d1d"/>
        <path id="Trazado_219002" data-name="Trazado 219002" d="M349.257,81.74a5.5,5.5,0,0,0-2.17,2.3l2.531-.465Z" transform="translate(-346.534 -67.77)" fill="#ffc06c"/>
        <path id="Trazado_219003" data-name="Trazado 219003" d="M349.58,80.258a3.358,3.358,0,0,1,3.148-2.186c.045,0,.083.015.128.015v-.008s1.969-.143,5.409,1.878l7.1-2.84,2.855-1.142,9.091-3.643a26.013,26.013,0,0,1-.09,4.755l-2.314.692,2.1.736a16.83,16.83,0,0,1-4.26,8.707l-4.117-2.179,2.291,3.84a15.894,15.894,0,0,1-1.871,1.24l-.045.023a3.673,3.673,0,0,1-4.328-.556l-10.415-8.366a3.409,3.409,0,0,0-4.9,0A3.166,3.166,0,0,1,349.58,80.258Z" transform="translate(-346.667 -67.218)" fill="#8e544a"/>
        <circle id="Elipse_4935" data-name="Elipse 4935" cx="0.873" cy="0.873" r="0.873" transform="translate(4.634 12.716)" fill="#2d1d1d"/>
        <path id="Trazado_219004" data-name="Trazado 219004" d="M354.616,88.209l-3.128-3.4S355.034,83.539,354.616,88.209Z" transform="translate(-346.791 -67.94)" fill="#8e544a"/>
        <path id="Trazado_219005" data-name="Trazado 219005" d="M356.79,81.4l-3.822,1.4S357.036,84.666,356.79,81.4Z" transform="translate(-346.878 -67.75)" fill="#2d1d1d"/>
        <path id="Trazado_219006" data-name="Trazado 219006" d="M352.578,87.035l-1.146-2.223S353.464,84.657,352.578,87.035Z" transform="translate(-346.788 -67.949)" fill="#2d1d1d"/>
        <path id="Trazado_219007" data-name="Trazado 219007" d="M370.52,91.979s5.854,8.395,6.96,7.5-1.926-3.166-1.926-3.166Z" transform="translate(-347.907 -68.37)" fill="#2d1d1d"/>
        <path id="Trazado_219008" data-name="Trazado 219008" d="M357.856,83.707l7.322,5.882a3.673,3.673,0,0,0,4.328.556l.045-.023a15.9,15.9,0,0,0,1.871-1.24l-2.291-3.84,4.117,2.179a16.83,16.83,0,0,0,4.26-8.707l-2.1-.736,2.314-.692a26.016,26.016,0,0,0,.09-4.755l-9.091,3.643C361.648,78.8,361.264,86.445,357.856,83.707Z" transform="translate(-347.165 -67.218)" fill="#d3c1ae"/>
      </g>
      <g id="Grupo_996061" data-name="Grupo 996061" transform="translate(490.944 273.608)">
        <path id="Trazado_219009" data-name="Trazado 219009" d="M530.8,328.157c-.082-7.331.446-24.316-4.86-32.057,0,0-3.944,22.07,2.627,32.057Z" transform="translate(-518.295 -287.696)" fill="#545428"/>
        <path id="Trazado_219010" data-name="Trazado 219010" d="M533.849,329.222a104.231,104.231,0,0,0,2.994-14.937,31.472,31.472,0,0,0-6.47,14.937Z" transform="translate(-518.623 -288.762)" fill="#545428"/>
        <path id="Trazado_219011" data-name="Trazado 219011" d="M532.287,326.668h-.01a.183.183,0,0,1-.173-.194c1.758-31.69,3.082-31.708,3.581-31.715h0c.795,0,1.19,3.331,1.355,5.319a.184.184,0,0,1-.169.2.191.191,0,0,1-.2-.168c-.217-2.6-.671-4.878-.993-4.982-.444.134-1.665,3.455-3.214,31.368A.184.184,0,0,1,532.287,326.668Z" transform="translate(-518.725 -287.617)" fill="#545428"/>
        <path id="Trazado_219012" data-name="Trazado 219012" d="M520.01,309.568c1.068-1.745,2.455-4.041,2.455-4.041l2.549,3.976a5.479,5.479,0,0,0,2.025-4.355c0-2.9-4.574-6.587-4.574-6.587s-4.573,3.69-4.573,6.587A5.455,5.455,0,0,0,520.01,309.568Z" transform="translate(-517.892 -287.84)" fill="#abd8c5"/>
        <path id="Trazado_219013" data-name="Trazado 219013" d="M534.415,311.431c1.068-1.745,2.456-4.042,2.456-4.042l2.549,3.977a5.479,5.479,0,0,0,2.024-4.355c0-2.9-4.573-6.587-4.573-6.587s-4.573,3.69-4.573,6.587A5.457,5.457,0,0,0,534.415,311.431Z" transform="translate(-518.736 -287.949)" fill="#abd8c5"/>
        <path id="Trazado_219014" data-name="Trazado 219014" d="M529.914,326.223a.185.185,0,0,1-.185-.177c-1.467-34.724-3.517-38.5-4.336-38.5h-.006c-1.183.025-2.465,7.774-2.465,10.352a.184.184,0,0,1-.368,0c0-1.611,1.053-10.682,2.824-10.72.765-.022,3.074-.075,4.718,38.856a.185.185,0,0,1-.176.193Z" transform="translate(-518.165 -287.173)" fill="#545428"/>
      </g>
      <g id="Grupo_996062" data-name="Grupo 996062" transform="translate(336.691 160.856)">
        <path id="Trazado_219015" data-name="Trazado 219015" d="M358.952,176.726a2.63,2.63,0,0,0,.622-.992,3.824,3.824,0,0,0,3.627-.3c.949-.8.448-2.19-.457-3.041a2.315,2.315,0,0,0-3.173-.263l-2.266,1.92a1.588,1.588,0,0,0-.36,2.017C357.369,176.885,358.388,177.3,358.952,176.726Z" transform="translate(-354.197 -167.65)" fill="#fff"/>
        <path id="Trazado_219016" data-name="Trazado 219016" d="M354.31,172.151a2.625,2.625,0,0,1,1-.617,3.825,3.825,0,0,1,.319-3.626c.809-.944,2.192-.437,3.039.474a2.314,2.314,0,0,1,.247,3.173c-.421.49-1.6,1.867-1.932,2.257a1.588,1.588,0,0,1-2.019.349C354.143,173.735,353.729,172.713,354.31,172.151Z" transform="translate(-354.039 -167.403)" fill="#fff"/>
        <path id="Trazado_219017" data-name="Trazado 219017" d="M359.353,172.632a.911.911,0,0,0,.24-.41.308.308,0,0,0,.164-.086c.14-.141.3-.582.128-.75s-.609,0-.749.137a.314.314,0,0,0-.085.174.92.92,0,0,0-.4.243.947.947,0,0,0-.216.334l-1.626,2.064c-.117.149.016.28.164.161L359,172.863A.935.935,0,0,0,359.353,172.632Z" transform="translate(-354.198 -167.633)" fill="#634c49"/>
        <path id="Trazado_219018" data-name="Trazado 219018" d="M359.868,171.347s1.538-2.184.72-2.443Z" transform="translate(-354.38 -167.491)" fill="#634c49"/>
        <path id="Trazado_219019" data-name="Trazado 219019" d="M359.985,171.549s2.306-1.473,2.594-.71Z" transform="translate(-354.387 -167.592)" fill="#634c49"/>
      </g>
    </g>
  </g>
</svg>
