<svg xmlns="http://www.w3.org/2000/svg" xmlns:xlink="http://www.w3.org/1999/xlink" width="122" height="112" viewBox="0 0 122 112">
  <defs>
    <clipPath id="clip-path">
      <rect id="Rect치ngulo_339830" data-name="Rect치ngulo 339830" width="122" height="112" rx="13" transform="translate(5760 -9789)" fill="#a6bbff"/>
    </clipPath>
  </defs>
  <g id="Enmascarar_grupo_625" data-name="Enmascarar grupo 625" transform="translate(-5760 9789)" clip-path="url(#clip-path)">
    <g id="software" transform="translate(5765 -9789)">
      <path id="Trazado_219494" data-name="Trazado 219494" d="M106.949,90.016H5.051a3.41,3.41,0,0,1-3.411-3.411V23.426a3.41,3.41,0,0,1,3.411-3.411h101.9a3.41,3.41,0,0,1,3.411,3.411V86.6A3.41,3.41,0,0,1,106.949,90.016Z" fill="#685c79"/>
      <path id="Trazado_219495" data-name="Trazado 219495" d="M106.949,20.016h-6.562a3.41,3.41,0,0,1,3.411,3.411V86.6a3.41,3.41,0,0,1-3.411,3.411h6.563a3.41,3.41,0,0,0,3.411-3.411V23.426A3.41,3.41,0,0,0,106.949,20.016Z" fill="#594f69"/>
      <rect id="Rect치ngulo_339837" data-name="Rect치ngulo 339837" width="56.875" height="95.594" transform="translate(103.797 26.578) rotate(90)" fill="#ade7ff"/>
      <path id="Trazado_219496" data-name="Trazado 219496" d="M84.219,110.359H27.781a3.281,3.281,0,0,1-3.281-3.281h0a3.281,3.281,0,0,1,3.281-3.281H84.219a3.281,3.281,0,0,1,3.281,3.281h0A3.281,3.281,0,0,1,84.219,110.359Z" fill="#685c79"/>
      <path id="Trazado_219497" data-name="Trazado 219497" d="M84.219,103.8h-6.59a3.281,3.281,0,0,1,0,6.563h6.59a3.281,3.281,0,0,0,0-6.562Z" fill="#594f69"/>
      <path id="Trazado_219498" data-name="Trazado 219498" d="M76.715,103.8H35.285A17.308,17.308,0,0,0,42.35,90.016h27.3A17.308,17.308,0,0,0,76.715,103.8Z" fill="#ade7ff"/>
      <path id="Trazado_219499" data-name="Trazado 219499" d="M69.65,90.016h-6.2A17.308,17.308,0,0,0,70.517,103.8h6.2A17.308,17.308,0,0,1,69.65,90.016Z" fill="#82d2f5"/>
      <path id="Trazado_219500" data-name="Trazado 219500" d="M77.219,41.856V68.612L56,78.75,34.781,68.612V41.856L56,31.719Z" fill="#ff2c5c"/>
      <path id="Trazado_219501" data-name="Trazado 219501" d="M77.219,41.856l-6.562,3.135L49.91,34.628,56,31.719Z" fill="#e62753"/>
      <path id="Trazado_219502" data-name="Trazado 219502" d="M56,51.994V78.75L34.781,68.612V41.856Z" fill="#4fb1f5"/>
      <path id="Trazado_219503" data-name="Trazado 219503" d="M56,51.994V78.75L77.219,68.612V41.856Z" fill="#ffd659"/>
      <path id="Trazado_219504" data-name="Trazado 219504" d="M77.219,41.856l-6.562,3.135.1,26.709,6.464-3.088Z" fill="#ffbd54"/>
      <circle id="Elipse_4937" data-name="Elipse 4937" cx="3.281" cy="3.281" r="3.281" transform="translate(82.332 1.641)" fill="#ff2c5c"/>
      <circle id="Elipse_4938" data-name="Elipse 4938" cx="3.281" cy="3.281" r="3.281" transform="translate(52.719 1.641)" fill="#ff2c5c"/>
      <circle id="Elipse_4939" data-name="Elipse 4939" cx="3.281" cy="3.281" r="3.281" transform="translate(23.105 1.641)" fill="#ff2c5c"/>
      <path id="Trazado_219505" data-name="Trazado 219505" d="M106.949,18.375H84a1.641,1.641,0,0,0,0,3.281h22.949a1.772,1.772,0,0,1,1.77,1.77V86.6a1.772,1.772,0,0,1-1.77,1.77H5.051a1.772,1.772,0,0,1-1.77-1.77V23.426a1.772,1.772,0,0,1,1.77-1.77H41.1v3.281H8.2a1.64,1.64,0,0,0-1.641,1.641V69.927a1.641,1.641,0,0,0,3.281,0V28.219H41.1v8.8l-7.024,3.356a1.651,1.651,0,0,0-.933,1.48V68.612a1.641,1.641,0,0,0,.933,1.48L55.293,80.23a1.661,1.661,0,0,0,1.415,0l11.929-5.7a1.641,1.641,0,1,0-1.415-2.961l-9.581,4.577V53.028l17.938-8.57v23.12l-2.437,1.164A1.641,1.641,0,0,0,74.556,71.7l3.37-1.61a1.641,1.641,0,0,0,.933-1.48V41.856a1.649,1.649,0,0,0-.933-1.48L70.9,37.02v-8.8h31.254V81.813H9.844V76.927a1.641,1.641,0,0,0-3.281,0v6.526A1.64,1.64,0,0,0,8.2,85.094H103.8a1.64,1.64,0,0,0,1.641-1.641V26.578a1.64,1.64,0,0,0-1.641-1.641H70.9V21.656H77a1.641,1.641,0,0,0,0-3.281H70.9V15.094H85.613a1.64,1.64,0,0,0,1.641-1.641V9.562a4.922,4.922,0,1,0-3.281,0v2.251H69.262a1.64,1.64,0,0,0-1.641,1.641v4.922h-9.98V9.562a4.922,4.922,0,1,0-3.281,0v8.813h-9.98V13.453a1.64,1.64,0,0,0-1.641-1.641H28.027V9.562a4.922,4.922,0,1,0-3.281,0v3.892a1.64,1.64,0,0,0,1.641,1.641H41.1v3.281H5.051A5.057,5.057,0,0,0,0,23.426V86.6a5.057,5.057,0,0,0,5.051,5.051H40.621a15.636,15.636,0,0,1-5.868,10.5H27.781a4.922,4.922,0,0,0,0,9.844H84.219a4.922,4.922,0,0,0,0-9.844H77.252a15.794,15.794,0,0,1-5.871-10.5h35.568A5.057,5.057,0,0,0,112,86.6V23.426A5.057,5.057,0,0,0,106.949,18.375ZM85.613,3.281a1.641,1.641,0,1,1-1.641,1.641A1.642,1.642,0,0,1,85.613,3.281ZM56,3.281a1.641,1.641,0,1,1-1.641,1.641A1.642,1.642,0,0,1,56,3.281Zm-29.613,0a1.641,1.641,0,1,1-1.641,1.641A1.642,1.642,0,0,1,26.387,3.281ZM44.379,28.219h9.98v2.466l-9.98,4.768ZM73.413,41.856,56,50.175,38.587,41.856,56,33.537Zm-36.991,2.6,17.938,8.57v23.12l-17.937-8.57Zm31.2-9.006-9.98-4.768V28.219h9.98Zm0-13.8v3.281h-9.98V21.656Zm-13.262,0v3.281h-9.98V21.656Zm31.5,85.422a1.642,1.642,0,0,1-1.641,1.641H27.781a1.641,1.641,0,0,1,0-3.281H84.219A1.642,1.642,0,0,1,85.859,107.078Zm-13.313-4.922H39.454a18.5,18.5,0,0,0,4.466-10.5H68.08A18.5,18.5,0,0,0,72.546,102.156Z"/>
    </g>
  </g>
</svg>
