<svg xmlns="http://www.w3.org/2000/svg" xmlns:xlink="http://www.w3.org/1999/xlink" width="122" height="112" viewBox="0 0 122 112">
  <defs>
    <clipPath id="clip-path">
      <rect id="Rectángulo_339226" data-name="Rectángulo 339226" width="122" height="112" rx="13" transform="translate(661 1491)" fill="#a6bbff"/>
    </clipPath>
  </defs>
  <g id="Enmascarar_grupo_623" data-name="Enmascarar grupo 623" transform="translate(-661 -1491)" clip-path="url(#clip-path)">
    <g id="inteligencia" transform="translate(666 1491)">
      <path id="Trazado_219407" data-name="Trazado 219407" d="M74.667,42.317c-3.3-.485-7.018-.839-10.995-1.045-2.464-.13-5.039-.205-7.672-.205s-5.208.075-7.672.205c-3.977.206-7.691.561-10.995,1.045-9,1.344-14.933,3.621-14.933,6.216C22.4,52.658,37.445,56,56,56s33.6-3.341,33.6-7.467C89.6,45.938,83.664,43.661,74.667,42.317Zm0,0" fill="#ffb655"/>
      <path id="Trazado_219408" data-name="Trazado 219408" d="M110.133,5.6A3.733,3.733,0,1,1,106.4,1.867,3.734,3.734,0,0,1,110.133,5.6Zm0,0" fill="#ff5023"/>
      <path id="Trazado_219409" data-name="Trazado 219409" d="M110.133,28a3.733,3.733,0,1,1-3.733-3.733A3.734,3.734,0,0,1,110.133,28Zm0,0" fill="#ff5023"/>
      <path id="Trazado_219410" data-name="Trazado 219410" d="M89.6,54.133a7.467,7.467,0,1,1,0,14.933h-.056c.037-.616.056-1.251.056-1.867Zm0,0" fill="#ffb655"/>
      <path id="Trazado_219411" data-name="Trazado 219411" d="M89.6,54.133V67.2c0,.616-.018,1.251-.056,1.867A33.581,33.581,0,0,1,37.333,95.125a33.094,33.094,0,0,1-5.1-4.163,33.578,33.578,0,0,1-9.782-21.9c-.037-.616-.056-1.251-.056-1.867V48.533C22.4,52.658,37.445,56,56,56s33.6-3.341,33.6-7.467Zm0,0" fill="#ffc477"/>
      <path id="Trazado_219412" data-name="Trazado 219412" d="M74.667,95.125v15.008H37.333V95.125A33.536,33.536,0,0,0,74.667,95.125Zm0,0" fill="#ffc477"/>
      <path id="Trazado_219413" data-name="Trazado 219413" d="M76.533,18.667V11.2L72.8,7.467H67.2l-1.867-5.6h-5.6L56,5.6V46.667L59.733,50.4h5.6L67.2,44.8l7.467-1.867V39.2l5.6-5.6V24.267Zm0,0" fill="#ed539d"/>
      <path id="Trazado_219414" data-name="Trazado 219414" d="M52.267,1.867h-5.6L44.8,7.467H39.2L35.467,11.2v7.467l-3.733,5.6V33.6l5.6,5.6v3.733L44.8,44.8l1.867,5.6h5.6L56,46.667V5.6Zm0,0" fill="#ea348b"/>
      <path id="Trazado_219415" data-name="Trazado 219415" d="M22.456,69.067H22.4a7.467,7.467,0,0,1,0-14.933V67.2C22.4,67.816,22.418,68.45,22.456,69.067Zm0,0" fill="#ffb655"/>
      <path id="Trazado_219416" data-name="Trazado 219416" d="M9.333,5.6A3.733,3.733,0,1,1,5.6,1.867,3.734,3.734,0,0,1,9.333,5.6Zm0,0" fill="#ff5023"/>
      <path id="Trazado_219417" data-name="Trazado 219417" d="M9.333,28A3.733,3.733,0,1,1,5.6,24.267,3.734,3.734,0,0,1,9.333,28Zm0,0" fill="#ff5023"/>
      <path id="Trazado_219418" data-name="Trazado 219418" d="M56,82.133a5.6,5.6,0,0,0,5.6-5.6v-11.2H57.867v11.2a1.867,1.867,0,0,1-3.733,0v-11.2H50.4v11.2A5.6,5.6,0,0,0,56,82.133Zm0,0"/>
      <path id="Trazado_219419" data-name="Trazado 219419" d="M72.8,61.6a5.6,5.6,0,0,0-5.6,5.6h3.733a1.867,1.867,0,0,1,3.733,0H78.4A5.6,5.6,0,0,0,72.8,61.6Zm0,0"/>
      <path id="Trazado_219420" data-name="Trazado 219420" d="M39.2,61.6a5.6,5.6,0,0,0-5.6,5.6h3.733a1.867,1.867,0,0,1,3.733,0H44.8A5.6,5.6,0,0,0,39.2,61.6Zm0,0"/>
      <path id="Trazado_219421" data-name="Trazado 219421" d="M91.467,52.453v-3.92c0-3.017-3.526-5.3-10.778-6.984l-.844,3.639c6.061,1.4,7.771,2.948,7.892,3.311C87.177,50.467,75.79,54.133,56,54.133S24.845,50.475,24.27,48.573V48.56c.133-.437,1.85-1.971,7.889-3.371l-.844-3.639c-7.255,1.683-10.782,3.967-10.782,6.984v3.92a9.324,9.324,0,0,0,.187,18.308,35.465,35.465,0,0,0,14.746,25.3v14.069A1.867,1.867,0,0,0,37.333,112H74.667a1.867,1.867,0,0,0,1.867-1.867V96.064a35.464,35.464,0,0,0,14.746-25.3,9.324,9.324,0,0,0,.187-18.31ZM16.8,61.6a5.6,5.6,0,0,1,3.733-5.256V66.856A5.6,5.6,0,0,1,16.8,61.6Zm56,46.667H39.2V98.424a35.38,35.38,0,0,0,33.6,0ZM56,98.933A31.769,31.769,0,0,1,24.267,67.2V53.122C31.174,56.766,46.14,57.867,56,57.867s24.826-1.1,31.733-4.745V67.2A31.769,31.769,0,0,1,56,98.933ZM91.467,66.856V56.343a5.566,5.566,0,0,1,0,10.513Zm0,0"/>
      <path id="Trazado_219422" data-name="Trazado 219422" d="M56,87.733c-5.059,0-9.333-2.565-9.333-5.6H42.933c0,5.226,5.74,9.333,13.067,9.333s13.067-4.107,13.067-9.333H65.333C65.333,85.168,61.058,87.733,56,87.733Zm0,0"/>
      <path id="Trazado_219423" data-name="Trazado 219423" d="M65.88,27.453l2.64-2.64-3.186-3.186V16.8H61.6v5.6a1.867,1.867,0,0,0,.547,1.32Zm0,0"/>
      <path id="Trazado_219424" data-name="Trazado 219424" d="M66.653,30.414l-2.64,2.64,1.32,1.32v2.96h3.733V33.6a1.867,1.867,0,0,0-.547-1.32Zm0,0"/>
      <path id="Trazado_219425" data-name="Trazado 219425" d="M35.467,39.973v2.96a1.868,1.868,0,0,0,1.413,1.811l6.474,1.618,1.541,4.627a1.867,1.867,0,0,0,1.772,1.277h5.6a1.867,1.867,0,0,0,1.32-.547L56,49.306l2.414,2.414a1.867,1.867,0,0,0,1.32.547h5.6a1.867,1.867,0,0,0,1.772-1.277l1.541-4.627,6.474-1.618a1.868,1.868,0,0,0,1.413-1.811v-2.96l5.053-5.053a1.867,1.867,0,0,0,.547-1.32V24.267a1.881,1.881,0,0,0-.314-1.036L78.4,18.107V11.2a1.867,1.867,0,0,0-.547-1.32L74.12,6.147A1.867,1.867,0,0,0,72.8,5.6H68.546L67.105,1.277A1.867,1.867,0,0,0,65.333,0h-5.6a1.867,1.867,0,0,0-1.32.547L56,2.961,53.586.547A1.867,1.867,0,0,0,52.267,0h-5.6a1.867,1.867,0,0,0-1.772,1.277L43.454,5.6H39.2a1.867,1.867,0,0,0-1.32.547L34.147,9.88A1.867,1.867,0,0,0,33.6,11.2v6.907l-3.42,5.13a1.875,1.875,0,0,0-.314,1.03V33.6a1.867,1.867,0,0,0,.547,1.32Zm25.04-36.24h3.481l1.077,3.229L62.147,9.88A1.867,1.867,0,0,0,61.6,11.2v1.867h3.733V11.973l2.64-2.64h4.054l2.64,2.64v5.921L71.48,21.08a1.867,1.867,0,0,0-.547,1.32v1.867h3.733V23.173L76.244,21.6,78.4,24.826v8l-1.867,1.867V31.733H72.8v9.743l-5.027,1.258-2.44-2.44V39.2H61.6v1.867a1.867,1.867,0,0,0,.547,1.32L65.064,45.3l-1.077,3.229H60.506l-2.64-2.64V6.373ZM33.6,24.826l2.156-3.235,1.578,1.576v1.1h3.733V22.4a1.867,1.867,0,0,0-.547-1.32l-3.186-3.186V11.973l2.64-2.64h4.054l2.64,2.64v1.094H50.4V11.2a1.867,1.867,0,0,0-.547-1.32L46.935,6.963l1.077-3.229h3.481l2.64,2.64V45.894l-2.64,2.64H48.013L46.935,45.3l2.918-2.918a1.867,1.867,0,0,0,.547-1.32V39.2H46.667v1.094l-2.44,2.44L39.2,41.476V31.733H35.467v2.96L33.6,32.827Zm0,0"/>
      <path id="Trazado_219426" data-name="Trazado 219426" d="M49.853,23.72A1.867,1.867,0,0,0,50.4,22.4V16.8H46.667v4.827L43.48,24.813l2.64,2.64Zm0,0"/>
      <path id="Trazado_219427" data-name="Trazado 219427" d="M46.667,34.373l1.32-1.32-2.64-2.64L43.48,32.28a1.867,1.867,0,0,0-.547,1.32v3.733h3.733Zm0,0"/>
      <path id="Trazado_219428" data-name="Trazado 219428" d="M106.4,11.2a5.6,5.6,0,1,0-5.6-5.6A5.6,5.6,0,0,0,106.4,11.2Zm0-7.467A1.867,1.867,0,1,1,104.533,5.6,1.867,1.867,0,0,1,106.4,3.733Zm0,0"/>
      <path id="Trazado_219429" data-name="Trazado 219429" d="M106.4,22.4A5.6,5.6,0,1,0,112,28,5.6,5.6,0,0,0,106.4,22.4Zm0,7.467A1.867,1.867,0,1,1,108.266,28,1.867,1.867,0,0,1,106.4,29.867Zm0,0"/>
      <path id="Trazado_219430" data-name="Trazado 219430" d="M94.106,7.467h2.96V3.733H93.333a1.867,1.867,0,0,0-1.32.547l-7.467,7.467,2.64,2.64Zm0,0"/>
      <path id="Trazado_219431" data-name="Trazado 219431" d="M85.867,26.133h11.2v3.733h-11.2Zm0,0"/>
      <path id="Trazado_219432" data-name="Trazado 219432" d="M5.6,0a5.6,5.6,0,1,0,5.6,5.6A5.6,5.6,0,0,0,5.6,0Zm0,7.467A1.867,1.867,0,1,1,7.467,5.6,1.867,1.867,0,0,1,5.6,7.467Zm0,0"/>
      <path id="Trazado_219433" data-name="Trazado 219433" d="M5.6,22.4A5.6,5.6,0,1,0,11.2,28,5.6,5.6,0,0,0,5.6,22.4Zm0,7.467A1.867,1.867,0,1,1,7.467,28,1.867,1.867,0,0,1,5.6,29.867Zm0,0"/>
      <path id="Trazado_219434" data-name="Trazado 219434" d="M24.814,14.386l2.64-2.64L19.986,4.28a1.867,1.867,0,0,0-1.32-.547H14.933V7.467h2.96Zm0,0"/>
      <path id="Trazado_219435" data-name="Trazado 219435" d="M14.933,26.133h11.2v3.733h-11.2Zm0,0"/>
    </g>
  </g>
</svg>
