<svg xmlns="http://www.w3.org/2000/svg" xmlns:xlink="http://www.w3.org/1999/xlink" width="122" height="112" viewBox="0 0 122 112">
  <defs>
    <clipPath id="clip-path">
      <rect id="Rectángulo_339829" data-name="Rectángulo 339829" width="122" height="112" rx="13" transform="translate(5760 -10209)" fill="#a6bbff"/>
    </clipPath>
  </defs>
  <g id="Enmascarar_grupo_624" data-name="Enmascarar grupo 624" transform="translate(-5760 10209)" clip-path="url(#clip-path)">
    <g id="mapa-mental" transform="translate(5765 -10209)">
      <g id="Grupo_997084" data-name="Grupo 997084">
        <path id="Trazado_219436" data-name="Trazado 219436" d="M59.488,66.318V64.13a9.329,9.329,0,0,1,3.19-7.042c2.577-2.242,4.746-5.584,4.746-9.269,0-4.027-1.575-6.887-4.073-9.807a12.306,12.306,0,0,0-18.27,15.6c.707,1.323,3.007,2.5,4.129,3.477A9.33,9.33,0,0,1,52.4,64.13v2.188h7.086Z" fill="#f99675"/>
        <path id="Trazado_219437" data-name="Trazado 219437" d="M68.351,47.858a12.207,12.207,0,0,1-4.2,9.231,9.323,9.323,0,0,0-3.192,7.042v2.188H51.045V64.131a9.323,9.323,0,0,0-3.192-7.042,12.331,12.331,0,0,1-2.771-3.478A12.144,12.144,0,0,0,52.437,56,12.238,12.238,0,0,0,63.352,38.012,12.239,12.239,0,0,1,68.351,47.858Z" fill="#fe7c66"/>
        <path id="Trazado_219438" data-name="Trazado 219438" d="M60.044,66.357V71.3c0,2.8-1.325,4.206-4.163,5.074h0A5.074,5.074,0,0,1,50.807,71.3V66.357Z" fill="#f5f8f9"/>
        <g id="Grupo_997065" data-name="Grupo 997065">
          <path id="Trazado_219439" data-name="Trazado 219439" d="M84.889,28.07l-4.234.908H65.467a1.312,1.312,0,0,1-1.312-1.312V15.706a1.312,1.312,0,0,1,1.313-1.312H80.655l4.373.814a1.312,1.312,0,0,1,1.313,1.312L86.2,26.758A1.313,1.313,0,0,1,84.889,28.07Z" fill="#fe5694"/>
          <path id="Trazado_219440" data-name="Trazado 219440" d="M87.218,15.706V27.665a1.312,1.312,0,0,1-1.312,1.313h-5.25V14.394h5.25A1.312,1.312,0,0,1,87.218,15.706Z" fill="#fd3581"/>
        </g>
        <g id="Grupo_997066" data-name="Grupo 997066">
          <path id="Trazado_219441" data-name="Trazado 219441" d="M98.853,1.641h6.475l2.923.535a1.094,1.094,0,0,1,1.094,1.094l-.105,4.774a1.094,1.094,0,0,1-1.094,1.094l-2.818.471H98.853a1.094,1.094,0,0,1-1.094-1.094V2.734A1.094,1.094,0,0,1,98.853,1.641Z" fill="#fe5694"/>
          <path id="Trazado_219442" data-name="Trazado 219442" d="M110.359,2.734V8.514a1.094,1.094,0,0,1-1.094,1.094h-3.937V1.641h3.938A1.094,1.094,0,0,1,110.359,2.734Z" fill="#fd3581"/>
        </g>
        <g id="Grupo_997067" data-name="Grupo 997067">
          <path id="Trazado_219443" data-name="Trazado 219443" d="M98.853,17.7h6.475l2.923.535a1.094,1.094,0,0,1,1.094,1.094L109.24,24.1a1.094,1.094,0,0,1-1.094,1.094l-2.818.471H98.853a1.094,1.094,0,0,1-1.094-1.094V18.8A1.094,1.094,0,0,1,98.853,17.7Z" fill="#fe5694"/>
          <path id="Trazado_219444" data-name="Trazado 219444" d="M110.359,18.8v5.779a1.094,1.094,0,0,1-1.094,1.094h-3.937V17.7h3.938A1.094,1.094,0,0,1,110.359,18.8Z" fill="#fd3581"/>
        </g>
        <g id="Grupo_997068" data-name="Grupo 997068">
          <path id="Trazado_219445" data-name="Trazado 219445" d="M98.853,33.763h6.475l2.923.535a1.094,1.094,0,0,1,1.094,1.094l-.105,4.774a1.094,1.094,0,0,1-1.094,1.094l-2.818.472H98.853a1.094,1.094,0,0,1-1.094-1.094v-5.78A1.094,1.094,0,0,1,98.853,33.763Z" fill="#fe5694"/>
          <path id="Trazado_219446" data-name="Trazado 219446" d="M110.359,34.857v5.779a1.094,1.094,0,0,1-1.094,1.094h-3.937V33.763h3.938A1.094,1.094,0,0,1,110.359,34.857Z" fill="#fd3581"/>
        </g>
        <g id="Grupo_997073" data-name="Grupo 997073">
          <g id="Grupo_997069" data-name="Grupo 997069">
            <path id="Trazado_219447" data-name="Trazado 219447" d="M45.517,28.07l-4.234.908H26.094a1.312,1.312,0,0,1-1.312-1.312V15.706a1.312,1.312,0,0,1,1.313-1.312H41.283l4.373.814a1.312,1.312,0,0,1,1.313,1.312l-.139,10.237A1.312,1.312,0,0,1,45.517,28.07Z" fill="#bd80e1"/>
            <path id="Trazado_219448" data-name="Trazado 219448" d="M47.845,15.706V27.665a1.312,1.312,0,0,1-1.312,1.313h-5.25V14.394h5.25A1.312,1.312,0,0,1,47.845,15.706Z" fill="#b367db"/>
          </g>
          <g id="Grupo_997070" data-name="Grupo 997070">
            <path id="Trazado_219449" data-name="Trazado 219449" d="M2.734,1.641H9.209l2.923.535a1.094,1.094,0,0,1,1.094,1.094l-.105,4.774a1.094,1.094,0,0,1-1.094,1.094l-2.818.471H2.734A1.094,1.094,0,0,1,1.641,8.514V2.734A1.094,1.094,0,0,1,2.734,1.641Z" fill="#bd80e1"/>
            <path id="Trazado_219450" data-name="Trazado 219450" d="M14.241,2.734V8.514a1.094,1.094,0,0,1-1.094,1.094H9.209V1.641h3.938A1.094,1.094,0,0,1,14.241,2.734Z" fill="#b367db"/>
          </g>
          <g id="Grupo_997071" data-name="Grupo 997071">
            <path id="Trazado_219451" data-name="Trazado 219451" d="M2.734,17.7H9.209l2.923.535a1.094,1.094,0,0,1,1.094,1.094L13.121,24.1A1.094,1.094,0,0,1,12.027,25.2l-2.818.471H2.734a1.094,1.094,0,0,1-1.094-1.094V18.8A1.094,1.094,0,0,1,2.734,17.7Z" fill="#bd80e1"/>
            <path id="Trazado_219452" data-name="Trazado 219452" d="M14.241,18.8v5.779a1.094,1.094,0,0,1-1.094,1.094H9.209V17.7h3.938A1.094,1.094,0,0,1,14.241,18.8Z" fill="#b367db"/>
          </g>
          <g id="Grupo_997072" data-name="Grupo 997072">
            <path id="Trazado_219453" data-name="Trazado 219453" d="M2.734,33.763H9.209l2.923.535a1.094,1.094,0,0,1,1.094,1.094l-.105,4.774a1.094,1.094,0,0,1-1.094,1.094l-2.818.472H2.734a1.094,1.094,0,0,1-1.094-1.094v-5.78A1.094,1.094,0,0,1,2.734,33.763Z" fill="#bd80e1"/>
            <path id="Trazado_219454" data-name="Trazado 219454" d="M14.241,34.857v5.779a1.094,1.094,0,0,1-1.094,1.094H9.209V33.763h3.938A1.094,1.094,0,0,1,14.241,34.857Z" fill="#b367db"/>
          </g>
        </g>
        <g id="Grupo_997078" data-name="Grupo 997078">
          <g id="Grupo_997074" data-name="Grupo 997074">
            <path id="Trazado_219455" data-name="Trazado 219455" d="M45.517,96.7l-4.234.908H26.094a1.312,1.312,0,0,1-1.312-1.312V84.334a1.312,1.312,0,0,1,1.313-1.312H41.283l4.373.814a1.312,1.312,0,0,1,1.313,1.313l-.139,10.237A1.312,1.312,0,0,1,45.517,96.7Z" fill="#92f2ff"/>
            <path id="Trazado_219456" data-name="Trazado 219456" d="M47.845,84.335V96.294a1.312,1.312,0,0,1-1.312,1.313h-5.25V83.022h5.25A1.312,1.312,0,0,1,47.845,84.335Z" fill="#74e5f7"/>
          </g>
          <g id="Grupo_997075" data-name="Grupo 997075">
            <path id="Trazado_219457" data-name="Trazado 219457" d="M2.734,70.269H9.209l2.923.535A1.094,1.094,0,0,1,13.226,71.9l-.105,4.774a1.094,1.094,0,0,1-1.094,1.094l-2.818.472H2.734a1.094,1.094,0,0,1-1.094-1.094v-5.78A1.094,1.094,0,0,1,2.734,70.269Z" fill="#92f2ff"/>
            <path id="Trazado_219458" data-name="Trazado 219458" d="M14.241,71.363v5.779a1.094,1.094,0,0,1-1.094,1.094H9.209V70.269h3.938A1.094,1.094,0,0,1,14.241,71.363Z" fill="#74e5f7"/>
          </g>
          <g id="Grupo_997076" data-name="Grupo 997076">
            <path id="Trazado_219459" data-name="Trazado 219459" d="M2.734,86.33H9.209l2.923.535a1.094,1.094,0,0,1,1.094,1.094l-.105,4.774a1.094,1.094,0,0,1-1.094,1.094L9.209,94.3H2.734A1.094,1.094,0,0,1,1.641,93.2v-5.78A1.094,1.094,0,0,1,2.734,86.33Z" fill="#92f2ff"/>
            <path id="Trazado_219460" data-name="Trazado 219460" d="M14.241,87.424V93.2A1.094,1.094,0,0,1,13.147,94.3H9.209V86.33h3.938A1.094,1.094,0,0,1,14.241,87.424Z" fill="#74e5f7"/>
          </g>
          <g id="Grupo_997077" data-name="Grupo 997077">
            <path id="Trazado_219461" data-name="Trazado 219461" d="M2.734,102.392H9.209l2.923.535a1.094,1.094,0,0,1,1.094,1.094l-.105,4.774a1.094,1.094,0,0,1-1.094,1.094l-2.818.472H2.734a1.094,1.094,0,0,1-1.094-1.094v-5.78A1.094,1.094,0,0,1,2.734,102.392Z" fill="#92f2ff"/>
            <path id="Trazado_219462" data-name="Trazado 219462" d="M14.241,103.485v5.779a1.094,1.094,0,0,1-1.094,1.094H9.209v-7.967h3.938A1.094,1.094,0,0,1,14.241,103.485Z" fill="#74e5f7"/>
          </g>
        </g>
        <g id="Grupo_997083" data-name="Grupo 997083">
          <g id="Grupo_997079" data-name="Grupo 997079">
            <path id="Trazado_219463" data-name="Trazado 219463" d="M84.889,96.7l-4.234.908H65.467a1.312,1.312,0,0,1-1.312-1.312V84.334a1.312,1.312,0,0,1,1.313-1.312H80.655l4.373.814a1.312,1.312,0,0,1,1.313,1.313L86.2,95.386A1.313,1.313,0,0,1,84.889,96.7Z" fill="#25c2ce"/>
            <path id="Trazado_219464" data-name="Trazado 219464" d="M87.218,84.335V96.294a1.312,1.312,0,0,1-1.312,1.313h-5.25V83.022h5.25A1.312,1.312,0,0,1,87.218,84.335Z" fill="#0cacba"/>
          </g>
          <g id="Grupo_997080" data-name="Grupo 997080">
            <path id="Trazado_219465" data-name="Trazado 219465" d="M99.013,70.269h6.475l2.923.535A1.094,1.094,0,0,1,109.5,71.9l-.105,4.774a1.094,1.094,0,0,1-1.094,1.094l-2.818.471H99.013a1.094,1.094,0,0,1-1.094-1.094v-5.78A1.094,1.094,0,0,1,99.013,70.269Z" fill="#25c2ce"/>
            <path id="Trazado_219466" data-name="Trazado 219466" d="M110.519,71.363v5.779a1.094,1.094,0,0,1-1.094,1.094h-3.937V70.269h3.938A1.094,1.094,0,0,1,110.519,71.363Z" fill="#0cacba"/>
          </g>
          <g id="Grupo_997081" data-name="Grupo 997081">
            <path id="Trazado_219467" data-name="Trazado 219467" d="M99.013,86.33h6.475l2.923.535a1.094,1.094,0,0,1,1.094,1.094l-.105,4.774a1.094,1.094,0,0,1-1.094,1.094l-2.818.471H99.013A1.094,1.094,0,0,1,97.919,93.2v-5.78A1.094,1.094,0,0,1,99.013,86.33Z" fill="#25c2ce"/>
            <path id="Trazado_219468" data-name="Trazado 219468" d="M110.519,87.424V93.2a1.094,1.094,0,0,1-1.094,1.094h-3.937V86.33h3.938A1.094,1.094,0,0,1,110.519,87.424Z" fill="#0cacba"/>
          </g>
          <g id="Grupo_997082" data-name="Grupo 997082">
            <path id="Trazado_219469" data-name="Trazado 219469" d="M99.013,102.392h6.475l2.923.535a1.094,1.094,0,0,1,1.094,1.094l-.105,4.774a1.094,1.094,0,0,1-1.094,1.094l-2.818.471H99.013a1.094,1.094,0,0,1-1.094-1.094v-5.78A1.094,1.094,0,0,1,99.013,102.392Z" fill="#25c2ce"/>
            <path id="Trazado_219470" data-name="Trazado 219470" d="M110.519,103.485v5.779a1.094,1.094,0,0,1-1.094,1.094h-3.937v-7.967h3.938A1.094,1.094,0,0,1,110.519,103.485Z" fill="#0cacba"/>
          </g>
        </g>
      </g>
      <g id="Grupo_997091" data-name="Grupo 997091">
        <g id="Grupo_997086" data-name="Grupo 997086">
          <g id="Grupo_997085" data-name="Grupo 997085">
            <path id="Trazado_219471" data-name="Trazado 219471" d="M51.045,64.131a9.323,9.323,0,0,0-3.192-7.042A12.3,12.3,0,0,1,63.932,38.467" fill="none" stroke="#000" stroke-linecap="round" stroke-linejoin="round" stroke-miterlimit="10" stroke-width="3.281"/>
            <path id="Trazado_219472" data-name="Trazado 219472" d="M68.016,45.021a12.227,12.227,0,0,1-3.87,12.068,9.323,9.323,0,0,0-3.192,7.042" fill="none" stroke="#000" stroke-linecap="round" stroke-linejoin="round" stroke-miterlimit="10" stroke-width="3.281"/>
          </g>
          <path id="Trazado_219473" data-name="Trazado 219473" d="M60.955,67.993V71.3a5.074,5.074,0,0,1-5.074,5.074h0A5.074,5.074,0,0,1,50.807,71.3V67.993" fill="none" stroke="#000" stroke-linecap="round" stroke-linejoin="round" stroke-miterlimit="10" stroke-width="3.281"/>
          <line id="Línea_1679" data-name="Línea 1679" x2="16.69" transform="translate(47.536 66.357)" fill="none" stroke="#000" stroke-linecap="round" stroke-linejoin="round" stroke-miterlimit="10" stroke-width="3.281"/>
        </g>
        <path id="Trazado_219474" data-name="Trazado 219474" d="M63.565,58.188h5.559a6.562,6.562,0,0,0,6.563-6.562V29.416" fill="none" stroke="#000" stroke-linecap="round" stroke-linejoin="round" stroke-miterlimit="10" stroke-width="3.281"/>
        <line id="Línea_1680" data-name="Línea 1680" y1="4.813" transform="translate(75.685 77.553)" fill="none" stroke="#000" stroke-linecap="round" stroke-linejoin="round" stroke-miterlimit="10" stroke-width="3.281"/>
        <path id="Trazado_219475" data-name="Trazado 219475" d="M69.123,58.188a6.562,6.562,0,0,1,6.563,6.563V69.9" fill="none" stroke="#000" stroke-linecap="round" stroke-linejoin="round" stroke-miterlimit="10" stroke-width="3.281"/>
        <g id="Grupo_997087" data-name="Grupo 997087">
          <line id="Línea_1681" data-name="Línea 1681" x2="10.541" transform="translate(87.218 21.686)" fill="none" stroke="#000" stroke-linecap="round" stroke-linejoin="round" stroke-miterlimit="10" stroke-width="3.281"/>
          <line id="Línea_1682" data-name="Línea 1682" y1="5.253" x2="11.526" transform="translate(86.688 9.401)" fill="none" stroke="#000" stroke-linecap="round" stroke-linejoin="round" stroke-miterlimit="10" stroke-width="3.281"/>
          <path id="Trazado_219476" data-name="Trazado 219476" d="M85.906,28.978H65.467a1.312,1.312,0,0,1-1.312-1.312V15.706a1.312,1.312,0,0,1,1.313-1.312H85.906a1.312,1.312,0,0,1,1.313,1.313v11.96A1.312,1.312,0,0,1,85.906,28.978Z" fill="none" stroke="#000" stroke-linecap="round" stroke-linejoin="round" stroke-miterlimit="10" stroke-width="3.281"/>
          <path id="Trazado_219477" data-name="Trazado 219477" d="M98.853,1.641h10.412a1.094,1.094,0,0,1,1.094,1.094v5.78a1.094,1.094,0,0,1-1.094,1.094H98.853a1.094,1.094,0,0,1-1.094-1.094V2.734A1.094,1.094,0,0,1,98.853,1.641Z" fill="none" stroke="#000" stroke-linecap="round" stroke-linejoin="round" stroke-miterlimit="10" stroke-width="3.281"/>
          <line id="Línea_1683" data-name="Línea 1683" x2="11.526" y2="5.253" transform="translate(86.688 28.718)" fill="none" stroke="#000" stroke-linecap="round" stroke-linejoin="round" stroke-miterlimit="10" stroke-width="3.281"/>
          <path id="Trazado_219478" data-name="Trazado 219478" d="M98.853,41.731h10.412a1.094,1.094,0,0,0,1.094-1.094v-5.78a1.094,1.094,0,0,0-1.094-1.094H98.853a1.094,1.094,0,0,0-1.094,1.094v5.78A1.094,1.094,0,0,0,98.853,41.731Z" fill="none" stroke="#000" stroke-linecap="round" stroke-linejoin="round" stroke-miterlimit="10" stroke-width="3.281"/>
          <path id="Trazado_219479" data-name="Trazado 219479" d="M98.853,17.7h10.412a1.094,1.094,0,0,1,1.094,1.094v5.78a1.094,1.094,0,0,1-1.094,1.094H98.853a1.094,1.094,0,0,1-1.094-1.094V18.8A1.094,1.094,0,0,1,98.853,17.7Z" fill="none" stroke="#000" stroke-linecap="round" stroke-linejoin="round" stroke-miterlimit="10" stroke-width="3.281"/>
        </g>
        <g id="Grupo_997088" data-name="Grupo 997088">
          <line id="Línea_1684" data-name="Línea 1684" x1="10.541" transform="translate(14.241 21.686)" fill="none" stroke="#000" stroke-linecap="round" stroke-linejoin="round" stroke-miterlimit="10" stroke-width="3.281"/>
          <line id="Línea_1685" data-name="Línea 1685" x1="11.526" y1="5.253" transform="translate(13.786 9.401)" fill="none" stroke="#000" stroke-linecap="round" stroke-linejoin="round" stroke-miterlimit="10" stroke-width="3.281"/>
          <path id="Trazado_219480" data-name="Trazado 219480" d="M41.132,14.394h5.4a1.312,1.312,0,0,1,1.313,1.313V27.665a1.312,1.312,0,0,1-1.312,1.313H26.095a1.315,1.315,0,0,1-1.312-1.312V15.706a1.315,1.315,0,0,1,1.313-1.312h7.381" fill="none" stroke="#000" stroke-linecap="round" stroke-linejoin="round" stroke-miterlimit="10" stroke-width="3.281"/>
          <path id="Trazado_219481" data-name="Trazado 219481" d="M13.147,1.641H2.734A1.094,1.094,0,0,0,1.641,2.734v5.78A1.094,1.094,0,0,0,2.734,9.608H13.147a1.094,1.094,0,0,0,1.094-1.094V2.734A1.094,1.094,0,0,0,13.147,1.641Z" fill="none" stroke="#000" stroke-linecap="round" stroke-linejoin="round" stroke-miterlimit="10" stroke-width="3.281"/>
          <line id="Línea_1686" data-name="Línea 1686" x1="11.526" y2="5.253" transform="translate(13.786 28.718)" fill="none" stroke="#000" stroke-linecap="round" stroke-linejoin="round" stroke-miterlimit="10" stroke-width="3.281"/>
          <path id="Trazado_219482" data-name="Trazado 219482" d="M13.147,41.731H2.734a1.094,1.094,0,0,1-1.094-1.094v-5.78a1.094,1.094,0,0,1,1.094-1.094H13.147a1.094,1.094,0,0,1,1.094,1.094v5.78A1.094,1.094,0,0,1,13.147,41.731Z" fill="none" stroke="#000" stroke-linecap="round" stroke-linejoin="round" stroke-miterlimit="10" stroke-width="3.281"/>
          <path id="Trazado_219483" data-name="Trazado 219483" d="M13.147,17.7H2.734A1.094,1.094,0,0,0,1.641,18.8v5.78a1.094,1.094,0,0,0,1.094,1.094H13.147a1.094,1.094,0,0,0,1.094-1.094V18.8A1.094,1.094,0,0,0,13.147,17.7Z" fill="none" stroke="#000" stroke-linecap="round" stroke-linejoin="round" stroke-miterlimit="10" stroke-width="3.281"/>
        </g>
        <g id="Grupo_997089" data-name="Grupo 997089">
          <line id="Línea_1687" data-name="Línea 1687" x2="10.541" transform="translate(87.218 90.314)" fill="none" stroke="#000" stroke-linecap="round" stroke-linejoin="round" stroke-miterlimit="10" stroke-width="3.281"/>
          <line id="Línea_1688" data-name="Línea 1688" x2="11.526" y2="5.253" transform="translate(86.688 97.346)" fill="none" stroke="#000" stroke-linecap="round" stroke-linejoin="round" stroke-miterlimit="10" stroke-width="3.281"/>
          <path id="Trazado_219484" data-name="Trazado 219484" d="M85.906,83.022H65.467a1.312,1.312,0,0,0-1.312,1.313v11.96a1.312,1.312,0,0,0,1.313,1.313H85.906a1.312,1.312,0,0,0,1.313-1.312V84.334A1.312,1.312,0,0,0,85.906,83.022Z" fill="none" stroke="#000" stroke-linecap="round" stroke-linejoin="round" stroke-miterlimit="10" stroke-width="3.281"/>
          <path id="Trazado_219485" data-name="Trazado 219485" d="M98.853,110.359h10.412a1.094,1.094,0,0,0,1.094-1.094v-5.78a1.094,1.094,0,0,0-1.094-1.094H98.853a1.094,1.094,0,0,0-1.094,1.094v5.78A1.094,1.094,0,0,0,98.853,110.359Z" fill="none" stroke="#000" stroke-linecap="round" stroke-linejoin="round" stroke-miterlimit="10" stroke-width="3.281"/>
          <line id="Línea_1689" data-name="Línea 1689" y1="5.253" x2="11.526" transform="translate(86.688 78.029)" fill="none" stroke="#000" stroke-linecap="round" stroke-linejoin="round" stroke-miterlimit="10" stroke-width="3.281"/>
          <path id="Trazado_219486" data-name="Trazado 219486" d="M98.853,70.269h10.412a1.094,1.094,0,0,1,1.094,1.094v5.78a1.094,1.094,0,0,1-1.094,1.094H98.853a1.094,1.094,0,0,1-1.094-1.094v-5.78A1.094,1.094,0,0,1,98.853,70.269Z" fill="none" stroke="#000" stroke-linecap="round" stroke-linejoin="round" stroke-miterlimit="10" stroke-width="3.281"/>
          <path id="Trazado_219487" data-name="Trazado 219487" d="M98.853,94.3h10.412a1.094,1.094,0,0,0,1.094-1.094v-5.78a1.094,1.094,0,0,0-1.094-1.094H98.853a1.094,1.094,0,0,0-1.094,1.094V93.2A1.094,1.094,0,0,0,98.853,94.3Z" fill="none" stroke="#000" stroke-linecap="round" stroke-linejoin="round" stroke-miterlimit="10" stroke-width="3.281"/>
        </g>
        <g id="Grupo_997090" data-name="Grupo 997090">
          <line id="Línea_1690" data-name="Línea 1690" x1="10.541" transform="translate(14.241 90.314)" fill="none" stroke="#000" stroke-linecap="round" stroke-linejoin="round" stroke-miterlimit="10" stroke-width="3.281"/>
          <line id="Línea_1691" data-name="Línea 1691" x1="11.526" y2="5.253" transform="translate(13.786 97.346)" fill="none" stroke="#000" stroke-linecap="round" stroke-linejoin="round" stroke-miterlimit="10" stroke-width="3.281"/>
          <path id="Trazado_219488" data-name="Trazado 219488" d="M33.475,97.606H26.095a1.315,1.315,0,0,1-1.312-1.312V84.335a1.315,1.315,0,0,1,1.313-1.312H46.533a1.312,1.312,0,0,1,1.313,1.313V96.294a1.312,1.312,0,0,1-1.312,1.313h-5.4" fill="none" stroke="#000" stroke-linecap="round" stroke-linejoin="round" stroke-miterlimit="10" stroke-width="3.281"/>
          <path id="Trazado_219489" data-name="Trazado 219489" d="M13.147,110.359H2.734a1.094,1.094,0,0,1-1.094-1.094v-5.78a1.094,1.094,0,0,1,1.094-1.094H13.147a1.094,1.094,0,0,1,1.094,1.094v5.78A1.094,1.094,0,0,1,13.147,110.359Z" fill="none" stroke="#000" stroke-linecap="round" stroke-linejoin="round" stroke-miterlimit="10" stroke-width="3.281"/>
          <line id="Línea_1692" data-name="Línea 1692" x1="11.526" y1="5.253" transform="translate(13.786 78.029)" fill="none" stroke="#000" stroke-linecap="round" stroke-linejoin="round" stroke-miterlimit="10" stroke-width="3.281"/>
          <path id="Trazado_219490" data-name="Trazado 219490" d="M13.147,70.269H2.734a1.094,1.094,0,0,0-1.094,1.094v5.78a1.094,1.094,0,0,0,1.094,1.094H13.147a1.094,1.094,0,0,0,1.094-1.094v-5.78A1.094,1.094,0,0,0,13.147,70.269Z" fill="none" stroke="#000" stroke-linecap="round" stroke-linejoin="round" stroke-miterlimit="10" stroke-width="3.281"/>
          <path id="Trazado_219491" data-name="Trazado 219491" d="M13.147,94.3H2.734A1.094,1.094,0,0,1,1.641,93.2v-5.78a1.094,1.094,0,0,1,1.094-1.094H13.147a1.094,1.094,0,0,1,1.094,1.094V93.2A1.094,1.094,0,0,1,13.147,94.3Z" fill="none" stroke="#000" stroke-linecap="round" stroke-linejoin="round" stroke-miterlimit="10" stroke-width="3.281"/>
        </g>
        <path id="Trazado_219492" data-name="Trazado 219492" d="M48.435,58.188H42.876a6.562,6.562,0,0,1-6.562-6.562V29.416" fill="none" stroke="#000" stroke-linecap="round" stroke-linejoin="round" stroke-miterlimit="10" stroke-width="3.281"/>
        <path id="Trazado_219493" data-name="Trazado 219493" d="M42.876,58.188a6.562,6.562,0,0,0-6.562,6.563V82.366" fill="none" stroke="#000" stroke-linecap="round" stroke-linejoin="round" stroke-miterlimit="10" stroke-width="3.281"/>
      </g>
    </g>
  </g>
</svg>
