<svg xmlns="http://www.w3.org/2000/svg" xmlns:xlink="http://www.w3.org/1999/xlink" width="610" height="246.373" viewBox="0 0 610 246.373">
  <defs>
    <clipPath id="clip-path">
      <rect id="Rectángulo_339469" data-name="Rectángulo 339469" width="400" height="246.373" fill="none"/>
    </clipPath>
    <clipPath id="clip-path-2">
      <path id="Trazado_212019" data-name="Trazado 212019" d="M305.867,177.09a4.424,4.424,0,0,0,4.666,4.169,4.94,4.94,0,0,0,4.982-4.279Z" transform="translate(-305.867 -176.98)" fill="none"/>
    </clipPath>
    <clipPath id="clip-path-3">
      <rect id="Rectángulo_339470" data-name="Rectángulo 339470" width="13.353" height="13.645" fill="none"/>
    </clipPath>
    <clipPath id="clip-path-4">
      <rect id="Rectángulo_339471" data-name="Rectángulo 339471" width="11.443" height="13.103" fill="none"/>
    </clipPath>
    <clipPath id="clip-path-8">
      <path id="Trazado_212108" data-name="Trazado 212108" d="M529.942,165.673a4.056,4.056,0,0,0,4.413-3.721l-8.6-.326a4,4,0,0,0,4.184,4.047" transform="translate(-525.758 -161.626)" fill="none"/>
    </clipPath>
  </defs>
  <g id="Grupo_995866" data-name="Grupo 995866" transform="translate(-915 -6951)">
    <rect id="Rectángulo_339544" data-name="Rectángulo 339544" width="458" height="224" rx="16" transform="translate(1067 6951)" fill="#ffe891"/>
    <rect id="Rectángulo_339543" data-name="Rectángulo 339543" width="248" height="142" rx="16" transform="translate(915 7015)" fill="#a6bbff"/>
    <g id="Grupo_984445" data-name="Grupo 984445" transform="translate(76 -7.372)">
      <g id="Grupo_984314" data-name="Grupo 984314" transform="translate(944 6958.372)" clip-path="url(#clip-path)">
        <path id="Trazado_212005" data-name="Trazado 212005" d="M248.629,152.168s1.427,8.765-.879,11.073c-4.4,4.4-17.917,6.452-10.787,25.285h62.189s3.078-7.5-3.869-11.858c0,0-2.418-1.688-.935-6.773s-2.213-8.7-6.748-14.129l-8.92-14.5Z" transform="translate(-92.648 -55.713)" fill="#f46eab"/>
        <path id="Trazado_212006" data-name="Trazado 212006" d="M257.4,143.924c0,11.2,9.511,20.275,21.244,20.275s21.244-9.077,21.244-20.275-9.511-20.275-21.244-20.275S257.4,132.726,257.4,143.924" transform="translate(-101.514 -48.764)" fill="#f46eab"/>
        <path id="Trazado_212007" data-name="Trazado 212007" d="M315.122,167.7a5.5,5.5,0,1,0,3.666-6.856,5.5,5.5,0,0,0-3.666,6.856" transform="translate(-124.182 -63.341)" fill="#f29b5f"/>
        <path id="Trazado_212008" data-name="Trazado 212008" d="M292.84,182.637l-.53,24.376-17.658-.987,3.6-35.875Z" transform="translate(-108.316 -67.103)" fill="#ffaf78"/>
        <path id="Trazado_212009" data-name="Trazado 212009" d="M298.981,196.715s-7.876-.812-8.215-9.778l8.358,4.422Z" transform="translate(-114.67 -73.723)" fill="#2f1a2a"/>
        <path id="Trazado_212010" data-name="Trazado 212010" d="M303.339,134.35a8.029,8.029,0,0,1,2.625,4.591c1.052,5.259,3.117,14.525,1.255,20.109-2.421,7.26-8.316,12.408-17.844,10.6,0,0-11.417-1.153-13.765-15.613-3.741-23.04,15.854-29.719,27.729-19.683" transform="translate(-108.509 -51.198)" fill="#ffaf78"/>
        <path id="Trazado_212011" data-name="Trazado 212011" d="M322.689,162.288a1.258,1.258,0,1,0,.9-1.536,1.259,1.259,0,0,0-.9,1.536" transform="translate(-127.243 -63.38)" fill="#2f1a2a"/>
        <path id="Trazado_212012" data-name="Trazado 212012" d="M305.136,162.64a1.258,1.258,0,1,0,.9-1.536,1.259,1.259,0,0,0-.9,1.536" transform="translate(-120.321 -63.519)" fill="#2f1a2a"/>
        <path id="Trazado_212013" data-name="Trazado 212013" d="M318.113,168.3l.878,2.39a.575.575,0,0,1-.412.678l-1.357.251" transform="translate(-125.104 -66.374)" fill="none" stroke="#2f1a2a" stroke-linecap="round" stroke-linejoin="round" stroke-width="0.893"/>
        <path id="Trazado_212014" data-name="Trazado 212014" d="M300.718,146.914s3.9-.69,4.108,1.1c0,0,.11,1.217-3.3,1.745s-4.774.44-5.194-.676,2.541-2.006,4.385-2.171" transform="translate(-116.85 -57.887)" fill="#2f1a2a"/>
        <path id="Trazado_212015" data-name="Trazado 212015" d="M324.543,147s-3.4-.741-3.885.976c0,0-.307,1.174,2.679,1.74,2.175.412,2.985.038,3.206-.749.262-.933-.716-1.794-2-1.966" transform="translate(-126.456 -57.91)" fill="#2f1a2a"/>
        <path id="Trazado_212016" data-name="Trazado 212016" d="M315.514,176.981l-9.648.11a4.425,4.425,0,0,0,4.666,4.169,4.94,4.94,0,0,0,4.982-4.279" transform="translate(-120.625 -69.797)" fill="#221914"/>
      </g>
      <g id="Grupo_984316" data-name="Grupo 984316" transform="translate(1129.241 7065.556)" clip-path="url(#clip-path-2)">
        <path id="Trazado_212017" data-name="Trazado 212017" d="M305.081,185.332a3.4,3.4,0,1,0,1.671-4.507,3.4,3.4,0,0,0-1.671,4.507" transform="translate(-305.434 -178.373)" fill="#e275c2"/>
        <path id="Trazado_212018" data-name="Trazado 212018" d="M315.742,177.648l-10.951-.016V175.78l10.951-.4Z" transform="translate(-305.443 -176.349)" fill="#fff"/>
      </g>
      <g id="Grupo_984320" data-name="Grupo 984320" transform="translate(1121.257 7050.047)" opacity="0.11">
        <g id="Grupo_984319" data-name="Grupo 984319">
          <g id="Grupo_984318" data-name="Grupo 984318" clip-path="url(#clip-path-3)">
            <path id="Trazado_212020" data-name="Trazado 212020" d="M306.035,158.272a6.678,6.678,0,1,1-6.6-6.9,6.751,6.751,0,0,1,6.6,6.9" transform="translate(-292.683 -151.373)" fill="#fff"/>
          </g>
        </g>
      </g>
      <g id="Grupo_984323" data-name="Grupo 984323" transform="translate(1138.091 7050.451)" opacity="0.11">
        <g id="Grupo_984322" data-name="Grupo 984322">
          <g id="Grupo_984321" data-name="Grupo 984321" clip-path="url(#clip-path-4)">
            <path id="Trazado_212021" data-name="Trazado 212021" d="M331.922,158.657c-.042,3.618-2.637,6.522-5.8,6.486s-5.687-3-5.646-6.618,2.637-6.521,5.8-6.485,5.688,3,5.646,6.617" transform="translate(-320.479 -152.039)" fill="#fff"/>
          </g>
        </g>
      </g>
      <path id="Trazado_212022" data-name="Trazado 212022" d="M306.035,158.272a6.678,6.678,0,1,1-6.6-6.9A6.751,6.751,0,0,1,306.035,158.272Z" transform="translate(828.573 6898.674)" fill="none" stroke="#fff" stroke-linecap="round" stroke-linejoin="round" stroke-width="1.261"/>
      <path id="Trazado_212023" data-name="Trazado 212023" d="M331.922,158.657c-.042,3.618-2.637,6.522-5.8,6.486s-5.687-3-5.646-6.618,2.637-6.521,5.8-6.485S331.964,155.039,331.922,158.657Z" transform="translate(817.611 6898.412)" fill="none" stroke="#fff" stroke-linecap="round" stroke-linejoin="round" stroke-width="1.261"/>
      <path id="Trazado_212024" data-name="Trazado 212024" d="M314.73,162.274a2.4,2.4,0,0,1,3.482-.01" transform="translate(819.879 6894.672)" fill="none" stroke="#fff" stroke-linecap="round" stroke-linejoin="round" stroke-width="1.261"/>
      <line id="Línea_1653" data-name="Línea 1653" x1="5.967" y2="2.269" transform="translate(1115.291 7056.793)" fill="none" stroke="#fff" stroke-linecap="round" stroke-linejoin="round" stroke-width="1.261"/>
      <path id="Trazado_212025" data-name="Trazado 212025" d="M276.345,150.356c.907.38,17.544-9.632,9.1-20.528,0,0-12.655,2.971-11.926,20.519Z" transform="translate(836.142 6907.171)" fill="#f46eab"/>
      <path id="Trazado_212026" data-name="Trazado 212026" d="M291.151,131.4s11.2-2.731,17.715,2.851c0,0-3.158-10.082-18.558-10.6l-5.8,12.893Z" transform="translate(831.796 6909.608)" fill="#f46eab"/>
      <path id="Trazado_212027" data-name="Trazado 212027" d="M251.608,118.091a8.534,8.534,0,1,0,8.534-8.534,8.534,8.534,0,0,0-8.534,8.534" transform="translate(844.772 6915.166)" fill="#f46eab"/>
      <path id="Trazado_212028" data-name="Trazado 212028" d="M280.674,154.263l-1.088,11.5-3.967-10.531Z" transform="translate(835.303 6897.535)" fill="#f46eab"/>
      <path id="Trazado_212029" data-name="Trazado 212029" d="M262.218,169.554a6.671,6.671,0,1,0,4.449-8.32,6.672,6.672,0,0,0-4.449,8.32" transform="translate(840.702 6894.899)" fill="#ffaf78"/>
      <path id="Trazado_212030" data-name="Trazado 212030" d="M267.979,168.638a4.887,4.887,0,0,1,6.192,3.977" transform="translate(838.316 6891.931)" fill="none" stroke="#2f1a2a" stroke-linecap="round" stroke-linejoin="round" stroke-width="0.893"/>
      <path id="Trazado_212031" data-name="Trazado 212031" d="M322.537,236.087s9.533,5.651,9.533,20.333v42.086a10.655,10.655,0,0,1-21.31.072l-.377-55.448Z" transform="translate(821.593 6865.266)" fill="#a8527e"/>
      <path id="Trazado_212032" data-name="Trazado 212032" d="M358.084,294.1l4.573,5.924-35.068,31.2a8.624,8.624,0,1,1-8.871-14.709Z" transform="translate(820.223 6842.388)" fill="#ffaf78"/>
      <path id="Trazado_212033" data-name="Trazado 212033" d="M386.883,285.787l2.5-4.334a16.657,16.657,0,0,1,5.3-5.617l3.844-2.519a1.765,1.765,0,0,1,2.584.767,2.261,2.261,0,0,1-.455,2.488l-3.413,3.485,18.363-5.26a1.367,1.367,0,0,1,1.751,1.071l.1.544a1.367,1.367,0,0,1-.849,1.509l-10.777,3.456,12.928-2.258a1.367,1.367,0,0,1,1.676,1.176l.045.4a1.366,1.366,0,0,1-1.039,1.483l-13.381,2.748,11.1-.225a1.367,1.367,0,0,1,1.406,1.6l-.03.173a1.368,1.368,0,0,1-1.171,1.121l-11.551,1.493,7.091,0a1.367,1.367,0,0,1,.126,2.728l-25.825,2.39Z" transform="translate(791.424 6850.698)" fill="#ffaf78"/>
      <path id="Trazado_212034" data-name="Trazado 212034" d="M243.9,224.955s-17.414,3.785-24.083,20-2.039,71.953-2.039,71.953,33.124,15.581,62.035-1.975l5.586-83.817s-6.465-4.646-11.736-7.632Z" transform="translate(858.731 6870.235)" fill="#a8527e"/>
      <path id="Trazado_212035" data-name="Trazado 212035" d="M275.276,217.361s-4.879,1.09-13.346,5.178A173.359,173.359,0,0,1,284.6,244.207s7.783-8,7.1-23.137l-9.886-3.709Z" transform="translate(840.702 6872.651)" fill="#ffaf78"/>
      <line id="Línea_1654" data-name="Línea 1654" x1="2.403" y2="36.047" transform="translate(1140.417 7121.022)" fill="none" stroke="#873964" stroke-linecap="round" stroke-linejoin="round" stroke-width="1.7"/>
      <rect id="Rectángulo_339472" data-name="Rectángulo 339472" width="400" height="246.373" transform="translate(944 6958.372)" fill="none"/>
      <g id="Grupo_984326" data-name="Grupo 984326" transform="translate(944 6958.372)" clip-path="url(#clip-path)">
        <path id="Trazado_212038" data-name="Trazado 212038" d="M137.075,314.679s22.1,4.454,40.173-4.364l6.019-75.85-21.494-21.871-21.268-4.519-11.713,42.644Z" transform="translate(-50.792 -82.059)" fill="#fafbfd"/>
        <path id="Trazado_212039" data-name="Trazado 212039" d="M129.249,208.075s3.076,75.724,2.269,113.211l-16.367-1.943a16.892,16.892,0,0,1-14.894-17.265l1.694-58.305,1.856-25.206a5.73,5.73,0,0,1,3.571-4.9,85.85,85.85,0,0,1,21.87-5.591" transform="translate(-39.536 -82.059)" fill="#fca428"/>
        <path id="Trazado_212040" data-name="Trazado 212040" d="M33.653,345.452,27.8,355.723a68.663,68.663,0,0,0-22.1,5.723,1.432,1.432,0,0,0,1.025,2.665l7.9-2.387A125.12,125.12,0,0,0,.9,368.359a1.789,1.789,0,0,0,1.536,3.221L15.2,366.622,3.281,373.207A1.977,1.977,0,0,0,5.1,376.719l11.545-5.572-9,6.323a2.288,2.288,0,0,0,2.581,3.778c3.541-2.337,12.462-7.8,18.254-7.645a27.7,27.7,0,0,1-3.819,4.547,2.581,2.581,0,0,0,3.236,4l6.8-4.7a6.693,6.693,0,0,0,2.648-3.73l2.26-8.215,9.86-9.328Z" transform="translate(0 -136.237)" fill="#fc9753"/>
        <path id="Trazado_212041" data-name="Trazado 212041" d="M85.691,216.739s-3.158-.18-13.5,13.078c-10.644,13.647-29.143,74.567-29.143,74.567l18.582,14.109,31.546-68.667Z" transform="translate(-16.977 -85.476)" fill="#fca428"/>
        <line id="Línea_1655" data-name="Línea 1655" y1="23.916" x2="10.988" transform="translate(61.753 171.881)" fill="none" stroke="#d3750d" stroke-linecap="round" stroke-linejoin="round" stroke-width="1.748"/>
        <path id="Trazado_212042" data-name="Trazado 212042" d="M209.775,218.531s16.291,5.079,22.423,65.182l-13.234,9.377Z" transform="translate(-82.73 -86.183)" fill="#fca428"/>
        <path id="Trazado_212043" data-name="Trazado 212043" d="M299.281,273.921s-5.946-4.58-.415-12.243l8.3-11.961a2.151,2.151,0,0,1,3.752,2.027l-2.558,7.08,15.733-10.652a2.331,2.331,0,0,1,2.842,3.694L316.8,259.73l.2.621,11.63-6.626a2.246,2.246,0,0,1,1.879,4.08L319.275,265l.163.789L330.4,261.1c2.713-1.3,3.559-.029,3.826.975.25.937-1.791,2.214-2.712,2.52l-11.336,5.73.124.732,10.512-4.035a1.619,1.619,0,0,1,.508,3.2l-11.993,5.109s-10.953,7.476-15.919,3.258Z" transform="translate(-116.936 -97.692)" fill="#fc9753"/>
        <path id="Trazado_212044" data-name="Trazado 212044" d="M315.572,266.058s3.462,6.181-.765,11.682" transform="translate(-124.151 -104.926)" fill="none" stroke="#e07832" stroke-linecap="round" stroke-linejoin="round" stroke-width="1.6"/>
        <path id="Trazado_212045" data-name="Trazado 212045" d="M273.307,287.728l18.051-7.613,7.8,10.944-20.235,10.89Z" transform="translate(-107.785 -110.47)" fill="#fc9753"/>
        <path id="Trazado_212046" data-name="Trazado 212046" d="M209.749,298.881l45.631-18.451,9.132,19.774-39.826,26.308a13.867,13.867,0,0,1-18.5-3.915c-4.79-6.825-3.8-19.8,3.564-23.716" transform="translate(-80.156 -110.594)" fill="#fca428"/>
        <line id="Línea_1656" data-name="Línea 1656" x1="5.541" y2="2.24" transform="translate(141.498 181.232)" fill="none" stroke="#d3750d" stroke-linecap="round" stroke-linejoin="round" stroke-width="1.748"/>
        <path id="Trazado_212047" data-name="Trazado 212047" d="M183.251,213.486s5.276,6.186,7.433,32.893,2.881,72.369,2.881,72.369a19.526,19.526,0,0,0,15.608-19.724c-.6-19.775-2.025-52-5.136-65.631l-2.9-14.795c-.16-.7-.841-2.8-.841-2.8s-2.336-2.129-16.848-5.457Z" transform="translate(-72.269 -82.951)" fill="#fca428"/>
        <path id="Trazado_212048" data-name="Trazado 212048" d="M223.139,317.148s.141-37.922-4.4-65.5" transform="translate(-86.266 -99.244)" fill="none" stroke="#d3750d" stroke-linecap="round" stroke-linejoin="round" stroke-width="1.748"/>
        <path id="Trazado_212049" data-name="Trazado 212049" d="M144.407,164.872s-5.2,8.4,2.435,8.152a8.411,8.411,0,0,0,2.468-7.553Z" transform="translate(-56.269 -65.021)" fill="#793625"/>
        <path id="Trazado_212050" data-name="Trazado 212050" d="M196.711,116.269a13.4,13.4,0,0,0-1.587-5.006c-10.993-20.318-34.9-4.1-34.9-4.1l4.186,14.237c9.966-6.028,21.822-8.49,32.3-5.13" transform="translate(-63.189 -39.844)" fill="#793625"/>
        <path id="Trazado_212051" data-name="Trazado 212051" d="M167.139,129.683l4.671,18.471s29.231-8.394,27.626-23.6c-10.476-3.36-20.847-4.789-32.3,5.13" transform="translate(-65.915 -48.129)" fill="#6b2a1d"/>
        <path id="Trazado_212052" data-name="Trazado 212052" d="M189.995,156.688a5.993,5.993,0,1,0,4.287-7.311,5.993,5.993,0,0,0-4.287,7.311" transform="translate(-74.852 -58.833)" fill="#e8803a"/>
        <path id="Trazado_212053" data-name="Trazado 212053" d="M168.428,172.453l1.1,17.8a8.26,8.26,0,0,1-14.246,5.154l-7.155-7.569,2.129-31.069Z" transform="translate(-58.419 -61.828)" fill="#fc9753"/>
        <path id="Trazado_212054" data-name="Trazado 212054" d="M174.394,189.194s-11.65-.5-12.519-12.246l11.973,3.462Z" transform="translate(-63.839 -69.784)" fill="#2f1a2a"/>
        <path id="Trazado_212055" data-name="Trazado 212055" d="M180.043,115.041s3.819,24.3.833,31.958-9.622,12.338-19.895,10.067c0,0-11.982-.93-14.153-18.327-3.27-26.192,21.387-37.939,33.216-23.7" transform="translate(-57.788 -42.957)" fill="#fc9753"/>
        <path id="Trazado_212056" data-name="Trazado 212056" d="M198.55,151.037a1.371,1.371,0,1,0,1.042-1.635,1.371,1.371,0,0,0-1.042,1.635" transform="translate(-78.29 -58.907)" fill="#171717"/>
        <path id="Trazado_212057" data-name="Trazado 212057" d="M179.414,150.67a1.371,1.371,0,1,0,1.042-1.635,1.371,1.371,0,0,0-1.042,1.635" transform="translate(-70.743 -58.762)" fill="#171717"/>
        <path id="Trazado_212058" data-name="Trazado 212058" d="M193.84,153.776l1.318,4.686-2.218,1.105" transform="translate(-76.09 -60.645)" fill="none" stroke="#2f1a2a" stroke-linecap="round" stroke-linejoin="round" stroke-width="0.983"/>
        <path id="Trazado_212059" data-name="Trazado 212059" d="M174.821,135.45s4.261-1.031,4.565,1.273c0,0,.173,1.564-3.554,2.369s-5.231.741-5.741-.684,2.71-2.679,4.731-2.958" transform="translate(-67.058 -53.327)" fill="#221914"/>
        <path id="Trazado_212060" data-name="Trazado 212060" d="M201.389,134.944s-3.967-.982-4.4,1.275c0,0-.262,1.544,3.219,2.3,2.534.547,3.438.056,3.631-.979.229-1.227-.963-2.362-2.455-2.592" transform="translate(-77.687 -53.135)" fill="#221914"/>
        <path id="Trazado_212061" data-name="Trazado 212061" d="M182.057,166.655l7.95.585s-.079,3.106-4.132,2.833-3.818-3.418-3.818-3.418" transform="translate(-71.798 -65.724)" fill="#fff"/>
        <path id="Trazado_212062" data-name="Trazado 212062" d="M148.1,137.122l1.169-8.847s7.008-2.229,8.682-15.47c0,0-2.941-6.091-11.924-3.3s-16.781,9.283-6.931,25.591Z" transform="translate(-53.052 -42.896)" fill="#793625"/>
        <path id="Trazado_212063" data-name="Trazado 212063" d="M133.553,155.712a7.272,7.272,0,1,0,5.2-8.872,7.273,7.273,0,0,0-5.2,8.872" transform="translate(-52.576 -57.816)" fill="#fc9753"/>
        <path id="Trazado_212064" data-name="Trazado 212064" d="M140.051,154.815a5.328,5.328,0,0,1,6.575,4.6" transform="translate(-55.232 -61.005)" fill="none" stroke="#2f1a2a" stroke-linecap="round" stroke-linejoin="round" stroke-width="0.983"/>
        <path id="Trazado_212065" data-name="Trazado 212065" d="M168.717,111.988a27.644,27.644,0,0,1,17.693,4.182l-1.859-7.862-11.635-1.61-11.1,4.179,2.739.259Z" transform="translate(-63.815 -42.078)" fill="#793625"/>
        <path id="Trazado_212066" data-name="Trazado 212066" d="M201.743,120.606s13.4.033,13.453,9.8a.169.169,0,0,0,.334.03c.628-3.627-.046-13.552-14.835-12.394Z" transform="translate(-79.149 -46.514)" fill="#793625"/>
        <path id="Trazado_212067" data-name="Trazado 212067" d="M67.8,96.137H34.395A15.616,15.616,0,0,1,18.778,80.521v-9.1A15.616,15.616,0,0,1,34.395,55.808H67.8A15.616,15.616,0,0,1,83.417,71.424v9.1A15.616,15.616,0,0,1,67.8,96.137" transform="translate(-7.406 -22.009)" fill="#fc83b9"/>
        <path id="Trazado_212068" data-name="Trazado 212068" d="M86.625,114.749l8.133,10.276a1.319,1.319,0,0,0,2.309-1.157l-2.854-10.746Z" transform="translate(-34.163 -44.612)" fill="#fc83b9"/>
      </g>
      <g id="Grupo_984330" data-name="Grupo 984330" transform="translate(944 6958.372)" clip-path="url(#clip-path)">
        <path id="Trazado_212095" data-name="Trazado 212095" d="M561.448,40.329h31.589a15.616,15.616,0,0,0,15.617-15.615v-9.1A15.616,15.616,0,0,0,593.037,0H561.448a15.616,15.616,0,0,0-15.616,15.616v9.1a15.616,15.616,0,0,0,15.616,15.615" transform="translate(-215.262)" fill="#3c3fa7"/>
        <path id="Trazado_212096" data-name="Trazado 212096" d="M579.563,58.941,571.43,69.217a1.319,1.319,0,0,1-2.309-1.157l2.854-10.746Z" transform="translate(-224.427 -22.603)" fill="#3c3fa7"/>
      </g>
      <g id="Grupo_984332" data-name="Grupo 984332" transform="translate(944 6958.372)" clip-path="url(#clip-path)">
        <path id="Trazado_212097" data-name="Trazado 212097" d="M522.326,150.151a6.169,6.169,0,1,1-4.659-7.377,6.169,6.169,0,0,1,4.659,7.377" transform="translate(-201.185 -56.246)" fill="#8c4d41"/>
        <path id="Trazado_212098" data-name="Trazado 212098" d="M540.676,166.563l.555,24.258,22.093-1.582-4.488-39.423Z" transform="translate(-213.228 -59.083)" fill="#9b5e4e"/>
        <path id="Trazado_212099" data-name="Trazado 212099" d="M540.9,184.251s12.009-1,12.589-15.357l-12.814,5.883Z" transform="translate(-213.229 -66.607)" fill="#221914"/>
        <path id="Trazado_212100" data-name="Trazado 212100" d="M526.073,108.174a16.058,16.058,0,0,0-9.886,13.363c-.711,6.824-1.343,17.4.778,22.58,3.28,8.009,10.242,12.7,20.772,9.849,0,0,12.328-1.5,14.111-20.09,2.109-21.994-13.33-30.614-25.775-25.7" transform="translate(-203.305 -42.133)" fill="#9b5e4e"/>
        <path id="Trazado_212101" data-name="Trazado 212101" d="M520.795,145.516a1.412,1.412,0,1,1-1.128-1.647,1.412,1.412,0,0,1,1.128,1.647" transform="translate(-204.284 -56.729)" fill="#221914"/>
        <path id="Trazado_212102" data-name="Trazado 212102" d="M540.47,144.49a1.412,1.412,0,1,1-1.128-1.647,1.412,1.412,0,0,1,1.128,1.647" transform="translate(-212.043 -56.324)" fill="#221914"/>
        <path id="Trazado_212103" data-name="Trazado 212103" d="M526.272,148.164l-1,4.067a.782.782,0,0,0,.612.954l1.491.288" transform="translate(-207.144 -58.432)" fill="none" stroke="#2f1a2a" stroke-linecap="round" stroke-linejoin="round" stroke-width="1.012"/>
        <path id="Trazado_212104" data-name="Trazado 212104" d="M541.37,130.334s-4.419-.917-4.654,1.464c0,0-.125,1.616,3.738,2.317s5.407.585,5.884-.9-2.879-2.664-4.968-2.883" transform="translate(-211.666 -51.332)" fill="#221914"/>
        <path id="Trazado_212105" data-name="Trazado 212105" d="M515.693,130.624s4.048-1.145,4.565,1.163c0,0,.322,1.58-3.233,2.471-2.588.649-3.535.174-3.769-.884-.277-1.254.91-2.463,2.438-2.75" transform="translate(-202.398 -51.403)" fill="#221914"/>
        <path id="Trazado_212106" data-name="Trazado 212106" d="M525.758,161.626l8.6.326a4.056,4.056,0,0,1-4.413,3.721,4,4,0,0,1-4.184-4.047" transform="translate(-207.345 -63.741)" fill="#221914"/>
      </g>
      <g id="Grupo_984334" data-name="Grupo 984334" transform="translate(1262.413 7056.257)" clip-path="url(#clip-path-8)">
        <path id="Trazado_212107" data-name="Trazado 212107" d="M536.361,169.216a3.215,3.215,0,1,1-1.58-4.263,3.215,3.215,0,0,1,1.58,4.263" transform="translate(-527.519 -162.822)" fill="#e275c2"/>
      </g>
      <g id="Grupo_984336" data-name="Grupo 984336" transform="translate(944 6958.372)" clip-path="url(#clip-path)">
        <path id="Trazado_212109" data-name="Trazado 212109" d="M548.347,131.3s-4.99-9.4-3.181-19.614c0,0-15.234,2.555-24.043-.25,0,0,2.069-12.566,22.559-10.941,28.059,2.225,19.858,32.125,6.478,37.242Z" transform="translate(-205.517 -39.573)" fill="#221914"/>
        <path id="Trazado_212110" data-name="Trazado 212110" d="M579.129,150.552a7.487,7.487,0,1,1-5.654-8.952,7.487,7.487,0,0,1,5.654,8.952" transform="translate(-222.56 -55.77)" fill="#9b5e4e"/>
        <path id="Trazado_212111" data-name="Trazado 212111" d="M577.7,149.716s-5.588-1.177-6.609,4.953" transform="translate(-225.223 -59.008)" fill="none" stroke="#2f1a2a" stroke-linecap="round" stroke-linejoin="round" stroke-width="1.012"/>
        <path id="Trazado_212112" data-name="Trazado 212112" d="M480.21,280.027v35.961l-16.866,29.548,16.575-1.956,20.094-19.41-2.158-42.337Z" transform="translate(-182.73 -110.435)" fill="#9b5e4e"/>
        <path id="Trazado_212113" data-name="Trazado 212113" d="M500.253,221.747s-13.081,7.636-15.179,26.517v26.849l21.35-.73Z" transform="translate(-191.3 -87.451)" fill="#f46eab"/>
        <path id="Trazado_212114" data-name="Trazado 212114" d="M525.2,211.63s-10.715,2.045-16.1,6.127l-1.591,96.427c34.416,20.758,73.766.606,73.766.606L570.6,218.255s-1.394-5.442-16.35-6.606Z" transform="translate(-200.149 -83.461)" fill="#f46eab"/>
        <path id="Trazado_212115" data-name="Trazado 212115" d="M565.733,210.869s-12.343-2.725-29.054-.019c0,0-1.587,9.934,11.833,10.353,14.535.454,17.221-10.334,17.221-10.334" transform="translate(-211.629 -82.681)" fill="#9b5e4e"/>
        <line id="Línea_1660" data-name="Línea 1660" x1="0.127" y1="33.822" transform="translate(307.967 153.839)" fill="none" stroke="#e03f90" stroke-linecap="round" stroke-linejoin="round" stroke-width="1.7"/>
        <path id="Trazado_212116" data-name="Trazado 212116" d="M535.154,291.483a14.646,14.646,0,0,0-10.895-8.654l-5.985-5.878a2.611,2.611,0,0,0-3.949,3.388l2.948,4.094-1.616-.7a12.411,12.411,0,0,1-6.013-5.505l-3.777-7a2.481,2.481,0,0,0-4.5,2.071l3.783,9.8a14.136,14.136,0,0,0,8.322,8.183l19.118,8.5Z" transform="translate(-197.66 -106.453)" fill="#9b5e4e"/>
        <path id="Trazado_212117" data-name="Trazado 212117" d="M555.6,305.518l53.165,20.342c4.6,1.988,6.825,9.814,4.77,14.384A8.98,8.98,0,0,1,600.315,344l-47.281-30.175Z" transform="translate(-218.102 -120.488)" fill="#9b5e4e"/>
        <path id="Trazado_212118" data-name="Trazado 212118" d="M633.672,324.9l-5.56-42.969-25.785-1.907,9.035,38.288Z" transform="translate(-237.541 -110.435)" fill="#9b5e4e"/>
        <path id="Trazado_212119" data-name="Trazado 212119" d="M596.946,214.719s32.223,5.309,36.026,57.622H593.346l-2.607-33.852Z" transform="translate(-232.972 -84.679)" fill="#f46eab"/>
        <path id="Trazado_212120" data-name="Trazado 212120" d="M601.488,292.274h-7.464l-4.635-27.011" transform="translate(-232.44 -104.613)" fill="none" stroke="#e03f90" stroke-linecap="round" stroke-linejoin="round" stroke-width="1.7"/>
      </g>
    </g>
  </g>
</svg>
