<svg id="Grupo_997094" data-name="Grupo 997094" xmlns="http://www.w3.org/2000/svg" xmlns:xlink="http://www.w3.org/1999/xlink" width="85" height="85" viewBox="0 0 85 85">
  <defs>
    <clipPath id="clip-path">
      <circle id="Elipse_4884" data-name="Elipse 4884" cx="42.5" cy="42.5" r="42.5" fill="#c4d1ff"/>
    </clipPath>
    <clipPath id="clip-path-2">
      <rect id="Rectángulo_338868" data-name="Rectángulo 338868" width="55.081" height="59.563" fill="none"/>
    </clipPath>
    <clipPath id="clip-path-3">
      <path id="Trazado_211574" data-name="Trazado 211574" d="M20.684,65.926c-4.847,0-5.064-4.27-5.064-4.27l9.866-.374a4.585,4.585,0,0,1-4.8,4.644" transform="translate(-15.62 -61.282)" fill="none"/>
    </clipPath>
  </defs>
  <path id="Trazado_207348" data-name="Trazado 207348" d="M42.5,0A42.5,42.5,0,1,1,0,42.5,42.5,42.5,0,0,1,42.5,0Z" fill="#ffe891"/>
  <g id="Enmascarar_grupo_440" data-name="Enmascarar grupo 440" clip-path="url(#clip-path)">
    <g id="Grupo_983907" data-name="Grupo 983907" transform="translate(15.526 15.257)">
      <g id="Grupo_983902" data-name="Grupo 983902" transform="translate(0 0)">
        <g id="Grupo_983901" data-name="Grupo 983901" clip-path="url(#clip-path-2)">
          <path id="Trazado_211565" data-name="Trazado 211565" d="M.175,50.917a7.08,7.08,0,1,0,5.346-8.465A7.079,7.079,0,0,0,.175,50.917" transform="translate(40.919 -12.894)" fill="#8c4d41"/>
          <path id="Trazado_211566" data-name="Trazado 211566" d="M35.178,8.028A18.428,18.428,0,0,1,46.524,23.363c.816,7.831,1.541,19.967-.893,25.912-3.763,9.191-11.754,14.579-23.838,11.3,0,0-14.148-1.724-16.193-23.055C3.179,12.282,20.9,2.389,35.178,8.028" transform="translate(4.048 -1.98)" fill="#9b5e4e"/>
          <path id="Trazado_211567" data-name="Trazado 211567" d="M7.886,45.417a1.62,1.62,0,1,0,1.295-1.89,1.619,1.619,0,0,0-1.295,1.89" transform="translate(38.522 -13.266)" fill="#221914"/>
          <path id="Trazado_211568" data-name="Trazado 211568" d="M27.562,44.391a1.62,1.62,0,1,0,1.295-1.89,1.62,1.62,0,0,0-1.295,1.89" transform="translate(5.171 -12.954)" fill="#221914"/>
          <path id="Trazado_211569" data-name="Trazado 211569" d="M16.375,47.82l1.148,4.668a.9.9,0,0,1-.7,1.1l-1.711.331" transform="translate(27.03 -14.584)" fill="none" stroke="#2f1a2a" stroke-linecap="round" stroke-linejoin="round" stroke-width="1.012"/>
          <path id="Trazado_211570" data-name="Trazado 211570" d="M32.331,30.016s5.071-1.052,5.34,1.681c0,0,.143,1.854-4.29,2.659s-6.205.671-6.751-1.031,3.3-3.057,5.7-3.309" transform="translate(-1.063 -9.093)" fill="#221914"/>
          <path id="Trazado_211571" data-name="Trazado 211571" d="M8.325,30.321S3.68,29.007,3.086,31.655c0,0-.369,1.813,3.711,2.836,2.97.745,4.057.2,4.325-1.014.317-1.439-1.045-2.827-2.8-3.156" transform="translate(41.773 -9.148)" fill="#221914"/>
          <path id="Trazado_211572" data-name="Trazado 211572" d="M25.486,61.282l-9.866.374s.217,4.27,5.064,4.27a4.584,4.584,0,0,0,4.8-4.644" transform="translate(18.739 -18.69)" fill="#221914"/>
        </g>
      </g>
      <g id="Grupo_983904" data-name="Grupo 983904" transform="translate(34.359 42.592)">
        <g id="Grupo_983903" data-name="Grupo 983903" transform="translate(0 0)" clip-path="url(#clip-path-3)">
          <path id="Trazado_211573" data-name="Trazado 211573" d="M20.423,69.543a3.689,3.689,0,1,0,1.813-4.892,3.689,3.689,0,0,0-1.813,4.892" transform="translate(-20.703 -62.207)" fill="#e275c2"/>
        </g>
      </g>
      <g id="Grupo_983906" data-name="Grupo 983906" transform="translate(0 0)">
        <g id="Grupo_983905" data-name="Grupo 983905" clip-path="url(#clip-path-2)">
          <path id="Trazado_211575" data-name="Trazado 211575" d="M27.189,35.519s5.726-10.782,3.65-22.509c0,0,17.483,2.932,27.592-.287,0,0-2.375-14.42-25.889-12.556C.343,2.719,9.753,37.034,25.109,42.905Z" transform="translate(-10.985 0)" fill="#221914"/>
          <path id="Trazado_211576" data-name="Trazado 211576" d="M54.414,51.556A8.591,8.591,0,1,0,60.9,41.283a8.592,8.592,0,0,0-6.488,10.273" transform="translate(-53.976 -12.526)" fill="#9b5e4e"/>
          <path id="Trazado_211577" data-name="Trazado 211577" d="M60.955,49.385s6.413-1.35,7.584,5.684" transform="translate(-55.822 -15.03)" fill="none" stroke="#2f1a2a" stroke-linecap="round" stroke-linejoin="round" stroke-width="1.012"/>
        </g>
      </g>
    </g>
  </g>
</svg>
