<svg xmlns="http://www.w3.org/2000/svg" xmlns:xlink="http://www.w3.org/1999/xlink" width="400" height="471" viewBox="0 0 400 471">
  <defs>
    <clipPath id="clip-path">
      <rect id="Rectángulo_339688" data-name="Rectángulo 339688" width="400" height="471" transform="translate(390 1263)" fill="#fff" stroke="#707070" stroke-width="1"/>
    </clipPath>
    <clipPath id="clip-path-2">
      <rect id="Rectángulo_339685" data-name="Rectángulo 339685" width="425.179" height="324.404" fill="#3c3fa7"/>
    </clipPath>
    <clipPath id="clip-path-3">
      <rect id="Rectángulo_339686" data-name="Rectángulo 339686" width="444.017" height="673.26" fill="none"/>
    </clipPath>
    <clipPath id="clip-path-4">
      <path id="Trazado_218238" data-name="Trazado 218238" d="M127.17,37.726c-1.5,2.141,7.1,4.805,9.882,4.654,4.8-.257,5.6-2.5.248-4.507a17.394,17.394,0,0,0-6.064-1.169c-2.221,0-3.725.536-4.066,1.022" transform="translate(-126.996 -36.704)" fill="none"/>
    </clipPath>
    <clipPath id="clip-path-6">
      <path id="Trazado_218334" data-name="Trazado 218334" d="M83.026,34.483c.266,5.92,11.131,10.882,15.564,6.382,2.889-2.934-7.722-8.22-12.892-8.22-1.638,0-2.729.531-2.672,1.838" transform="translate(-83.024 -32.645)" fill="none"/>
    </clipPath>
  </defs>
  <g id="Enmascarar_grupo_607" data-name="Enmascarar grupo 607" transform="translate(-390 -1263)" clip-path="url(#clip-path)">
    <g id="Grupo_995883" data-name="Grupo 995883">
      <rect id="Rectángulo_339682" data-name="Rectángulo 339682" width="401" height="699" transform="translate(392 1263)" fill="#c4d1ff"/>
      <g id="Grupo_995882" data-name="Grupo 995882" transform="translate(368.239 1289.55)">
        <g id="Grupo_995872" data-name="Grupo 995872" transform="translate(0 114.527)">
          <g id="Grupo_995869" data-name="Grupo 995869" transform="translate(3.667 179.23)">
            <rect id="Rectángulo_339683" data-name="Rectángulo 339683" width="303.375" height="379.503" transform="translate(122.438)" fill="#6b8dfc"/>
            <path id="Rectángulo_339684" data-name="Rectángulo 339684" d="M139,0H425.814a0,0,0,0,1,0,0V172.774a0,0,0,0,1,0,0H0a0,0,0,0,1,0,0V139A139,139,0,0,1,139,0Z" transform="translate(0 206.729)" fill="#3c3fa7"/>
          </g>
          <g id="Grupo_995871" data-name="Grupo 995871" transform="translate(0 0)">
            <g id="Grupo_995870" data-name="Grupo 995870" clip-path="url(#clip-path-2)">
              <path id="Trazado_218217" data-name="Trazado 218217" d="M82.434,209.841H63.58a.953.953,0,0,1-.883-1.011V19.281H.883a1.02,1.02,0,0,1,0-2.022h62.7a.952.952,0,0,1,.883,1.011V207.82H81.551V1.012a1,1,0,0,1,.622-.966.829.829,0,0,1,.99.4L97.42,24.295a1.112,1.112,0,0,1,.154.57v163.47h15.341V94.979a.954.954,0,0,1,.883-1.011h94.758V22.107a.953.953,0,0,1,.883-1.011h60.645a.952.952,0,0,1,.883,1.011v129.27h79.351V70.99a.952.952,0,0,1,.883-1.011H388.32a.953.953,0,0,1,.883,1.011V103.91h13.318V20.188a1.112,1.112,0,0,1,.155-.57l10.34-17.3a.825.825,0,0,1,.99-.4,1,1,0,0,1,.622.965V116.6h9.67a1.02,1.02,0,0,1,0,2.022H413.744a.952.952,0,0,1-.883-1.011V6.155L404.287,20.5v84.42a.952.952,0,0,1-.883,1.011H388.32a.952.952,0,0,1-.883-1.011V72H352.084v80.387a.952.952,0,0,1-.883,1.011H270.084a.952.952,0,0,1-.883-1.011V23.117H210.322V94.979a.953.953,0,0,1-.883,1.011H114.681v93.356a.953.953,0,0,1-.883,1.011H96.691a.954.954,0,0,1-.883-1.011V25.178L83.317,4.279V208.831a.952.952,0,0,1-.883,1.011" transform="translate(0 0)" fill="#3c3fa7"/>
              <path id="Trazado_218218" data-name="Trazado 218218" d="M276.286,321.628h-.042a.968.968,0,0,1-.841-1.057c1.745-42.568-4.291-68.737-17.941-77.78-7.143-4.73-15.122-3.625-20.559-1.862a40.724,40.724,0,0,0-10.321,5.09.788.788,0,0,1-.943.005,1.066,1.066,0,0,1-.41-.972,109.383,109.383,0,0,0-1.3-27.242c-3.437-18.491-11.683-29.536-24.508-32.827-8.319-2.135-15.459-.943-21.227,3.542C167.465,196.86,165,213.9,164.975,214.072a.94.94,0,0,1-.8.849.884.884,0,0,1-.911-.685,82.663,82.663,0,0,0-13.289-24.656c-8.758-11.125-24.364-24.277-49.044-23.612-19.909.518-35.977,8.037-47.759,22.349-23.26,28.257-22.078,73.972-22.063,74.43a.89.89,0,1,1-1.763.1c-.013-.242-1.408-24.212-12.492-33.456-4.319-3.6-9.621-4.519-15.754-2.719a.881.881,0,0,1-1.074-.729,1.03,1.03,0,0,1,.636-1.23c6.67-1.956,12.467-.931,17.236,3.047,4.957,4.136,8.688,11.291,11.087,21.268.26,1.083.491,2.138.693,3.151,1.077-15.541,5.387-44.806,22.2-65.238C64,172.214,80.49,164.478,100.893,163.947c25.372-.631,41.433,12.871,50.444,24.34a86.137,86.137,0,0,1,12.527,22.181c1.285-5.607,4.829-17.006,13.333-23.619,6.185-4.812,13.791-6.106,22.6-3.842,28.7,7.365,27.886,50.522,27.322,60.306,4.6-2.9,18.848-10.461,31.213-2.28,14.274,9.446,20.61,36.237,18.831,79.631a.946.946,0,0,1-.881.963" transform="translate(0 1.766)" fill="#3c3fa7"/>
              <path id="Trazado_218219" data-name="Trazado 218219" d="M355.4,321.911h-.03a.962.962,0,0,1-.853-1.043,145.653,145.653,0,0,1,3.706-26.8c4.423-17.942,12.02-27.733,21.968-28.318a6.544,6.544,0,0,1,5.369,2.3c2.624,2.859,3.879,7.9,4.478,12.12,2.673-14.178,9.838-44.852,22.274-48.169,13.725-3.663,19.371,12.013,20.786,16.953,3.4-2.82,14.308-10.889,22.506-5.8,10.961,6.8,11.087,33.121,11.087,34.238a.891.891,0,1,1-1.766,0c0-.262-.124-26.23-10.163-32.461-8.594-5.336-21.463,6.374-21.593,6.494a.791.791,0,0,1-.837.169.973.973,0,0,1-.575-.719,35.323,35.323,0,0,0-4.127-10.069c-3.866-6.145-8.885-8.446-14.919-6.838-14.749,3.936-22.063,53.094-22.135,53.59a.911.911,0,0,1-.945.841.966.966,0,0,1-.809-1.009c0-.129-.037-13.039-4.483-17.878a4.861,4.861,0,0,0-4.06-1.74c-22.251,1.3-23.985,52.644-24,53.163a.948.948,0,0,1-.881.977" transform="translate(-41.513 2.493)" fill="#3c3fa7"/>
            </g>
          </g>
        </g>
        <g id="Grupo_995881" data-name="Grupo 995881" transform="translate(54.744 0)">
          <g id="Grupo_995874" data-name="Grupo 995874">
            <g id="Grupo_995873" data-name="Grupo 995873" clip-path="url(#clip-path-3)">
              <path id="Trazado_218220" data-name="Trazado 218220" d="M180.862,11.008S113.8-12.916,102.071,52.284s-5.637,88.584-17.059,100.939-25.226,17.02-.946,17.307,34,18.561,37.642-12.181-5.868-34.124,9.333-44.545S144.73,78.944,145.6,74.282" transform="translate(60.852 5.793)"/>
              <path id="Trazado_218221" data-name="Trazado 218221" d="M148.691,30.472s7.173-22.547-22.823-21.6Z" transform="translate(108.463 7.623)"/>
              <path id="Trazado_218222" data-name="Trazado 218222" d="M141.62,54.917c.91-1.851-3.967,26.288-3.967,26.288l-33.016.415,8.776-43.427Z" transform="translate(90.168 32.912)" fill="#ed8c6b"/>
              <path id="Trazado_218223" data-name="Trazado 218223" d="M112.133,39.031l25.574,15.164c.434-.881-.443,5.029-1.482,11.463L109.178,41.825Z" transform="translate(94.081 33.634)"/>
              <path id="Trazado_218224" data-name="Trazado 218224" d="M146.008,10.081s23.42,8.32,24.752,34.954S165.582,84.8,139.015,82.584c-23.666-1.975-31.733-20.364-31.733-20.364l1.832-26.394,11.945-25.176Z" transform="translate(92.447 8.687)" fill="#ed8c6b"/>
              <path id="Trazado_218225" data-name="Trazado 218225" d="M137.869,32.2s-7.544-13.2-21.523-1.944c0,0,10.15,13.747,21.523,1.944" transform="translate(100.258 22.16)" fill="#fff"/>
              <path id="Trazado_218226" data-name="Trazado 218226" d="M132.975,33.359s2.154-14.514,14.559-9.7c0,0-1.11,15.6-14.559,9.7" transform="translate(114.588 19.544)" fill="#fff"/>
              <path id="Trazado_218227" data-name="Trazado 218227" d="M134.073,38.279a1.3,1.3,0,0,1-1.119-1.962L136.4,30.5l-4.755.6a1.3,1.3,0,1,1-.324-2.578l7.384-.933a1.29,1.29,0,0,1,1.249.577,1.3,1.3,0,0,1,.034,1.376l-4.794,8.106a1.3,1.3,0,0,1-1.119.637" transform="translate(112.18 23.759)"/>
              <path id="Trazado_218228" data-name="Trazado 218228" d="M120.064,23.85a1.3,1.3,0,0,1-.633-2.435c7-3.9,12.414-2.884,12.643-2.839a1.3,1.3,0,0,1,1.02,1.527,1.317,1.317,0,0,1-1.521,1.024c-.065-.013-4.779-.836-10.878,2.558a1.285,1.285,0,0,1-.631.166" transform="translate(102.342 15.876)"/>
              <path id="Trazado_218229" data-name="Trazado 218229" d="M133.487,21.461a1.3,1.3,0,0,1-.962-2.171c.153-.164,3.744-4.025,8.609-2.709a1.3,1.3,0,0,1,.912,1.6,1.289,1.289,0,0,1-1.6.91c-3.329-.9-5.894,1.836-6,1.953a1.3,1.3,0,0,1-.957.419" transform="translate(113.909 14.053)"/>
              <path id="Trazado_218230" data-name="Trazado 218230" d="M126.193,22.2c-1.709-10.256,38.8,4.574,29.981-12.224,0,0-26.062-6.914-41.874,4.654S89.377,53.8,116.955,73.266l.326-15.475s12.84-12.021,8.912-35.594" transform="translate(85.541 6.827)"/>
              <path id="Trazado_218231" data-name="Trazado 218231" d="M119.341,33.565c-4.639-4.133-11.18-4.027-14.611.236s-2.448,11.07,2.189,15.2,11.181,4.027,14.611-.236,2.45-11.07-2.189-15.2" transform="translate(88.485 26.311)" fill="#ed8c6b"/>
              <path id="Trazado_218232" data-name="Trazado 218232" d="M115.727,39.893a1.293,1.293,0,0,1-.37-.054l-9.9-2.947A1.3,1.3,0,0,1,106.2,34.4l9.9,2.947a1.3,1.3,0,0,1-.37,2.547" transform="translate(90.075 29.599)"/>
              <path id="Trazado_218233" data-name="Trazado 218233" d="M108.55,43.168a1.3,1.3,0,0,1-1.231-1.717l1.614-4.779a1.311,1.311,0,0,1,1.648-.815,1.3,1.3,0,0,1,.814,1.648l-1.614,4.781a1.3,1.3,0,0,1-1.231.882" transform="translate(92.42 30.843)"/>
              <path id="Trazado_218234" data-name="Trazado 218234" d="M116.1,33.822a7.605,7.605,0,1,0,6.594-8.5,7.607,7.607,0,0,0-6.594,8.5" transform="translate(99.99 21.773)"/>
              <path id="Trazado_218235" data-name="Trazado 218235" d="M131.535,31.911c.583,4.634,4.291,7.981,8.281,7.479s6.751-4.665,6.168-9.3-4.291-7.981-8.281-7.479-6.751,4.665-6.168,9.3" transform="translate(113.28 19.442)"/>
              <path id="Trazado_218236" data-name="Trazado 218236" d="M127.17,37.726c.6-.853,4.777-1.862,10.132.147s4.548,4.25-.249,4.507c-2.781.151-11.381-2.511-9.882-4.654" transform="translate(109.435 31.628)"/>
            </g>
          </g>
          <g id="Grupo_995876" data-name="Grupo 995876" transform="translate(236.43 68.333)">
            <g id="Grupo_995875" data-name="Grupo 995875" clip-path="url(#clip-path-4)">
              <path id="Trazado_218237" data-name="Trazado 218237" d="M145.469,40.666a51.519,51.519,0,0,0-16.405-3.357c-8.208-.058,1.542,6.89,1.542,6.89l12.652,3.044Z" transform="translate(-128.046 -36.183)" fill="#fd521b"/>
            </g>
          </g>
          <g id="Grupo_995878" data-name="Grupo 995878">
            <g id="Grupo_995877" data-name="Grupo 995877" clip-path="url(#clip-path-3)">
              <path id="Trazado_218239" data-name="Trazado 218239" d="M165,319.161l45.819,95.1L301.836,339.2l-11.213-15.421a16.885,16.885,0,0,0-23.327-3.911l-35.334,24.686-27.127-43.989Z" transform="translate(142.183 259.003)" fill="#5774cd"/>
              <path id="Trazado_218240" data-name="Trazado 218240" d="M113.507,292.7,50.424,352.212l23.826,48.3a16.442,16.442,0,0,0,14.743,9.169h58.735l-1.02-20.944a17.708,17.708,0,0,0-15.2-16.6l-16.214-2.3L107.633,354l39.841-34.989Z" transform="translate(43.451 252.23)" fill="#5774cd"/>
              <path id="Trazado_218241" data-name="Trazado 218241" d="M221.059,326.874l-16.225-26.31L165,319.161l16.675,34.609Z" transform="translate(142.183 259.003)" fill="#ed8c6b"/>
              <path id="Trazado_218242" data-name="Trazado 218242" d="M97.316,347.441l32.374-28.43L95.72,292.7l-24.657,23.26Z" transform="translate(61.237 252.23)" fill="#ed8c6b"/>
              <path id="Trazado_218243" data-name="Trazado 218243" d="M199.4,344a1.033,1.033,0,0,1-.106-.007.726.726,0,0,1-.616-.823l3.386-23.709a.727.727,0,0,1,1.335-.287l9.983,15.841,1.743-19.388a.727.727,0,0,1,1.335-.33l7.5,11.612a.728.728,0,0,1-1.223.789l-6.354-9.837-1.744,19.429a.727.727,0,0,1-1.34.322l-10.074-15.987-3.107,21.749a.726.726,0,0,1-.717.626" transform="translate(171.196 271.409)"/>
              <path id="Trazado_218244" data-name="Trazado 218244" d="M219.663,301.579l-4.693-7.611L164,317.765l10.439,21.669Z" transform="translate(141.319 253.319)"/>
              <path id="Trazado_218245" data-name="Trazado 218245" d="M104.93,334.482l17.617-15.471L88.58,292.7l-9.229,8.7Z" transform="translate(68.379 252.23)"/>
              <path id="Trazado_218246" data-name="Trazado 218246" d="M186.92,389.62a.728.728,0,0,1-.452-1.3l90.562-71.738a.727.727,0,0,1,.9,1.139l-90.562,71.738a.717.717,0,0,1-.452.158" transform="translate(160.446 272.671)"/>
              <path id="Trazado_218247" data-name="Trazado 218247" d="M205.043,341.361a11.4,11.4,0,1,1-11.4-11.4,11.4,11.4,0,0,1,11.4,11.4" transform="translate(157.042 284.334)" fill="#fff"/>
              <path id="Trazado_218248" data-name="Trazado 218248" d="M83.61,325.252a10.476,10.476,0,1,1-10.476-10.476A10.475,10.475,0,0,1,83.61,325.252" transform="translate(53.994 271.25)" fill="#fff"/>
              <path id="Trazado_218249" data-name="Trazado 218249" d="M144.415,378.5H92.434a17.22,17.22,0,0,1-15.357-9.571L53.905,321.715a.669.669,0,1,1,1.2-.59l23.171,47.213a15.872,15.872,0,0,0,14.157,8.825h51.981a.668.668,0,1,1,0,1.337" transform="translate(46.393 276.399)"/>
              <path id="Trazado_218250" data-name="Trazado 218250" d="M167.528,124.225l123.933,313.33L213.5,477.533,93.069,144.713Z" transform="translate(80.2 107.048)" fill="#ff9fa3"/>
              <path id="Trazado_218251" data-name="Trazado 218251" d="M104.357,160.848s19.578,98.271,16.491,145.92c-4.617,71.283-54.8,123.3-54.8,123.3l71.572,57.276s76.5-92,73.847-175.4c-3.392-106.671-16.664-142.1-16.664-142.1l4.1-7.346L182.734,118.84,99.459,137.973Z" transform="translate(56.918 102.407)" fill="#ff9fa3"/>
              <path id="Trazado_218252" data-name="Trazado 218252" d="M155.909,322.523a.931.931,0,0,1-.426-1.757l73.752-37.983a.93.93,0,0,1,.851,1.655l-73.75,37.981a.93.93,0,0,1-.426.1" transform="translate(133.548 243.591)"/>
              <path id="Trazado_218253" data-name="Trazado 218253" d="M82.028,449.518a.931.931,0,0,1-.76-1.469c.6-.847,60.119-85.647,64.73-155.508,2.411-36.516-6.52-80.572-14.436-111.1-8.584-33.111-17.861-57.89-17.954-58.138a.93.93,0,0,1,1.741-.653c.093.248,9.4,25.1,18.012,58.3,7.953,30.668,16.923,74.942,14.5,111.711-4.647,70.39-64.466,155.608-65.069,156.461a.927.927,0,0,1-.76.393" transform="translate(69.883 105.167)"/>
              <path id="Trazado_218254" data-name="Trazado 218254" d="M143.008,335.73a.925.925,0,0,1-.592-.212l-69.7-57.527a.931.931,0,0,1,1.186-1.435L143.6,334.08a.931.931,0,0,1-.592,1.649" transform="translate(62.374 238.129)"/>
              <path id="Trazado_218255" data-name="Trazado 218255" d="M141.64,57.324s41.8,25.952,46.627,84.278c3.962,47.895-24.115,46.923-39.109,49.6-17.219,3.074-61.247,11.924-61.247,11.924l6.41-133.3Z" transform="translate(75.755 49.397)" fill="#d7e5ff"/>
              <path id="Trazado_218256" data-name="Trazado 218256" d="M158.374,82.006s6.419-10.649-2.763-19.831c-6.146-6.146-38.944-22.544-57.8-10.148S83.19,81.589,94.505,87.02s63.868-5.014,63.868-5.014" transform="translate(73.113 40.942)" fill="#d7e5ff"/>
              <path id="Trazado_218257" data-name="Trazado 218257" d="M123.939,160.289l-1.69,65.3s15.558,20.967,10.593,39.966-11.04,4.932-11.04,4.932-29.62-10.143-34.161-20.017c-1.519-3.3,5.235-19.079,5.319-25.843.058-4.535-2.189-54.143-2.189-54.143Z" transform="translate(75.33 138.125)" fill="#ed8c6b"/>
              <path id="Trazado_218258" data-name="Trazado 218258" d="M111.5,235.2l5.691-19.017A6.05,6.05,0,0,0,113,208.707a5.913,5.913,0,0,0-7.5,4.312l-4.306,19.392a5.358,5.358,0,0,0,4.157,6.334A5.212,5.212,0,0,0,111.5,235.2" transform="translate(87.094 179.631)" fill="#ed8c6b"/>
              <path id="Trazado_218259" data-name="Trazado 218259" d="M95.2,232.811l5.472-23.115a5.459,5.459,0,0,1,5.589-4.131l.545.02a5.647,5.647,0,0,1,5.379,6.931l-6.019,23.095a5.5,5.5,0,0,1-6.46,3.911,5.619,5.619,0,0,1-4.505-6.711" transform="translate(81.916 177.136)" fill="#ed8c6b"/>
              <path id="Trazado_218260" data-name="Trazado 218260" d="M94.478,232.34h0a4.748,4.748,0,0,0,5.352-3.485l4.211-15.229a5.235,5.235,0,0,0-2.889-6.146l-1.162-.514a4.761,4.761,0,0,0-6.637,3.519L90.3,226.227a5.2,5.2,0,0,0,4.174,6.112" transform="translate(77.735 177.986)" fill="#ed8c6b"/>
              <path id="Trazado_218261" data-name="Trazado 218261" d="M90.581,226.527h0a4.116,4.116,0,0,0,4.044-2.979l3.23-12.641a3.883,3.883,0,0,0-3.036-4.669l-1.4-.331a4.163,4.163,0,0,0-5.174,3.251L86.413,222.13a4,4,0,0,0,4.168,4.4" transform="translate(74.432 177.329)" fill="#ed8c6b"/>
              <path id="Trazado_218262" data-name="Trazado 218262" d="M98.289,212.179a.636.636,0,0,1,.821-.4.7.7,0,0,1,.423.864c-.238.754-2.606,9.869-3.824,14.583a.634.634,0,0,1-.8.458.7.7,0,0,1-.465-.84c.143-.558,3.534-13.674,3.843-14.652l.006-.017" transform="translate(81.363 182.465)"/>
              <path id="Trazado_218263" data-name="Trazado 218263" d="M104.076,213.758a.632.632,0,0,1,.821-.395.7.7,0,0,1,.421.864c-.266.836-2.783,11.42-4.077,16.9a.637.637,0,0,1-.791.477.7.7,0,0,1-.484-.83c.155-.648,3.757-15.9,4.105-17l.006-.015" transform="translate(86.127 183.826)"/>
              <path id="Trazado_218264" data-name="Trazado 218264" d="M92.861,210.054a.635.635,0,0,1,.836-.391.7.7,0,0,1,.4.873c-.333.976-2.128,8.795-3.029,12.794a.639.639,0,0,1-.788.484.7.7,0,0,1-.491-.825c.108-.475,2.629-11.647,3.07-12.933v0" transform="translate(77.36 180.634)"/>
              <path id="Trazado_218265" data-name="Trazado 218265" d="M111.762,212.476c.21-.609.624-1.044.963-.994.367.056.51.653.318,1.337l-4.7,16.875c-.188.68-.642,1.191-1.007,1.136s-.508-.653-.318-1.337l4.7-16.873c.013-.048.028-.1.045-.143" transform="translate(92.145 182.235)"/>
              <path id="Trazado_218266" data-name="Trazado 218266" d="M118.277,320.925s28.358-3.677,32.467-36.54S175.583,150.112,169,105.939c-4.878-32.714-20.466-49.829-43.663-46.895-27,3.416-31.748,34.336-37.6,90.225-6.667,63.708-6.836,100-8.162,121.723-2.532,41.505,24.484,47.3,24.484,47.3Z" transform="translate(68.429 50.6)" fill="#d7e5ff"/>
              <path id="Trazado_218267" data-name="Trazado 218267" d="M151.415,73.273a.924.924,0,0,1-.585-.207c-.329-.266-33.181-26.278-56.312-2.355a.93.93,0,1,1-1.335-1.294c24.316-25.152,58.473,1.925,58.816,2.2a.931.931,0,0,1-.585,1.655" transform="translate(80.071 50.606)"/>
              <path id="Trazado_218268" data-name="Trazado 218268" d="M139.6,362.233a.957.957,0,0,1-.318-.056.93.93,0,0,1-.557-1.193c9.054-24.893,13.308-48.036,12.647-68.787-3.349-105.3-16.473-141.452-16.6-141.8a.931.931,0,0,1,.06-.78l4.1-7.343a.93.93,0,1,1,1.625.9l-3.893,6.981c1.458,4.295,13.41,42.371,16.579,141.984.668,20.987-3.625,44.365-12.758,69.481a.932.932,0,0,1-.875.612" transform="translate(116.084 122.184)"/>
              <path id="Trazado_218269" data-name="Trazado 218269" d="M133.514,188.22c-.022,0-.041,0-.061,0a.931.931,0,0,1-.869-.989c.043-.681,4.373-68.361,2.161-89.543-2.083-19.973-11.919-32.578-17.912-34.809a.932.932,0,1,1,.652-1.746C124.1,63.6,134.406,76.505,136.6,97.494c2.23,21.337-2.111,89.171-2.154,89.854a.932.932,0,0,1-.927.871" transform="translate(100.156 52.628)"/>
              <path id="Trazado_218270" data-name="Trazado 218270" d="M139.107,121.31s17.828-18.358,31.709-18.357c8.3,0,13.875-.145,17.024-.262a4.4,4.4,0,0,0,3.818-3.85,3.3,3.3,0,0,0-2.122-3.988,60.984,60.984,0,0,0-26.725,0c-12.74,3.012-32.159,19.641-32.159,19.641Z" transform="translate(112.585 80.454)" fill="#ed8c6b"/>
              <path id="Trazado_218271" data-name="Trazado 218271" d="M146.656,113.848s15.056-15.469,28.937-15.467c8.933,0,14.717-.169,17.7-.29a3.448,3.448,0,0,0,2.988-3.022c.43-2.333-.75-4.535-2.655-4.941a60.981,60.981,0,0,0-26.044.155c-12.74,3.012-32.159,19.641-32.159,19.641Z" transform="translate(116.701 76.513)" fill="#ed8c6b"/>
              <path id="Trazado_218272" data-name="Trazado 218272" d="M149.077,110.094s15.056-15.469,28.937-15.467c8.936,0,14.722-.169,17.711-.29a3.448,3.448,0,0,0,2.982-3.016c.43-2.336-.752-4.541-2.66-4.947a60.927,60.927,0,0,0-26.038.155c-12.74,3.012-32.159,19.643-32.159,19.643Z" transform="translate(118.788 73.278)" fill="#ed8c6b"/>
              <path id="Trazado_218273" data-name="Trazado 218273" d="M134.981,131.644s32.88-38.45,45.94-40.841c8.411-1.54,16.443-1.9,19.241-2.526a3.6,3.6,0,0,0,2.485-3.36c.162-2.3-1.134-4.226-2.969-4.409-5.8-.573-18.34-1.076-29.028,3.545-11.671,5.045-43.456,37.18-43.456,37.18Z" transform="translate(109.605 69.063)" fill="#ed8c6b"/>
              <path id="Trazado_218274" data-name="Trazado 218274" d="M169.8,95.837l8.132-12.784c1.655-2.6,1.281-6.207-.827-7.957a3.7,3.7,0,0,0-5.354.756c-2.6,3.143-34.077,34.2-34.077,34.2l-14.549,21.754,40.256-18.452Z" transform="translate(106.103 63.996)" fill="#ed8c6b"/>
              <path id="Trazado_218275" data-name="Trazado 218275" d="M148.984,95.394a.685.685,0,0,0-.039.3c.026.294.238.482.477.419a56.932,56.932,0,0,1,24.841-1,.567.567,0,0,0,.233-1.074,57.715,57.715,0,0,0-25.167,1.011.542.542,0,0,0-.344.35" transform="translate(128.347 80.236)"/>
              <path id="Trazado_218276" data-name="Trazado 218276" d="M148.893,92.831a.682.682,0,0,0-.019.41.43.43,0,0,0,.6.32,34.8,34.8,0,0,1,6.611-2.42,63.53,63.53,0,0,1,26.42-.32,3.513,3.513,0,0,1,1.838,1.394.415.415,0,0,0,.665.035.664.664,0,0,0,.071-.806,4.392,4.392,0,0,0-2.351-1.746,64.361,64.361,0,0,0-26.766.324,35.814,35.814,0,0,0-6.779,2.48.57.57,0,0,0-.285.33" transform="translate(128.269 76.215)"/>
              <path id="Trazado_218277" data-name="Trazado 218277" d="M149,89.09a.54.54,0,0,0,.006.378.424.424,0,0,0,.573.259,38.117,38.117,0,0,1,9.132-3.234,57.2,57.2,0,0,1,12.84-.683A.458.458,0,0,0,172,85.34a.477.477,0,0,0-.424-.508,57.857,57.857,0,0,0-13.015.7,38.913,38.913,0,0,0-9.331,3.3.457.457,0,0,0-.231.264" transform="translate(128.366 73.033)"/>
              <path id="Trazado_218278" data-name="Trazado 218278" d="M146.56,85.828a.673.673,0,0,0,0,.475.415.415,0,0,0,.627.223c1.5-.961,9.666-4.107,9.748-4.14a.635.635,0,0,0,.341-.717.435.435,0,0,0-.575-.365c-.339.13-8.337,3.211-9.916,4.224a.6.6,0,0,0-.229.3" transform="translate(126.258 70.037)"/>
              <path id="Trazado_218279" data-name="Trazado 218279" d="M141.4,97.6c-.009.076-.019.153-.024.229-.011.158.186.33.441.385s.473-.03.484-.186c.006-.071.013-.143.022-.214.646-4.976,10.282-7.972,10.381-8,.2-.061.236-.238.08-.393a.729.729,0,0,0-.652-.169,30.039,30.039,0,0,0-5.205,2.24c-2.348,1.3-5.177,3.4-5.527,6.11" transform="translate(121.822 76.893)"/>
              <path id="Trazado_218280" data-name="Trazado 218280" d="M83.062,307.4a.7.7,0,0,1-.419-1.259l8.236-6.151-15.1-4.8a.7.7,0,0,1-.1-1.29l6.993-3.506L52.016,261a.7.7,0,0,1-.14-.817.706.706,0,0,1,.739-.374l40.424,6.885L62.124,245.795a.7.7,0,1,1,.782-1.156l33.593,22.7a.7.7,0,0,1,.257.84.713.713,0,0,1-.765.428l-41.364-7.045L84.353,290.07a.7.7,0,0,1-.169,1.128l-6.345,3.178L92.6,299.068A.7.7,0,0,1,92.8,300.3l-9.322,6.967a.706.706,0,0,1-.419.138" transform="translate(44.639 210.707)"/>
              <path id="Trazado_218281" data-name="Trazado 218281" d="M99.776,24.095S107.593-.616,79.561,2.914Z" transform="translate(68.56 2.213)" fill="#ffb6c8"/>
              <path id="Trazado_218282" data-name="Trazado 218282" d="M48.954,48.774C46.1,26.083,56.844,7.916,77.149,2.394c34.663-9.428,51.745,10.508,54.6,33.2s-9.471,50.855-30.516,50.92c-26.68.08-49.423-15.048-52.281-37.737" transform="translate(41.792 0)" fill="#ffb6c8"/>
              <path id="Trazado_218283" data-name="Trazado 218283" d="M75.053,276.218,33.98,293.439l-13.416-28.03,46.072-25.554Z" transform="translate(17.721 206.688)" fill="#ed8c6b"/>
              <path id="Trazado_218284" data-name="Trazado 218284" d="M33.662,249.577,45.668,281.5l18.1-7.588L59.18,254.093,46.364,242.532Z" transform="translate(29.007 208.995)"/>
              <path id="Trazado_218285" data-name="Trazado 218285" d="M111.419,310.69l11.321,41.5-30.074,8.94L76.117,314.138Z" transform="translate(65.592 267.729)" fill="#ed8c6b"/>
              <path id="Trazado_218286" data-name="Trazado 218286" d="M127.057,148.686s60.189,125.851,50.976,156.891C165.829,346.693,73.477,386.3,73.477,386.3L32.621,321.353l62.558-41.842L73.709,246.48l30.648-114.289Z" transform="translate(28.11 113.912)" fill="#ffc849"/>
              <path id="Trazado_218287" data-name="Trazado 218287" d="M115.988,327.432l-4.569-16.742-35.3,3.446,6.335,17.99c9.433.415,22.134-.2,33.535-4.693" transform="translate(65.592 267.729)"/>
              <path id="Trazado_218288" data-name="Trazado 218288" d="M52.985,220.968s-29.75,23.013-44.681-7.7,2.4-103.826,13.7-124.3C39.861,56.628,72.177,63.6,72.177,63.6Z" transform="translate(2.161 54.263)"/>
              <path id="Trazado_218289" data-name="Trazado 218289" d="M82.1,79.725s8.147-17.6-4.222-25.519-12.959-2.821-12.959-2.821Z" transform="translate(55.946 42.888)" fill="#fd521b"/>
              <path id="Trazado_218290" data-name="Trazado 218290" d="M71.3,57.865a20.842,20.842,0,0,1,21.912,13.2C99.86,86.7,118.066,144.9,118.066,144.9l68.887-38.119L208.86,149.7s-79.015,83.476-111.871,60.759S71.3,57.865,71.3,57.865" transform="translate(60.87 49.745)" fill="#6b8dfc"/>
              <path id="Trazado_218291" data-name="Trazado 218291" d="M28.816,150.984s22.7,177.052,75.368,322.125c0,0,46.806,9.515,73-13.209L113.154,183.963l7.536-9.569-14.827-35.821Z" transform="translate(24.831 119.411)" fill="#ffc849"/>
              <path id="Trazado_218292" data-name="Trazado 218292" d="M127.935,98.755s17.13,114.842,1.121,128.494-102.551.141-103.164-10.765,2.456-34,2.456-34l5.131-60.77,50.987-65.68,28.471,3.843Z" transform="translate(22.242 48.287)" fill="#6b8dfc"/>
              <path id="Trazado_218293" data-name="Trazado 218293" d="M100.179,132.05,26.207,161.492l-.979-17.951,68.364-20.019Z" transform="translate(21.739 106.441)"/>
              <path id="Trazado_218294" data-name="Trazado 218294" d="M123.362,58.946S94.712,45.536,55.1,75.611s-73.9,96.927-43.382,110.661,96.164,8.653,96.164,8.653l9.72-38.634-55.256-9.515L89.795,118.09Z" transform="translate(0 48.227)" fill="#6b8dfc"/>
              <path id="Trazado_218295" data-name="Trazado 218295" d="M81.3,164.269,51.029,57.052l5.459-1.106L89.077,161.611Z" transform="translate(43.973 48.21)"/>
              <path id="Trazado_218296" data-name="Trazado 218296" d="M96.543,57.953s-26.012-15.86-39.9-10.448S44.982,68.4,44.982,68.4,63.043,60.3,98.838,83.14Z" transform="translate(38.648 39.966)" fill="#6b8dfc"/>
              <path id="Trazado_218297" data-name="Trazado 218297" d="M92.792,52.74,89.1,69.972,86.349,82.854,74.32,69.725l-15.1-10.61,5.261-22.9Z" transform="translate(51.031 31.209)" fill="#ed8c6b"/>
              <path id="Trazado_218298" data-name="Trazado 218298" d="M86.994,69.408,90.561,52.74,62.248,36.217l-.439,1.912Z" transform="translate(53.262 31.209)"/>
              <path id="Trazado_218299" data-name="Trazado 218299" d="M94.017,208.474a.7.7,0,0,1-.7-.689c-.011-.879-1.231-88.188-7.659-112.994-2.573-9.929-11.437-32.772-11.526-33a.7.7,0,0,1,1.3-.506c.088.231,8.983,23.149,11.574,33.157,6.469,24.968,7.693,112.446,7.7,113.325a.7.7,0,0,1-.689.707Z" transform="translate(63.842 52.426)"/>
              <path id="Trazado_218300" data-name="Trazado 218300" d="M55.056,167.9c-9.774,0-20.179-.264-28.365-1.113a.7.7,0,1,1,.145-1.389c20.025,2.078,53.485.633,58.035.421l9.411-37.4-54.515-9.389a.7.7,0,0,1-.385-1.169L66.831,89.176a.7.7,0,1,1,1.007.963L41.3,117.877l53.966,9.294a.694.694,0,0,1,.557.858L86.1,166.665a.7.7,0,0,1-.642.527c-.229.011-14.475.711-30.4.711" transform="translate(22.461 76.659)"/>
              <path id="Trazado_218301" data-name="Trazado 218301" d="M43.661,106.9a.6.6,0,0,1-.08-.006L22.3,104.434a.7.7,0,0,1-.613-.773.687.687,0,0,1,.773-.613l21.281,2.463a.7.7,0,0,1-.08,1.391" transform="translate(18.684 88.796)"/>
              <path id="Trazado_218302" data-name="Trazado 218302" d="M73.215,68.034a.7.7,0,0,1-.41-1.266c4.178-3.01,4.513-8.251,4.517-8.3a.7.7,0,0,1,1.393.073A13.2,13.2,0,0,1,73.623,67.9a.707.707,0,0,1-.408.13" transform="translate(62.488 49.809)"/>
              <path id="Trazado_218303" data-name="Trazado 218303" d="M97.316,75.512a.742.742,0,0,1-.246-.043A267.629,267.629,0,0,0,68.346,67.29c-15.761-3.7-22.741-.655-22.81-.622a.7.7,0,0,1-.585-1.27c.292-.134,7.408-3.293,23.715.531,14.179,3.327,23.852,6.484,27.4,7.7-7.516-16.808-26.7-23.08-26.894-23.143a.7.7,0,0,1,.423-1.331c.21.067,21.1,6.885,28.376,25.4a.7.7,0,0,1-.65.953" transform="translate(38.387 42.332)"/>
              <path id="Trazado_218304" data-name="Trazado 218304" d="M85.67,111.172,66.7,105.954a5.756,5.756,0,0,0-7.1,4.433,6.175,6.175,0,0,0,4.652,7.462l19.261,3.809a5.106,5.106,0,0,0,5.978-4.377,5.451,5.451,0,0,0-3.818-6.108" transform="translate(51.22 91.128)" fill="#ed8c6b"/>
              <path id="Trazado_218305" data-name="Trazado 218305" d="M84.562,128.139l-22.979-4.883a5.684,5.684,0,0,1-4.366-5.527l-.011-.553a5.416,5.416,0,0,1,6.5-5.626l22.99,5.436a5.75,5.75,0,0,1,4.2,6.415,5.36,5.36,0,0,1-6.33,4.738" transform="translate(49.294 96.005)" fill="#ed8c6b"/>
              <path id="Trazado_218306" data-name="Trazado 218306" d="M83.125,126.954h0a4.958,4.958,0,0,0-3.72-5.31l-15.173-3.83a4.958,4.958,0,0,0-5.864,3.09l-.437,1.188a4.957,4.957,0,0,0,3.824,6.605l15.611,2.642a4.958,4.958,0,0,0,5.76-4.386" transform="translate(49.653 101.393)" fill="#ed8c6b"/>
              <path id="Trazado_218307" data-name="Trazado 218307" d="M78.047,130.187h0a4.293,4.293,0,0,0-3.15-4l-12.582-2.914a3.706,3.706,0,0,0-4.409,3.2l-.246,1.419a4.333,4.333,0,0,0,3.478,5.135l12.829,1.493a3.861,3.861,0,0,0,4.079-4.334" transform="translate(49.628 106.15)" fill="#ed8c6b"/>
              <path id="Trazado_218308" data-name="Trazado 218308" d="M60.771,111.389l.017-.02a.477.477,0,0,1,.672-.056,8.564,8.564,0,0,0,3.1,1.374L84.9,116.95c.158.041,3.334.909,4.688,3.405a5.345,5.345,0,0,1,.251,4.364c-1.96,5.974-10.535,3.664-11.07,3.513l-12.166-2.351c-.916-.179-5.844-1.376-7.086-1.77a.477.477,0,0,1,.289-.909c1.221.389,6.077,1.568,6.978,1.743L78.975,127.3a.213.213,0,0,1,.047.011c.082.024,8.192,2.368,9.917-2.889a4.43,4.43,0,0,0-.184-3.614c-1.16-2.139-4.042-2.925-4.07-2.932L64.368,113.62a9.444,9.444,0,0,1-3.524-1.579.479.479,0,0,1-.073-.652" transform="translate(51.005 95.824)"/>
              <path id="Trazado_218309" data-name="Trazado 218309" d="M58.672,126.336a.477.477,0,0,1,.525-.166c1.206.384,8.683,1.774,9.942,1.953,1.178.169,5,.869,5.164.9.071.013,7.2,1.231,8.05-3.372a3.644,3.644,0,0,0-1.992-3.952,9.243,9.243,0,0,0-2.707-1.084.476.476,0,1,1,.184-.935c2.2.432,6.168,2.271,5.453,6.144-.819,4.429-6.348,4.643-9.16,4.137-.041-.007-3.969-.728-5.129-.894-1.182-.169-8.78-1.571-10.094-1.99a.475.475,0,0,1-.236-.741" transform="translate(50.475 103.123)"/>
              <path id="Trazado_218310" data-name="Trazado 218310" d="M62.893,105.578a.477.477,0,0,1,.5-.175c.123.032,12.263,3.066,17.193,4.349,5.194,1.352,7.754,4.394,7.022,8.346-.873,4.731-5.855,4.805-5.905,4.805a.477.477,0,0,1-.006-.953c.175,0,4.245-.078,4.975-4.025.639-3.448-1.609-6.023-6.326-7.25-4.924-1.283-17.061-4.317-17.184-4.347a.478.478,0,0,1-.346-.579.471.471,0,0,1,.082-.171" transform="translate(54.114 90.815)"/>
              <path id="Trazado_218311" data-name="Trazado 218311" d="M56.76,46.535c-2.837-22.527,5.313-37.687,25.4-41.747,24.8-5.012,42.84,11.135,45.675,33.662s-5.526,46.722-26.016,46.735C75.841,85.2,59.6,69.061,56.76,46.535" transform="translate(48.44 3.335)" fill="#ed8c6b"/>
              <path id="Trazado_218312" data-name="Trazado 218312" d="M102.9,31.207s-3.191-18.265-22.434-8.395c0,0,8.443,11.509,22.434,8.395" transform="translate(69.344 17.136)" fill="#fff"/>
              <path id="Trazado_218313" data-name="Trazado 218313" d="M105.194,23.551,94.552,27.4,93.97,42.012Z" transform="translate(80.976 20.294)" fill="#ed8c6b"/>
              <path id="Trazado_218314" data-name="Trazado 218314" d="M83.068,4.956c-20.084,4.06-30.279,19.06-27.442,41.589,1.063,8.441,4.759,22.082,9.394,28.214L76.04,42.952C90.152,44,91.828,25.109,91.828,25.109c15.6-.886,15.54-13.138,14.125-19.455-6.551-2.627-14.426-2.407-22.884-.7" transform="translate(47.532 3.166)" fill="#ffb6c8"/>
              <path id="Trazado_218315" data-name="Trazado 218315" d="M83.115,18.76c.572,1.311,3.664,1.227,6.907-.188s5.408-3.621,4.837-4.932-3.662-1.225-6.905.188-5.41,3.621-4.839,4.932" transform="translate(71.544 10.953)"/>
              <path id="Trazado_218316" data-name="Trazado 218316" d="M101.768,26.537c.633,5.019-2.433,9.539-6.847,10.094s-8.5-3.063-9.135-8.082,2.433-9.539,6.847-10.094,8.5,3.063,9.135,8.082" transform="translate(73.852 15.855)"/>
              <path id="Trazado_218317" data-name="Trazado 218317" d="M78.606,27.307c-3.373-5.734-10.271-7.933-15.4-4.911S56.64,32.514,60.013,38.246s10.271,7.933,15.406,4.911,6.561-10.118,3.187-15.851" transform="translate(50.139 18.13)" fill="#ed8c6b"/>
              <path id="Trazado_218318" data-name="Trazado 218318" d="M71.217,33a1.082,1.082,0,0,1-.614-.192L61.284,26.4a1.081,1.081,0,1,1,1.229-1.78l9.318,6.406A1.081,1.081,0,0,1,71.217,33" transform="translate(52.407 21.052)"/>
              <path id="Trazado_218319" data-name="Trazado 218319" d="M63.305,33.461a1.061,1.061,0,0,1-.685-.246,1.081,1.081,0,0,1-.151-1.521l3.416-4.174a1.082,1.082,0,1,1,1.674,1.37l-3.418,4.174a1.076,1.076,0,0,1-.836.4" transform="translate(53.62 23.374)"/>
              <path id="Trazado_218320" data-name="Trazado 218320" d="M83.931,340.647,83.62,376.3a4.5,4.5,0,0,0,5.269,4.468L183.8,364.2a6.832,6.832,0,0,0,5.526-8.057l-1.484-7.482a19.021,19.021,0,0,0-20.857-15.194L135.7,337.106l-20.648-6.529Z" transform="translate(72.057 284.866)" fill="#d7e5ff"/>
              <path id="Trazado_218321" data-name="Trazado 218321" d="M132.852,349.769a.583.583,0,0,1-.583-.579L132.2,340.6,121.5,348.4a.583.583,0,0,1-.918-.57l1.1-6.442-34.952,6.1a.584.584,0,0,1-.506-.994l24.623-23.81L81.492,333.168a.584.584,0,0,1-.393-1.1L113,320.676a.583.583,0,0,1,.6.968L88.4,346.012l33.9-5.918a.584.584,0,0,1,.676.672l-1,5.842,10.455-7.616a.6.6,0,0,1,.607-.05.587.587,0,0,1,.32.518l.078,9.722a.584.584,0,0,1-.577.588Z" transform="translate(69.551 276.304)"/>
              <path id="Trazado_218322" data-name="Trazado 218322" d="M98.429,326.949a.583.583,0,0,1-.449-.21.576.576,0,0,1-.095-.583c.143-.376,3.615-9.214,9.314-11.118a7.068,7.068,0,0,1,6.2.892c1.674,1.043,2.409,2.184,2.186,3.386-.812,4.369-15.383,7.3-17.042,7.622a.569.569,0,0,1-.11.011m10.919-11.1a5.614,5.614,0,0,0-1.778.294c-4.118,1.376-7.1,7.091-8.165,9.43,5.982-1.264,14.557-3.924,15.03-6.47.127-.685-.43-1.42-1.655-2.184a6.462,6.462,0,0,0-3.431-1.07" transform="translate(84.316 271.165)"/>
              <path id="Trazado_218323" data-name="Trazado 218323" d="M116.409,331.959c-5.749,0-17.169-8.126-18.613-9.171a.584.584,0,0,1,.123-1.013c.447-.181,11.025-4.4,17.344-.992a8.4,8.4,0,0,1,4.269,6.1c.452,2.275.076,3.82-1.121,4.585a3.648,3.648,0,0,1-2,.5M99.38,322.483c4.844,3.383,15.406,9.919,18.4,8,.752-.482.955-1.618.605-3.377a7.278,7.278,0,0,0-3.677-5.295c-4.762-2.571-12.552-.285-15.329.672" transform="translate(84.065 275.283)"/>
              <path id="Trazado_218324" data-name="Trazado 218324" d="M83.914,361.727a.583.583,0,0,1-.1-1.158l105-18.334a.583.583,0,1,1,.2,1.149l-105,18.334a.631.631,0,0,1-.1.009" transform="translate(71.808 294.903)"/>
              <path id="Trazado_218325" data-name="Trazado 218325" d="M43.98,250.128l-36.525,3.31a4.625,4.625,0,0,0-4.036,5.848l26.619,95.45a7.026,7.026,0,0,0,8.808,4.835l7.508-2.281A19.563,19.563,0,0,0,59.782,334.4l-6.909-31.642,4.582-21.8Z" transform="translate(2.798 215.541)" fill="#d7e5ff"/>
              <path id="Trazado_218326" data-name="Trazado 218326" d="M29.06,301.745a.613.613,0,0,1-.065-1.223l8.758-.944L28.7,289.441a.613.613,0,0,1-.095-.68.6.6,0,0,1,.594-.341l6.687.469-9.8-35.134a.613.613,0,0,1,.987-.631l26.827,22.737-13.689-28.92a.613.613,0,1,1,1.108-.525L56.23,277.9a.617.617,0,0,1-.181.75.609.609,0,0,1-.769-.021l-27.47-23.281L37.306,289.4a.622.622,0,0,1-.114.553.6.6,0,0,1-.519.223l-6.049-.424,8.838,9.9a.613.613,0,0,1-.391,1.018l-9.945,1.07c-.022,0-.045,0-.065,0" transform="translate(22.465 212.04)"/>
              <path id="Trazado_218327" data-name="Trazado 218327" d="M51.422,280.452c-.069,0-.136,0-.2-.009-4.567-.385-9.052-15.009-9.549-16.675a.614.614,0,0,1,.75-.767c.4.11,9.8,2.765,12.336,8.411a7.27,7.27,0,0,1-.283,6.443c-.849,1.724-1.875,2.6-3.05,2.6m-8.234-15.92c1.9,5.987,5.488,14.466,8.132,14.687.7.08,1.4-.579,2.053-1.906a6.121,6.121,0,0,0,.264-5.4c-1.817-4.051-7.933-6.518-10.45-7.382" transform="translate(35.885 226.615)"/>
              <path id="Trazado_218328" data-name="Trazado 218328" d="M40.846,286.062a3.026,3.026,0,0,1-2.523-1.078c-3.375-4.26,5.73-20.194,6.78-21.994a.641.641,0,0,1,.544-.305.615.615,0,0,1,.531.326c.231.439,5.63,10.841,2.781,17.664a8.653,8.653,0,0,1-5.812,5,8.009,8.009,0,0,1-2.3.393m4.744-21.447c-2.971,5.311-8.57,16.748-6.306,19.609q.855,1.07,3.506.272a7.469,7.469,0,0,0,5.036-4.293c2.135-5.11-.97-12.822-2.236-15.588" transform="translate(32.381 226.361)"/>
              <path id="Trazado_218329" data-name="Trazado 218329" d="M38.059,358.153a.612.612,0,0,1-.59-.449L8.019,252.1a.614.614,0,1,1,1.182-.33l29.451,105.6a.617.617,0,0,1-.428.756.551.551,0,0,1-.164.022" transform="translate(6.89 216.568)"/>
              <path id="Trazado_218330" data-name="Trazado 218330" d="M61.742,301.4a.7.7,0,0,1-.678-.532L43.1,227.042a.7.7,0,1,1,1.357-.331l17.964,73.825a.7.7,0,0,1-.512.843.644.644,0,0,1-.166.02" transform="translate(37.122 194.9)"/>
              <path id="Trazado_218331" data-name="Trazado 218331" d="M110.48,323.719a.7.7,0,0,1-.681-.54L73.761,167.863a.7.7,0,0,1,.132-.59l7.533-9.569a.7.7,0,0,1,1.1.866l-7.326,9.3,35.961,154.988a.7.7,0,0,1-.519.838.675.675,0,0,1-.158.019" transform="translate(63.546 135.669)"/>
              <path id="Trazado_218332" data-name="Trazado 218332" d="M83.026,34.482C82.782,29.057,102.4,37,98.59,40.864c-4.435,4.5-15.3-.46-15.564-6.382" transform="translate(71.543 28.131)"/>
            </g>
          </g>
          <g id="Grupo_995880" data-name="Grupo 995880" transform="translate(154.567 60.776)">
            <g id="Grupo_995879" data-name="Grupo 995879" clip-path="url(#clip-path-6)">
              <path id="Trazado_218333" data-name="Trazado 218333" d="M105.117,36.089s-14.678-3.472-21.989-1.635S81.8,46.725,81.8,46.725l22.594,5.218L110,37.532Z" transform="translate(-86.066 -31.548)" fill="#fd521b"/>
            </g>
          </g>
        </g>
      </g>
    </g>
  </g>
</svg>
