<svg id="Grupo_997103" data-name="Grupo 997103" xmlns="http://www.w3.org/2000/svg" xmlns:xlink="http://www.w3.org/1999/xlink" width="85" height="86" viewBox="0 0 85 86">
  <defs>
    <clipPath id="clip-path">
      <rect id="Rectángulo_338874" data-name="Rectángulo 338874" width="74.033" height="77.268" fill="none"/>
    </clipPath>
    <clipPath id="clip-path-3">
      <path id="Trazado_211592" data-name="Trazado 211592" d="M81.946,67.551a5.08,5.08,0,0,1-5.321,4.811c-5.065,0-5.682-4.938-5.682-4.938Z" transform="translate(-70.943 -67.424)" fill="none"/>
    </clipPath>
    <clipPath id="clip-path-5">
      <rect id="Rectángulo_338871" data-name="Rectángulo 338871" width="15.23" height="15.747" fill="none"/>
    </clipPath>
    <clipPath id="clip-path-6">
      <rect id="Rectángulo_338872" data-name="Rectángulo 338872" width="13.052" height="15.121" fill="none"/>
    </clipPath>
  </defs>
  <g id="Grupo_982989" data-name="Grupo 982989" transform="translate(0)">
    <path id="Trazado_207349" data-name="Trazado 207349" d="M42.5,0C65.972,0,85,19.252,85,43S65.972,86,42.5,86,0,66.748,0,43,19.028,0,42.5,0Z" transform="translate(0)" fill="#ffe891"/>
    <g id="Grupo_983922" data-name="Grupo 983922" transform="translate(10.966 8.732)">
      <g id="Grupo_983921" data-name="Grupo 983921" clip-path="url(#clip-path)">
        <g id="Grupo_983910" data-name="Grupo 983910" transform="translate(0 0)">
          <g id="Grupo_983909" data-name="Grupo 983909" clip-path="url(#clip-path)">
            <path id="Trazado_211578" data-name="Trazado 211578" d="M58.4,44.289s-1.628,10.115,1,12.779c5.02,5.081,20.436,7.445,12.3,29.179H.774s-3.511-8.653,4.413-13.684c0,0,2.758-1.949,1.067-7.817s2.524-10.038,7.7-16.3l10.174-16.73Z" transform="translate(0.001 -9.548)" fill="#f46eab"/>
            <path id="Trazado_211579" data-name="Trazado 211579" d="M70.942,37.49c0,12.922-10.849,23.4-24.231,23.4S22.48,50.412,22.48,37.49s10.849-23.4,24.231-23.4,24.231,10.475,24.231,23.4" transform="translate(-12.438 -4.243)" fill="#f46eab"/>
            <path id="Trazado_211580" data-name="Trazado 211580" d="M92.233,59.24a6.258,6.258,0,0,1-7.82,4.231,6.357,6.357,0,0,1-4.182-7.912,6.259,6.259,0,0,1,7.82-4.231,6.357,6.357,0,0,1,4.182,7.912" transform="translate(-73.706 -15.372)" fill="#f29b5f"/>
            <path id="Trazado_211581" data-name="Trazado 211581" d="M39.728,75l.6,20.51,20.14-1.139-4.11-33.781Z" transform="translate(-13.882 -18.245)" fill="#ffaf78"/>
            <path id="Trazado_211582" data-name="Trazado 211582" d="M56.005,88.664s8.982-.937,9.37-11.284l-9.533,5.1Z" transform="translate(-29.916 -23.299)" fill="#2f1a2a"/>
            <path id="Trazado_211583" data-name="Trazado 211583" d="M45.5,25.49a9.292,9.292,0,0,0-2.994,5.3c-1.2,6.069-3.555,16.762-1.432,23.206,2.761,8.378,9.486,14.319,20.352,12.229,0,0,13.022-1.33,15.7-18.018C81.393,21.617,59.043,13.909,45.5,25.49" transform="translate(-31.408 -6.102)" fill="#ffaf78"/>
            <path id="Trazado_211584" data-name="Trazado 211584" d="M90.546,52.974a1.434,1.434,0,0,1-1.752,1.035,1.453,1.453,0,0,1-1.022-1.773A1.433,1.433,0,0,1,89.523,51.2a1.453,1.453,0,0,1,1.023,1.773" transform="translate(-77.157 -15.402)" fill="#2f1a2a"/>
            <path id="Trazado_211585" data-name="Trazado 211585" d="M72.993,53.326a1.434,1.434,0,0,1-1.753,1.035,1.453,1.453,0,0,1-1.022-1.773,1.433,1.433,0,0,1,1.752-1.035,1.453,1.453,0,0,1,1.023,1.773" transform="translate(-47.479 -15.508)" fill="#2f1a2a"/>
            <path id="Trazado_211586" data-name="Trazado 211586" d="M83.314,58.746l-1,2.758a.664.664,0,0,0,.47.783l1.547.289" transform="translate(-67.147 -17.688)" fill="none" stroke="#2f1a2a" stroke-linecap="round" stroke-linejoin="round" stroke-width="0.893"/>
            <path id="Trazado_211587" data-name="Trazado 211587" d="M66.054,37.378s-4.449-.8-4.686,1.273c0,0-.126,1.4,3.763,2.014s5.445.508,5.924-.781-2.9-2.315-5-2.506" transform="translate(-39.461 -11.209)" fill="#2f1a2a"/>
            <path id="Trazado_211588" data-name="Trazado 211588" d="M88.055,37.466s3.875-.855,4.431,1.126c0,0,.35,1.354-3.056,2.008-2.481.475-3.4.043-3.657-.865-.3-1.076.816-2.07,2.282-2.269" transform="translate(-77.679 -11.226)" fill="#2f1a2a"/>
            <path id="Trazado_211589" data-name="Trazado 211589" d="M70.942,67.424l11,.127a5.081,5.081,0,0,1-5.322,4.811c-5.065,0-5.682-4.938-5.682-4.938" transform="translate(-56.919 -20.301)" fill="#221914"/>
          </g>
        </g>
        <g id="Grupo_983912" data-name="Grupo 983912" transform="translate(14.024 47.123)">
          <g id="Grupo_983911" data-name="Grupo 983911" clip-path="url(#clip-path-3)">
            <path id="Trazado_211590" data-name="Trazado 211590" d="M77.247,76.517a3.858,3.858,0,0,1-5.141,1.928,3.941,3.941,0,0,1-1.907-5.2,3.859,3.859,0,0,1,5.141-1.928,3.942,3.942,0,0,1,1.906,5.2" transform="translate(-65.839 -68.488)" fill="#e275c2"/>
            <path id="Trazado_211591" data-name="Trazado 211591" d="M69.866,68.441l12.491-.019V66.285l-12.491-.463Z" transform="translate(-70.61 -66.942)" fill="#fff"/>
          </g>
        </g>
        <g id="Grupo_983920" data-name="Grupo 983920" transform="translate(0 0)">
          <g id="Grupo_983919" data-name="Grupo 983919" clip-path="url(#clip-path)">
            <g id="Grupo_983915" data-name="Grupo 983915" transform="translate(18.905 29.225)" opacity="0.11">
              <g id="Grupo_983914" data-name="Grupo 983914" transform="translate(0)">
                <g id="Grupo_983913" data-name="Grupo 983913" clip-path="url(#clip-path-5)">
                  <path id="Trazado_211593" data-name="Trazado 211593" d="M57.759,49.778a7.619,7.619,0,1,0,7.525-7.961,7.744,7.744,0,0,0-7.525,7.961" transform="translate(-57.758 -41.816)" fill="#fff"/>
                </g>
              </g>
            </g>
            <g id="Grupo_983918" data-name="Grupo 983918" transform="translate(1.882 29.691)" opacity="0.11">
              <g id="Grupo_983917" data-name="Grupo 983917">
                <g id="Grupo_983916" data-name="Grupo 983916" clip-path="url(#clip-path-6)">
                  <path id="Trazado_211594" data-name="Trazado 211594" d="M85.556,50.119c.048,4.175,3.008,7.526,6.611,7.484s6.487-3.46,6.439-7.636S95.6,42.441,92,42.483s-6.487,3.461-6.439,7.636" transform="translate(-85.555 -42.482)" fill="#fff"/>
                </g>
              </g>
            </g>
            <path id="Trazado_211595" data-name="Trazado 211595" d="M57.759,49.778a7.619,7.619,0,1,0,7.525-7.961A7.744,7.744,0,0,0,57.759,49.778Z" transform="translate(-38.853 -12.591)" fill="none" stroke="#fff" stroke-linecap="round" stroke-linejoin="round" stroke-width="1.261"/>
            <path id="Trazado_211596" data-name="Trazado 211596" d="M85.556,50.119c.048,4.175,3.008,7.526,6.611,7.484s6.487-3.46,6.439-7.636S95.6,42.441,92,42.483,85.508,45.944,85.556,50.119Z" transform="translate(-83.673 -12.791)" fill="none" stroke="#fff" stroke-linecap="round" stroke-linejoin="round" stroke-width="1.261"/>
            <path id="Trazado_211597" data-name="Trazado 211597" d="M83.778,52.834a2.714,2.714,0,0,0-3.973-.012" transform="translate(-64.872 -15.646)" fill="none" stroke="#fff" stroke-linecap="round" stroke-linejoin="round" stroke-width="1.261"/>
            <line id="Línea_1557" data-name="Línea 1557" x2="6.806" y2="2.619" transform="translate(34.134 37.01)" fill="none" stroke="#fff" stroke-linecap="round" stroke-linejoin="round" stroke-width="1.261"/>
            <path id="Trazado_211598" data-name="Trazado 211598" d="M51.667,43.96c-1.035.438-20.011-11.115-10.383-23.689,0,0,14.434,3.428,13.6,23.679Z" transform="translate(-7.529 -6.104)" fill="#f46eab"/>
            <path id="Trazado_211599" data-name="Trazado 211599" d="M69.794,23.032s-12.772-3.152-20.206,3.29c0,0,3.6-11.635,21.167-12.23l6.611,14.88Z" transform="translate(-37.587 -4.243)" fill="#f46eab"/>
            <path id="Trazado_211600" data-name="Trazado 211600" d="M36.153,9.849a9.735,9.735,0,1,1-19.469,0,9.735,9.735,0,1,1,19.469,0" transform="translate(26.355 0)" fill="#f46eab"/>
            <path id="Trazado_211601" data-name="Trazado 211601" d="M40.694,44.706l1.241,13.276L46.46,45.829Z" transform="translate(-0.537 -13.461)" fill="#f46eab"/>
            <path id="Trazado_211602" data-name="Trazado 211602" d="M41.9,61.322a7.594,7.594,0,0,1-9.488,5.135,7.714,7.714,0,0,1-5.075-9.6,7.594,7.594,0,0,1,9.488-5.135,7.715,7.715,0,0,1,5.075,9.6" transform="translate(13.152 -15.473)" fill="#ffaf78"/>
            <path id="Trazado_211603" data-name="Trazado 211603" d="M40.117,59.107s-5.577-1.621-7.062,4.59" transform="translate(11.083 -17.74)" fill="none" stroke="#2f1a2a" stroke-linecap="round" stroke-linejoin="round" stroke-width="0.893"/>
          </g>
        </g>
      </g>
    </g>
  </g>
</svg>
