<svg xmlns="http://www.w3.org/2000/svg" xmlns:xlink="http://www.w3.org/1999/xlink" width="64" height="64" viewBox="0 0 64 64">
  <defs>
    <clipPath id="clip-path">
      <rect id="Rectángulo_339711" data-name="Rectángulo 339711" width="64" height="64" transform="translate(-6630 -5190)" fill="#fc5f65" stroke="#707070" stroke-width="1"/>
    </clipPath>
  </defs>
  <g id="Enmascarar_grupo_610" data-name="Enmascarar grupo 610" transform="translate(6630 5190)" clip-path="url(#clip-path)">
    <g id="crecer" transform="translate(-6631.032 -5191.032)">
      <path id="Trazado_218713" data-name="Trazado 218713" d="M33.032,10.126c-1.4-2.788-6.194-2.457-6.194,1,0,3.312,4.877,6.623,6.194,7.453,1.317-.829,6.194-4.141,6.194-7.453C39.226,7.67,34.434,7.338,33.032,10.126Z" fill="#bf6560"/>
      <path id="Trazado_218714" data-name="Trazado 218714" d="M44.387,15.484l7.226,7.226,2.065-9.29Z" fill="#4c6585"/>
      <path id="Trazado_218715" data-name="Trazado 218715" d="M30.968,37.161,24.774,50.581H12.387L6.194,37.161H2.065l8.258,21.677v6.194H26.839V58.839L35.1,37.161Z" fill="#759acc"/>
      <path id="Trazado_218716" data-name="Trazado 218716" d="M59.871,37.161,53.677,50.581H41.29L35.1,37.161H30.968l8.258,21.677v6.194H55.742V58.839L64,37.161Z" fill="#adc4e6"/>
      <rect id="Rectángulo_339721" data-name="Rectángulo 339721" width="12.387" height="14.452" rx="6.071" transform="translate(41.29 41.29)" fill="#e6c59b"/>
      <path id="Trazado_218717" data-name="Trazado 218717" d="M41.367,46.45A23.646,23.646,0,0,0,49.652,45.3,6.867,6.867,0,0,0,53.6,46.446a6.088,6.088,0,0,0-5.994-5.156h-.245a6.088,6.088,0,0,0-5.994,5.16Z" fill="#495766"/>
      <rect id="Rectángulo_339722" data-name="Rectángulo 339722" width="12.387" height="14.452" rx="6.071" transform="translate(12.387 41.29)" fill="#e6c59b"/>
      <path id="Trazado_218718" data-name="Trazado 218718" d="M12.463,46.452H24.7A6.088,6.088,0,0,0,18.7,41.29h-.245a6.088,6.088,0,0,0-5.995,5.161Z" fill="#495766"/>
      <circle id="Elipse_4925" data-name="Elipse 4925" cx="1.032" cy="1.032" r="1.032" transform="translate(43.355 48.516)"/>
      <circle id="Elipse_4926" data-name="Elipse 4926" cx="1.032" cy="1.032" r="1.032" transform="translate(49.548 48.516)"/>
      <circle id="Elipse_4927" data-name="Elipse 4927" cx="1.032" cy="1.032" r="1.032" transform="translate(14.452 48.516)"/>
      <circle id="Elipse_4928" data-name="Elipse 4928" cx="1.032" cy="1.032" r="1.032" transform="translate(20.645 48.516)"/>
      <path id="Trazado_218719" data-name="Trazado 218719" d="M64,36.129H59.871a1.032,1.032,0,0,0-.937.6l-4.338,9.4a7.11,7.11,0,0,0-6.989-5.87h-.245a7.11,7.11,0,0,0-6.989,5.87l-4.338-9.4a1.032,1.032,0,0,0-.937-.6H30.968a1.032,1.032,0,0,0-.85.447,1.016,1.016,0,0,0-.082.156l-.006,0-4.338,9.4a7.11,7.11,0,0,0-6.989-5.87h-.245a7.11,7.11,0,0,0-6.989,5.87l-4.338-9.4a1.032,1.032,0,0,0-.937-.6H2.065a1.033,1.033,0,0,0-.965,1.4l8.191,21.5v6h2.065V58.839a1.032,1.032,0,0,0-.068-.368L3.562,38.193H5.533l5.916,12.82L11.484,51a7.112,7.112,0,0,0,6.975,5.777H18.7A7.112,7.112,0,0,0,25.678,51l.034.016,5.165-11.191,1.051,2.758-6.053,15.89a1.032,1.032,0,0,0-.068.368v6.194h2.065v-6l5.161-13.548,5.161,13.548v6h2.065V58.839a1.032,1.032,0,0,0-.068-.368L32.466,38.193h1.971l5.916,12.82L40.387,51a7.112,7.112,0,0,0,6.975,5.777h.245A7.112,7.112,0,0,0,54.581,51l.034.016,5.916-12.82H62.5L54.777,58.471a1.032,1.032,0,0,0-.068.368v6.194h2.065v-6l8.191-21.5a1.033,1.033,0,0,0-.965-1.4ZM18.458,42.323H18.7a5.045,5.045,0,0,1,4.648,3.1H13.81a5.045,5.045,0,0,1,4.648-3.1Zm5.284,7.349A5.044,5.044,0,0,1,18.7,54.71h-.245a5.044,5.044,0,0,1-5.039-5.038V47.484H23.742Zm23.619-7.349h.245a5.034,5.034,0,0,1,4.557,2.923,5.016,5.016,0,0,1-1.9-.781,1.033,1.033,0,0,0-1.041-.109,20.166,20.166,0,0,1-6.5,1.038,5.046,5.046,0,0,1,4.638-3.071Zm5.284,7.349a5.044,5.044,0,0,1-5.039,5.038h-.245a5.044,5.044,0,0,1-5.039-5.038v-2.2a25.53,25.53,0,0,0,7.213-1.016,7.9,7.9,0,0,0,3.11.969Z"/>
      <path id="Trazado_218720" data-name="Trazado 218720" d="M28.785,7.349a3.729,3.729,0,0,0-2.978,3.779c0,3.824,5.109,7.34,6.675,8.326a1.031,1.031,0,0,0,1.1,0c1.566-.986,6.675-4.5,6.675-8.326A3.729,3.729,0,0,0,37.28,7.349a4.788,4.788,0,0,0-4.247,1.085,4.784,4.784,0,0,0-4.247-1.085ZM32.11,10.59a1.075,1.075,0,0,0,1.845,0A2.569,2.569,0,0,1,36.8,9.358a1.693,1.693,0,0,1,1.39,1.77c0,2.048-2.667,4.547-5.161,6.222-2.494-1.674-5.161-4.173-5.161-6.222a1.693,1.693,0,0,1,1.39-1.77A2.62,2.62,0,0,1,32.11,10.59Z"/>
      <path id="Trazado_218721" data-name="Trazado 218721" d="M32,1.032h2.065v3.1H32Z"/>
      <path id="Trazado_218722" data-name="Trazado 218722" d="M41.738,5.223h3.1V7.288h-3.1Z" transform="translate(8.256 32.445) rotate(-45)"/>
      <path id="Trazado_218723" data-name="Trazado 218723" d="M21.737,4.707H23.8V7.8H21.737Z" transform="translate(2.246 17.934) rotate(-45)"/>
      <path id="Trazado_218724" data-name="Trazado 218724" d="M15.29,28.885a39.594,39.594,0,0,0,7.449.712,38.65,38.65,0,0,0,7.4-.714,40.118,40.118,0,0,0,17.74-8.448l3,3a1.031,1.031,0,0,0,.73.3A1.016,1.016,0,0,0,51.9,23.7a1.031,1.031,0,0,0,.719-.767l2.065-9.29a1.033,1.033,0,0,0-1.231-1.232l-9.29,2.065a1.033,1.033,0,0,0-.506,1.738L46.4,18.96a37.9,37.9,0,0,1-16.665,7.9,36.939,36.939,0,0,1-14.06,0ZM52.318,14.779l-1.3,5.871-4.567-4.567Z"/>
    </g>
  </g>
</svg>
