<svg xmlns="http://www.w3.org/2000/svg" xmlns:xlink="http://www.w3.org/1999/xlink" width="64" height="64" viewBox="0 0 64 64">
  <defs>
    <clipPath id="clip-path">
      <rect id="Rectángulo_339720" data-name="Rectángulo 339720" width="64" height="64" transform="translate(-6630 -4632)" fill="#fc5f65" stroke="#707070" stroke-width="1"/>
    </clipPath>
    <clipPath id="clip-path-2">
      <path id="path7689" d="M0-64H64V0H0Z"/>
    </clipPath>
  </defs>
  <g id="Enmascarar_grupo_613" data-name="Enmascarar grupo 613" transform="translate(6630 4632)" clip-path="url(#clip-path)">
    <g id="g7683" transform="translate(-6630 -4568)">
      <g id="g7685">
        <g id="g7687" clip-path="url(#clip-path-2)">
          <g id="g7693" transform="translate(61.043 -22.676)">
            <path id="path7695" d="M0,0H-58.085V-25.163a2.525,2.525,0,0,1,2.526-2.525H-2.526A2.525,2.525,0,0,1,0-25.163Z" fill="#da8659"/>
          </g>
          <g id="g7697" transform="translate(58.517 -50.365)">
            <path id="path7699" d="M0,0H-3.561A2.526,2.526,0,0,1-1.036,2.526V27.688H2.526V2.526A2.526,2.526,0,0,0,0,0" fill="#c56e37"/>
          </g>
          <g id="g7701" transform="translate(10.081 -57.507)">
            <path id="path7703" d="M0,0,2.12,2.383l4.717-4.2L4.717-4.2A3.124,3.124,0,0,0,.306-4.454l-.048.043A3.124,3.124,0,0,0,0,0" fill="#ffcbbe"/>
          </g>
          <g id="g7705" transform="translate(51.799 -55.125)">
            <path id="path7707" d="M0,0-4.717-4.2l-7.215,8.11a2.525,2.525,0,0,1-1.887.847H-25.78a2.525,2.525,0,0,1-1.887-.847L-34.881-4.2-39.6,0-31.3,9.323a5.051,5.051,0,0,1,1.277,3.357V25.216h20.2l0-12.257A5.051,5.051,0,0,1-8.543,9.6Z" fill="#fb636f"/>
          </g>
          <g id="g7709" transform="translate(53.919 -57.507)">
            <path id="path7711" d="M0,0-2.12,2.383l-4.717-4.2L-4.717-4.2A3.124,3.124,0,0,1-.306-4.454l.049.043A3.124,3.124,0,0,1,0,0" fill="#ffcbbe"/>
          </g>
          <g id="g7713" transform="translate(49.756 -56.943)">
            <path id="path7715" d="M0,0-8.437,9.484A5.051,5.051,0,0,0-9.714,12.84l0,14.195H-7.78l0-12.257A5.051,5.051,0,0,1-6.5,11.421l8.543-9.6Z" fill="#fa4954"/>
          </g>
          <g id="g7717" transform="translate(53.661 -61.918)">
            <path id="path7719" d="M0,0-.049-.043A3.114,3.114,0,0,0-1.07-.65a3.123,3.123,0,0,1-.61,3.123L-3.949,4.937l2.087,1.857L.258,4.411A3.124,3.124,0,0,0,0,0" fill="#fdad9d"/>
          </g>
          <path id="path7721" d="M63.063-6.426H.937V-22.676H63.063Z" fill="#97e4f9"/>
          <path id="path7723" d="M59.275-6.426h3.788V-22.676H59.275Z" fill="#62d8f9"/>
          <g id="g7725" transform="translate(59.149 -1.248)">
            <path id="path7727" d="M0,0H-6.566L-7.829-5.177H0Z" fill="#695e66"/>
          </g>
          <g id="g7729" transform="translate(4.851 -1.248)">
            <path id="path7731" d="M0,0H6.566L7.829-5.177H0Z" fill="#695e66"/>
          </g>
          <g id="g7733" transform="translate(37.177 -57.183)">
            <path id="path7735" d="M0,0A5.3,5.3,0,0,0-5.3-5.3a5.3,5.3,0,0,0-5.3,5.3V2.778a5.3,5.3,0,0,0,5.3,5.3A5.3,5.3,0,0,0,0,2.778Z" fill="#ffcbbe"/>
          </g>
          <g id="g7737" transform="translate(31.874 -62.487)">
            <path id="path7739" d="M0,0A5.328,5.328,0,0,0-1.073.109,5.305,5.305,0,0,1,3.157,5.3V8.081a5.305,5.305,0,0,1-4.23,5.195A5.328,5.328,0,0,0,0,13.385a5.3,5.3,0,0,0,5.3-5.3V5.3A5.3,5.3,0,0,0,0,0" fill="#fdad9d"/>
          </g>
          <g id="g7741" transform="translate(57.002 -29.908)">
            <path id="path7743" d="M0,0H-7.739A3.312,3.312,0,0,1-10.7-1.831h0a3.312,3.312,0,0,0-2.962-1.831H-36.087A3.312,3.312,0,0,0-39.05-1.831h0A3.312,3.312,0,0,1-42.012,0H-50a4.041,4.041,0,0,0-4.041,4.041V7.232H4.041V4.041A4.041,4.041,0,0,0,0,0" fill="#d0fae9"/>
          </g>
          <g id="g7745" transform="translate(57.002 -29.908)">
            <path id="path7747" d="M0,0H-3.917A4.041,4.041,0,0,1,.124,4.041V7.232H4.041V4.041A4.041,4.041,0,0,0,0,0" fill="#99f5d2"/>
          </g>
          <g id="g7749" transform="translate(61.042 -22.676)">
            <path id="path7751" d="M0,0V-25.163a2.525,2.525,0,0,0-2.525-2.526H-13.478" fill="none" stroke="#000" stroke-linecap="round" stroke-linejoin="round" stroke-miterlimit="10" stroke-width="1.875"/>
          </g>
          <g id="g7753" transform="translate(2.957 -36.559)">
            <path id="path7755" d="M0,0V13.882" fill="none" stroke="#000" stroke-linecap="round" stroke-linejoin="round" stroke-miterlimit="10" stroke-width="1.875"/>
          </g>
          <g id="g7757" transform="translate(16.435 -50.365)">
            <path id="path7759" d="M0,0H-10.953a2.525,2.525,0,0,0-2.525,2.526V9.443" fill="none" stroke="#000" stroke-linecap="round" stroke-linejoin="round" stroke-miterlimit="10" stroke-width="1.875"/>
          </g>
          <g id="g7761" transform="translate(37.981 -50.365)">
            <path id="path7763" d="M0,0H-2.672" fill="none" stroke="#000" stroke-linecap="round" stroke-linejoin="round" stroke-miterlimit="10" stroke-width="1.875"/>
          </g>
          <g id="g7765" transform="translate(28.439 -50.365)">
            <path id="path7767" d="M0,0H-2.42" fill="none" stroke="#000" stroke-linecap="round" stroke-linejoin="round" stroke-miterlimit="10" stroke-width="1.875"/>
          </g>
          <g id="g7769" transform="translate(28.439 -50.365)">
            <path id="path7771" d="M0,0H-2.42A2.524,2.524,0,0,1-4.306-.846l-7.215-8.11-4.716,4.2L-12,0l4.06,4.564A5.052,5.052,0,0,1-6.666,7.921V16.8" fill="none" stroke="#000" stroke-linecap="round" stroke-linejoin="round" stroke-miterlimit="10" stroke-width="1.875"/>
          </g>
          <g id="g7773" transform="translate(41.978 -40.938)">
            <path id="path7775" d="M0,0V-1.229A5.048,5.048,0,0,1,1.278-4.584L5.587-9.427l4.234-4.76L5.1-18.384l-7.215,8.11A2.524,2.524,0,0,1-4-9.428H-6.669" fill="none" stroke="#000" stroke-linecap="round" stroke-linejoin="round" stroke-miterlimit="10" stroke-width="1.875"/>
          </g>
          <g id="g7777" transform="translate(41.976 -33.57)">
            <path id="path7779" d="M0,0V-2.95" fill="none" stroke="#000" stroke-linecap="round" stroke-linejoin="round" stroke-miterlimit="10" stroke-width="1.875"/>
          </g>
          <g id="g7781" transform="translate(47.082 -59.321)">
            <path id="path7783" d="M0,0,2.1-2.359a3.157,3.157,0,0,1,4.457-.26h0a3.157,3.157,0,0,1,.26,4.457L4.717,4.2" fill="none" stroke="#000" stroke-linecap="round" stroke-linejoin="round" stroke-miterlimit="10" stroke-width="1.875"/>
          </g>
          <g id="g7785" transform="translate(16.918 -59.321)">
            <path id="path7787" d="M0,0-2.1-2.359a3.157,3.157,0,0,0-4.457-.26h0a3.157,3.157,0,0,0-.26,4.457l2.1,2.359" fill="none" stroke="#000" stroke-linecap="round" stroke-linejoin="round" stroke-miterlimit="10" stroke-width="1.875"/>
          </g>
          <g id="g7789" transform="translate(59.149 -1.248)">
            <path id="path7791" d="M0,0H-6.566L-7.829-5.177H0Z" fill="none" stroke="#000" stroke-linecap="round" stroke-linejoin="round" stroke-miterlimit="10" stroke-width="1.875"/>
          </g>
          <g id="g7793" transform="translate(4.851 -1.248)">
            <path id="path7795" d="M0,0H6.566L7.829-5.177H0Z" fill="none" stroke="#000" stroke-linecap="round" stroke-linejoin="round" stroke-miterlimit="10" stroke-width="1.875"/>
          </g>
          <path id="path7797" d="M4.725-18.888h54.55v8.674H4.725Z" fill="none" stroke="#000" stroke-linecap="round" stroke-linejoin="round" stroke-miterlimit="10" stroke-width="1.875"/>
          <g id="g7799" transform="translate(37.177 -57.183)">
            <path id="path7801" d="M0,0A5.3,5.3,0,0,0-5.3-5.3a5.3,5.3,0,0,0-5.3,5.3V2.778a5.3,5.3,0,0,0,5.3,5.3A5.3,5.3,0,0,0,0,2.778Z" fill="none" stroke="#000" stroke-linecap="round" stroke-linejoin="round" stroke-miterlimit="10" stroke-width="1.875"/>
          </g>
          <g id="g7803" transform="translate(53.517 -22.676)">
            <path id="path7805" d="M0,0H7.526V-3.191A4.041,4.041,0,0,0,3.485-7.232H-4.254A3.312,3.312,0,0,1-7.217-9.063h0a3.312,3.312,0,0,0-2.963-1.831H-32.6a3.312,3.312,0,0,0-2.963,1.831h0a3.312,3.312,0,0,1-2.963,1.831h-7.992A4.041,4.041,0,0,0-50.56-3.192V0H-4.394" fill="none" stroke="#000" stroke-linecap="round" stroke-linejoin="round" stroke-miterlimit="10" stroke-width="1.875"/>
          </g>
          <g id="g7807" transform="translate(61.043 -22.676)">
            <path id="path7809" d="M0,0H2.02V16.25H-60.106V0h2.02" fill="none" stroke="#000" stroke-linecap="round" stroke-linejoin="round" stroke-miterlimit="10" stroke-width="1.875"/>
          </g>
        </g>
      </g>
    </g>
  </g>
</svg>
