<svg xmlns="http://www.w3.org/2000/svg" xmlns:xlink="http://www.w3.org/1999/xlink" width="64" height="64" viewBox="0 0 64 64">
  <defs>
    <clipPath id="clip-path">
      <rect id="Rectángulo_339706" data-name="Rectángulo 339706" width="64" height="64" transform="translate(936 6510)" fill="#fc5f65" stroke="#707070" stroke-width="1"/>
    </clipPath>
  </defs>
  <g id="Enmascarar_grupo_614" data-name="Enmascarar grupo 614" transform="translate(-936 -6510)" clip-path="url(#clip-path)">
    <g id="ambiental" transform="translate(936 6510)">
      <g id="Grupo_995926" data-name="Grupo 995926">
        <path id="Trazado_218734" data-name="Trazado 218734" d="M28.465,55.008H40.9V48.439a3.107,3.107,0,0,0-4.91-2.412l-3.668,2.622h-3.86v6.359Z" fill="#fed2a4"/>
        <path id="Trazado_218735" data-name="Trazado 218735" d="M50.059,45.714a3.105,3.105,0,0,0-4.333-.723L34.569,52.965a4.115,4.115,0,0,1-.412.256v0l-1.364,1.081-2.257-.041v-.528l.54-.243a3.095,3.095,0,0,0-1.146-5.974H26.672a6.3,6.3,0,0,1-3.509-1.06,5.985,5.985,0,0,0-7.376.562l-.66.605a3.534,3.534,0,0,1-2.389.929H11.7V60.99H30.048a12.421,12.421,0,0,0,7.223-2.316L49.336,50.05A3.11,3.11,0,0,0,50.059,45.714Z" fill="#ffe5c2"/>
        <path id="Trazado_218736" data-name="Trazado 218736" d="M3.008,62.026a1.036,1.036,0,0,0,1.035,1.036h6.623A1.036,1.036,0,0,0,11.7,62.026V47.521a1.036,1.036,0,0,0-1.035-1.036H4.044a1.036,1.036,0,0,0-1.035,1.036V62.026Z" fill="#c8effe"/>
        <g id="Grupo_995923" data-name="Grupo 995923">
          <g id="Grupo_995922" data-name="Grupo 995922">
            <g id="Grupo_995921" data-name="Grupo 995921">
              <path id="Trazado_218737" data-name="Trazado 218737" d="M50.059,45.714a3.105,3.105,0,0,0-4.333-.723l-2.894,2.072a3.107,3.107,0,0,1,3.714,4.981l2.791-1.994A3.11,3.11,0,0,0,50.059,45.714Z" fill="#fed2a4"/>
            </g>
          </g>
        </g>
        <path id="Trazado_218738" data-name="Trazado 218738" d="M11.292,46.485H8.4a1.036,1.036,0,0,1,1.035,1.036V62.026A1.036,1.036,0,0,1,8.4,63.063h2.894a1.036,1.036,0,0,0,1.035-1.036V47.521A1.036,1.036,0,0,0,11.292,46.485Z" fill="#99e6fc"/>
        <g id="Grupo_995925" data-name="Grupo 995925">
          <g id="Grupo_995924" data-name="Grupo 995924">
            <path id="Trazado_218739" data-name="Trazado 218739" d="M52.135,33.949a18.674,18.674,0,0,0,5.714-8.161L55.184,8.394A18.669,18.669,0,0,0,45.563,1.7l-12.1.522A18.673,18.673,0,0,0,26.383,7.15h0L25.362,30.757a18.719,18.719,0,0,0,6.493,5.449Z" fill="#01d0fb"/>
            <path id="Trazado_218740" data-name="Trazado 218740" d="M56.017,19.575a18.605,18.605,0,0,1-7.242,14.748l3.36-.374a18.674,18.674,0,0,0,5.714-8.161L55.184,8.394A18.668,18.668,0,0,0,45.563,1.7l-2.536.109A18.645,18.645,0,0,1,56.017,19.575Z" fill="#01c0fa"/>
            <path id="Trazado_218741" data-name="Trazado 218741" d="M30.333,25.788V25.2a1.9,1.9,0,0,1,1.9-1.9,4.97,4.97,0,0,0,4.445-2.747l.587-1.173a4.971,4.971,0,0,0,.525-2.223V13.844a2.966,2.966,0,0,0-2.966-2.966H33.714A2.966,2.966,0,0,1,30.9,8.849a2.485,2.485,0,0,0-2.358-1.7H26.383a18.637,18.637,0,0,0-1.021,23.608h0A4.97,4.97,0,0,0,30.333,25.788Z" fill="#9be69d"/>
            <path id="Trazado_218742" data-name="Trazado 218742" d="M57.642,21.644l-1.053-9.7-4.3-3.55H49.557a4.97,4.97,0,0,0-4.445,2.747l-.587,1.173A4.971,4.971,0,0,0,44,14.536V16.8a2.485,2.485,0,0,0,1.374,2.223l2.547,1.274a4.969,4.969,0,0,0,2.223.525h1.312A1.242,1.242,0,0,1,52.7,22.06V23.3a2.484,2.484,0,0,0,2.261,2.474Z" fill="#9be69d"/>
            <path id="Trazado_218743" data-name="Trazado 218743" d="M56.017,19.575a18.606,18.606,0,0,1-1.057,6.2c.074.007.148.011.224.011h2.666A18.662,18.662,0,0,0,55.184,8.393H52.29A18.554,18.554,0,0,1,56.017,19.575Z" fill="#6fd7a3"/>
            <path id="Trazado_218744" data-name="Trazado 218744" d="M43.378,1.342,40.031.991l-1.194,0a18.54,18.54,0,0,0-5.376,1.229l.469.938a4.97,4.97,0,0,0,4.445,2.747h3.053A2.485,2.485,0,0,0,43.5,4.8l1.495-2.242Z" fill="#9be69d"/>
            <path id="Trazado_218745" data-name="Trazado 218745" d="M38.826.993a18.526,18.526,0,0,1,6.164,1.566l.572-.859h0a18.639,18.639,0,0,0-5.29-.763Q39.543.938,38.826.993Z" fill="#6fd7a3"/>
            <path id="Trazado_218746" data-name="Trazado 218746" d="M39.735,38.147l3.43-.409,6.5-2.876,1.308-2.54h0l-.518-.726a4.97,4.97,0,0,0-4.044-2.081H43.365a5.778,5.778,0,0,0-4.807,2.573h0A2.593,2.593,0,0,1,36.4,33.242h0a4.969,4.969,0,0,0-4.545,2.964,18.527,18.527,0,0,0,6.994,1.95Z" fill="#9be69d"/>
            <path id="Trazado_218747" data-name="Trazado 218747" d="M50.976,32.322a18.586,18.586,0,0,1-12.149,5.835q.716.055,1.447.056a18.562,18.562,0,0,0,11.853-4.254l.011-.009h0Z" fill="#6fd7a3"/>
          </g>
          <path id="Trazado_218748" data-name="Trazado 218748" d="M38.3,27.983a20.682,20.682,0,0,0-16.663-8.408q-.532,0-1.057.027A1.038,1.038,0,0,0,19.6,20.7,20.711,20.711,0,0,0,40.278,40.284c.232,0,.463-.005.693-.013Z" fill="#6fd7a3"/>
          <path id="Trazado_218749" data-name="Trazado 218749" d="M37.646,40.117a20.913,20.913,0,0,0,2.633.167c.232,0,.463-.005.693-.013L38.3,27.983a20.832,20.832,0,0,0-2.487-2.794,23.624,23.624,0,0,0,1.835,14.928Z" fill="#3ec3a4"/>
          <path id="Trazado_218750" data-name="Trazado 218750" d="M38.207,29.93a20.609,20.609,0,0,0,2.764,10.341A20.713,20.713,0,0,0,58.549,9.811a1.037,1.037,0,0,0-.979-.545A20.71,20.71,0,0,0,38.207,29.93Z" fill="#6fd7a3"/>
          <path id="Trazado_218751" data-name="Trazado 218751" d="M58.549,9.811a1.037,1.037,0,0,0-.979-.545,20.736,20.736,0,0,0-2.133.25,1.031,1.031,0,0,1,.241.3A20.714,20.714,0,0,1,40.821,40c.05.09.1.181.15.27A20.713,20.713,0,0,0,58.549,9.811Z" fill="#3ec3a4"/>
        </g>
      </g>
      <g id="Grupo_995935" data-name="Grupo 995935">
        <g id="Grupo_995929" data-name="Grupo 995929">
          <path id="Trazado_218752" data-name="Trazado 218752" d="M3.01,53.738v8.289a1.036,1.036,0,0,0,1.035,1.036h7.248a1.036,1.036,0,0,0,1.035-1.036V47.521a1.036,1.036,0,0,0-1.035-1.036H4.045A1.036,1.036,0,0,0,3.01,47.521v1.836" fill="none" stroke="#000" stroke-linecap="round" stroke-linejoin="round" stroke-miterlimit="10" stroke-width="1.875"/>
          <g id="Grupo_995928" data-name="Grupo 995928">
            <g id="Grupo_995927" data-name="Grupo 995927">
              <path id="Trazado_218753" data-name="Trazado 218753" d="M32.324,48.65l3.668-2.622A3.107,3.107,0,0,1,40.9,48.44" fill="none" stroke="#000" stroke-linecap="round" stroke-linejoin="round" stroke-miterlimit="10" stroke-width="1.875"/>
            </g>
            <path id="Trazado_218754" data-name="Trazado 218754" d="M12.328,60.99H30.049a12.418,12.418,0,0,0,7.222-2.316l12.065-8.624a3.108,3.108,0,0,0-3.611-5.059L34.569,52.966a4.14,4.14,0,0,1-2.407.772H29.929" fill="none" stroke="#000" stroke-linecap="round" stroke-linejoin="round" stroke-miterlimit="10" stroke-width="1.875"/>
          </g>
          <path id="Trazado_218755" data-name="Trazado 218755" d="M23.717,53.738h6.142a3.164,3.164,0,0,0,3.175-3.168,3.107,3.107,0,0,0-3.105-3.048H26.673a6.339,6.339,0,0,1-3.518-1.066h0a5.985,5.985,0,0,0-3.322-1.006h0a5.986,5.986,0,0,0-4.045,1.574l-.66.605a3.534,3.534,0,0,1-2.388.929h-.412" fill="none" stroke="#000" stroke-linecap="round" stroke-linejoin="round" stroke-miterlimit="10" stroke-width="1.875"/>
        </g>
        <g id="Grupo_995934" data-name="Grupo 995934">
          <g id="Grupo_995931" data-name="Grupo 995931">
            <path id="Trazado_218756" data-name="Trazado 218756" d="M23.9,10.691a18.643,18.643,0,0,1,32.03-1.254" fill="none" stroke="#000" stroke-linecap="round" stroke-linejoin="round" stroke-miterlimit="10" stroke-width="1.875"/>
            <path id="Trazado_218757" data-name="Trazado 218757" d="M21.646,19.575a18.672,18.672,0,0,1,.587-4.658" fill="none" stroke="#000" stroke-linecap="round" stroke-linejoin="round" stroke-miterlimit="10" stroke-width="1.875"/>
            <g id="Grupo_995930" data-name="Grupo 995930">
              <path id="Trazado_218758" data-name="Trazado 218758" d="M33.47,2.222l.469.938a4.97,4.97,0,0,0,4.445,2.747h3.053A2.485,2.485,0,0,0,43.506,4.8l2.067-3.1" fill="none" stroke="#000" stroke-linecap="round" stroke-linejoin="round" stroke-miterlimit="10" stroke-width="1.875"/>
              <path id="Trazado_218759" data-name="Trazado 218759" d="M33.326,23.183a4.97,4.97,0,0,0,3.361-2.628l.587-1.173a4.971,4.971,0,0,0,.525-2.223V13.844a2.966,2.966,0,0,0-2.966-2.966H33.724A2.966,2.966,0,0,1,30.91,8.849a2.485,2.485,0,0,0-2.358-1.7H26.393" fill="none" stroke="#000" stroke-linecap="round" stroke-linejoin="round" stroke-miterlimit="10" stroke-width="1.875"/>
              <path id="Trazado_218760" data-name="Trazado 218760" d="M55.194,8.392H49.567a4.97,4.97,0,0,0-4.445,2.747l-.587,1.173a4.971,4.971,0,0,0-.525,2.223v1.023" fill="none" stroke="#000" stroke-linecap="round" stroke-linejoin="round" stroke-miterlimit="10" stroke-width="1.875"/>
            </g>
          </g>
          <g id="Grupo_995933" data-name="Grupo 995933">
            <path id="Trazado_218761" data-name="Trazado 218761" d="M38.212,29.929A20.612,20.612,0,0,0,40.976,40.27,20.713,20.713,0,0,0,58.548,9.811a1.037,1.037,0,0,0-.979-.545A20.708,20.708,0,0,0,38.212,29.929Z" fill="none" stroke="#000" stroke-linecap="round" stroke-linejoin="round" stroke-miterlimit="10" stroke-width="1.875"/>
            <path id="Trazado_218762" data-name="Trazado 218762" d="M40.439,39.279c-3.689-1.865-11.683-6.563-14.651-13.492" fill="none" stroke="#000" stroke-linecap="round" stroke-linejoin="round" stroke-miterlimit="10" stroke-width="1.875"/>
            <path id="Trazado_218763" data-name="Trazado 218763" d="M40.976,40.27S52,33.748,53.743,16.469" fill="none" stroke="#000" stroke-linecap="round" stroke-linejoin="round" stroke-miterlimit="10" stroke-width="1.875"/>
            <g id="Grupo_995932" data-name="Grupo 995932">
              <path id="Trazado_218764" data-name="Trazado 218764" d="M38.3,27.983a20.675,20.675,0,0,0-16.658-8.407q-.531,0-1.056.027a1.038,1.038,0,0,0-.983,1.093A20.708,20.708,0,0,0,40.283,40.283c.232,0,.463-.005.693-.013" fill="none" stroke="#000" stroke-linecap="round" stroke-linejoin="round" stroke-miterlimit="10" stroke-width="1.875"/>
            </g>
          </g>
        </g>
      </g>
    </g>
  </g>
</svg>
