<svg xmlns="http://www.w3.org/2000/svg" xmlns:xlink="http://www.w3.org/1999/xlink" width="64" height="64" viewBox="0 0 64 64">
  <defs>
    <clipPath id="clip-path">
      <rect id="Rectángulo_339725" data-name="Rectángulo 339725" width="64" height="64" transform="translate(-4569 -5190)" fill="#fc5f65" stroke="#707070" stroke-width="1"/>
    </clipPath>
  </defs>
  <g id="Enmascarar_grupo_615" data-name="Enmascarar grupo 615" transform="translate(4569 5190)" clip-path="url(#clip-path)">
    <g id="perdida-de-dinero" transform="translate(-4570.032 -5191.032)">
      <path id="Trazado_218765" data-name="Trazado 218765" d="M21.958,30.809l2.816-6.035,3.1,2.065L28.9,32,32,26.839,37.161,32l3.1-8.258,4.612,6.342a16.522,16.522,0,1,0-22.916.723Z" fill="#f3a33a"/>
      <path id="Trazado_218766" data-name="Trazado 218766" d="M45.419,18.581a12.387,12.387,0,1,0-21.606,8.258l.961-2.065,3.1,2.065.654,3.27a12.136,12.136,0,0,0,1.263.413L32,26.839l3.806,3.806a12.345,12.345,0,0,0,2.12-.685l2.332-6.217,2.135,2.936A12.328,12.328,0,0,0,45.419,18.581Z" fill="#f7c244"/>
      <path id="Trazado_218767" data-name="Trazado 218767" d="M33.032,6.194A12.387,12.387,0,0,0,20.645,18.581a12.238,12.238,0,0,0,1.145,5.161H36.129a3.1,3.1,0,0,0,3.1-3.1V7.864a12.316,12.316,0,0,0-6.194-1.67Z" fill="#f9ce69"/>
      <path id="Trazado_218768" data-name="Trazado 218768" d="M56.774,27.871v9.29h-3.1l5.161,5.161L64,37.161H60.9v-9.29Z" fill="#98c05c"/>
      <g id="Grupo_995936" data-name="Grupo 995936">
        <circle id="Elipse_4930" data-name="Elipse 4930" cx="3.097" cy="3.097" r="3.097" transform="translate(24.774 36.129)" fill="#f7c244"/>
        <circle id="Elipse_4931" data-name="Elipse 4931" cx="3.097" cy="3.097" r="3.097" transform="translate(39.226 47.484)" fill="#f7c244"/>
        <circle id="Elipse_4932" data-name="Elipse 4932" cx="3.097" cy="3.097" r="3.097" transform="translate(32 57.806)" fill="#f7c244"/>
      </g>
      <path id="Trazado_218769" data-name="Trazado 218769" d="M36.129,41.29l4.129-4.129,2.065,5.161Z" fill="#f3a33a"/>
      <path id="Trazado_218770" data-name="Trazado 218770" d="M23.742,51.613l4.129-5.161,3.1,7.226Z" fill="#f3a33a"/>
      <path id="Trazado_218771" data-name="Trazado 218771" d="M58.839,41.29V33.032a2.065,2.065,0,0,0-2.065-2.065v6.194h-3.1l4.975,4.975a2.054,2.054,0,0,0,.186-.846Z" fill="#adcd7d"/>
      <path id="Trazado_218772" data-name="Trazado 218772" d="M5.161,38.194v9.29h-3.1l5.161,5.161,5.161-5.161H9.29v-9.29Z" fill="#98c05c"/>
      <path id="Trazado_218773" data-name="Trazado 218773" d="M7.226,51.613V43.355A2.065,2.065,0,0,0,5.161,41.29v6.194h-3.1L7.04,52.459a2.054,2.054,0,0,0,.186-.846Z" fill="#adcd7d"/>
      <path id="Trazado_218774" data-name="Trazado 218774" d="M33.032,1.032A17.531,17.531,0,0,0,21.265,31.574a1.032,1.032,0,0,0,1.629-.328L25.2,26.3l1.74,1.158.95,4.748a1.032,1.032,0,0,0,1.9.329L32.2,28.51l4.227,4.232a1.032,1.032,0,0,0,1.7-.366l2.423-6.463,3.484,4.79a1.032,1.032,0,0,0,.761.423,1.016,1.016,0,0,0,.814-.31A17.539,17.539,0,0,0,33.032,1.032Zm7.086,21.687a1.032,1.032,0,0,0-.826.66L36.76,30.136l-2.7-2.692V25.66a4.121,4.121,0,0,0-1.032-8.111A2.065,2.065,0,1,1,35.1,15.484h2.065a4.129,4.129,0,0,0-3.1-3.982V9.29H32V11.5a4.121,4.121,0,0,0,1.032,8.111,2.065,2.065,0,1,1-2.065,2.065H28.9A4.129,4.129,0,0,0,32,25.66v.147a1.041,1.041,0,0,0-.885.5L29.393,29.18l-.51-2.548a1.032,1.032,0,0,0-.439-.657l-3.1-2.065a1.038,1.038,0,0,0-.852-.135,1.026,1.026,0,0,0-.657.557l-.243.516a11.355,11.355,0,1,1,18.815.093l-1.318-1.814a1.038,1.038,0,0,0-.974-.41Zm4.837,5.727L43.687,26.7a13.419,13.419,0,1,0-21.081.281l-.961,2.065a15.477,15.477,0,1,1,23.313-.6Z"/>
      <path id="Trazado_218775" data-name="Trazado 218775" d="M64.954,36.766A1.032,1.032,0,0,0,64,36.129H61.935V27.871A1.032,1.032,0,0,0,60.9,26.839H56.774a1.032,1.032,0,0,0-1.032,1.032v8.258H53.677a1.032,1.032,0,0,0-.73,1.762l5.161,5.161a1.032,1.032,0,0,0,1.46,0l5.161-5.161A1.032,1.032,0,0,0,64.954,36.766Zm-6.115,4.1-2.669-2.669h.6a1.032,1.032,0,0,0,1.032-1.032V28.9h2.065v8.258A1.032,1.032,0,0,0,60.9,38.194h.6Z"/>
      <path id="Trazado_218776" data-name="Trazado 218776" d="M12.387,46.452H10.323V38.194A1.032,1.032,0,0,0,9.29,37.161H5.161a1.032,1.032,0,0,0-1.032,1.032v8.258H2.065a1.032,1.032,0,0,0-.73,1.762L6.5,53.375a1.032,1.032,0,0,0,1.46,0l5.161-5.161a1.032,1.032,0,0,0-.73-1.762ZM7.226,51.186,4.556,48.516h.6a1.032,1.032,0,0,0,1.032-1.032V39.226H8.258v8.258A1.032,1.032,0,0,0,9.29,48.516h.6Z"/>
      <path id="Trazado_218777" data-name="Trazado 218777" d="M55.742,22.71h6.194v2.065H55.742Z"/>
      <path id="Trazado_218778" data-name="Trazado 218778" d="M55.742,18.581h6.194v2.065H55.742Z"/>
      <path id="Trazado_218779" data-name="Trazado 218779" d="M4.129,33.032h6.194V35.1H4.129Z"/>
      <path id="Trazado_218780" data-name="Trazado 218780" d="M4.129,28.9h6.194v2.065H4.129Z"/>
      <path id="Trazado_218781" data-name="Trazado 218781" d="M32,39.226a4.129,4.129,0,1,0-4.129,4.129A4.129,4.129,0,0,0,32,39.226Zm-6.194,0a2.065,2.065,0,1,1,2.065,2.065A2.065,2.065,0,0,1,25.806,39.226Z"/>
      <path id="Trazado_218782" data-name="Trazado 218782" d="M42.323,46.452a4.129,4.129,0,1,0,4.129,4.129A4.129,4.129,0,0,0,42.323,46.452Zm0,6.194a2.065,2.065,0,1,1,2.065-2.065A2.065,2.065,0,0,1,42.323,52.645Z"/>
      <path id="Trazado_218783" data-name="Trazado 218783" d="M35.1,56.774A4.129,4.129,0,1,0,39.226,60.9,4.129,4.129,0,0,0,35.1,56.774Zm0,6.194A2.065,2.065,0,1,1,37.161,60.9,2.065,2.065,0,0,1,35.1,62.968Z"/>
      <path id="Trazado_218784" data-name="Trazado 218784" d="M35.96,42.308l6.194,1.032a1.032,1.032,0,0,0,1.128-1.4l-2.065-5.161a1.032,1.032,0,0,0-1.689-.347L35.4,40.561a1.032,1.032,0,0,0,.561,1.748ZM39.882,39l.8,2.006-2.405-.4Z"/>
      <path id="Trazado_218785" data-name="Trazado 218785" d="M31.742,54.36a1.032,1.032,0,0,0,.174-1.089l-3.1-7.226a1.032,1.032,0,0,0-1.755-.238l-4.129,5.161a1.032,1.032,0,0,0,.523,1.638l7.226,2.065a1.056,1.056,0,0,0,.283.039A1.032,1.032,0,0,0,31.742,54.36Zm-6.225-3.314,2.083-2.6,1.563,3.647Z"/>
      <path id="Trazado_218786" data-name="Trazado 218786" d="M18.581,37.161h2.065v2.065H18.581Z"/>
      <path id="Trazado_218787" data-name="Trazado 218787" d="M33.032,45.419H35.1v2.065H33.032Z"/>
      <path id="Trazado_218788" data-name="Trazado 218788" d="M45.419,35.1h2.065v2.065H45.419Z"/>
      <path id="Trazado_218789" data-name="Trazado 218789" d="M22.71,56.774h2.065v2.065H22.71Z"/>
      <path id="Trazado_218790" data-name="Trazado 218790" d="M43.355,59.871h2.065v2.065H43.355Z"/>
    </g>
  </g>
</svg>
