<svg xmlns="http://www.w3.org/2000/svg" xmlns:xlink="http://www.w3.org/1999/xlink" width="64" height="64" viewBox="0 0 64 64">
  <defs>
    <clipPath id="clip-path">
      <rect id="Rectángulo_339731" data-name="Rectángulo 339731" width="64" height="64" transform="translate(-4569 -4813)" fill="#fc5f65" stroke="#707070" stroke-width="1"/>
    </clipPath>
  </defs>
  <g id="Enmascarar_grupo_617" data-name="Enmascarar grupo 617" transform="translate(4569 4813)" clip-path="url(#clip-path)">
    <g id="plan" transform="translate(-4565.936 -4813)">
      <path id="Trazado_218791" data-name="Trazado 218791" d="M18.252,2.188V63.063H49.066a7.806,7.806,0,0,0,7.806-7.806V2.187a1.25,1.25,0,0,0-1.25-1.25H19.5a1.25,1.25,0,0,0-1.25,1.25Zm0,0" fill="#e3f4ff"/>
      <path id="Trazado_218792" data-name="Trazado 218792" d="M56.872,2.188v53.07a7.806,7.806,0,0,1-7.806,7.805H45.477a7.806,7.806,0,0,0,7.806-7.805V2.188a1.251,1.251,0,0,0-1.25-1.25h3.589A1.251,1.251,0,0,1,56.872,2.188Zm0,0" fill="#bddff4"/>
      <path id="Trazado_218793" data-name="Trazado 218793" d="M39.515,52.081a1.25,1.25,0,0,1,1.25,1.25v1.927a7.805,7.805,0,0,0,7.805,7.805H9.948a7.806,7.806,0,0,1-7.806-7.806V53.331a1.25,1.25,0,0,1,1.25-1.25Zm0,0" fill="#9cc6db"/>
      <g id="Grupo_995937" data-name="Grupo 995937">
        <path id="Trazado_218794" data-name="Trazado 218794" d="M29.042,22.034a2.27,2.27,0,1,1-2.271-2.271,2.271,2.271,0,0,1,2.271,2.271Zm0,0" fill="#f9b200"/>
        <path id="Trazado_218795" data-name="Trazado 218795" d="M29.042,31.937a2.27,2.27,0,1,1-2.271-2.271,2.27,2.27,0,0,1,2.271,2.271Zm0,0" fill="#f9b200"/>
        <path id="Trazado_218796" data-name="Trazado 218796" d="M29.042,41.841a2.27,2.27,0,1,1-2.271-2.271A2.271,2.271,0,0,1,29.042,41.841Zm0,0" fill="#f9b200"/>
      </g>
      <path id="Trazado_218797" data-name="Trazado 218797" d="M24.907,6.848H50.217v5.437H24.907Zm0,0" fill="#fd6096"/>
      <path id="Trazado_218798" data-name="Trazado 218798" d="M18.255,35.839l4.025,2a.554.554,0,0,0,.766-.688l-1.56-4.216Zm0,0" fill="#4e7693"/>
      <path id="Trazado_218799" data-name="Trazado 218799" d="M17.39,35.592,1.235,17.607a.922.922,0,0,1,.07-1.3l2.571-2.309a.922.922,0,0,1,1.3.07L21.334,32.049a.922.922,0,0,1-.07,1.3l-2.571,2.309a.922.922,0,0,1-1.3-.07Zm0,0" fill="#c0ff66"/>
      <path id="Trazado_218800" data-name="Trazado 218800" d="M17.39,35.592,1.235,17.607a.922.922,0,0,1,.07-1.3L2.59,15.149,19.979,34.507l-1.286,1.155a.922.922,0,0,1-1.3-.07Zm0,0" fill="#9be058"/>
      <path id="Trazado_218801" data-name="Trazado 218801" d="M2.985,19.555l-1.75-1.948a.923.923,0,0,1,.07-1.3l2.571-2.309a.922.922,0,0,1,1.3.07l1.75,1.948Zm0,0" fill="#fd82ac"/>
      <path id="Trazado_218802" data-name="Trazado 218802" d="M55.622,0H19.5a2.19,2.19,0,0,0-2.188,2.188V26.17L5.878,13.438A1.861,1.861,0,0,0,3.25,13.3L.679,15.607a1.863,1.863,0,0,0-.141,2.627L16.693,36.218a1.854,1.854,0,0,0,.621.453V51.143H13.67a.938.938,0,1,0,0,1.875H39.516a.313.313,0,0,1,.313.313v1.927a8.732,8.732,0,0,0,3.338,6.867H9.948A6.876,6.876,0,0,1,3.08,55.257V53.33a.313.313,0,0,1,.313-.313h6.2a.938.938,0,1,0,0-1.875h-6.2A2.19,2.19,0,0,0,1.2,53.33v1.927A8.753,8.753,0,0,0,9.948,64H49.066a8.753,8.753,0,0,0,8.743-8.743V29.745a.938.938,0,1,0-1.875,0V55.257a6.876,6.876,0,0,1-6.868,6.868h-.5A6.875,6.875,0,0,1,41.7,55.258V53.331a2.19,2.19,0,0,0-2.188-2.188H19.189V37.35l2.675,1.33a1.491,1.491,0,0,0,2.062-1.853l-1.438-3.888c.008-.058.015-.115.018-.174a1.847,1.847,0,0,0-.474-1.343l-2.843-3.165V2.187a.313.313,0,0,1,.313-.313h36.12a.313.313,0,0,1,.313.313V14.413a.938.938,0,1,0,1.875,0V2.187A2.19,2.19,0,0,0,55.622,0ZM4.492,14.7l1.113,1.24L3.056,18.232l-1.114-1.24Zm-.184,4.925.578-.519L18.655,34.436l-.577.519ZM20.065,35.691l1.083-.973.685,1.851Zm-.014-2.508L6.281,17.855l.577-.519L20.628,32.665Zm0,0"/>
      <path id="Trazado_218803" data-name="Trazado 218803" d="M56.872,17.559a.937.937,0,0,0-.938.938v7.167a.938.938,0,1,0,1.875,0V18.5A.937.937,0,0,0,56.872,17.559Zm0,0"/>
      <path id="Trazado_218804" data-name="Trazado 218804" d="M26.772,18.826a3.208,3.208,0,1,0,3.208,3.208,3.211,3.211,0,0,0-3.208-3.208Zm0,4.541A1.333,1.333,0,1,1,28.1,22.034,1.334,1.334,0,0,1,26.772,23.366Zm0,0"/>
      <path id="Trazado_218805" data-name="Trazado 218805" d="M32.8,23.173h4.594a.938.938,0,0,0,0-1.875H32.8a.938.938,0,0,0,0,1.875Zm0,0"/>
      <path id="Trazado_218806" data-name="Trazado 218806" d="M48.813,23.545H32.8a.938.938,0,0,0,0,1.875H48.813a.938.938,0,0,0,0-1.875Zm0,0"/>
      <path id="Trazado_218807" data-name="Trazado 218807" d="M32.8,20.523h.006a.938.938,0,0,0-.006-1.875H32.79a.938.938,0,0,0,.015,1.875Zm0,0"/>
      <path id="Trazado_218808" data-name="Trazado 218808" d="M26.772,28.729a3.208,3.208,0,1,0,3.208,3.208,3.211,3.211,0,0,0-3.208-3.208Zm0,4.541A1.333,1.333,0,1,1,28.1,31.937,1.334,1.334,0,0,1,26.772,33.27Zm0,0"/>
      <path id="Trazado_218809" data-name="Trazado 218809" d="M32.8,33.076h4.594a.938.938,0,0,0,0-1.875H32.8a.938.938,0,0,0,0,1.875Zm0,0"/>
      <path id="Trazado_218810" data-name="Trazado 218810" d="M48.813,33.448H32.8a.938.938,0,0,0,0,1.875H48.813a.938.938,0,0,0,0-1.875Zm0,0"/>
      <path id="Trazado_218811" data-name="Trazado 218811" d="M32.8,30.426h.006a.938.938,0,0,0-.006-1.875H32.79a.938.938,0,0,0,.015,1.875Zm0,0"/>
      <path id="Trazado_218812" data-name="Trazado 218812" d="M26.772,38.633a3.208,3.208,0,1,0,3.208,3.208A3.211,3.211,0,0,0,26.772,38.633Zm0,4.541A1.333,1.333,0,1,1,28.1,41.841,1.334,1.334,0,0,1,26.772,43.173Zm0,0"/>
      <path id="Trazado_218813" data-name="Trazado 218813" d="M32.8,42.979h4.594a.938.938,0,0,0,0-1.875H32.8a.938.938,0,0,0,0,1.875Zm0,0"/>
      <path id="Trazado_218814" data-name="Trazado 218814" d="M32.8,45.226H48.813a.938.938,0,0,0,0-1.875H32.8a.938.938,0,0,0,0,1.875Zm0,0"/>
      <path id="Trazado_218815" data-name="Trazado 218815" d="M32.8,40.33h.006a.938.938,0,0,0-.006-1.875H32.79A.938.938,0,0,0,32.8,40.33Zm0,0"/>
      <path id="Trazado_218816" data-name="Trazado 218816" d="M51.154,12.285V6.848a.937.937,0,0,0-.938-.938H24.907a.937.937,0,0,0-.938.938v5.437a.937.937,0,0,0,.938.938H50.217A.937.937,0,0,0,51.154,12.285Zm-1.875-.938H25.845V7.786H49.279Zm0,0"/>
    </g>
  </g>
</svg>
