<svg id="Grupo_984235" data-name="Grupo 984235" xmlns="http://www.w3.org/2000/svg" width="64.325" height="100.667" viewBox="0 0 64.325 100.667">
  <path id="Trazado_117337" data-name="Trazado 117337" d="M1399.368,1050.191c-1.192,0-2.346-1.442-3.807-3.269l-.429-.535a.412.412,0,0,1-.068-.128.373.373,0,0,1-.006-.348c4.188-8.583,8.86-17.221,12.912-24.644a.741.741,0,0,0-.65-1.1.7.7,0,0,0-.112.009c-1.352.207-2.665.378-3.907.506h0c-.327,0-.875-.79-1.138-1.171-.134-.193-.257-.369-.367-.505-.957-1.186-1.8-2.28-2.562-3.348-.072-.1-.055-.128-.037-.158a.666.666,0,0,0,.071-.145.867.867,0,0,0,.129-.165c3.837-6.8,8.076-13.446,12.085-19.611a.74.74,0,0,0-.62-1.144.689.689,0,0,0-.111.009l-2.345.354c-.185.028-.4.076-.63.128a5.716,5.716,0,0,1-1.113.177.825.825,0,0,1-.225-.024c-.4-.109-.986-.954-1.336-1.459-.161-.233-.31-.446-.442-.61l-.145-.183c-.71-.885-1.444-1.8-2.078-2.744-.085-.124-.052-.166-.015-.213,5.754-9.829,10.787-20.19,15.654-30.21q1.9-3.915,3.812-7.812a.347.347,0,0,1,.242-.1c10.514-.056,21.195-.4,31.525-.739l.143,0a.18.18,0,0,1,.189.094,1.051,1.051,0,0,0,.119.155,52.98,52.98,0,0,0,3.645,4.623.34.34,0,0,1-.012.512c-4.852,5.781-9.422,11.969-13.84,17.953q-1.62,2.2-3.243,4.384a.739.739,0,0,0,.594,1.181.719.719,0,0,0,.075,0l6.519-.671a.762.762,0,0,0,.163-.036.462.462,0,0,0,.083.014c.046.053.162.15.19.182,1.4,1.647,2.645,3.233,3.812,4.847a.416.416,0,0,1-.125.349c-5.884,6.857-12.023,13.7-17.959,20.313l-.136.151a.74.74,0,0,0,.551,1.235c.024,0,6.728-.645,6.728-.645a.589.589,0,0,0,.111-.019.55.55,0,0,0,.1.021c.037.026.088.061.093.067l.024.023a61.092,61.092,0,0,1,3.867,4.92.354.354,0,0,1-.056.284c-7.07,6.357-14.387,12.688-21.463,18.81q-4.145,3.586-8.282,7.18l-13.963,12.146a3.634,3.634,0,0,1-2.205,1.116Z" transform="translate(-1394.274 -950.264)" fill="#fff"/>
  <path id="Trazado_117338" data-name="Trazado 117338" d="M1454.984,953.552a1.073,1.073,0,0,0,0-1.477,53.078,53.078,0,0,1-3.632-4.605c-.016-.022-.034-.037-.049-.057a.911.911,0,0,0-.853-.46c-10.544.342-21.1.687-31.646.743a1.034,1.034,0,0,0-.9.517c-6.246,12.693-12.241,25.671-19.383,37.89a.874.874,0,0,0-.018,1.085c.7,1.032,1.483,2,2.26,2.975.513.641,1.293,2.083,2.158,2.32a6.447,6.447,0,0,0,2.276-.264q1.172-.179,2.344-.354c-4.2,6.454-8.335,12.959-12.109,19.651a.776.776,0,0,0-.18.276.839.839,0,0,0,.06.987c.83,1.154,1.7,2.275,2.588,3.381.482.6,1.221,2.044,2.157,1.947,1.316-.137,2.631-.31,3.943-.511-4.45,8.152-8.859,16.336-12.927,24.674a1.062,1.062,0,0,0-.03.907,1.129,1.129,0,0,0,.193.359c2.694,3.344,4.217,5.648,7.506,2.782q6.978-6.079,13.962-12.147c9.934-8.643,19.963-17.193,29.754-26a1.034,1.034,0,0,0,.163-1.266,60.276,60.276,0,0,0-3.876-4.928c-.021-.031-.046-.056-.069-.084l-.013-.015s-.007,0-.011-.008a.9.9,0,0,0-.274-.2.876.876,0,0,0-.132-.065h-.007a.83.83,0,0,0-.479-.011q-3.328.318-6.657.641c6.085-6.781,12.172-13.561,18.105-20.475a1.049,1.049,0,0,0,.163-1.265c-1.218-1.686-2.5-3.308-3.847-4.892a.825.825,0,0,0-.421-.376.808.808,0,0,0-.087-.041l-.011,0a.817.817,0,0,0-.556,0q-3.259.335-6.518.671C1443.506,968.356,1448.979,960.706,1454.984,953.552Zm-23.455,20.942c.125.231.279.452.414.662.257.4.512.8.785,1.2-.921.086-1.842.173-2.763.254Q1430.747,975.551,1431.529,974.494Zm2.1,1.776c-.355-.572-.792-1.1-1.191-1.645a5.224,5.224,0,0,0-.528-.646q.625-.849,1.249-1.7c.3.56.7,1.1.986,1.615a15.313,15.313,0,0,0,1.052,2.168c-.019.023-.036.047-.053.07C1434.636,976.18,1434.131,976.221,1433.626,976.27Zm11.951-20.6c.253.7.631,1.4.871,2.019.276.716.4,1.713.75,2.474-.39.51-.776,1.023-1.165,1.534-.212-.448-.485-.877-.634-1.171a18.794,18.794,0,0,0-1.277-2.972C1444.607,956.923,1445.089,956.293,1445.578,955.668Zm-2.062,2.673a18.717,18.717,0,0,0,.911,2.181c.252.6.566,1.172.815,1.775.044.107.075.207.1.3l-1.278,1.682c-.151-.417-.349-.824-.511-1.2a20.032,20.032,0,0,0-1.416-2.946C1442.6,959.537,1443.058,958.939,1443.516,958.341Zm-1.948,2.562c.176.534.455,1.056.667,1.538.313.711.666,1.393.93,2.127a6.025,6.025,0,0,1,.18.666c-.441.582-.885,1.161-1.325,1.744a13.63,13.63,0,0,0-.713-1.5c-.379-.777-.764-1.743-1.245-2.569C1440.561,962.239,1441.066,961.571,1441.568,960.9Zm-2.127,2.84c.209.517.483,1.018.7,1.467a18.141,18.141,0,0,1,.895,2.112c.1.28.137.49.214.675q-.76,1.01-1.519,2.022c-.351-.8-.706-1.592-1.1-2.366a17.9,17.9,0,0,0-.884-1.617Q1438.592,964.888,1439.441,963.743Zm-2.23,3.015c.322.706.7,1.4,1.006,2.062a8.6,8.6,0,0,0,.893,2.026q-.734.975-1.465,1.951a11.729,11.729,0,0,0-1.167-2.42,10.305,10.305,0,0,0-.9-1.4Q1436.393,967.869,1437.211,966.758Zm-2.153,2.93c.228.385.483.76.68,1.121.5.915.811,1.908,1.27,2.835l-1.224,1.63a12.629,12.629,0,0,0-.8-1.474,9.509,9.509,0,0,0-1.379-2.128Zm12.968-10.615c-.222-.736-.6-1.481-.817-2.036a10.252,10.252,0,0,0-1.011-2.152q.825-1.048,1.656-2.088c.185.568.461,1.123.685,1.632a19.008,19.008,0,0,1,.751,1.992c.083.269.12.52.186.757l-1.174,1.532C1448.208,958.831,1448.117,958.953,1448.026,959.074Zm1.772-8.652a14.91,14.91,0,0,0,.621,2.2,8.976,8.976,0,0,0,.872,2.22c-.35.446-.7.889-1.05,1.339-.162-.5-.407-1-.57-1.391a15.25,15.25,0,0,0-1.271-2.671C1448.862,951.547,1449.332,950.987,1449.8,950.422Zm3.145,2.391a.423.423,0,0,0-.142.117c-.352.432-.691.875-1.037,1.312-.16-.624-.485-1.254-.681-1.805-.3-.828-.532-1.687-.893-2.49.072-.085.141-.17.211-.255.57.769,1.152,1.53,1.755,2.278A5.831,5.831,0,0,0,1452.943,952.813Zm-34.894-.19q.822-1.657,1.638-3.317c-.106.216,10.448.3,11.709.272q8.4-.192,16.793-.472c-7.488,9.085-14.31,18.8-21.343,28.223a1.049,1.049,0,0,0,.9,1.572c4.81-.39,9.612-.893,14.413-1.392-7.673,8.879-15.545,17.591-23.407,26.3-.54.6-.242,1.908.738,1.783,5.105-.65,10.234-1.144,15.359-1.632-13.053,11.684-26.345,23.113-39.576,34.6,3.707-7.333,7.613-14.571,11.554-21.784l0,0q1.691-3.095,3.38-6.188a1.056,1.056,0,0,0-1.179-1.534c-3.611.558-7.211,1.174-10.809,1.8,5.026-8.727,10.622-17.157,16.115-25.588a1.05,1.05,0,0,0-.9-1.572c-4.033.421-8.05.981-12.056,1.608C1407.433,974.7,1412.639,963.549,1418.049,952.623Zm25.808,27.74c.4,1,.753,2.039,1.169,3.031-.371.426-.746.851-1.118,1.276a11.888,11.888,0,0,0-1.764-3.966q.655-.754,1.309-1.509A8.952,8.952,0,0,0,1443.857,980.362Zm-2.971,5.443a17.775,17.775,0,0,0-1.023-2.474c.636-.727,1.266-1.46,1.9-2.188.3,1.48,1.194,2.845,1.407,4.368-.548.624-1.092,1.25-1.642,1.873C1441.353,986.823,1441.076,986.268,1440.886,985.805Zm-2.981,2.185a9.088,9.088,0,0,0,.794,2.583c-.391.441-.785.879-1.177,1.32a13.994,13.994,0,0,0-.6-1.665c-.315-.753-.639-1.615-1.052-2.375q.819-.924,1.637-1.848A13.15,13.15,0,0,0,1437.9,987.99Zm-4.938,9.01c-.288-.745-.591-1.483-.853-2.24-.212-.615-.357-1.344-.637-1.97.5-.559,1-1.117,1.5-1.677a14.939,14.939,0,0,0,.618,1.875,7.189,7.189,0,0,0,1,2.187Q1433.78,996.087,1432.967,997Zm-9.081,4.234c.126.336.3.665.4.937a5.266,5.266,0,0,0,.293.734c-.82.09-1.638.19-2.457.286Zm.509-.563,2.044-2.266c.2.76.613,1.562.821,2.215.183.579.3,1.306.523,1.947q-1.224.126-2.447.258A5.886,5.886,0,0,0,1424.4,1000.671Zm3.618-.661a6.67,6.67,0,0,0-1.031-2.209q.842-.936,1.681-1.874a12.942,12.942,0,0,0,.519,1.342c.371.911.682,1.872,1.062,2.784-.541.6-1.076,1.21-1.617,1.813C1428.465,1001.2,1428.189,1000.533,1428.013,1000.01Zm2.35-2.365a24.752,24.752,0,0,0-.994-2.5q.713-.794,1.424-1.588c.109.506.292,1.009.434,1.451a19.962,19.962,0,0,0,1.071,2.747c-.446.5-.889,1-1.335,1.5A12.745,12.745,0,0,0,1430.363,997.645Zm4.076-4.592c-.346-.8-.628-1.645-1.031-2.421.611-.685,1.216-1.374,1.825-2.06.125.4.293.795.443,1.174a16.948,16.948,0,0,1,1.037,3.053q-.837.941-1.676,1.88A7.129,7.129,0,0,0,1434.439,993.053Zm1.756,17.866c-.508-1.327-1.037-2.649-1.575-3.963.638-.57,1.282-1.136,1.92-1.708a12.355,12.355,0,0,0,.574,2.162,21.353,21.353,0,0,0,.638,2.142Q1436.974,1010.237,1436.195,1010.919Zm-4.71,4.123a23.893,23.893,0,0,1-1-2.28c-.176-.509-.334-1.091-.564-1.622.6-.528,1.187-1.058,1.782-1.585.233.729.564,1.467.8,2.121a10.271,10.271,0,0,0,.736,1.843Q1432.358,1014.282,1431.485,1015.041Zm-2.3,2.008a20.9,20.9,0,0,1-1.13-2.345c-.179-.454-.324-.965-.53-1.435.593-.522,1.177-1.051,1.77-1.574.125.563.318,1.122.484,1.624a9.2,9.2,0,0,0,1.017,2.325Q1429.986,1016.349,1429.181,1017.05Zm-2.386,2.081c-.293-.786-.581-1.573-.9-2.347a9.385,9.385,0,0,0-.7-1.476c.587-.514,1.176-1.024,1.762-1.538.141.6.363,1.206.535,1.743a6.79,6.79,0,0,0,1.042,2.1Zm-4.567,3.983c-.234-.542-.506-1.072-.74-1.608a13.349,13.349,0,0,0-1.011-2.076l1.581-1.383c.144.466.352.923.5,1.31a11.2,11.2,0,0,0,1.116,2.5Zm-23.293,20.277a17.72,17.72,0,0,0-.809-1.793c-.32-.625-.555-1.348-.9-1.979q.9-.784,1.809-1.568a14.036,14.036,0,0,0,.672,1.477c.331.684.593,1.592,1.018,2.3Q1399.832,1042.608,1398.934,1043.39Zm-2.622.13a9.743,9.743,0,0,0-1.127-2.129l1.469-1.275a9.186,9.186,0,0,0,.474,1.214c.386.875.828,1.724,1.165,2.616l-1.269,1.1C1396.83,1044.5,1396.508,1043.951,1396.313,1043.521Zm4.428-3.748a24.635,24.635,0,0,0-1.118-2.229q.917-.8,1.836-1.592a14.811,14.811,0,0,0,.741,1.709,21.654,21.654,0,0,0,.914,2.092l-1.643,1.43C1401.269,1040.686,1400.965,1040.207,1400.741,1039.772Zm2.356-2.2a15.142,15.142,0,0,0-1.032-2.15q.843-.731,1.685-1.461a16.426,16.426,0,0,0,.646,1.649,20.4,20.4,0,0,0,.929,2.216l-1.47,1.279C1403.63,1038.583,1403.337,1038.072,1403.1,1037.576Zm2.211-1.6c-.365-.784-.683-1.635-1.109-2.4l1.788-1.549a14.212,14.212,0,0,0,.669,1.477c.3.643.592,1.289.829,1.959.052.145.084.271.115.389l-1.665,1.448C1405.754,1036.846,1405.51,1036.41,1405.307,1035.978Zm2.5-1.852a21.244,21.244,0,0,0-1.212-2.631l1.762-1.527a140.656,140.656,0,0,0,1.79,3.665l-1.826,1.588C1408.173,1034.828,1407.947,1034.437,1407.808,1034.127Zm2.032-2.563c-.338-.623-.632-1.362-1.016-2q.918-.8,1.837-1.592c.152.379.342.748.5,1.092a16.376,16.376,0,0,0,1.236,2.611l-1.744,1.516A7.679,7.679,0,0,0,1409.84,1031.564Zm2.232-2.12c-.317-.6-.563-1.3-.858-1.951l1.57-1.361a10.77,10.77,0,0,0,.515,1.3,19.969,19.969,0,0,0,1.112,2.5l-1.454,1.266A11.036,11.036,0,0,0,1412.073,1029.443Zm2.17-1.69c-.321-.67-.576-1.412-.919-2.089l1.6-1.388c.116.365.282.723.43,1.073.382.9.717,1.866,1.167,2.738l-1.483,1.29C1414.824,1028.813,1414.488,1028.265,1414.243,1027.753Zm2.087-2.1c-.264-.585-.5-1.273-.841-1.867.585-.508,1.167-1.02,1.752-1.529.188.64.513,1.269.747,1.85.27.677.481,1.38.727,2.068l-1.59,1.387A14.657,14.657,0,0,0,1416.33,1025.654Zm2.484-1.775a11.192,11.192,0,0,0-.95-2.166q1.1-.961,2.2-1.926a14.408,14.408,0,0,0,.583,1.673,23.827,23.827,0,0,0,.913,2.231q-1.073.935-2.144,1.87C1419.242,1024.992,1419.025,1024.432,1418.815,1023.879Zm4.47-4.723c-.195-.49-.352-1.114-.589-1.667.627-.55,1.258-1.1,1.884-1.647.165.539.425,1.072.613,1.552.307.785.589,1.58.868,2.375l-1.773,1.547C1424.018,1020.58,1423.559,1019.842,1423.285,1019.157Zm10.451-6.482c-.3-.6-.507-1.245-.746-1.87a10.834,10.834,0,0,0-.752-1.732q.873-.774,1.744-1.55a34.475,34.475,0,0,0,1.548,3.978c-.55.481-1.1.965-1.648,1.446C1433.834,1012.858,1433.784,1012.769,1433.737,1012.675Zm-27.555.926a12.278,12.278,0,0,0-.621-1.292c-.086-.164-.17-.358-.263-.551q1.037-.171,2.076-.338Zm-4.5.726a15.027,15.027,0,0,0-1.145-1.768c.513-.089,1.025-.179,1.538-.267a9.158,9.158,0,0,0,.825,1.733,12.028,12.028,0,0,0,.772,1.527c-.4.061-.8.122-1.2.175A8.285,8.285,0,0,0,1401.682,1014.327Zm7.859-26.618c-.108-.453-.188-.956-.31-1.436.707-.089,1.416-.173,2.124-.256l-1.6,2.448C1409.684,988.194,1409.593,987.932,1409.54,987.709Zm-8.317-.284c.714-.113,1.428-.226,2.144-.335a14.342,14.342,0,0,0,.555,1.89c.13.388.2.856.317,1.291l-.627.1C1402.786,989.419,1401.978,988.439,1401.224,987.425Zm3.848,2.72a10.435,10.435,0,0,0-.362-1.048,14.439,14.439,0,0,0-.927-2.067q1.009-.152,2.022-.3c.1.639.224,1.274.359,1.905a8.78,8.78,0,0,0,.293,1.3Zm2.327-.353c-.094-.473-.35-.983-.448-1.369a8.831,8.831,0,0,0-.578-1.772c.683-.1,1.369-.183,2.053-.272a11.036,11.036,0,0,0,.19,1.283,4.918,4.918,0,0,0,.511,1.77c-.024.036-.047.073-.071.108C1408.5,989.623,1407.95,989.71,1407.4,989.792Zm-7.583,25.429c-.607-.728-1.188-1.476-1.76-2.231l1.481-.257c.326.63.816,1.216,1.177,1.79.211.336.407.877.66,1.342-.225.028-.449.06-.673.086C1399.766,1016.058,1400.457,1015.991,1399.815,1015.221Zm4.72.186a8.21,8.21,0,0,0-.872-1.828,8.877,8.877,0,0,0-.791-1.425c.516-.087,1.033-.167,1.549-.253.085.268.212.533.295.763a7.648,7.648,0,0,0,.823,1.738.463.463,0,0,0,.134.126q-.2.378-.411.754C1405.022,1015.329,1404.778,1015.365,1404.535,1015.407Zm-11.182,27.575,1.254-1.087c.242.6.657,1.21.873,1.691.281.625.563,1.246.81,1.886.016.043.033.081.049.121C1395.157,1046.233,1394.312,1044.488,1393.354,1042.981Zm46.913-35.646q-.526.468-1.055.936c-.219.194-.44.386-.661.579-.149-.425-.348-.845-.479-1.231a27.838,27.838,0,0,0-.969-2.872c.242-.217.486-.43.728-.648.565.65,1.113,1.315,1.621,2.011A14.3,14.3,0,0,1,1440.267,1007.335Zm-.849-17.569c-.124-.537-.365-1.073-.52-1.58a24.434,24.434,0,0,0-.891-2.746c.451-.512.906-1.021,1.355-1.534a10.721,10.721,0,0,0,.607,1.74c.231.611.456,1.221.646,1.846.076.251.117.5.172.735l-.171.194C1440.22,988.872,1439.817,989.317,1439.418,989.766Zm6.805-7.737c-.212.245-.428.487-.641.73a12.911,12.911,0,0,0-.64-1.663c-.271-.636-.52-1.279-.778-1.92a5.634,5.634,0,0,1-.185-.586c.227-.262.455-.521.681-.783.718.852,1.417,1.719,2.08,2.617C1447.6,981.56,1447.218,980.88,1446.223,982.029Zm-40.784.2a262.821,262.821,0,0,1,13.305-27.02c.03-.055.127-.017.1.044a232.4,232.4,0,0,1-13.171,27.075C1405.607,982.458,1405.382,982.37,1405.439,982.231Zm13.6-27.948a1.777,1.777,0,0,1,.259-1.02,1.11,1.11,0,0,1,.545-.667.116.116,0,0,1,.172.1c.011.505-.3,1.546-.876,1.645A.082.082,0,0,1,1419.041,954.283Zm4.317,42.237a79.876,79.876,0,0,1,11.561-13.8c.083-.083.2.039.127.126-3.893,4.559-7.693,9.188-11.559,13.767C1423.425,996.69,1423.309,996.6,1423.358,996.52Zm12.117-14.411c.162-.552.565-1.224,1.174-1.324a.116.116,0,0,1,.141.141c-.094.573-.712.993-1.171,1.293A.1.1,0,0,1,1435.475,982.109Zm-30.139,45.318a124.386,124.386,0,0,1,15.011-13.244c.146-.108.306.12.188.243-4.6,4.781-10.007,8.85-15.047,13.152C1405.384,1027.666,1405.24,1027.527,1405.336,1027.427Zm16.068-13.788a.11.11,0,0,1-.106-.106c-.051-.561.772-1.068,1.248-1.163.081-.016.188.056.151.151C1422.524,1012.963,1421.938,1013.7,1421.4,1013.639Z" transform="translate(-1390.953 -946.953)"/>
</svg>
