<svg xmlns="http://www.w3.org/2000/svg" xmlns:xlink="http://www.w3.org/1999/xlink" width="400" height="313.697" viewBox="0 0 400 313.697">
  <defs>
    <clipPath id="clip-path">
      <rect id="Rect치ngulo_40775" data-name="Rect치ngulo 40775" width="284.482" height="282.349" fill="none" stroke="#707070" stroke-width="1"/>
    </clipPath>
  </defs>
  <g id="Grupo_984333" data-name="Grupo 984333" transform="translate(-180 -3921.334)">
    <rect id="Rect치ngulo_339182" data-name="Rect치ngulo 339182" width="400" height="177" rx="16" transform="translate(180 4032)" fill="#fed947"/>
    <g id="Grupo_165272" data-name="Grupo 165272" transform="translate(58 414.334)">
      <g id="Enmascarar_grupo_193" data-name="Enmascarar grupo 193" transform="translate(180 3507)" clip-path="url(#clip-path)">
        <path id="Trazado_125318" data-name="Trazado 125318" d="M.533,199.677c2.851-23.991,16.045-45.455,22.194-68.819,4.6-17.493,5.184-35.75,7.449-53.7s6.5-36.268,17.254-50.812C61.764,6.968,87.485-3.278,111.22.94s44.352,22.7,51.131,45.832c8.743,29.833-4.523,61.487-3.79,92.566.407,17.253,5.137,34.069,7.993,51.089s3.709,35.131-3.242,50.928c-9.292,21.115-31.4,34.5-54.1,38.628-22.582,4.106-46.195.083-68.6-3.526-18.019-2.9-30.058-24.118-35.681-39.787A81.527,81.527,0,0,1,.533,199.677Z" transform="translate(163.721 -4.96) rotate(40)" fill="#3c3fa7"/>
      </g>
      <g id="Grupo_997181" data-name="Grupo 997181" transform="translate(-814.786 3318.715)">
        <path id="Trazado_219592" data-name="Trazado 219592" d="M1216.118,288.557c12.842.006,13.569-18.526,10.662-26.883,0,0,16.715-10.9,6.54-31.613s-25.435-1.09-27.615,3.634-22.165-17.805-33.43-16.715-11.627,13.081-14.171,13.081-19.2-4.36-28.858,2.18-2.74,13.081-4.745,16.351-16.9,6.9-6,18.168c0,0-18.168-1.817-19.985,7.267s4.36,12.718,3.633,15.988-16.351,22.157,16.352,28.339c0,0,.954,49.785,42.082,30.163S1216.118,288.557,1216.118,288.557Z" transform="translate(-53.203 0)" fill="#a56a42"/>
        <path id="Trazado_219593" data-name="Trazado 219593" d="M1096.405,480.653l-9.341,93.157h-55.8c6.132-16.207,23.346-61.461,28.691-73.036,6.541-14.171,19.258-15.262,19.258-15.262C1083.491,483.476,1089.729,481.887,1096.405,480.653Z" transform="translate(-28.454 -98.115)" fill="#3bad96"/>
        <path id="Trazado_219594" data-name="Trazado 219594" d="M1336.211,574.169h-71.772V481.617a129.9,129.9,0,0,1,14.1,3.952,39.851,39.851,0,0,1,21.143,17.017C1305.544,512.632,1326.7,555.031,1336.211,574.169Z" transform="translate(-115.208 -98.474)" fill="#3bad96"/>
        <path id="Trazado_219595" data-name="Trazado 219595" d="M1226.034,571.436H1107.623v-88.3c4.278-2.036,10.515-3.626,17.192-4.86a302.88,302.88,0,0,1,34.467-3.861,178.483,178.483,0,0,1,46.813,4.466,129.886,129.886,0,0,1,14.1,3.952l3.346,50.742.9,13.77Z" transform="translate(-56.864 -95.741)" fill="#3bad96"/>
        <path id="Trazado_219596" data-name="Trazado 219596" d="M1434.3,486.885l-.136,6.162-1.855,82.135h-39.962c4.489-13.376,21.431-64.232,25.859-83.694.825-3.611,1.219-6.139,1.015-7.146Z" transform="translate(-162.796 -99.488)" fill="#ffaf82"/>
        <path id="Trazado_219597" data-name="Trazado 219597" d="M1315.651,629.468H955.922a1.136,1.136,0,1,1,0-2.271h359.729a1.136,1.136,0,0,1,0,2.271Z" transform="translate(0 -152.638)" fill="#6a2810"/>
        <path id="Trazado_219598" data-name="Trazado 219598" d="M1067.371,605.785c15.5.341,27.327,18.246,11.529,39.645a2.936,2.936,0,0,1-5.272-1.525,16.8,16.8,0,0,1,.284-4.69s-4,4.542-6.541-.181c0,0-1.635,4-6.177.545,0,0-1.817,5.087-7.086,2s-10.356-20.348-5.087-28.887S1067.371,605.785,1067.371,605.785Z" transform="translate(-34.234 -144.624)" fill="#ffaf82"/>
        <path id="Trazado_219599" data-name="Trazado 219599" d="M1066.036,649.7a1.136,1.136,0,0,1-.96-.527c-4.833-7.621-5.247-17.763-5.262-18.19a1.135,1.135,0,1,1,2.269-.082c0,.1.414,9.964,4.911,17.056a1.135,1.135,0,0,1-.958,1.743Z" transform="translate(-39.076 -153.607)" fill="#fe976a"/>
        <path id="Trazado_219600" data-name="Trazado 219600" d="M1078.178,647.535a1.136,1.136,0,0,1-1.112-.913,66.7,66.7,0,0,1-.794-20.183,1.136,1.136,0,0,1,2.249.314,65.645,65.645,0,0,0,.771,19.424,1.135,1.135,0,0,1-1.115,1.358Z" transform="translate(-45.043 -151.992)" fill="#fe976a"/>
        <path id="Trazado_219601" data-name="Trazado 219601" d="M1089.3,648.04a1.136,1.136,0,0,1-1.015-1.643c2.895-5.79,1.18-18.649,1.162-18.779a1.135,1.135,0,0,1,2.25-.308c.076.556,1.828,13.684-1.381,20.1A1.135,1.135,0,0,1,1089.3,648.04Z" transform="translate(-49.625 -152.315)" fill="#fe976a"/>
        <g id="Grupo_997180" data-name="Grupo 997180" transform="translate(1050.759 437.837)">
          <path id="Trazado_219602" data-name="Trazado 219602" d="M1224.445,582.487a347.458,347.458,0,0,1-76.912,8.895,268.714,268.714,0,0,1-39.91-2.8V574.735c18.092,2.853,60.7,6.828,115.92-6.018Z" transform="translate(-1107.623 -568.717)" fill="#0091cc"/>
        </g>
        <path id="Trazado_219603" data-name="Trazado 219603" d="M1197.325,399.6v51.03s-2.309,14.171-18.3,13.081-18.168-15.625-18.168-15.625V399.6Z" transform="translate(-76.671 -67.961)" fill="#ffaf82"/>
        <path id="Trazado_219604" data-name="Trazado 219604" d="M1197.325,399.6v47.343c-21.848-.924-31.159-18.993-36.465-36.064V399.6Z" transform="translate(-76.671 -67.961)" fill="#fe976a"/>
        <path id="Trazado_219605" data-name="Trazado 219605" d="M1224.357,276.871c16.352,28.615,22.892,100.561-22.892,100.561s-58.865-37.608-48.236-80.939S1224.357,276.871,1224.357,276.871Z" transform="translate(-72.538 -19.888)" fill="#ffaf82"/>
        <path id="Trazado_219606" data-name="Trazado 219606" d="M1148.187,381.971c-4.679,14.442-30.334,10.231-31.883-5.983-1.5-15.729,16.4-22.442,28.161-12.091S1148.187,381.971,1148.187,381.971Z" transform="translate(-60.061 -52.829)" fill="#ffaf82"/>
        <path id="Trazado_219607" data-name="Trazado 219607" d="M1134.7,385.433a1.136,1.136,0,0,1-.914-1.81c.046-.062,4.63-6.407,2.158-11.156a1.136,1.136,0,0,1,2.015-1.049c3.126,6.009-2.12,13.247-2.345,13.552A1.133,1.133,0,0,1,1134.7,385.433Z" transform="translate(-66.516 -57.246)" fill="#fe976a"/>
        <path id="Trazado_219608" data-name="Trazado 219608" d="M1143.708,383.562a15.4,15.4,0,0,1-4.892-.707,1.136,1.136,0,0,1,.733-2.15c3.891,1.326,9.389-.013,9.445-.027a1.135,1.135,0,0,1,.549,2.2A26.56,26.56,0,0,1,1143.708,383.562Z" transform="translate(-68.183 -60.906)" fill="#fe976a"/>
        <path id="Trazado_219609" data-name="Trazado 219609" d="M1234.03,405.812a23.348,23.348,0,0,1-11.422-3.441,1.135,1.135,0,0,1,1.256-1.892c.509.337,12.506,8.09,20.37-2.233a1.136,1.136,0,0,1,1.807,1.376A14.538,14.538,0,0,1,1234.03,405.812Z" transform="translate(-99.456 -67.289)" fill="#6a2810"/>
        <path id="Trazado_219610" data-name="Trazado 219610" d="M1194.057,381.334a7.169,7.169,0,0,1-3.308-.84,5.337,5.337,0,0,1-3.087-4.6,6.049,6.049,0,0,1,2.6-5.2,3.252,3.252,0,0,1,3.328-.205,1.135,1.135,0,0,1-1.068,2,.959.959,0,0,0-1.052.124,3.784,3.784,0,0,0-1.535,3.179,3.078,3.078,0,0,0,1.865,2.681,4.3,4.3,0,0,0,5.314-.736,6.516,6.516,0,0,0,.783-7.716,5.983,5.983,0,0,0-5.788-3.515,5.6,5.6,0,0,0-4.877,3.709,1.136,1.136,0,0,1-2.143-.752,7.87,7.87,0,0,1,6.85-5.221,8.262,8.262,0,0,1,7.964,4.715,8.774,8.774,0,0,1-1.176,10.379A6.513,6.513,0,0,1,1194.057,381.334Z" transform="translate(-85.66 -54.797)" fill="#fe976a"/>
        <path id="Trazado_219611" data-name="Trazado 219611" d="M1271.546,370.1a7.167,7.167,0,0,1-3.307-.84,5.339,5.339,0,0,1-3.088-4.6,6.052,6.052,0,0,1,2.6-5.2,3.252,3.252,0,0,1,3.327-.205,1.135,1.135,0,1,1-1.068,2,.957.957,0,0,0-1.052.124,3.786,3.786,0,0,0-1.535,3.179,3.078,3.078,0,0,0,1.864,2.681,4.3,4.3,0,0,0,5.316-.735,6.517,6.517,0,0,0,.783-7.717,5.987,5.987,0,0,0-5.789-3.515,5.6,5.6,0,0,0-4.875,3.709,1.136,1.136,0,0,1-2.144-.752,7.868,7.868,0,0,1,6.848-5.221,8.258,8.258,0,0,1,7.966,4.715,8.773,8.773,0,0,1-1.177,10.38A6.509,6.509,0,0,1,1271.546,370.1Z" transform="translate(-114.491 -50.618)" fill="#fe976a"/>
        <path id="Trazado_219612" data-name="Trazado 219612" d="M1242.333,371.4a1.135,1.135,0,0,1-.645-2.07l8.973-6.178-9.264-13.418a1.136,1.136,0,0,1,1.87-1.29l9.909,14.353a1.134,1.134,0,0,1-.29,1.58l-9.91,6.823A1.131,1.131,0,0,1,1242.333,371.4Z" transform="translate(-106.56 -48.742)" fill="#6a2810"/>
        <path id="Trazado_219613" data-name="Trazado 219613" d="M1203.272,343.215c0,3.054-1.228,4.772-2.743,4.772s-2.744-1.719-2.744-4.772,1.228-4.691,2.744-4.691S1203.272,340.162,1203.272,343.215Z" transform="translate(-90.409 -45.235)" fill="#6a2810"/>
        <path id="Trazado_219614" data-name="Trazado 219614" d="M1262.35,335.68c0,3.054-1.228,4.772-2.743,4.772s-2.744-1.719-2.744-4.772,1.228-4.691,2.744-4.691S1262.35,332.626,1262.35,335.68Z" transform="translate(-112.389 -42.432)" fill="#6a2810"/>
        <path id="Trazado_219615" data-name="Trazado 219615" d="M1229.965,285.727c-8.874-11.678-14.477-6.541-18.441,0s-9.051,1.395-14.865-3.481-16.536-3.422-15.354,3.845-5.081,10.174-13.758,4.723-18.852,6.541-13.765,12.355,5.783,16.244-5.647,18.3-14.005-8.3-12.9-23.656,5.039-43.694,44.677-46.237,47.748,14.534,50.052,20.711S1229.965,285.727,1229.965,285.727Z" transform="translate(-67.05 -12.789)" fill="#a56a42"/>
        <path id="Trazado_219616" data-name="Trazado 219616" d="M1230.937,284.74c-3.429-3.847-6.31-4.963-8.759-4.488-2.911.569-5.223,3.371-7.125,6.526-1.592,2.622-3.371,3.271-5.309,2.795h-.007c-2.665-.656-5.633-3.429-8.832-6.109a12.226,12.226,0,0,0-8.739-2.658c-3.631.346-6.5,2.479-5.871,6.318.792,4.87-1.931,7.679-6.491,7.11a16.684,16.684,0,0,1-6.605-2.615,8.208,8.208,0,0,0-5.54-1.246c-6.3.843-11.324,8.7-7.557,13,4.841,5.532,5.5,15.459-5.375,17.412a13.032,13.032,0,0,1-3.594.194c-7.824-.706-9.6-9.869-8.681-22.706,1.052-14.61,4.8-41.581,42.517-44q3.414-.217,6.519-.238h.108c30.17.446,36.826,14.559,38.843,19.947C1231.895,277.889,1231.419,282.247,1230.937,284.74Z" transform="translate(-69.74 -13.801)" fill="#fe976a"/>
        <path id="Trazado_219617" data-name="Trazado 219617" d="M1231.837,283.588c-.265,1.325-.522,2.143-.522,2.143-3.323-4.375-6.193-6.389-8.683-6.858-4.163-.772-7.282,2.77-9.758,6.858a5.968,5.968,0,0,1-3.308,2.938h-.007c-3.346.946-7.252-2.809-11.552-6.419a12.747,12.747,0,0,0-6.911-2.794c-4.784-.439-9.22,1.825-8.441,6.639.689,4.247-1.158,7-4.549,7.471-2.415.341-5.6-.484-9.213-2.748a8.891,8.891,0,0,0-3.55-1.309c-7.593-1.015-14.61,8.637-10.212,13.663,5.087,5.814,5.783,16.246-5.647,18.3-.522.091-1.022.159-1.506.2-8.221-.742-10.091-10.371-9.122-23.861,1.105-15.352,5.042-43.694,44.679-46.237q3.588-.228,6.851-.25h.114c31.7.469,38.7,15.3,40.818,20.961C1232.843,276.389,1232.343,280.969,1231.837,283.588Z" transform="translate(-68.396 -12.792)" fill="#a56a42"/>
        <path id="Trazado_219618" data-name="Trazado 219618" d="M1476.414,451.917c-3.641,6.722-14.724,10.538-19.266,10.9s-11.022,2.536-11.083,5.268l-.136,6.162-15.958-1.559c.825-3.611,1.219-6.139,1.015-7.146,0,0-.182-6.177-4.906-13.808s-.545-14.717,3.088-11.446,3.634,10.175,7.813,10.719,12.354-2.543,19.258-7.994,11.991-12.9,15.079-7.086c0,0,6.722-.908,4.724,6.722C1476.042,442.651,1480.054,445.195,1476.414,451.917Z" transform="translate(-174.562 -80.689)" fill="#ffaf82"/>
        <path id="Trazado_219619" data-name="Trazado 219619" d="M1469.766,453.995a1.136,1.136,0,0,1-.323-2.224c15.654-4.644,17.352-15.316,17.366-15.423a1.136,1.136,0,0,1,2.249.321c-.072.5-1.935,12.225-18.969,17.279A1.132,1.132,0,0,1,1469.766,453.995Z" transform="translate(-191.179 -81.268)" fill="#fe976a"/>
        <path id="Trazado_219620" data-name="Trazado 219620" d="M1479.6,460.885a1.135,1.135,0,0,1-.137-2.262c11.006-1.354,15.768-11.765,15.815-11.87a1.135,1.135,0,0,1,2.076.921c-.211.477-5.307,11.689-17.615,13.2A1.158,1.158,0,0,1,1479.6,460.885Z" transform="translate(-194.839 -85.252)" fill="#fe976a"/>
        <path id="Trazado_219621" data-name="Trazado 219621" d="M1106.95,600.727a1.136,1.136,0,0,1-1.135-1.135V551.083a1.136,1.136,0,0,1,2.271,0v48.508A1.136,1.136,0,0,1,1106.95,600.727Z" transform="translate(-56.191 -123.897)" fill="#6a2810"/>
        <path id="Trazado_219622" data-name="Trazado 219622" d="M1293.369,596.823a1.136,1.136,0,0,1-1.132-1.061l-3.628-55.1a1.136,1.136,0,1,1,2.267-.149l3.628,55.1a1.137,1.137,0,0,1-1.059,1.208C1293.42,596.822,1293.394,596.823,1293.369,596.823Z" transform="translate(-124.2 -119.993)" fill="#6a2810"/>
      </g>
    </g>
  </g>
</svg>
