<svg xmlns="http://www.w3.org/2000/svg" width="400" height="351.591" viewBox="0 0 400 351.591">
  <g id="Grupo_984559" data-name="Grupo 984559" transform="translate(-180 -2459.409)">
    <rect id="Rectángulo_339227" data-name="Rectángulo 339227" width="281" height="125" rx="13" transform="translate(180 2686)" fill="#fed947"/>
    <rect id="Rectángulo_339593" data-name="Rectángulo 339593" width="281" height="333" rx="13" transform="translate(299 2478)" fill="#6b8dfc"/>
    <g id="Grupo_997162" data-name="Grupo 997162" transform="translate(229.823 2313.859)">
      <g id="Character" transform="translate(-0.823 145.551)">
        <g id="Grupo_997138" data-name="Grupo 997138">
          <g id="Grupo_997115" data-name="Grupo 997115" transform="translate(176.094 259.563)">
            <g id="Grupo_997113" data-name="Grupo 997113" transform="translate(13.725 15.024)">
              <path id="Trazado_219506" data-name="Trazado 219506" d="M306.842,524.86h-86.68q-2.439-7.235-4.605-14.161c-1.78-5.7-3.261-11.209-4.414-16.431-.272-1.235-.527-2.461-.763-3.67-.463-2.371-.863-4.678-1.181-6.912-1.617-11.218-1.381-20.537.917-26.859,2.044-5.65,5.741-8.9,11.245-8.965.218-.009.445-.009.663,0,.445.009.89.045,1.353.1,8.829,1.017,21.681,9.283,39.094,27.376q6.254,6.513,13.316,14.751,2.343,2.739,4.85,5.613C288.467,504.714,297.414,514.641,306.842,524.86Z" transform="translate(-208.158 -447.856)" fill="#ad6359"/>
            </g>
            <g id="Grupo_997114" data-name="Grupo 997114" transform="translate(0 0)">
              <path id="Trazado_219507" data-name="Trazado 219507" d="M324.286,523.343H209.557c-2.216-5.677-4.278-11.136-6.14-16.3q-2.085-5.79-3.724-11.154c-.445-1.453-.872-2.888-1.263-4.3h-.009q-1.2-4.21-2.107-8.138c-.391-1.653-.745-3.261-1.054-4.841-.3-1.481-.572-2.934-.808-4.351-.154-.945-.3-1.871-.427-2.789s-.245-1.817-.354-2.7c-.163-1.4-.3-2.752-.391-4.078-.054-.708-.1-1.408-.136-2.089,0-.118-.009-.236-.018-.354-.427-9.392.881-16.731,3.688-21.89a16.313,16.313,0,0,1,8.693-7.893,5.807,5.807,0,0,1,.663-.245c4.324-1.426,9.61-1.181,15.7.818h.009c7.839,2.57,17,8.029,27.168,16.513C269.878,466.946,297.745,495.113,324.286,523.343Z" transform="translate(-193.047 -431.315)" fill="#fc5f65"/>
              <path id="Trazado_219508" data-name="Trazado 219508" d="M301.838,495.981a58.311,58.311,0,0,0,6.849,18.92c2.38,4.087,6.921,9.683,12.117,6.267a7.5,7.5,0,0,0,2.543-2.934C316.189,510.659,308.941,503.148,301.838,495.981Zm-25.1,30.356h10.745C283.854,524.075,279.7,523.112,276.742,526.337Zm10.373-45.043c-6.313-6.195-12.48-12.062-18.275-17.331-1.526,2.125-1.88,5.214-1.481,8.538a32.686,32.686,0,0,0,.527,4.314,48.916,48.916,0,0,0,4.641,13.507c1.789,3.324,5.014,9,9.546,8.929a4.845,4.845,0,0,0,3.978-2.071,13.166,13.166,0,0,0,2.071-7.039A46.58,46.58,0,0,0,287.114,481.294Z" transform="translate(-199.846 -434.309)" fill="#263238"/>
              <path id="Trazado_219509" data-name="Trazado 219509" d="M245.409,523.939H209.576c-2.225-5.677-4.287-11.136-6.14-16.3q-2.085-5.79-3.733-11.154-.668-2.18-1.272-4.3-1.2-4.21-2.107-8.129l-.009-.009c-.391-1.653-.745-3.261-1.054-4.841-.3-1.481-.572-2.934-.808-4.351-.154-.945-.3-1.871-.427-2.789s-.245-1.817-.354-2.7c-1.481-12.571-.272-22.1,3.179-28.394a19.4,19.4,0,0,1,2.125-3.161l2.67,4.95,7.085,13.143,9.328,17.3,3.379,6.267.872,1.608,13.261,24.6,6.985,12.962Z" transform="translate(-193.047 -431.911)" opacity="0.1"/>
            </g>
          </g>
          <g id="Grupo_997116" data-name="Grupo 997116" transform="translate(167.344 250.224)">
            <path id="Trazado_219510" data-name="Trazado 219510" d="M242.79,522.4H184.677c0-9.637.009-18.966.018-27.767.009-1.717.009-3.415.009-5.1.009-3.17.018-6.267.027-9.274.054-21.818.154-39.012.2-47.523v-.009c.027-3.77.045-5.84.045-5.84l-.527-1.98-1.035-3.879a66.836,66.836,0,0,1,21.872,10.246q1.826,1.281,3.67,2.779a61.315,61.315,0,0,1,8.638,8.556c.272.327.536.645.8.981.463.59.917,1.19,1.362,1.808.509.681,1,1.381,1.471,2.107v.009a58.856,58.856,0,0,1,5.786,11.072c3.806,9.637,8.992,31.736,14.66,58.513Q242.218,519.721,242.79,522.4Z" transform="translate(-183.414 -421.033)" fill="#ff9fa3"/>
          </g>
          <g id="Grupo_997137" data-name="Grupo 997137">
            <g id="Grupo_997120" data-name="Grupo 997120" transform="translate(24.213 252.275)">
              <g id="Grupo_997119" data-name="Grupo 997119" transform="translate(11.908)">
                <g id="Grupo_997118" data-name="Grupo 997118">
                  <g id="Grupo_997117" data-name="Grupo 997117">
                    <path id="Trazado_219511" data-name="Trazado 219511" d="M224.8,522.608H38.944c22.372-37.014,43.635-68.423,54.962-79.831a45.871,45.871,0,0,1,4.832-4.242,59.545,59.545,0,0,1,11.209-6.8,78.437,78.437,0,0,1,12.171-4.542c2.289-.663,4.623-1.226,6.985-1.717a112.307,112.307,0,0,1,33.689-1.58h.009c2.87.3,5.677.708,8.4,1.226a74.233,74.233,0,0,1,20.174,6.612,44.138,44.138,0,0,1,4.333,2.534,29.906,29.906,0,0,1,7.757,7.212c.291.409.59.854.881,1.344.191.318.381.645.572.99q.463.845.926,1.8,1.1,2.289,2.225,5.232v.009c4.433,11.681,8.983,30.792,13.37,53.5C222.568,510.218,223.694,516.322,224.8,522.608Z" transform="translate(-38.944 -423.292)" fill="#ebebeb"/>
                  </g>
                </g>
                <path id="Trazado_219512" data-name="Trazado 219512" d="M123.387,446.559a211.176,211.176,0,0,0,20.6,23.507c7.4,7.175,15.539,13.626,24.608,17.965,8.954,4.4,19.189,6.359,28.86,4.144,9.634-2.121,17.852-9.644,21.789-19.406-1.9,10.309-9.792,20.153-20.688,23.295-10.7,3.383-22.43,1.364-32.2-3.366a82.734,82.734,0,0,1-25.272-19.844A116.348,116.348,0,0,1,123.387,446.559Z" transform="translate(-46.687 -425.425)" fill="#c7c7c7"/>
              </g>
              <path id="Trazado_219513" data-name="Trazado 219513" d="M124.086,522.631H25.834c18.866-36.514,35.115-66.806,41.437-74.645a.009.009,0,0,0,.009-.009,13.43,13.43,0,0,1,1.026-1.172c7.6-7.548,18.584-12.943,28.53-16.622a150.063,150.063,0,0,1,23.943-6.64s.045,1.281.136,3.67c.173,4.841.518,14.206.936,26.541q.068,1.88.136,3.842C122.6,475.308,123.359,498.324,124.086,522.631Z" transform="translate(-25.834 -423.315)" fill="#fc5f65"/>
              <path id="Trazado_219514" data-name="Trazado 219514" d="M122.147,476.324v-.009c-.064-.154-.136-.3-.209-.445-.091-.182-.191-.354-.291-.518,0-.009-.009-.009-.018-.018a5.822,5.822,0,0,0-.354-.472v-.009a2.548,2.548,0,0,0-.263-.282c-.136-.136-.272-.254-.409-.372h-.009a4.513,4.513,0,0,0-.427-.3,2.444,2.444,0,0,0-.3-.164,3.841,3.841,0,0,0-.936-.336c-.055-.018-.118-.027-.173-.045h-.009a6.392,6.392,0,0,0-2.988.236,20.771,20.771,0,0,0-6.013,3.261,49.054,49.054,0,0,0-6.358,5.6c-.672.7-1.326,1.426-1.962,2.171-.427.5-.836,1.008-1.244,1.526s-.8,1.035-1.19,1.571a39.043,39.043,0,0,0-6.585,14.006c-.245.563-.481,1.117-.69,1.68q-.15.368-.272.736c-.073.209-.145.418-.209.627-.091.263-.163.527-.236.781-.9,3.161-.936,6.022.618,7.848a3.98,3.98,0,0,0,.272.291,5.028,5.028,0,0,0,.618.518h.009a6.235,6.235,0,0,0,2.089.936,1.685,1.685,0,0,0,.309.055,1.732,1.732,0,0,0,.3.055,6.366,6.366,0,0,0,2.734-.327c.254-.082.518-.182.781-.291l.009-.009a8.511,8.511,0,0,0,.926-.436c.291-.145.581-.309.863-.481.254-.154.5-.309.754-.481a30.45,30.45,0,0,0,3.079-2.407c.136-.118.263-.236.391-.354.118-.1.227-.2.345-.318.245-.218.481-.436.718-.663.109-.1.218-.2.327-.309.391-.363.754-.727,1.1-1.054.291-.291.563-.554.808-.79.472-.454.945-.926,1.408-1.408.354-.363.7-.727,1.045-1.108.4-.427.79-.872,1.181-1.317s.772-.9,1.144-1.353v-.009a47.9,47.9,0,0,0,7.148-11.754C121.393,486.952,123.809,480.4,122.147,476.324Z" transform="translate(-31.752 -427.874)" fill="#263238"/>
            </g>
            <g id="Grupo_997124" data-name="Grupo 997124" transform="translate(0 259.456)">
              <g id="Grupo_997123" data-name="Grupo 997123">
                <g id="Grupo_997121" data-name="Grupo 997121" transform="translate(2.277 3.553)">
                  <path id="Trazado_219515" data-name="Trazado 219515" d="M110.8,469.892v.009c-2.425,10.436-8.084,22.953-17.094,36.523-1.017,1.535-2.053,3.1-3.1,4.705l-.009.009c-2.589,3.978-5.277,8.175-8.029,12.553H1.684c25.7-25.551,65.782-87.007,96.727-88.561C112.683,434.413,114.95,451.989,110.8,469.892Z" transform="translate(-1.684 -435.109)" fill="#ad6359"/>
                </g>
                <g id="Grupo_997122" data-name="Grupo 997122">
                  <path id="Trazado_219516" data-name="Trazado 219516" d="M116.673,453.756a74.094,74.094,0,0,1-2.888,18.7v.009q-.572,2.125-1.263,4.342c-.182.572-.363,1.154-.554,1.735-.291.881-.59,1.78-.908,2.7-.236.663-.472,1.335-.718,2.007-.209.581-.427,1.181-.654,1.771s-.445,1.2-.681,1.808c-.917,2.425-1.9,4.941-2.943,7.521-.254.645-.518,1.3-.79,1.953s-.536,1.317-.808,1.98v.009c-3.225,7.821-6.921,16.25-10.945,25.042H-.823c.163-.164,28.411-37.243,50.619-60.873,20.438-21.748,44.1-35.642,56.5-30,6.249,2.84,9.819,9.2,10.318,18.611v.009C116.664,451.939,116.692,452.829,116.673,453.756Z" transform="translate(0.823 -431.198)" fill="#fc5f65"/>
                  <path id="Trazado_219517" data-name="Trazado 219517" d="M121.938,475.87c-.091-.182-.191-.354-.291-.518,0-.009-.009-.009-.018-.018a5.822,5.822,0,0,0-.354-.472v-.009a2.548,2.548,0,0,0-.263-.282,3.154,3.154,0,0,0-.409-.372h-.009a4.513,4.513,0,0,0-.427-.3,2.444,2.444,0,0,0-.3-.164,3.841,3.841,0,0,0-.936-.336v-.009a1.468,1.468,0,0,0-.173-.036h-.009a6.392,6.392,0,0,0-2.988.236,20.771,20.771,0,0,0-6.013,3.261,49.054,49.054,0,0,0-6.358,5.6c-.672.7-1.326,1.426-1.962,2.171-.427.5-.836,1.008-1.244,1.526s-.8,1.035-1.19,1.571a39.043,39.043,0,0,0-6.585,14.006c-.245.563-.481,1.117-.69,1.68q-.15.368-.272.736c-.073.209-.145.418-.209.627-.091.263-.163.527-.236.781-.9,3.161-.936,6.022.618,7.848a3.98,3.98,0,0,0,.272.291,5.028,5.028,0,0,0,.618.518h.009a6.379,6.379,0,0,0,2.1.926c.1.018.2.045.3.064a1.732,1.732,0,0,0,.3.055,6.366,6.366,0,0,0,2.734-.327c.254-.082.518-.182.781-.291l.009-.009a8.511,8.511,0,0,0,.926-.436c.291-.145.581-.309.863-.481.254-.154.5-.309.754-.481a30.45,30.45,0,0,0,3.079-2.407c.136-.118.263-.236.391-.354.118-.1.227-.2.345-.318.245-.218.481-.436.718-.663.109-.1.218-.2.327-.309.391-.363.754-.727,1.1-1.054.291-.291.563-.554.808-.79.472-.454.945-.926,1.408-1.408.354-.363.7-.727,1.045-1.108.4-.427.79-.872,1.181-1.317s.772-.9,1.144-1.353v-.009c.272-.663.545-1.326.808-1.98s.536-1.308.79-1.953c1.045-2.58,2.026-5.1,2.943-7.521.236-.609.463-1.208.681-1.808s.445-1.19.654-1.771c.245-.672.481-1.344.718-2.007.318-.917.618-1.817.908-2.7.191-.581.372-1.163.554-1.735q.695-2.221,1.263-4.342v-.009C122.083,476.161,122.011,476.016,121.938,475.87Z" transform="translate(-7.539 -435.055)" fill="#263238"/>
                  <path id="Trazado_219518" data-name="Trazado 219518" d="M106.009,530.514c-.327.627-.654,1.263-.99,1.889h-.845c.445-.718.9-1.426,1.353-2.144A.272.272,0,0,1,106.009,530.514Z" transform="translate(-8.804 -440.268)" fill="#263238"/>
                </g>
              </g>
            </g>
            <g id="Grupo_997136" data-name="Grupo 997136" transform="translate(38.188)">
              <path id="Trazado_219519" data-name="Trazado 219519" d="M284.306,285c-.082-.036-.163.082-.091.127,8.711,5.868,13.924,16.549,9.882,26.977-3.461,8.911-11.027,12.825-19.411,13.752,7.2-3.533,13.416-9.265,15.9-16.985,2.725-8.475.218-18.13-6.649-23.552,6.64-7.757,11.063-18.257,8.674-28.3-2-8.456-8.838-15.4-17.53-16.64,4.978-8.792,4.587-20.219-1.771-28.04-5.949-7.348-15.968-10.355-25.251-8.329a20.4,20.4,0,0,0-19-29.2,13.708,13.708,0,0,0-4.9-14.251c-4.878-3.978-11.526-4.442-17.73-3.77a16.311,16.311,0,0,0-11.7-10.872,15.8,15.8,0,0,0-17.757,9.4c-8.711-4.941-18.884-9.074-29.157-6.84-8.456,1.844-16.313,8.111-17.957,16.722a31.23,31.23,0,0,0-41.3,20.128c-7.53-.763-14.987,2.907-19.583,9.029-4.632,6.177-5.968,11.39-6.367,13.915a16.522,16.522,0,0,0-15.559,10.718c-2.389,6.295-.863,12.335,2.144,17.785a12.151,12.151,0,0,1-1.562,5.159C43.086,250.3,42.731,259.7,47,268c-8.247,7.7-7.557,21.709,1.353,28.176-5.677,9.937-1.68,23.3,8.384,28.312a30.479,30.479,0,0,0,.282,25.642c3.007,6.122,9.065,11.6,16.186,10.927-1.744,5.168,2.434,10.391,7.366,12.226a26.7,26.7,0,0,0,5.84,1.326c2.353.309,5.468.073,7.575,1.208,2.207,1.154,3.152,3.86,4.551,5.75a23.792,23.792,0,0,0,3.452,3.706c7.775,6.7,19.283,8.184,28.8,4.314a26.277,26.277,0,0,0,6.585-3.806c4.869,6.485,13.416,7.757,21.3,6.458.936-.154,1.862-.345,2.77-.563a49.119,49.119,0,0,0,8.084-2.934,24.988,24.988,0,0,1,2.734-1.045,10.034,10.034,0,0,1,4.651-.372c1.653.272,3.215.908,4.869,1.19,5.613.945,10.437-1.744,14.887-4.9a24.02,24.02,0,0,0,13.488,8.62h.009c14.406,3.188,30.6-8,33.671-24.506a28.09,28.09,0,0,0,24.206-9.574l.009-.009a25.1,25.1,0,0,0,1.753-2.353,26.461,26.461,0,0,0,1.444-26.078V329.7c.009-.009.009-.009,0-.018.009-.009.009-.009,0-.018-.263-.545-.545-1.081-.854-1.608.273.009.554.018.836.009,10.446.136,20.664-4.569,24.652-15.26C300.119,301.455,294.5,290.337,284.306,285ZM62.424,209.9s-2.135,1-3.116,1.6a22.593,22.593,0,0,0-10.237,15.687,22.691,22.691,0,0,0,.009,5.713c.027.254.027.463.045.708a20.032,20.032,0,0,1-.99-11.063c1.571-7.239,7.139-12.171,14.36-13.516C62.442,209.552,62.424,209.9,62.424,209.9Zm132.014-62.61c5.468,1.3,8.438,5.141,9.982,9.746-.036,0-.073.009-.109.009a17.352,17.352,0,0,0-7.857-5.768,16.648,16.648,0,0,0-18.166,4.769c-.154-.091-.318-.173-.472-.263C181.567,149.858,186.617,145.435,194.438,147.288Zm16.086,243.191h-.009a27.459,27.459,0,0,1-12.934-7.512c.064-.045.136-.091.2-.136a28.78,28.78,0,0,0,13.289,5.087v.009a30.4,30.4,0,0,0,27.322-11.5C231.6,386.509,221.3,392.94,210.524,390.479Z" transform="translate(-41.22 -145.551)" fill="#263238"/>
              <g id="Grupo_997126" data-name="Grupo 997126" transform="translate(86.043 192.359)">
                <g id="Grupo_997125" data-name="Grupo 997125">
                  <path id="Trazado_219520" data-name="Trazado 219520" d="M198.952,476.388c-19.41,3.455-51.3-15.222-62.96-39.673-.789-1.68,9.606-66.358,10.337-79.388l80.613,24.432s-9.563,26.864-10.7,49.589a29.42,29.42,0,0,0,.263,5.379c.014.247.069.549.069.892C217.663,447.869,217.71,473.034,198.952,476.388Z" transform="translate(-135.949 -357.327)" fill="#ad6359"/>
                </g>
                <path id="Trazado_219521" data-name="Trazado 219521" d="M218.091,436.907c0,.229.063.514.066.857a51.872,51.872,0,0,1-8.411.025c-47.237-3.713-55.132-62.222-56.38-78.63l20.141,6.1,55.03,16.682s-9.577,26.869-10.671,49.594A27.811,27.811,0,0,0,218.091,436.907Z" transform="translate(-137.546 -357.495)" fill="#263238"/>
              </g>
              <g id="Grupo_997135" data-name="Grupo 997135" transform="translate(31.943 18.835)">
                <g id="Grupo_997127" data-name="Grupo 997127" transform="translate(49.827 30.939)">
                  <path id="Trazado_219522" data-name="Trazado 219522" d="M132.592,253.215c-7,30.184,14.464,114.528,36.8,132.133,32.377,25.519,82.47,24.741,103.418-13.512,20.305-37.079-9.611-146.5-34.284-162.2C202.179,186.515,142.93,208.627,132.592,253.215Z" transform="translate(-131.245 -200.35)" fill="#ad6359"/>
                </g>
                <g id="Grupo_997132" data-name="Grupo 997132" transform="translate(114.928 89.017)">
                  <g id="Grupo_997128" data-name="Grupo 997128" transform="translate(7.66 34.921)">
                    <path id="Trazado_219523" data-name="Trazado 219523" d="M224.256,307.952c-.1-.2-.379.382-.312.613,1.6,5.642,2.478,12.375-2.2,15.546-.144.1-.056.38.127.305C227.933,321.967,226.675,313.043,224.256,307.952Z" transform="translate(-212.297 -303.21)" fill="#263238"/>
                    <path id="Trazado_219524" data-name="Trazado 219524" d="M216.749,302.8c-9.322,1.586-5.464,20.112,3.173,18.644C228.421,320,224.563,301.474,216.749,302.8Z" transform="translate(-211.35 -302.736)" fill="#263238"/>
                  </g>
                  <g id="Grupo_997129" data-name="Grupo 997129" transform="translate(53.992 25.247)">
                    <path id="Trazado_219525" data-name="Trazado 219525" d="M262.362,300.134c0-.229.507.177.547.412,1.015,5.777,3.145,12.222,8.733,13.049.173.025.218.317.02.33C265.141,314.352,262.4,305.767,262.362,300.134Z" transform="translate(-262.359 -292.817)" fill="#263238"/>
                    <path id="Trazado_219526" data-name="Trazado 219526" d="M266.239,292.341c9.084-2.623,13.661,15.739,5.245,18.168C263.2,312.9,258.624,294.538,266.239,292.341Z" transform="translate(-262.359 -292.085)" fill="#263238"/>
                  </g>
                  <path id="Trazado_219527" data-name="Trazado 219527" d="M205.652,288.334a73.856,73.856,0,0,1,7.494-2.056c2.884-.757,5.1-1.657,8.043-.639a4,4,0,0,1,2.231,4.347c-.9,3.683-4.2,5.488-7.636,6.541a14.578,14.578,0,0,1-10.5-.4C201.793,294.712,202.372,289.568,205.652,288.334Z" transform="translate(-202.917 -266.206)" fill="#263238"/>
                  <path id="Trazado_219528" data-name="Trazado 219528" d="M270.147,275.329a72.969,72.969,0,0,1-7.755-.476c-2.975-.215-5.364-.08-7.817-1.994a4,4,0,0,1-.707-4.835c2.04-3.195,5.748-3.834,9.338-3.722a14.583,14.583,0,0,1,9.807,3.764C275.861,270.538,273.651,275.22,270.147,275.329Z" transform="translate(-207.542 -264.29)" fill="#263238"/>
                  <path id="Trazado_219529" data-name="Trazado 219529" d="M243.611,368.279c1.268,1.5,2.485,3.512,4.586,3.891,2.014.362,4.483-.329,6.412-.875a.205.205,0,0,1,.224.323,7.892,7.892,0,0,1-7.707,2.467c-2.6-.712-3.69-3.119-4.1-5.6C242.968,368.143,243.426,368.061,243.611,368.279Z" transform="translate(-206.594 -273.814)" fill="#263238"/>
                  <g id="Grupo_997131" data-name="Grupo 997131" transform="translate(27.519 9.857)">
                    <g id="Grupo_997130" data-name="Grupo 997130">
                      <path id="Trazado_219530" data-name="Trazado 219530" d="M233.395,340.859a19.547,19.547,0,0,0,14.363,6.292,24.585,24.585,0,0,0,6.98-.909,7.076,7.076,0,0,0,1.3-.385c.4-.124.768-.237,1.2-.41a1.43,1.43,0,0,0,.911-1.466l-.009-.042a2.672,2.672,0,0,0-.156-.569l-.006-.043-.1-.494c-.651-4.373-2.246-10.918-2.246-10.918,1.732.516,10.486,2.728,9.956.476-4.455-18.625-9.409-39.339-17.776-56.93a.532.532,0,0,0-1.007.326c3.573,18.07,10.3,35.391,14.18,53.484-2.763-.525-7.3-1.6-9.575-1.151-.586.289,3.305,12.595,3.441,14.582a.707.707,0,0,1,0,.214c-7.147,2.227-13.05.994-21.018-2.66C233.356,340.01,232.975,340.47,233.395,340.859Z" transform="translate(-233.214 -275.142)" fill="#263238"/>
                    </g>
                  </g>
                </g>
                <path id="Trazado_219531" data-name="Trazado 219531" d="M263.793,241.572c-3.615-7.2-7.366-8.338-7.366-8.338s-1.117-8.929-10.655-19.292c-9.982-10.845-19.329-11.227-19.329-11.227s-5.259-4.56-15.886-7.067a59.8,59.8,0,0,0-10.809-1.535c-4.106-.218-16.277,1.19-19.838,3.188-4.1,2.316-8.992.636-13.5,1.144a30.026,30.026,0,0,0-11.9,3.942,32.4,32.4,0,0,0-8.2,6.749,50.249,50.249,0,0,0-3.742,5.159c-1.98,2.97-4.078,4.187-7.121,5.523a25.925,25.925,0,0,0-13.961,16.041,33.289,33.289,0,0,0-1.3,13.6c.527,5.722-5.1,9.183-6.685,14.379a19.468,19.468,0,0,0-.727,3.406,21.647,21.647,0,0,0,7.8,19.411c-6.749,6.322-7.957,18.611-2.743,27.467a18.82,18.82,0,0,0,4.069,4.841c.163.136.327.272.49.4a19.88,19.88,0,0,0,3,1.944,30.547,30.547,0,0,0,10.119,3.007,17.5,17.5,0,0,0,3.769.1c.4.009.79.009,1.181-.009a16.631,16.631,0,0,0,2.434-.263,16.987,16.987,0,0,0,3.261-.954,19.9,19.9,0,0,0,7.7-5.6,22.409,22.409,0,0,0,3.479-5.486,22.786,22.786,0,0,0-.109-18.866v-.127s15.922,3.882,22.807-7.817c4.215-7.167,4.7-16.3,3.624-25.015,18.13,8.356,39.993-5.1,40.147-27.013,5.459,4.614,17.326,10.169,23.394,7.363,5.141,18.5,14.993,18.13,18.753,17.885a1.234,1.234,0,0,0,.263-.027C266.69,258.412,267.953,249.838,263.793,241.572ZM156.493,308.9a22.064,22.064,0,0,1-4.687,7.721,9.089,9.089,0,0,1-.645.681c.191-.254.372-.509.545-.772a22.232,22.232,0,0,0,2.225-4.133,26.249,26.249,0,0,0,1.181-3.5,53.831,53.831,0,0,0,1.362-14.506A21.692,21.692,0,0,1,156.493,308.9Zm46.05-49.962c9.265-3.951,16.495-12.825,19.02-24.633C220.246,247.864,212.58,255.775,202.543,258.936Z" transform="translate(-79.709 -168.836)" fill="#263238"/>
                <path id="Trazado_219532" data-name="Trazado 219532" d="M122.912,286.343c12.052,10.426,31.438,9.863,46.336.654,9.772-6.039,14.848-19.7,24.083-31.479,15.206-19.4,51.167-23.943,41.533-53.985-8.564-26.709-53.114-29.876-91.5-7.355C109.449,214.073,95.833,262.918,122.912,286.343Z" transform="translate(-79.335 -167.469)" fill="#fff"/>
                <g id="Grupo_997133" data-name="Grupo 997133" transform="translate(36.554 103.109)">
                  <path id="Trazado_219533" data-name="Trazado 219533" d="M240.912,314.125a21.534,21.534,0,0,0-.7-2.171v-.009c-.2-.527-.409-1.054-.645-1.562a26.667,26.667,0,0,0-33.653-14.07c-.609.227-1.2.472-1.78.745a26.7,26.7,0,0,0-15.023,18.993,27,27,0,0,0-.472,3.542,26.675,26.675,0,0,0,35.942,26.659,25.934,25.934,0,0,0,5.5-2.825c.363-.236.718-.49,1.072-.754A26.71,26.71,0,0,0,240.912,314.125Zm-17.585,28.784A23.092,23.092,0,1,1,236.879,313.2,23.116,23.116,0,0,1,223.327,342.909Z" transform="translate(-123.229 -281.164)" fill="#ffc727"/>
                  <path id="Trazado_219534" data-name="Trazado 219534" d="M299.308,301.748a31.768,31.768,0,0,0-9.646-16.9,20.621,20.621,0,0,0-7.775-4.4,15.517,15.517,0,0,0-7.866-.254c-5.277,1.208-9.565,5.114-12.062,10.991a28.853,28.853,0,0,0-2.2,9.982v.009a32.964,32.964,0,0,0,.018,3.542,35.3,35.3,0,0,0,.49,4.087c.1.6.227,1.208.363,1.808a34.1,34.1,0,0,0,4.705,11.145c4.741,7.185,11.844,11.454,18.866,10.691a16.291,16.291,0,0,0,1.726-.291,15.056,15.056,0,0,0,4.823-2.053C298.3,325.246,302.06,313.738,299.308,301.748ZM290.4,325.954a12.082,12.082,0,0,1-5.268,2.734c-8.783,2.016-18.184-6.467-21.027-18.875a33.538,33.538,0,0,1-.7-4.469v-.009c-.045-.454-.073-.917-.091-1.372v-.009c-.036-.763-.036-1.517-.009-2.271v-.009a25.431,25.431,0,0,1,1.926-9.092c.191-.454.4-.89.627-1.317,2.08-4.06,5.223-6.74,8.965-7.594a13.044,13.044,0,0,1,1.326-.227A12.894,12.894,0,0,1,283,284.681a18.24,18.24,0,0,1,4.314,2.843,28.281,28.281,0,0,1,8.52,15.023C298.036,312.157,295.657,321.367,290.4,325.954Z" transform="translate(-129.752 -279.805)" fill="#ffc727"/>
                  <path id="Trazado_219535" data-name="Trazado 219535" d="M244.936,316.264l-2.843-2.151c3.183-4.211,11.276-10.749,19.174-5.412l-1.995,2.951C252.2,306.861,245.231,315.882,244.936,316.264Z" transform="translate(-128.135 -282.27)" fill="#ffc727"/>
                  <path id="Trazado_219536" data-name="Trazado 219536" d="M119.88,336.435l-3.248-1.467c.688-1.514,6.917-14.842,14.8-16.55,7.366-1.575,49.993-.312,52.03-.224l-.151,3.559c-13.742-.577-45.436-1.085-51.122.15C126.981,323.028,121.541,332.774,119.88,336.435Z" transform="translate(-116.632 -283.273)" fill="#ffc727"/>
                </g>
                <g id="Grupo_997134" data-name="Grupo 997134" transform="translate(39.314 132.593)">
                  <path id="Trazado_219537" data-name="Trazado 219537" d="M157.164,331.677s-21.73-25.869-33.633-17.882,6.142,46.676,21.318,50.841,19.306-9.807,19.306-9.807Z" transform="translate(-119.671 -312.265)" fill="#ad6359"/>
                  <path id="Trazado_219538" data-name="Trazado 219538" d="M129.9,326.018a.2.2,0,0,0-.043.4c10.671,3.259,16.94,12.33,21.616,21.895-3.4-3.54-7.758-5.257-12.541-1.16-.252.217.044.614.328.526,4.14-1.277,7.248-.815,10.4,2.311,2.231,2.214,3.878,5.117,5.569,7.752.563.878,2.183.239,1.738-.792-.032-.074-.071-.153-.105-.229C155.957,343.563,144.119,326.09,129.9,326.018Z" transform="translate(-120.591 -313.526)" fill="#263238"/>
                </g>
                <path id="Trazado_219539" data-name="Trazado 219539" d="M190.97,192.114v8.874a1.7,1.7,0,0,1-1.7,1.7h0a1.738,1.738,0,0,1-1.34-.658,3.538,3.538,0,1,0,0,4.483,1.74,1.74,0,0,1,1.34-.657h0a1.7,1.7,0,0,1,1.7,1.7v8.875H182.1a1.7,1.7,0,0,0-1.7,1.7h0a1.738,1.738,0,0,0,.658,1.339,3.537,3.537,0,1,1-4.483,0,1.737,1.737,0,0,0,.657-1.339h0a1.7,1.7,0,0,0-1.7-1.7h-8.874v-8.875a1.7,1.7,0,0,1,1.7-1.7h0a1.737,1.737,0,0,1,1.339.657,3.537,3.537,0,1,0,0-4.483,1.735,1.735,0,0,1-1.339.658h0a1.7,1.7,0,0,1-1.7-1.7v-8.874h8.874a1.7,1.7,0,0,0,1.7-1.7h0a1.739,1.739,0,0,0-.658-1.34,3.537,3.537,0,1,1,4.483,0,1.739,1.739,0,0,0-.658,1.34h0a1.7,1.7,0,0,0,1.7,1.7Z" transform="translate(-84.665 -167.801)" fill="#263238"/>
                <path id="Trazado_219540" data-name="Trazado 219540" d="M190.03,190.6h-8.874a1.7,1.7,0,0,1-1.7-1.7h0a1.739,1.739,0,0,1,.658-1.339,3.537,3.537,0,1,0-4.483,0,1.739,1.739,0,0,1,.658,1.339h0a1.7,1.7,0,0,1-1.7,1.7h-8.874v-8.875a1.7,1.7,0,0,0-1.7-1.7h0a1.738,1.738,0,0,0-1.339.657,3.537,3.537,0,1,1,0-4.483,1.736,1.736,0,0,0,1.339.658h0a1.7,1.7,0,0,0,1.7-1.7v-8.875h8.874a1.7,1.7,0,0,1,1.7,1.7h0a1.739,1.739,0,0,1-.658,1.339,3.537,3.537,0,1,0,4.483,0,1.739,1.739,0,0,1-.658-1.339h0a1.7,1.7,0,0,1,1.7-1.7h8.874v8.875a1.7,1.7,0,0,0,1.7,1.7h0a1.736,1.736,0,0,0,1.339-.658,3.538,3.538,0,1,1,0,4.483,1.738,1.738,0,0,0-1.339-.657h0a1.7,1.7,0,0,0-1.7,1.7Z" transform="translate(-83.725 -166.287)" fill="#fff"/>
                <path id="Trazado_219541" data-name="Trazado 219541" d="M85.7,240.248h8.874a1.7,1.7,0,0,1,1.7,1.7h0a1.738,1.738,0,0,1-.658,1.339,3.537,3.537,0,1,0,4.483,0,1.738,1.738,0,0,1-.658-1.339h0a1.7,1.7,0,0,1,1.7-1.7h8.874v8.874a1.7,1.7,0,0,0,1.7,1.7h0a1.739,1.739,0,0,0,1.339-.658,3.537,3.537,0,1,1,0,4.482,1.739,1.739,0,0,0-1.339-.658h0a1.7,1.7,0,0,0-1.7,1.7v8.874h-8.874a1.7,1.7,0,0,1-1.7-1.7h0a1.741,1.741,0,0,1,.658-1.34,3.537,3.537,0,1,0-4.483,0,1.741,1.741,0,0,1,.658,1.34h0a1.7,1.7,0,0,1-1.7,1.7H85.7v-8.874a1.7,1.7,0,0,0-1.7-1.7h0a1.739,1.739,0,0,0-1.339.658,3.537,3.537,0,1,1,0-4.482,1.739,1.739,0,0,0,1.339.658h0a1.7,1.7,0,0,0,1.7-1.7Z" transform="translate(-76.388 -173.068)" fill="#fff"/>
              </g>
            </g>
          </g>
        </g>
      </g>
      <g id="Lightbulb" transform="translate(89.754 178.435)">
        <g id="Grupo_997141" data-name="Grupo 997141">
          <path id="Trazado_219542" data-name="Trazado 219542" d="M153.117,196.835c9.01,16.8,1.022,26.61,2.238,31.918a87.965,87.965,0,0,0,3.46,9.391l-16.229,11.312a85.04,85.04,0,0,0-7.613-6.5c-4.549-2.985-16.528,1.123-29.161-13.151C97.5,220.434,93.943,198.97,111.116,187S147.186,185.8,153.117,196.835Z" transform="translate(-98.897 -181.754)" fill="#ffc727"/>
          <g id="Grupo_997139" data-name="Grupo 997139" transform="translate(25.519 31.013)">
            <rect id="Rectángulo_339842" data-name="Rectángulo 339842" width="0.65" height="32.011" transform="translate(0 12.642) rotate(-45.444)" fill="#fff"/>
            <rect id="Rectángulo_339843" data-name="Rectángulo 339843" width="0.65" height="32.011" transform="translate(17.547 0.267) rotate(-24.29)" fill="#fff"/>
            <path id="Trazado_219543" data-name="Trazado 219543" d="M142.08,230.839c-1.719,1.2-4.277.263-5.65-.4-.1-.047-.2-.1-.292-.145a2.374,2.374,0,0,1-.837,1.8c-2.372,1.653-6.786-2.629-6.972-2.812l.227-.232c.044.043,4.407,4.277,6.56,2.778h0a2.16,2.16,0,0,0,.711-1.7,13.566,13.566,0,0,1-4.421-3.738c-.96-1.378-1-2.477-.112-3.1h0a1.7,1.7,0,0,1,1.779-.164c1.588.745,2.866,3.712,3.062,6.016a7.082,7.082,0,0,1,.025.8c2.105,1.105,4.357,1.59,5.734.63,1.035-.721,1.508-2.25,1.332-4.3q-.025-.287-.064-.579a8.017,8.017,0,0,1-4.519-3.284c-1.225-1.758-1.337-3.3-.291-4.031a1.313,1.313,0,0,1,1.372-.076c1.579.739,3.247,4,3.728,7.129a2.963,2.963,0,0,0,2.228-.47h0c1.848-1.287-.194-7.177-.215-7.236l.306-.108c.089.253,2.143,6.183.094,7.611a3.274,3.274,0,0,1-2.369.523c.021.165.038.331.053.494.131,1.539-.017,3.585-1.471,4.6Zm-3.542-12.2c-1.054.735-.5,2.331.372,3.579a8.1,8.1,0,0,0,4.2,3.139c-.489-2.96-2.076-6.087-3.525-6.766A.981.981,0,0,0,138.537,218.64Zm-7.058,4.919h0c-.966.674-.293,1.947.193,2.645a13.018,13.018,0,0,0,4.166,3.563q0-.282-.026-.594c-.185-2.169-1.412-5.063-2.877-5.751A1.379,1.379,0,0,0,131.48,223.56Z" transform="translate(-127.114 -216.055)" fill="#fff"/>
          </g>
          <g id="Grupo_997140" data-name="Grupo 997140" transform="translate(41.311 54.369)">
            <rect id="Rectángulo_339844" data-name="Rectángulo 339844" width="24.408" height="4.77" transform="matrix(0.82, -0.572, 0.572, 0.82, 0, 13.957)" fill="#dbdbdb"/>
            <rect id="Rectángulo_339845" data-name="Rectángulo 339845" width="24.408" height="4.77" transform="translate(3.169 18.504) rotate(-34.878)" fill="#dbdbdb"/>
            <rect id="Rectángulo_339846" data-name="Rectángulo 339846" width="24.408" height="4.77" transform="matrix(0.82, -0.572, 0.572, 0.82, 6.338, 23.05)" fill="#dbdbdb"/>
          </g>
          <path id="Trazado_219544" data-name="Trazado 219544" d="M106.654,223.386c-5.21-8.182-5.65-20.847,2.258-27.49-5.417,8.235-4.714,18.353-2.258,27.49Z" transform="translate(-99.258 -183.051)" fill="#fff"/>
        </g>
      </g>
      <g id="Gears" transform="translate(102.955 182.905)">
        <g id="Grupo_997161" data-name="Grupo 997161">
          <g id="Grupo_997144" data-name="Grupo 997144" transform="translate(58.882 37.584)">
            <path id="Trazado_219545" data-name="Trazado 219545" d="M203.355,244.851a11.643,11.643,0,0,0,.2-4.447l2.749-1.169-1.278-3.779-2.946.749a11.449,11.449,0,0,0-2.982-3.365l1.091-2.692-3.576-1.77-1.481,2.509a11.7,11.7,0,0,0-4.634-.327l-1.066-2.505-3.77,1.271.672,2.645a11.641,11.641,0,0,0-3.611,3.16l-2.372-.951-1.76,3.568,2.215,1.322a11.75,11.75,0,0,0-.242,4.876l-2.305.985,1.271,3.769,2.539-.645a11.467,11.467,0,0,0,3.278,3.561l-.972,2.393,3.576,1.77,1.4-2.358a11.69,11.69,0,0,0,4.694.139l1.079,2.541,3.779-1.27-.721-2.838a11.66,11.66,0,0,0,3.314-3.1l2.719,1.085,1.759-3.56Zm-12.226,5.285a8.14,8.14,0,1,1,9.209-6.908A8.14,8.14,0,0,1,191.13,250.136Z" transform="translate(-178.257 -228.054)" fill="#dbdbdb"/>
            <g id="Grupo_997143" data-name="Grupo 997143" transform="translate(8.867 8.325)">
              <g id="Grupo_997142" data-name="Grupo 997142">
                <path id="Trazado_219546" data-name="Trazado 219546" d="M198.836,247.986l-1.5,1.138-2.782-3.674-1.018-1.344a2.393,2.393,0,0,0,.583-.33,2.446,2.446,0,0,0,.772-1l1.081,1.425Z" transform="translate(-188.525 -237.729)" fill="#dbdbdb"/>
                <path id="Trazado_219547" data-name="Trazado 219547" d="M195.374,238.825a4.1,4.1,0,1,0,.09,4.867A4.1,4.1,0,0,0,195.374,238.825Zm-1.763,4.442a2.394,2.394,0,0,1-.583.33,2.445,2.445,0,1,1,.583-.33Z" transform="translate(-188.019 -237.22)" fill="#dbdbdb"/>
              </g>
            </g>
          </g>
          <g id="Grupo_997145" data-name="Grupo 997145" transform="translate(0 64.851)">
            <path id="Trazado_219548" data-name="Trazado 219548" d="M129.661,273.007a8.106,8.106,0,0,0,1.4-2.766l2.081.046.273-2.766-2.085-.37a7.993,7.993,0,0,0-.927-2.992l1.464-1.4-1.761-2.15-1.661,1.167a8.143,8.143,0,0,0-2.848-1.538l.042-1.9-2.758-.275-.332,1.871a8.132,8.132,0,0,0-3.2.97l-1.232-1.284-2.143,1.759,1.028,1.475a8.181,8.181,0,0,0-1.553,3.026l-1.746-.036-.275,2.758,1.8.319a7.977,7.977,0,0,0,1.059,3.2l-1.3,1.241,1.762,2.15,1.566-1.095a8.155,8.155,0,0,0,2.94,1.435l-.044,1.923,2.762.278.357-2.009a8.121,8.121,0,0,0,2.994-1.017l1.413,1.47,2.139-1.755Zm-9.277-.154a5.671,5.671,0,1,1,7.829-1.742A5.67,5.67,0,0,1,120.383,272.854Z" transform="translate(-113.431 -258.073)" fill="#dbdbdb"/>
          </g>
          <g id="Grupo_997146" data-name="Grupo 997146" transform="translate(44.826 74.875)">
            <path id="Trazado_219549" data-name="Trazado 219549" d="M175.555,286.52a8.125,8.125,0,0,0,2.626-1.65l1.76,1.111,1.658-2.231-1.6-1.39a7.975,7.975,0,0,0,.745-3.043l1.975-.443-.4-2.75-2.025.146a8.134,8.134,0,0,0-1.65-2.783l1.011-1.6-2.223-1.655-1.248,1.433a8.132,8.132,0,0,0-3.243-.815l-.4-1.736-2.742.407.122,1.793a8.173,8.173,0,0,0-2.888,1.8l-1.479-.93L163.9,274.4l1.376,1.2a8,8,0,0,0-.739,3.29l-1.756.393.4,2.75,1.906-.134a8.157,8.157,0,0,0,1.782,2.744l-1.027,1.626,2.226,1.66,1.34-1.539a8.141,8.141,0,0,0,3.09.669l.456,1.987,2.737-.4Zm-7.875-4.907a5.671,5.671,0,1,1,7.608,2.535A5.671,5.671,0,0,1,167.68,281.613Z" transform="translate(-162.782 -269.109)" fill="#ffc727"/>
          </g>
          <g id="Grupo_997151" data-name="Grupo 997151" transform="translate(15.611 76.892)">
            <g id="Grupo_997147" data-name="Grupo 997147">
              <path id="Trazado_219550" data-name="Trazado 219550" d="M156.351,284.732a11.633,11.633,0,0,0-1.253-4.272l2.222-2-2.432-3.162-2.544,1.663a11.445,11.445,0,0,0-3.911-2.218l.16-2.9-3.957-.517-.589,2.853a11.7,11.7,0,0,0-4.49,1.192l-1.821-2.024-3.155,2.423,1.492,2.284a11.666,11.666,0,0,0-2.393,4.16l-2.551-.132-.51,3.947,2.525.532a11.739,11.739,0,0,0,1.35,4.691l-1.862,1.679,2.423,3.155,2.193-1.432a11.478,11.478,0,0,0,4.255,2.307l-.144,2.579,3.957.517.561-2.685a11.691,11.691,0,0,0,4.487-1.388l1.843,2.054,3.164-2.425-1.6-2.452a11.648,11.648,0,0,0,2.131-4.007l2.924.147.511-3.938Zm-9.855,8.96a8.14,8.14,0,1,1,6.475-9.518A8.14,8.14,0,0,1,146.5,293.692Z" transform="translate(-130.618 -271.33)" fill="#37474f"/>
            </g>
            <g id="Grupo_997150" data-name="Grupo 997150" transform="translate(9.244 10.034)">
              <g id="Grupo_997148" data-name="Grupo 997148" transform="translate(4.352)" opacity="0.6">
                <path id="Trazado_219551" data-name="Trazado 219551" d="M150.35,284.076a1.7,1.7,0,1,1-1.7-1.7A1.7,1.7,0,0,1,150.35,284.076Z" transform="translate(-145.711 -282.377)" fill="#455a64"/>
                <path id="Trazado_219552" data-name="Trazado 219552" d="M151.462,289.106v.621h-5.876v-.621a2.938,2.938,0,0,1,5.876,0Z" transform="translate(-145.586 -282.725)" fill="#455a64"/>
              </g>
              <g id="Grupo_997149" data-name="Grupo 997149" transform="translate(0 1.024)">
                <path id="Trazado_219553" data-name="Trazado 219553" d="M145.559,285.2a1.7,1.7,0,1,1-1.7-1.7A1.7,1.7,0,0,1,145.559,285.2Z" transform="translate(-140.92 -283.504)" fill="#37474f"/>
                <path id="Trazado_219554" data-name="Trazado 219554" d="M146.671,290.233v.621h-5.876v-.621a2.938,2.938,0,0,1,5.876,0Z" transform="translate(-140.795 -283.852)" fill="#37474f"/>
              </g>
            </g>
          </g>
          <g id="Grupo_997160" data-name="Grupo 997160" transform="translate(75.669)">
            <g id="Grupo_997155" data-name="Grupo 997155">
              <g id="Grupo_997154" data-name="Grupo 997154">
                <g id="Grupo_997153" data-name="Grupo 997153">
                  <g id="Grupo_997152" data-name="Grupo 997152">
                    <path id="Trazado_219555" data-name="Trazado 219555" d="M241.6,213.9l.444-3.4-3.979-.925a18.794,18.794,0,0,0-.73-5.469l3.571-1.925-1.314-3.165-3.9,1.194a18.224,18.224,0,0,0-3.377-4.368l2.146-3.461-2.72-2.082-2.795,2.979a17.935,17.935,0,0,0-5.1-2.091l.12-4.072-3.4-.444-.926,3.979a18.5,18.5,0,0,0-5.469.74l-1.925-3.581-3.165,1.314,1.184,3.9a18.6,18.6,0,0,0-4.359,3.378l-3.461-2.138-2.091,2.72,2.988,2.777a17.955,17.955,0,0,0-2.091,5.107l-4.072-.111-.444,3.387,3.979.935a18.575,18.575,0,0,0,.74,5.469l-3.591,1.925,1.323,3.165,3.9-1.184a18.843,18.843,0,0,0,3.369,4.358l-2.128,3.452,2.72,2.091,2.776-2.979a18.2,18.2,0,0,0,5.117,2.091l-.121,4.063,3.387.444.935-3.97a18.854,18.854,0,0,0,5.469-.749l1.925,3.581,3.165-1.314-1.194-3.9a18.2,18.2,0,0,0,4.367-3.378l3.461,2.147,2.073-2.72-2.97-2.786a18.848,18.848,0,0,0,2.092-5.107Zm-22.208,7.477a12.048,12.048,0,1,1,12.048-12.048A12.049,12.049,0,0,1,219.391,221.377Z" transform="translate(-196.738 -186.676)" fill="#ffc727"/>
                  </g>
                </g>
              </g>
            </g>
            <g id="Grupo_997159" data-name="Grupo 997159" transform="translate(17.359 13.754)">
              <path id="Trazado_219556" data-name="Trazado 219556" d="M223.9,204.284a2.467,2.467,0,1,1-2.466-2.466A2.466,2.466,0,0,1,223.9,204.284Z" transform="translate(-216.134 -201.818)" fill="#ffc727"/>
              <g id="Grupo_997156" data-name="Grupo 997156" transform="translate(2.681 4.556)">
                <rect id="Rectángulo_339847" data-name="Rectángulo 339847" width="5.227" height="0.754" fill="#ffc727"/>
                <rect id="Rectángulo_339848" data-name="Rectángulo 339848" width="5.227" height="0.754" opacity="0.1"/>
              </g>
              <g id="Grupo_997157" data-name="Grupo 997157" transform="translate(0 14.932)">
                <rect id="Rectángulo_339849" data-name="Rectángulo 339849" width="10.589" height="0.754" fill="#ffc727"/>
                <rect id="Rectángulo_339850" data-name="Rectángulo 339850" width="10.589" height="0.754" opacity="0.1"/>
              </g>
              <g id="Grupo_997158" data-name="Grupo 997158" transform="translate(0 17.045)">
                <rect id="Rectángulo_339851" data-name="Rectángulo 339851" width="10.589" height="0.754" fill="#ffc727"/>
                <rect id="Rectángulo_339852" data-name="Rectángulo 339852" width="10.589" height="0.754" opacity="0.1"/>
              </g>
              <rect id="Rectángulo_339853" data-name="Rectángulo 339853" width="9.8" height="1.36" transform="translate(0.394 15.685)" fill="#ffc727"/>
              <rect id="Rectángulo_339854" data-name="Rectángulo 339854" width="4.265" height="0.754" transform="translate(3.162 5.309)" fill="#ffc727"/>
              <path id="Trazado_219557" data-name="Trazado 219557" d="M225.571,217.362h-8.663a9.462,9.462,0,0,0,2.39-4.342c.343-1.995.512-4.527.512-4.527h2.859s.169,2.532.516,4.527A9.436,9.436,0,0,0,225.571,217.362Z" transform="translate(-215.946 -202.43)" fill="#ffc727"/>
            </g>
          </g>
        </g>
      </g>
    </g>
  </g>
</svg>
