<svg xmlns="http://www.w3.org/2000/svg" xmlns:xlink="http://www.w3.org/1999/xlink" width="1030" height="493" viewBox="0 0 1030 493">
  <defs>
    <clipPath id="clip-path">
      <rect id="Rectángulo_339658" data-name="Rectángulo 339658" width="41" height="41" transform="translate(780 3157)" fill="#fff" stroke="#707070" stroke-width="1"/>
    </clipPath>
    <clipPath id="clip-path-2">
      <rect id="Rectángulo_339660" data-name="Rectángulo 339660" width="41" height="41" transform="translate(511 3635)" fill="#fff" stroke="#707070" stroke-width="1"/>
    </clipPath>
    <clipPath id="clip-path-3">
      <rect id="Rectángulo_339666" data-name="Rectángulo 339666" width="41" height="41" transform="translate(933 3635)" fill="#fff" stroke="#707070" stroke-width="1"/>
    </clipPath>
    <clipPath id="clip-path-4">
      <rect id="Rectángulo_339668" data-name="Rectángulo 339668" width="41" height="41" transform="translate(723 3704)" fill="#fff" stroke="#707070" stroke-width="1"/>
    </clipPath>
    <clipPath id="clip-path-5">
      <rect id="Rectángulo_339661" data-name="Rectángulo 339661" width="41" height="41" transform="translate(511 3355)" fill="#fff" stroke="#707070" stroke-width="1"/>
    </clipPath>
    <clipPath id="clip-path-6">
      <rect id="Rectángulo_339667" data-name="Rectángulo 339667" width="41" height="41" transform="translate(933 3355)" fill="#fff" stroke="#707070" stroke-width="1"/>
    </clipPath>
    <clipPath id="clip-path-7">
      <rect id="Rectángulo_339662" data-name="Rectángulo 339662" width="41" height="41" transform="translate(303 3424)" fill="#fff" stroke="#707070" stroke-width="1"/>
    </clipPath>
    <clipPath id="clip-path-8">
      <path id="path309" d="M0-41H41V0H0Z"/>
    </clipPath>
    <clipPath id="clip-path-9">
      <rect id="Rectángulo_339663" data-name="Rectángulo 339663" width="41" height="41" transform="translate(303 3566)" fill="#fff" stroke="#707070" stroke-width="1"/>
    </clipPath>
    <clipPath id="clip-path-10">
      <rect id="Rectángulo_339664" data-name="Rectángulo 339664" width="41" height="41" transform="translate(1143 3566)" fill="#fff" stroke="#707070" stroke-width="1"/>
    </clipPath>
    <clipPath id="clip-path-11">
      <rect id="Rectángulo_339665" data-name="Rectángulo 339665" width="41" height="41" transform="translate(1143 3424)" fill="#fff" stroke="#707070" stroke-width="1"/>
    </clipPath>
  </defs>
  <g id="Grupo_997190" data-name="Grupo 997190" transform="translate(-285 -3263)">
    <path id="Trazado_219667" data-name="Trazado 219667" d="M20,0H170a20,20,0,0,1,20,20V49a20,20,0,0,1-20,20H20A20,20,0,0,1,0,49V20A20,20,0,0,1,20,0Z" transform="translate(705 3263)" fill="#a6bbff"/>
    <path id="Trazado_219654" data-name="Trazado 219654" d="M20,0H170a20,20,0,0,1,20,20V49a20,20,0,0,1-20,20H20A20,20,0,0,1,0,49V20A20,20,0,0,1,20,0Z" transform="translate(705 3687)" fill="#a6bbff"/>
    <path id="Trazado_219659" data-name="Trazado 219659" d="M20,0H170a20,20,0,0,1,20,20V49a20,20,0,0,1-20,20H20A20,20,0,0,1,0,49V20A20,20,0,0,1,20,0Z" transform="translate(495 3338)" fill="#a6bbff"/>
    <path id="Trazado_219658" data-name="Trazado 219658" d="M20,0H170a20,20,0,0,1,20,20V49a20,20,0,0,1-20,20H20A20,20,0,0,1,0,49V20A20,20,0,0,1,20,0Z" transform="translate(495 3618)" fill="#a6bbff"/>
    <path id="Trazado_219656" data-name="Trazado 219656" d="M20,0H170a20,20,0,0,1,20,20V49a20,20,0,0,1-20,20H20A20,20,0,0,1,0,49V20A20,20,0,0,1,20,0Z" transform="translate(1125 3407)" fill="#a6bbff"/>
    <path id="Trazado_219651" data-name="Trazado 219651" d="M20,0H170a20,20,0,0,1,20,20V49a20,20,0,0,1-20,20H20A20,20,0,0,1,0,49V20A20,20,0,0,1,20,0Z" transform="translate(1125 3549)" fill="#a6bbff"/>
    <path id="Trazado_219664" data-name="Trazado 219664" d="M20,0H170a20,20,0,0,1,20,20V49a20,20,0,0,1-20,20H20A20,20,0,0,1,0,49V20A20,20,0,0,1,20,0Z" transform="translate(285 3407)" fill="#a6bbff"/>
    <path id="Trazado_219665" data-name="Trazado 219665" d="M20,0H170a20,20,0,0,1,20,20V49a20,20,0,0,1-20,20H20A20,20,0,0,1,0,49V20A20,20,0,0,1,20,0Z" transform="translate(285 3549)" fill="#a6bbff"/>
    <path id="Trazado_219660" data-name="Trazado 219660" d="M20,0H170a20,20,0,0,1,20,20V49a20,20,0,0,1-20,20H20A20,20,0,0,1,0,49V20A20,20,0,0,1,20,0Z" transform="translate(915 3338)" fill="#a6bbff"/>
    <path id="Trazado_219650" data-name="Trazado 219650" d="M20,0H170a20,20,0,0,1,20,20V49a20,20,0,0,1-20,20H20A20,20,0,0,1,0,49V20A20,20,0,0,1,20,0Z" transform="translate(915 3618)" fill="#a6bbff"/>
    <path id="Trazado_219668" data-name="Trazado 219668" d="M7.625-4.648H3.266L2.453,0H.164L2.141-11.375h7.2l-.336,1.9H4.1L3.586-6.539H7.961Zm5.688,4.8a4.008,4.008,0,0,1-2-.535A3.612,3.612,0,0,1,9.949-1.855,5.468,5.468,0,0,1,9.367-4.07,8.9,8.9,0,0,1,9.641-6.8,7.3,7.3,0,0,1,10.8-9.359a5.256,5.256,0,0,1,1.871-1.648,4.844,4.844,0,0,1,2.324-.523A3.966,3.966,0,0,1,17-10.988,3.587,3.587,0,0,1,18.352-9.5a5.532,5.532,0,0,1,.563,2.207,9.188,9.188,0,0,1-.3,2.828,7.177,7.177,0,0,1-1.164,2.516A5.216,5.216,0,0,1,15.605-.352,4.83,4.83,0,0,1,13.313.156ZM16.555-6l.063-.742a3.626,3.626,0,0,0-.371-2.109,1.567,1.567,0,0,0-1.363-.75,2.473,2.473,0,0,0-2.27,1.266,7.455,7.455,0,0,0-.949,3.672,3.762,3.762,0,0,0,.367,2.129,1.563,1.563,0,0,0,1.383.777,2.345,2.345,0,0,0,2.031-.957A5.79,5.79,0,0,0,16.5-5.578Zm7.859,1.836H22.555L21.828,0H19.539l1.977-11.375,3.766.008a4.289,4.289,0,0,1,2.91.891A2.817,2.817,0,0,1,29.094-8a3.574,3.574,0,0,1-2.5,3.258L28.2-.125V0H25.758Zm-1.531-1.9,1.7.016a2.386,2.386,0,0,0,1.5-.488,1.933,1.933,0,0,0,.707-1.285,1.473,1.473,0,0,0-.242-1.187,1.442,1.442,0,0,0-1.117-.461l-1.953-.008Z" transform="translate(783 3303)" fill="#12263f"/>
    <path id="Trazado_219661" data-name="Trazado 219661" d="M10.125-9.477H6.75L5.109,0H2.82L4.461-9.477H1.125l.336-1.9h9ZM18.844,0H16.555L17.4-4.875H12.984L12.133,0H9.844L11.82-11.375h2.289l-.8,4.609h4.422l.8-4.609h2.289Zm6.922-4.164H23.906L23.18,0H20.891l1.977-11.375,3.766.008a4.289,4.289,0,0,1,2.91.891A2.817,2.817,0,0,1,30.445-8a3.574,3.574,0,0,1-2.5,3.258l1.6,4.617V0H27.109Zm-1.531-1.9,1.7.016a2.386,2.386,0,0,0,1.5-.488,1.933,1.933,0,0,0,.707-1.285A1.473,1.473,0,0,0,27.9-9.008a1.442,1.442,0,0,0-1.117-.461l-1.953-.008ZM35.445.156a4.008,4.008,0,0,1-2-.535,3.612,3.612,0,0,1-1.367-1.477A5.468,5.468,0,0,1,31.5-4.07,8.9,8.9,0,0,1,31.773-6.8,7.3,7.3,0,0,1,32.93-9.359,5.256,5.256,0,0,1,34.8-11.008a4.844,4.844,0,0,1,2.324-.523,3.966,3.966,0,0,1,2.008.543A3.587,3.587,0,0,1,40.484-9.5a5.532,5.532,0,0,1,.563,2.207,9.188,9.188,0,0,1-.3,2.828,7.177,7.177,0,0,1-1.164,2.516A5.216,5.216,0,0,1,37.738-.352,4.83,4.83,0,0,1,35.445.156ZM38.688-6l.063-.742a3.626,3.626,0,0,0-.371-2.109,1.567,1.567,0,0,0-1.363-.75,2.473,2.473,0,0,0-2.27,1.266A7.455,7.455,0,0,0,33.8-4.664a3.762,3.762,0,0,0,.367,2.129,1.563,1.563,0,0,0,1.383.777,2.345,2.345,0,0,0,2.031-.957,5.79,5.79,0,0,0,1.055-2.863Zm13.359-5.375-1.281,7.5A4.571,4.571,0,0,1,49.2-.9,4.7,4.7,0,0,1,45.984.164a4.335,4.335,0,0,1-2.09-.527,3.077,3.077,0,0,1-1.309-1.422A3.855,3.855,0,0,1,42.3-3.867l1.273-7.508h2.289L44.586-3.859a3.339,3.339,0,0,0-.008.82,1.385,1.385,0,0,0,1.508,1.313,2.154,2.154,0,0,0,1.586-.531,2.721,2.721,0,0,0,.8-1.609l1.281-7.508Zm9.039,9.938A3.837,3.837,0,0,1,59.3-.246a7.523,7.523,0,0,1-2.652.395A4.114,4.114,0,0,1,54.6-.363a3.572,3.572,0,0,1-1.391-1.449,5.128,5.128,0,0,1-.578-2.156,9.841,9.841,0,0,1,.238-2.645,7.438,7.438,0,0,1,1.086-2.664A5.076,5.076,0,0,1,55.8-10.988a4.868,4.868,0,0,1,2.391-.543,3.954,3.954,0,0,1,2.789,1,4.165,4.165,0,0,1,1.148,2.785l-2.2-.008a2.331,2.331,0,0,0-.508-1.406,1.731,1.731,0,0,0-1.258-.484,2.467,2.467,0,0,0-2.277,1.27,7.9,7.9,0,0,0-.949,3.816,3.355,3.355,0,0,0,.41,2.07,1.7,1.7,0,0,0,1.488.75,3.171,3.171,0,0,0,1.984-.555L59.2-4.25H57.125l.3-1.727h4.344ZM71.617,0H69.328l.844-4.875H65.758L64.906,0H62.617l1.977-11.375h2.289l-.8,4.609H70.5l.8-4.609h2.289Z" transform="translate(567 3658)" fill="#12263f"/>
    <path id="Trazado_219652" data-name="Trazado 219652" d="M10.539-11.375l-1.281,7.5A4.571,4.571,0,0,1,7.7-.9,4.7,4.7,0,0,1,4.477.164a4.335,4.335,0,0,1-2.09-.527A3.077,3.077,0,0,1,1.078-1.785,3.855,3.855,0,0,1,.789-3.867l1.273-7.508H4.352L3.078-3.859a3.339,3.339,0,0,0-.008.82A1.385,1.385,0,0,0,4.578-1.727a2.154,2.154,0,0,0,1.586-.531,2.721,2.721,0,0,0,.8-1.609l1.281-7.508Zm2.914,7.367L12.75,0H10.461l1.977-11.375,3.984.008a3.986,3.986,0,0,1,2.9,1.023,3.174,3.174,0,0,1,.922,2.672A3.592,3.592,0,0,1,18.848-5a5.075,5.075,0,0,1-3.238,1Zm.32-1.9,1.906.016a2.41,2.41,0,0,0,1.531-.477,1.918,1.918,0,0,0,.727-1.289,1.646,1.646,0,0,0-.262-1.3,1.418,1.418,0,0,0-1.121-.516L14.4-9.477Zm20.211-3.57H30.609L28.969,0H26.68L28.32-9.477H24.984l.336-1.9h9ZM38.055.156a4.008,4.008,0,0,1-2-.535,3.612,3.612,0,0,1-1.367-1.477,5.468,5.468,0,0,1-.582-2.215A8.9,8.9,0,0,1,34.383-6.8a7.3,7.3,0,0,1,1.156-2.555,5.256,5.256,0,0,1,1.871-1.648,4.844,4.844,0,0,1,2.324-.523,3.966,3.966,0,0,1,2.008.543A3.587,3.587,0,0,1,43.094-9.5a5.532,5.532,0,0,1,.563,2.207,9.188,9.188,0,0,1-.3,2.828A7.177,7.177,0,0,1,42.2-1.945,5.216,5.216,0,0,1,40.348-.352,4.83,4.83,0,0,1,38.055.156ZM41.3-6l.063-.742a3.626,3.626,0,0,0-.371-2.109,1.567,1.567,0,0,0-1.363-.75,2.473,2.473,0,0,0-2.27,1.266,7.455,7.455,0,0,0-.949,3.672,3.762,3.762,0,0,0,.367,2.129,1.563,1.563,0,0,0,1.383.777,2.345,2.345,0,0,0,2.031-.957,5.79,5.79,0,0,0,1.055-2.863Z" transform="translate(989 3658)" fill="#12263f"/>
    <path id="Trazado_219655" data-name="Trazado 219655" d="M4.734.156a4.008,4.008,0,0,1-2-.535A3.612,3.612,0,0,1,1.371-1.855,5.468,5.468,0,0,1,.789-4.07,8.9,8.9,0,0,1,1.063-6.8,7.3,7.3,0,0,1,2.219-9.359,5.256,5.256,0,0,1,4.09-11.008a4.844,4.844,0,0,1,2.324-.523,3.966,3.966,0,0,1,2.008.543A3.587,3.587,0,0,1,9.773-9.5a5.532,5.532,0,0,1,.563,2.207,9.188,9.188,0,0,1-.3,2.828A7.177,7.177,0,0,1,8.875-1.945,5.216,5.216,0,0,1,7.027-.352,4.83,4.83,0,0,1,4.734.156ZM7.977-6l.063-.742a3.626,3.626,0,0,0-.371-2.109A1.567,1.567,0,0,0,6.3-9.6a2.473,2.473,0,0,0-2.27,1.266,7.455,7.455,0,0,0-.949,3.672,3.762,3.762,0,0,0,.367,2.129,1.563,1.563,0,0,0,1.383.777,2.345,2.345,0,0,0,2.031-.957A5.79,5.79,0,0,0,7.922-5.578Zm13.359-5.375-1.281,7.5A4.571,4.571,0,0,1,18.492-.9,4.7,4.7,0,0,1,15.273.164a4.335,4.335,0,0,1-2.09-.527,3.077,3.077,0,0,1-1.309-1.422,3.855,3.855,0,0,1-.289-2.082l1.273-7.508h2.289L13.875-3.859a3.339,3.339,0,0,0-.008.82,1.385,1.385,0,0,0,1.508,1.313,2.154,2.154,0,0,0,1.586-.531,2.721,2.721,0,0,0,.8-1.609l1.281-7.508Zm9.883,1.9H27.844L26.2,0H23.914l1.641-9.477H22.219l.336-1.9h9ZM41.875-4.648H37.516L36.7,0H34.414l1.977-11.375h7.2l-.336,1.9H38.352l-.516,2.938h4.375Zm5.688,4.8a4.008,4.008,0,0,1-2-.535A3.612,3.612,0,0,1,44.2-1.855a5.468,5.468,0,0,1-.582-2.215A8.9,8.9,0,0,1,43.891-6.8a7.3,7.3,0,0,1,1.156-2.555,5.256,5.256,0,0,1,1.871-1.648,4.844,4.844,0,0,1,2.324-.523,3.966,3.966,0,0,1,2.008.543A3.587,3.587,0,0,1,52.6-9.5a5.532,5.532,0,0,1,.563,2.207,9.188,9.188,0,0,1-.3,2.828A7.177,7.177,0,0,1,51.7-1.945,5.216,5.216,0,0,1,49.855-.352,4.83,4.83,0,0,1,47.563.156ZM50.8-6l.063-.742A3.626,3.626,0,0,0,50.5-8.852a1.567,1.567,0,0,0-1.363-.75,2.473,2.473,0,0,0-2.27,1.266,7.455,7.455,0,0,0-.949,3.672,3.762,3.762,0,0,0,.367,2.129,1.563,1.563,0,0,0,1.383.777A2.345,2.345,0,0,0,49.7-2.715,5.79,5.79,0,0,0,50.75-5.578Zm7.859,1.836H56.8L56.078,0H53.789l1.977-11.375,3.766.008a4.289,4.289,0,0,1,2.91.891A2.817,2.817,0,0,1,63.344-8a3.574,3.574,0,0,1-2.5,3.258l1.6,4.617V0H60.008Zm-1.531-1.9,1.7.016a2.386,2.386,0,0,0,1.5-.488,1.933,1.933,0,0,0,.707-1.285A1.473,1.473,0,0,0,60.8-9.008a1.442,1.442,0,0,0-1.117-.461l-1.953-.008Z" transform="translate(779 3727)" fill="#12263f"/>
    <path id="Trazado_219662" data-name="Trazado 219662" d="M4.734.156a4.008,4.008,0,0,1-2-.535A3.612,3.612,0,0,1,1.371-1.855,5.468,5.468,0,0,1,.789-4.07,8.9,8.9,0,0,1,1.063-6.8,7.3,7.3,0,0,1,2.219-9.359,5.256,5.256,0,0,1,4.09-11.008a4.844,4.844,0,0,1,2.324-.523,3.966,3.966,0,0,1,2.008.543A3.587,3.587,0,0,1,9.773-9.5a5.532,5.532,0,0,1,.563,2.207,9.188,9.188,0,0,1-.3,2.828A7.177,7.177,0,0,1,8.875-1.945,5.216,5.216,0,0,1,7.027-.352,4.83,4.83,0,0,1,4.734.156ZM7.977-6l.063-.742a3.626,3.626,0,0,0-.371-2.109A1.567,1.567,0,0,0,6.3-9.6a2.473,2.473,0,0,0-2.27,1.266,7.455,7.455,0,0,0-.949,3.672,3.762,3.762,0,0,0,.367,2.129,1.563,1.563,0,0,0,1.383.777,2.345,2.345,0,0,0,2.031-.957A5.79,5.79,0,0,0,7.922-5.578Zm7.383,3.156,3.828-8.531h2.625L16.2,0H13.8L11.758-11.375h2.461ZM28.523-4.93H24.164l-.531,3.047h5.125L28.43,0H21.016l1.977-11.375h7.4l-.336,1.9h-5.1l-.477,2.711h4.375Zm6.172.766H32.836L32.109,0H29.82L31.8-11.375l3.766.008a4.289,4.289,0,0,1,2.91.891A2.817,2.817,0,0,1,39.375-8a3.574,3.574,0,0,1-2.5,3.258l1.6,4.617V0H36.039Zm-1.531-1.9,1.7.016a2.386,2.386,0,0,0,1.5-.488A1.933,1.933,0,0,0,37.07-7.82a1.473,1.473,0,0,0-.242-1.187,1.442,1.442,0,0,0-1.117-.461l-1.953-.008Z" transform="translate(567 3378)" fill="#12263f"/>
    <path id="Trazado_219663" data-name="Trazado 219663" d="M6.852-2.344H2.883L1.711,0H-.812L5.266-11.375H7.383L9.547,0H7.211ZM3.82-4.242H6.563L5.922-8.477Zm14.328-.406H13.789L12.977,0H10.688l1.977-11.375h7.2l-.336,1.9H14.625l-.516,2.938h4.375ZM29.383-9.477H26.008L24.367,0H22.078l1.641-9.477H20.383l.336-1.9h9ZM36.609-4.93H32.25l-.531,3.047h5.125L36.516,0H29.1l1.977-11.375h7.4l-.336,1.9h-5.1l-.477,2.711h4.375Zm6.172.766H40.922L40.2,0H37.906l1.977-11.375,3.766.008a4.289,4.289,0,0,1,2.91.891A2.817,2.817,0,0,1,47.461-8a3.574,3.574,0,0,1-2.5,3.258l1.6,4.617V0H44.125Zm-1.531-1.9,1.7.016a2.386,2.386,0,0,0,1.5-.488,1.933,1.933,0,0,0,.707-1.285,1.473,1.473,0,0,0-.242-1.187A1.442,1.442,0,0,0,43.8-9.469l-1.953-.008Z" transform="translate(989 3378)" fill="#12263f"/>
    <path id="Trazado_219666" data-name="Trazado 219666" d="M7.625-4.648H3.266L2.453,0H.164L2.141-11.375h7.2l-.336,1.9H4.1L3.586-6.539H7.961Zm5.688,4.8a4.008,4.008,0,0,1-2-.535A3.612,3.612,0,0,1,9.949-1.855,5.468,5.468,0,0,1,9.367-4.07,8.9,8.9,0,0,1,9.641-6.8,7.3,7.3,0,0,1,10.8-9.359a5.256,5.256,0,0,1,1.871-1.648,4.844,4.844,0,0,1,2.324-.523A3.966,3.966,0,0,1,17-10.988,3.587,3.587,0,0,1,18.352-9.5a5.532,5.532,0,0,1,.563,2.207,9.188,9.188,0,0,1-.3,2.828,7.177,7.177,0,0,1-1.164,2.516A5.216,5.216,0,0,1,15.605-.352,4.83,4.83,0,0,1,13.313.156ZM16.555-6l.063-.742a3.626,3.626,0,0,0-.371-2.109,1.567,1.567,0,0,0-1.363-.75,2.473,2.473,0,0,0-2.27,1.266,7.455,7.455,0,0,0-.949,3.672,3.762,3.762,0,0,0,.367,2.129,1.563,1.563,0,0,0,1.383.777,2.345,2.345,0,0,0,2.031-.957A5.79,5.79,0,0,0,16.5-5.578Zm7.859,1.836H22.555L21.828,0H19.539l1.977-11.375,3.766.008a4.289,4.289,0,0,1,2.91.891A2.817,2.817,0,0,1,29.094-8a3.574,3.574,0,0,1-2.5,3.258L28.2-.125V0H25.758Zm-1.531-1.9,1.7.016a2.386,2.386,0,0,0,1.5-.488,1.933,1.933,0,0,0,.707-1.285,1.473,1.473,0,0,0-.242-1.187,1.442,1.442,0,0,0-1.117-.461l-1.953-.008ZM38.7-3.3l2.742-8.07h2.336L39.547,0h-2.3l-.6-7.578L33.664,0h-2.3l-.672-11.375h2.234l.227,8.031,3.063-8.031h1.945Zm10.828.961H45.555L44.383,0H41.859l6.078-11.375h2.117L52.219,0H49.883Zm-3.031-1.9h2.742l-.641-4.234Zm11.742.078H56.375L55.648,0H53.359l1.977-11.375,3.766.008a4.289,4.289,0,0,1,2.91.891A2.817,2.817,0,0,1,62.914-8a3.574,3.574,0,0,1-2.5,3.258l1.6,4.617V0H59.578ZM56.7-6.062l1.7.016a2.386,2.386,0,0,0,1.5-.488,1.933,1.933,0,0,0,.707-1.285,1.473,1.473,0,0,0-.242-1.187,1.442,1.442,0,0,0-1.117-.461L57.3-9.477ZM63.344,0,65.32-11.375l3.266.008a4.473,4.473,0,0,1,2.066.52,3.905,3.905,0,0,1,1.488,1.426,4.883,4.883,0,0,1,.688,2.094,6.911,6.911,0,0,1-.016,1.391l-.055.414a6.5,6.5,0,0,1-1.965,4.012A5.558,5.558,0,0,1,66.859,0Zm3.938-9.477-1.32,7.594.953.008a3.127,3.127,0,0,0,2.535-1.156,5.976,5.976,0,0,0,1.1-3.492l.016-.25A3.151,3.151,0,0,0,70.07-8.75a1.879,1.879,0,0,0-1.539-.719Zm19.664,0H83.57L81.93,0H79.641l1.641-9.477H77.945l.336-1.9h9ZM91.016.156a4.008,4.008,0,0,1-2-.535,3.612,3.612,0,0,1-1.367-1.477A5.468,5.468,0,0,1,87.07-4.07,8.9,8.9,0,0,1,87.344-6.8,7.3,7.3,0,0,1,88.5-9.359a5.256,5.256,0,0,1,1.871-1.648,4.844,4.844,0,0,1,2.324-.523,3.966,3.966,0,0,1,2.008.543A3.587,3.587,0,0,1,96.055-9.5a5.532,5.532,0,0,1,.563,2.207,9.188,9.188,0,0,1-.3,2.828,7.177,7.177,0,0,1-1.164,2.516A5.216,5.216,0,0,1,93.309-.352,4.83,4.83,0,0,1,91.016.156ZM94.258-6l.063-.742a3.626,3.626,0,0,0-.371-2.109,1.567,1.567,0,0,0-1.363-.75,2.473,2.473,0,0,0-2.27,1.266,7.455,7.455,0,0,0-.949,3.672,3.762,3.762,0,0,0,.367,2.129,1.563,1.563,0,0,0,1.383.777,2.345,2.345,0,0,0,2.031-.957A5.79,5.79,0,0,0,94.2-5.578Z" transform="translate(357 3447)" fill="#12263f"/>
    <path id="Trazado_219657" data-name="Trazado 219657" d="M6.852-2.344H2.883L1.711,0H-.812L5.266-11.375H7.383L9.547,0H7.211ZM3.82-4.242H6.563L5.922-8.477ZM19.711-9.477H16.336L14.7,0H12.406l1.641-9.477H10.711l.336-1.9h9Z" transform="translate(1199 3447)" fill="#12263f"/>
    <path id="Trazado_219669" data-name="Trazado 219669" d="M10.539-11.375l-1.281,7.5A4.571,4.571,0,0,1,7.7-.9,4.7,4.7,0,0,1,4.477.164a4.335,4.335,0,0,1-2.09-.527A3.077,3.077,0,0,1,1.078-1.785,3.855,3.855,0,0,1,.789-3.867l1.273-7.508H4.352L3.078-3.859a3.339,3.339,0,0,0-.008.82A1.385,1.385,0,0,0,4.578-1.727a2.154,2.154,0,0,0,1.586-.531,2.721,2.721,0,0,0,.8-1.609l1.281-7.508Zm2.914,7.367L12.75,0H10.461l1.977-11.375,3.984.008a3.986,3.986,0,0,1,2.9,1.023,3.174,3.174,0,0,1,.922,2.672A3.592,3.592,0,0,1,18.848-5a5.075,5.075,0,0,1-3.238,1Zm.32-1.9,1.906.016a2.41,2.41,0,0,0,1.531-.477,1.918,1.918,0,0,0,.727-1.289,1.646,1.646,0,0,0-.262-1.3,1.418,1.418,0,0,0-1.121-.516L14.4-9.477Z" transform="translate(359 3589)" fill="#12263f"/>
    <path id="Trazado_219653" data-name="Trazado 219653" d="M2.6,0H.313L2.281-11.375H4.57ZM13.758,0H11.539L8.375-7.586,7.055,0H4.766L6.742-11.375H8.953l3.172,7.6,1.32-7.6h2.281ZM25.766-9.477H22.391L20.75,0H18.461L20.1-9.477H16.766l.336-1.9h9ZM29.836.156a4.008,4.008,0,0,1-2-.535,3.612,3.612,0,0,1-1.367-1.477,5.468,5.468,0,0,1-.582-2.215A8.9,8.9,0,0,1,26.164-6.8,7.3,7.3,0,0,1,27.32-9.359a5.256,5.256,0,0,1,1.871-1.648,4.844,4.844,0,0,1,2.324-.523,3.966,3.966,0,0,1,2.008.543A3.587,3.587,0,0,1,34.875-9.5a5.532,5.532,0,0,1,.563,2.207,9.188,9.188,0,0,1-.3,2.828,7.177,7.177,0,0,1-1.164,2.516A5.216,5.216,0,0,1,32.129-.352,4.83,4.83,0,0,1,29.836.156ZM33.078-6l.063-.742a3.626,3.626,0,0,0-.371-2.109,1.567,1.567,0,0,0-1.363-.75,2.473,2.473,0,0,0-2.27,1.266,7.455,7.455,0,0,0-.949,3.672,3.762,3.762,0,0,0,.367,2.129,1.563,1.563,0,0,0,1.383.777,2.345,2.345,0,0,0,2.031-.957,5.79,5.79,0,0,0,1.055-2.863Z" transform="translate(1199 3589)" fill="#12263f"/>
    <g id="Enmascarar_grupo_598" data-name="Enmascarar grupo 598" transform="translate(-55 120)" clip-path="url(#clip-path)">
      <g id="grupo" transform="translate(780 3157)">
        <path id="Trazado_218047" data-name="Trazado 218047" d="M9.6,13.464H1.69a.623.623,0,0,1-.623-.623V11.094a4.58,4.58,0,0,1,4.58-4.58h0a4.58,4.58,0,0,1,4.58,4.58v1.747A.623.623,0,0,1,9.6,13.464Z" fill="#c3da40"/>
        <path id="Trazado_218048" data-name="Trazado 218048" d="M14.251,28.973a3.926,3.926,0,0,1-1.694-2A4.081,4.081,0,0,1,10.1,23.191,4.035,4.035,0,0,1,14.064,19.1H19.11a4.1,4.1,0,0,1,0,8.186H15.2a3.929,3.929,0,0,0,.04,1.046l.181,1.07a.171.171,0,0,1-.262.171Z" fill="#ff62a7"/>
        <path id="Trazado_218049" data-name="Trazado 218049" d="M23.075,23.191A4.035,4.035,0,0,0,19.11,19.1H14.064a3.835,3.835,0,0,0-1.6.349,6.506,6.506,0,0,0,6.52,6.035h3.41A4.163,4.163,0,0,0,23.075,23.191Z" fill="#fc5479"/>
        <path id="Trazado_218050" data-name="Trazado 218050" d="M24.654,26.056a4.8,4.8,0,0,0,.11-1.587h-4.9a5.021,5.021,0,1,1-.076-10.041h6.333a5.066,5.066,0,0,1,5.09,4.96A5,5,0,0,1,28.1,24.095a5.33,5.33,0,0,1-2.5,2.663l-.94.543a.171.171,0,0,1-.252-.187Z" fill="#31d2f7"/>
        <path id="Trazado_218051" data-name="Trazado 218051" d="M18.872,20.891a5.026,5.026,0,0,1,5.02-5.1H29.6a5.119,5.119,0,0,0-3.481-1.364H19.788a5.021,5.021,0,1,0,.076,10.041h.619A4.962,4.962,0,0,1,18.872,20.891Z" fill="#13ace8"/>
        <path id="Trazado_218052" data-name="Trazado 218052" d="M39.272,13.464H31.357a.623.623,0,0,1-.623-.623V11.094a4.58,4.58,0,0,1,4.58-4.58h0a4.58,4.58,0,0,1,4.58,4.58v1.747A.623.623,0,0,1,39.272,13.464Z" fill="#ffcf59"/>
        <path id="Trazado_218053" data-name="Trazado 218053" d="M9.6,37.93H1.69a.623.623,0,0,1-.623-.623V35.56a4.58,4.58,0,0,1,4.58-4.58h0a4.58,4.58,0,0,1,4.58,4.58v1.747A.623.623,0,0,1,9.6,37.93Z" fill="#ff62a7"/>
        <path id="Trazado_218054" data-name="Trazado 218054" d="M39.272,37.93H31.357a.623.623,0,0,1-.623-.623V35.56a4.58,4.58,0,0,1,4.58-4.58h0a4.58,4.58,0,0,1,4.58,4.58v1.747A.623.623,0,0,1,39.272,37.93Z" fill="#31d2f7"/>
        <path id="Trazado_218055" data-name="Trazado 218055" d="M4.587,12.841V11.094A4.581,4.581,0,0,1,7.407,6.865a4.566,4.566,0,0,0-1.76-.351h0a4.58,4.58,0,0,0-4.58,4.58v1.747a.623.623,0,0,0,.623.623H5.21A.623.623,0,0,1,4.587,12.841Z" fill="#adbc15"/>
        <path id="Trazado_218056" data-name="Trazado 218056" d="M34.254,12.841V11.094a4.581,4.581,0,0,1,2.821-4.229,4.566,4.566,0,0,0-1.76-.351h0a4.58,4.58,0,0,0-4.58,4.58v1.747a.623.623,0,0,0,.623.623h3.52A.623.623,0,0,1,34.254,12.841Z" fill="#ffb55c"/>
        <path id="Trazado_218057" data-name="Trazado 218057" d="M4.587,37.307V35.56a4.581,4.581,0,0,1,2.821-4.229,4.567,4.567,0,0,0-1.76-.351h0a4.58,4.58,0,0,0-4.58,4.58v1.747a.623.623,0,0,0,.623.623H5.21A.623.623,0,0,1,4.587,37.307Z" fill="#fc5479"/>
        <path id="Trazado_218058" data-name="Trazado 218058" d="M34.254,37.307V35.56a4.581,4.581,0,0,1,2.821-4.229,4.567,4.567,0,0,0-1.76-.351h0a4.58,4.58,0,0,0-4.58,4.58v1.747a.623.623,0,0,0,.623.623h3.52A.623.623,0,0,1,34.254,37.307Z" fill="#13ace8"/>
        <g id="Grupo_995817" data-name="Grupo 995817">
          <path id="Trazado_218059" data-name="Trazado 218059" d="M5.608,9.121A2.968,2.968,0,1,1,8.576,6.153,2.972,2.972,0,0,1,5.608,9.121Z" fill="#fad393"/>
          <path id="Trazado_218060" data-name="Trazado 218060" d="M35.275,9.121a2.968,2.968,0,1,1,2.968-2.968A2.972,2.972,0,0,1,35.275,9.121Z" fill="#fad393"/>
          <path id="Trazado_218061" data-name="Trazado 218061" d="M5.608,33.587a2.968,2.968,0,1,1,2.968-2.968A2.972,2.972,0,0,1,5.608,33.587Z" fill="#fad393"/>
          <path id="Trazado_218062" data-name="Trazado 218062" d="M35.275,33.587a2.968,2.968,0,1,1,2.968-2.968A2.972,2.972,0,0,1,35.275,33.587Z" fill="#fad393"/>
        </g>
        <g id="Grupo_995818" data-name="Grupo 995818">
          <path id="Trazado_218063" data-name="Trazado 218063" d="M5.443,6.153A2.971,2.971,0,0,1,7.009,3.537a2.968,2.968,0,1,0,0,5.231A2.97,2.97,0,0,1,5.443,6.153Z" fill="#edb769"/>
          <path id="Trazado_218064" data-name="Trazado 218064" d="M35.11,6.153a2.971,2.971,0,0,1,1.567-2.616,2.968,2.968,0,1,0,0,5.231A2.97,2.97,0,0,1,35.11,6.153Z" fill="#edb769"/>
          <path id="Trazado_218065" data-name="Trazado 218065" d="M5.443,30.619A2.971,2.971,0,0,1,7.009,28a2.968,2.968,0,1,0,0,5.231A2.97,2.97,0,0,1,5.443,30.619Z" fill="#edb769"/>
          <path id="Trazado_218066" data-name="Trazado 218066" d="M35.11,30.619A2.971,2.971,0,0,1,36.677,28a2.968,2.968,0,1,0,0,5.231A2.971,2.971,0,0,1,35.11,30.619Z" fill="#edb769"/>
        </g>
        <path id="Trazado_218067" data-name="Trazado 218067" d="M10.56,4.018a.665.665,0,0,0,.334-.09,19.16,19.16,0,0,1,1.988-1A.667.667,0,0,0,12.351,1.7a20.5,20.5,0,0,0-2.127,1.074.667.667,0,0,0,.335,1.244Z"/>
        <path id="Trazado_218068" data-name="Trazado 218068" d="M23.8,1.633a19.117,19.117,0,0,1,2.169.508.667.667,0,1,0,.38-1.279A20.458,20.458,0,0,0,24.026.318.667.667,0,0,0,23.8,1.633Z"/>
        <path id="Trazado_218069" data-name="Trazado 218069" d="M19.315,1.385h.04c.379-.022.763-.034,1.143-.034h0c.361,0,.726.01,1.084.03A.667.667,0,0,0,21.659.049C21.276.027,20.886.016,20.5.016h0c-.406,0-.817.012-1.222.036a.667.667,0,0,0,.039,1.333Z"/>
        <path id="Trazado_218070" data-name="Trazado 218070" d="M39.639,15.253a.667.667,0,0,0-.494.8,19.183,19.183,0,0,1,.389,2.194.667.667,0,1,0,1.325-.156,20.507,20.507,0,0,0-.416-2.347A.667.667,0,0,0,39.639,15.253Z"/>
        <path id="Trazado_218071" data-name="Trazado 218071" d="M38.516,27.072a.667.667,0,1,0,1.254.456,20.435,20.435,0,0,0,.683-2.285.667.667,0,0,0-1.3-.306A19.114,19.114,0,0,1,38.516,27.072Z"/>
        <path id="Trazado_218072" data-name="Trazado 218072" d="M28.063,2.9a19.178,19.178,0,0,1,1.993,1,.667.667,0,1,0,.666-1.156,20.492,20.492,0,0,0-2.132-1.068A.667.667,0,1,0,28.063,2.9Z"/>
        <path id="Trazado_218073" data-name="Trazado 218073" d="M1.048,24.461a.667.667,0,0,0-.5.8,20.424,20.424,0,0,0,.685,2.284.667.667,0,0,0,1.253-.458,19.1,19.1,0,0,1-.64-2.134A.667.667,0,0,0,1.048,24.461Z"/>
        <path id="Trazado_218074" data-name="Trazado 218074" d="M14.782,2.187a.666.666,0,0,0,.192-.028,19.114,19.114,0,0,1,2.167-.515A.667.667,0,0,0,16.91.33,20.445,20.445,0,0,0,14.59.881a.667.667,0,0,0,.192,1.306Z"/>
        <path id="Trazado_218075" data-name="Trazado 218075" d="M40.333,19.807a.667.667,0,0,0-.667.667v.042a19.47,19.47,0,0,1-.128,2.225.667.667,0,1,0,1.325.153A20.794,20.794,0,0,0,41,20.516v-.042A.667.667,0,0,0,40.333,19.807Z"/>
        <path id="Trazado_218076" data-name="Trazado 218076" d="M23.838,39.393a19.292,19.292,0,0,1-2.214.257.667.667,0,0,0,.038,1.333H21.7a20.6,20.6,0,0,0,2.367-.275.667.667,0,1,0-.231-1.314Z"/>
        <path id="Trazado_218077" data-name="Trazado 218077" d="M19.4,39.651a19.3,19.3,0,0,1-2.214-.255.667.667,0,1,0-.23,1.314,20.627,20.627,0,0,0,2.367.273h.038a.667.667,0,0,0,.037-1.333Z"/>
        <path id="Trazado_218078" data-name="Trazado 218078" d="M15.013,38.885a19.071,19.071,0,0,1-2.095-.761.667.667,0,0,0-.528,1.225,20.442,20.442,0,0,0,2.242.814.667.667,0,1,0,.381-1.278Z"/>
        <path id="Trazado_218079" data-name="Trazado 218079" d="M.721,18.9a.674.674,0,0,0,.077,0,.667.667,0,0,0,.662-.591,19.171,19.171,0,0,1,.382-2.195.667.667,0,0,0-1.3-.305A20.529,20.529,0,0,0,.134,18.16.667.667,0,0,0,.721,18.9Z"/>
        <path id="Trazado_218080" data-name="Trazado 218080" d="M28.1,38.117a19.117,19.117,0,0,1-2.093.763.667.667,0,1,0,.383,1.278,20.439,20.439,0,0,0,2.24-.816.667.667,0,0,0-.53-1.224Z"/>
        <path id="Trazado_218081" data-name="Trazado 218081" d="M.879,23.5a.667.667,0,0,0,.585-.74,19.449,19.449,0,0,1-.13-2.225.667.667,0,0,0-.667-.666h0A.667.667,0,0,0,0,20.538a20.792,20.792,0,0,0,.139,2.378.667.667,0,0,0,.662.59A.678.678,0,0,0,.879,23.5Z"/>
        <path id="Trazado_218082" data-name="Trazado 218082" d="M1.794,14H9.5a1.419,1.419,0,0,0,1.418-1.418V10.971a4.816,4.816,0,0,0-.258-1.559A.6.6,0,1,0,9.522,9.8a3.616,3.616,0,0,1,.193,1.171v1.607a.214.214,0,0,1-.214.214H1.794a.214.214,0,0,1-.214-.214V10.971a3.629,3.629,0,0,1,1.207-2.7,3.522,3.522,0,1,0-.558-1.1,4.833,4.833,0,0,0-1.852,3.8v1.607A1.419,1.419,0,0,0,1.794,14ZM5.608,3.827A2.326,2.326,0,1,1,3.282,6.153,2.329,2.329,0,0,1,5.608,3.827Z"/>
        <path id="Trazado_218083" data-name="Trazado 218083" d="M30.081,10.971v1.607A1.419,1.419,0,0,0,31.5,14h7.707a1.419,1.419,0,0,0,1.418-1.418V10.971a4.816,4.816,0,0,0-.258-1.559.6.6,0,1,0-1.139.389,3.618,3.618,0,0,1,.193,1.171v1.607a.214.214,0,0,1-.214.214H31.5a.214.214,0,0,1-.214-.214V10.971a3.629,3.629,0,0,1,1.207-2.7,3.522,3.522,0,1,0-.558-1.1A4.833,4.833,0,0,0,30.081,10.971Zm5.231-7.144a2.326,2.326,0,1,1-2.326,2.326A2.329,2.329,0,0,1,35.313,3.827Z"/>
        <path id="Trazado_218084" data-name="Trazado 218084" d="M39.6,33.45a.6.6,0,0,0-.375.764,3.618,3.618,0,0,1,.193,1.171v1.607a.214.214,0,0,1-.214.214H31.5a.214.214,0,0,1-.214-.214V35.384a3.629,3.629,0,0,1,1.207-2.7,3.522,3.522,0,1,0-.558-1.1,4.833,4.833,0,0,0-1.852,3.8v1.607A1.419,1.419,0,0,0,31.5,38.409h7.707a1.419,1.419,0,0,0,1.418-1.418V35.385a4.816,4.816,0,0,0-.258-1.559A.6.6,0,0,0,39.6,33.45Zm-4.289-5.21a2.326,2.326,0,1,1-2.326,2.326A2.329,2.329,0,0,1,35.313,28.24Z"/>
        <path id="Trazado_218085" data-name="Trazado 218085" d="M9.9,33.45a.6.6,0,0,0-.375.764,3.616,3.616,0,0,1,.193,1.171v1.607a.214.214,0,0,1-.214.214H1.794a.214.214,0,0,1-.214-.214V35.384a3.629,3.629,0,0,1,1.207-2.7,3.522,3.522,0,1,0-.558-1.1,4.833,4.833,0,0,0-1.852,3.8v1.607a1.419,1.419,0,0,0,1.418,1.418H9.5a1.419,1.419,0,0,0,1.418-1.418V35.385a4.816,4.816,0,0,0-.258-1.559A.6.6,0,0,0,9.9,33.45ZM5.608,28.24a2.326,2.326,0,1,1-2.326,2.326A2.329,2.329,0,0,1,5.608,28.24Z"/>
        <path id="Trazado_218086" data-name="Trazado 218086" d="M26.192,13.867h-6.4a5.59,5.59,0,0,0-5.506,4.669h-.218a4.6,4.6,0,0,0-4.527,4.655,4.648,4.648,0,0,0,2.573,4.2c.773,1.871,3.183,2.769,3.29,2.808a.6.6,0,0,0,.754-.814,4.355,4.355,0,0,1-.407-1.538H19.11a4.532,4.532,0,0,0,4.157-2.814h.958a5.23,5.23,0,0,1-.534,2.078.6.6,0,0,0,.745.823c.134-.047,3.171-1.143,4.1-3.418a5.582,5.582,0,0,0-2.347-10.647Zm1.645,9.64a.592.592,0,0,0-.344.366A4.676,4.676,0,0,1,25.279,26.2a5.405,5.405,0,0,0,.119-1.835.6.6,0,0,0-.6-.538H19.788a4.347,4.347,0,0,1-1.631-.316.6.6,0,0,0-.649.129l-.009.009a.6.6,0,0,0,.2.976,5.545,5.545,0,0,0,2.088.406h2.13a3.3,3.3,0,0,1-2.809,1.611H15.16a.6.6,0,0,0-.6.532,4.54,4.54,0,0,0,.041,1.263,3.409,3.409,0,0,1-1.437-1.656.622.622,0,0,0-.346-.389,3.44,3.44,0,0,1-2.081-3.2,3.393,3.393,0,0,1,3.323-3.451h.15a5.536,5.536,0,0,0,.395,1.788.6.6,0,0,0,.977.2l.009-.009a.6.6,0,0,0,.13-.646,4.352,4.352,0,0,1-.313-1.724,4.419,4.419,0,0,1,4.44-4.281h6.268a4.452,4.452,0,0,1,4.452,4.393A4.362,4.362,0,0,1,27.837,23.507Z"/>
      </g>
    </g>
    <g id="Enmascarar_grupo_604" data-name="Enmascarar grupo 604" transform="translate(0 -3)" clip-path="url(#clip-path-2)">
      <g id="drive-through" transform="translate(511 3635)">
        <g id="Grupo_995850" data-name="Grupo 995850">
          <path id="Trazado_218156" data-name="Trazado 218156" d="M1.472,34.146A2.18,2.18,0,0,1,.6,32.4V4.927A2.183,2.183,0,0,1,2.784,2.744h19.9V7.2Z" fill="#6a829a"/>
          <path id="Trazado_218157" data-name="Trazado 218157" d="M22.683,7.2V25.788l-12.837,8.8H2.784a2.176,2.176,0,0,1-1.312-.437l.623-4.271V28.7a3.754,3.754,0,0,1,4.054-3.719A4.256,4.256,0,0,1,8.23,23.319c-.167-.193-.328-.392-.481-.6a4.16,4.16,0,0,1-4.162-5.31,4.415,4.415,0,0,1,.1-3.832c2.174-4.734,5.984-9.09,11.779-9.007A10.989,10.989,0,0,1,22.683,7.2Z" fill="#5b778f"/>
          <path id="Trazado_218158" data-name="Trazado 218158" d="M22.683,34.584H9.3V28.34a7.013,7.013,0,0,1,7.013-7.013h6.356Z" fill="#ff6e80"/>
          <path id="Trazado_218159" data-name="Trazado 218159" d="M40.4,4.927V32.4a2.182,2.182,0,0,1-2.182,2.182H31.2c-6.058-7.03-6.058-25.189-.006-31.839h7.019A2.183,2.183,0,0,1,40.4,4.927Z" fill="#eeecff"/>
          <path id="Trazado_218160" data-name="Trazado 218160" d="M31.2,34.583H22.683A2.183,2.183,0,0,1,20.5,32.4V4.927a2.183,2.183,0,0,1,2.183-2.183H31.2C27.088,11.6,27.318,25.852,31.2,34.583Z" fill="#deddf5"/>
          <path id="Trazado_218161" data-name="Trazado 218161" d="M37.314,7.178V30.15a1.381,1.381,0,0,1-1.381,1.381H30.06C26.454,26.78,25.147,12.087,30.015,5.8h5.918A1.381,1.381,0,0,1,37.314,7.178Z" fill="#83deff"/>
          <path id="Trazado_218162" data-name="Trazado 218162" d="M30.06,31.532H24.968a1.381,1.381,0,0,1-1.381-1.381V7.178A1.381,1.381,0,0,1,24.968,5.8h5.047A46.028,46.028,0,0,0,30.06,31.532Z" fill="#5ad6ff"/>
          <circle id="Elipse_4918" data-name="Elipse 4918" cx="1.74" cy="1.74" r="1.74" transform="translate(21.667 16.843)" fill="#ffcbbe"/>
          <circle id="Elipse_4919" data-name="Elipse 4919" cx="1.74" cy="1.74" r="1.74" transform="translate(5.818 16.843)" fill="#ffcbbe"/>
          <path id="Trazado_218163" data-name="Trazado 218163" d="M22.667,17a7.2,7.2,0,0,1-7.333,7.2,12.294,12.294,0,0,1-.939-14.319A7.2,7.2,0,0,1,22.667,17Z" fill="#ffddcf"/>
          <path id="Trazado_218164" data-name="Trazado 218164" d="M15.334,24.2a7.2,7.2,0,0,1-.939-14.319A25.418,25.418,0,0,0,15.334,24.2Z" fill="#ffcbbe"/>
          <path id="Trazado_218165" data-name="Trazado 218165" d="M24.686,15.14c-1.764-2.431-5.262-3.961-9.2-3.961-.459,0-.912.021-1.357.062-.347-1.361-.17-3.322,1.211-4.266C19.947,6.9,24.507,10.563,24.686,15.14Z" fill="#ff8a98"/>
          <path id="Trazado_218166" data-name="Trazado 218166" d="M15.336,6.976a18.217,18.217,0,0,0-1.211,4.266,10.83,10.83,0,0,0-7.846,3.9C6.454,10.649,10.811,7.044,15.336,6.976Z" fill="#ff6e80"/>
          <path id="Trazado_218167" data-name="Trazado 218167" d="M12.595,38.256h-2.05c-2.677-1.708-2.677-6.445-.591-9.341L14.9,30.05l.691,4.74A3.028,3.028,0,0,1,12.595,38.256Z" fill="#fbf198"/>
          <path id="Trazado_218168" data-name="Trazado 218168" d="M10.545,38.256H6.8a3.028,3.028,0,0,1-3-3.466L4.5,30.05l5.2-1.194.255.058A15.228,15.228,0,0,0,10.545,38.256Z" fill="#f9d171"/>
          <path id="Trazado_218169" data-name="Trazado 218169" d="M14.9,28.7V30.05H9.708a2.562,2.562,0,0,1,.789-2.664h3.086A1.316,1.316,0,0,1,14.9,28.7Z" fill="#f9d171"/>
          <path id="Trazado_218170" data-name="Trazado 218170" d="M10.5,27.386a10.735,10.735,0,0,0-.789,2.664H4.5V28.7a1.316,1.316,0,0,1,1.316-1.316Z" fill="#fab658"/>
          <path id="Trazado_218171" data-name="Trazado 218171" d="M11.529,27.289v.931A1.832,1.832,0,0,1,9.708,30.05a3.28,3.28,0,0,1,0-4.592A1.83,1.83,0,0,1,11.529,27.289Z" fill="#ffddcf"/>
          <path id="Trazado_218172" data-name="Trazado 218172" d="M9.708,30.05H9.7A1.831,1.831,0,0,1,7.868,28.22v-.931A1.83,1.83,0,0,1,9.7,25.458H9.7A5.1,5.1,0,0,0,9.708,30.05Z" fill="#ffcbbe"/>
          <path id="Trazado_218173" data-name="Trazado 218173" d="M24.416,17.214a1.841,1.841,0,0,1-2.5-.747c-.722-1.34-3.045-2.781-6.438-2.781a11.251,11.251,0,0,0-1.644.119,2.055,2.055,0,0,1,.518-3.76c.37-.028.746-.042,1.126-.042,4.335,0,8.135,1.851,9.681,4.717A1.842,1.842,0,0,1,24.416,17.214Z" fill="#ff6e80"/>
          <path id="Trazado_218174" data-name="Trazado 218174" d="M13.838,13.8c-2.5.372-4.194,1.552-4.794,2.663A1.841,1.841,0,1,1,5.8,14.719c1.409-2.615,4.7-4.384,8.554-4.674A2.631,2.631,0,0,0,13.838,13.8Z" fill="#fd5c6f"/>
        </g>
        <g id="Grupo_995852" data-name="Grupo 995852">
          <path id="Trazado_218175" data-name="Trazado 218175" d="M38.217,2.745H2.783A2.183,2.183,0,0,0,.6,4.927V32.4a2.183,2.183,0,0,0,2.183,2.183H3.835L4.5,30.05H14.9l.661,4.534H38.217A2.183,2.183,0,0,0,40.4,32.4V4.927A2.183,2.183,0,0,0,38.217,2.745Z" fill="none" stroke="#000" stroke-linecap="round" stroke-linejoin="round" stroke-miterlimit="10" stroke-width="1.201"/>
          <path id="Trazado_218176" data-name="Trazado 218176" d="M22.12,19.754a1.74,1.74,0,1,0,2.332-2.561" fill="none" stroke="#000" stroke-linecap="round" stroke-linejoin="round" stroke-miterlimit="10" stroke-width="1.201"/>
          <path id="Trazado_218177" data-name="Trazado 218177" d="M6.511,17.193a1.74,1.74,0,1,0,2.31,2.585" fill="none" stroke="#000" stroke-linecap="round" stroke-linejoin="round" stroke-miterlimit="10" stroke-width="1.201"/>
          <g id="Grupo_995851" data-name="Grupo 995851">
            <path id="Trazado_218178" data-name="Trazado 218178" d="M8.27,17.229a7.2,7.2,0,0,0,14.393-.018" fill="none" stroke="#000" stroke-linecap="round" stroke-linejoin="round" stroke-miterlimit="10" stroke-width="1.201"/>
          </g>
          <line id="Línea_1587" data-name="Línea 1587" y2="0.816" transform="translate(11.219 17.485)" fill="none" stroke="#000" stroke-linecap="round" stroke-linejoin="round" stroke-miterlimit="10" stroke-width="1.201"/>
          <line id="Línea_1588" data-name="Línea 1588" y2="0.816" transform="translate(19.708 17.485)" fill="none" stroke="#000" stroke-linecap="round" stroke-linejoin="round" stroke-miterlimit="10" stroke-width="1.201"/>
          <path id="Trazado_218179" data-name="Trazado 218179" d="M14.344,18.277a1.483,1.483,0,0,0,2.238,0" fill="none" stroke="#000" stroke-linecap="round" stroke-linejoin="round" stroke-miterlimit="10" stroke-width="1.201"/>
          <path id="Trazado_218180" data-name="Trazado 218180" d="M12.594,38.255H6.8a3.028,3.028,0,0,1-3-3.465L4.5,30.05H14.9l.692,4.741A3.028,3.028,0,0,1,12.594,38.255Z" fill="none" stroke="#000" stroke-linecap="round" stroke-linejoin="round" stroke-miterlimit="10" stroke-width="1.201"/>
          <path id="Trazado_218181" data-name="Trazado 218181" d="M7.867,27.386H5.813A1.316,1.316,0,0,0,4.5,28.7V30.05" fill="none" stroke="#000" stroke-linecap="round" stroke-linejoin="round" stroke-miterlimit="10" stroke-width="1.201"/>
          <path id="Trazado_218182" data-name="Trazado 218182" d="M14.9,30.05V28.7a1.316,1.316,0,0,0-1.316-1.316H11.528" fill="none" stroke="#000" stroke-linecap="round" stroke-linejoin="round" stroke-miterlimit="10" stroke-width="1.201"/>
          <path id="Trazado_218183" data-name="Trazado 218183" d="M9.7,30.05a1.831,1.831,0,0,1-1.831-1.831v-.931a1.831,1.831,0,0,1,3.661,0v.931A1.831,1.831,0,0,1,9.7,30.05Z" fill="none" stroke="#000" stroke-linecap="round" stroke-linejoin="round" stroke-miterlimit="10" stroke-width="1.201"/>
          <path id="Trazado_218184" data-name="Trazado 218184" d="M23.543,17.435a1.841,1.841,0,0,1-1.623-.968c-.722-1.34-3.045-2.781-6.438-2.781s-5.716,1.442-6.438,2.782A1.842,1.842,0,0,1,5.8,14.719C7.347,11.854,11.147,10,15.482,10s8.135,1.851,9.68,4.717a1.843,1.843,0,0,1-1.619,2.716Z" fill="none" stroke="#000" stroke-linecap="round" stroke-linejoin="round" stroke-miterlimit="10" stroke-width="1.201"/>
          <path id="Trazado_218185" data-name="Trazado 218185" d="M10.926,8.175A8.9,8.9,0,0,0,6.482,13.7" fill="none" stroke="#000" stroke-linecap="round" stroke-linejoin="round" stroke-miterlimit="10" stroke-width="1.201"/>
          <path id="Trazado_218186" data-name="Trazado 218186" d="M24.48,13.693a9.449,9.449,0,0,0-9.014-6.718,9,9,0,0,0-1.913.209" fill="none" stroke="#000" stroke-linecap="round" stroke-linejoin="round" stroke-miterlimit="10" stroke-width="1.201"/>
          <path id="Trazado_218187" data-name="Trazado 218187" d="M37.314,24.951V7.179A1.382,1.382,0,0,0,35.932,5.8H24.967a1.382,1.382,0,0,0-1.382,1.382v4.373" fill="none" stroke="#000" stroke-linecap="round" stroke-linejoin="round" stroke-miterlimit="10" stroke-width="1.201"/>
          <path id="Trazado_218188" data-name="Trazado 218188" d="M23.586,20.314V30.15a1.382,1.382,0,0,0,1.382,1.382H35.932a1.382,1.382,0,0,0,1.382-1.382v-2.4" fill="none" stroke="#000" stroke-linecap="round" stroke-linejoin="round" stroke-miterlimit="10" stroke-width="1.201"/>
          <path id="Trazado_218189" data-name="Trazado 218189" d="M22.683,2.745A2.183,2.183,0,0,0,20.5,4.927v3.53" fill="none" stroke="#000" stroke-linecap="round" stroke-linejoin="round" stroke-miterlimit="10" stroke-width="1.201"/>
          <path id="Trazado_218190" data-name="Trazado 218190" d="M20.5,22.148V32.4a2.183,2.183,0,0,0,2.183,2.183" fill="none" stroke="#000" stroke-linecap="round" stroke-linejoin="round" stroke-miterlimit="10" stroke-width="1.201"/>
          <path id="Trazado_218191" data-name="Trazado 218191" d="M11.645,23.1A7.034,7.034,0,0,0,9.91,25.471" fill="none" stroke="#000" stroke-linecap="round" stroke-linejoin="round" stroke-miterlimit="10" stroke-width="1.201"/>
        </g>
      </g>
    </g>
    <g id="Enmascarar_grupo_602" data-name="Enmascarar grupo 602" transform="translate(0 -3)" clip-path="url(#clip-path-3)">
      <g id="compliments" transform="translate(931.633 3633.633)">
        <circle id="Elipse_4912" data-name="Elipse 4912" cx="4.1" cy="4.1" r="4.1" transform="translate(30.75 23.917)" fill="#f4b34a"/>
        <path id="Trazado_218130" data-name="Trazado 218130" d="M28.017,41.683H41.683V38.95a6.833,6.833,0,0,0-13.667,0Z" fill="#f4b34a"/>
        <path id="Trazado_218131" data-name="Trazado 218131" d="M2.05,41.683H15.717V38.95a6.833,6.833,0,0,0-13.667,0Z" fill="#4ac3ed"/>
        <circle id="Elipse_4913" data-name="Elipse 4913" cx="4.1" cy="4.1" r="4.1" transform="translate(4.783 23.917)" fill="#4ac3ed"/>
        <path id="Trazado_218132" data-name="Trazado 218132" d="M31.433,19.817H17.767l-4.1,3.417V19.817H4.783A2.733,2.733,0,0,1,2.05,17.083V4.783A2.733,2.733,0,0,1,4.783,2.05h26.65a2.733,2.733,0,0,1,2.733,2.733v12.3A2.733,2.733,0,0,1,31.433,19.817Z" fill="#eae8e5"/>
        <circle id="Elipse_4914" data-name="Elipse 4914" cx="5.467" cy="5.467" r="5.467" transform="translate(5.467 5.467)" fill="#4ac3ed"/>
        <path id="Trazado_218133" data-name="Trazado 218133" d="M26.222,6.956l-.938.973-.938-.973a2.585,2.585,0,0,0-3.751,0,2.828,2.828,0,0,0,0,3.894l.938.973,3.752,3.894,3.751-3.894.938-.973a2.828,2.828,0,0,0,0-3.894A2.585,2.585,0,0,0,26.222,6.956Z" fill="#e55648"/>
        <path id="Trazado_218134" data-name="Trazado 218134" d="M38.95,28.017a4.1,4.1,0,0,0-7.113-2.774C32.842,26.855,35.643,28.017,38.95,28.017Z" fill="#d6713a"/>
        <circle id="Elipse_4915" data-name="Elipse 4915" cx="1.708" cy="1.708" r="1.708" transform="translate(36.9 21.867)" fill="#d6713a"/>
        <path id="Trazado_218135" data-name="Trazado 218135" d="M8.883,23.917a4.1,4.1,0,0,1,3.862,2.733h2.972v1.367H4.783A4.1,4.1,0,0,1,8.883,23.917Z" fill="#304b68"/>
        <g id="Grupo_995847" data-name="Grupo 995847">
          <path id="Trazado_218136" data-name="Trazado 218136" d="M11.61,31.946a4.782,4.782,0,0,0,2.057-3.929h2.05V26.65H13.468a4.784,4.784,0,1,0-7.312,5.3,7.525,7.525,0,0,0-4.79,7v2.733a.685.685,0,0,0,.683.683H15.717a.685.685,0,0,0,.683-.683V38.95A7.525,7.525,0,0,0,11.61,31.946ZM8.883,24.6a3.436,3.436,0,0,1,3.137,2.05H5.747A3.436,3.436,0,0,1,8.883,24.6ZM5.467,28.017H12.3a3.417,3.417,0,1,1-6.833,0ZM15.033,41H2.733V38.95a6.15,6.15,0,1,1,12.3,0Z"/>
          <path id="Trazado_218137" data-name="Trazado 218137" d="M13.667,23.917a.683.683,0,0,1-.683-.683V20.5h-8.2a3.421,3.421,0,0,1-3.417-3.417V4.783A3.421,3.421,0,0,1,4.783,1.367h26.65A3.421,3.421,0,0,1,34.85,4.783v12.3A3.421,3.421,0,0,1,31.433,20.5H18.014L14.1,23.758A.682.682,0,0,1,13.667,23.917ZM4.783,2.733a2.053,2.053,0,0,0-2.05,2.05v12.3a2.053,2.053,0,0,0,2.05,2.05h8.883a.683.683,0,0,1,.683.683v1.958l2.979-2.483a.684.684,0,0,1,.438-.159H31.433a2.053,2.053,0,0,0,2.05-2.05V4.783a2.053,2.053,0,0,0-2.05-2.05Z"/>
          <path id="Trazado_218138" data-name="Trazado 218138" d="M10.933,17.083a6.15,6.15,0,1,1,6.15-6.15A6.157,6.157,0,0,1,10.933,17.083Zm0-10.933a4.783,4.783,0,1,0,4.783,4.783A4.789,4.789,0,0,0,10.933,6.15Z"/>
          <path id="Trazado_218139" data-name="Trazado 218139" d="M8.2,8.883H9.567V10.25H8.2Z"/>
          <path id="Trazado_218140" data-name="Trazado 218140" d="M12.3,8.883h1.367V10.25H12.3Z"/>
          <path id="Trazado_218141" data-name="Trazado 218141" d="M10.933,14.35A2.736,2.736,0,0,1,8.2,11.617H9.567a1.367,1.367,0,0,0,2.733,0h1.367A2.736,2.736,0,0,1,10.933,14.35Z"/>
          <path id="Trazado_218142" data-name="Trazado 218142" d="M25.283,16.4a.683.683,0,0,1-.492-.209L20.1,11.324a3.52,3.52,0,0,1,0-4.841A3.265,3.265,0,0,1,22.47,5.467h0a3.264,3.264,0,0,1,2.367,1.015l.446.463.446-.463a3.267,3.267,0,0,1,4.736,0,3.521,3.521,0,0,1,0,4.841l-4.69,4.867A.681.681,0,0,1,25.283,16.4ZM22.47,6.833a1.913,1.913,0,0,0-1.384.6,2.14,2.14,0,0,0,0,2.945l4.2,4.356,4.2-4.356a2.141,2.141,0,0,0,0-2.945,1.947,1.947,0,0,0-2.768,0l-.938.973a.7.7,0,0,1-.983,0l-.938-.973a1.913,1.913,0,0,0-1.384-.6Z"/>
          <path id="Trazado_218143" data-name="Trazado 218143" d="M37.576,31.946a4.782,4.782,0,0,0,2.057-3.929,4.666,4.666,0,0,0-.5-2.111,2.39,2.39,0,1,0-2.911-2.474,4.785,4.785,0,0,0-4.1,8.514,7.525,7.525,0,0,0-4.79,7v2.733a.685.685,0,0,0,.683.683H41.683a.685.685,0,0,0,.683-.683V38.95A7.525,7.525,0,0,0,37.576,31.946Zm1.032-9.4a1.025,1.025,0,1,1-1.025,1.025A1.024,1.024,0,0,1,38.608,22.55ZM34.85,24.6a3.422,3.422,0,0,1,3.342,2.706,8.42,8.42,0,0,1-5.433-1.989A3.381,3.381,0,0,1,34.85,24.6Zm-2.733,5.467a3.376,3.376,0,0,1-.683-2.05,3.413,3.413,0,0,1,.431-1.66,9.766,9.766,0,0,0,6.341,2.323,3.422,3.422,0,0,1-4.8,2.433A2.725,2.725,0,0,0,34.85,28.7H33.483A1.371,1.371,0,0,1,32.117,30.067ZM41,41H28.7V38.95a6.15,6.15,0,1,1,12.3,0Z"/>
          <path id="Trazado_218144" data-name="Trazado 218144" d="M34.167,34.167h1.367v1.367H34.167Z"/>
          <path id="Trazado_218145" data-name="Trazado 218145" d="M34.167,36.9h1.367v1.367H34.167Z"/>
        </g>
      </g>
    </g>
    <g id="Enmascarar_grupo_603" data-name="Enmascarar grupo 603" transform="translate(0 -3)" clip-path="url(#clip-path-4)">
      <g id="carretilla" transform="translate(719.444 3700.443)">
        <g id="Grupo_995849" data-name="Grupo 995849">
          <path id="Trazado_218146" data-name="Trazado 218146" d="M27.525,8.528H25.707v6.923a.288.288,0,0,1-.314.247h-2.83a.288.288,0,0,1-.314-.247V8.528H20.588c-.258,0-.406-.23-.252-.394L23.8,4.408a.374.374,0,0,1,.51,0l3.466,3.726c.154.164.006.394-.252.394Z" fill="#fc5f65"/>
          <path id="Trazado_218147" data-name="Trazado 218147" d="M37.68,8.528H35.863v6.923a.288.288,0,0,1-.314.247h-2.83a.288.288,0,0,1-.314-.247V8.528H30.743c-.258,0-.406-.23-.252-.394l3.466-3.726a.374.374,0,0,1,.51,0l3.466,3.726c.154.164.006.394-.252.394Z" fill="#fc5f65"/>
          <path id="Trazado_218148" data-name="Trazado 218148" d="M36.295,35.791a1.5,1.5,0,0,1-1.5,1.5h-16.7a1.5,1.5,0,0,1-1.4-2.052l1.669-4.285L12.043,14.629H8.6a1.5,1.5,0,0,1,0-3.007h4.473a1.508,1.508,0,0,1,1.406.962l2.143,5.54,2.3,5.946,2.451,6.345a1.479,1.479,0,0,1,.053.9.772.772,0,0,1-.053.188l-1.09,2.781H34.791A1.5,1.5,0,0,1,36.295,35.791Z" fill="#fcf0fe"/>
          <circle id="Elipse_4916" data-name="Elipse 4916" cx="3.234" cy="3.234" r="3.234" transform="translate(14.853 37.336)" fill="#5f5f6b"/>
          <circle id="Elipse_4917" data-name="Elipse 4917" cx="3.234" cy="3.234" r="3.234" transform="translate(29.627 37.336)" fill="#5f5f6b"/>
          <path id="Trazado_218149" data-name="Trazado 218149" d="M41.016,18.636,37.242,28.815a1.4,1.4,0,0,1-1.158.9l-14.659,1.6a1.479,1.479,0,0,0-.053-.9L16.621,18.125h.008c.293-.023,24.109.511,24.387.511Z" fill="#85c9f8"/>
          <path id="Trazado_218150" data-name="Trazado 218150" d="M21.425,31.318l1.918-.21a3.277,3.277,0,0,0-.218-1.37l-2.451-6.346-2.025-5.235c-1.209-.023-1.97-.037-2.021-.032h-.008l4.751,12.291A1.474,1.474,0,0,1,21.425,31.318Z" fill="#62b1dd"/>
          <g id="Grupo_995848" data-name="Grupo 995848">
            <path id="Trazado_218151" data-name="Trazado 218151" d="M41.632,18.208a.749.749,0,0,0-.616-.323c-.128,0-2.406-.053-5.525-.12-2.353-.053-4.405-.1-6.225-.135h-.008c-2.992-.068-5.3-.113-7.074-.15h-.023c-2.864-.06-4.33-.09-5.022-.1l-1.962-5.067a2.238,2.238,0,0,0-2.1-1.443H8.6a2.255,2.255,0,0,0,0,4.511h2.932l6.014,15.576-1.564,4.014a2.246,2.246,0,0,0,.241,2.09.007.007,0,0,0,.008.008,3.988,3.988,0,1,0,4.916.977H29.8a3.948,3.948,0,0,0-.925,2.526,3.984,3.984,0,1,0,7.969,0,3.948,3.948,0,0,0-1.105-2.744,2.25,2.25,0,0,0-.947-4.293h-13.4l.586-1.526,14.193-1.549a2.107,2.107,0,0,0,1.774-1.383L41.722,18.9a.778.778,0,0,0-.09-.692Zm-20.087.767,1.331,4.345H19.433l-1.706-4.428c.872.023,2.21.045,3.819.083ZM18.087,43.053a2.481,2.481,0,1,1,2.481-2.481A2.483,2.483,0,0,1,18.087,43.053Zm14.772,0a2.481,2.481,0,1,1,2.481-2.481A2.483,2.483,0,0,1,32.859,43.053Zm1.932-8.014a.752.752,0,0,1,0,1.5h-16.7a.763.763,0,0,1-.624-.323.772.772,0,0,1-.075-.7l1.669-4.293a.747.747,0,0,0,0-.541L12.75,14.359a.75.75,0,0,0-.707-.481H8.6a.752.752,0,0,1,0-1.5h4.473a.75.75,0,0,1,.707.481l6.886,17.832a.747.747,0,0,1,0,.541l-1.083,2.789a.756.756,0,0,0,.7,1.022ZM22.169,30.476a2.753,2.753,0,0,0-.1-.331l-2.06-5.322h3.3L24.733,30.2Zm6.345-.692-2.27.248-1.376-5.21h3.646Zm0-6.465H24.447L23.124,19c1.684.038,3.541.075,5.39.113Zm1.5-4.172c1.917.045,3.759.083,5.3.113l-1.24,4.059H30.018Zm2.443,10.209-2.443.271v-4.8h3.638Zm4.075-.8a.647.647,0,0,1-.534.421l-1.94.21,1.15-4.36h2.706Zm1.94-5.232H35.648L36.881,19.3l3.06.068Z"/>
            <path id="Trazado_218152" data-name="Trazado 218152" d="M19.388,40.572a1.3,1.3,0,1,1-1.3-1.308A1.3,1.3,0,0,1,19.388,40.572Z"/>
            <path id="Trazado_218153" data-name="Trazado 218153" d="M34.167,40.572a1.3,1.3,0,1,1-1.308-1.308A1.307,1.307,0,0,1,34.167,40.572Z"/>
            <path id="Trazado_218154" data-name="Trazado 218154" d="M20.588,9.28H21.5v6.171a1.036,1.036,0,0,0,1.066,1h2.831a1.036,1.036,0,0,0,1.066-1V9.28h1.066a1.062,1.062,0,0,0,.988-.622.947.947,0,0,0-.186-1.035L24.858,3.893a1.161,1.161,0,0,0-1.607,0L19.788,7.619a.948.948,0,0,0-.189,1.04,1.064,1.064,0,0,0,.989.621Zm3.469-4.041,2.361,2.538h-.71a.751.751,0,0,0-.752.752v6.419H23V8.528a.752.752,0,0,0-.752-.752H21.7Z"/>
            <path id="Trazado_218155" data-name="Trazado 218155" d="M30.743,9.28h.909v6.171a1.036,1.036,0,0,0,1.066,1h2.831a1.036,1.036,0,0,0,1.066-1V9.28h1.066a1.062,1.062,0,0,0,.988-.621.949.949,0,0,0-.186-1.036L35.015,3.894a1.1,1.1,0,0,0-.8-.338h0a1.1,1.1,0,0,0-.805.341L29.945,7.619a.949.949,0,0,0-.189,1.039A1.059,1.059,0,0,0,30.743,9.28Zm3.469-4.041,2.361,2.538h-.71a.751.751,0,0,0-.752.752v6.419H33.155V8.528a.751.751,0,0,0-.752-.752h-.552Z"/>
          </g>
        </g>
      </g>
    </g>
    <g id="Enmascarar_grupo_600" data-name="Enmascarar grupo 600" transform="translate(0 -3)" clip-path="url(#clip-path-5)">
      <g id="surface1" transform="translate(512.854 3355)">
        <path id="Trazado_218114" data-name="Trazado 218114" d="M28.037,32.224a5.245,5.245,0,1,0-3.7,1.53A5.248,5.248,0,0,0,28.037,32.224Zm-.974-13.758a10.866,10.866,0,1,1-1.521-.111A12.867,12.867,0,0,1,27.063,18.466Zm0,0" fill="#fedb41"/>
        <path id="Trazado_218115" data-name="Trazado 218115" d="M28.037,32.224a5.221,5.221,0,1,1,1.547-3.7A5.191,5.191,0,0,1,28.037,32.224Zm0,0" fill="#fedb41"/>
        <path id="Trazado_218116" data-name="Trazado 218116" d="M27.063,18.466a11.2,11.2,0,0,0-1.521-.1,10.9,10.9,0,0,0-9.579,16.091l-.017.009H4.58A3.76,3.76,0,0,1,.82,30.7V4.623A3.76,3.76,0,0,1,4.58.863H18.372V7.084a2.9,2.9,0,0,0,2.905,2.905h5.785Zm0,0" fill="#00acea"/>
        <path id="Trazado_218117" data-name="Trazado 218117" d="M18.372.863l8.69,9.126H21.278a2.9,2.9,0,0,1-2.905-2.905Zm0,0" fill="#00efd1"/>
        <path id="Trazado_218118" data-name="Trazado 218118" d="M27.943,17.749V9.989A.9.9,0,0,0,27.7,9.4L19,.265A.867.867,0,0,0,18.372,0H4.58A4.6,4.6,0,0,0,0,4.623V30.7a4.566,4.566,0,0,0,4.58,4.589H15.467A11.618,11.618,0,0,0,25.542,41a11.748,11.748,0,0,0,2.4-23.251ZM19.227,3l5.836,6.144H21.278a2.064,2.064,0,0,1-2.051-2.059V3ZM1.709,30.7V4.623A2.887,2.887,0,0,1,4.58,1.709H17.518V7.084a3.767,3.767,0,0,0,3.76,3.768h4.956v6.674c-.256-.008-.462-.043-.684-.043a11.923,11.923,0,0,0-7.793,2.939H6.9a.855.855,0,0,0,0,1.709h9.263a13.6,13.6,0,0,0-1.5,2.649H6.9a.854.854,0,1,0,0,1.709h7.2a11.5,11.5,0,0,0-.325,2.752,11.7,11.7,0,0,0,.829,4.341H4.58A2.863,2.863,0,0,1,1.709,30.7Zm23.833,8.6a10.041,10.041,0,1,1-.009-20.082,10.936,10.936,0,0,1,1.4.094A10.043,10.043,0,0,1,25.542,39.3Zm0,0"/>
        <path id="Trazado_218119" data-name="Trazado 218119" d="M6.9,17.86h8.656a.855.855,0,1,0,0-1.709H6.9a.855.855,0,1,0,0,1.709Zm0,0"/>
        <path id="Trazado_218120" data-name="Trazado 218120" d="M29.208,32.181a6.067,6.067,0,1,0-1.213,1.213l2.512,2.5a.867.867,0,0,0,1.214,0,.851.851,0,0,0,0-1.2Zm-9.263-3.657a4.392,4.392,0,0,1,8.784,0,4.33,4.33,0,0,1-1.29,3.093,4.393,4.393,0,0,1-7.494-3.093Zm0,0"/>
      </g>
    </g>
    <g id="Enmascarar_grupo_599" data-name="Enmascarar grupo 599" transform="translate(0 -3)" clip-path="url(#clip-path-6)">
      <g id="before-after" transform="translate(933 3355)">
        <path id="Trazado_218087" data-name="Trazado 218087" d="M20.5,36.678H2.218A1.618,1.618,0,0,1,.6,35.061V5.939A1.618,1.618,0,0,1,2.218,4.322H20.5Z" fill="#688ed5"/>
        <path id="Trazado_218088" data-name="Trazado 218088" d="M20.5,36.678H38.782A1.618,1.618,0,0,0,40.4,35.061V5.939a1.618,1.618,0,0,0-1.618-1.618H20.5Z" fill="#fe73c5"/>
        <path id="Trazado_218089" data-name="Trazado 218089" d="M35.486,25.988C30.955,30.519,25.41,33.028,20.5,33.23v3.448H38.782A1.618,1.618,0,0,0,40.4,35.061V19.307A26.87,26.87,0,0,1,35.486,25.988Z" fill="#fe4fb7"/>
        <path id="Trazado_218090" data-name="Trazado 218090" d="M15.587,25.988C11.056,30.519,5.51,33.028.6,33.23v3.448H18.882A1.618,1.618,0,0,0,20.5,35.061V19.307A26.87,26.87,0,0,1,15.587,25.988Z" fill="#4172ca"/>
        <path id="Trazado_218091" data-name="Trazado 218091" d="M20.5,40.4a1.294,1.294,0,0,1-1.294-1.294V1.895a1.294,1.294,0,1,1,2.589,0v37.21A1.294,1.294,0,0,1,20.5,40.4Z" fill="#d3eefd"/>
        <g id="Grupo_995834" data-name="Grupo 995834">
          <circle id="Elipse_4911" data-name="Elipse 4911" cx="6.565" cy="6.565" r="6.565" transform="translate(24.532 13.935)" fill="#9be69d"/>
          <path id="Trazado_218092" data-name="Trazado 218092" d="M34.732,15.033a6.565,6.565,0,0,1-9.1,9.1,6.565,6.565,0,1,0,9.1-9.1Z" fill="#6fd7a3"/>
          <path id="Trazado_218093" data-name="Trazado 218093" d="M34.449,20.046a1.343,1.343,0,0,0-1.9-1.9l-2.206,2.206-.455-.455a1.343,1.343,0,1,0-1.9,1.9l1.428,1.382a1.343,1.343,0,0,0,1.9,0Z" fill="#e5f6fd"/>
        </g>
        <g id="Grupo_995835" data-name="Grupo 995835">
          <path id="Trazado_218094" data-name="Trazado 218094" d="M30.008,36.078H28.746a.6.6,0,1,0,0,1.2h1.262a.6.6,0,1,0,0-1.2Z"/>
          <path id="Trazado_218095" data-name="Trazado 218095" d="M37.581,36.078H36.319a.6.6,0,0,0,0,1.2h1.262a.6.6,0,0,0,0-1.2Z"/>
          <path id="Trazado_218096" data-name="Trazado 218096" d="M26.221,36.078H24.959a.6.6,0,0,0,0,1.2h1.262a.6.6,0,0,0,0-1.2Z"/>
          <path id="Trazado_218097" data-name="Trazado 218097" d="M33.795,36.078H32.532a.6.6,0,0,0,0,1.2h1.262a.6.6,0,0,0,0-1.2Z"/>
          <path id="Trazado_218098" data-name="Trazado 218098" d="M36.322,4.922h1.262a.6.6,0,0,0,0-1.2H36.322a.6.6,0,0,0,0,1.2Z"/>
          <path id="Trazado_218099" data-name="Trazado 218099" d="M24.963,4.922h1.262a.6.6,0,0,0,0-1.2H24.963a.6.6,0,0,0,0,1.2Z"/>
          <path id="Trazado_218100" data-name="Trazado 218100" d="M28.749,4.922h1.262a.6.6,0,0,0,0-1.2H28.749a.6.6,0,0,0,0,1.2Z"/>
          <path id="Trazado_218101" data-name="Trazado 218101" d="M40.4,26.843a.6.6,0,0,0-.6.6v1.262a.6.6,0,1,0,1.2,0V27.444A.6.6,0,0,0,40.4,26.843Z"/>
          <path id="Trazado_218102" data-name="Trazado 218102" d="M40.4,11.7a.6.6,0,0,0-.6.6V13.56a.6.6,0,0,0,1.2,0V12.3A.6.6,0,0,0,40.4,11.7Z"/>
          <path id="Trazado_218103" data-name="Trazado 218103" d="M40.4,15.483a.6.6,0,0,0-.6.6v1.262a.6.6,0,0,0,1.2,0V16.084A.6.6,0,0,0,40.4,15.483Z"/>
          <path id="Trazado_218104" data-name="Trazado 218104" d="M40.4,34.416a.6.6,0,0,0-.6.6v.044a1.014,1.014,0,0,1-.275.7.6.6,0,1,0,.876.821,2.21,2.21,0,0,0,.6-1.517v-.044A.6.6,0,0,0,40.4,34.416Z"/>
          <path id="Trazado_218105" data-name="Trazado 218105" d="M40.4,7.91a.6.6,0,0,0-.6.6V9.773a.6.6,0,1,0,1.2,0V8.511A.6.6,0,0,0,40.4,7.91Z"/>
          <path id="Trazado_218106" data-name="Trazado 218106" d="M40.4,30.63a.6.6,0,0,0-.6.6v1.262a.6.6,0,0,0,1.2,0V31.23A.6.6,0,0,0,40.4,30.63Z"/>
          <path id="Trazado_218107" data-name="Trazado 218107" d="M32.536,4.922H33.8a.6.6,0,0,0,0-1.2H32.536a.6.6,0,1,0,0,1.2Z"/>
          <path id="Trazado_218108" data-name="Trazado 218108" d="M40.4,19.27a.6.6,0,0,0-.6.6v1.262a.6.6,0,1,0,1.2,0V19.871A.6.6,0,0,0,40.4,19.27Z"/>
          <path id="Trazado_218109" data-name="Trazado 218109" d="M40.4,4.426a.6.6,0,1,0-.878.82,1.013,1.013,0,0,1,.273.694v.047a.6.6,0,0,0,1.2,0V5.94a2.211,2.211,0,0,0-.6-1.514Z"/>
          <path id="Trazado_218110" data-name="Trazado 218110" d="M40.4,23.057a.6.6,0,0,0-.6.6v1.262a.6.6,0,0,0,1.2,0V23.657A.6.6,0,0,0,40.4,23.057Z"/>
          <path id="Trazado_218111" data-name="Trazado 218111" d="M22.435,4.922a.6.6,0,0,0,0-1.2h-.04V1.895a1.895,1.895,0,0,0-3.789,0V3.721H2.218A2.221,2.221,0,0,0,0,5.939v2.8a.6.6,0,0,0,1.2,0v-2.8A1.018,1.018,0,0,1,2.218,4.922H18.605V26.343a.6.6,0,1,0,1.2,0V1.895a.693.693,0,0,1,1.387,0V39.105a.693.693,0,1,1-1.387,0V29.146a.6.6,0,0,0-1.2,0v6.932H2.218A1.018,1.018,0,0,1,1.2,35.061V11.545a.6.6,0,1,0-1.2,0V35.061a2.221,2.221,0,0,0,2.218,2.218H18.605v1.827a1.895,1.895,0,1,0,3.789,0V37.279h.04a.6.6,0,1,0,0-1.2h-.04V4.922Z"/>
          <path id="Trazado_218112" data-name="Trazado 218112" d="M35.882,15.167a.6.6,0,0,0-.8.894A5.944,5.944,0,1,1,32.87,14.8a.6.6,0,0,0,.358-1.147,7.172,7.172,0,1,0,2.655,1.51Z"/>
          <path id="Trazado_218113" data-name="Trazado 218113" d="M32.125,17.722,30.344,19.5l-.031-.031a1.943,1.943,0,0,0-2.748,2.748l.007.007L29,23.606a1.945,1.945,0,0,0,2.744,0l3.132-3.132h0a1.943,1.943,0,0,0-2.748-2.748Zm1.9,1.9-3.132,3.132a.743.743,0,0,1-1.05,0l-.007-.007-1.424-1.378a.742.742,0,0,1,1.052-1.047l.455.455a.6.6,0,0,0,.849,0l2.206-2.206a.742.742,0,1,1,1.05,1.05Z"/>
        </g>
      </g>
    </g>
    <g id="Enmascarar_grupo_606" data-name="Enmascarar grupo 606" transform="translate(0 -3)" clip-path="url(#clip-path-7)">
      <g id="g303" transform="translate(303 3465)">
        <g id="g305">
          <g id="g307" clip-path="url(#clip-path-8)">
            <g id="g313" transform="translate(40.199 -20.5)">
              <path id="path315" d="M0,0A19.7,19.7,0,0,1-19.7,19.7,19.7,19.7,0,0,1-39.4,0,19.7,19.7,0,0,1-19.7-19.7,19.7,19.7,0,0,1,0,0" fill="#faf7f5"/>
            </g>
            <g id="g317" transform="translate(39.95 -16.874)">
              <path id="path319" d="M0,0A19.7,19.7,0,0,1-19.366,16.073a19.7,19.7,0,0,1-19.7-19.7,19.7,19.7,0,0,1,19.7-19.7A19.7,19.7,0,0,1,0-7.271" fill="none" stroke="#000" stroke-linecap="round" stroke-linejoin="round" stroke-miterlimit="10" stroke-width="1.602"/>
            </g>
            <g id="g321" transform="translate(40.116 -20.5)">
              <path id="path323" d="M0,0H0" fill="none" stroke="#000" stroke-linecap="round" stroke-linejoin="round" stroke-miterlimit="10" stroke-width="1.602"/>
            </g>
            <g id="g325" transform="translate(35.863 -20.5)">
              <path id="path327" d="M0,0A15.363,15.363,0,0,1-15.363,15.363,15.363,15.363,0,0,1-30.726,0,15.363,15.363,0,0,1-15.363-15.363,15.363,15.363,0,0,1,0,0" fill="#a0e5a5"/>
            </g>
            <g id="g329" transform="translate(35.863 -20.5)">
              <path id="path331" d="M0,0A15.363,15.363,0,0,1-15.363,15.363,15.363,15.363,0,0,1-30.726,0,15.363,15.363,0,0,1-15.363-15.363,15.363,15.363,0,0,1,0,0Z" fill="none" stroke="#000" stroke-linecap="round" stroke-linejoin="round" stroke-miterlimit="10" stroke-width="1.602"/>
            </g>
            <g id="g333" transform="translate(19.178 -23.504)">
              <path id="path335" d="M0,0V-1.7A1.885,1.885,0,0,1,2.947-3.256l6.889,4.7a1.885,1.885,0,0,1,0,3.113l-6.889,4.7A1.885,1.885,0,0,1,0,7.707V6.093" fill="#faf7f5" stroke="#000" stroke-linecap="round" stroke-linejoin="round" stroke-miterlimit="10" stroke-width="1.602"/>
            </g>
            <g id="g337" transform="translate(21 -18.944)">
              <path id="path339" d="M0,0-6.889,4.7A1.885,1.885,0,0,1-9.836,3.147V-6.26A1.885,1.885,0,0,1-6.889-7.816L0-3.113A1.884,1.884,0,0,1,0,0" fill="#faf7f5"/>
            </g>
            <g id="g341" transform="translate(21 -18.944)">
              <path id="path343" d="M0,0-6.889,4.7A1.885,1.885,0,0,1-9.836,3.147V-6.26A1.885,1.885,0,0,1-6.889-7.816L0-3.113A1.884,1.884,0,0,1,0,0Z" fill="none" stroke="#000" stroke-linecap="round" stroke-linejoin="round" stroke-miterlimit="10" stroke-width="1.602"/>
            </g>
          </g>
        </g>
      </g>
    </g>
    <g id="Trazado_219649" data-name="Trazado 219649" transform="translate(1143 3421)" fill="#fff">
      <path d="M41,41h0Z" stroke="none"/>
      <path d="M 0 41 L 41 41 L 0 41 Z" stroke="none" fill="#707070"/>
    </g>
    <g id="Enmascarar_grupo_605" data-name="Enmascarar grupo 605" transform="translate(0 -3)" clip-path="url(#clip-path-9)">
      <g id="arrow-up" transform="translate(302.995 3565.994)">
        <path id="Trazado_218192" data-name="Trazado 218192" d="M37.167,17.943a5.111,5.111,0,0,0-1.5-3.625L24.131,2.783a5.126,5.126,0,0,0-7.25,0L5.346,14.318a5.126,5.126,0,0,0,7.25,7.25l7.91-7.91,7.91,7.91a5.127,5.127,0,0,0,8.751-3.625Z" fill="#b4f78d"/>
        <path id="Trazado_218193" data-name="Trazado 218193" d="M25.633,34.6V13.457a5.127,5.127,0,1,0-10.253,0V34.6a5.127,5.127,0,1,0,10.253,0Z" fill="#b4f78d"/>
        <path id="Trazado_218194" data-name="Trazado 218194" d="M12.547,17.872c-1.391,1.224-3.364,4.12-5.5,3.909a3.521,3.521,0,0,1-2.057-.6,5.137,5.137,0,0,0,6.966.929c.077-.077,2.781-3.332,2.781-3.332a1.293,1.293,0,0,0-2.192-.9Zm22.1-4.467L23.48,2.236a5.2,5.2,0,0,0-6.991.936,3.878,3.878,0,0,1,4.813.513L32.836,15.219a3.848,3.848,0,0,1-4.845,5.928l.423.423a5.134,5.134,0,0,0,6.5.622,6.439,6.439,0,0,0-.263-8.786Zm-12.22,5.37V34.6a3.844,3.844,0,0,1-5.889,3.255,5.175,5.175,0,0,0,6.831,1A6.4,6.4,0,0,0,24.992,34.6l.641-15.706-1.019-1.019a1.289,1.289,0,0,0-2.185.9Z" opacity="0.1"/>
        <path id="Trazado_218195" data-name="Trazado 218195" d="M38.448,17.937a6.365,6.365,0,0,0-1.877-4.531L25.036,1.871a6.438,6.438,0,0,0-9.063,0L4.439,13.406A6.408,6.408,0,0,0,8.97,24.345,6.745,6.745,0,0,0,14.1,21.873V34.6a6.408,6.408,0,0,0,12.816,0V21.873a6.538,6.538,0,0,0,9.658.6,6.366,6.366,0,0,0,1.877-4.531Zm-33.321,0a3.834,3.834,0,0,1,1.124-2.719L17.786,3.683a3.863,3.863,0,0,1,5.437,0L34.758,15.218a3.845,3.845,0,1,1-5.437,5.438l-2.784-2.783a1.29,1.29,0,0,0-2.188.906V34.6a3.845,3.845,0,0,1-7.69,0V18.778a1.29,1.29,0,0,0-2.188-.906c-1.393,1.224-3.365,4.12-5.5,3.909a3.872,3.872,0,0,1-3.843-3.845Z"/>
      </g>
    </g>
    <g id="Enmascarar_grupo_601" data-name="Enmascarar grupo 601" transform="translate(0 -3)" clip-path="url(#clip-path-10)">
      <g id="iniciar-sesion" transform="translate(1147.415 3566)">
        <path id="Trazado_218121" data-name="Trazado 218121" d="M17.9,34.5H6.817a2.542,2.542,0,0,1-2.542-2.542V3.136A2.542,2.542,0,0,1,6.817.594H31.53Zm0,0" fill="#494a59"/>
        <path id="Trazado_218122" data-name="Trazado 218122" d="M15.5,9.817V34.5h2.4L31.53.594H26.663L18.009,5.507A4.965,4.965,0,0,0,15.5,9.817Zm0,0" fill="#3f404d"/>
        <path id="Trazado_218123" data-name="Trazado 218123" d="M6.931,3.249H28.117V31.843H6.931Zm0,0" fill="#ecebed"/>
        <path id="Trazado_218124" data-name="Trazado 218124" d="M18.97,31.843,28.117,9.086V3.249H21.987L18.009,5.507A4.965,4.965,0,0,0,15.5,9.817V31.843Zm0,0" fill="#dfdfe0"/>
        <path id="Trazado_218125" data-name="Trazado 218125" d="M19.2,7.6l12.335-7V34.5l-9.814,5.571a2.553,2.553,0,0,1-3.814-2.22V9.817A2.552,2.552,0,0,1,19.2,7.6Zm0,0" fill="#64c6fb"/>
        <path id="Trazado_218126" data-name="Trazado 218126" d="M24.337,22.373A1.873,1.873,0,1,1,22.464,20.5,1.873,1.873,0,0,1,24.337,22.373Zm0,0" fill="#ecebed"/>
        <path id="Trazado_218127" data-name="Trazado 218127" d="M1.835,16.434h7.7V15.116a.748.748,0,0,1,1.241-.563L15.625,18.8a.748.748,0,0,1,0,1.127l-4.853,4.243A.748.748,0,0,1,9.531,23.6V22.286h-7.7A1.194,1.194,0,0,1,.641,21.092V17.627a1.194,1.194,0,0,1,1.194-1.194Zm0,0" fill="#b6d97a"/>
        <path id="Trazado_218128" data-name="Trazado 218128" d="M19.991,22.38a2.474,2.474,0,1,0,2.473-2.474A2.476,2.476,0,0,0,19.991,22.38Zm3.746,0a1.272,1.272,0,1,1-1.272-1.272A1.274,1.274,0,0,1,23.737,22.38Zm0,0"/>
        <path id="Trazado_218129" data-name="Trazado 218129" d="M6.817,1.2h4.669a.6.6,0,1,0,0-1.2H6.817A3.146,3.146,0,0,0,3.675,3.142v12.7H1.835A1.8,1.8,0,0,0,.04,17.634V21.1a1.8,1.8,0,0,0,1.795,1.795h1.84v9.07a3.146,3.146,0,0,0,3.142,3.142H17.3v2.75A3.184,3.184,0,0,0,22.013,40.6l9.814-5.571a.6.6,0,0,0,.3-.522V29.9a.6.6,0,1,0-1.2,0v4.255l-9.509,5.4a1.971,1.971,0,0,1-2.917-1.7V9.824a1.982,1.982,0,0,1,.988-1.7L30.93,1.633V27.5a.6.6,0,1,0,1.2,0V.6a.611.611,0,0,0-.6-.6H13.89a.6.6,0,1,0,0,1.2H29.255L26.7,2.655H6.931a.6.6,0,0,0-.6.6V15.84H4.876V3.142A1.943,1.943,0,0,1,6.817,1.2Zm0,32.7a1.943,1.943,0,0,1-1.941-1.941v-9.07H6.33V31.85a.6.6,0,0,0,.6.6H17.3V33.9ZM7.531,3.856H24.579L18.9,7.081a3.159,3.159,0,0,0-1.6,2.743V31.249H7.531V22.893h1.4v.719a1.363,1.363,0,0,0,2.237,1.013l4.853-4.243a1.363,1.363,0,0,0,.1-1.93c-.033-.036-5.03-4.4-5.068-4.431a1.337,1.337,0,0,0-.909-.242h0a1.373,1.373,0,0,0-1.212,1.341v.719h-1.4Zm2,13.185a.6.6,0,0,0,.6-.6V15.123a.148.148,0,0,1,.244-.111l4.853,4.243a.149.149,0,0,1,0,.222l-4.855,4.245a.149.149,0,0,1-.242-.113V22.292a.608.608,0,0,0-.6-.6h-7.7a.594.594,0,0,1-.593-.593V17.634a.594.594,0,0,1,.593-.593Zm0,0"/>
      </g>
    </g>
    <g id="Grupo_995859" data-name="Grupo 995859" transform="translate(0 -3)">
      <rect id="Rectángulo_339646" data-name="Rectángulo 339646" width="190" height="69" rx="34.5" transform="translate(705 3495.203)" fill="#3c3fa7"/>
      <path id="Trazado_219670" data-name="Trazado 219670" d="M3.437-2.373H8.648L8.235,0H.018L2.232-12.8H5.247ZM14.291.176a4.334,4.334,0,0,1-3.2-1.318,5.369,5.369,0,0,1-1.362-3.41A9.748,9.748,0,0,1,9.9-7.036,8.723,8.723,0,0,1,10.8-9.668a6.625,6.625,0,0,1,1.626-2,5.561,5.561,0,0,1,3.762-1.3,4.627,4.627,0,0,1,2.29.6,4.2,4.2,0,0,1,1.569,1.657,5.951,5.951,0,0,1,.686,2.461,10.087,10.087,0,0,1-.119,2.219,9.146,9.146,0,0,1-.694,2.373A7.253,7.253,0,0,1,18.615-1.67,6,6,0,0,1,16.73-.3,5.453,5.453,0,0,1,14.291.176Zm3.428-8.455q-.088-2.2-1.705-2.285a2.353,2.353,0,0,0-2.065.989,6.347,6.347,0,0,0-1.081,3.1,10.815,10.815,0,0,0-.123,1.96q.088,2.232,1.723,2.294a2.283,2.283,0,0,0,1.846-.769,4.974,4.974,0,0,0,1.116-2.391A11.484,11.484,0,0,0,17.719-8.279ZM26.438.176a4.334,4.334,0,0,1-3.2-1.318,5.369,5.369,0,0,1-1.362-3.41,9.748,9.748,0,0,1,.167-2.483,8.723,8.723,0,0,1,.905-2.632,6.625,6.625,0,0,1,1.626-2,5.561,5.561,0,0,1,3.762-1.3,4.627,4.627,0,0,1,2.29.6,4.2,4.2,0,0,1,1.569,1.657,5.951,5.951,0,0,1,.686,2.461,10.087,10.087,0,0,1-.119,2.219,9.146,9.146,0,0,1-.694,2.373A7.253,7.253,0,0,1,30.762-1.67,6,6,0,0,1,28.876-.3,5.453,5.453,0,0,1,26.438.176Zm3.428-8.455q-.088-2.2-1.705-2.285a2.353,2.353,0,0,0-2.065.989,6.347,6.347,0,0,0-1.081,3.1,10.815,10.815,0,0,0-.123,1.96q.088,2.232,1.723,2.294a2.283,2.283,0,0,0,1.846-.769,4.974,4.974,0,0,0,1.116-2.391A11.484,11.484,0,0,0,29.865-8.279Zm8.578,3.551L36.879-3.261,36.308,0H33.3l2.215-12.8h3.015l-.958,5.476,1.248-1.521L42.144-12.8h3.9L40.737-7l2.944,7H40.245Z" transform="translate(777 3547.203)" fill="#fff"/>
      <g id="vision" transform="translate(760.579 3427.5)">
        <g id="Grupo_995856" data-name="Grupo 995856" transform="translate(16.579 7.5)">
          <path id="Trazado_218196" data-name="Trazado 218196" d="M318.038,237.3a36.7,36.7,0,0,1-15.5,16.858l-8.138-3.106,1.827-7.539A24.316,24.316,0,0,0,306.813,232.1a6.185,6.185,0,1,1,11.225,5.2Z" transform="translate(-244.984 -189.202)" fill="#fed2a4"/>
          <path id="Trazado_218197" data-name="Trazado 218197" d="M35.038,334.408c4.216-14.893,15.293-18.284,15.293-18.284l15.973.452.027.018,0-.014-.028,0a34.15,34.15,0,0,0,11.23-1.46A28.826,28.826,0,0,0,83,312.837l6.31,10.645a41.337,41.337,0,0,1-8.682,3.619,46.943,46.943,0,0,1-4.9,1.143V346.93H46.307Z" transform="translate(-31.755 -258.524)" fill="#5f66a5"/>
          <path id="Trazado_218198" data-name="Trazado 218198" d="M16.58,43.82V31.164A16.036,16.036,0,0,1,32.616,15.128H36.91s2.078-8.8,17.136-7.5c14.526,1.256,17.008,13.147,8.913,22.152a2.817,2.817,0,0,1-.9.641Z" transform="translate(-16.58 -7.5)" fill="#fd8aa4"/>
          <path id="Trazado_218199" data-name="Trazado 218199" d="M90.462,333.034a29.984,29.984,0,0,0,22.619-10.291q-.76.276-1.55.518a34.148,34.148,0,0,1-11.23,1.46l.028,0,0,.014-.027-.018-15.973-.452a21.334,21.334,0,0,0-7.937,5.261A29.859,29.859,0,0,0,90.462,333.034Z" transform="translate(-65.753 -266.668)" fill="#4c578c"/>
          <path id="Trazado_218200" data-name="Trazado 218200" d="M24.736,73.4A32.63,32.63,0,0,1,34.2,50.383h-1.58A16.036,16.036,0,0,0,16.581,66.419V79.075l8.314-2.449Q24.739,75.035,24.736,73.4Z" transform="translate(-16.581 -42.755)" fill="#f47090"/>
          <path id="Trazado_218201" data-name="Trazado 218201" d="M66,149.778a24.709,24.709,0,0,1-49.419,0l2.8-4.93a16.251,16.251,0,0,1,14.124-8.215H60.887a2.856,2.856,0,0,0,1.166-.249A24.572,24.572,0,0,1,66,149.778Z" transform="translate(-16.579 -113.458)" fill="#fed2a4"/>
          <path id="Trazado_218202" data-name="Trazado 218202" d="M38.883,434.1v12.522H26.008A45.753,45.753,0,0,1,27.614,434.1Z" transform="translate(-24.331 -358.221)" fill="#fed2a4"/>
          <path id="Trazado_218203" data-name="Trazado 218203" d="M250.605,172.435a6.2,6.2,0,0,0-6.2,6.2h0a6.2,6.2,0,0,0,6.2,6.2h13.54V172.435h-13.54Z" transform="translate(-203.883 -143.097)" fill="#cd8b84"/>
          <path id="Trazado_218204" data-name="Trazado 218204" d="M291.777,178.631a15.391,15.391,0,0,0,1.3,6.2h10.015V172.435H293.073A15.393,15.393,0,0,0,291.777,178.631Z" transform="translate(-242.825 -143.097)" fill="#c5807c"/>
          <path id="Trazado_218205" data-name="Trazado 218205" d="M352.587,229.091a6.186,6.186,0,0,0-8.212,3.013,25.313,25.313,0,0,1-4.283,6.494,15.385,15.385,0,0,0,6.885,1.618H354.1q.8-1.412,1.5-2.914A6.186,6.186,0,0,0,352.587,229.091Z" transform="translate(-282.546 -189.203)" fill="#ffbd86"/>
          <path id="Trazado_218206" data-name="Trazado 218206" d="M331.92,170.536a10.142,10.142,0,1,1,0-20.284h10.6v20.284Z" transform="translate(-267.49 -124.86)" fill="#cd8b84"/>
          <circle id="Elipse_4920" data-name="Elipse 4920" cx="10.142" cy="10.142" r="10.142" transform="translate(64.891 25.392)" fill="#fade98"/>
          <circle id="Elipse_4921" data-name="Elipse 4921" cx="3.779" cy="3.779" r="3.779" transform="translate(71.254 31.755)" fill="#5f66a5"/>
          <g id="Grupo_995855" data-name="Grupo 995855" transform="translate(12.173 37.035)">
            <g id="Grupo_995854" data-name="Grupo 995854">
              <g id="Grupo_995853" data-name="Grupo 995853">
                <ellipse id="Elipse_4922" data-name="Elipse 4922" cx="5.454" cy="4.343" rx="5.454" ry="4.343" fill="#fd8aa4"/>
              </g>
            </g>
          </g>
          <path id="Trazado_218207" data-name="Trazado 218207" d="M24.736,156a32.972,32.972,0,0,1,.4-5.147,16.239,16.239,0,0,0-5.755,5.891l-2.8,4.93A24.716,24.716,0,0,0,44.7,186.145,32.744,32.744,0,0,1,24.736,156Z" transform="translate(-16.58 -125.35)" fill="#ffbd86"/>
        </g>
        <g id="Grupo_995858" data-name="Grupo 995858" transform="translate(16.579 7.5)">
          <path id="Trazado_218208" data-name="Trazado 218208" d="M63.35,10.82a17.632,17.632,0,0,0-9.3-3.188c-15.057-1.3-17.135,7.5-17.135,7.5H32.616A16.038,16.038,0,0,0,16.579,31.165V43.821l2.805-4.931a16.25,16.25,0,0,1,14.125-8.214H60.888a2.818,2.818,0,0,0,1.165-.249,2.832,2.832,0,0,0,.905-.642C67.3,24.958,68.6,19.3,66.632,14.9" transform="translate(-16.579 -7.5)" fill="none" stroke="#000" stroke-linecap="round" stroke-linejoin="round" stroke-miterlimit="10" stroke-width="2"/>
          <circle id="Elipse_4923" data-name="Elipse 4923" cx="3.779" cy="3.779" r="3.779" transform="translate(71.254 31.756)" fill="none" stroke="#000" stroke-linecap="round" stroke-linejoin="round" stroke-miterlimit="10" stroke-width="2"/>
          <g id="Grupo_995857" data-name="Grupo 995857" transform="translate(17.936 34.626)">
            <path id="Trazado_218209" data-name="Trazado 218209" d="M187.69,216.248a4.054,4.054,0,0,1-6.118,0" transform="translate(-170.16 -213.742)" fill="none" stroke="#000" stroke-linecap="round" stroke-linejoin="round" stroke-miterlimit="10" stroke-width="2"/>
            <path id="Trazado_218210" data-name="Trazado 218210" d="M122.334,204.621a2.46,2.46,0,0,0-4.919,0" transform="translate(-117.415 -202.161)" fill="none" stroke="#000" stroke-linecap="round" stroke-linejoin="round" stroke-miterlimit="10" stroke-width="2"/>
          </g>
          <path id="Trazado_218211" data-name="Trazado 218211" d="M258.173,178.634a10.1,10.1,0,0,1,2.116-6.2h-9.681a6.2,6.2,0,0,0-6.2,6.2h0a6.2,6.2,0,0,0,6.2,6.2h9.681A10.1,10.1,0,0,1,258.173,178.634Z" transform="translate(-203.885 -143.099)" fill="none" stroke="#000" stroke-linecap="round" stroke-linejoin="round" stroke-miterlimit="10" stroke-width="2"/>
          <path id="Trazado_218212" data-name="Trazado 218212" d="M332.382,160.4a10.142,10.142,0,0,1,10.142-10.142h-10.6a10.142,10.142,0,0,0,0,20.284h10.6A10.142,10.142,0,0,1,332.382,160.4Z" transform="translate(-267.491 -124.861)" fill="none" stroke="#000" stroke-linecap="round" stroke-linejoin="round" stroke-miterlimit="10" stroke-width="2"/>
          <circle id="Elipse_4924" data-name="Elipse 4924" cx="10.142" cy="10.142" r="10.142" transform="translate(64.891 25.393)" fill="none" stroke="#000" stroke-linecap="round" stroke-linejoin="round" stroke-miterlimit="10" stroke-width="2"/>
          <path id="Trazado_218213" data-name="Trazado 218213" d="M317.861,261.093a10.114,10.114,0,0,1-3.681-.692,24.087,24.087,0,0,1-9.5,9.328l6.31,10.645a36.7,36.7,0,0,0,15.5-16.858,6.164,6.164,0,0,0,.571-2.423h-9.194Z" transform="translate(-253.431 -215.416)" fill="none" stroke="#000" stroke-linecap="round" stroke-linejoin="round" stroke-miterlimit="10" stroke-width="2"/>
          <path id="Trazado_218214" data-name="Trazado 218214" d="M63.3,155.2a6.2,6.2,0,0,1-6.2-6.2h0a6.2,6.2,0,0,1,6.2-6.2H65a24.546,24.546,0,0,0-2.943-6.412,2.818,2.818,0,0,1-1.165.249H33.509a16.25,16.25,0,0,0-14.125,8.214l-2.805,4.931A24.712,24.712,0,0,0,65.4,155.2Z" transform="translate(-16.579 -113.464)" fill="none" stroke="#000" stroke-linecap="round" stroke-linejoin="round" stroke-miterlimit="10" stroke-width="2"/>
          <path id="Trazado_218215" data-name="Trazado 218215" d="M38.017,327.2a32.536,32.536,0,0,0-2.976,7.214H46.31V346.93H75.735V328.245a46.941,46.941,0,0,0,4.9-1.143,41.33,41.33,0,0,0,8.682-3.619L83,312.838a28.814,28.814,0,0,1-5.467,2.28,35.418,35.418,0,0,1-9.347,1.485,24.758,24.758,0,0,1-21.126,1.1,24.822,24.822,0,0,0-6.007,5.142" transform="translate(-31.757 -258.525)" fill="none" stroke="#000" stroke-linecap="round" stroke-linejoin="round" stroke-miterlimit="10" stroke-width="2"/>
          <path id="Trazado_218216" data-name="Trazado 218216" d="M38.886,434.106v12.522H26.011a45.752,45.752,0,0,1,1.606-12.522H38.886Z" transform="translate(-24.333 -358.222)" fill="none" stroke="#000" stroke-linecap="round" stroke-linejoin="round" stroke-miterlimit="10" stroke-width="2"/>
        </g>
      </g>
    </g>
    <g id="Enmascarar_grupo_626" data-name="Enmascarar grupo 626" transform="translate(0 -3)" clip-path="url(#clip-path-11)">
      <g id="ojo" transform="translate(1143 3424)">
        <g id="Grupo_997194" data-name="Grupo 997194">
          <path id="Trazado_219625" data-name="Trazado 219625" d="M36.988,20.5s-4.818,5.817-11.47,8.052a15.743,15.743,0,0,1-5.018.861c-9.106,0-16.488-8.913-16.488-8.913s7.382-8.912,16.488-8.912a15.727,15.727,0,0,1,5.019.862C32.17,14.685,36.988,20.5,36.988,20.5Z" fill="#e5f5f9"/>
          <path id="Trazado_219626" data-name="Trazado 219626" d="M36.988,20.5s-4.818,5.817-11.47,8.052A33.981,33.981,0,0,0,33.444,20.5a33.967,33.967,0,0,0-7.925-8.05C32.17,14.685,36.988,20.5,36.988,20.5Z" fill="#bfd5dd"/>
          <path id="Trazado_219627" data-name="Trazado 219627" d="M29.413,20.5A8.917,8.917,0,1,1,20.5,11.588,8.917,8.917,0,0,1,29.413,20.5Z" fill="#5cd5ff"/>
          <path id="Trazado_219628" data-name="Trazado 219628" d="M29.413,20.5a8.917,8.917,0,0,1-10.307,8.8,8.913,8.913,0,0,0,0-17.607,8.917,8.917,0,0,1,10.307,8.8Z" fill="#5ab5ff"/>
          <path id="Trazado_219629" data-name="Trazado 219629" d="M24.044,20.5A3.546,3.546,0,1,1,20.5,16.955,3.546,3.546,0,0,1,24.044,20.5Z" fill="#51697a"/>
          <path id="Trazado_219630" data-name="Trazado 219630" d="M24.044,20.5a3.548,3.548,0,0,1-4.689,3.357,3.547,3.547,0,0,0,0-6.712A3.546,3.546,0,0,1,24.044,20.5Z" fill="#354c5b"/>
          <g id="Grupo_997193" data-name="Grupo 997193">
            <g id="Grupo_997192" data-name="Grupo 997192">
              <g id="Grupo_997191" data-name="Grupo 997191">
                <g id="Grupo_997189" data-name="Grupo 997189">
                  <path id="Trazado_219631" data-name="Trazado 219631" d="M10.076,1.8A1.2,1.2,0,0,1,8.875,3H4.3A1.294,1.294,0,0,0,3,4.294v4.58a1.2,1.2,0,0,1-2.4,0V4.294A3.7,3.7,0,0,1,4.3.6h4.58a1.2,1.2,0,0,1,1.2,1.2Z" fill="#354c5b"/>
                  <path id="Trazado_219632" data-name="Trazado 219632" d="M40.4,4.294v4.58a1.2,1.2,0,1,1-2.4,0V4.294A1.294,1.294,0,0,0,36.706,3h-4.58a1.2,1.2,0,1,1,0-2.4h4.58A3.7,3.7,0,0,1,40.4,4.294Z" fill="#354c5b"/>
                  <path id="Trazado_219633" data-name="Trazado 219633" d="M10.076,39.2a1.2,1.2,0,0,1-1.2,1.2H4.3A3.7,3.7,0,0,1,.6,36.706v-4.58a1.2,1.2,0,1,1,2.4,0v4.58A1.294,1.294,0,0,0,4.3,38h4.58a1.2,1.2,0,0,1,1.2,1.2Z" fill="#354c5b"/>
                  <path id="Trazado_219634" data-name="Trazado 219634" d="M40.4,32.126v4.58A3.7,3.7,0,0,1,36.706,40.4h-4.58a1.2,1.2,0,0,1,0-2.4h4.58A1.294,1.294,0,0,0,38,36.706v-4.58a1.2,1.2,0,1,1,2.4,0Z" fill="#354c5b"/>
                </g>
                <g id="Grupo_997190-2" data-name="Grupo 997190">
                  <path id="Trazado_219635" data-name="Trazado 219635" d="M10.076,39.2H4.035A2.234,2.234,0,0,1,1.8,36.964V30.926a1.2,1.2,0,0,1,1.2,1.2v4.58A1.294,1.294,0,0,0,4.3,38h4.58a1.2,1.2,0,0,1,1.2,1.2Z" fill="#51697a"/>
                  <path id="Trazado_219636" data-name="Trazado 219636" d="M4.035,1.8h6.04A1.2,1.2,0,0,1,8.875,3H4.3A1.294,1.294,0,0,0,3,4.294v4.58a1.2,1.2,0,0,1-1.2,1.2V4.035A2.234,2.234,0,0,1,4.035,1.8Z" fill="#51697a"/>
                  <path id="Trazado_219637" data-name="Trazado 219637" d="M39.2,4.035v6.039a1.2,1.2,0,0,1-1.2-1.2V4.294A1.294,1.294,0,0,0,36.706,3h-4.58a1.2,1.2,0,0,1-1.2-1.2h6.04A2.234,2.234,0,0,1,39.2,4.035Z" fill="#51697a"/>
                  <path id="Trazado_219638" data-name="Trazado 219638" d="M39.2,30.926v6.039A2.234,2.234,0,0,1,36.965,39.2h-6.04a1.2,1.2,0,0,1,1.2-1.2h4.58A1.294,1.294,0,0,0,38,36.706v-4.58a1.2,1.2,0,0,1,1.2-1.2Z" fill="#51697a"/>
                </g>
              </g>
            </g>
            <circle id="Elipse_4940" data-name="Elipse 4940" cx="1.808" cy="1.808" r="1.808" transform="translate(21.015 15.932)" fill="#fff"/>
          </g>
        </g>
        <g id="Grupo_997195" data-name="Grupo 997195">
          <path id="Trazado_219639" data-name="Trazado 219639" d="M1.8,10.675a1.8,1.8,0,0,0,1.8-1.8V4.294A.693.693,0,0,1,4.294,3.6H8.875a1.8,1.8,0,1,0,0-3.6H4.294A4.3,4.3,0,0,0,0,4.294v4.58a1.8,1.8,0,0,0,1.8,1.8ZM1.2,4.294A3.1,3.1,0,0,1,4.294,1.2H8.875a.6.6,0,1,1,0,1.2H4.294A1.9,1.9,0,0,0,2.4,4.294v4.58a.6.6,0,1,1-1.2,0Z"/>
          <path id="Trazado_219640" data-name="Trazado 219640" d="M36.706,0H32.125a1.8,1.8,0,0,0,0,3.6h4.581a.693.693,0,0,1,.692.692v4.58a1.8,1.8,0,1,0,3.6,0V4.294A4.3,4.3,0,0,0,36.706,0ZM39.8,8.874a.6.6,0,1,1-1.2,0V4.294A1.9,1.9,0,0,0,36.706,2.4H32.125a.6.6,0,1,1,0-1.2h4.581A3.1,3.1,0,0,1,39.8,4.294Z"/>
          <path id="Trazado_219641" data-name="Trazado 219641" d="M8.875,37.4H4.294a.693.693,0,0,1-.692-.692v-4.58a1.8,1.8,0,0,0-3.6,0v4.58A4.3,4.3,0,0,0,4.294,41H8.875a1.8,1.8,0,1,0,0-3.6Zm0,2.4H4.294A3.1,3.1,0,0,1,1.2,36.706v-4.58a.6.6,0,1,1,1.2,0v4.58A1.9,1.9,0,0,0,4.294,38.6H8.875a.6.6,0,0,1,0,1.2Z"/>
          <path id="Trazado_219642" data-name="Trazado 219642" d="M39.2,30.325a1.8,1.8,0,0,0-1.8,1.8v4.58a.693.693,0,0,1-.692.692H32.125a1.8,1.8,0,0,0,0,3.6h4.581A4.3,4.3,0,0,0,41,36.706v-4.58a1.8,1.8,0,0,0-1.8-1.8Zm.6,6.381A3.1,3.1,0,0,1,36.706,39.8H32.125a.6.6,0,1,1,0-1.2h4.581A1.9,1.9,0,0,0,38.6,36.706v-4.58a.6.6,0,0,1,1.2,0Z"/>
          <path id="Trazado_219643" data-name="Trazado 219643" d="M37.451,20.883a.6.6,0,0,0,0-.766A28.832,28.832,0,0,0,34.417,17.1a.6.6,0,1,0-.789.906,30.7,30.7,0,0,1,2.561,2.5,29.86,29.86,0,0,1-8.963,6.723,9.5,9.5,0,0,0,0-13.443,25.265,25.265,0,0,1,4.426,2.636.6.6,0,1,0,.713-.967c-4.016-2.961-8.008-4.462-11.865-4.462-4.869,0-9.223,2.488-12.018,4.576A31.076,31.076,0,0,0,3.55,20.123a.6.6,0,0,0,0,.766,31.068,31.068,0,0,0,4.932,4.554c2.8,2.087,7.149,4.576,12.018,4.576s9.223-2.488,12.018-4.576a31.073,31.073,0,0,0,4.933-4.554ZM4.811,20.5a31.725,31.725,0,0,1,4.413-3.992,25.411,25.411,0,0,1,4.551-2.729A9.483,9.483,0,0,0,10.987,20.5a.6.6,0,1,0,1.2,0,8.312,8.312,0,1,1,8.367,8.312H20.5a8.242,8.242,0,0,1-4.957-1.64,8.385,8.385,0,0,1-2.969-4.163.6.6,0,1,0-1.145.362,9.442,9.442,0,0,0,2.33,3.842,25.421,25.421,0,0,1-4.535-2.722A31.719,31.719,0,0,1,4.811,20.5Z"/>
          <path id="Trazado_219644" data-name="Trazado 219644" d="M20.5,24.645a4.148,4.148,0,0,0,4.012-5.19,2.407,2.407,0,1,0-3.668-3.086c-.114-.009-.229-.014-.344-.014a4.145,4.145,0,0,0,0,8.29Zm2.323-8.112a1.207,1.207,0,1,1-1.207,1.207,1.207,1.207,0,0,1,1.207-1.207Zm-2.4,1.024q-.007.09-.007.183a2.409,2.409,0,0,0,3,2.335,2.977,2.977,0,0,1,.03.425,2.944,2.944,0,1,1-3.022-2.943Z"/>
        </g>
      </g>
    </g>
  </g>
</svg>
