<svg xmlns="http://www.w3.org/2000/svg" xmlns:xlink="http://www.w3.org/1999/xlink" width="83.844" height="83.797" viewBox="0 0 83.844 83.797">
  <defs>
    <clipPath id="clip-path">
      <rect id="Rect치ngulo_339013" data-name="Rect치ngulo 339013" width="43.964" height="41.537" fill="none"/>
    </clipPath>
    <clipPath id="clip-path-2">
      <rect id="Rect치ngulo_339013-2" data-name="Rect치ngulo 339013" width="43.965" height="41.537" fill="none"/>
    </clipPath>
  </defs>
  <g id="Grupo_984311" data-name="Grupo 984311" transform="translate(-938.543 -252.08)">
    <g id="Grupo_983766" data-name="Grupo 983766" transform="translate(938.543 252.08)">
      <g id="Grupo_983765" data-name="Grupo 983765" clip-path="url(#clip-path)">
        <path id="Trazado_211212" data-name="Trazado 211212" d="M47.521,47.529a58.311,58.311,0,0,1-1.8,6.958A9.854,9.854,0,0,1,43.9,57.842c-.211.206-.427.406-.645.6a4.175,4.175,0,0,1-.869.526c-1.521.676-3.65.455-4.413-1.188a.883.883,0,0,0-1.512,0c-2.4,3.932-6.721,6.185-11.157,6.994l-.181.031-.064,0a.817.817,0,0,0-.425.082c-4.989.746-10.09-.286-14.926-1.569a99.162,99.162,0,0,0,9.968-29.949,32.174,32.174,0,0,0,9.524-.415l-.6,3.026a.886.886,0,0,0,.844,1.108l4.734-.215,2.316-.106c.747-.034,1.526-.021,1.973-.727a5.993,5.993,0,0,0,.514-1.958l.323-1.563c.032,0,.062.007.1.006a74.451,74.451,0,0,1,10.3.336,127.365,127.365,0,0,1-2.174,14.668" transform="translate(-7.559 -25.292)" fill="#fff"/>
        <path id="Trazado_211213" data-name="Trazado 211213" d="M110.363,15.6a3.535,3.535,0,0,0-.108.512,10.842,10.842,0,0,1-1.516.051l-2.014.092-2.954.134,1.633-8.181,6.367.567-.721,3.493-.445,2.156q-.122.588-.243,1.176" transform="translate(-80.819 -6.392)" fill="#fff"/>
        <path id="Trazado_211214" data-name="Trazado 211214" d="M116.045,155.821a4.687,4.687,0,0,0,2.638,1.255,25.076,25.076,0,0,1-7.774,3.215c.5-.286,1-.6,1.487-.939a15.871,15.871,0,0,0,3.649-3.531" transform="translate(-86.377 -121.355)" fill="#fff"/>
        <path id="Trazado_211215" data-name="Trazado 211215" d="M39.962,22.237a58.269,58.269,0,0,1-1.8,6.958,9.85,9.85,0,0,1-1.821,3.355c-.211.206-.427.406-.645.6a4.187,4.187,0,0,1-.868.525c-1.521.676-3.65.455-4.413-1.188a.883.883,0,0,0-1.512,0c-2.4,3.932-6.721,6.185-11.157,6.994l-.181.031-.064,0a.817.817,0,0,0-.425.082c-4.989.746-10.09-.286-14.926-1.569A99.163,99.163,0,0,0,12.114,8.077a32.189,32.189,0,0,0,9.524-.415l-.6,3.026a.886.886,0,0,0,.844,1.108l4.734-.215,2.316-.106c.747-.034,1.526-.021,1.973-.727a5.99,5.99,0,0,0,.514-1.958l.323-1.563a.956.956,0,0,0,.1.006,74.414,74.414,0,0,1,10.3.337,127.367,127.367,0,0,1-2.174,14.667M43.086,5.919A74.466,74.466,0,0,0,32.1,5.475l.752-3.642c0-.013,0-.025,0-.038a.793.793,0,0,0,.027-.194.894.894,0,0,0-.875-.875L23.883,0a.876.876,0,0,0-.844.643L22.01,5.8a30.868,30.868,0,0,1-10.619.439.87.87,0,0,0-.844.643A97.786,97.786,0,0,1,.11,38.146a.886.886,0,0,0,.523,1.286c5.395,1.475,11.36,2.656,16.941,1.835a26.692,26.692,0,0,0,20.042-7.518.889.889,0,0,0,.173-.238,8.5,8.5,0,0,0,.766-1.038,23.622,23.622,0,0,0,2.468-7.038c.7-2.86,1.264-5.752,1.723-8.661.522-3.311.913-6.642,1.215-9.98.046-.509-.441-.825-.875-.875M29.545,9.206a3.563,3.563,0,0,0-.108.512,10.844,10.844,0,0,1-1.516.051l-2.014.092L22.953,10l1.633-8.181,6.367.567-.721,3.493L29.787,8.03l-.243,1.176m.124,25.259a4.687,4.687,0,0,0,2.638,1.255,25.076,25.076,0,0,1-7.774,3.215c.5-.286,1-.6,1.487-.939a15.87,15.87,0,0,0,3.649-3.531" transform="translate(0 0.001)" fill="#161615"/>
        <path id="Trazado_211216" data-name="Trazado 211216" d="M83.175,80.561,64.73,79.8c-1.127-.047-1.125,1.7,0,1.751l18.445.762c1.127.046,1.125-1.7,0-1.751" transform="translate(-49.755 -62.147)" fill="#161615"/>
        <path id="Trazado_211217" data-name="Trazado 211217" d="M77.659,110.4a113.237,113.237,0,0,0-17.967.009c-1.115.089-1.125,1.841,0,1.751a113.263,113.263,0,0,1,17.967-.009c1.123.089,1.118-1.662,0-1.751" transform="translate(-45.834 -85.71)" fill="#161615"/>
        <path id="Trazado_211218" data-name="Trazado 211218" d="M59.921,138.884a23.245,23.245,0,0,1-7.262-.325.9.9,0,0,0-1.077.611.884.884,0,0,0,.611,1.077,24.757,24.757,0,0,0,7.727.388.9.9,0,0,0,.875-.875.881.881,0,0,0-.875-.875" transform="translate(-40.151 -107.895)" fill="#161615"/>
      </g>
    </g>
    <g id="Grupo_983767" data-name="Grupo 983767" transform="matrix(0.899, -0.438, 0.438, 0.899, 964.663, 298.544)">
      <g id="Grupo_983765-2" data-name="Grupo 983765" transform="translate(0 0)" clip-path="url(#clip-path-2)">
        <path id="Trazado_211212-2" data-name="Trazado 211212" d="M11.88,47.529a58.311,58.311,0,0,0,1.8,6.958A9.854,9.854,0,0,0,15.5,57.842c.211.206.427.406.645.6a4.175,4.175,0,0,0,.869.526c1.521.676,3.65.455,4.413-1.188a.883.883,0,0,1,1.512,0c2.4,3.932,6.721,6.185,11.157,6.994l.181.031.064,0a.817.817,0,0,1,.425.082c4.989.746,10.09-.286,14.926-1.569a99.161,99.161,0,0,1-9.968-29.949,32.174,32.174,0,0,1-9.524-.415l.6,3.026a.886.886,0,0,1-.844,1.108l-4.734-.215-2.316-.106c-.747-.034-1.526-.021-1.973-.727a5.993,5.993,0,0,1-.514-1.958L20.1,32.519c-.032,0-.062.007-.1.006a74.452,74.452,0,0,0-10.3.336A127.364,127.364,0,0,0,11.88,47.529" transform="translate(-7.878 -25.292)" fill="#fff"/>
        <path id="Trazado_211213-2" data-name="Trazado 211213" d="M105.181,15.6a3.535,3.535,0,0,1,.108.512,10.843,10.843,0,0,0,1.516.051l2.014.092,2.954.134-1.633-8.181-6.367.567.721,3.493.445,2.156q.122.588.243,1.176" transform="translate(-90.761 -6.392)" fill="#fff"/>
        <path id="Trazado_211214-2" data-name="Trazado 211214" d="M113.547,155.821a4.687,4.687,0,0,1-2.638,1.255,25.077,25.077,0,0,0,7.774,3.215c-.5-.286-1-.6-1.487-.939a15.871,15.871,0,0,1-3.649-3.531" transform="translate(-99.25 -121.355)" fill="#fff"/>
        <path id="Trazado_211215-2" data-name="Trazado 211215" d="M4,22.237a58.269,58.269,0,0,0,1.8,6.958A9.85,9.85,0,0,0,7.626,32.55c.211.206.427.406.645.6a4.187,4.187,0,0,0,.868.525c1.521.676,3.65.455,4.413-1.188a.883.883,0,0,1,1.512,0c2.4,3.932,6.721,6.185,11.157,6.994l.181.031.064,0a.817.817,0,0,1,.425.082c4.989.746,10.09-.286,14.926-1.569A99.162,99.162,0,0,1,31.85,8.077a32.189,32.189,0,0,1-9.524-.415l.6,3.026a.886.886,0,0,1-.844,1.108l-4.734-.215-2.316-.106c-.747-.034-1.526-.021-1.973-.727a5.99,5.99,0,0,1-.514-1.958l-.323-1.563a.956.956,0,0,1-.1.006,74.416,74.416,0,0,0-10.3.337A127.367,127.367,0,0,0,4,22.237M.878,5.919a74.467,74.467,0,0,1,10.986-.444l-.752-3.642c0-.013,0-.025,0-.038a.793.793,0,0,1-.027-.194.894.894,0,0,1,.875-.875L20.081,0a.876.876,0,0,1,.844.643L21.955,5.8a30.869,30.869,0,0,0,10.619.439.87.87,0,0,1,.844.643A97.786,97.786,0,0,0,43.854,38.146a.886.886,0,0,1-.523,1.286c-5.395,1.475-11.36,2.656-16.941,1.835A26.693,26.693,0,0,1,6.348,33.749a.889.889,0,0,1-.173-.238,8.5,8.5,0,0,1-.766-1.038A23.622,23.622,0,0,1,2.94,25.435c-.7-2.86-1.264-5.752-1.723-8.661C.695,13.463.3,10.132,0,6.794c-.046-.509.441-.825.875-.875M14.42,9.206a3.563,3.563,0,0,1,.108.512,10.844,10.844,0,0,0,1.516.051l2.014.092L21.011,10,19.378,1.815l-6.367.567.721,3.493.445,2.156.243,1.176M14.3,34.465a4.687,4.687,0,0,1-2.638,1.255,25.076,25.076,0,0,0,7.774,3.215c-.5-.286-1-.6-1.487-.939A15.871,15.871,0,0,1,14.3,34.465" transform="translate(0 0.001)" fill="#161615"/>
        <path id="Trazado_211216-2" data-name="Trazado 211216" d="M64.73,80.561,83.175,79.8c1.127-.047,1.125,1.7,0,1.751l-18.445.762c-1.127.046-1.125-1.7,0-1.751" transform="translate(-54.186 -62.147)" fill="#161615"/>
        <path id="Trazado_211217-2" data-name="Trazado 211217" d="M59.692,110.4a113.239,113.239,0,0,1,17.967.009c1.115.089,1.125,1.841,0,1.751a113.265,113.265,0,0,0-17.967-.009c-1.123.089-1.118-1.662,0-1.751" transform="translate(-47.552 -85.71)" fill="#161615"/>
        <path id="Trazado_211218-2" data-name="Trazado 211218" d="M52.43,138.884a23.245,23.245,0,0,0,7.262-.325.9.9,0,0,1,1.077.611.884.884,0,0,1-.611,1.077,24.758,24.758,0,0,1-7.727.388.9.9,0,0,1-.875-.875.881.881,0,0,1,.875-.875" transform="translate(-28.236 -107.895)" fill="#161615"/>
      </g>
    </g>
  </g>
</svg>
