<svg id="Grupo_984310" data-name="Grupo 984310" xmlns="http://www.w3.org/2000/svg" xmlns:xlink="http://www.w3.org/1999/xlink" width="61.188" height="76.458" viewBox="0 0 61.188 76.458">
  <defs>
    <clipPath id="clip-path">
      <rect id="Rectángulo_339014" data-name="Rectángulo 339014" width="61.188" height="76.458" fill="none"/>
    </clipPath>
  </defs>
  <g id="Grupo_983769" data-name="Grupo 983769" clip-path="url(#clip-path)">
    <path id="Trazado_211219" data-name="Trazado 211219" d="M57.11,22.107a18.485,18.485,0,0,0-3.963,3.257,23.344,23.344,0,0,0-1.7,2.079,2.085,2.085,0,0,0-.57,1.1,3.77,3.77,0,0,0,.094.648,13.233,13.233,0,0,1-2.924,10.231c-3.775,4.445-9.855,6.177-15.442,6.815-5.929.676-12.86.873-18.217-2.21a12.48,12.48,0,0,1-6.03-9,30.1,30.1,0,0,1-.378-4.787,28.528,28.528,0,0,1,.556-5.855A19.626,19.626,0,0,1,15,13.058C19.659,9.183,26.264,7.83,32.187,8.076a20.4,20.4,0,0,1,13.04,5.088,18.644,18.644,0,0,1,4.455,6.111l0,.006.027.069c.012.03.024.061.035.092a.939.939,0,0,0,1.541.407c2.67-2.081,6.374-1.732,9.43-.86a25.587,25.587,0,0,1,2.466.84,18.25,18.25,0,0,0-6.074,2.28" transform="translate(-6.124 -6.172)" fill="#fff"/>
    <path id="Trazado_211220" data-name="Trazado 211220" d="M60.949,14.783a.938.938,0,0,0,.116-1.081.753.753,0,0,0-.475-.4c-4.506-2.6-10.931-4.4-15.665-1.651a19.492,19.492,0,0,0-2.278-3.546,20.876,20.876,0,0,0-9.5-6.752,28.98,28.98,0,0,0-17.666.05A21.025,21.025,0,0,0,3.576,10.189a25.114,25.114,0,0,0-3.5,11.745A25.766,25.766,0,0,0,1.146,32c3.813,10.725,17.3,11.057,26.74,9.725,5.4-.762,11.105-2.584,14.918-6.693a15.01,15.01,0,0,0,4-10.4,16.225,16.225,0,0,0-.164-2.036,17.767,17.767,0,0,1,6.106-5.544,17.97,17.97,0,0,1,7.491-1.94.832.832,0,0,0,.556-.184c.01-.008.022-.015.032-.023s.029-.029.043-.043a.908.908,0,0,0,.08-.082m-9.963,1.151a18.485,18.485,0,0,0-3.963,3.257,23.345,23.345,0,0,0-1.7,2.079,2.085,2.085,0,0,0-.57,1.1,3.77,3.77,0,0,0,.094.648,13.233,13.233,0,0,1-2.924,10.231c-3.775,4.445-9.855,6.177-15.442,6.815-5.929.676-12.86.873-18.217-2.21a12.48,12.48,0,0,1-6.03-9,30.1,30.1,0,0,1-.378-4.787,28.528,28.528,0,0,1,.556-5.855A19.626,19.626,0,0,1,8.879,6.885C13.535,3.011,20.14,1.658,26.063,1.9A20.4,20.4,0,0,1,39.1,6.991,18.644,18.644,0,0,1,43.559,13.1l0,.006.027.069c.012.03.024.061.035.092a.939.939,0,0,0,1.541.407c2.67-2.081,6.374-1.732,9.43-.86a25.587,25.587,0,0,1,2.466.84,18.25,18.25,0,0,0-6.074,2.28" transform="translate(0 0)" fill="#161615"/>
    <path id="Trazado_211221" data-name="Trazado 211221" d="M64.045,140.9c8.123.63,11.043,15.813,5.787,25.741s-22.191,8.759-29.2,8.759S27.2,183.573,27.2,183.573c-1.168-8.759,5.84-11.679,5.84-11.679-11.679-11.679-3.058-24.414-3.058-24.414s4.81,4.56,19.409,1.64S64.045,140.9,64.045,140.9" transform="translate(-20.648 -108.066)" fill="#161615"/>
    <path id="Trazado_211222" data-name="Trazado 211222" d="M61.045,138.768c4.9.433,6.863,6.53,7.339,10.609a25.209,25.209,0,0,1-.488,8.688,16.375,16.375,0,0,1-3.6,7.5c-3.556,3.8-9.138,5.042-14.116,5.559a74.141,74.141,0,0,1-7.7.34,41.82,41.82,0,0,0-6.568.108,18.236,18.236,0,0,0-8.619,4.5,27.125,27.125,0,0,0-3.743,3.8l1.574.652A10.539,10.539,0,0,1,27.38,172a9.771,9.771,0,0,1,2.051-1.768c.242-.155.49-.3.746-.434.109-.056.586-.266.11-.066a.936.936,0,0,0,.407-1.541,18.734,18.734,0,0,1-5.851-12.877,19.624,19.624,0,0,1,2.043-8.82,13.608,13.608,0,0,1,.894-1.6l-1.448.187a8.854,8.854,0,0,0,2.942,1.621,24.1,24.1,0,0,0,9.17,1.25,48.182,48.182,0,0,0,14.871-2.8c2.581-.938,5.349-2.194,7.191-4.312a5.085,5.085,0,0,0,1.459-2.991.923.923,0,0,0-1.845,0c0,.2.022-.109.016-.088-.035.127-.058.258-.095.386-.016.055-.125.338-.06.179s-.092.191-.124.253a5.617,5.617,0,0,1-.482.752c.1-.136-.184.219-.256.3-.151.168-.309.329-.473.484a9.571,9.571,0,0,1-1.133.921,18.962,18.962,0,0,1-3.856,2.023,45.967,45.967,0,0,1-13.887,2.991,25.244,25.244,0,0,1-9.273-.867,9.542,9.542,0,0,1-2.274-1c-.2-.118-.384-.248-.571-.381.181.129.1.088-.018-.023a.937.937,0,0,0-1.448.187,19.217,19.217,0,0,0-2.356,5.366,19.58,19.58,0,0,0,.3,12.183,22.6,22.6,0,0,0,5.255,7.983l.407-1.541a10.657,10.657,0,0,0-3.809,2.842,12.254,12.254,0,0,0-2.708,9.726c.085.678,1.016,1.36,1.574.652a26.8,26.8,0,0,1,3.28-3.4,17.59,17.59,0,0,1,7.588-4.3c2.208-.491,4.665-.169,6.914-.171a72.046,72.046,0,0,0,7.905-.378c5.352-.594,11.237-1.979,15.06-6.06a17.8,17.8,0,0,0,3.925-7.727,26.678,26.678,0,0,0,.743-9.385c-.534-5.319-3.009-12.287-9.225-12.837-1.182-.1-1.175,1.741,0,1.845" transform="translate(-17.647 -105.015)" fill="#161615"/>
    <path id="Trazado_211223" data-name="Trazado 211223" d="M55.367,92.176v.195A1.58,1.58,0,0,0,56.9,93.908l.409-.055a1.537,1.537,0,0,0,.678-.4l.24-.311a1.53,1.53,0,0,0,.21-.776v-.195A1.58,1.58,0,0,0,56.9,90.639l-.408.055a1.535,1.535,0,0,0-.678.4l-.24.311a1.53,1.53,0,0,0-.21.776" transform="translate(-42.465 -69.518)" fill="#161615"/>
    <path id="Trazado_211224" data-name="Trazado 211224" d="M94.672,88.7a1.538,1.538,0,0,0,0-3.074,1.538,1.538,0,0,0,0,3.074" transform="translate(-71.473 -65.676)" fill="#161615"/>
    <path id="Trazado_211225" data-name="Trazado 211225" d="M130.418,83.688h.195a1.58,1.58,0,0,0,1.537-1.537l-.055-.409a1.536,1.536,0,0,0-.4-.678l-.311-.24a1.53,1.53,0,0,0-.776-.21h-.195a1.58,1.58,0,0,0-1.537,1.537l.055.408a1.535,1.535,0,0,0,.4.678l.311.24a1.529,1.529,0,0,0,.776.21" transform="translate(-98.849 -61.829)" fill="#161615"/>
    <path id="Trazado_211226" data-name="Trazado 211226" d="M74.622,214.845a1.538,1.538,0,0,0,0-3.074,1.538,1.538,0,0,0,0,3.074" transform="translate(-56.095 -162.425)" fill="#fff"/>
    <path id="Trazado_211227" data-name="Trazado 211227" d="M118.723,206.488h.195a1.58,1.58,0,0,0,1.537-1.537l-.055-.409a1.536,1.536,0,0,0-.4-.678l-.311-.24a1.53,1.53,0,0,0-.776-.21h-.195a1.58,1.58,0,0,0-1.537,1.537l.055.408a1.536,1.536,0,0,0,.4.678l.311.24a1.529,1.529,0,0,0,.776.21" transform="translate(-89.879 -156.015)" fill="#fff"/>
    <path id="Trazado_211228" data-name="Trazado 211228" d="M154.644,201.476h.195a1.58,1.58,0,0,0,1.537-1.537l-.055-.409a1.537,1.537,0,0,0-.4-.678l-.311-.24a1.53,1.53,0,0,0-.776-.21h-.195a1.58,1.58,0,0,0-1.537,1.537l.055.408a1.536,1.536,0,0,0,.4.678l.311.24a1.53,1.53,0,0,0,.776.21" transform="translate(-117.43 -152.171)" fill="#fff"/>
    <path id="Trazado_211229" data-name="Trazado 211229" d="M184.237,220.347a9.079,9.079,0,0,1-3.6,6.665.95.95,0,0,0-.331,1.262.929.929,0,0,0,1.262.331,11.021,11.021,0,0,0,4.51-8.258.922.922,0,0,0-1.845,0" transform="translate(-138.2 -168.296)" fill="#fff"/>
    <path id="Trazado_211230" data-name="Trazado 211230" d="M166.78,258.13v-.195a.948.948,0,0,0-.922-.922l-.245.033a.923.923,0,0,0-.407.237l-.144.187a.92.92,0,0,0-.126.466v.195a.948.948,0,0,0,.922.922l.245-.033a.921.921,0,0,0,.407-.237l.144-.187a.917.917,0,0,0,.126-.465" transform="translate(-126.503 -197.125)" fill="#fff"/>
    <path id="Trazado_211231" data-name="Trazado 211231" d="M25.312,55.735a14.421,14.421,0,0,0-2.56,7.958.923.923,0,0,0,1.845,0A12.675,12.675,0,0,1,26.9,56.665a.931.931,0,0,0-.331-1.262.941.941,0,0,0-1.262.331" transform="translate(-17.451 -42.398)" fill="#161615"/>
    <path id="Trazado_211232" data-name="Trazado 211232" d="M43.805,44.914v.195a.948.948,0,0,0,.922.922L44.973,46a.921.921,0,0,0,.407-.237l.144-.187a.917.917,0,0,0,.126-.466v-.195a.948.948,0,0,0-.922-.922l-.245.033a.922.922,0,0,0-.407.237l-.144.187a.919.919,0,0,0-.126.466" transform="translate(-33.597 -33.74)" fill="#161615"/>
  </g>
</svg>
