<svg id="Grupo_984314" data-name="Grupo 984314" xmlns="http://www.w3.org/2000/svg" width="55.871" height="87.438" viewBox="0 0 55.871 87.438">
  <path id="Trazado_117337" data-name="Trazado 117337" d="M1398.8,1037.155c-1.036,0-2.037-1.253-3.307-2.839l-.373-.465a.359.359,0,0,1-.059-.112.324.324,0,0,1-.005-.3c3.637-7.455,7.7-14.958,11.215-21.405a.643.643,0,0,0-.564-.951.618.618,0,0,0-.1.008c-1.174.18-2.315.328-3.393.439h0c-.285,0-.76-.687-.989-1.017-.116-.167-.223-.321-.319-.439-.831-1.03-1.559-1.981-2.225-2.908-.063-.088-.048-.112-.032-.137a.585.585,0,0,0,.062-.126.754.754,0,0,0,.113-.143c3.333-5.909,7.015-11.679,10.5-17.033a.643.643,0,0,0-.539-.994.591.591,0,0,0-.1.008l-2.037.307c-.161.024-.348.066-.548.111a4.964,4.964,0,0,1-.966.154.719.719,0,0,1-.2-.021c-.347-.094-.857-.829-1.161-1.268-.14-.2-.269-.387-.384-.53l-.126-.159c-.617-.769-1.254-1.564-1.8-2.383-.074-.108-.045-.144-.013-.185,5-8.537,9.369-17.536,13.6-26.239q1.653-3.4,3.311-6.785a.3.3,0,0,1,.21-.09c9.132-.049,18.409-.35,27.382-.642l.124,0a.157.157,0,0,1,.164.082.91.91,0,0,0,.1.135,45.994,45.994,0,0,0,3.166,4.015.3.3,0,0,1-.01.445c-4.214,5.021-8.183,10.4-12.021,15.594q-1.407,1.907-2.817,3.807a.642.642,0,0,0,.516,1.026.631.631,0,0,0,.066,0l5.662-.583a.664.664,0,0,0,.142-.031.4.4,0,0,0,.072.012c.04.046.141.13.165.158,1.214,1.431,2.3,2.808,3.311,4.21a.362.362,0,0,1-.108.3c-5.111,5.956-10.443,11.9-15.6,17.643l-.118.131a.643.643,0,0,0,.478,1.073c.021,0,5.844-.56,5.844-.56a.507.507,0,0,0,.1-.017.472.472,0,0,0,.083.019c.032.023.076.053.081.058l.021.02a53.094,53.094,0,0,1,3.358,4.274.307.307,0,0,1-.049.246c-6.141,5.522-12.5,11.021-18.642,16.338q-3.6,3.115-7.194,6.236l-12.128,10.55a3.156,3.156,0,0,1-1.915.969Z" transform="translate(-1394.371 -950.362)" fill="#fff"/>
  <path id="Trazado_117338" data-name="Trazado 117338" d="M1446.568,952.685a.932.932,0,0,0,0-1.283,46.127,46.127,0,0,1-3.155-4c-.013-.019-.029-.032-.042-.049a.791.791,0,0,0-.74-.4c-9.159.3-18.323.6-27.487.646a.9.9,0,0,0-.783.449c-5.425,11.024-10.633,22.3-16.836,32.91a.76.76,0,0,0-.015.943c.6.9,1.288,1.741,1.963,2.584.446.556,1.123,1.809,1.875,2.015a5.6,5.6,0,0,0,1.977-.229c.678-.1,1.357-.2,2.036-.307-3.646,5.606-7.24,11.256-10.517,17.069a.672.672,0,0,0-.157.24.729.729,0,0,0,.052.858c.72,1,1.472,1.976,2.248,2.937.419.518,1.06,1.775,1.874,1.691,1.143-.119,2.286-.269,3.424-.444-3.864,7.081-7.694,14.189-11.228,21.431a.923.923,0,0,0-.026.788.985.985,0,0,0,.168.312c2.34,2.9,3.663,4.906,6.52,2.417q6.061-5.279,12.127-10.55c8.628-7.507,17.339-14.933,25.844-22.58a.9.9,0,0,0,.142-1.1,52.349,52.349,0,0,0-3.366-4.281.929.929,0,0,0-.06-.073l-.012-.013s-.006,0-.01-.007a1.172,1.172,0,0,0-.353-.234h-.006a.72.72,0,0,0-.417-.01q-2.89.276-5.782.556c5.285-5.89,10.572-11.779,15.726-17.784a.912.912,0,0,0,.142-1.1c-1.058-1.464-2.173-2.873-3.342-4.249a.717.717,0,0,0-.365-.327.7.7,0,0,0-.076-.036l-.01,0a.709.709,0,0,0-.483,0q-2.831.291-5.662.583C1436.6,965.542,1441.353,958.9,1446.568,952.685ZM1426.2,970.874c.109.2.242.392.36.575.223.347.445.7.681,1.039-.8.075-1.6.151-2.4.221Q1425.517,971.792,1426.2,970.874Zm1.822,1.542c-.308-.5-.688-.957-1.035-1.429a4.529,4.529,0,0,0-.459-.561q.543-.738,1.085-1.478c.261.486.606.953.857,1.4a13.3,13.3,0,0,0,.913,1.883l-.046.061C1428.9,972.339,1428.456,972.375,1428.018,972.417Zm10.38-17.894c.22.611.548,1.214.757,1.754.239.622.345,1.487.651,2.149-.338.443-.674.888-1.012,1.332-.184-.389-.422-.762-.551-1.017a16.262,16.262,0,0,0-1.109-2.582C1437.555,955.613,1437.974,955.065,1438.4,954.522Zm-1.791,2.321a16.21,16.21,0,0,0,.791,1.894c.219.522.492,1.018.708,1.542.038.093.065.18.091.263l-1.11,1.461c-.132-.362-.3-.716-.444-1.039a17.385,17.385,0,0,0-1.229-2.559C1435.809,957.883,1436.21,957.364,1436.608,956.844Zm-1.692,2.226c.152.464.4.917.579,1.336.272.618.578,1.21.808,1.848a5.113,5.113,0,0,1,.156.578c-.383.506-.769,1.009-1.151,1.514a11.861,11.861,0,0,0-.619-1.3c-.329-.675-.663-1.514-1.082-2.231C1434.041,960.23,1434.479,959.65,1434.916,959.07Zm-1.848,2.466c.182.449.42.884.608,1.274a15.87,15.87,0,0,1,.777,1.835c.083.243.119.425.186.586q-.66.877-1.319,1.757c-.3-.692-.613-1.382-.957-2.055a15.729,15.729,0,0,0-.768-1.4Q1432.33,962.531,1433.068,961.536Zm-1.937,2.619c.28.613.609,1.216.874,1.791a7.459,7.459,0,0,0,.775,1.76q-.637.847-1.272,1.695a10.188,10.188,0,0,0-1.013-2.1,8.973,8.973,0,0,0-.781-1.214Q1430.42,965.12,1431.131,964.155Zm-1.87,2.545c.2.335.419.66.591.974.435.795.7,1.658,1.1,2.463l-1.063,1.416a11,11,0,0,0-.7-1.28,8.268,8.268,0,0,0-1.2-1.848Q1428.627,967.562,1429.261,966.7Zm11.263-9.22c-.193-.639-.518-1.286-.71-1.768a8.918,8.918,0,0,0-.878-1.869q.716-.91,1.439-1.814c.16.493.4.975.595,1.417a16.536,16.536,0,0,1,.652,1.73c.073.234.1.451.161.658l-1.02,1.331C1440.683,957.27,1440.6,957.376,1440.524,957.48Zm1.54-7.514a12.966,12.966,0,0,0,.54,1.909,7.818,7.818,0,0,0,.757,1.928c-.3.388-.611.772-.911,1.163-.141-.436-.353-.866-.5-1.208a13.237,13.237,0,0,0-1.1-2.32C1441.251,950.943,1441.659,950.456,1442.064,949.966Zm2.731,2.076a.369.369,0,0,0-.123.1c-.306.375-.6.76-.9,1.139-.139-.542-.422-1.089-.592-1.568-.257-.719-.462-1.466-.775-2.163.062-.074.122-.148.183-.221.5.668,1,1.329,1.525,1.979A5.058,5.058,0,0,0,1444.8,952.043Zm-30.308-.165q.714-1.439,1.423-2.881c-.092.188,9.074.262,10.17.236q7.294-.167,14.585-.41c-6.5,7.891-12.429,16.326-18.538,24.514a.911.911,0,0,0,.783,1.365c4.178-.339,8.349-.776,12.519-1.209-6.665,7.712-13.5,15.279-20.331,22.845-.469.518-.21,1.657.641,1.548,4.434-.565,8.889-.994,13.34-1.417-11.337,10.148-22.882,20.075-34.374,30.049,3.22-6.369,6.612-12.656,10.035-18.92l0,0q1.469-2.688,2.936-5.375a.917.917,0,0,0-1.024-1.332c-3.136.484-6.264,1.02-9.388,1.566,4.365-7.58,9.226-14.9,14-22.225a.912.912,0,0,0-.783-1.365c-3.5.366-6.992.852-10.471,1.4C1405.267,971.052,1409.789,961.368,1414.487,951.878Zm22.416,24.094c.344.87.655,1.771,1.015,2.633-.323.37-.648.739-.971,1.109a10.321,10.321,0,0,0-1.532-3.445q.569-.655,1.137-1.311A7.8,7.8,0,0,0,1436.9,975.971Zm-2.58,4.727a15.476,15.476,0,0,0-.889-2.148c.553-.632,1.1-1.268,1.65-1.9.262,1.285,1.037,2.471,1.222,3.794-.476.542-.949,1.086-1.426,1.627C1434.729,981.583,1434.488,981.1,1434.323,980.7Zm-2.59,1.9a7.9,7.9,0,0,0,.69,2.244c-.339.383-.682.764-1.022,1.146a12.222,12.222,0,0,0-.52-1.446c-.274-.654-.555-1.4-.914-2.063q.711-.8,1.422-1.605A11.477,11.477,0,0,0,1431.734,982.6Zm-4.289,7.826c-.25-.647-.514-1.288-.74-1.945-.184-.534-.31-1.168-.553-1.711q.653-.728,1.306-1.457a13,13,0,0,0,.537,1.628,6.248,6.248,0,0,0,.865,1.9Q1428.151,989.629,1427.445,990.422Zm-7.887,3.677c.11.291.258.577.346.814a4.583,4.583,0,0,0,.254.638c-.712.078-1.423.165-2.134.248Zm.442-.489q.888-.985,1.776-1.969c.17.66.532,1.356.713,1.924.159.5.261,1.134.454,1.691q-1.063.109-2.125.224A5.109,5.109,0,0,0,1420,993.611Zm3.142-.574a5.792,5.792,0,0,0-.9-1.919q.731-.813,1.46-1.627a11.25,11.25,0,0,0,.451,1.166c.323.791.592,1.626.922,2.418-.47.524-.935,1.051-1.4,1.574C1423.534,994.072,1423.3,993.491,1423.142,993.036Zm2.041-2.054a21.536,21.536,0,0,0-.864-2.174l1.237-1.379c.095.439.254.876.376,1.261a17.393,17.393,0,0,0,.93,2.386c-.387.433-.771.868-1.16,1.3A11.113,11.113,0,0,0,1425.183,990.982Zm3.54-3.988c-.3-.691-.546-1.429-.895-2.1.531-.594,1.056-1.193,1.585-1.789.109.348.254.69.385,1.02a14.723,14.723,0,0,1,.9,2.651q-.727.818-1.456,1.633A6.172,6.172,0,0,0,1428.723,986.994Zm1.526,15.518c-.441-1.153-.9-2.3-1.368-3.442.555-.5,1.114-.987,1.667-1.483a10.78,10.78,0,0,0,.5,1.878,18.545,18.545,0,0,0,.554,1.86Q1430.926,1001.919,1430.249,1002.511Zm-4.091,3.581a20.637,20.637,0,0,1-.873-1.98c-.152-.442-.29-.948-.49-1.409.517-.458,1.031-.919,1.548-1.377.2.633.49,1.274.691,1.842a8.935,8.935,0,0,0,.639,1.6Q1426.916,1005.432,1426.158,1006.092Zm-2,1.744a18.157,18.157,0,0,1-.981-2.037c-.155-.394-.282-.838-.461-1.247.515-.454,1.022-.913,1.537-1.367.109.489.276.975.42,1.41a8,8,0,0,0,.883,2.02Q1424.856,1007.228,1424.156,1007.837Zm-2.072,1.807c-.254-.682-.5-1.366-.784-2.038a8.144,8.144,0,0,0-.608-1.282c.509-.447,1.021-.889,1.53-1.336.123.523.315,1.047.465,1.514a5.894,5.894,0,0,0,.905,1.827Zm-3.967,3.459c-.2-.47-.439-.931-.642-1.4a11.65,11.65,0,0,0-.878-1.8l1.373-1.2c.125.4.306.8.434,1.138a9.722,9.722,0,0,0,.969,2.168Zm-20.232,17.612a15.47,15.47,0,0,0-.7-1.557c-.277-.543-.482-1.17-.778-1.719q.785-.682,1.572-1.363a12.189,12.189,0,0,0,.584,1.283c.287.594.516,1.383.884,2Zm-2.278.113a8.454,8.454,0,0,0-.978-1.849l1.276-1.107a7.9,7.9,0,0,0,.411,1.055c.335.76.719,1.5,1.012,2.272l-1.1.959C1396.057,1031.68,1395.778,1031.2,1395.608,1030.829Zm3.847-3.256a21.392,21.392,0,0,0-.971-1.937q.8-.691,1.595-1.383a12.91,12.91,0,0,0,.644,1.485,18.828,18.828,0,0,0,.794,1.817l-1.427,1.242C1399.913,1028.367,1399.649,1027.95,1399.454,1027.573Zm2.046-1.907a13.154,13.154,0,0,0-.9-1.868q.732-.635,1.464-1.269a14.277,14.277,0,0,0,.561,1.432,17.706,17.706,0,0,0,.807,1.925l-1.277,1.111C1401.964,1026.54,1401.709,1026.1,1401.5,1025.666Zm1.92-1.388c-.317-.68-.593-1.42-.964-2.088l1.553-1.346a12.268,12.268,0,0,0,.581,1.283c.261.559.514,1.12.72,1.7.045.126.073.236.1.338l-1.446,1.257C1403.809,1025.031,1403.6,1024.652,1403.421,1024.277Zm2.172-1.608a18.418,18.418,0,0,0-1.052-2.286l1.53-1.326a122.859,122.859,0,0,0,1.555,3.183l-1.586,1.379C1405.91,1023.278,1405.714,1022.939,1405.593,1022.669Zm1.765-2.226c-.293-.541-.548-1.183-.882-1.736l1.6-1.383c.132.329.3.65.436.949a14.191,14.191,0,0,0,1.073,2.268l-1.514,1.317A6.663,6.663,0,0,0,1407.358,1020.443Zm1.939-1.842c-.276-.525-.489-1.128-.745-1.695l1.363-1.182a9.372,9.372,0,0,0,.447,1.126,17.325,17.325,0,0,0,.966,2.168l-1.263,1.1A9.584,9.584,0,0,0,1409.3,1018.6Zm1.885-1.468c-.279-.582-.5-1.226-.8-1.814l1.391-1.206c.1.317.245.628.374.932.331.779.623,1.621,1.013,2.378l-1.288,1.121C1411.686,1018.054,1411.395,1017.578,1411.182,1017.133Zm1.813-1.823c-.229-.508-.437-1.105-.73-1.622.509-.441,1.014-.886,1.522-1.328.163.555.446,1.1.648,1.607.235.588.418,1.2.632,1.8l-1.381,1.2A12.72,12.72,0,0,0,1412.995,1015.31Zm2.158-1.541a9.709,9.709,0,0,0-.825-1.882q.958-.835,1.914-1.673a12.516,12.516,0,0,0,.507,1.453,20.677,20.677,0,0,0,.793,1.938q-.932.812-1.862,1.624C1415.524,1014.735,1415.335,1014.249,1415.153,1013.769Zm3.883-4.1c-.169-.425-.306-.968-.511-1.448.545-.478,1.092-.953,1.636-1.431.143.468.369.931.532,1.348.267.682.511,1.372.754,2.063l-1.54,1.343C1419.672,1010.9,1419.273,1010.262,1419.036,1009.667Zm9.078-5.63c-.259-.522-.44-1.081-.648-1.624a9.4,9.4,0,0,0-.653-1.5q.759-.672,1.515-1.347a29.943,29.943,0,0,0,1.345,3.455q-.716.627-1.432,1.256C1428.2,1004.2,1428.154,1004.118,1428.114,1004.037Zm-23.934.8a10.729,10.729,0,0,0-.539-1.122c-.075-.143-.148-.311-.229-.478q.9-.149,1.8-.293Zm-3.909.631a13.028,13.028,0,0,0-.994-1.535c.446-.077.89-.156,1.336-.232a7.962,7.962,0,0,0,.717,1.505,10.426,10.426,0,0,0,.671,1.326c-.347.053-.7.106-1.044.152A7.179,7.179,0,0,0,1400.271,1005.472Zm6.826-23.12c-.094-.393-.163-.83-.269-1.247.614-.078,1.23-.151,1.845-.222l-1.388,2.126C1407.222,982.773,1407.143,982.546,1407.1,982.352Zm-7.224-.247c.62-.1,1.24-.2,1.862-.291a12.407,12.407,0,0,0,.482,1.641c.113.337.173.743.275,1.122l-.544.083C1401.231,983.837,1400.528,982.986,1399.874,982.106Zm3.342,2.363a9.137,9.137,0,0,0-.315-.911,12.49,12.49,0,0,0-.805-1.8q.877-.132,1.757-.256c.084.555.195,1.106.312,1.655a7.621,7.621,0,0,0,.254,1.125Zm2.021-.306c-.083-.411-.3-.854-.39-1.189a7.667,7.667,0,0,0-.5-1.539c.594-.083,1.189-.159,1.783-.236a9.488,9.488,0,0,0,.165,1.114,4.282,4.282,0,0,0,.444,1.538l-.061.094C1406.2,984.015,1405.716,984.09,1405.237,984.162Zm-6.587,22.086c-.527-.632-1.032-1.282-1.529-1.938l1.286-.223c.283.547.709,1.056,1.022,1.555.183.292.353.762.573,1.166-.2.024-.39.052-.585.075C1398.608,1006.975,1399.207,1006.917,1398.65,1006.248Zm4.1.161a7.127,7.127,0,0,0-.757-1.587,7.706,7.706,0,0,0-.687-1.238c.448-.076.9-.145,1.346-.22.073.233.183.463.256.663a6.649,6.649,0,0,0,.715,1.51.405.405,0,0,0,.117.11q-.178.328-.357.655C1403.173,1006.342,1402.961,1006.373,1402.75,1006.409Zm-9.712,23.951,1.089-.944c.21.518.571,1.051.759,1.469.244.543.489,1.083.7,1.638.014.037.028.07.043.105C1394.6,1033.184,1393.871,1031.668,1393.038,1030.36Zm40.747-30.961q-.457.407-.916.813c-.19.168-.383.335-.574.5-.129-.37-.3-.734-.416-1.069a24.277,24.277,0,0,0-.842-2.495c.21-.189.422-.374.633-.562.491.564.967,1.142,1.408,1.747A12.27,12.27,0,0,1,1433.785,999.4Zm-.737-15.26c-.108-.467-.317-.932-.452-1.372a21.217,21.217,0,0,0-.774-2.385c.391-.445.787-.887,1.177-1.332a9.342,9.342,0,0,0,.527,1.511c.2.531.4,1.06.562,1.6.067.218.1.431.149.639l-.148.168C1433.744,983.362,1433.394,983.749,1433.048,984.139Zm5.911-6.721c-.184.213-.372.423-.556.634a11.232,11.232,0,0,0-.556-1.444c-.235-.553-.452-1.111-.676-1.668a4.872,4.872,0,0,1-.161-.509c.2-.228.4-.453.591-.68.624.74,1.23,1.494,1.806,2.273C1440.158,977.012,1439.823,976.421,1438.959,977.419Zm-35.424.176a228.375,228.375,0,0,1,11.557-23.469c.027-.048.111-.015.09.039a201.911,201.911,0,0,1-11.44,23.517C1403.681,977.791,1403.485,977.715,1403.535,977.594Zm11.815-24.275a1.541,1.541,0,0,1,.225-.886.963.963,0,0,1,.473-.579.1.1,0,0,1,.15.085c.009.439-.263,1.343-.761,1.429A.071.071,0,0,1,1415.349,953.32Zm3.749,36.685a69.39,69.39,0,0,1,10.042-11.982c.072-.073.175.034.11.11-3.381,3.96-6.681,7.98-10.04,11.958C1419.157,990.153,1419.056,990.072,1419.1,990.005Zm10.525-12.517c.141-.479.491-1.063,1.02-1.15a.1.1,0,0,1,.122.122c-.081.5-.618.863-1.017,1.123A.086.086,0,0,1,1429.623,977.488Zm-26.178,39.362a108.024,108.024,0,0,1,13.038-11.5c.127-.094.266.1.163.211-4,4.153-8.692,7.687-13.07,11.424C1403.487,1017.057,1403.362,1016.937,1403.446,1016.85Zm13.957-11.976a.1.1,0,0,1-.092-.092c-.044-.487.67-.927,1.084-1.01.071-.014.163.049.131.131C1418.375,1004.287,1417.866,1004.925,1417.4,1004.874Z" transform="translate(-1390.953 -946.953)"/>
</svg>
