<svg xmlns="http://www.w3.org/2000/svg" width="70.124" height="63.439" viewBox="0 0 70.124 63.439">
  <g id="Grupo_984315" data-name="Grupo 984315" transform="translate(0.001)">
    <g id="Grupo_81065" data-name="Grupo 81065" transform="translate(2.041 2.042)" style="mix-blend-mode: overlay;isolation: isolate">
      <path id="Trazado_115015" data-name="Trazado 115015" d="M192.082,217.238c-4.148,4.245-8.435,8.334-12.8,12.35,1.889-4.271,3.925-8.473,5.719-12.789,2.033-4.892,4.4-11.561,1.833-16.693-5.841-11.7-20.607-.22-26.04,5.668-.579.628-1.131,1.283-1.691,1.93,1.942-4.755,3.689-9.64,3.228-14.777-.635-7.063-7.109-8.757-12.684-5.475-5.986,3.523-10.794,9.62-14.808,15.157-3.41,4.7,4.392,9.18,7.775,4.544a61.162,61.162,0,0,1,6.078-7.109q-.484.887-.979,1.771a131.971,131.971,0,0,0-6.112,11.909c-3.4,7.852-8.435,18.722-4.154,26.981,2.158,4.162,7.217,4.585,11.026,2.891,5.12-2.277,8.667-7.3,12.086-11.556,3.569-4.441,6.712-9.157,10.016-13.791a67.114,67.114,0,0,1,4.34-5.681c.036-.041.074-.079.11-.12l-.04.125c-.877,2.728-2.005,5.345-3.148,7.97-2.125,4.883-4.866,10.022-5.645,15.335-.688,4.7,1.214,9.963,6.864,9.622,5.312-.32,9.568-5.436,13.119-8.853,4.3-4.138,8.523-8.358,12.747-12.573C203.33,219.673,196.439,212.78,192.082,217.238Z" transform="translate(-133.12 -184.98)" fill="#3c384f"/>
      <path id="Trazado_115016" data-name="Trazado 115016" d="M172.407,246.238a6.75,6.75,0,0,1-5.141-2.134c-1.789-1.948-2.562-5.122-2.069-8.49.643-4.39,2.558-8.6,4.409-12.661.443-.974.883-1.938,1.3-2.892.393-.9.808-1.855,1.218-2.839q-.377.526-.747,1.045l-.245.344q-1.288,1.806-2.552,3.621c-2.377,3.392-4.835,6.9-7.494,10.209-.388.483-.778.976-1.173,1.475-3.049,3.856-6.5,8.225-11.235,10.328-4.217,1.873-9.741,1.348-12.139-3.281-4.311-8.317.344-19.018,3.743-26.832l.386-.889c1-2.308,2.121-4.562,3.31-6.8q-.413.539-.811,1.085a5.731,5.731,0,0,1-8.088,1.124,4.544,4.544,0,0,1-1.08-6.682c4.285-5.911,9.077-11.867,15.069-15.394,3.325-1.957,6.965-2.275,9.738-.85,2.442,1.254,3.948,3.737,4.24,6.991a26.37,26.37,0,0,1-1.676,10.953c4.421-4.32,12.6-10.446,19.158-9.518,3.014.428,5.346,2.257,6.933,5.435,2.611,5.226.551,11.733-1.808,17.408-1.123,2.7-2.357,5.4-3.552,8l-.423.922c3.553-3.332,6.732-6.436,9.649-9.42h0a5.174,5.174,0,0,1,5.154-1.531,6.344,6.344,0,0,1,4.389,4.358,5.22,5.22,0,0,1-1.483,5.221l-.48.479c-4,3.992-8.135,8.119-12.278,12.105-.511.492-1.035,1.018-1.576,1.56-3.217,3.225-7.22,7.239-12.089,7.532C172.776,246.233,172.59,246.238,172.407,246.238Zm2.47-34.751a.813.813,0,0,1,.417.111.838.838,0,0,1,.406.977l-.04.126c-.92,2.86-2.119,5.616-3.177,8.048-.419.963-.863,1.936-1.31,2.918-1.8,3.957-3.664,8.049-4.272,12.2-.412,2.817.214,5.529,1.633,7.075a5.169,5.169,0,0,0,4.326,1.563c4.216-.255,7.806-3.854,10.974-7.03.549-.55,1.082-1.085,1.6-1.584,4.132-3.975,8.262-8.1,12.257-12.084l.48-.479a3.5,3.5,0,0,0,1.038-3.551,4.635,4.635,0,0,0-3.161-3.142,3.45,3.45,0,0,0-3.489,1.067h0c-3.769,3.855-7.968,7.9-12.839,12.381a.861.861,0,0,1-1.37-.982c.714-1.614,1.449-3.218,2.184-4.823,1.187-2.593,2.416-5.275,3.527-7.948,2.21-5.316,4.159-11.371,1.858-15.977-1.337-2.68-3.181-4.151-5.635-4.5-6.116-.866-14.716,5.722-19,10.367-.457.494-.9,1.007-1.338,1.521l-.333.388a.861.861,0,0,1-1.449-.888c1.849-4.529,3.616-9.37,3.167-14.376-.241-2.682-1.386-4.623-3.311-5.612-2.245-1.154-5.265-.853-8.078.8-5.719,3.367-10.372,9.161-14.548,14.921a2.855,2.855,0,0,0,.7,4.279,3.983,3.983,0,0,0,5.684-.747,62.353,62.353,0,0,1,6.163-7.21.861.861,0,0,1,1.366,1.02q-.487.891-.984,1.779a131.723,131.723,0,0,0-6.073,11.83l-.387.89c-3.262,7.5-7.727,17.764-3.794,25.353,1.911,3.686,6.433,4.046,9.912,2.5,4.342-1.93,7.515-5.942,10.583-9.822.4-.5.79-1,1.182-1.485,2.623-3.264,5.064-6.749,7.425-10.119q1.273-1.818,2.56-3.633l.245-.343a64.068,64.068,0,0,1,4.154-5.411l.077-.084A.94.94,0,0,1,174.877,211.487Zm17.065,5.611h0Z" transform="translate(-132.979 -184.841)" fill="#3c384f"/>
      <path id="Trazado_115017" data-name="Trazado 115017" d="M142.218,223.2c-3.172,6.375-4.962,13.849-2.175,20.7.412,1.013,2.078.57,1.66-.458-2.616-6.434-.982-13.378,2-19.374C144.2,223.084,142.712,222.21,142.218,223.2Z" transform="translate(-133.769 -190.112)" fill="#3c384f"/>
      <path id="Trazado_115018" data-name="Trazado 115018" d="M145.4,243.628c-.015,0-.028-.006-.042-.009-.024-.046-.046-.1-.053-.111l0-.005c0-.007,0,0,0-.012-.111-.385-.19-.774-.275-1.166q-.292-1.363-.585-2.725a.867.867,0,0,0-1.059-.6.881.881,0,0,0-.6,1.059q.331,1.541.662,3.082c.183.855.477,1.977,1.5,2.148a.882.882,0,0,0,1.059-.6A.871.871,0,0,0,145.4,243.628Z" transform="translate(-134.338 -192.363)" fill="#3c384f"/>
      <path id="Trazado_115019" data-name="Trazado 115019" d="M189.448,201.705c-.977-.522-1.848.964-.869,1.487a3.985,3.985,0,0,1,1.818,3.633,24.9,24.9,0,0,1-.388,4.936,32.761,32.761,0,0,1-2.989,9.249c-.492.989.993,1.862,1.487.869a34.459,34.459,0,0,0,3.342-10.893C192.255,207.884,192.741,203.463,189.448,201.705Z" transform="translate(-140.477 -187.169)" fill="#3c384f"/>
    </g>
    <g id="Grupo_81068" data-name="Grupo 81068" transform="translate(0 0)">
      <g id="Grupo_81067" data-name="Grupo 81067">
        <g id="Grupo_81066" data-name="Grupo 81066">
          <path id="Trazado_115020" data-name="Trazado 115020" d="M189.711,214.866c-4.148,4.245-8.435,8.334-12.8,12.35,1.889-4.27,3.926-8.473,5.72-12.788,2.033-4.892,4.4-11.561,1.833-16.693-5.841-11.7-20.607-.22-26.04,5.668-.579.627-1.131,1.282-1.691,1.93,1.941-4.755,3.689-9.64,3.228-14.777-.635-7.063-7.109-8.757-12.684-5.476-5.987,3.524-10.794,9.621-14.809,15.158-3.41,4.7,4.393,9.18,7.776,4.544a61.234,61.234,0,0,1,6.077-7.11q-.484.887-.978,1.772a132.09,132.09,0,0,0-6.112,11.908c-3.4,7.852-8.435,18.722-4.154,26.982,2.158,4.162,7.216,4.585,11.026,2.891,5.12-2.277,8.667-7.3,12.086-11.556,3.569-4.441,6.712-9.157,10.015-13.791a67.638,67.638,0,0,1,4.34-5.682c.036-.04.075-.078.111-.12l-.04.126c-.877,2.728-2.006,5.345-3.148,7.97-2.126,4.882-4.866,10.021-5.645,15.335-.689,4.7,1.214,9.963,6.864,9.622,5.311-.32,9.568-5.436,13.118-8.853,4.3-4.138,8.524-8.359,12.748-12.574C200.958,217.3,194.067,210.409,189.711,214.866Z" transform="translate(-130.749 -182.609)" fill="#c4d1ff"/>
          <path id="Trazado_115021" data-name="Trazado 115021" d="M170.035,243.867a6.747,6.747,0,0,1-5.14-2.133c-1.789-1.948-2.562-5.122-2.069-8.49.642-4.389,2.557-8.595,4.409-12.661.443-.974.882-1.937,1.3-2.891.393-.9.808-1.856,1.218-2.839-.251.35-.5.7-.747,1.045l-.245.343c-.858,1.2-1.706,2.413-2.553,3.621-2.376,3.393-4.835,6.9-7.493,10.209-.388.484-.778.977-1.173,1.476-3.049,3.855-6.5,8.224-11.234,10.328-4.218,1.873-9.741,1.347-12.139-3.282-4.311-8.316.344-19.017,3.742-26.832l.387-.888c1-2.308,2.121-4.562,3.309-6.8q-.412.539-.811,1.084a5.73,5.73,0,0,1-8.087,1.125,4.544,4.544,0,0,1-1.08-6.682c4.285-5.911,9.077-11.867,15.068-15.395,3.326-1.956,6.965-2.274,9.739-.849,2.442,1.255,3.947,3.736,4.24,6.99A26.355,26.355,0,0,1,159,201.294c4.422-4.319,12.6-10.445,19.158-9.517,3.014.428,5.347,2.257,6.934,5.435,2.61,5.226.55,11.732-1.808,17.408-1.123,2.7-2.357,5.4-3.552,8l-.423.922c3.553-3.331,6.732-6.435,9.649-9.42h0a5.173,5.173,0,0,1,5.154-1.53,6.341,6.341,0,0,1,4.389,4.358,5.216,5.216,0,0,1-1.482,5.22l-.48.48c-4,3.992-8.135,8.119-12.278,12.105-.511.492-1.035,1.018-1.577,1.56-3.216,3.224-7.219,7.239-12.088,7.532C170.4,243.861,170.219,243.867,170.035,243.867Zm2.47-34.751a.811.811,0,0,1,.417.112.837.837,0,0,1,.407.977l-.04.126c-.92,2.859-2.119,5.616-3.177,8.048-.419.963-.863,1.936-1.31,2.918-1.8,3.957-3.665,8.049-4.273,12.2-.412,2.817.214,5.529,1.634,7.076a5.17,5.17,0,0,0,4.326,1.563c4.216-.255,7.806-3.854,10.973-7.03.549-.551,1.083-1.086,1.6-1.584,4.132-3.975,8.262-8.1,12.256-12.084l.48-.48a3.5,3.5,0,0,0,1.037-3.551,4.632,4.632,0,0,0-3.161-3.141,3.449,3.449,0,0,0-3.488,1.067h0c-3.769,3.855-7.968,7.9-12.839,12.382a.861.861,0,0,1-1.37-.982c.714-1.614,1.449-3.218,2.184-4.823,1.188-2.593,2.416-5.274,3.528-7.947,2.209-5.316,4.159-11.371,1.858-15.978-1.338-2.679-3.181-4.15-5.635-4.5-6.116-.865-14.717,5.723-19,10.367-.456.5-.9,1.008-1.337,1.521l-.334.389a.861.861,0,0,1-1.449-.889c1.849-4.528,3.617-9.37,3.168-14.375-.241-2.683-1.386-4.624-3.311-5.613-2.246-1.153-5.265-.852-8.078.8-5.72,3.367-10.372,9.161-14.548,14.921a2.853,2.853,0,0,0,.7,4.278,3.983,3.983,0,0,0,5.684-.747,62.2,62.2,0,0,1,6.163-7.21.861.861,0,0,1,1.366,1.019q-.487.892-.983,1.78a131.743,131.743,0,0,0-6.074,11.83l-.387.89c-3.261,7.5-7.726,17.765-3.793,25.352,1.911,3.687,6.433,4.047,9.912,2.5,4.342-1.93,7.515-5.943,10.583-9.822q.6-.753,1.181-1.486c2.624-3.263,5.064-6.748,7.426-10.118.849-1.212,1.7-2.425,2.56-3.633l.245-.342a64.087,64.087,0,0,1,4.153-5.411l.077-.084A.939.939,0,0,1,172.5,209.115Zm17.065,5.612h0Z" transform="translate(-130.608 -182.47)"/>
        </g>
        <path id="Trazado_115022" data-name="Trazado 115022" d="M139.847,220.832c-3.173,6.375-4.962,13.848-2.176,20.7.412,1.013,2.078.57,1.661-.458-2.617-6.434-.982-13.378,2-19.374C141.825,220.712,140.341,219.839,139.847,220.832Z" transform="translate(-131.398 -187.741)"/>
        <path id="Trazado_115023" data-name="Trazado 115023" d="M143.031,241.257c-.015,0-.028-.006-.042-.009-.024-.047-.046-.1-.054-.111l0-.005c0-.007,0,0,0-.013-.111-.384-.191-.774-.275-1.165q-.293-1.363-.585-2.725a.868.868,0,0,0-1.06-.6.881.881,0,0,0-.6,1.059l.661,3.082c.184.856.478,1.978,1.5,2.149a.883.883,0,0,0,1.059-.6A.872.872,0,0,0,143.031,241.257Z" transform="translate(-131.967 -189.992)"/>
        <path id="Trazado_115024" data-name="Trazado 115024" d="M187.077,199.334c-.977-.522-1.849.964-.869,1.487a3.987,3.987,0,0,1,1.818,3.633,24.909,24.909,0,0,1-.388,4.937,32.76,32.76,0,0,1-2.989,9.249c-.493.989.993,1.862,1.487.869a34.494,34.494,0,0,0,3.342-10.893C189.884,205.512,190.37,201.091,187.077,199.334Z" transform="translate(-138.106 -184.798)"/>
      </g>
    </g>
  </g>
</svg>
