<svg id="Grupo_984308" data-name="Grupo 984308" xmlns="http://www.w3.org/2000/svg" xmlns:xlink="http://www.w3.org/1999/xlink" width="85.822" height="90.005" viewBox="0 0 85.822 90.005">
  <defs>
    <clipPath id="clip-path">
      <rect id="Rectángulo_339011" data-name="Rectángulo 339011" width="85.822" height="90.005" fill="none"/>
    </clipPath>
  </defs>
  <g id="Grupo_983761" data-name="Grupo 983761" clip-path="url(#clip-path)">
    <path id="Trazado_211192" data-name="Trazado 211192" d="M66.793,180.87a423.866,423.866,0,0,1,41.278-12.3q6.956-1.724,13.957-3.258v1.107a1.369,1.369,0,0,0-.3.049q-27.342,7.678-54.938,14.406" transform="translate(-39.546 -97.874)" fill="#fff"/>
    <path id="Trazado_211193" data-name="Trazado 211193" d="M100.042,184.782q-2.283.512-4.565,1.028,21.844-5.489,43.534-11.57v1.845q-19.488,4.332-38.969,8.7" transform="translate(-56.529 -103.161)" fill="#fff"/>
    <path id="Trazado_211194" data-name="Trazado 211194" d="M111.673,156.664c0,.331-.007.662-.01.993a462.029,462.029,0,0,0-52.724,14.589q-4.858,1.685-9.659,3.526c1.739-.92,3.53-1.748,5.332-2.519,4.459-1.91,9.01-3.627,13.582-5.247a263.939,263.939,0,0,1,28.2-8.258q7.591-1.771,15.277-3.083" transform="translate(-29.177 -92.755)" fill="#fff"/>
    <path id="Trazado_211195" data-name="Trazado 211195" d="M20.912,47.057l.05,0c.062.018.121.038.148.045s.052.018.078.027l.054.028c.1.073.3.286.041.011.108.117.218.222.317.348a1.616,1.616,0,0,0,2.283,0,1.665,1.665,0,0,0,0-2.283,3.763,3.763,0,0,0-3.248-1.415q-.6-6.945-1.193-13.89c.136.076.268.157.4.241l.029.02c.066.056.13.113.193.173a1.614,1.614,0,0,0,2.283-2.283,6.648,6.648,0,0,0-3.2-1.614q-.224-2.6-.448-5.208C36.953,15.74,55.561,10.42,74.6,8.553a127.916,127.916,0,0,1,12.984-.63l2.632,25.883L93.422,65.36a261.452,261.452,0,0,0-57.3,16.51A58.491,58.491,0,0,0,24.442,88.1c-.036-.42-.077-.84-.113-1.259q-.41-4.771-.82-9.542c.045-.026.088-.054.135-.079a2.243,2.243,0,0,1,.647-.26c.164-.05.33-.092.5-.126.049-.01.18-.026.224-.032.148-.011.3-.019.444-.018,0,0,.325.021.319.012a4.261,4.261,0,0,1,.9.262,1.627,1.627,0,0,0,1.986-1.128,1.653,1.653,0,0,0-1.128-1.986,6.037,6.037,0,0,0-4.316-.021L22.24,62.516c.066-.012.161-.026.206-.033.16-.015.321-.028.482-.031.193,0,.383.012.575.018h.072l.069.017a7.092,7.092,0,0,1,1.1.33,1.625,1.625,0,0,0,1.986-1.128A1.654,1.654,0,0,0,25.605,59.7a7.041,7.041,0,0,0-3.642-.405L20.912,47.057" transform="translate(-11.07 -4.69)" fill="#fff"/>
    <path id="Trazado_211196" data-name="Trazado 211196" d="M85.692,61.761c-.236-3.458-.7-6.917-1.054-10.365q-2-19.711-4.009-39.422Q80.1,6.8,79.577,1.631A1.655,1.655,0,0,0,77.962.016c-18.577-.3-37,3.829-54.819,8.7-5.913,1.617-11.794,3.348-17.66,5.125a1.722,1.722,0,0,0-.191.08A1.317,1.317,0,0,0,4.3,15.4q.278,3.24.556,6.48a6.217,6.217,0,0,0-2.939,1.765A7.308,7.308,0,0,0,0,28.389a7.043,7.043,0,0,0,1.769,4.762,7.5,7.5,0,0,0,4.258,2.42l.39,4.546a6.482,6.482,0,0,0-1.072.8,7.572,7.572,0,0,0-1.912,8.611,6.319,6.319,0,0,0,3.691,3.312,1.26,1.26,0,0,0,.391.062l.244,2.841A7.73,7.73,0,0,0,6.3,56.882a7.483,7.483,0,0,0-1.236,8.513A7.345,7.345,0,0,0,8.509,68.9a2.1,2.1,0,0,0,.38.13q.086,1.091.17,2.183a9.648,9.648,0,0,0-1.634,2.145,8.018,8.018,0,0,0-1.243,5.516A8.262,8.262,0,0,0,9.2,83a1.877,1.877,0,0,0,.913.429c.042.405.083.811.128,1.215a5.965,5.965,0,0,0,4.726,4.915c4.344,1.168,8.983-.2,13.233-1.172q5.7-1.3,11.414-2.58Q53.5,82.68,67.4,79.587q8.563-1.909,17.128-3.813a1.634,1.634,0,0,0,1.185-1.557c0-4.127.261-8.339-.019-12.455m-3.2,2.148c0,.331-.007.662-.01.993A462.109,462.109,0,0,0,29.762,79.491Q24.9,81.177,20.1,83.017c1.739-.919,3.53-1.747,5.332-2.519,4.459-1.91,9.01-3.627,13.582-5.247a264.03,264.03,0,0,1,28.2-8.258Q74.81,65.221,82.5,63.909M27.247,83a423.857,423.857,0,0,1,41.278-12.3q6.956-1.724,13.957-3.258v1.107a1.352,1.352,0,0,0-.3.049Q54.843,76.269,27.247,83M4.871,31.645c.007,0-.277-.223-.315-.257q-.213-.2-.406-.412c-.049-.055-.1-.111-.144-.168l-.051-.07c-.1-.163-.21-.321-.3-.49-.024-.044-.157-.35-.174-.37-.052-.147-.1-.293-.142-.444-.013-.048-.062-.328-.078-.384a6.726,6.726,0,0,1-.006-1.014l0-.016q.022-.128.049-.255c.041-.185.091-.368.149-.547.028-.085.058-.169.089-.253l.009-.02c.085-.168.169-.337.266-.5.024-.039.195-.281.218-.326.1-.119.2-.236.309-.344.033-.032.259-.225.292-.262a4.557,4.557,0,0,1,.392-.254c.016-.009.06-.029.112-.053q.3,3.468.6,6.936c-.027-.011-.038-.013-.034-.01-.144-.071-.287-.142-.425-.223s-.273-.173-.405-.264M9.842,42.356l.026.006-.026,0v0m-2.667,6.88c-.1-.092-.2-.189-.293-.29-.055-.059-.108-.12-.159-.182L6.7,48.737c-.075-.117-.154-.23-.224-.35s-.142-.273-.213-.41c-.027-.072-.053-.144-.077-.216q-.064-.2-.112-.4a3.174,3.174,0,0,0-.057-.367,6.568,6.568,0,0,1,.01-.855c.011-.056.034-.206.045-.257.038-.174.084-.346.137-.515.013-.041.1-.282.115-.333.062-.138.128-.275.2-.408s.159-.283.246-.421l.434,5.059-.032-.027m2.668-6.87.05,0,.148.045c.027.008.052.018.078.027l.054.028c.1.073.3.286.041.011.108.117.219.222.317.348a1.616,1.616,0,0,0,2.283,0,1.665,1.665,0,0,0,0-2.283,3.763,3.763,0,0,0-3.248-1.415q-.6-6.945-1.193-13.89c.136.076.268.157.4.241l.028.02c.066.056.13.113.193.173a1.614,1.614,0,1,0,2.283-2.283,6.646,6.646,0,0,0-3.2-1.614q-.223-2.6-.447-5.208c18.256-5.52,36.864-10.84,55.9-12.706a127.918,127.918,0,0,1,12.984-.63q1.316,12.942,2.632,25.883l3.209,31.554a261.431,261.431,0,0,0-57.3,16.51,58.468,58.468,0,0,0-11.684,6.23c-.036-.42-.077-.84-.113-1.259q-.409-4.772-.82-9.542c.045-.026.088-.054.135-.079a2.251,2.251,0,0,1,.647-.26c.164-.049.33-.091.5-.126.049-.01.18-.026.225-.032.148-.011.3-.019.444-.017,0,0,.325.021.319.012a4.286,4.286,0,0,1,.9.262,1.626,1.626,0,0,0,1.986-1.128,1.652,1.652,0,0,0-1.128-1.986,6.038,6.038,0,0,0-4.316-.021L11.17,57.826c.065-.012.161-.026.206-.033.16-.015.321-.028.482-.031.193,0,.383.011.575.018.034,0,.053,0,.072,0l.068.017a7.123,7.123,0,0,1,1.1.33A1.625,1.625,0,0,0,15.663,57a1.654,1.654,0,0,0-1.128-1.986,7.041,7.041,0,0,0-3.642-.406L9.843,42.367M8.2,64.4q-.15-.247-.277-.508c-.022-.045-.067-.157-.09-.213-.121-.345-.208-.69-.3-1.045-.009-.034-.016-.059-.021-.08s0-.038,0-.062c-.014-.192-.029-.383-.03-.576s.013-.382.026-.574c0-.029,0-.044,0-.061s.013-.041.022-.078c.049-.186.084-.373.142-.558.012-.038.1-.268.128-.349.044-.079.153-.292.171-.324.043-.074.093-.143.14-.214q.221,2.575.442,5.15c-.025-.029-.051-.058-.075-.088l-.042-.058c-.079-.121-.162-.239-.237-.363m1.14,13.772c-.007-.027-.044-.218-.06-.284,0-.089,0-.353,0-.419a5.466,5.466,0,0,1,.2-.807l0-.011q.09,1.109.187,2.218a2.463,2.463,0,0,1-.335-.7m34.177,3.445q-2.283.512-4.565,1.028,21.844-5.489,43.534-11.57v1.845q-19.488,4.332-38.969,8.7" transform="translate(0 0)" fill="#161615"/>
    <path id="Trazado_211197" data-name="Trazado 211197" d="M53.842,66.722q-.13-4.632-.071-9.265a64.892,64.892,0,0,0,4.439,8.088c.7,1.081,2.664,1.055,2.951-.385q1.9-9.524,3.342-19.131a1.669,1.669,0,0,0-1.128-1.986,1.625,1.625,0,0,0-1.986,1.128q-1.14,7.584-2.567,15.12A61.91,61.91,0,0,1,53.94,49.039a1.622,1.622,0,0,0-3.171.43q-.4,8.621-.156,17.253c.059,2.074,3.288,2.082,3.229,0" transform="translate(-29.911 -26.045)" fill="#161615"/>
    <path id="Trazado_211198" data-name="Trazado 211198" d="M91.275,61.2c2.262,1.157,4.435-.453,5.519-2.418a18.238,18.238,0,0,0,2.155-8.411,5.7,5.7,0,0,0,1.633-1.352,1.661,1.661,0,0,0,0-2.283,1.7,1.7,0,0,0-2-.244,14.893,14.893,0,0,0-.667-2.283c-.768-1.985-2.326-3.965-4.622-3.913a1.529,1.529,0,0,0-2.188.528A22.329,22.329,0,0,0,88.32,55.383c.313,2.09.885,4.757,2.955,5.816m1.131-3.238a9.279,9.279,0,0,1-1.066-4.382,19.4,19.4,0,0,1,.145-4.236,5.68,5.68,0,0,0,2.574,1.6,6.1,6.1,0,0,0,1.6.24,14.722,14.722,0,0,1-1.539,5.74c-.341.666-1.035,2.018-1.718,1.035m.917-14.453h0m.181-.1c.04-.1.039-.059,0,0m1.852,3.569c.068.31.122.623.17.939a2.626,2.626,0,0,1-2.4-2.129,3.127,3.127,0,0,1,.018-1.505c.07-.256.222-.46.3-.7l.013-.04a.731.731,0,0,1,.187.044c1.124.47,1.489,2.375,1.712,3.395" transform="translate(-52.145 -23.708)" fill="#161615"/>
    <path id="Trazado_211199" data-name="Trazado 211199" d="M116.594,40.253c.263-.143.528-.279.8-.407.14-.066.281-.136.426-.193l.128-.049c.026-.01.053-.018.078-.028q.181,7.609.363,15.218c.049,2.075,3.279,2.082,3.229,0q-.191-8.029-.382-16.059c.058-.009.061-.009,0,0,0-.005,0-.011,0-.016a5.072,5.072,0,0,1,.764-.051c.3-.019.6-.028.9-.03a1.615,1.615,0,1,0,0-3.229,16.862,16.862,0,0,0-7.929,2.056,1.63,1.63,0,0,0-.579,2.209,1.649,1.649,0,0,0,2.209.579" transform="translate(-67.593 -20.964)" fill="#161615"/>
    <path id="Trazado_211200" data-name="Trazado 211200" d="M146.041,45.366l.12,3.213c.044,1.182.149,2.441,1.313,3.078a4.76,4.76,0,0,0,2.821.308,14.183,14.183,0,0,0,3.286-.737,1.657,1.657,0,0,0,1.128-1.986,1.629,1.629,0,0,0-1.986-1.128,12.656,12.656,0,0,1-2.062.564c-.352.063-.886.051-1.263.087-.014-.354-.027-.709-.04-1.063l-.093-2.483q-.02-.518-.039-1.037l5.015-.921a1.626,1.626,0,0,0,.965-.742,1.615,1.615,0,0,0-1.823-2.372l-4.278.785-.015-.388q-.043-1.168-.087-2.337l-.04-1.075,4.619-.905a1.624,1.624,0,0,0,1.128-1.986,1.656,1.656,0,0,0-1.986-1.128l-4.535.889a2.116,2.116,0,0,0-2.251,1.449,8.015,8.015,0,0,0-.148,3.193q.125,3.359.251,6.718" transform="translate(-86.265 -19.584)" fill="#161615"/>
    <path id="Trazado_211201" data-name="Trazado 211201" d="M52.83,102.562Q77.222,96.7,101.467,90.251a1.616,1.616,0,0,0-.858-3.114Q76.365,93.586,51.972,99.449c-2.02.485-1.165,3.6.858,3.114" transform="translate(-30.088 -51.555)" fill="#161615"/>
  </g>
</svg>
